<?xml version="1.0" encoding="utf-8"?>
<!-- Generator: Adobe Illustrator 28.2.0, SVG Export Plug-In . SVG Version: 6.00 Build 0)  -->
<svg version="1.1" id="Layer_1" xmlns="http://www.w3.org/2000/svg" xmlns:xlink="http://www.w3.org/1999/xlink" x="0px" y="0px"
	 viewBox="0 0 56 56" style="enable-background:new 0 0 56 56;" xml:space="preserve">
<style type="text/css">
	.st0{fill:#FFFFFF;}
	.st1{clip-path:url(#SVGID_00000145033891730683117900000015702594026542388900_);}
	.st2{fill:#408D27;}
</style>
<g>
	<path shape-rendering="crispEdges" class="st0" d="M28,0L28,0c15.5,0,28,12.5,28,28l0,0c0,15.5-12.5,28-28,28l0,0
		C12.5,56,0,43.5,0,28l0,0C0,12.5,12.5,0,28,0z"/>
	<g>
		<defs>
			<rect id="SVGID_1_" x="12" y="12" width="32" height="32"/>
		</defs>
		<clipPath id="SVGID_00000179636870484253502000000002017473921769852854_">
			<use xlink:href="#SVGID_1_"  style="overflow:visible;"/>
		</clipPath>
		<g style="clip-path:url(#SVGID_00000179636870484253502000000002017473921769852854_);">
			<path class="st2" d="M26.7,12c0.8,0,1.7,0,2.5,0c0.1,0,0.3,0.1,0.4,0.1c0.4,0.1,0.8,0,1.2,0.1c1,0.2,1.9,0.5,2.9,0.8
				c1.4,0.5,2.7,1.2,3.9,2.1c0.2,0.1,0.1,0.2,0,0.3c-0.5,0.7-1.1,1.4-1.6,2.1c-0.7,0.9-1.3,1.7-2,2.6c-4-2.9-9.3-2.7-12.9,0.7
				c-2.5,2.3-4.4,6.8-2,11.6c1.5,3.1,5.1,5.9,9.8,5.4c3.9-0.4,7.3-3.2,8.4-6.8H28V25h0.4c5.1,0,10.2,0,15.3,0c0.1,0,0.2,0,0.3,0v4.3
				c0,0.1-0.1,0.2-0.1,0.3c-0.1,0.5-0.1,1-0.2,1.5c-0.3,1.4-0.7,2.7-1.3,4c-0.7,1.4-1.5,2.6-2.6,3.7c-0.8,0.9-1.8,1.7-2.9,2.5
				c-1,0.7-2,1.2-3.1,1.6c-0.9,0.3-1.8,0.6-2.7,0.8c-0.6,0.1-1.3,0.2-1.9,0.3c-1,0-2,0.1-2.9,0c-0.8-0.1-1.7-0.3-2.5-0.5
				c-1.7-0.4-3.2-1.2-4.6-2.1c-1.1-0.7-2.1-1.5-2.9-2.6c-0.5-0.6-1.1-1.3-1.5-2c-0.9-1.3-1.6-2.8-2-4.3c-0.4-1.4-0.6-2.7-0.6-4.2
				c0-0.6,0-1.2,0.1-1.8c0-0.6,0.1-1.1,0.2-1.7c0.2-0.9,0.5-1.8,0.8-2.7c0.4-1.1,1-2.2,1.7-3.2c0.7-1.1,1.6-2.1,2.6-2.9
				c0.4-0.4,0.8-0.7,1.3-1c1-0.8,2.2-1.4,3.4-1.9c1.2-0.5,2.5-0.9,3.8-1C26,12.1,26.4,12.1,26.7,12L26.7,12z"/>
		</g>
	</g>
</g>
</svg>
