<?xml version="1.0" encoding="utf-8"?>
<!-- Generator: Adobe Illustrator 28.2.0, SVG Export Plug-In . SVG Version: 6.00 Build 0)  -->
<svg version="1.1" id="Layer_1" xmlns="http://www.w3.org/2000/svg" xmlns:xlink="http://www.w3.org/1999/xlink" x="0px" y="0px"
	 viewBox="0 0 371 353" style="enable-background:new 0 0 371 353;" xml:space="preserve">
<style type="text/css">
	.st0{opacity:0.3;clip-path:url(#SVGID_00000173874213310821321870000003441109501144883845_);}
	.st1{fill:#86975C;}
	.st2{clip-path:url(#SVGID_00000158014695990261419380000005128810314380754588_);}
	.st3{fill:#83A532;}
	.st4{fill:#6D8F25;}
	.st5{fill:#632424;}
	.st6{clip-path:url(#SVGID_00000093149704585818423470000000061973866986029197_);}
	.st7{fill:#87B11A;}
	.st8{fill:#719913;}
	.st9{fill:#D4DDBA;}
	.st10{fill:#5E7C12;}
	.st11{fill:#516E0E;}
	.st12{fill:#3A8E3E;}
	.st13{fill:#21C130;}
	.st14{fill:#30282B;}
	.st15{fill:#312827;}
	.st16{fill:#473B3A;}
	.st17{fill:#356D37;}
	.st18{fill:#1CA028;}
	.st19{fill:#53F463;}
	.st20{fill:#FFFFFF;}
	.st21{fill:#AD831A;}
	.st22{fill:#96731A;}
	.st23{fill:#E5B816;}
	.st24{fill:#C1951B;}
	.st25{fill:#896619;}
	.st26{fill:#F9D86E;}
	.st27{fill:#9E0707;}
	.st28{fill:#DA0306;}
	.st29{fill:#D90201;}
	.st30{fill:#B80104;}
	.st31{fill:#82030A;}
	.st32{fill:#F44D4D;}
</style>
<g>
	<g>
		<defs>
			<rect id="SVGID_1_" x="-41.3" y="147" width="432" height="199"/>
		</defs>
		<clipPath id="SVGID_00000133525659381565534070000010501423085613802919_">
			<use xlink:href="#SVGID_1_"  style="overflow:visible;"/>
		</clipPath>
		<g style="opacity:0.3;clip-path:url(#SVGID_00000133525659381565534070000010501423085613802919_);">
			<path class="st1" d="M85.4,234.2c0.1,1.8,2,3.3,3.8,3c-1.3,1.1-1.5,3.3-0.9,4.8c0.6,1.6,2.3,2.7,4,2.6c-3.4,3.6-6.4,7.9-6.3,12.9
				c0.1,4.9,3.8,10,8.7,10.3c2.7,0.2,5.2-1,7.4-2.6c0.9,2.5,2.7,4.7,5.1,5.8c0.2,0.1,0.3,0.1,0.5,0.2c0.8,0.3,1.7,0.5,2.5,0.3
				c0.8-0.2,1.7-1.1,1.6-2c0.7,1.7,2.3,2.9,4.1,3.2c1.5,0.2,3-0.2,4.1-1.2c0.2-0.2,0.5-0.4,0.7-0.6c0.2,0.6,0.5,1.2,0.9,1.7
				c-0.8,4.1-1.9,8.2-3.2,12.2c-4.3,12.7-11.1,24.4-18.1,35.8c6.3,1.6,12.4,2.3,18.9,2.6c4.1-10.7,7.1-22.2,8.7-33.9
				c8-2.3,15.2-7.1,20.1-13.6c0.6,0.7,1.5,1.2,2.4,1.4c0.8,0.2,1.6,0.2,2.3,0c1.8-0.5,3-2.4,3.2-4.3c1.8,0.5,3.7-0.1,5.1-1.4
				c0.2-0.1,0.3-0.3,0.5-0.5c0.7-0.8,1.2-1.7,1.6-2.8c1.2,1,2.6,1.9,4.1,2.4c3.7,1.3,8.1,0.9,11.4-1.4c2.4-1.6,4-4.3,4.5-7.1
				c0.2-1.1,0.2-2.2,0-3.3c-0.6-3.9-4-7.3-7.9-7.8c2.3-1.2,3.6-3.7,3.6-6.3c0-2.6-1.5-5.2-3.8-6.4c-2.3-1.2-5.3-1.1-7.4,0.4
				c0.6-0.9,0.6-2.1,0-3c-0.6-0.9-1.7-1.5-2.8-1.3c3.4-3.6,6.9-7.3,8.5-12c1.7-4.7,1.9-10,0.1-14.7c-1.8-4.7-5.7-8.6-10.6-9.7
				c-4.9-1.1-10.4,0.8-13,5.1c0.7-3.2-1.9-7.1-5.1-8.1c-3.1-1-6.8,0.8-8.1,3.8c-1.1-2.4-4.3-4.4-7-4.3c-2.7,0.1-5.2,1.7-6.6,4
				c-1.4,2.3-1.6,5.2-0.9,7.8c-0.9-1.4-3.4-1.6-4.7-0.6c-1.4,1-2,2.8-2,4.5c0,1.7,0.6,3.3,1.2,4.9c-1.1-0.9-2.9-0.4-4,0.5
				c-1,0.9-1.6,2.3-1.9,3.7c-1.4-3.6-2.7-7.2-5.1-10.2c-2.4-3-6.1-5.3-9.9-5.2c-1.6,0-3,0.5-4.4,1.3c-3.3,1.9-5.7,5.6-6.3,9.5
				c-0.8,5.4,1.1,10.9,3.7,15.7C86.6,230.2,85.3,232.4,85.4,234.2L85.4,234.2z M128.4,283.5c0.2-2.1,0.4-4.1,0.5-6.2
				c0.1,0,0.2,0,0.3,0.1c0.6,0.1,1.2,0.1,1.8,0c3.1-0.2,5.9-2,7.7-4.5c0.3,1.6,1.3,3,2.7,3.7c0.3,0.1,0.5,0.3,0.8,0.3
				c0.3,0.1,0.7,0.2,1,0.2C138.2,281.2,132.2,283.1,128.4,283.5z"/>
			<path class="st1" d="M-40.7,232.4c1.2,3.3,4.1,5.6,7.6,6.1c-2.4,1.6-3.7,4.7-3.4,7.6c0.4,2.9,2.5,5.9,5.2,6.9
				c-0.2,3.1,1.1,6.3,3.4,8.3c2.3,2,5.7,2.9,8.7,2.3c1.2-0.2,2.3-0.7,3.1-1.5c0.8-0.8,1.3-2,1.1-3.2c1.9,2.7,5.4,4.2,8.7,3.6
				c0,0,0,0,0,0c1.2-0.2,2.4-0.8,3.5-1.7c-5,27.9-5,57.1,0.6,84c10.2-0.8,20.1-1.3,30.4-2.1c-7.4-15.3-12.6-31.7-15.5-48.4
				c6.7-7.5,12.3-16.1,16.4-25.4c1.8-0.6,3.3-1.9,4-3.7c0.2,0.1,0.4,0.3,0.6,0.4c3.2,2,7.8,1.3,10.6-1.3c1.6-1.6,2.7-3.6,3.1-5.9
				c0.3-1.8,0.3-3.7-0.1-5.4c-0.1-0.3-0.2-0.6-0.3-0.9c0,0,0,0,0,0c3.2-0.5,6.2-2.3,8.1-5c1.9-2.6,2.7-6,2.2-9.2
				c2.6,0.8,5.7,0,8-1.4c2.3-1.5,3.9-3.7,5.1-6.2c0.9-2,1.5-4.3,1.6-6.5c0-1.4-0.1-2.9-0.5-4.3c-1-3.6-3.6-6.7-7-8
				c-3.5-1.3-7.7-0.5-10.2,2.2c1.7-2,1.5-5.5,0.2-7.8c4.6-4.9,8.2-10.6,9.2-17.2c1-6.6-0.7-13.7-5.1-18.7c-4.4-5-11.7-7.6-18.1-5.7
				c1.4-4,0.4-8.8-2.2-12.1c-2.6-3.3-6.9-5.2-11.1-4.7c-4.2,0.4-8.1,3.1-9.9,6.9c-0.2-3.8-4.7-6.8-8.4-6.6c-3.8,0.2-7.1,3-8.4,6.5
				c-1.4,3.5-1.1,7.5,0.1,11.1c-2.5-2.4-6.6-3.1-9.6-1.5c-3,1.6-4.7,5.3-4.1,8.7c-2.4-1.9-6.4-1.7-8.8,0.1c-2.4,1.8-3.4,5.3-2.3,8.2
				c-2.1,0.1-4.2,0.7-6,1.8c-3.9,2.1-6.9,5.8-8,10.1c-1.7,6.3,1.1,13.5,6.6,17c-2.7,1.5-3.5,5.2-2.6,8.3c-2,1.2-3.8,2.8-5.1,4.9
				c-0.4,0.7-0.8,1.4-1.1,2.2C-41.5,227-41.6,229.8-40.7,232.4L-40.7,232.4z M11.2,283.6c-0.7-6.2-1.1-12.4-1.2-18.7
				c1.3,0.2,2.6,0.1,4-0.2c2.8-0.6,5.5-2.3,6.9-4.8c-1,2.7,0,5.9,2.1,7.7c0.3,0.2,0.5,0.4,0.8,0.6C20.3,273.9,16.1,279.1,11.2,283.6
				L11.2,283.6z"/>
			<path class="st1" d="M168.4,254.5c-0.2,3.7,1.1,7.6,3.9,10c1.3,1.1,2.8,1.8,4.5,2.1c-0.3,2.1-0.1,4.3,0.7,6.3
				c0.2,0.5,0.4,1,0.7,1.4c1.7,3,4.7,5.1,8.1,6c0.2,3.3,2.2,6.4,5.1,7.8c2.9,1.5,6.7,1.6,9.4-0.2c1.2,2,4.3,3.1,6.5,2.3
				c-0.2,3.1,1.6,6.1,4.1,7.8c2.1,1.4,4.6,1.9,7.1,1.9c0.6,0,1.2-0.1,1.8-0.1c0.5-0.1,0.9-0.1,1.4-0.3c-0.2,10.2-1.2,20.3-3.1,30.3
				c3.3,0.3,6.7,0.9,10,1.2c2-10.6,2.2-21.4,1.2-32.2c2,0.7,4.2,0.9,6.3,0.3c3.5-0.9,6.3-3.7,7.5-7.1c1.5,0.4,3.1-0.1,4.1-1.3
				c1-1.1,1.4-2.9,0.9-4.3c3-1.3,5.2-4,6.2-7.1c0.3-0.8,0.4-1.7,0.5-2.6c0.1-1.9-0.4-3.8-1.2-5.5c0.7-0.9,1.3-1.9,1.7-3
				c4.9-1.7,8.4-6.5,8.6-11.7c0-2-0.4-4.1-1.3-5.9c-1.4-2.9-3.8-5.5-6.7-6.6c3.3-1.5,5.3-5.5,4.5-9.1c-0.8-3.6-4.2-6.4-7.9-6.2
				c2.2-5.1,0.5-11.6-3.9-15c-4.4-3.4-11.1-3.6-15.6-0.3c-2.4-1.4-5.9-0.6-7.3,1.7c-1.4-1.9-3.6-3.1-5.9-3.5
				c-2.3-0.3-4.5,0.2-6.3,1.6c-2.5-6.2-8.7-10.7-15.4-11.1c-6.7-0.4-13.4,3.5-16.5,9.4c-3.1,5.9-2.8,14,1.2,19.3
				c-2.4,0.1-4.8,0.5-6.9,1.5c-0.7,0.3-1.3,0.8-1.9,1.2c-1.3,1-2.3,2.4-2.8,3.9c-0.7,2.3-0.7,5,1.1,6.6
				C170.3,247.3,168.6,250.8,168.4,254.5L168.4,254.5z M240.3,259.7c0.5-0.1,1-0.3,1.4-0.5c-0.1,0.5-0.2,1-0.3,1.5
				C241,260.3,240.7,260,240.3,259.7L240.3,259.7z"/>
			<path class="st1" d="M267.1,246.7c-1.8-1.2-2.7-3.7-2.2-5.8c0.5-2.1,2.4-4.6,4.6-4.8c-6.7,0.4-13.2-3.4-17.2-8.9
				c-3.9-5.5-5.5-12.3-5.6-19.1c-0.1-5.7,0.9-11.7,4.6-16.1c1.6-2,3.8-3.6,6.1-4.7c2.2-1,4.6-1.6,7-1.8c5-0.3,9.7,1,14.1,3.5
				c0.7-3,2.5-6,5.4-7.3c2.8-1.3,6.5-0.5,8.1,2.2c-1-4.5-1.6-9.1-1-13.7c0.6-4.6,2.5-9,5.7-12.2c3.3-3.2,8.1-5,12.6-4.1
				c4.5,0.9,8.8,4.7,9.2,9.3c1.9-2,4.4-3.5,7.2-3.9c2.8-0.4,5.7,0.5,7.5,2.6c1.4,1.6,2,3.8,2.1,5.9c0.1,2.1-0.4,3.8-0.8,5.9
				c2.3-0.4,4.8,1.1,5.5,3.4c0.3,1.2,0.2,2.5-0.4,3.7c2.2-2,4.6-3.6,7.3-4.7c3.8-1.4,8.2-1.4,11.7,0.7c3.4,2.1,5.3,6.4,4,10.3
				c2.3-1.3,5.5-0.7,7.1,1.3c1.6,2,1.3,5.1-0.4,7c4.9-0.3,9.9,0.7,14,3.4c1.6,1,3,2.3,4.1,3.8c1.9,2.4,3.1,5.2,3.3,8.2
				c0.4,4.9-2.3,9.7-6.6,11.9c2.7,1.6,4,5.3,2.9,8.3c-1.1,3-4,4.7-7.1,4.1c1.6,6.9-1.5,14.7-7.4,18.6c-0.2,0.1-0.3,0.2-0.5,0.3
				c0.2,2.2,0,4.4-0.7,6.5c-0.4,1.2-1,2.4-1.8,3.5c-2.1,3-5.4,5.2-8.9,6.1c1.3,4.4-0.4,9.4-4.1,12.1c-3.6,2.7-9,3-12.8,0.5
				c-0.1,2.1-1.7,3.9-3.8,4.3c-1.9,0.4-3.9-0.5-4.9-2.2c0-0.1-0.1-0.2-0.1-0.2c-0.5,1.2-1.2,2.3-2,3.3c2.1,19.5,1.5,39.3-1.9,58.1
				c-7.5-2.7-15.2-5.2-23-7.1c5.3-15.1,8.4-30.9,9.4-46.9c-3.1-1.2-5.8-3.4-7.3-6.2c-1.1,1.3-2.6,2.2-4.2,2.6
				c-1.4,0.4-3,0.4-4.4,0.1c-3.1-0.8-5.6-3.7-6.4-6.8c-2.5,3-7.4,3.3-10.7,1.3c-3.4-2-5.3-5.9-5.7-9.8c0-0.1,0-0.3,0-0.4
				c-0.4-0.1-0.7-0.2-1.1-0.4c-2.5-1-4.6-3.1-6.3-5.3c-4.4,1.6-9.6,0.7-13-2.4c-3.4-3.1-4.7-8.5-2.8-12.7
				C257.5,247.8,262.7,245.2,267.1,246.7L267.1,246.7z"/>
		</g>
	</g>
	<g>
		<defs>
			<rect id="SVGID_00000177448105380277439270000008070034183905011117_" x="-156.3" y="73" width="647" height="264"/>
		</defs>
		<clipPath id="SVGID_00000019670097795795441150000012687936301383431596_">
			<use xlink:href="#SVGID_00000177448105380277439270000008070034183905011117_"  style="overflow:visible;"/>
		</clipPath>
		<g style="clip-path:url(#SVGID_00000019670097795795441150000012687936301383431596_);">
			<path class="st3" d="M388.4,240.3c1.2,8.7-3.9,17.8-11.8,21.4c-0.3,0.2-0.7,0.3-1,0.4c-1.7,0.7-3.6,1.1-5.3,0.6
				c-1.8-0.5-3.6-2.3-3.3-4.1c-1.5,3.5-4.8,6.1-8.6,6.7c-3.1,0.5-6.2-0.5-8.7-2.4c-0.5-0.4-0.9-0.8-1.4-1.3
				c-2.9,7.3-10,12.8-17.8,13.7c-1.3,0.2-2.6,0.2-3.8,0.1c-6.4-0.5-12.4-4.2-16.2-9.5c-0.5,3.3-2.8,6.2-5.7,7.8
				c-0.6,0.3-1.1,0.5-1.7,0.7c-3.8,1.1-8.2-0.6-10.9-3.6c-1.4,1.9-3.5,3.2-5.7,3.8c-1.6,0.4-3.3,0.4-4.8,0c-3.8-1.1-6.3-5.1-6.6-9
				c-3.7,1-7.7-0.3-10.6-2.8c-0.4-0.3-0.7-0.7-1.1-1c-2.9-3.2-4.2-7.6-4.4-11.9c-0.2-4.3,0.6-8.6,1.5-12.8c0.8-3.7,1.7-7.4,3.7-10.6
				c2-3.2,5.4-5.7,9.1-5.8c-1.1-15.1-5.1-38.2,6.4-47.9c0.1-0.1,0.3-0.3,0.4-0.4c11.9-9.5,42.7-9.2,57.8-7
				c13.2,1.9,25.6,8.2,35.5,17.2c1.4,1.3,2.8,2.6,4.2,4c2,2.1,3.8,4.3,5.5,6.6c3,4,5.5,8.4,7.3,13.1c0.7,1.8,1.3,3.7,1.8,5.6
				C394.6,221.3,393.7,232,388.4,240.3z"/>
			<g>
				<path class="st4" d="M388.4,240.3c1.2,8.7-3.9,17.8-11.8,21.4c-0.1-0.1-0.2-0.2-0.3-0.2c-5.3-4.2-7-12.2-4.2-18.4
					c-4.2,0.5-8.8-0.4-11.5-3.5c-2.3-2.6-3.1-6.3-2.7-9.8c0.3-3.5,1.5-6.8,2.7-10.1c-3.4,0.7-7.7-2.5-7.7-6
					c-4.3,15.8-5.6,32.9-3.1,49.2c-0.5-0.4-0.9-0.8-1.4-1.3c-2.9,7.3-10,12.8-17.8,13.7c-1.3,0.2-2.6,0.2-3.8,0.1
					c-2.3-14.2-1.9-28.6,0.6-42.8c-4.2,2.3-9.2,3-13.9,2c-4.7-1-8.9-3.5-11.8-7.3c-1,3.2-4.2,5.3-7.5,5.2c0.9,3.4,1.6,7.1,0.9,10.5
					c-0.8,3.5-3.4,7-6.8,7.6c3,9.1,8.9,17.5,16.7,23.1c-0.6,0.3-1.1,0.5-1.7,0.7c-3.8,1.1-8.2-0.6-10.9-3.6
					c-1.4,1.9-3.5,3.2-5.7,3.8c-4.7-5.2-8-11.7-9.3-18.7c-3.2,3.8-7.8,6.2-12.7,6.8c-0.4-0.3-0.7-0.7-1.1-1
					c-2.9-3.2-4.2-7.6-4.4-11.9c-0.2-4.3,0.6-8.6,1.5-12.8c0.8-3.7,1.7-7.4,3.7-10.6c2-3.2,5.4-5.7,9.1-5.8
					c-1.1-15.1-5.1-38.2,6.4-47.9c31.4,1.1,62.9,4.3,93.8,9.8c1.4,0.2,2.8,0.5,4.3,0.8c1.8,3.3,3.6,6.6,5.5,9.8
					c2.4,4.4,4.9,8.7,7.3,13.1c0.7,1.8,1.3,3.7,1.8,5.6C394.6,221.3,393.7,232,388.4,240.3z"/>
			</g>
			<path class="st5" d="M391.2,365.9c-14.7-24-28.9-48.5-37.9-75.1c-4.5-13.1-7.6-26.9-8.9-40.7c16.1-6.3,30.1-23.5,31.9-40.6
				c-1-0.1-2.1-0.2-3.1-0.3c-2.6,15-14.8,27.5-29.4,31.2c-0.3-11.1,0.7-22.1,3.3-32.9c-3.7-0.4-7.4-0.7-11.1-1.1
				c-5.5,26.3-6.5,54.2-3.8,81.9c-14.1-1.5-42.2-12.7-48.8-41.6c-1.1,0-2.3-0.4-3.4-0.4c5.5,26.5,27.6,46.5,53.5,54
				c3.3,24.6,9.5,48.8,18.1,71.1C365.2,370.7,378,369.2,391.2,365.9L391.2,365.9z"/>
			<path class="st3" d="M422.1,184.7c-0.2,3.8-4.3,6.9-8,6.2c2.6,2.4,3.2,6.8,1.9,10.1c-1.3,3.3-4.8,5.6-8.3,5.5
				c7.1,7.5,13.4,16.6,13.2,27c-0.2,10.3-7.9,20.9-18.2,21.6c-7.4,0.5-14.3-3.9-19.6-9.1c-13-12.4-20.7-30.1-21-48.1
				c-1,2.1-3.7,3.8-6.1,3.8c-2.4,0.1-4.7-1.3-5.9-3.4c1.3,3.5,0.8,7.6-1.2,10.7c-2,3.1-6,5-9.5,4.1c-3.6-0.9-6.3-4.8-5.4-8.4
				c-1.8,5.3-4.6,11-8.5,15c-3.9,4-10.3,6.1-15.1,3.2c-3-1.8-4.8-5.1-6-8.3c-3.1-8-3.9-16.9-2.4-25.4c-8.6,3-18.8,1.1-25.5-5
				c6.8,6.6,11.9,14.9,14.8,23.9c1.2,3.7,2.1,7.7,1.2,11.5c-0.9,3.8-4.7,9.4-8.6,9.9c3.8,2.2,6,6.9,5.2,11.3c-0.8,4.4-4.5,8-8.9,8.7
				c-4.4,0.7-9-1.6-11.1-5.5c-3.6,7.5-10,14-17.8,16.8c-7.8,2.8-17,1.9-23.8-2.9c-4.9-3.4-8.4-9-9.4-14.9c-0.4-2.3-0.4-4.6-0.1-6.8
				c1.3-8.2,8.3-15.4,16.5-16.3c-4.9-2.5-7.5-7.8-7.6-13.2c-0.1-5.5,3.1-10.9,7.9-13.5c4.8-2.6,11.1-2.3,15.6,0.8
				c-1.2-2-1.3-4.4-0.1-6.4c1.2-2,3.6-3.1,5.9-2.8c-7.2-7.6-14.3-15.3-17.8-25.2c-3.5-9.9-4-21-0.3-30.8c3.7-9.8,12-18,22.2-20.4
				c10.2-2.4,21.9,1.8,27.3,10.7c-1.4-6.7,4.1-14.9,10.6-16.9c6.5-2,14.3,1.6,16.9,8c2.3-5.1,9-9.1,14.6-8.9
				c5.6,0.2,10.9,3.6,13.8,8.4c2.9,4.8,3.4,10.9,1.9,16.3c1.9-3,7-3.4,9.9-1.3c2.9,2.1,4.2,5.8,4.1,9.4c-0.1,3.6-1.2,7-2.4,10.3
				c2.3-1.8,6.1-0.9,8.3,1.1c2.2,2,3.3,4.9,4.1,7.7c2.9-7.6,5.6-15.2,10.7-21.5c5.1-6.3,12.7-11.2,20.8-10.9
				c3.3,0.1,6.4,1.1,9.1,2.7c7,4,12,11.8,13.3,20c1.8,11.4-2.4,22.9-7.8,33.1C419.5,176.3,422.4,180.8,422.1,184.7z"/>
			<g>
				<path class="st4" d="M422.1,184.7c-0.2,3.8-4.3,6.9-8,6.2c2.6,2.4,3.2,6.8,1.9,10.1c-1.3,3.3-4.8,5.6-8.3,5.5
					c7.1,7.5,13.4,16.6,13.2,27c-0.2,10.3-7.9,20.9-18.2,21.6c-7.4,0.5-14.3-3.9-19.6-9.1c-13-12.4-20.7-30.1-21-48.1
					c-1,2.1-3.7,3.8-6.1,3.8c-2.4,0.1-4.7-1.3-5.9-3.4c1.3,3.5,0.8,7.6-1.2,10.7c-2,3.1-6,5-9.5,4.1c-3.6-0.9-6.3-4.8-5.4-8.4
					c-1.8,5.3-4.6,11-8.5,15c-3.9,4-10.3,6.1-15.1,3.2c-3-1.8-4.8-5.1-6-8.3c-3.1-8-3.9-16.9-2.4-25.4c-8.6,3-18.8,1.1-25.5-5
					c6.8,6.6,11.9,14.9,14.8,23.9c1.2,3.7,2.1,7.7,1.2,11.5c-0.9,3.8-4.7,9.4-8.6,9.9c3.8,2.2,6,6.9,5.2,11.3
					c-0.8,4.4-4.5,8-8.9,8.7c-4.4,0.7-9-1.6-11.1-5.5c-3.6,7.5-10,14-17.8,16.8c-7.8,2.8-17,1.9-23.8-2.9c-4.9-3.4-8.4-9-9.4-14.9
					c0.6,1.2,1.4,2.3,2.4,3.2c3.3,3.1,8,4.2,12.5,4.1c3.8-0.1,7.6-1,10.9-3.1c3.2-2,5.8-5.2,6.7-9c-3.9-1-6.8-5.3-6.1-9.3
					c3.6,0.5,6.8,3.2,7.8,6.7c0-4,1.7-7.9,4.6-10.6c0.7,3.4,0.4,6.6-0.8,9.8c1.3,1.5,3.9,1.8,5.7,0.9c1.8-0.8,3.1-2.7,3.4-4.7
					c0.4-2-0.1-4-1.1-5.8c2.5,0.9,5.6,0.4,7.6-1.5c1.9-1.9,2.7-4.9,1.8-7.5c-0.8-2.4-2.9-4.3-5.4-4.9c2.7,0.3,5.5-1.6,6.7-4.1
					c-2.2-1-4.9-0.5-6.7,1.1c2.6-2.9,3.2-7.5,3.1-11.4c-0.2-9.3-4.1-18.5-10.6-25.1c3.8,2.7,7.9,5,12.1,7.1
					c4.2,2.1,8.8,3.5,13.4,3.4c4.7-0.1,9.4-1.7,12.7-5.1c-2.2-0.9-3.7-3.6-3.1-5.9c1.6,1.1,2.9,2.6,3.8,4.3c0.2-2.4,1.1-4.6,2.7-6.4
					c0.3,2.2,0,4.6-0.9,6.6c3.2-1.6,6-3.8,7.9-6.8c-1,3.4-1.9,7.3-1.8,10.8c0.1,3.5,1.2,7.1,3.7,9.5c2.3,2.2,5.7,3.1,8.8,2.5
					c3.1-0.7,5.8-2.9,7.1-5.9c0.2,2.1,1.9,4.1,3.9,4.7c0.4-1.9-0.5-4-2.2-5c1.4,0.6,3,0.4,4.4-0.2c-1.1-0.7-2.3-1.1-3.6-1.1
					c2.4-2.2,3.6-5.5,3.5-8.7c0.1,1.9,1.2,3.5,2.5,4.8c1.4,1.3,3.1,2,5,2.3c1.1,0.2,2.2,0.2,3.3-0.2c1-0.3,2-1,2.5-2
					c-1.4-0.6-2.6-1.8-3.1-3.2c-0.5-1.5-0.2-3.1,0.6-4.4c1.7,1.9,2.8,4.2,3.3,6.8c0.5-2.3,1.8-4.5,3.6-6c0.3,2.1-0.4,4.3-1.8,5.9
					c2.7-1.8,4.8-4.6,5.8-7.8c-0.1,2.1,0.8,4.1,2.2,5.6c1.4,1.5,3.4,2.5,5.5,2.6c-1.8,0.4-3.3,1.6-3.9,3.4c1.8-0.2,3.5-1,4.8-2.3
					c-0.4,1-0.5,2-0.3,3.1c0.7-0.6,1.5-1.3,2.2-1.9c-0.9,6.9,0.6,14,3.8,20.1c1.6,3.1,3.8,6,6.7,7.9c2.9,1.9,6.7,2.7,10,1.6
					c3.3-1.1,5.9-4.4,5.7-7.9c-1.8,0.3-3.9-0.5-5.1-1.8c1.5-0.9,3.5-1,5.1-0.2c-1.2-1.2-1.9-2.8-1.8-4.5c1.6,0.7,2.9,1.9,3.3,3.6
					c1.7,0.6,3.5,1,5.2,1.1c1.8,0.1,3.6-0.5,4.8-1.8c0.8-0.9,1.2-2.2,1.2-3.5c0.1-3-1.9-5.9-4.6-6.9c2.7-0.4,5.6-1.1,7.3-3.2
					c1.5-1.9,1.6-4.6,0.7-6.8c-0.9-2.2-2.5-4.1-4.3-5.6c5.2-2.1,8.3-7.7,10.6-12.8c2.4-5.5,3.9-11.3,4-17.3c0.1-6-1.4-12-4.6-17
					c-0.9-1.4-1.9-2.6-3-3.8c7,4,12,11.8,13.3,20c1.8,11.4-2.4,22.9-7.8,33.1C419.5,176.3,422.4,180.8,422.1,184.7z"/>
			</g>
			<g>
				<path class="st4" d="M264.9,154.9c-2.2-0.4-4.3-1.7-5.6-3.5c-1.3-1.9-1.8-4.3-1.3-6.5c3,1.5,5.3,4.3,6.7,7.3
					c-0.4-2.9,1-6,3.5-7.5C268.4,148.1,266.8,152,264.9,154.9L264.9,154.9z"/>
			</g>
			<g>
				<path class="st4" d="M249,203.4c-1,1.3-2.5,2.1-4.1,2.2c-1.6,0.2-3.2-0.4-4.4-1.4c1.9-1.3,4.4-1.8,6.8-1.7
					c-1.9-0.7-3.3-2.7-3.5-4.7C246,198.9,247.9,201.2,249,203.4L249,203.4z"/>
			</g>
			<g>
				<path class="st4" d="M283.5,134.3c-3,0.3-6.1-0.6-8.5-2.5c2.3-0.9,5-0.9,7.3,0.2c-1.3-0.9-2.1-2.1-2.7-3.6
					c-0.6-1.5-0.8-3-1.1-4.5c2.7,1.5,4.6,4.3,5.3,7.3c0.2-2.2,1.3-4.3,2.9-5.8C287.4,128.5,285.7,131.9,283.5,134.3L283.5,134.3z"/>
			</g>
			<g>
				<path class="st4" d="M309.1,136.2c-1.3-1.5-2.1-3.5-2-5.5c0.1-2,0.9-4,2.3-5.3C310.5,128.8,309.5,132.7,309.1,136.2L309.1,136.2
					z"/>
			</g>
			<path class="st3" d="M111,264.8c-0.4,1-0.8,1.8-1.3,2.7c-3.2,5.7-8.8,9.7-15.3,11.3c-0.3,6.2-4.1,12.1-9.6,14.9
				c-5.5,2.8-12.6,3-17.8-0.3c-2.3,3.9-8.1,5.9-12.3,4.3c0.4,5.9-2.9,11.7-7.8,14.9c-3.9,2.6-8.7,3.7-13.5,3.6
				c-1.2,0-2.3-0.1-3.5-0.3c-3.1-0.4-6.2-1.3-8.6-3.2c-0.9-0.7-1.7-1.6-2.4-2.6c-5,4.6-12.3,6.4-18.9,4.8c-6.6-1.7-12-7-14.2-13.4
				c-2.8,0.7-5.9-0.3-7.8-2.4c-1.9-2.1-2.7-5.5-1.7-8.2c-5.6-2.5-9.9-7.6-11.7-13.4h0c-0.5-1.6-0.8-3.3-0.9-5
				c-0.4-7.8,4-15.7,10.8-19.5c15.3-8.6,25-23.6,40.9-31.2c0,0,0.1,0,0.1-0.1c15.8-7.5,33.8-11,51-7.8c9.1,1.7,17.6,5.7,25,11.2
				c6.6,4.8,12.3,10.9,16.9,17.7C112.8,249.2,113.8,257.7,111,264.8L111,264.8z"/>
			<g>
				<path class="st4" d="M111,264.8c-0.4,0.9-0.8,1.8-1.3,2.7c-3.2,0.5-6.6-0.2-9.2-2.3c-1.1,5.9-5.1,11.1-10.5,13.8
					c-5.4,2.6-11.7,2.1-17-0.6c-5.1,0.6-10.3-0.7-14.5-3.6c-4.2-2.9-7-7.2-8.3-12.1c-0.5,3.9-2.5,7.5-5.5,10
					c-3,2.5-6.8,3.8-10.7,3.7c-2.7,12.9-3,26.8-0.7,39.8c-1.2,0-2.3-0.1-3.5-0.3c-3.1-0.4-6.2-1.3-8.6-3.2
					c-0.1-5.6-0.3-11.2-0.3-16.8c-1.1-0.8-2.1-2-3.2-2.7c-10.5-6.6-19.1-16.6-23.7-28.2c0.3,4-1.8,8.2-5.3,10.2
					c-3.5,2-8.1,1.8-11.4-0.5c-2.2,3.2-6.4,4.8-10.2,3.9c-0.9-0.2-1.8-0.6-2.7-1.1h0c-0.5-1.6-0.8-3.3-0.9-5
					c-0.4-7.8,4-15.7,10.8-19.5c15.3-8.6,25-23.6,40.9-31.2c0,0,0.1,0,0.1-0.1c25.4-1.5,50.9-0.3,76,3.4
					c6.6,4.8,12.3,10.9,16.9,17.7C112.8,249.2,113.8,257.7,111,264.8L111,264.8z"/>
			</g>
			<path class="st5" d="M29.8,237.5c1.8,0.1,3.7,0.3,5.5,0.4c-10.1,44.2-10.4,90.6-1.9,135.1c-6.3,0.7-12.7,1.6-19,2.3
				C5.8,329.6,14.3,281.3,29.8,237.5L29.8,237.5z"/>
			<path class="st5" d="M16.7,290.9c1-2,3.3-8.2,4.3-10.2C8.4,270.3,0,254.6-2.3,238.3c-1.1-0.1-2.1-0.3-3.2-0.4
				C-3.8,256.2,0.5,273.7,16.7,290.9z"/>
			<path class="st5" d="M25.8,293.9c0-2.5,0.1-5,0.1-7.5c17.3-2.2,33.4-12.8,41.9-28c0.8,0.4,1.6,0.9,2.4,1.4
				c-3.9,8.8-10.1,16.7-17.9,22.3C44.5,287.7,35.4,293,25.8,293.9L25.8,293.9z"/>
			<path class="st3" d="M120.8,248.8c-5.3,4.6-13.3,5.5-19.4,2c-1.9,7.6-6.1,14.9-12.8,19c-6.6,4.1-15.9,4.4-21.9-0.6
				c-5.1-4.2-7.1-11.3-6.7-17.9c0.4-6.6,2.6-13,4.9-19.2c-2.9,6-11.6,8.6-17.5,5.4c2.7,8.9-1,19.3-8.6,24.5
				c-7.7,5.2-18.7,4.7-25.9-1.1C5.7,255,3,244.3,6.5,235.7c-3.1,4.7-12.2,5.7-17.1,2.9c1.4,6.4,1.9,13.2-0.7,19.1
				c-2.7,5.9-9.4,10.4-15.6,8.7c-4.9-1.4-8.3-5.3-10-10.1c-9.2-3.1-16-12.4-16.2-22.2c-0.1-3.8,0.8-7.7,2.5-11.3
				c2.6-5.6,7.2-10.4,12.7-12.6c-6.3-2.8-10.1-10.5-8.6-17.3c1.6-6.8,8-12.1,14.9-11.8c-4.1-9.7-0.9-22.1,7.4-28.5
				c8.3-6.5,21.1-6.9,29.5-0.5c4.5-2.8,11.2-1.2,13.9,3.3c2.7-3.6,6.8-6,11.2-6.6c4.4-0.6,8.5,0.4,11.9,3.1
				c4.7-11.8,16.5-20.4,29.2-21.1c12.6-0.7,25.4,6.6,31.2,17.8c5.9,11.2,5.4,26.6-2.4,36.6c4.5,0.1,9.1,0.9,13.2,2.9
				c1.3,0.7,2.5,1.4,3.6,2.3c2.4,2,4.3,4.5,5.3,7.4c1.4,4.3,1.3,9.6-2.1,12.6c4.3,5.6,7.4,12.2,7.8,19.3
				C128.7,236.9,126.1,244.3,120.8,248.8L120.8,248.8z"/>
			<g>
				<path class="st4" d="M120.8,248.8c-5.3,4.6-13.3,5.5-19.4,2c-1.9,7.6-6.1,14.9-12.8,19c-6.6,4.1-15.9,4.4-21.9-0.6
					c-5.1-4.2-7.1-11.3-6.7-17.9c0.4-6.6,2.6-13,4.9-19.2c-2.9,6-11.6,8.6-17.5,5.4c2.7,8.9-1,19.3-8.6,24.5
					c-7.7,5.2-18.7,4.7-25.9-1.1C5.7,255,3,244.3,6.5,235.7c-3.1,4.7-12.2,5.7-17.1,2.9c1.4,6.4,1.9,13.2-0.7,19.1
					c-2.7,5.9-9.4,10.4-15.6,8.7c-4.9-1.4-8.3-5.3-10-10.1c-9.2-3.1-16-12.4-16.2-22.2c-0.1-3.8,0.8-7.7,2.5-11.3
					c0.3,2.1,1,4.2,2.2,6c3,4.7,8.7,7.6,14.3,7.1c-2.3-2.5-3.1-6.6-1.8-9.7c2.5,2.1,4.3,5,4.9,8.2c0.2-4.9,3-9.3,7.4-11.4
					c0.5,4.2-0.8,8.4-3.4,11.7c-1.3,1.7-1.5,4.6-1.5,6.7c0,2.2,0.8,4.4,2.5,5.7c2.2,1.6,5.5,1,7.5-0.9c2-1.9,2.8-4.7,2.8-7.4
					c0-2.7-0.8-5.4-1.5-8c12,4.2,27-1,35-10.9c-1.5,2.7-3.1,5.3-3.9,8.3c-0.8,3-0.9,6.3,0.6,9c1.4,2.7,4.6,4.6,7.6,4.1
					c-1.2,4.2,0,9.3,3,12.4c1.9-4,2.4-8.7,1-12.8c3.9,0.3,7.8-1.6,10.1-4.7c2.3-3.2,2.7-7.6,1.2-11.1c8,4.6,19.4,3,26.1-3.3
					c-2-4-1.6-9.3,1.2-12.8c1.5,3.2,2.3,6.8,2.1,10.4c2.3-2.6,5-4.7,7.4-7.3c-0.7,4.5-1.4,9.2-0.5,13.7c0.9,4.5,3.8,8.9,8.1,10.3
					c2.7,0.9,5.7,0.5,8.2-0.7c2.6-1.2,4.7-3.1,6.5-5.3c-3.6-3-5.1-8-3.7-12.4c3,2.4,5.1,5.7,5.8,9.4c0-3.5,1.4-7.1,3.7-9.8
					c0.7,2.7,1.1,5.5,1,8.3c4,0,7.2-3.6,7.7-7.7c0.4-4-1.3-8-3.6-11.3c5.1-0.5,9.7-4.1,10.8-9.1c0.5-2.2,0.3-4.5-0.4-6.6
					c2.4,2,4.3,4.5,5.3,7.4c1.4,4.3,1.3,9.6-2.1,12.6c4.3,5.6,7.4,12.2,7.8,19.3C128.7,236.9,126.1,244.3,120.8,248.8L120.8,248.8z"
					/>
			</g>
			<g>
				<path class="st4" d="M61.4,164.1c-2.4-2.2-3.9-5.5-4-8.7c2.4,1.2,4.3,3.5,5,6.1c-0.2-1.7,0.3-3.3,1-4.8s1.8-2.8,2.9-4.1
					c0.7,3.3-0.2,6.8-2.2,9.5c1.9-1.4,4.4-2,6.8-1.7C68.9,163.2,64.9,164.2,61.4,164.1L61.4,164.1z"/>
			</g>
			<g>
				<path class="st4" d="M71.1,192.6c-1.6-2.3-2.3-5.3-1.7-8.1c1.8,1.5,3,3.7,3.1,6c0.1-1.4,0.8-2.7,1.7-3.8c0.9-1.1,2.1-2,3.2-2.9
					c-0.1,2.9-1.4,5.7-3.6,7.6c1.9-0.8,4.1-0.9,6-0.2C77.6,193.2,74.1,193.4,71.1,192.6L71.1,192.6z"/>
			</g>
			<g>
				<path class="st4" d="M30.8,168.5c-1.4-1.6-2.3-3.8-2.2-5.9s1-4.3,2.5-5.8C32.3,160.4,31.2,164.6,30.8,168.5z"/>
			</g>
			<g>
				<path class="st4" d="M86,196.5c-0.7-2.1-0.5-4.4,0.4-6.3c0.9-1.9,2.7-3.5,4.7-4.2C90.7,189.9,88,193.2,86,196.5z"/>
			</g>
		</g>
	</g>
	<g>
		<defs>
			<rect id="SVGID_00000010268415485116302020000014585882219272149925_" x="-37.3" y="291" width="428" height="86"/>
		</defs>
		<clipPath id="SVGID_00000016056691643921658790000012784731203926567332_">
			<use xlink:href="#SVGID_00000010268415485116302020000014585882219272149925_"  style="overflow:visible;"/>
		</clipPath>
		<g style="clip-path:url(#SVGID_00000016056691643921658790000012784731203926567332_);">
			<path class="st7" d="M41.9,319.4c-1.7,3.6-5.2,6.9-8.3,9.3c-1.5,0-3.1,0-4.6-0.1c-13.8-0.1-27.5,0.7-41.2,2.5
				c-0.9,0.1-1.7,0.2-2.6,0.3c-3.2-2.5-7.2-4.5-11-5.9c-2-0.7-4.1-1.3-5.9-2.5c-1.8-1.2-3.2-3.3-2.9-5.4c0.3-2,2-3.6,3.9-4.2
				c1.9-0.6,4-0.5,6-0.1c5.7,1.1,11,3.9,15.2,7.9c-3.4-3.5-6.6-7.1-10-10.6c-1.2-1.2-2.4-2.4-3.1-3.9c-0.8-1.5-1.1-3.3-0.4-4.8
				c0.9-2.1,3.4-3.1,5.8-3.2c4.6-0.2,9.1,2.2,12.3,5.6c3.2,3.3,5.5,7.5,7.7,11.6c-0.7-3.3,0-6.8,1.9-9.6c0.7-1.1,1.7-2.1,3-2.3
				c1.5-0.2,3,0.9,3.9,2.1c2.1,2.5,3.1,5.8,3,9c0.8-6.1,3.7-12,8-16.4c1-1,2.2-2,3.5-2.6c1.3-0.6,2.9-0.7,4.2,0
				c2,1.1,2.7,3.5,2.9,5.7c0.6,5.5-0.2,11.1-2.4,16.2c2.1-2.3,5.1-3.8,8.3-4.2c1-0.1,2-0.1,2.8,0.4
				C43.2,315.6,42.7,317.8,41.9,319.4z"/>
			<g>
				<path class="st8" d="M34.9,321.2c-0.2,0.5-0.5,1-0.9,1.4c-1.7,2-3.3,4-5,6c-13.8-0.1-27.5,0.7-41.2,2.5c-1.9-2-3.9-4-5.8-6
					c-0.7-0.7-1.4-1.7-1-2.6c0.4-0.9,1.5-1.1,2.4-1.1c4,0,7.9,1.5,11,4.1c-1.9-4.3-3.3-8.6-5.2-12.9c-0.3-0.6-0.5-1.2-0.4-1.8
					c0.2-0.9,1.2-1.4,2.1-1.4c0.9,0,1.7,0.5,2.5,1c4.7,3,8.5,7.3,10.9,12.3c0.4-1.8,1.1-3.5,1.5-5.4c0.2-0.9,0.4-1.8,1.1-2.3
					c0.6-0.4,1.4-0.5,2.1-0.2c0.7,0.3,1.3,0.8,1.8,1.3c1.7,1.9,2.6,4.4,2.5,6.9c1.2-4,3.2-7.7,5.5-11.2c0.6-0.9,1.2-1.7,2.1-2.3
					c0.9-0.6,1.9-0.9,2.9-0.6c1.3,0.4,2.1,1.7,2.7,2.9c1.5,3.6,1.7,7.7,0.6,11.4c1.6-1.6,3.5-2.7,5.6-3.5c0.6-0.2,1.3-0.4,1.8,0
					C34.9,320,35,320.7,34.9,321.2z"/>
			</g>
			<path class="st7" d="M254.5,318.7c-2.1,3.3-6,6.1-9.3,8.1c-1.5-0.2-3-0.4-4.5-0.6c-13.5-1.8-27.1-2.7-40.7-2.7
				c-0.9,0-1.7,0-2.6,0c-2.8-2.8-6.5-5.3-10-7.1c-1.9-1-3.9-1.8-5.5-3.2c-1.6-1.4-2.7-3.6-2.2-5.7c0.5-1.9,2.4-3.3,4.3-3.7
				c1.9-0.4,4,0,5.9,0.6c5.4,1.8,10.3,5.2,13.9,9.7c-2.9-3.8-5.6-7.8-8.5-11.6c-1-1.3-2-2.6-2.6-4.2c-0.6-1.5-0.6-3.4,0.2-4.8
				c1.2-2,3.8-2.6,6-2.4c4.6,0.4,8.6,3.3,11.4,7c2.8,3.7,4.4,8,6.1,12.3c-0.3-3.3,0.8-6.7,3-9.2c0.9-1,2-1.8,3.2-1.8
				c1.5,0,2.8,1.2,3.6,2.5c1.7,2.7,2.4,6.1,1.8,9.2c1.5-5.9,5.1-11.3,9.9-15c1.1-0.9,2.4-1.7,3.8-2.1c1.4-0.4,3-0.3,4.1,0.6
				c1.8,1.3,2.2,3.8,2.1,6c-0.1,5.5-1.6,10.9-4.4,15.6c2.4-2,5.5-3,8.6-3.1c1,0,2,0.1,2.7,0.8C256.2,315.1,255.5,317.2,254.5,318.7
				L254.5,318.7z"/>
			<g>
				<path class="st8" d="M247.4,319.6c-0.2,0.5-0.6,0.9-1,1.3c-1.9,1.8-3.7,3.5-5.6,5.3c-13.5-1.8-27.1-2.7-40.7-2.7
					c-1.6-2.2-3.3-4.4-4.9-6.6c-0.6-0.8-1.2-1.8-0.7-2.7c0.5-0.8,1.6-0.9,2.5-0.7c3.9,0.5,7.6,2.5,10.2,5.4
					c-1.3-4.4-2.2-8.8-3.5-13.3c-0.2-0.6-0.4-1.3-0.1-1.9c0.3-0.8,1.3-1.2,2.2-1.1c0.9,0.1,1.6,0.7,2.3,1.3
					c4.2,3.5,7.4,8.2,9.2,13.5c0.6-1.8,1.5-3.3,2.2-5.1c0.3-0.8,0.6-1.7,1.4-2.1c0.6-0.4,1.5-0.3,2.1,0.1c0.7,0.3,1.2,0.9,1.6,1.5
					c1.4,2,2,4.6,1.6,7.1c1.7-3.7,4.1-7.2,6.8-10.3c0.7-0.8,1.4-1.5,2.3-2c0.9-0.5,2-0.7,3-0.3c1.2,0.5,1.9,1.9,2.2,3.2
					c1.1,3.7,0.8,7.7-0.8,11.2c1.7-1.4,3.7-2.2,5.9-2.7c0.6-0.1,1.3-0.2,1.8,0.2C247.5,318.4,247.6,319.1,247.4,319.6L247.4,319.6z"
					/>
			</g>
			<path class="st7" d="M92.1,313.7c0,1.3-0.7,2.5-1.4,3.6c-1.5,2.2-4.2,3.7-6.3,5.4c-0.9,0-1.8,0-2.7,0.1c-2.8,0.1-5.6,0.3-8.4,0.7
				c-0.8,0.1-1.7,0.2-2.5,0.3c-3.5-1.3-7.2-2.8-10.8-4.1c-0.6-0.2-1.3-0.5-1.8-0.9c-0.5-0.4-0.9-1-0.9-1.7c0-1.2,1.2-2,2.4-2.4
				c3.3-1.1,7.1-0.4,9.9,1.7c-2.7-2.1-4.9-4.7-6.7-7.7c-0.7-1-1.3-2.1-1.5-3.4c-0.2-1.2,0-2.6,0.8-3.5c1.4-1.7,4.1-1.4,6-0.5
				c4,1.9,6.4,6,8.6,9.8c-0.1-4.2,0.1-8.5,2.3-12.1c1-1.5,2.6-3,4.4-2.8c1.1,0.1,2.2,0.8,2.8,1.8c0.7,0.9,1,2.1,1.2,3.2
				c0.8,4,0.5,8.2-1,12c0.4-0.7,0.9-1.4,1.5-1.9c0.6-0.5,1.4-0.8,2.2-0.7C91.3,311,92.1,312.4,92.1,313.7z"/>
			<g>
				<path class="st9" d="M87.7,316.6c0,0.5-0.4,0.9-0.7,1.2l-5.3,5c-2.8,0.1-5.6,0.3-8.4,0.7c-2.7-1.2-5.4-2.5-8.1-3.7
					c-0.5-0.3-1.2-0.6-1.1-1.2c0-0.4,0.3-0.7,0.6-0.8c0.3-0.2,0.7-0.2,1-0.2c2.8-0.2,5.7,0.7,8,2.4c-1.9-2.9-3.7-5.9-5.6-8.8
					c-0.4-0.7-0.9-1.5-0.6-2.2c0.3-0.5,0.9-0.8,1.5-0.9c1.3-0.1,2.4,0.6,3.4,1.4c2.8,2.1,5.1,4.7,6.9,7.7c0.1-3.2,0.7-6.6,1.5-9.7
					c0.2-0.6,0.3-1.2,0.7-1.7c0.4-0.5,1-0.9,1.6-0.8c1.1,0.1,1.6,1.4,1.7,2.4c0.5,3.5-0.5,7.1-1.4,10.5c0.5-0.4,0.9-1,1.4-1.4
					c0.5-0.5,1-0.9,1.7-0.9C87,315.4,87.8,315.9,87.7,316.6z"/>
			</g>
			<path class="st7" d="M377.9,326.6c-0.2,1.3-1.1,2.4-2,3.3c-1.8,1.9-4.7,3-7.1,4.2c-0.9-0.1-1.8-0.3-2.7-0.4
				c-2.8-0.4-5.6-0.6-8.4-0.7c-0.9,0-1.7-0.1-2.6-0.1c-3.3-1.9-6.7-4-9.9-5.9c-0.6-0.3-1.2-0.7-1.6-1.2c-0.5-0.5-0.8-1.2-0.6-1.8
				c0.2-1.2,1.5-1.8,2.7-1.9c3.4-0.5,7.1,0.8,9.4,3.4c-2.3-2.6-4-5.5-5.3-8.7c-0.5-1.1-0.9-2.3-0.9-3.6c0-1.2,0.4-2.5,1.3-3.3
				c1.7-1.4,4.3-0.7,6,0.5c3.6,2.6,5.3,6.9,6.9,11.1c0.5-4.1,1.5-8.4,4.3-11.5c1.2-1.4,3-2.5,4.8-2c1.1,0.3,2,1.2,2.5,2.2
				c0.5,1,0.6,2.2,0.7,3.4c0.2,4.1-0.9,8.2-3,11.7c0.5-0.6,1.1-1.2,1.8-1.6c0.7-0.4,1.5-0.6,2.3-0.3
				C377.6,323.8,378.2,325.3,377.9,326.6L377.9,326.6z"/>
			<g>
				<path class="st8" d="M373.2,328.7c-0.1,0.5-0.5,0.8-0.9,1c-2,1.3-4,2.7-6.1,4c-2.8-0.4-5.6-0.6-8.4-0.7c-2.4-1.7-4.9-3.3-7.3-5
					c-0.5-0.3-1-0.8-0.9-1.4c0.1-0.3,0.4-0.6,0.7-0.7c0.3-0.1,0.7-0.1,1,0c2.8,0.3,5.5,1.6,7.5,3.7c-1.4-3.2-2.7-6.4-4.1-9.6
					c-0.3-0.7-0.6-1.6-0.2-2.3c0.3-0.5,1-0.7,1.6-0.6c1.3,0.1,2.3,1,3.2,2c2.4,2.5,4.2,5.5,5.5,8.8c0.7-3.2,1.8-6.4,3.1-9.3
					c0.3-0.6,0.5-1.1,1-1.6c0.4-0.4,1.1-0.7,1.7-0.5c1,0.3,1.3,1.6,1.3,2.7c-0.1,3.6-1.6,6.9-3.1,10.2c0.6-0.3,1.1-0.8,1.6-1.2
					c0.5-0.4,1.2-0.7,1.8-0.6C372.7,327.5,373.3,328.1,373.2,328.7L373.2,328.7z"/>
			</g>
			<path class="st7" d="M175.5,310.8c-1.2,3.8-7.3,5.8-9.1,9.4h-2.5c-12.1,0-24.1,0-36.2,0h-2.3c-1.2-0.9-3.1-1.7-4.3-2.6
				c-0.8-0.6-1.7-1.5-1.4-2.5c0.3-0.8,1.2-1.1,2-1.1c1.7-0.1,3.4,0.5,4.8,1.6c-2.3-2.3-4.2-4.8-6-7.5c-0.9-1.4-1.8-3-1.5-4.6
				c0.4-2.3,2.9-3.6,5.2-3.8c3.3-0.2,6.6,1.2,9.2,3.3c2.6,2.1,4.5,4.9,6.2,7.8c-0.3-1.8,1.1-3.5,2.9-3.6c1.8-0.1,3.4,1.7,3.2,3.5
				c0.8-4.7,4-9.1,8.2-11.5c0.8-0.5,1.7-0.9,2.6-1c0.9-0.1,1.9,0.2,2.5,0.9c0.7,0.8,0.8,1.9,0.8,3c-0.1,3.3-0.9,6.5-2.5,9.4
				c0.7-0.8,2-1.2,3.1-0.8c1.3,0.6,1.9,2.3,1.2,3.5c2.3-2.9,5.5-5.1,8.8-6.8c1.3-0.7,2.8-1.2,4.1-0.5
				C175.6,307.8,175.9,309.5,175.5,310.8z"/>
			<g>
				<path class="st8" d="M169.5,313.9c-0.2,0.6-0.7,1-1.2,1.5c-1.6,1.5-3.1,3.1-4.4,4.9c-12.1,0-24.1,0-36.2,0
					c-0.4-0.5-0.9-1-1.3-1.5c-0.2-0.3-0.5-0.6-0.4-0.9c0-0.6,0.7-0.8,1.3-0.9c1.5-0.2,3.1,0.2,4.3,1.1c-1.7-2.3-3.5-4.6-4.2-7.3
					c-0.3-1-0.4-2.2,0.4-2.9c0.9-0.8,2.3-0.3,3.3,0.3c3.5,2.1,6.5,5.2,8.4,8.9c-0.4-1.5,0.2-3.1,1.5-4c1.3-0.9,3.1-0.8,4.4,0.1
					c1,0.8,1.6,2.1,1.4,3.4c0.7-3,2.4-6.2,4.6-8.3c0.4-0.4,0.9-0.8,1.4-1c0.5-0.2,1.2-0.2,1.6,0.1c0.7,0.5,0.8,1.4,0.9,2.3
					c0,2.8-0.5,5.5-1.6,8.1c0.7-1,1.4-1.7,2.4-2.4c0.7-0.5,1.5-0.8,2.2-0.5c0.6,0.3,0.9,1,0.9,1.6c0,0.7-0.3,1.3-0.5,1.9
					c2.7-2.2,5.5-4,8.6-5.7c0.6-0.3,1.4-0.7,2-0.3C169.7,312.5,169.8,313.3,169.5,313.9z"/>
			</g>
			<path class="st7" d="M329.6,320.7c-1.5,3.7-7.8,5.1-9.9,8.5l-2.5-0.2c-12-1.1-24-2.2-36.1-3.3l-2.3-0.2c-1.1-1-2.9-2-4-3
				c-0.8-0.7-1.6-1.7-1.2-2.6c0.3-0.8,1.3-1,2.1-0.9c1.7,0.1,3.4,0.8,4.6,2c-2.1-2.5-3.7-5.2-5.3-8c-0.8-1.5-1.5-3.1-1.1-4.7
				c0.6-2.2,3.2-3.3,5.5-3.3c3.3,0.1,6.5,1.8,8.9,4.2c2.4,2.4,4,5.3,5.5,8.4c-0.2-1.8,1.4-3.4,3.2-3.3c1.8,0.1,3.3,2,2.9,3.8
				c1.2-4.6,4.8-8.6,9.2-10.7c0.8-0.4,1.7-0.7,2.7-0.7c0.9,0,1.9,0.3,2.5,1.1c0.6,0.8,0.6,2,0.5,3c-0.4,3.2-1.5,6.4-3.3,9.1
				c0.8-0.8,2.1-1,3.1-0.5c1.2,0.7,1.6,2.5,0.8,3.6c2.6-2.7,6-4.5,9.4-5.9c1.3-0.5,2.9-0.9,4.1-0.1
				C330.1,317.7,330.2,319.4,329.6,320.7z"/>
			<g>
				<path class="st8" d="M323.5,323.2c-0.3,0.6-0.8,1-1.3,1.3c-1.7,1.3-3.4,2.8-4.9,4.4c-12-1.1-24-2.2-36.1-3.3
					c-0.4-0.5-0.8-1.1-1.1-1.6c-0.2-0.3-0.4-0.6-0.4-1c0.1-0.6,0.8-0.8,1.3-0.8c1.5-0.1,3.1,0.5,4.2,1.5c-1.5-2.4-3-4.9-3.6-7.7
					c-0.2-1-0.2-2.2,0.7-2.8c1-0.7,2.3-0.1,3.3,0.6c3.3,2.4,6,5.8,7.6,9.6c-0.3-1.5,0.5-3.1,1.8-3.8c1.4-0.8,3.2-0.5,4.3,0.5
					c0.9,0.9,1.4,2.2,1.1,3.5c1-3,2.9-5.9,5.3-7.9c0.4-0.4,0.9-0.7,1.5-0.9c0.5-0.2,1.2-0.1,1.6,0.2c0.7,0.5,0.7,1.5,0.6,2.4
					c-0.2,2.7-1,5.5-2.3,7.9c0.8-0.9,1.6-1.6,2.7-2.2c0.7-0.4,1.6-0.7,2.3-0.3c0.6,0.3,0.8,1.1,0.7,1.7c-0.1,0.7-0.4,1.2-0.7,1.8
					c2.9-2,5.9-3.5,9.1-4.9c0.6-0.3,1.4-0.5,2-0.1C323.7,321.8,323.7,322.6,323.5,323.2L323.5,323.2z"/>
			</g>
			<path class="st10" d="M390.7,341.1V377h-428c0-11.1,0.4-23.6,0.6-35.2c0-3.2,0.1-6.3,0.1-9.3c141.5-20.8,286.2-19.2,427.2,4.7
				C390.6,338.6,390.7,339.6,390.7,341.1z"/>
			<g>
				<path class="st11" d="M390.7,341.1v1.8c-0.2,0.1-0.5,0.3-0.7,0.4c-9.5,4.2-20.5,3.7-30.6,1.1c-10.1-2.5-19.6-6.9-29.4-10.2
					c-9.9-3.3-21.7-8.5-31.2-4.4c-23.4,10.1-34.2,7.8-51.4,4c-17.2-3.8-34.5-9.5-52.1-7.7c-21.1,2.2-39.7,15.1-60.6,18.7
					c-21.8,3.8-44-2.8-65.4-8.4c-21.4-5.6-44.5-10.3-65.4-3c-7.4,2.6-14.2,6.6-21.7,8.8c-6.1,1.8-13.1,2.1-18.8-0.4
					c0-3.2,0.1-6.3,0.1-9.3c141.5-20.8,286.2-19.2,427.2,4.7C390.6,338.6,390.7,339.6,390.7,341.1z"/>
			</g>
		</g>
	</g>
	<path class="st12" d="M138.8,249.1c0,0,1.9,1.3,3.2,8c1.3,6.7,3.7-4,3.7-4l-1.8-5.5L138.8,249.1L138.8,249.1z"/>
	<path class="st12" d="M205.3,249.1c0,0-1.9,1.3-3.2,8c-1.3,6.7-3.7-4-3.7-4l1.8-5.5L205.3,249.1L205.3,249.1z"/>
	<path class="st12" d="M171.7,246.5l-30,0.2l3.9,83.2c0,0,0.7,7.1,7.5,7.1h37.9c6.7,0,7.5-7.1,7.5-7.1l3.9-83.2l-30-0.2H171.7z"/>
	<path class="st13" d="M139.6,320.4l-1.9,1.9v9.4l1.7,1.7L139.6,320.4z"/>
	<path class="st14" d="M149.1,322.5h-5.9v9h5.9V322.5z"/>
	<path class="st15" d="M144.7,317.1h-5.8V337h5.8V317.1z"/>
	<path class="st13" d="M204.4,320.4l1.9,1.9v9.4l-1.7,1.7L204.4,320.4z"/>
	<path class="st14" d="M194.9,331.4h5.9v-9h-5.9V331.4z"/>
	<path class="st13" d="M172.3,249.8h-0.6l-30,0.2l3.9,80.1c0,0,0.7,6.9,7.5,6.9h37.9c6.7,0,7.5-6.9,7.5-6.9l3.9-80.1L172.3,249.8
		L172.3,249.8z"/>
	<path class="st15" d="M199.3,337h5.8v-19.9h-5.8V337z"/>
	<path class="st16" d="M144.7,317.1h-5.8v3.5h5.8V317.1z"/>
	<path class="st16" d="M199.3,320.6h5.8v-3.5h-5.8V320.6z"/>
	<path class="st12" d="M147.2,249.2c0,0,0.2,8.3,2.6,8.3s2.7-8.1,2.7-8.1L147.2,249.2L147.2,249.2z"/>
	<path class="st17" d="M148.7,249.3c0,0-0.3,7.9,1.3,7.9s1.3-7.8,1.3-7.8L148.7,249.3z"/>
	<path class="st12" d="M162,249.2c0,0,0.2,8.3,2.6,8.3c2.4,0,2.7-8.1,2.7-8.1L162,249.2L162,249.2z"/>
	<path class="st17" d="M163.5,249.3c0,0-0.3,7.9,1.3,7.9c1.6,0,1.3-7.8,1.3-7.8L163.5,249.3z"/>
	<path class="st12" d="M176.8,249.2c0,0,0.2,8.3,2.6,8.3s2.7-8.1,2.7-8.1L176.8,249.2L176.8,249.2z"/>
	<path class="st17" d="M178.3,249.3c0,0-0.3,7.9,1.3,7.9c1.6,0,1.3-7.8,1.3-7.8L178.3,249.3z"/>
	<path class="st12" d="M191.7,249.2c0,0,0.2,8.3,2.6,8.3c2.4,0,2.7-8.1,2.7-8.1L191.7,249.2L191.7,249.2z"/>
	<path class="st17" d="M193.1,249.3c0,0-0.3,7.9,1.3,7.9c1.6,0,1.3-7.8,1.3-7.8L193.1,249.3z"/>
	<path class="st13" d="M203.7,242.9l-2.2-1.5c0,0-2.9-15.7-4.7-21.5c-1.8-5.8-6.5-5.9-6.5-5.9h-36.7c0,0-4.7,0.1-6.5,5.9
		c-1.8,5.8-4.7,21.5-4.7,21.5l-2.2,1.5c0,0-1.6,0.5-1.6,2.4c0,1.9,0.1,3.8,0.1,3.8h66.4c0,0,0.1-1.9,0.1-3.8
		C205.3,243.4,203.7,242.9,203.7,242.9z"/>
	<path class="st18" d="M196.8,219.9c-0.9-2.9-2.6-4.4-4-5.1c0.6,0.9,1.4,2.4,2.2,5.1c1.5,5.2,1.9,15.3-1,17.3
		c-3,2.1-12.2,2.7-23.9,2.7h-27.3c-0.2,0.8-0.2,1.3-0.3,1.5h59C201.3,240.4,198.5,225.5,196.8,219.9L196.8,219.9z"/>
	<path class="st19" d="M172.6,244.7c17.7,0,32.1-0.2,32.1-0.5c0-0.3-14.4-0.5-32.1-0.5c-17.7,0-32.1,0.2-32.1,0.5
		C140.5,244.4,154.9,244.7,172.6,244.7z"/>
	<path class="st19" d="M192.7,215.7c0,0.3-9.2,0.5-20.4,0.5c-11.3,0-20.5-0.2-20.5-0.5c0-0.3,9.2-0.5,20.5-0.5
		C183.5,215.2,192.7,215.4,192.7,215.7z"/>
	<path class="st18" d="M171.7,336.9h19.3c6.7,0,7.5-6.9,7.5-6.9l1.1-21.9c-2.7,6-10,16.8-27.3,16.8s-24.8-10-27.6-15.4l1,20.5
		c0,0,0.7,6.9,7.5,6.9H171.7L171.7,336.9z"/>
	<path class="st20" d="M166.6,280c0,0,3.7-7,4.6-8.5c0.9-1.5,2.2-4,4-4.4l-6.9-0.2c0,0-1.6-0.5-4,3.7c-2,3.5-3.3,6-3.3,6L166.6,280z
		"/>
	<path class="st20" d="M171.9,271.5c0,0,1.5-3.3,4-4.1c0,0,1.2-0.2,2.7,2.3c1.5,2.7,1.7,3.2,1.7,3.2l1.9-1l-2.4,6.1l-7-0.5l2.1-1.3
		L171.9,271.5L171.9,271.5z"/>
	<path class="st20" d="M177.1,280.2c0,0,4.1,6.8,4.9,8.3c0.8,1.5,2.3,4,1.7,5.7l3.7-5.8c0,0,1.2-1.1-1.1-5.3c-2-3.5-3.4-5.9-3.4-5.9
		L177.1,280.2L177.1,280.2z"/>
	<path class="st20" d="M181.6,289.1c0,0,2.1,3,1.5,5.5c0,0-0.5,1.2-3.4,1.1c-3.1-0.1-3.6-0.2-3.6-0.2l-0.1,2.2l-4-5.2l4.1-5.7l0,2.5
		L181.6,289.1L181.6,289.1z"/>
	<path class="st20" d="M171.6,289.4c0,0-7.9,0.1-9.6,0.1c-1.7-0.1-4.6-0.1-5.8-1.5l3.2,6.1c0,0,0.3,1.6,5.2,1.7c4,0.1,6.8,0,6.8,0
		L171.6,289.4z"/>
	<path class="st20" d="M161.7,288.7c0,0-3.6,0.3-5.5-1.5c0,0-0.7-1,0.8-3.5c1.6-2.6,2-3,2-3l-1.8-1.2l6.5-0.8l2.9,6.4l-2.2-1.2
		L161.7,288.7L161.7,288.7z"/>
	<path class="st21" d="M230.2,249.1c0,0,1.9,1.3,3.2,8c1.3,6.7,3.7-4,3.7-4l-1.8-5.5L230.2,249.1L230.2,249.1z"/>
	<path class="st21" d="M296.7,249.1c0,0-1.9,1.3-3.2,8c-1.3,6.7-3.7-4-3.7-4l1.8-5.5L296.7,249.1L296.7,249.1z"/>
	<path class="st22" d="M263.1,246.5l-30,0.2l3.9,83.2c0,0,0.8,7.1,7.5,7.1h37.9c6.7,0,7.5-7.1,7.5-7.1l3.9-83.2l-30-0.2H263.1z"/>
	<path class="st23" d="M231,320.4l-1.9,1.9v9.4l1.7,1.7L231,320.4z"/>
	<path class="st14" d="M240.5,322.5h-5.9v9h5.9V322.5z"/>
	<path class="st15" d="M236.1,317.1h-5.8V337h5.8V317.1z"/>
	<path class="st23" d="M295.8,320.4l1.9,1.9v9.4l-1.7,1.7L295.8,320.4z"/>
	<path class="st14" d="M286.3,331.4h5.9v-9h-5.9V331.4z"/>
	<path class="st23" d="M263.7,249.8h-0.6l-30,0.2L237,330c0,0,0.8,6.9,7.5,6.9h37.9c6.7,0,7.5-6.9,7.5-6.9l3.9-80.1L263.7,249.8
		L263.7,249.8z"/>
	<path class="st15" d="M290.7,337h5.8v-19.9h-5.8V337z"/>
	<path class="st16" d="M236.1,317.1h-5.8v3.5h5.8V317.1z"/>
	<path class="st16" d="M290.7,320.6h5.8v-3.5h-5.8V320.6z"/>
	<path class="st24" d="M238.6,249.2c0,0,0.2,8.3,2.6,8.3s2.7-8.1,2.7-8.1L238.6,249.2L238.6,249.2z"/>
	<path class="st25" d="M240.1,249.3c0,0-0.3,7.9,1.3,7.9c1.6,0,1.3-7.8,1.3-7.8L240.1,249.3z"/>
	<path class="st24" d="M253.5,249.2c0,0,0.2,8.3,2.6,8.3c2.4,0,2.7-8.1,2.7-8.1L253.5,249.2L253.5,249.2z"/>
	<path class="st25" d="M254.9,249.3c0,0-0.3,7.9,1.3,7.9c1.6,0,1.3-7.8,1.3-7.8L254.9,249.3z"/>
	<path class="st24" d="M268.3,249.2c0,0,0.2,8.3,2.6,8.3s2.7-8.1,2.7-8.1L268.3,249.2L268.3,249.2z"/>
	<path class="st25" d="M269.7,249.3c0,0-0.3,7.9,1.3,7.9c1.6,0,1.3-7.8,1.3-7.8L269.7,249.3z"/>
	<path class="st24" d="M283.1,249.2c0,0,0.2,8.3,2.6,8.3s2.7-8.1,2.7-8.1L283.1,249.2L283.1,249.2z"/>
	<path class="st25" d="M284.5,249.3c0,0-0.3,7.9,1.3,7.9c1.6,0,1.3-7.8,1.3-7.8L284.5,249.3z"/>
	<path class="st23" d="M295.1,242.9l-2.2-1.5c0,0-2.9-15.7-4.7-21.5c-1.8-5.8-6.5-5.9-6.5-5.9h-36.7c0,0-4.7,0.1-6.5,5.9
		c-1.8,5.8-4.7,21.5-4.7,21.5l-2.2,1.5c0,0-1.6,0.5-1.6,2.4c0,1.9,0.1,3.8,0.1,3.8h66.4c0,0,0.1-1.9,0.1-3.8
		C296.7,243.4,295.1,242.9,295.1,242.9z"/>
	<path class="st24" d="M288.2,219.9c-0.9-2.9-2.6-4.4-4-5.1c0.6,0.9,1.4,2.4,2.2,5.1c1.5,5.2,1.9,15.3-1,17.3
		c-3,2.1-12.2,2.7-23.9,2.7h-27.3c-0.2,0.8-0.2,1.3-0.3,1.5h59C292.7,240.4,290,225.5,288.2,219.9L288.2,219.9z"/>
	<path class="st26" d="M264,244.7c17.7,0,32.1-0.2,32.1-0.5c0-0.3-14.4-0.5-32.1-0.5s-32.1,0.2-32.1,0.5
		C231.9,244.4,246.3,244.7,264,244.7z"/>
	<path class="st26" d="M284.1,215.7c0,0.3-9.2,0.5-20.5,0.5c-11.3,0-20.5-0.2-20.5-0.5c0-0.3,9.2-0.5,20.5-0.5
		C275,215.2,284.1,215.4,284.1,215.7z"/>
	<path class="st24" d="M263.1,336.9h19.3c6.7,0,7.5-6.9,7.5-6.9l1.1-21.9c-2.7,6-10,16.8-27.3,16.8s-24.8-10-27.6-15.4l1,20.5
		c0,0,0.8,6.9,7.5,6.9H263.1L263.1,336.9z"/>
	<path class="st20" d="M258,280c0,0,3.7-7,4.6-8.5c0.9-1.5,2.2-4,4-4.4l-6.9-0.2c0,0-1.6-0.5-4,3.7c-2,3.5-3.3,6-3.3,6L258,280z"/>
	<path class="st20" d="M263.3,271.5c0,0,1.5-3.3,4-4.1c0,0,1.2-0.2,2.7,2.3c1.5,2.7,1.7,3.2,1.7,3.2l1.9-1l-2.4,6.1l-7-0.5l2.1-1.3
		L263.3,271.5L263.3,271.5z"/>
	<path class="st20" d="M268.5,280.2c0,0,4.1,6.8,4.9,8.3c0.8,1.5,2.3,4,1.7,5.7l3.7-5.8c0,0,1.2-1.1-1.1-5.3c-2-3.5-3.4-5.9-3.4-5.9
		L268.5,280.2L268.5,280.2z"/>
	<path class="st20" d="M273,289.1c0,0,2.1,3,1.5,5.5c0,0-0.5,1.2-3.4,1.1c-3.1-0.1-3.6-0.2-3.6-0.2l-0.1,2.2l-4-5.2l4.1-5.7l0,2.5
		L273,289.1L273,289.1z"/>
	<path class="st20" d="M263,289.4c0,0-7.9,0.1-9.6,0.1c-1.7-0.1-4.6-0.1-5.8-1.5l3.2,6.1c0,0,0.3,1.6,5.2,1.7c4,0.1,6.8,0,6.8,0
		L263,289.4z"/>
	<path class="st20" d="M253.1,288.7c0,0-3.6,0.3-5.5-1.5c0,0-0.7-1,0.8-3.5c1.6-2.6,2-3,2-3l-1.8-1.2l6.5-0.8l2.9,6.4l-2.2-1.2
		L253.1,288.7L253.1,288.7z"/>
	<path class="st27" d="M46.8,249.1c0,0,1.9,1.3,3.2,8c1.3,6.7,3.7-4,3.7-4l-1.8-5.5L46.8,249.1L46.8,249.1z"/>
	<path class="st27" d="M113.3,249.1c0,0-1.9,1.3-3.2,8c-1.3,6.7-3.7-4-3.7-4l1.8-5.5L113.3,249.1L113.3,249.1z"/>
	<path class="st27" d="M79.7,246.5l-30,0.2l3.9,83.2c0,0,0.7,7.1,7.5,7.1h37.9c6.7,0,7.5-7.1,7.5-7.1l3.9-83.2l-30-0.2H79.7z"/>
	<path class="st28" d="M47.6,320.4l-1.9,1.9v9.4l1.7,1.7L47.6,320.4z"/>
	<path class="st14" d="M57,322.5h-5.9v9H57V322.5z"/>
	<path class="st15" d="M52.7,317.1h-5.8V337h5.8V317.1z"/>
	<path class="st28" d="M112.4,320.4l1.9,1.9v9.4l-1.7,1.7L112.4,320.4z"/>
	<path class="st14" d="M102.9,331.4h5.9v-9h-5.9V331.4z"/>
	<path class="st29" d="M80.3,249.8h-0.6l-30,0.2l3.9,80.1c0,0,0.7,6.9,7.5,6.9h37.9c6.7,0,7.5-6.9,7.5-6.9l3.9-80.1L80.3,249.8
		L80.3,249.8z"/>
	<path class="st15" d="M107.3,337h5.8v-19.9h-5.8V337z"/>
	<path class="st16" d="M52.7,317.1h-5.8v3.5h5.8V317.1z"/>
	<path class="st16" d="M107.3,320.6h5.8v-3.5h-5.8V320.6z"/>
	<path class="st30" d="M55.2,249.2c0,0,0.2,8.3,2.6,8.3c2.4,0,2.7-8.1,2.7-8.1L55.2,249.2L55.2,249.2z"/>
	<path class="st31" d="M56.7,249.3c0,0-0.3,7.9,1.3,7.9c1.6,0,1.3-7.8,1.3-7.8L56.7,249.3z"/>
	<path class="st30" d="M70,249.2c0,0,0.2,8.3,2.6,8.3s2.7-8.1,2.7-8.1L70,249.2L70,249.2z"/>
	<path class="st31" d="M71.5,249.3c0,0-0.3,7.9,1.3,7.9c1.6,0,1.3-7.8,1.3-7.8L71.5,249.3z"/>
	<path class="st30" d="M84.8,249.2c0,0,0.2,8.3,2.6,8.3s2.7-8.1,2.7-8.1L84.8,249.2L84.8,249.2z"/>
	<path class="st31" d="M86.3,249.3c0,0-0.3,7.9,1.3,7.9s1.3-7.8,1.3-7.8L86.3,249.3z"/>
	<path class="st30" d="M99.6,249.2c0,0,0.2,8.3,2.6,8.3s2.7-8.1,2.7-8.1L99.6,249.2L99.6,249.2z"/>
	<path class="st31" d="M101.1,249.3c0,0-0.3,7.9,1.3,7.9c1.6,0,1.3-7.8,1.3-7.8L101.1,249.3z"/>
	<path class="st29" d="M111.7,242.9l-2.2-1.5c0,0-2.9-15.7-4.7-21.5c-1.8-5.8-6.5-5.9-6.5-5.9H61.6c0,0-4.7,0.1-6.5,5.9
		c-1.8,5.8-4.7,21.5-4.7,21.5l-2.2,1.5c0,0-1.6,0.5-1.6,2.4c0,1.9,0.1,3.8,0.1,3.8h66.4c0,0,0.1-1.9,0.1-3.8
		C113.3,243.4,111.7,242.9,111.7,242.9L111.7,242.9z"/>
	<path class="st30" d="M104.8,219.9c-0.9-2.9-2.6-4.4-4-5.1c0.6,0.9,1.4,2.4,2.2,5.1c1.5,5.2,1.9,15.3-1,17.3
		c-3,2.1-12.2,2.7-23.9,2.7H50.8c-0.2,0.8-0.2,1.3-0.3,1.5h59C109.3,240.4,106.5,225.5,104.8,219.9L104.8,219.9z"/>
	<path class="st32" d="M80.6,244.7c17.7,0,32.1-0.2,32.1-0.5c0-0.3-14.4-0.5-32.1-0.5c-17.7,0-32.1,0.2-32.1,0.5
		C48.5,244.4,62.9,244.7,80.6,244.7z"/>
	<path class="st32" d="M100.7,215.7c0,0.3-9.2,0.5-20.5,0.5c-11.3,0-20.5-0.2-20.5-0.5c0-0.3,9.2-0.5,20.5-0.5
		C91.5,215.2,100.7,215.4,100.7,215.7z"/>
	<path class="st30" d="M79.6,336.9h19.3c6.7,0,7.5-6.9,7.5-6.9l1.1-21.9c-2.7,6-10,16.8-27.3,16.8c-17.3,0-24.8-10-27.6-15.4l1,20.5
		c0,0,0.7,6.9,7.5,6.9H79.6L79.6,336.9z"/>
	<path class="st20" d="M74.6,280c0,0,3.7-7,4.6-8.5c0.9-1.5,2.2-4,4-4.4l-6.9-0.2c0,0-1.6-0.5-4,3.7c-2,3.5-3.3,6-3.3,6L74.6,280z"
		/>
	<path class="st20" d="M79.9,271.5c0,0,1.5-3.3,4-4.1c0,0,1.2-0.2,2.7,2.3c1.5,2.7,1.7,3.2,1.7,3.2l1.9-1l-2.4,6.1l-7-0.5l2.1-1.3
		L79.9,271.5L79.9,271.5z"/>
	<path class="st20" d="M85.1,280.2c0,0,4.1,6.8,4.9,8.3c0.8,1.5,2.3,4,1.7,5.7l3.7-5.8c0,0,1.2-1.1-1.1-5.3c-2-3.5-3.4-5.9-3.4-5.9
		L85.1,280.2L85.1,280.2z"/>
	<path class="st20" d="M89.6,289.1c0,0,2.1,3,1.5,5.5c0,0-0.5,1.2-3.4,1.1c-3.1-0.1-3.6-0.2-3.6-0.2l-0.1,2.2l-4-5.2l4.1-5.7l0,2.5
		L89.6,289.1L89.6,289.1z"/>
	<path class="st20" d="M79.6,289.4c0,0-7.9,0.1-9.6,0.1c-1.7-0.1-4.6-0.1-5.8-1.5l3.2,6.1c0,0,0.3,1.6,5.2,1.7c4,0.1,6.8,0,6.8,0
		L79.6,289.4z"/>
	<path class="st20" d="M69.7,288.7c0,0-3.6,0.3-5.5-1.5c0,0-0.7-1,0.8-3.5c1.6-2.6,2-3,2-3l-1.8-1.2l6.5-0.8l2.9,6.4l-2.2-1.2
		L69.7,288.7L69.7,288.7z"/>
</g>
</svg>
