<?xml version="1.0" encoding="utf-8"?>
<!-- Generator: Adobe Illustrator 28.2.0, SVG Export Plug-In . SVG Version: 6.00 Build 0)  -->
<svg version="1.1" id="Layer_1" xmlns="http://www.w3.org/2000/svg" xmlns:xlink="http://www.w3.org/1999/xlink" x="0px" y="0px"
	 viewBox="0 0 371 353" style="enable-background:new 0 0 371 353;" xml:space="preserve">
<style type="text/css">
	.st0{fill:#83A532;}
	.st1{fill:#6D8F25;}
	.st2{fill:#632424;}
	.st3{fill:#D4DDBA;}
</style>
<g>
	<g>
		<path class="st0" d="M164.3,310.8c1.6,11.6-5.2,23.8-15.8,28.7c-0.5,0.2-0.9,0.4-1.4,0.6c-2.3,0.9-4.8,1.5-7.2,0.8
			c-2.3-0.7-4.8-3.1-4.5-5.5c-2,4.7-6.5,8.2-11.5,9c-4.2,0.7-8.4-0.6-11.6-3.2c-0.7-0.5-1.3-1.1-1.8-1.8
			c-3.9,9.8-13.4,17.1-23.8,18.3c-1.7,0.2-3.4,0.2-5.1,0.1C73,357.1,65,352.2,60,345c-0.7,4.4-3.7,8.4-7.6,10.4
			c-0.7,0.4-1.5,0.7-2.3,1c-5.1,1.5-11-0.8-14.6-4.8c-1.8,2.6-4.6,4.3-7.7,5.1c-2.1,0.5-4.4,0.5-6.5-0.1c-5.1-1.4-8.5-6.8-8.9-12.1
			c-4.9,1.3-10.3-0.4-14.2-3.8c-0.5-0.4-1-0.9-1.4-1.4c-3.8-4.3-5.6-10.1-5.9-15.9c-0.3-5.8,0.8-11.5,2-17.2c1-4.9,2.3-9.9,4.9-14.1
			c2.7-4.2,7.2-7.7,12.2-7.8c-1.5-20.2-6.8-51.1,8.5-64.1c0.2-0.2,0.4-0.4,0.6-0.5c16-12.8,57.2-12.3,77.5-9.4
			c17.7,2.6,34.3,11,47.6,23c1.9,1.7,3.8,3.5,5.6,5.4c2.6,2.8,5.1,5.7,7.4,8.8c4,5.4,7.4,11.3,9.8,17.5c0.9,2.4,1.7,4.9,2.4,7.5
			C172.5,285.4,171.4,299.7,164.3,310.8z"/>
		<g>
			<path class="st1" d="M164.3,310.8c1.6,11.6-5.2,23.8-15.8,28.7c-0.1-0.1-0.3-0.2-0.4-0.3c-7.1-5.7-9.4-16.3-5.7-24.6
				c-5.6,0.7-11.7-0.6-15.5-4.7c-3.1-3.5-4.1-8.5-3.7-13.1c0.4-4.7,2-9.1,3.6-13.5c-4.6,0.9-10.3-3.3-10.4-8
				c-5.7,21.2-7.5,44.1-4.1,65.9c-0.7-0.5-1.3-1.1-1.8-1.8c-3.9,9.8-13.4,17.1-23.8,18.3c-1.7,0.2-3.4,0.2-5.1,0.1
				c-3.1-19-2.6-38.3,0.8-57.3c-5.6,3-12.4,4-18.6,2.6c-6.3-1.4-11.9-4.7-15.8-9.8c-1.4,4.2-5.6,7.1-10,6.9
				c1.2,4.6,2.2,9.4,1.2,14.1c-1,4.7-4.5,9.3-9.2,10.2c4,12.2,11.9,23.5,22.4,30.9c-0.7,0.4-1.5,0.7-2.3,1c-5.1,1.5-11-0.8-14.6-4.8
				c-1.8,2.6-4.6,4.3-7.7,5.1c-6.3-7-10.7-15.7-12.5-25c-4.3,5-10.5,8.3-17,9.1c-0.5-0.4-1-0.9-1.4-1.4c-3.8-4.3-5.6-10.1-5.9-15.9
				c-0.3-5.8,0.8-11.5,2-17.2c1-4.9,2.3-9.9,4.9-14.1c2.7-4.2,7.2-7.7,12.2-7.8c-1.5-20.2-6.8-51.1,8.5-64.1
				c42.1,1.4,84.2,5.8,125.7,13.1c1.9,0.3,3.8,0.7,5.7,1c2.4,4.4,4.9,8.8,7.3,13.2c3.3,5.8,6.5,11.7,9.8,17.5
				c0.9,2.4,1.7,4.9,2.4,7.5C172.5,285.4,171.4,299.7,164.3,310.8z"/>
		</g>
		<path class="st2" d="M168,478.8c-19.6-32-38.7-64.9-50.8-100.5c-6-17.5-10.2-35.9-11.9-54.5c21.6-8.5,40.4-31.5,42.8-54.3
			c-1.3-0.1-2.8-0.2-4.1-0.3c-3.5,20-19.8,36.8-39.4,41.8c-0.4-14.8,0.9-29.6,4.4-44c-5-0.5-9.9-1-14.9-1.5
			c-7.3,35.2-8.7,72.6-5.1,109.6c-18.9-2-56.5-17-65.3-55.7c-1.4,0-3.1-0.6-4.6-0.6c7.3,35.4,37,62.3,71.7,72.2
			c4.5,32.9,12.8,65.2,24.3,95.2C133.2,485.3,150.4,483.3,168,478.8L168,478.8z"/>
		<path class="st0" d="M209.4,236.4c-0.3,5.1-5.7,9.3-10.7,8.3c3.5,3.2,4.3,9.1,2.6,13.6c-1.7,4.4-6.4,7.5-11.1,7.4
			c9.5,10,18,22.3,17.7,36.1c-0.3,13.8-10.6,28-24.4,28.9c-9.9,0.6-19.1-5.3-26.3-12.1c-17.4-16.6-27.7-40.3-28.1-64.3
			c-1.4,2.9-5,5-8.1,5.1c-3.2,0.1-6.3-1.7-7.9-4.5c1.8,4.6,1,10.2-1.7,14.3c-2.7,4.2-8,6.7-12.8,5.5c-4.8-1.2-8.4-6.4-7.3-11.2
			c-2.4,7.1-6.2,14.7-11.4,20.1c-5.2,5.4-13.8,8.1-20.2,4.3c-4-2.4-6.4-6.8-8-11.2c-4.1-10.7-5.2-22.6-3.2-33.9
			c-11.5,4-25.1,1.4-34.1-6.7c9.1,8.8,15.9,19.9,19.9,31.9c1.6,4.9,2.8,10.3,1.6,15.3c-1.2,5.1-6.3,12.6-11.5,13.2
			c5.1,2.9,8.1,9.3,7,15.1c-1.1,5.8-6,10.7-11.9,11.7c-5.8,0.9-12.1-2.1-14.9-7.3c-4.9,10-13.4,18.8-23.9,22.5
			c-10.5,3.7-22.8,2.5-31.9-3.9c-6.6-4.6-11.3-12-12.6-19.9c-0.5-3-0.6-6.1-0.1-9.1c1.8-11,11.1-20.5,22.2-21.8
			c-6.5-3.3-10.1-10.4-10.2-17.7c-0.1-7.3,4.2-14.6,10.6-18.1c6.4-3.5,14.8-3.1,20.9,1c-1.6-2.6-1.7-5.9-0.1-8.5
			c1.6-2.6,4.9-4.1,7.9-3.8c-9.6-10.1-19.2-20.4-23.8-33.7c-4.6-13.2-5.4-28.1-0.4-41.2c5-13.1,16.1-24.1,29.7-27.3
			c13.6-3.2,29.3,2.4,36.5,14.4c-1.9-9,5.4-19.9,14.2-22.6c8.8-2.7,19.2,2.2,22.7,10.7c3.1-6.8,12.1-12.2,19.6-12
			c7.5,0.2,14.6,4.8,18.4,11.3c3.9,6.4,4.6,14.5,2.6,21.8c2.6-4,9.4-4.5,13.3-1.7c3.9,2.7,5.6,7.8,5.5,12.6
			c-0.1,4.8-1.7,9.3-3.2,13.8c3.1-2.4,8.2-1.1,11.1,1.5c2.9,2.6,4.4,6.5,5.4,10.3c3.9-10.1,7.5-20.3,14.3-28.8
			c6.8-8.5,17-14.9,27.8-14.6c4.4,0.1,8.5,1.4,12.3,3.5c9.3,5.3,16.1,15.8,17.8,26.7c2.4,15.3-3.1,30.7-10.5,44.2
			C205.9,225.1,209.7,231.3,209.4,236.4z"/>
		<g>
			<path class="st1" d="M209.4,236.4c-0.3,5.1-5.7,9.3-10.7,8.3c3.5,3.2,4.3,9.1,2.6,13.6c-1.7,4.4-6.4,7.5-11.1,7.4
				c9.5,10,18,22.3,17.7,36.1c-0.3,13.8-10.6,28-24.4,28.9c-9.9,0.6-19.1-5.3-26.3-12.1c-17.4-16.6-27.7-40.3-28.1-64.3
				c-1.4,2.9-5,5-8.1,5.1c-3.2,0.1-6.3-1.7-7.9-4.5c1.8,4.6,1,10.2-1.7,14.3c-2.7,4.2-8,6.7-12.8,5.5c-4.8-1.2-8.4-6.4-7.3-11.2
				c-2.4,7.1-6.2,14.7-11.4,20.1c-5.2,5.4-13.8,8.1-20.2,4.3c-4-2.4-6.4-6.8-8-11.2c-4.1-10.7-5.2-22.6-3.2-33.9
				c-11.5,4-25.1,1.4-34.1-6.7c9.1,8.8,15.9,19.9,19.9,31.9c1.6,4.9,2.8,10.3,1.6,15.3c-1.2,5.1-6.3,12.6-11.5,13.2
				c5.1,2.9,8.1,9.3,7,15.1c-1.1,5.8-6,10.7-11.9,11.7c-5.8,0.9-12.1-2.1-14.9-7.3c-4.9,10-13.4,18.8-23.9,22.5
				c-10.5,3.7-22.8,2.5-31.9-3.9c-6.6-4.6-11.3-12-12.6-19.9c0.8,1.6,1.9,3,3.2,4.2c4.4,4.1,10.7,5.7,16.7,5.5
				c5.1-0.1,10.2-1.4,14.6-4.1c4.3-2.7,7.7-7,8.9-12c-5.3-1.4-9.1-7.1-8.1-12.5c4.9,0.7,9.1,4.2,10.5,8.9c0-5.3,2.3-10.6,6.2-14.2
				c0.9,4.5,0.5,8.8-1.1,13.2c1.8,2,5.2,2.4,7.7,1.2c2.4-1.1,4.1-3.6,4.6-6.2c0.5-2.6-0.2-5.4-1.4-7.8c3.4,1.2,7.5,0.5,10.1-2
				c2.6-2.5,3.6-6.6,2.4-10c-1-3.2-3.9-5.8-7.2-6.5c3.6,0.4,7.4-2.2,8.9-5.4c-2.9-1.3-6.6-0.7-9,1.5c3.5-3.8,4.3-10,4.2-15.2
				c-0.3-12.5-5.5-24.7-14.3-33.6c5.1,3.6,10.6,6.7,16.2,9.4c5.6,2.8,11.8,4.6,18,4.6c6.3-0.1,12.6-2.3,17-6.8
				c-2.9-1.2-5-4.9-4.2-7.9c2.1,1.5,3.8,3.5,5.1,5.8c0.3-3.2,1.5-6.1,3.6-8.5c0.5,3,0,6.1-1.3,8.9c4.3-2.1,8-5.1,10.6-9.1
				c-1.3,4.5-2.5,9.8-2.5,14.5c0.1,4.7,1.6,9.5,5,12.8c3.1,2.9,7.7,4.2,11.8,3.3c4.2-0.9,7.8-3.9,9.5-7.8c0.3,2.8,2.6,5.4,5.3,6.2
				c0.6-2.5-0.7-5.3-2.9-6.6c1.9,0.8,4,0.5,5.9-0.3c-1.4-0.9-3.1-1.5-4.8-1.4c3.2-2.9,4.9-7.3,4.6-11.7c0.1,2.5,1.6,4.7,3.4,6.4
				s4.2,2.7,6.6,3.1c1.5,0.2,3,0.2,4.4-0.2c1.4-0.5,2.7-1.4,3.4-2.7c-1.9-0.8-3.5-2.4-4.1-4.3c-0.6-2-0.3-4.2,0.8-5.9
				c2.3,2.6,3.8,5.7,4.4,9c0.7-3.1,2.4-6,4.8-8c0.4,2.8-0.5,5.8-2.4,7.8c3.7-2.4,6.5-6.2,7.7-10.4c-0.2,2.8,1,5.4,2.9,7.5
				c1.9,2.1,4.6,3.3,7.4,3.4c-2.4,0.6-4.4,2.2-5.2,4.5c2.4-0.3,4.7-1.4,6.4-3.1c-0.5,1.3-0.6,2.7-0.4,4.1c1-0.9,2-1.7,3-2.6
				c-1.3,9.2,0.7,18.7,5.1,26.9c2.2,4.1,5.1,8,9,10.6c3.9,2.5,9,3.6,13.4,2.1c4.4-1.5,7.9-5.9,7.7-10.6c-2.4,0.3-5.2-0.7-6.8-2.5
				c2.1-1.2,4.7-1.3,6.9-0.3c-1.6-1.6-2.5-3.8-2.5-6.1c2.1,0.9,3.8,2.6,4.4,4.8c2.2,0.8,4.7,1.4,7,1.5c2.4,0.1,4.9-0.6,6.4-2.4
				c1.1-1.3,1.6-3,1.6-4.6c0.1-4-2.5-7.9-6.2-9.3c3.6-0.5,7.5-1.4,9.8-4.2c2-2.5,2.1-6.2,1-9.2c-1.2-3-3.4-5.4-5.8-7.5
				c7-2.8,11.2-10.2,14.2-17.1c3.2-7.3,5.3-15.2,5.4-23.1c0.1-8-1.8-16-6.2-22.7c-1.2-1.8-2.5-3.5-4.1-5.1
				c9.3,5.3,16.1,15.8,17.8,26.7c2.4,15.3-3.1,30.7-10.5,44.2C205.9,225.1,209.7,231.3,209.4,236.4z"/>
		</g>
		<g>
			<path class="st1" d="M-1.2,196.6c-3-0.5-5.7-2.2-7.4-4.7c-1.7-2.5-2.3-5.7-1.7-8.7c4,2,7.1,5.7,9,9.7c-0.6-3.9,1.3-8,4.7-10.1
				C3.5,187.4,1.3,192.6-1.2,196.6L-1.2,196.6z"/>
		</g>
		<g>
			<path class="st1" d="M23.7,169c-4,0.5-8.2-0.8-11.4-3.3c3.1-1.2,6.7-1.2,9.7,0.2c-1.7-1.1-2.8-2.9-3.6-4.8c-0.8-1.9-1.1-4-1.5-6
				c3.6,2.1,6.2,5.7,7.1,9.8c0.3-3,1.7-5.8,3.9-7.8C29,161.3,26.7,165.8,23.7,169L23.7,169z"/>
		</g>
		<g>
			<path class="st1" d="M176,199c-2-2.9-2.8-6.5-2.2-10c2.2,1.8,3.7,4.6,3.8,7.4c0.1-1.8,1-3.3,2.1-4.7c1.1-1.4,2.6-2.5,3.9-3.6
				c-0.1,3.6-1.7,7-4.4,9.4c2.3-1,5.1-1.1,7.5-0.2C184,199.7,179.6,199.9,176,199L176,199z"/>
		</g>
		<g>
			<path class="st1" d="M58,171.6c-1.8-2-2.8-4.6-2.7-7.3c0.1-2.7,1.2-5.3,3.1-7.1C59.9,161.6,58.6,166.8,58,171.6L58,171.6z"/>
		</g>
		<g>
			<path class="st1" d="M168.8,178.5c-0.8-2.5-0.6-5.4,0.6-7.8c1.2-2.4,3.3-4.3,5.8-5.2C174.6,170.2,171.3,174.4,168.8,178.5z"/>
		</g>
		<path class="st0" d="M475,228.2c-2.9,8.2-10.3,13.9-18.9,15.1c6,4.1,9.3,11.7,8.3,18.9c-1,7.2-6.2,14.7-13,17.1
			c0.6,7.7-2.6,15.7-8.5,20.7c-5.8,5.1-14.1,7.3-21.6,5.6c-2.9-0.6-5.7-1.8-7.8-3.8s-3.2-5-2.7-7.9c-4.7,6.8-13.5,10.5-21.6,9
			c0,0,0,0,0,0c-8.1-1.4-15.8-9.8-17.9-17.7c-0.9,11-9.5,20.9-20.2,23.4c-3.9,0.9-8,0.8-12-0.1c-7.1-1.6-13.6-5.7-17.2-11.8
			c2.5,6.6,0,14.7-5.3,19.2c-1.2,1-2.6,1.9-4.1,2.5c-8.1,3.3-17.8-1-21.3-9c-0.5,0.4-1,0.7-1.5,1c-8,5-19.4,3.2-26.3-3.4
			c-4.1-3.9-6.6-9.1-7.7-14.6c-0.8-4.4-0.7-9.1,0.3-13.5c2.4-9.8,8.9-18.3,17-24.5c5.9-36.4,39.2-72,73.7-84.8
			c34.5-12.7,69.9,5.7,104.7,17.6c8.2,2.8,15.7,8.2,20.3,15.7c1,1.7,1.9,3.5,2.7,5.4C476.8,214.8,477.2,221.8,475,228.2z"/>
		<g>
			<path class="st1" d="M474.4,208.5c-5.8,10-15.8,17.5-27.1,19.7c-15.3,3-31-4.8-39.7-17.8c-4.5,4.8-13.2,4.8-17.7,0
				c-0.5,5.2-3.3,10.1-7.6,13.1c-4.3,3-10.2,4.2-15.3,3c13,23.5,20.3,49.8,22.1,76.6c-8.1-1.4-15.8-9.8-17.9-17.7
				c-0.9,11-9.5,20.9-20.2,23.4c-3.9,0.9-8,0.8-12-0.1c-0.4-24.9-1.1-49.8-1.4-74.7c-5,0.6-9.8-1.5-13.2-5.2c1.5,6.9,2.5,14,1.6,21
				c-0.9,7-3.8,13.9-9,18.7c-5.2,4.8-13.1,7.5-19.8,5.5c3.5,15.1,10,29.7,19.3,42.2c-1.2,1-2.6,1.9-4.1,2.5c-8.1,3.3-17.8-1-21.3-9
				c-0.5,0.4-1,0.7-1.5,1c-3.9-7.6-7.1-15.7-9.4-24c-5,4.6-11.8,7.2-18.6,7c-2-0.1-4-0.4-5.9-0.9c-0.8-4.4-0.7-9.1,0.3-13.5
				c2.4-9.8,8.9-18.3,17-24.5c5.9-36.4,39.2-72,73.7-84.8c34.5-12.7,69.9,5.7,104.7,17.6c8.2,2.8,15.7,8.2,20.3,15.7
				C472.8,204.8,473.7,206.6,474.4,208.5z"/>
		</g>
		<path class="st2" d="M355.1,204.7c-5.5,1.6-11,3.1-16.6,4.7c10.8,47.7,13,97.3,7.4,146.1c-29-26.7-49.1-63-56.5-101.9
			c-2.6-0.4-5.4,0.1-7.8,1.3c8,46.4,29,91.9,60.5,127c-7.3,41.8-20.3,82.5-38.5,120.6c25.4,2.1,50.1,3.2,75.5,5.3
			C399.5,409.6,389.8,298.8,355.1,204.7L355.1,204.7z"/>
		<path class="st0" d="M457.1,195.7c-5,7.8-15.1,11.4-24.2,10.1c-9.2-1.3-17.3-6.6-23.8-13.2c-5.3,4.3-11.9,5.4-18.4,3.1
			c-6.4-2.4-11.4-8.3-12.7-15c-0.2,3.5-2.6,6.9-5.8,8.3c-3.2,1.4-7.2,0.9-10-1.3c3,3.5,5,8.1,5.1,12.7c0.1,4.6-2.1,9.5-6.2,11.7
			c-4.1,2.2-9.9,1-12.2-3.1c-4.9,3.5-12.2,4-16.7,0c-4.5-4-7-8.6-4.1-13.9c-5.1,8.8-17.3,12.6-26.5,8.3c6,8.7,9.4,18.7,10.5,29.2
			c0.7,6.5,0.4,13.1-1.9,19.2c-2.3,6.1-6.7,11.5-12.7,14.1c-6,2.6-13.4,1.9-18.3-2.5c-0.9,4.7-4.6,9.4-8.9,11.5
			c-4.3,2.1-9.3,2.5-14,1.8c-8-1.3-15.4-5.8-20.1-12.4s-6.7-15-5.4-23c-6.4,2-14.2,0.1-19.8-3.5c-5.6-3.7-9.8-9.3-12.6-15.4
			c-2.3-5.1-3.7-10.7-3.9-16.3c-0.1-3.6,0.3-7.2,1.2-10.6c2.4-8.9,8.8-16.8,17.4-20c8.6-3.3,19.2-1.3,25.4,5.5
			c-4.2-5.1-3.8-13.8-0.6-19.5c-11.4-12.1-20.3-26.4-22.8-42.8c-2.4-16.4,1.7-34.1,12.7-46.6c11-12.5,29-18.8,45-14.2
			c-3.5-9.9-1-22,5.4-30.2c6.4-8.2,17.2-12.8,27.6-11.8c10.4,1.1,20,7.7,24.7,17.1c0.6-9.4,11.6-17,20.9-16.5
			c9.3,0.5,17.5,7.6,21,16.3c3.5,8.7,2.7,18.6-0.3,27.5c6.1-5.9,16.4-7.8,23.8-3.7c7.4,4.1,11.7,13.2,10.1,21.6
			c5.9-4.7,15.9-4.3,22,0.2c6.1,4.5,8.5,13.3,5.7,20.4c5.3,0.3,10.4,1.9,15,4.4c9.6,5.2,17.2,14.5,20,25.1
			c4.1,15.7-2.8,33.6-16.4,42.4C460.8,174.9,462.1,187.9,457.1,195.7z"/>
		<g>
			<path class="st3" d="M268.2,242.8c-0.1-0.8-0.1-1.6,0-2.5C268.3,241.1,268.3,242,268.2,242.8z"/>
		</g>
		<g>
			<path class="st1" d="M457.1,195.7c-5,7.8-15.1,11.4-24.2,10.1c-9.2-1.3-17.3-6.6-23.8-13.2c-5.3,4.3-11.9,5.4-18.4,3.1
				c-6.4-2.4-11.4-8.3-12.7-15c-0.2,3.5-2.6,6.9-5.8,8.3c-3.2,1.4-7.2,0.9-10-1.3c3,3.5,5,8.1,5.1,12.7c0.1,4.6-2.1,9.5-6.2,11.7
				c-4.1,2.2-9.9,1-12.2-3.1c-4.9,3.5-12.2,4-16.7,0c-4.5-4-7-8.6-4.1-13.9c-5.1,8.8-17.3,12.6-26.5,8.3c6,8.7,9.4,18.7,10.5,29.2
				c0.7,6.5,0.4,13.1-1.9,19.2c-2.3,6.1-6.7,11.5-12.7,14.1c-6,2.6-13.4,1.9-18.3-2.5c-0.9,4.7-4.6,9.4-8.9,11.5
				c-4.3,2.1-9.3,2.5-14,1.8c-8-1.3-15.4-5.8-20.1-12.4s-6.7-15-5.4-23c-6.4,2-14.2,0.1-19.8-3.5c-5.6-3.7-9.8-9.3-12.6-15.4
				c-2.3-5.1-3.7-10.7-3.9-16.3c2.2,4.3,5.2,8.1,8.9,11.1c7.4,6,17.5,8.6,26.9,7c-3.5-5.2-0.9-12.8,4.7-15.6
				c1.1,4.4,0.9,10.2,0.5,14.7c3.2-6,9-10.5,15.6-12c-1,6.4-5.7,12-12,13.6c-1,4.7-1.2,10,0.1,14.6c1.3,4.6,4.1,8.9,8.2,11.4
				c4.1,2.5,9.4,3.1,13.7,1.1c3.6-1.7,6.3-5.3,6.8-9.2c0.3,3.1,1.9,6.2,4.3,8.2c1.2-3.3,1.1-7.1-0.2-10.3c3.5,2.9,9,1,11.6-2.7
				c2.7-3.7,2.9-8.7,2.2-13.2c-1.6-11.1-7.8-21.4-16.8-27.9c4.6,0.8,8.5,0.9,13.2,0.7s9.4-1.3,13.2-4.1c3.8-2.8,6.4-7.3,6.1-12
				c-4.4-2.2-6.5-7.5-5.2-12.2c3.8,1.5,6.8,4.7,8.1,8.5c0.9-4.2,3.1-7.9,6.3-10.8c1.9,4,1,9.1-2,12.3c3.6,3.2,8.5,5.2,13.3,4.7
				c4.8-0.5,9.4-3.1,12.3-7.1c-0.3,3.7,1.7,7.1,5.1,8.4c3.4,1.3,7.4,0.5,10.4-1.6c3-2.1,4.9-5.5,5.8-9.1c0.9-3.5,0.8-7.3,0.3-10.9
				c1.7,1.2,3.7,1.8,5.8,1.8c8.2,0.1,16.4-3.5,22-9.6c-3.5,4-3.6,10.4-0.3,14.5c2.1-4.4,3.7-9.2,4.1-14.1c0.7,4.1,3.9,7.8,7.9,8.9
				c0.3-3.7-1.1-7.6-3.7-10.3c3.4-2.2,6.2-5.3,8.1-8.8c1.2,5.2,2.4,10.3,4.6,15.1c2.2,4.8,5.7,9.2,10.3,11.6
				c4.7,2.4,10.7,2.6,15-0.3c4.3-3,6.3-9.4,3.5-13.9c-4,0.5-8-2.8-9.3-6.7c3.1-0.7,6.7-0.2,9,1.9c8.4-0.3,16.2-5.6,20.4-12.9
				c4.2-7.3,4.9-16.4,2.6-24.4c-1.5-5-4-9.6-7.3-13.6c9.6,5.2,17.2,14.5,20,25.1c4.1,15.7-2.8,33.6-16.4,42.4
				C460.8,174.9,462.1,187.9,457.1,195.7z"/>
		</g>
		<g>
			<path class="st1" d="M275.4,104.1c-1.9,2.4-4.7,4-7.7,4.3c-3,0.3-6.1-0.7-8.4-2.7c3.7-2.5,8.4-3.5,12.8-3.2c-3.7-1.4-6.4-5-6.6-9
				C269.7,95.6,273.2,100,275.4,104.1L275.4,104.1z"/>
		</g>
		<g>
			<path class="st1" d="M268.3,164.6c-1.3,1.7-3.3,2.8-5.5,3c-2.1,0.2-4.3-0.5-5.9-1.9c2.6-1.8,5.9-2.4,9.1-2.2
				c-2.6-1-4.5-3.5-4.6-6.3C264.2,158.6,266.7,161.7,268.3,164.6L268.3,164.6z"/>
		</g>
		<g>
			<path class="st1" d="M285,81.9c-4,0.5-8.2-0.8-11.4-3.3c3.1-1.2,6.7-1.2,9.7,0.2c-1.7-1.1-2.8-2.9-3.6-4.8c-0.8-1.9-1.1-4-1.5-6
				c3.6,2.1,6.2,5.7,7.1,9.8c0.3-3,1.7-5.8,3.9-7.8C290.3,74.2,288,78.7,285,81.9L285,81.9z"/>
		</g>
		<g>
			<path class="st1" d="M336.4,67.9c-1.8-2-2.8-4.6-2.7-7.3c0.1-2.7,1.2-5.3,3.1-7.1C338.3,58,337,63.2,336.4,67.9L336.4,67.9z"/>
		</g>
	</g>
</g>
</svg>
