<?xml version="1.0" encoding="utf-8"?>
<!-- Generator: Adobe Illustrator 28.2.0, SVG Export Plug-In . SVG Version: 6.00 Build 0)  -->
<svg version="1.1" id="Layer_1" xmlns="http://www.w3.org/2000/svg" xmlns:xlink="http://www.w3.org/1999/xlink" x="0px" y="0px"
	 viewBox="0 0 371 353" style="enable-background:new 0 0 371 353;" xml:space="preserve">
<style type="text/css">
	.st0{clip-path:url(#SVGID_00000160162493538920949760000006246657880510859185_);}
	.st1{fill:#83A532;}
	.st2{fill:#6D8F25;}
	.st3{fill:#632424;}
	.st4{fill:#D4DDBA;}
	.st5{clip-path:url(#SVGID_00000026161908089824395780000004636006608011401607_);}
	.st6{fill:#87B11A;}
	.st7{fill:#719913;}
	.st8{fill:#5E7C12;}
	.st9{fill:#516E0E;}
	.st10{fill:#193441;}
	.st11{fill:#B56B1F;}
	.st12{fill:#91BAEE;}
	.st13{fill:#FB523A;}
	.st14{fill:#EB3434;}
	.st15{fill:#885017;}
	.st16{fill:#D18015;}
	.st17{fill:#FFFFFF;}
	.st18{fill:#FFC366;}
	.st19{fill:#E89A49;}
	.st20{fill:#E88620;}
	.st21{fill:#FFDB82;}
	.st22{fill:#FFC0A9;}
	.st23{fill:#1D262D;}
	.st24{fill:#25506B;}
	.st25{fill:#FFAF96;}
	.st26{fill:#FFAF8A;}
	.st27{fill:#AB661F;}
	.st28{fill:#385ABF;}
	.st29{fill:#4B78FF;}
	.st30{fill:#FFE79F;}
</style>
<g>
	<g>
		<defs>
			<rect id="SVGID_1_" x="-58.6" y="45" width="513" height="242.8"/>
		</defs>
		<clipPath id="SVGID_00000067222973642282149260000014301416824265384330_">
			<use xlink:href="#SVGID_1_"  style="overflow:visible;"/>
		</clipPath>
		<g style="clip-path:url(#SVGID_00000067222973642282149260000014301416824265384330_);">
			<path class="st1" d="M373.3,210.8c0.9,6.9-3.1,14.1-9.3,17.1c-0.3,0.1-0.5,0.2-0.8,0.4c-1.3,0.5-2.8,0.9-4.2,0.5
				c-1.4-0.4-2.9-1.8-2.6-3.3c-1.2,2.8-3.8,4.9-6.8,5.3c-2.5,0.4-5-0.4-6.9-1.9c-0.4-0.3-0.8-0.7-1.1-1c-2.3,5.8-7.9,10.2-14.1,10.9
				c-1,0.1-2,0.1-3,0.1c-5.1-0.4-9.8-3.3-12.8-7.6c-0.4,2.6-2.2,5-4.5,6.2c-0.4,0.2-0.9,0.4-1.4,0.6c-3,0.9-6.5-0.5-8.6-2.8
				c-1.1,1.5-2.7,2.6-4.5,3c-1.3,0.3-2.6,0.3-3.8,0c-3-0.8-5-4-5.3-7.2c-2.9,0.8-6.1-0.2-8.4-2.3c-0.3-0.3-0.6-0.5-0.8-0.8
				c-2.3-2.6-3.3-6-3.5-9.5c-0.2-3.4,0.5-6.8,1.2-10.2c0.6-2.9,1.3-5.9,2.9-8.4c1.6-2.5,4.2-4.5,7.2-4.6c-0.9-12-4-30.4,5-38.1
				c0.1-0.1,0.2-0.2,0.4-0.3c9.5-7.6,33.9-7.3,45.9-5.6c10.5,1.5,20.3,6.5,28.2,13.7c1.1,1,2.2,2.1,3.3,3.2c1.6,1.6,3,3.4,4.4,5.2
				c2.4,3.2,4.4,6.7,5.8,10.4c0.6,1.4,1,2.9,1.4,4.4C378.2,195.7,377.5,204.3,373.3,210.8z"/>
			<g>
				<path class="st2" d="M373.3,210.8c0.9,6.9-3.1,14.1-9.3,17.1c-0.1-0.1-0.2-0.1-0.2-0.2c-4.2-3.4-5.6-9.7-3.3-14.6
					c-3.3,0.4-6.9-0.3-9.2-2.8c-1.8-2.1-2.4-5-2.2-7.8c0.2-2.8,1.2-5.4,2.1-8c-2.7,0.5-6.1-2-6.1-4.8c-3.4,12.6-4.4,26.2-2.4,39.2
					c-0.4-0.3-0.8-0.7-1.1-1c-2.3,5.8-7.9,10.2-14.1,10.9c-1,0.1-2,0.1-3,0.1c-1.8-11.3-1.5-22.8,0.5-34c-3.3,1.8-7.3,2.4-11,1.6
					c-3.7-0.8-7.1-2.8-9.4-5.8c-0.8,2.5-3.3,4.2-5.9,4.1c0.7,2.7,1.3,5.6,0.7,8.4c-0.6,2.8-2.7,5.5-5.4,6.1
					c2.4,7.2,7.1,14,13.3,18.4c-0.4,0.2-0.9,0.4-1.4,0.6c-3,0.9-6.5-0.5-8.6-2.8c-1.1,1.5-2.7,2.6-4.5,3c-3.7-4.2-6.3-9.3-7.4-14.9
					c-2.5,3-6.2,4.9-10.1,5.4c-0.3-0.3-0.6-0.5-0.8-0.8c-2.3-2.6-3.3-6-3.5-9.5c-0.2-3.4,0.5-6.8,1.2-10.2c0.6-2.9,1.3-5.9,2.9-8.4
					c1.6-2.5,4.2-4.5,7.2-4.6c-0.9-12-4-30.4,5-38.1c24.9,0.8,49.8,3.4,74.4,7.8c1.1,0.2,2.3,0.4,3.4,0.6c1.4,2.6,2.9,5.2,4.3,7.8
					c1.9,3.5,3.9,7,5.8,10.4c0.6,1.4,1,2.9,1.4,4.4C378.2,195.7,377.5,204.3,373.3,210.8z"/>
			</g>
			<path class="st3" d="M375.5,310.7c-11.6-19.1-22.9-38.6-30-59.7c-3.5-10.4-6-21.4-7.1-32.4c12.8-5,23.9-18.7,25.3-32.3
				c-0.8-0.1-1.7-0.1-2.4-0.2c-2.1,11.9-11.7,21.9-23.3,24.8c-0.2-8.8,0.5-17.6,2.6-26.2c-2.9-0.3-5.9-0.6-8.8-0.9
				c-4.3,20.9-5.2,43.1-3,65.1c-11.2-1.2-33.4-10.1-38.7-33.1c-0.8,0-1.9-0.3-2.7-0.3c4.3,21.1,21.9,37,42.5,42.9
				c2.6,19.6,7.6,38.8,14.4,56.6C354.9,314.6,365.1,313.4,375.5,310.7L375.5,310.7z"/>
			<path class="st1" d="M400.1,166.6c-0.2,3-3.4,5.5-6.3,4.9c2.1,1.9,2.5,5.4,1.5,8.1c-1,2.6-3.8,4.5-6.6,4.4
				c5.6,6,10.7,13.2,10.5,21.5s-6.3,16.6-14.4,17.2c-5.9,0.4-11.3-3.1-15.6-7.2c-10.3-9.9-16.4-24-16.6-38.2c-0.8,1.7-2.9,3-4.8,3
				c-1.9,0.1-3.8-1-4.7-2.7c1.1,2.8,0.6,6.1-1,8.5c-1.6,2.5-4.7,4-7.6,3.2c-2.8-0.7-5-3.8-4.3-6.7c-1.4,4.2-3.7,8.8-6.7,12
				c-3.1,3.2-8.2,4.8-12,2.6c-2.4-1.4-3.8-4-4.8-6.6c-2.4-6.4-3.1-13.4-1.9-20.2c-6.8,2.4-14.9,0.9-20.2-4c5.4,5.2,9.4,11.9,11.8,19
				c1,2.9,1.6,6.1,1,9.1c-0.7,3-3.7,7.5-6.8,7.8c3,1.8,4.8,5.5,4.1,9c-0.6,3.5-3.6,6.4-7,6.9c-3.5,0.6-7.2-1.3-8.8-4.4
				c-2.9,6-7.9,11.2-14.1,13.4c-6.2,2.2-13.5,1.5-18.9-2.3c-3.9-2.7-6.7-7.1-7.5-11.8c-0.3-1.8-0.4-3.6-0.1-5.4
				c1.1-6.5,6.6-12.2,13.1-13c-3.9-2-6-6.2-6-10.5c-0.1-4.4,2.5-8.7,6.3-10.7c3.8-2.1,8.8-1.8,12.4,0.6c-1-1.6-1-3.5,0-5.1
				c1-1.6,2.9-2.4,4.7-2.2c-5.7-6-11.4-12.1-14.1-20c-2.7-7.9-3.2-16.7-0.2-24.5s9.5-14.3,17.6-16.2c8.1-1.9,17.3,1.4,21.6,8.5
				c-1.1-5.3,3.2-11.8,8.4-13.5s11.4,1.3,13.4,6.3c1.8-4.1,7.2-7.3,11.6-7.1c4.4,0.1,8.6,2.9,10.9,6.7c2.3,3.8,2.7,8.6,1.5,13
				c1.5-2.4,5.6-2.7,7.9-1c2.3,1.6,3.3,4.6,3.3,7.5c0,2.8-1,5.6-1.9,8.2c1.8-1.4,4.9-0.7,6.6,0.9c1.7,1.6,2.6,3.9,3.2,6.1
				c2.3-6,4.4-12.1,8.5-17.1c4-5,10.1-8.9,16.5-8.7c2.6,0.1,5,0.9,7.3,2.1c5.5,3.2,9.5,9.4,10.5,15.9c1.4,9.1-1.9,18.2-6.2,26.3
				C398,159.9,400.2,163.5,400.1,166.6z"/>
			<g>
				<path class="st2" d="M400.1,166.6c-0.2,3-3.4,5.5-6.3,4.9c2.1,1.9,2.5,5.4,1.5,8.1c-1,2.6-3.8,4.5-6.6,4.4
					c5.6,6,10.7,13.2,10.5,21.5s-6.3,16.6-14.4,17.2c-5.9,0.4-11.3-3.1-15.6-7.2c-10.3-9.9-16.4-24-16.6-38.2c-0.8,1.7-2.9,3-4.8,3
					c-1.9,0.1-3.8-1-4.7-2.7c1.1,2.8,0.6,6.1-1,8.5c-1.6,2.5-4.7,4-7.6,3.2c-2.8-0.7-5-3.8-4.3-6.7c-1.4,4.2-3.7,8.8-6.7,12
					c-3.1,3.2-8.2,4.8-12,2.6c-2.4-1.4-3.8-4-4.8-6.6c-2.4-6.4-3.1-13.4-1.9-20.2c-6.8,2.4-14.9,0.9-20.2-4
					c5.4,5.2,9.4,11.8,11.8,19c1,2.9,1.6,6.1,1,9.1c-0.7,3-3.7,7.5-6.8,7.8c3,1.8,4.8,5.5,4.1,9c-0.6,3.5-3.6,6.4-7,6.9
					c-3.5,0.6-7.2-1.3-8.8-4.4c-2.9,6-7.9,11.2-14.1,13.4c-6.2,2.2-13.5,1.5-18.9-2.3c-3.9-2.7-6.7-7.1-7.5-11.8
					c0.5,0.9,1.1,1.8,1.9,2.5c2.6,2.4,6.3,3.4,9.9,3.3c3-0.1,6.1-0.8,8.6-2.4c2.5-1.6,4.6-4.2,5.3-7.1c-3.1-0.8-5.4-4.2-4.8-7.4
					c2.9,0.4,5.4,2.5,6.2,5.3c0-3.2,1.4-6.3,3.7-8.5c0.5,2.7,0.3,5.3-0.6,7.8c1.1,1.2,3.1,1.4,4.5,0.7c1.4-0.7,2.4-2.1,2.7-3.7
					c0.3-1.6-0.1-3.2-0.8-4.6c2,0.7,4.5,0.3,6-1.2c1.5-1.5,2.1-3.9,1.4-6c-0.6-1.9-2.3-3.4-4.3-3.9c2.1,0.2,4.4-1.3,5.3-3.2
					c-1.7-0.8-3.9-0.4-5.3,0.9c2.1-2.3,2.5-5.9,2.5-9c-0.2-7.4-3.3-14.7-8.4-20c3,2.1,6.3,4,9.6,5.6c3.3,1.6,7,2.8,10.7,2.7
					c3.7-0.1,7.5-1.4,10.1-4c-1.7-0.7-3-2.9-2.5-4.7c1.3,0.9,2.3,2.1,3,3.5c0.2-1.9,0.9-3.6,2.1-5.1c0.3,1.8,0,3.6-0.7,5.3
					c2.5-1.2,4.8-3,6.3-5.4c-0.8,2.7-1.5,5.8-1.5,8.6c0,2.8,0.9,5.7,3,7.6c1.8,1.7,4.5,2.5,7,2c2.5-0.5,4.6-2.3,5.6-4.7
					c0.2,1.7,1.5,3.2,3.1,3.7c0.3-1.5-0.4-3.2-1.7-3.9c1.1,0.5,2.4,0.3,3.5-0.2c-0.8-0.6-1.9-0.9-2.9-0.9c1.9-1.7,2.9-4.3,2.8-6.9
					c0.1,1.5,0.9,2.8,2,3.8c1.1,1,2.5,1.6,3.9,1.8c0.9,0.1,1.8,0.1,2.6-0.1c0.8-0.3,1.6-0.8,2-1.6c-1.1-0.5-2.1-1.4-2.5-2.6
					c-0.4-1.2-0.2-2.5,0.4-3.5c1.3,1.5,2.3,3.4,2.6,5.4c0.4-1.8,1.4-3.6,2.8-4.8c0.2,1.7-0.3,3.4-1.4,4.7c2.2-1.4,3.8-3.7,4.6-6.2
					c-0.1,1.7,0.6,3.2,1.7,4.5c1.1,1.2,2.7,2,4.4,2c-1.4,0.4-2.6,1.3-3.1,2.7c1.4-0.2,2.8-0.8,3.8-1.8c-0.3,0.8-0.4,1.6-0.2,2.4
					c0.6-0.5,1.2-1,1.8-1.5c-0.7,5.5,0.4,11.1,3,16c1.3,2.5,3,4.8,5.3,6.3c2.3,1.5,5.3,2.2,7.9,1.3c2.6-0.9,4.7-3.5,4.6-6.3
					c-1.4,0.2-3.1-0.4-4-1.5c1.2-0.7,2.8-0.8,4.1-0.2c-0.9-1-1.5-2.3-1.5-3.6c1.3,0.5,2.3,1.5,2.6,2.9c1.3,0.5,2.8,0.8,4.2,0.9
					c1.4,0.1,2.9-0.4,3.8-1.4c0.6-0.8,0.9-1.8,1-2.8c0.1-2.4-1.5-4.7-3.7-5.5c2.1-0.3,4.5-0.9,5.8-2.5c1.2-1.5,1.3-3.7,0.6-5.4
					c-0.7-1.8-2-3.2-3.4-4.5c4.1-1.7,6.6-6.1,8.4-10.2c1.9-4.3,3.1-9,3.2-13.8s-1.1-9.5-3.6-13.5c-0.7-1.1-1.5-2.1-2.4-3
					c5.5,3.2,9.5,9.4,10.5,15.9c1.4,9.1-1.9,18.2-6.2,26.3C398,159.9,400.2,163.5,400.1,166.6z"/>
			</g>
			<g>
				<path class="st4" d="M275.4,142.9c-1.8-0.3-3.4-1.3-4.4-2.8c-1-1.5-1.4-3.4-1-5.2c2.4,1.2,4.2,3.4,5.3,5.8
					c-0.3-2.3,0.8-4.7,2.8-6C278.2,137.5,276.9,140.6,275.4,142.9L275.4,142.9z"/>
			</g>
			<g>
				<path class="st4" d="M262.8,181.5c-0.8,1-2,1.7-3.2,1.8c-1.3,0.1-2.6-0.3-3.5-1.1c1.5-1.1,3.5-1.4,5.4-1.3
					c-1.5-0.6-2.6-2.1-2.7-3.8C260.4,177.9,261.9,179.8,262.8,181.5L262.8,181.5z"/>
			</g>
			<g>
				<path class="st4" d="M290.1,126.5c-2.4,0.3-4.9-0.5-6.7-2c1.8-0.7,4-0.7,5.8,0.1c-1-0.7-1.7-1.7-2.1-2.9s-0.7-2.4-0.9-3.6
					c2.1,1.2,3.7,3.4,4.2,5.8c0.2-1.8,1-3.5,2.3-4.6C293.3,121.9,291.9,124.7,290.1,126.5L290.1,126.5z"/>
			</g>
			<g>
				<path class="st4" d="M310.4,128c-1.1-1.2-1.7-2.8-1.6-4.3c0-1.6,0.7-3.1,1.8-4.2C311.6,122.2,310.8,125.2,310.4,128L310.4,128z"
					/>
			</g>
			<path class="st1" d="M153.4,230.3c-0.3,0.8-0.6,1.5-1,2.2c-2.5,4.5-7,7.8-12.1,9c-0.3,4.9-3.3,9.6-7.6,11.9
				c-4.4,2.3-10,2.4-14.1-0.3c-1.8,3.1-6.4,4.7-9.7,3.4c0.4,4.7-2.3,9.3-6.2,11.8c-3.1,2.1-6.9,2.9-10.7,2.8c-0.9,0-1.8-0.1-2.7-0.2
				c-2.5-0.3-4.9-1.1-6.8-2.5c-0.7-0.6-1.3-1.2-1.9-2.1c-4,3.6-9.8,5.1-15,3.8s-9.5-5.6-11.3-10.7c-2.2,0.6-4.7-0.2-6.2-1.9
				c-1.5-1.7-2.2-4.4-1.4-6.5c-4.4-2-7.9-6-9.3-10.7h0c-0.4-1.3-0.6-2.6-0.7-3.9c-0.3-6.2,3.2-12.5,8.6-15.5
				c12.1-6.8,19.8-18.8,32.4-24.8c0,0,0.1,0,0.1,0c12.5-6,26.8-8.8,40.4-6.2c7.2,1.4,14,4.5,19.8,8.9c5.2,3.9,9.7,8.7,13.4,14.1
				C154.8,217.9,155.6,224.6,153.4,230.3L153.4,230.3z"/>
			<g>
				<path class="st2" d="M153.4,230.3c-0.3,0.8-0.6,1.5-1,2.2c-2.6,0.4-5.2-0.2-7.3-1.8c-0.9,4.7-4.1,8.9-8.3,11
					c-4.3,2.1-9.3,1.7-13.5-0.5c-4,0.5-8.2-0.6-11.5-2.9c-3.3-2.3-5.5-5.7-6.6-9.7c-0.4,3.1-2,6-4.3,8c-2.3,2-5.4,3-8.5,2.9
					c-2.2,10.2-2.4,21.3-0.6,31.7c-0.9,0-1.8-0.1-2.7-0.2c-2.5-0.3-4.9-1.1-6.8-2.5c-0.1-4.5-0.2-8.9-0.2-13.4
					c-0.9-0.6-1.6-1.6-2.5-2.2c-8.3-5.3-15.1-13.2-18.8-22.4c0.3,3.2-1.4,6.5-4.2,8.1c-2.8,1.6-6.4,1.4-9-0.4
					c-1.8,2.5-5.1,3.8-8.1,3.1c-0.8-0.2-1.4-0.5-2.1-0.9h0c-0.4-1.3-0.6-2.6-0.7-3.9c-0.3-6.2,3.2-12.5,8.6-15.5
					c12.1-6.8,19.8-18.8,32.4-24.8c0,0,0.1,0,0.1,0c20.1-1.2,40.3-0.3,60.3,2.7c5.2,3.9,9.7,8.7,13.4,14.1
					C154.8,217.9,155.6,224.7,153.4,230.3L153.4,230.3z"/>
			</g>
			<path class="st3" d="M89,208.6c1.5,0.1,2.9,0.2,4.4,0.3c-8,35.2-8.2,72-1.5,107.5c-5,0.5-10.1,1.3-15.1,1.8
				C70,281.9,76.7,243.5,89,208.6L89,208.6z"/>
			<path class="st3" d="M78.6,251.1c0.8-1.6,2.6-6.5,3.4-8.1c-10-8.3-16.7-20.8-18.5-33.7c-0.9-0.1-1.6-0.2-2.5-0.3
				C62.3,223.5,65.7,237.4,78.6,251.1z"/>
			<path class="st3" d="M85.8,253.5c0-2,0.1-3.9,0.1-5.9c13.7-1.7,26.5-10.2,33.3-22.3c0.6,0.3,1.3,0.7,1.9,1.1
				c-3.1,7-8,13.3-14.2,17.8C100.6,248.6,93.4,252.8,85.8,253.5L85.8,253.5z"/>
			<path class="st1" d="M161.1,217.6c-4.2,3.6-10.6,4.4-15.4,1.6c-1.5,6-4.9,11.8-10.1,15.1c-5.3,3.3-12.6,3.5-17.4-0.5
				c-4-3.4-5.6-9-5.3-14.2c0.3-5.3,2-10.4,3.9-15.3c-2.3,4.8-9.2,6.9-13.9,4.3c2.2,7.1-0.8,15.4-6.8,19.5
				c-6.1,4.1-14.8,3.7-20.5-0.9c-5.7-4.7-7.9-13.2-5.1-20c-2.5,3.7-9.7,4.5-13.5,2.3c1.1,5.1,1.5,10.5-0.6,15.2
				c-2.1,4.7-7.4,8.3-12.4,6.9c-3.9-1.1-6.6-4.2-7.9-8c-7.3-2.5-12.7-9.9-12.9-17.6c-0.1-3,0.7-6.1,2-9c2.1-4.5,5.7-8.3,10.1-10
				c-5-2.3-8-8.3-6.8-13.7c1.2-5.4,6.3-9.6,11.8-9.4c-3.2-7.7-0.7-17.5,5.9-22.7c6.6-5.2,16.7-5.5,23.4-0.4c3.6-2.2,8.9-1,11,2.6
				c2.1-2.8,5.4-4.8,8.9-5.2c3.5-0.5,6.7,0.3,9.5,2.5c3.7-9.4,13.1-16.2,23.1-16.8c10-0.5,20.1,5.2,24.8,14.2
				c4.7,8.9,4.3,21.1-1.9,29.1c3.6,0.1,7.2,0.7,10.4,2.3c1,0.5,2,1.1,2.9,1.9c1.9,1.6,3.4,3.6,4.2,5.9c1.1,3.4,1,7.6-1.7,10
				c3.4,4.4,5.9,9.7,6.2,15.3C167.4,208.1,165.4,214,161.1,217.6L161.1,217.6z"/>
			<g>
				<path class="st2" d="M161.1,217.6c-4.2,3.6-10.6,4.4-15.4,1.6c-1.5,6-4.9,11.8-10.1,15.1c-5.3,3.3-12.6,3.5-17.4-0.5
					c-4-3.4-5.6-9-5.3-14.2c0.3-5.3,2-10.4,3.9-15.3c-2.3,4.8-9.2,6.9-13.9,4.3c2.2,7.1-0.8,15.4-6.8,19.5
					c-6.1,4.1-14.8,3.7-20.5-0.9c-5.7-4.7-7.9-13.2-5.1-20c-2.5,3.7-9.7,4.5-13.5,2.3c1.1,5.1,1.5,10.5-0.6,15.2
					c-2.1,4.7-7.4,8.3-12.4,6.9c-3.9-1.1-6.6-4.2-7.9-8c-7.3-2.5-12.7-9.9-12.9-17.6c-0.1-3,0.7-6.1,2-9c0.2,1.7,0.8,3.3,1.7,4.7
					c2.4,3.8,6.9,6,11.3,5.7c-1.8-2-2.4-5.2-1.5-7.7c2,1.7,3.4,4,3.9,6.5c0.1-3.9,2.4-7.4,5.8-9.1c0.4,3.3-0.7,6.7-2.7,9.3
					c-1.1,1.4-1.2,3.6-1.2,5.4c0,1.7,0.6,3.5,2,4.5c1.8,1.2,4.4,0.8,5.9-0.7c1.6-1.5,2.2-3.8,2.2-5.9c0-2.2-0.6-4.3-1.2-6.4
					c9.5,3.4,21.4-0.8,27.7-8.7c-1.2,2.1-2.5,4.2-3.1,6.6c-0.7,2.4-0.7,5,0.5,7.1c1.1,2.2,3.6,3.7,6,3.2c-1,3.4,0,7.4,2.4,9.9
					c1.5-3.2,1.9-6.9,0.8-10.2c3.1,0.2,6.2-1.2,8-3.8c1.8-2.5,2.2-6,1-8.9c6.3,3.7,15.4,2.4,20.7-2.6c-1.6-3.2-1.3-7.4,0.9-10.2
					c1.2,2.6,1.8,5.4,1.7,8.2c1.8-2,4-3.8,5.8-5.8c-0.6,3.6-1.1,7.3-0.4,10.9c0.7,3.6,3,7.1,6.5,8.2c2.1,0.7,4.5,0.4,6.5-0.6
					c2-0.9,3.7-2.5,5.2-4.2c-2.8-2.4-4.1-6.4-3-9.9c2.4,1.9,4,4.5,4.6,7.5c0-2.8,1.1-5.6,2.9-7.8c0.6,2.1,0.9,4.4,0.8,6.6
					c3.2,0,5.7-2.9,6.1-6.1c0.4-3.2-1-6.4-2.9-9c4.1-0.4,7.7-3.3,8.6-7.3c0.4-1.7,0.3-3.6-0.3-5.3c1.9,1.6,3.4,3.6,4.2,5.9
					c1.1,3.4,1,7.6-1.7,10c3.4,4.4,5.9,9.7,6.2,15.3C167.4,208.2,165.4,214,161.1,217.6L161.1,217.6z"/>
			</g>
			<g>
				<path class="st4" d="M57.7,157c-1.2,1.5-3,2.6-5,2.8c-1.9,0.2-3.9-0.4-5.4-1.7c2.3-1.6,5.4-2.2,8.2-2.1
					c-2.4-0.9-4.1-3.2-4.2-5.8C54,151.5,56.2,154.4,57.7,157z"/>
			</g>
			<g>
				<path class="st4" d="M47.3,180c-0.8,1.1-2.1,1.8-3.5,1.9c-1.4,0.1-2.8-0.3-3.8-1.2c1.7-1.1,3.8-1.6,5.8-1.4
					c-1.7-0.6-2.9-2.3-3-4.1C44.7,176.1,46.3,178.1,47.3,180L47.3,180z"/>
			</g>
			<g>
				<path class="st4" d="M114.1,150.2c-1.9-1.8-3.1-4.3-3.2-7c1.9,1,3.4,2.8,4,4.8c-0.2-1.3,0.2-2.6,0.8-3.8
					c0.6-1.2,1.5-2.2,2.3-3.3c0.5,2.6-0.1,5.4-1.7,7.6c1.5-1.1,3.5-1.6,5.4-1.4C120,149.5,116.8,150.3,114.1,150.2L114.1,150.2z"/>
			</g>
			<g>
				<path class="st4" d="M121.8,172.9c-1.3-1.8-1.8-4.2-1.4-6.4c1.4,1.2,2.3,2.9,2.5,4.8c0.1-1.1,0.6-2.1,1.4-3
					c0.7-0.9,1.6-1.6,2.5-2.3c0,2.3-1.1,4.5-2.8,6c1.5-0.7,3.3-0.7,4.8-0.1C126.9,173.4,124.1,173.5,121.8,172.9L121.8,172.9z"/>
			</g>
			<g>
				<path class="st4" d="M89.8,153.7c-1.1-1.3-1.8-3-1.7-4.7c0-1.7,0.8-3.4,2-4.6C91,147.3,90.1,150.6,89.8,153.7z"/>
			</g>
			<g>
				<path class="st4" d="M133.5,176c-0.5-1.6-0.4-3.5,0.4-5c0.8-1.5,2.1-2.8,3.7-3.4C137.3,170.7,135.1,173.4,133.5,176z"/>
			</g>
			<path class="st1" d="M37.4,137.7c-0.1,9.4-2.3,19-7.7,26.6c-5.4,7.6-14.5,13-23.8,12.4c3,0.3,5.7,3.7,6.4,6.7
				c0.8,3-0.5,6.4-3,8.1c6.1-2.1,13.3,1.6,16.1,7.5s0.9,13.4-3.8,17.7c-4.8,4.4-12,5.5-18.1,3.3c-2.3,3-5.3,5.9-8.8,7.3
				c-3.5,1.4-7.6,1.5-10.9-0.3c-3.3-1.7-5.7-5.4-5.4-9.2c-4.7-1.1-8.8-4.8-10.2-9.5c-1.4-4.7-0.8-9.8,0.8-14.4
				c1.6-4.6,4.1-8.8,6.7-13c-3.8,0.8-8.1,0-11.4-2c-2.2-1.3-5-3.3-6.9-5.5c3.6,7.6,3.1,17.3-1.7,24.3c-5.6,8.2-16.7,12.2-26.2,9.4
				c-8.9-2.6-15.9-10.9-17.1-20.2c-0.1,3.4-2.7,6.8-6,7.8c-3.9,1.1-8.5-1.2-9.8-5.1c1,4.3-2,8.5-5.6,11.1c-8,5.7-19.6,5.9-27.8,0.4
				c-8.2-5.5-12.5-16.3-10.3-26c-4.3,0.9-8.3-1.6-9.9-5.7c-1.6-4.1,0.2-9.3,4.1-11.5c-6-3.1-9.7-9.9-9.1-16.7
				c0.3-4.2,2-8.2,4.6-11.5c1.6-2,3.5-3.8,5.7-5.3c5.6-3.8,12.6-5.1,19.4-4.7c-2.5-2.7-2.9-6.9-0.6-9.8c2.3-2.9,6.7-3.7,9.8-1.8
				c-1.7-5.4,0.8-11.4,5.6-14.3c4.8-2.9,10.9-2.9,16.2-0.9c3.8,1.4,7.1,3.8,10.1,6.5c-0.8-1.6-1-3.5-0.6-5.2
				c0.9-3.2,4.4-5.3,7.6-4.7c-0.6-2.9-1.2-5.2-1.1-8.2c0.1-3,0.9-6,2.9-8.3c2.5-3,6.6-4.2,10.5-3.7c3.8,0.5,7.3,2.6,10,5.5
				c0.6-6.4,6.5-11.7,12.7-13c6.2-1.3,12.9,1.2,17.5,5.7c4.6,4.5,7.1,10.7,8,17.1c0.8,6.4,0.1,12.8-1.3,19.1
				c2.1-3.8,7.3-4.9,11.2-3.1c3.9,1.8,6.4,6,7.4,10.2c6.1-3.4,12.6-5.3,19.5-4.8c3.3,0.2,6.7,1.1,9.7,2.5c3.3,1.5,6.2,3.7,8.5,6.5
				C36.1,121.3,37.5,129.7,37.4,137.7z"/>
			<g>
				<path class="st2" d="M37.4,137.7c-0.1,9.4-2.3,19-7.7,26.6c-5.4,7.6-14.5,13-23.8,12.4c3,0.3,5.7,3.7,6.4,6.7
					c0.8,3-0.5,6.4-3,8.1c6.1-2.1,13.3,1.6,16.1,7.5s0.9,13.4-3.8,17.7c-4.8,4.4-12,5.5-18.1,3.3c-2.3,3-5.3,5.9-8.8,7.3
					c-3.5,1.4-7.6,1.5-10.9-0.3c-3.3-1.7-5.7-5.4-5.4-9.2c-4.7-1.1-8.8-4.8-10.2-9.5c-1.4-4.7-0.8-9.8,0.8-14.4
					c1.6-4.6,4.1-8.8,6.7-13c-3.8,0.8-8.1,0-11.4-2c-2.2-1.3-5-3.3-6.9-5.5c3.6,7.6,3.1,17.3-1.7,24.3c-5.6,8.2-16.7,12.2-26.2,9.4
					c-8.9-2.6-15.9-10.9-17.1-20.2c-0.1,3.4-2.7,6.8-6,7.8c-3.9,1.1-8.5-1.2-9.8-5.1c1,4.3-2,8.5-5.6,11.1c-8,5.7-19.6,5.9-27.8,0.4
					c-8.2-5.5-12.5-16.3-10.3-26c-4.3,0.9-8.3-1.6-9.9-5.7c-1.6-4.1,0.2-9.3,4.1-11.5c-6-3.1-9.7-9.9-9.1-16.7
					c0.3-4.2,2-8.2,4.6-11.5c-0.8,3.3-0.5,6.9,0.7,10.1c2,5.2,6.8,9.3,12.2,10.5c-0.4-4.3,2.3-8.7,6.4-10.1
					c1.5,4.2,0.7,9.1-2.7,11.9c-1.8,1.4-3.1,4.4-3.7,6.6c-0.6,2.2-0.6,4.7,0.7,6.6c1.3,1.9,4,2.9,6,1.8c-2.2,2.4-2.1,6.8-0.3,9.5
					c1.8-1.6,3.1-3.8,3.5-6.2c0.1,4.9,4,9.7,8.7,11.4c5.4,2,11.5,0.8,16.6-1.9c-4.5-3-6.6-9.2-4.4-14.2c4.1,2.5,6.8,6.9,7,11.7
					c0.2-5.2,2.6-10,6.4-13.6c0.3,4.7-1,9.4-3.7,13.2c0.2,3.1,3.4,5.6,6.4,6.1c3.1,0.4,6.2-0.9,8.5-3c2.3-2.1,3.9-4.8,5.4-7.6
					c-0.2,5,2.7,10,7.3,12.1c4.6,2,10.4,0.9,13.9-2.7c-1,3.3,1.2,7.4,4.6,8.3c1.3-3.4,1.2-7.2-0.2-10.5c5.4-4.6,7.8-12.1,6.9-19.1
					c-4.4-2.6-6.6-8.4-4.7-13.1c4.3,2.3,7.4,6.5,8.5,11.2c1,4.7,7.7,6,12.4,6.8c4.7,0.8,9.7-0.1,13.9-2.5c-1.7,3.7,0.3,8.6,4,10
					c1.2-3.4,1.7-7,1-10.5c2.8,2,6.5,2.7,9.8,2.2c-1.7-2.3-4-4-6.7-4.9c5.6-1.7,10-7,10.8-12.8c5.1,3.7,12.8,3.1,17.2-1.4
					c4.4-4.5,4.8-12.3,1-17.3c3.9-0.3,7.5-3.5,8.9-7.1c1.4-3.6,0.9-7.9-1.1-11.3c-0.3-0.5-0.6-1-0.9-1.4c3.3,1.5,6.2,3.7,8.5,6.5
					C36.1,121.3,37.5,129.7,37.4,137.7z"/>
			</g>
		</g>
	</g>
	<g>
		<defs>
			<rect id="SVGID_00000171688381172093240780000011699427798723406472_" x="-199.6" y="224" width="776" height="184.8"/>
		</defs>
		<clipPath id="SVGID_00000147183507734733774710000011779549481119745673_">
			<use xlink:href="#SVGID_00000171688381172093240780000011699427798723406472_"  style="overflow:visible;"/>
		</clipPath>
		<g style="clip-path:url(#SVGID_00000147183507734733774710000011779549481119745673_);">
			<path class="st6" d="M329.5,278.9c-3.8,5.9-10.8,11-16.9,14.6c-2.7-0.4-5.4-0.8-8.2-1.1c-24.5-3.3-49.1-4.9-73.8-5
				c-1.5,0-3.1,0-4.6,0c-5.1-5.1-11.7-9.6-18.2-12.9c-3.4-1.7-7.1-3.3-9.9-5.8c-2.9-2.6-4.9-6.6-3.9-10.3c0.9-3.5,4.3-5.9,7.8-6.6
				c3.5-0.7,7.2,0.1,10.6,1.2c9.9,3.2,18.7,9.4,25.2,17.5c-5.2-6.9-10.1-14.2-15.4-21.1c-1.8-2.4-3.6-4.8-4.7-7.6
				c-1-2.8-1.2-6.1,0.4-8.6c2.1-3.5,6.8-4.7,10.9-4.3c8.3,0.7,15.6,6.1,20.6,12.7c5,6.6,8.1,14.5,11,22.3c-0.5-6,1.5-12.1,5.5-16.6
				c1.6-1.7,3.6-3.3,5.9-3.3c2.8,0,5,2.3,6.5,4.6c3.1,4.9,4.3,11,3.2,16.8c2.7-10.7,9.3-20.4,18-27.3c2.1-1.6,4.3-3.1,6.8-3.8
				c2.5-0.7,5.4-0.5,7.5,1c3.3,2.3,3.9,6.9,3.9,10.9c-0.1,9.9-2.9,19.7-7.9,28.2c4.3-3.6,10-5.5,15.6-5.6c1.7,0,3.6,0.2,4.8,1.4
				C332.6,272.4,331.3,276.3,329.5,278.9L329.5,278.9z"/>
			<g>
				<path class="st7" d="M316.5,280.6c-0.4,0.9-1.1,1.6-1.9,2.3c-3.4,3.2-6.8,6.4-10.2,9.6c-24.5-3.3-49.1-4.9-73.8-5
					c-3-4-6-8-8.9-12c-1.1-1.4-2.1-3.3-1.3-4.8c0.8-1.5,2.9-1.6,4.6-1.3c7.1,1,13.8,4.5,18.6,9.9c-2.4-8-3.9-16-6.3-24.1
					c-0.3-1.1-0.7-2.3-0.3-3.4c0.5-1.5,2.4-2.2,4-1.9c1.6,0.3,3,1.3,4.2,2.3c7.6,6.4,13.4,15,16.6,24.4c1.1-3.2,2.8-6,3.9-9.2
					c0.5-1.5,1.1-3.1,2.5-3.9c1.2-0.6,2.6-0.5,3.8,0.1c1.2,0.6,2.1,1.6,2.9,2.7c2.6,3.7,3.6,8.4,2.9,12.8
					c3.1-6.8,7.3-13.1,12.3-18.6c1.2-1.4,2.6-2.8,4.2-3.7c1.7-0.9,3.7-1.2,5.4-0.5c2.2,1,3.4,3.4,4.1,5.8c1.9,6.7,1.4,14.1-1.5,20.4
					c3.1-2.5,6.8-4,10.7-5c1.1-0.3,2.4-0.4,3.2,0.4C316.9,278.5,316.9,279.7,316.5,280.6L316.5,280.6z"/>
			</g>
			<path class="st6" d="M35,270c0,2.4-1.3,4.6-2.6,6.6c-2.7,4-7.6,6.7-11.4,9.7c-1.6,0-3.3,0.1-4.9,0.1c-5.1,0.2-10.2,0.6-15.3,1.2
				c-1.5,0.2-3.1,0.4-4.6,0.6c-6.4-2.4-13.1-5.2-19.5-7.5c-1.1-0.4-2.3-0.9-3.3-1.6c-1-0.7-1.7-1.9-1.7-3.1c0-2.2,2.2-3.6,4.3-4.3
				c6-1.9,12.9-0.7,17.9,3.2c-4.9-3.9-8.8-8.6-12.2-13.9c-1.2-1.9-2.3-3.9-2.7-6.1c-0.4-2.2,0-4.6,1.4-6.3c2.6-3,7.4-2.6,10.9-0.9
				C-1.4,251.2,3,258.5,7,265.5c-0.3-7.5,0.1-15.5,4.2-21.9c1.8-2.8,4.6-5.4,7.9-5.1c2.1,0.2,3.9,1.5,5.1,3.2
				c1.2,1.7,1.8,3.8,2.2,5.8c1.5,7.2,0.9,14.9-1.8,21.8c0.7-1.3,1.6-2.5,2.7-3.5c1.1-0.9,2.6-1.5,4-1.3C33.6,265,35.1,267.6,35,270z
				"/>
			<g>
				<path class="st7" d="M27.1,275.2c0,0.9-0.7,1.6-1.4,2.2l-9.6,9.1c-5.1,0.2-10.2,0.6-15.3,1.2c-4.9-2.2-9.8-4.5-14.6-6.8
					c-1-0.5-2.1-1.1-2.1-2.2c0-0.6,0.5-1.2,1.1-1.5c0.6-0.3,1.2-0.4,1.9-0.4c5.1-0.3,10.3,1.2,14.5,4.3c-3.5-5.3-6.7-10.7-10.2-15.9
					c-0.8-1.2-1.6-2.7-1-4c0.5-1,1.6-1.5,2.7-1.6c2.3-0.2,4.4,1.2,6.3,2.6c5,3.8,9.2,8.6,12.5,14c0.2-5.9,1.3-11.9,2.8-17.6
					c0.3-1.1,0.6-2.2,1.2-3.1c0.7-0.9,1.7-1.6,2.8-1.5c1.9,0.2,2.8,2.4,3.1,4.4c0.9,6.4-0.8,12.9-2.6,19.1c1-0.7,1.7-1.8,2.5-2.6
					c0.8-0.8,1.9-1.6,3.1-1.7C25.9,273,27.2,274,27.1,275.2z"/>
			</g>
			<path class="st6" d="M186.2,264.7c-2.1,6.9-13.2,10.6-16.5,17h-4.6c-21.9,0-43.8,0-65.7,0h-4.1c-2.2-1.6-5.6-3-7.7-4.7
				c-1.5-1.1-3.2-2.8-2.5-4.5c0.5-1.4,2.2-2,3.7-2c3.1-0.2,6.3,0.8,8.7,2.8c-4.2-4.1-7.6-8.7-10.8-13.6c-1.7-2.5-3.3-5.4-2.8-8.3
				c0.7-4.2,5.3-6.5,9.5-6.8c6-0.4,12,2.1,16.7,6c4.7,3.9,8.2,9,11.2,14.2c-0.6-3.2,2-6.3,5.2-6.4c3.3-0.1,6.2,3.1,5.9,6.4
				c1.5-8.6,7.3-16.4,14.8-20.8c1.5-0.8,3-1.6,4.7-1.8s3.5,0.3,4.6,1.6c1.3,1.4,1.4,3.5,1.4,5.4c-0.1,5.9-1.7,11.8-4.5,17
				c1.3-1.5,3.7-2.2,5.5-1.4c2.3,1,3.4,4.2,2.1,6.4c4.2-5.3,10.1-9.2,16-12.3c2.3-1.2,5.1-2.2,7.3-0.8
				C186.5,259.2,187,262.3,186.2,264.7z"/>
			<g>
				<path class="st7" d="M175.5,270.3c-0.4,1.1-1.4,1.9-2.2,2.6c-2.9,2.7-5.6,5.6-8.1,8.8c-21.9,0-43.8,0-65.7,0
					c-0.8-0.9-1.5-1.8-2.3-2.8c-0.4-0.5-0.8-1-0.8-1.7c0.1-1,1.3-1.5,2.3-1.7c2.7-0.4,5.6,0.4,7.8,2c-3.1-4.1-6.3-8.3-7.7-13.3
					c-0.5-1.8-0.7-4,0.7-5.2c1.6-1.4,4.1-0.5,6,0.6c6.4,3.8,11.8,9.5,15.3,16.1c-0.8-2.7,0.3-5.6,2.7-7.2c2.3-1.6,5.7-1.5,7.9,0.2
					c1.8,1.4,2.8,3.8,2.6,6.1c1.3-5.5,4.3-11.2,8.3-15.1c0.7-0.7,1.5-1.4,2.5-1.8c1-0.4,2.1-0.4,3,0.1c1.3,0.8,1.5,2.6,1.5,4.2
					c0.1,5-0.9,10-2.9,14.6c1.3-1.8,2.6-3.2,4.4-4.4c1.2-0.8,2.8-1.5,4.1-0.9c1.1,0.5,1.6,1.8,1.6,3c0,1.2-0.5,2.3-0.9,3.4
					c4.9-4,10-7.3,15.6-10.4c1.1-0.6,2.5-1.2,3.6-0.5C175.7,267.8,175.9,269.2,175.5,270.3z"/>
			</g>
			<path class="st6" d="M465.7,282.6c-2.8,6.7-14.1,9.3-17.9,15.4l-4.6-0.4c-21.8-2-43.6-4-65.4-6l-4.1-0.4c-2-1.8-5.3-3.5-7.3-5.4
				c-1.4-1.2-2.9-3.1-2.1-4.8c0.6-1.4,2.4-1.7,3.8-1.7c3.1,0.1,6.2,1.4,8.4,3.6c-3.8-4.5-6.7-9.4-9.5-14.6c-1.4-2.6-2.8-5.7-2-8.6
				c1.1-4.1,5.9-6,10.1-5.9c6.1,0.1,11.8,3.2,16.1,7.5c4.3,4.3,7.3,9.7,9.9,15.2c-0.3-3.3,2.5-6.1,5.8-5.9c3.3,0.2,5.9,3.7,5.3,6.9
				c2.2-8.4,8.8-15.7,16.6-19.4c1.5-0.7,3.1-1.3,4.8-1.3s3.4,0.6,4.4,2c1.1,1.5,1.1,3.6,0.9,5.5c-0.7,5.9-2.8,11.6-6.1,16.5
				c1.4-1.4,3.9-1.8,5.6-0.9c2.2,1.2,3,4.5,1.5,6.6c4.6-4.9,10.9-8.2,17.1-10.8c2.4-1,5.3-1.7,7.4-0.2
				C466.5,277.1,466.7,280.2,465.7,282.6z"/>
			<path class="st8" d="M576.4,319.6v65.2h-776c0-20.1,0.8-42.7,1.1-63.9c0.1-5.8,0.1-11.5,0.1-17c256.5-37.7,518.9-34.8,774.6,8.5
				C576.3,315.1,576.4,316.9,576.4,319.6z"/>
			<g>
				<path class="st9" d="M576.4,319.6v3.3c-0.4,0.2-0.8,0.5-1.3,0.7c-17.2,7.7-37.1,6.6-55.4,2c-18.3-4.6-35.5-12.5-53.4-18.5
					c-17.9-6-39.4-15.4-56.6-7.9c-42.4,18.3-62,14.1-93.2,7.3c-31.2-6.8-62.6-17.3-94.4-14c-38.2,4-72,27.3-109.9,33.9
					c-39.6,6.9-79.7-5-118.6-15.2c-38.9-10.2-80.6-18.7-118.6-5.4c-13.4,4.7-25.8,12-39.4,15.9c-11.1,3.2-23.8,3.9-34.1-0.8
					c0.1-5.8,0.1-11.5,0.1-17c256.5-37.7,518.9-34.8,774.6,8.5C576.3,315.1,576.4,316.9,576.4,319.6z"/>
			</g>
		</g>
	</g>
	<path class="st10" d="M308.5,116.5c-0.8-0.8-1.7-1.6-2.3-2.5c-0.8-1.4-0.7-3.1-0.9-4.7c-0.4-4.1-2.5-7.9-4.6-11.5
		c-1.2-2.1-2.6-4.4-4.9-5.2c-1.5-0.5-3.1-0.3-4.7-0.7c-2.3-0.5-4.1-2.2-6.3-3.1c-4.2-1.6-8-0.4-10.6,0.4c-2.6,0.8-4.3,3.1-5,5.1
		c-0.7,2-1.2,4.2-2.8,5.6c-1.9,1.7-4.9,2-6.4,4.1c-1,1.5-0.9,3.5-0.7,5.3c0.1,1.8,0.1,3.9-1.2,5.2c-1,1.1-2.7,1.4-3.6,2.6
		c-1.3,1.7-0.2,4.5,1.8,5.4c2,0.9,4.3,0.6,6.4-0.2c2.1-0.8,4.5-2,6.5-1c1.2,0.6,2,1.8,3.2,2.5c1.7,0.9,3.8,0.5,5.6-0.3
		c1.8-0.7,3.5-1.7,5.5-1.7c3.8-0.1,7.1,3.4,10.8,2.8c2-0.3,3.6-1.8,5.6-2.3c1.8-0.4,3.7,0.2,5.6,0.2c1.9,0,4.1-1,4.3-2.9
		C310,118.4,309.3,117.3,308.5,116.5L308.5,116.5z"/>
	<path class="st11" d="M276.9,138.4c-0.9-3.2-4.2-5-7.4-4.1l-0.3,0.1c-0.3,0.1-0.6,0.2-0.9,0.3c-0.4,0.1-0.5,0.2-0.6,0.2l-0.4,0.2
		c-0.5,0.2-0.9,0.5-1.3,0.7c-0.8,0.4-1.5,0.9-2.3,1.3c-1.4,0.9-2.8,1.7-4.2,2.6c-2.7,1.8-5.3,3.6-7.9,5.4c-5.1,3.5-10,7.1-15,10.6
		c-2.3,0.7-4.6,1.3-6.9,2.1c-1.3,0.4-2.6,0.9-4,1.4l-4,1.4c-2.6,0.9-5.3,1.9-7.9,2.7c-0.7,0.2-1.3,0.4-2,0.6
		c-0.7,0.1-1.4,0.2-2.1,0.2c-0.7,0-1.4,0.1-2.1,0.3c-0.7,0.2-1.3,0.5-1.9,1.1c-1,1.1-1,2.8,0.1,3.8c0.3,0.2,0.6,0.4,0.9,0.6
		c0.8,0.3,1.5,0.3,2.2,0.2c0.7-0.1,1.3-0.3,2-0.6c0.6-0.3,1.3-0.6,2-0.7c0.7-0.1,1.4-0.2,2.1-0.3c2.8-0.4,5.5-0.7,8.3-1l4.2-0.4
		c1.4-0.2,2.8-0.3,4.2-0.5c2.8-0.3,5.5-0.8,8.3-1.2c0.4-0.1,0.8-0.2,1.2-0.4l0.4-0.3c2.8-1.6,5.5-3.3,8.2-4.9c2.7-1.6,5.4-3.3,8.1-5
		l8-4.9c1.3-0.8,2.6-1.6,3.9-2.4l1.9-1c0.3-0.2,0.6-0.3,0.8-0.4l0.1-0.1c0,0,0,0,0,0h0C275.9,144.8,277.8,141.6,276.9,138.4
		L276.9,138.4z M272.6,145.8c-0.1,0-0.2,0.1-0.3,0.1L272.6,145.8L272.6,145.8C272.7,145.7,272.7,145.7,272.6,145.8L272.6,145.8z"/>
	<path class="st11" d="M298.3,132.8c-7.2-0.1-9.4-4.8-10.2-8.5h-4.5l-0.1,0.1l-6.2,0.2c0,0,1.1,8.2-8.2,8.5c-1.4,0-4.5,9.5-4.5,9.5
		h42.8C307.5,142.5,301.7,132.8,298.3,132.8L298.3,132.8z"/>
	<path class="st10" d="M277.4,304.5l0.6,7.8c0,2.2-1.8,4-4.1,4l-13.5-0.1c-1.2,0-2-1.2-1.6-2.3c0.2-0.6,0.8-1.1,1.5-1.1l1.2,0
		c4.2-0.1,8.5-2.9,9.4-7L277.4,304.5z"/>
	<path class="st11" d="M282.9,188.5c-5.5-1.9-11.3-0.3-15,3.7c-1.6,6.9-2.5,13.9-2.3,21c0,0.6-0.2,1.1-0.6,1.4
		c0.1,1.5,0.2,3.1,0.2,4.9c0.1,2.4,0.2,5.1,0.3,7.9c0.1,2.8,0.2,5.8,0.2,8.8c0.1,3.1,0.2,6.2,0.2,9.5c0,1.6,0.1,3.3,0.1,4.9l0.1,2.7
		c0,0.5,0.1,0.8,0.1,1.2l0,0.3v0c0,0,0,0.4,0,0.2v0.1l0,0.2l0.1,0.8c0.3,2,0.6,3.7,0.8,5.3c0.2,1.7,0.5,3.2,0.6,4.8
		c0.3,3.1,0.6,6.1,0.8,8.8c0.1,0.6,0.1,1.3,0.2,1.9c0.1,0.7,0.1,1.4,0.2,2.1c0.1,1.4,0.2,2.8,0.2,4.1c0.1,2.7,0.3,5.3,0.4,7.7
		c0.2,2.4,0.3,4.6,0.5,6.6c0.1,2,0.3,3.7,0.4,5.1c0.3,2.8,0.5,4.4,0.5,4.4c0.2,1.8,1.9,3,3.6,2.7c1.3-0.2,2.4-1.2,2.7-2.4
		c0,0,0.4-1.6,1-4.4c0.3-1.4,0.6-3.1,0.9-5.1c0.3-2,0.6-4.2,1-6.6c0.3-2.4,0.6-5.1,0.9-7.9c0.1-1.4,0.2-2.9,0.3-4.4l0-0.6l0-0.7
		l0-1.1c0-0.8,0-1.8-0.1-2.6c-0.2-3.3-0.8-6.5-1.4-9.6c-0.3-1.6-0.5-3.1-0.7-4.7c-0.2-1.5-0.3-3.1-0.2-4.3l0-0.4v-0.1l0-0.1
		c0-0.2,0,0.2,0,0.2v0l0-0.3c0.1-0.4,0.1-0.8,0.2-1.2l0.4-2.1c0.3-1.6,0.6-3.1,0.9-4.6c0.6-3.1,1.4-6.1,2-9.1c0.7-3,1.4-5.8,2.1-8.5
		c0.7-2.7,1.4-5.3,2-7.6c1.3-4.7,2.5-8.6,3.3-11.3c0.4-1.4,0.8-2.4,1-3.1c0.2-0.7,0.4-1.1,0.4-1.1
		C294.1,199.1,290.2,191,282.9,188.5L282.9,188.5z"/>
	<path class="st10" d="M304.5,304.9l0.6,7.1c0,2.2-1.8,4.1-4,4.1l-13.5,0.2c-1.2,0-2-1.1-1.6-2.2c0.2-0.6,0.8-1.1,1.5-1.1l1.2,0
		c4.2-0.1,8.3-3.1,9.1-7.3L304.5,304.9L304.5,304.9z"/>
	<path class="st11" d="M305.9,278.4l0-0.6l-0.1-1.8c-0.1-0.8-0.2-1.7-0.3-2.5c-0.5-3.2-1.4-6.2-2.2-9.3c-0.4-1.5-0.8-3.1-1.1-4.6
		c-0.3-1.5-0.5-3-0.5-4.3c0.1-3.1,0.1-6.3,0.2-9.4c0-3.2,0.2-6.3,0.3-9.3c0.1-3,0.3-5.9,0.4-8.7c0-0.7,0.1-1.4,0.1-2.1h-20.3
		c0.3,1.2,0.6,2.4,0.8,3.7c0.6,2.7,1.3,5.6,1.9,8.6c0.6,3,1.3,6,1.9,9.2c0.6,3.2,1.3,6.5,1.9,9.7c0.4,1.9,0.8,3.5,1.2,5.2
		c0.4,1.6,0.7,3.2,1,4.8c0.6,3.1,1.1,6.1,1.7,8.9c0.1,0.7,0.3,1.3,0.4,1.9c0.1,0.7,0.3,1.3,0.4,2c0.3,1.3,0.5,2.7,0.7,4
		c0.4,2.7,0.8,5.2,1.1,7.6c0.7,4.7,1.4,8.7,1.9,11.5c0.5,2.8,0.9,4.4,0.9,4.4c0.8,1.8,2,2.9,3.8,2.5c1.3-0.3,2.2-1.3,2.5-2.6
		c0,0,0.3-1.6,0.6-4.5c0.2-1.4,0.4-3.1,0.5-5.1c0.2-2,0.3-4.2,0.4-6.7c0.1-2.5,0.2-5.1,0.1-8C306.1,281.4,306,279.9,305.9,278.4z"/>
	<path class="st12" d="M306.5,135.5c-4.4-3.3-10.4-2.9-10.4-2.9s-2.6,7.3-12.2,7.5c-9.6-0.1-12.2-7.5-12.2-7.5s-4.9-0.5-8.8,3.3
		c-3.9,3.9-7.6,6.7-7.6,6.7l6.6,9.8l6-3.7c0,0-1.3,4.1-0.3,7s3.3,17.6,2.4,23.8c0,0,3.6,4.2,14,4.2c10.4,0,17.2-3.6,17.2-3.6
		c-0.9-6.2,2-30.3,2-30.3l3.8,1.8l5.3-12C312.1,139.6,308.4,136.9,306.5,135.5L306.5,135.5z"/>
	<path class="st13" d="M269.6,179.7c-0.8-0.3-5.4,18.3-5.5,40.4c-0.1,21.8,0,31.9,1.6,38.6c1.6,6.7,3.6,37.8,3.6,37.8
		s7.8,2.1,11.5,0.3c0,0,2.1-28.5-0.8-39.1l3.6-22.5l11.7,60.6c0,0,8.3,2.3,11.5,0.3c0,0,0.3-17.6-2.3-31.9
		c-2.6-14.2-2.1-22.8-0.8-38.1c1.3-15.3,8-29.4-2.8-45.9C301,180.1,286.9,185.9,269.6,179.7z"/>
	<path class="st11" d="M330.8,158c-0.4-1-0.8-1.9-1.2-2.7c-0.9-1.5-1.9-2.8-2.8-3.9c-1.9-2.2-3.9-4-5.9-5.6
		c-1.9-1.6-7.9-5.3-8.9-5.9c-1.7,3.9-3.4,7.2-4.9,11.2c2,1.2,4.3,2.8,6.4,4.2c1.8,1.2,3.5,2.6,4.9,3.9c0.7,0.7,1.3,1.4,1.8,1.9
		c0.2,0.3,0.4,0.5,0.4,0.6c0.1,0.1,0.1,0.1,0.1-0.1c0.1,0.1,0,1-0.3,1.9c-0.3,0.9-0.6,1.9-1,3c-0.8,2.1-1.8,4.2-2.8,6.2
		c-1,2-2.1,4-3.1,5.8c-1,1.8-2.1,3.5-3.1,5.1c-0.5,0.8-1,1.5-1.5,2.2c-0.5,0.7-0.9,1.4-1.5,1.9c-1.1,1.1-2.1,1.9-2.8,2.7
		c-0.7,0.8-1.1,1.6-1.3,2.2c-0.2,0.6-0.3,0.9-0.3,0.9l0,0.2c0,0.4,0,0.8,0.1,1.1c0.5,1.5,2.1,2.3,3.6,1.9c0,0,0.4-0.1,0.9-0.5
		c0.5-0.3,1.2-0.9,1.9-1.7c0.7-0.8,1.3-2.1,2.1-3.4c0.4-0.7,1-1.3,1.5-1.9c0.6-0.7,1.2-1.3,1.8-2c1.3-1.4,2.6-3,4.1-4.6
		c1.4-1.7,2.9-3.4,4.4-5.4c1.5-1.9,3-4,4.4-6.3c0.7-1.2,1.4-2.4,2-3.8c0.3-0.7,0.6-1.5,0.8-2.3c0.1-0.4,0.2-0.9,0.3-1.4l0.1-0.5
		l0.1-0.4l0-0.2l0-0.1c0,0.1,0-0.2,0-0.2v-0.2C331.5,160.3,331.2,159.1,330.8,158L330.8,158z"/>
	<path class="st14" d="M283.7,235.1c0,0-1.5-8.2-2.2-17.2c-0.6-7.8-1.1-15.5-3.4-17.5c0,0,4.5,37.2,3.9,44.6L283.7,235.1z"/>
	<path class="st15" d="M277.4,125.6c-0.2,0.7-0.3,2.7-0.8,3.5c3.6,4.2,9.3,3.7,12.7-1.3c-0.3-0.5-0.3-2.7-0.3-2.7L277.4,125.6
		L277.4,125.6z"/>
	<path class="st11" d="M269.6,105.2c0.8-8.3,6.9-13.1,12.9-13c6,0.1,12,5.1,12.6,13.4c0.3,4.9-0.7,10.1-1.5,13.2
		c-0.5,1.8-1.3,3.4-2.5,4.7c-2.7,3-6.3,5.3-9,5.3s-6.3-2.5-8.9-5.6c-1.2-1.3-2-3-2.4-4.8C270,115.3,269.1,110.1,269.6,105.2
		L269.6,105.2z"/>
	<path class="st10" d="M276.4,111.9c0,0.6-0.5,1.1-1.1,1.1s-1.1-0.5-1.1-1.1c0-0.6,0.5-1.1,1.1-1.1S276.4,111.3,276.4,111.9z"/>
	<path class="st16" d="M277.8,116.7c0,1-1.1,1.9-2.4,1.9c-1.3,0-2.4-0.8-2.4-1.9c0-1,1.1-1.9,2.4-1.9
		C276.7,114.8,277.8,115.7,277.8,116.7z"/>
	<path class="st10" d="M287,111.9c0,0.6,0.5,1.1,1.1,1.1c0.6,0,1.1-0.5,1.1-1.1c0-0.6-0.5-1.1-1.1-1.1
		C287.6,110.8,287,111.3,287,111.9z"/>
	<path class="st16" d="M285.7,116.7c0,1,1.1,1.9,2.4,1.9c1.3,0,2.4-0.8,2.4-1.9c0-1-1.1-1.9-2.4-1.9
		C286.7,114.8,285.7,115.7,285.7,116.7z"/>
	<path class="st17" d="M285,120c0.5,0,0.8,0.5,0.5,0.9c-0.8,1.1-2,1.8-3.5,1.8c-1.5,0-2.7-0.7-3.5-1.8c-0.3-0.4,0-1,0.5-1H285z"/>
	<path class="st10" d="M291.5,106.4c0.4,0.1,0.7,0,1.1,0.2c0.9,0.3,1.1,1.5,1.1,2.4c0,0.9-0.2,2,0.4,2.7c0.7,0.9,2.2,0.7,3,0
		c0.8-0.8,1.1-1.9,1.3-3c0.6-5-1.8-10.3-6-13.1c-1.1-0.8-4.3-2-5.1-0.1c-0.4,0.9,0.6,1.6,1.2,2.2c1,1.1,1.6,2.1,1.5,3.6
		C289.8,102.8,289.1,105.8,291.5,106.4L291.5,106.4z"/>
	<path class="st10" d="M284,101.3c-0.8,0.1-1.6,0-2.4,0.3c-1.1,0.4-1.6,1.5-2.3,2.5c-0.6,0.9-1.6,1.9-2.7,1.7
		c-0.5-0.1-0.9-0.4-1.4-0.4c-0.7,0-1.3,0.4-1.6,1c-0.4,0.6-0.6,1.2-0.8,1.8c-0.5,1-1.2,1.9-2.2,2.3c-1,0.5-2.2,0.4-3.1-0.3
		c-0.8-0.7-1.1-1.8-1.1-2.8c0.1-1,0.5-2,0.9-3c1-2.1,2-4.2,3.2-6.3c1.3-2.3,2.8-4.7,5.2-6c2.6-1.4,5.7-1.3,8.6-1.2
		c2.4,0.1,7.5,1.1,6.1,4.8c-0.4,1.1-1.7,2.5-2.4,3.4C287,100.3,285.6,101.2,284,101.3L284,101.3z"/>
	<path class="st18" d="M70.1,87.5c-3.2,3.5-2.2,8.8-2.6,13.5c-0.6,6.1-4.2,11.8-9.4,15c-2.3,1.4-5,2.4-6.7,4.5
		c-1.6,1.9-2.1,4.6-1.4,6.9c0.7,2.4,2.7,4.3,5,5c1.4,0.4,3,0.5,4,1.5c1.1,1,1.2,2.7,1.9,4c1.7,3.2,6.3,3.7,9.5,2
		c3.1-1.7,5.1-5,6.7-8.2c4.2-8.6,6.9-13.9,8.4-23.4c1.1-6.9,2.9-17.1-3.6-21.4C78.3,84.6,73.1,84.2,70.1,87.5L70.1,87.5z"/>
	<path class="st19" d="M69.2,91.7c5.1,0,10.1-1,15.1-0.8c-4.5-3.1-11.2-4.6-14.7,0.3C69.5,91.5,69.3,91.6,69.2,91.7
		C69.2,91.8,69.2,91.8,69.2,91.7L69.2,91.7z"/>
	<path class="st19" d="M63.6,305.6l-0.2,5.9c-0.1,2.2,1.7,4.1,3.9,4.2l13.4,0.4c1.2,0,2-1.1,1.6-2.2c-0.2-0.6-0.8-1.1-1.5-1.1
		l-1.2-0.1c-4.2-0.2-7.7-3.3-8.4-7.4L63.6,305.6L63.6,305.6z"/>
	<path class="st19" d="M64.4,311.6c0,0-0.4-1.7-1-4.6c-0.3-1.5-0.6-3.2-0.9-5.3c-0.2-1-0.3-2.1-0.5-3.3c-0.2-1.2-0.3-2.4-0.5-3.6
		c-0.3-2.5-0.6-5.3-0.9-8.2c-0.2-3-0.4-6-0.4-9.5c0-1.5,0.1-3.4,0.2-5c0.2-1.7,0.4-3.4,0.7-5.1c0.6-3.3,1.3-6.7,1.4-9.8
		c0-0.7,0-1.5,0-2.1l0-0.5v0c0-0.3,0-0.1,0-0.2v-0.1l0-0.2l0-0.3l0-1.6c0-1.8,0-3.5,0-5.2c0-3.4,0-6.7,0-9.8
		c0-6.4-0.1-12.3-0.4-17.3c-0.1-2.5-0.2-4.8-0.4-6.8c-0.2-2-0.3-3.7-0.5-5c-0.2-1.3-0.4-2.2-0.6-2.5c0,0-0.1-0.1-0.1-0.1
		c0-0.1,0,0.1,0,0.1c0,0.1,0,0.1,0,0.1c0,0.2,0,0.3,0,0.3c-0.9-7.5,4.4-14.3,12-15.3c7.6-0.9,14.4,4.4,15.4,11.9c0,0,0,0.3,0,0.9
		c0,0.1,0,0.3,0,0.5c0,0.2,0,0.4,0,0.5c0,0.3-0.1,0.6-0.1,0.9c-0.2,1.3-0.5,2.7-0.8,4.3c-0.4,1.6-0.9,3.5-1.4,5.6
		c-0.6,2.1-1.2,4.4-1.9,6.9c-1.4,5-2.9,10.8-4.5,16.9c-0.8,3.1-1.5,6.3-2.3,9.4c-0.4,1.6-0.7,3.2-1,4.7l-0.1,0.5l-0.1,0.4l0,0.3
		l0,0.2v0.1c0-0.1,0,0.2,0-0.1v0.1l-0.1,0.8c-0.1,1.1-0.3,2-0.4,2.9c-0.3,1.8-0.6,3.5-0.8,5.2c-0.2,1.7-0.4,3.3-0.5,4.9
		c-0.1,1.6-0.3,3.1-0.4,4.7c-0.1,1.6-0.3,2.9-0.5,4.5c-0.1,1.4-0.3,2.9-0.4,4.3c-0.1,1.5-0.2,2.9-0.3,4.3c-0.1,2.8-0.3,5.5-0.4,8
		c-0.1,1.2-0.1,2.5-0.2,3.6c-0.1,1.1-0.1,2.2-0.2,3.3c-0.1,2,0.2,3.8,0.1,5.3c-0.2,2.9,0,4.6,0,4.6c-0.9,1.8-2.1,3-3.9,2.8
		C66.3,313.9,64.8,312.9,64.4,311.6L64.4,311.6z"/>
	<path class="st10" d="M82.4,313.8c-0.2-0.6-0.8-1.1-1.5-1.1l-1.2-0.1c-3.3-0.2-6.2-2.2-7.6-5.1c-0.8,1.8-2.6,3.3-5.1,3.3
		c-1.5,0-2.7-0.5-3.5-1.3l-0.1,1.9c-0.1,2.2,1.7,4.1,3.9,4.2l13.4,0.4C81.9,316.1,82.7,314.9,82.4,313.8z"/>
	<path class="st19" d="M62.3,132.4c9.3-0.3,8.5-8.1,8.5-8.1l6.2-0.2l6.2,0.2c0,0-0.8,7.9,8.5,8.1c3,0.1,9.1,9.9,9.1,9.9H58.1
		C58.1,142.3,60.9,132.5,62.3,132.4z"/>
	<path class="st20" d="M83.5,126.7c0.2,0.7,0.5,1.5,0.9,2.3c-2.9,6.3-11,7.1-14.6-0.4c0.3-0.5,0.5-1.2,0.6-1.9H83.5L83.5,126.7z"/>
	<path class="st19" d="M90.3,105.3c-0.8-8.4-7-13.2-13-13.1c-6.1,0.1-12.1,5.1-12.7,13.5c-0.3,4.9,0.7,10.2,1.5,13.3
		c0.5,1.8,1.3,3.5,2.5,4.8c2.7,3,6.3,5.4,9.1,5.3c2.8,0,6.3-2.5,9-5.6c1.2-1.3,2-3,2.4-4.8C89.8,115.5,90.8,110.2,90.3,105.3
		L90.3,105.3z"/>
	<path class="st19" d="M101.4,140.7c0,0,0.3,1,0.9,2.8c0.6,1.8,1.4,4.3,2.5,7.3c1,3,2.3,6.4,3.8,9.9c0.7,1.7,1.6,3.5,2.4,5
		c0.4,0.7,0.9,1.4,1.2,1.9c0.2,0.2,0.3,0.4,0.3,0.3c0,0-0.1-0.1-0.3-0.1l-0.1,0h0l0,0c-0.5-0.1-0.1,0-0.2-0.1l0.2,0.1
		c0,0-0.6-0.1-0.5-0.1c-0.3,0-0.1,0.1,0.1,0c0.2,0,0.6-0.1,0.9-0.2c0.7-0.2,1.6-0.5,2.4-0.9c1.7-0.8,3.4-1.7,5-2.6
		c1.6-1,3.2-2,4.6-3.1c0.7-0.5,1.4-1.1,2-1.6c0.6-0.5,1.2-1.1,1.8-1.6c1.1-1.1,2-2.1,2.7-3.1c0.6-1,0.8-2.1,1.1-2.8
		c0.3-0.7,0.6-1.2,0.9-1.5c0.3-0.3,0.5-0.5,0.5-0.5l0.6-0.4c1.1-0.8,2.7-0.5,3.5,0.6c0.1,0.2,0.2,0.4,0.3,0.6c0,0,0,0.1,0.1,0.3
		c0,0.2,0.1,0.4,0.1,0.8c0,0.7-0.1,1.6-0.6,2.6c-0.5,1-1.4,2-2.2,3.1c-0.7,1.2-1.6,2.6-2.6,4c-0.5,0.7-1,1.4-1.6,2.2
		c-0.6,0.7-1.2,1.5-1.8,2.3c-1.3,1.5-2.7,3.1-4.3,4.6c-1.6,1.5-3.3,3-5.4,4.4c-1,0.7-2.1,1.3-3.4,1.9c-0.7,0.3-1.3,0.6-2.2,0.8
		c-0.8,0.2-1.8,0.4-3.1,0.4c-0.2,0-1-0.1-1.3-0.2l-0.2,0c-0.1,0,0.3,0.1-0.3-0.1l-0.1,0l-0.4-0.1c-0.7-0.3-1.3-0.6-1.7-0.8
		c-1-0.6-1.6-1.2-2.2-1.8c-1.1-1.1-1.9-2.2-2.7-3.3c-1.4-2.1-2.5-4.1-3.5-6c-2-3.9-3.4-7.5-4.7-10.6c-1.2-3.1-2.1-5.7-2.7-7.5
		c-0.6-1.8-0.9-2.9-0.9-2.9c-1-3.1,0.7-6.5,3.8-7.5C97,135.9,100.4,137.6,101.4,140.7L101.4,140.7z"/>
	<path class="st19" d="M80.7,305.6l-0.2,5.9c-0.1,2.2,1.7,4.1,3.9,4.2l13.4,0.4c1.2,0,2-1.1,1.6-2.2c-0.2-0.6-0.8-1.1-1.5-1.1
		l-1.2-0.1c-4.2-0.2-7.7-3.3-8.4-7.4L80.7,305.6L80.7,305.6z"/>
	<path class="st19" d="M81.6,311.6c0,0-0.4-1.7-1-4.6c-0.3-1.5-0.6-3.2-0.9-5.3c-0.2-1-0.3-2.1-0.5-3.3c-0.2-1.2-0.3-2.4-0.5-3.6
		c-0.3-2.5-0.6-5.3-0.9-8.2c-0.2-3-0.4-6-0.4-9.5c0-1.5,0.1-3.4,0.2-5c0.2-1.7,0.4-3.4,0.7-5.1c0.6-3.3,1.3-6.7,1.4-9.8l0-1.1
		c0-0.3,0-0.7-0.1-1l0-0.5v-0.1c0,0.3,0,0.1,0,0.1v0l0-0.2l0-0.3c-0.1-0.4-0.1-0.8-0.2-1.2c-0.3-1.6-0.6-3.1-0.9-4.7
		c-0.6-3.2-1.3-6.4-1.9-9.5c-1.3-6.2-2.7-11.9-4-16.9c-0.3-1.2-0.6-2.4-0.9-3.5c-0.3-1.1-0.6-2.2-0.9-3.2c-0.5-2-1-3.7-1.5-5.1
		c-0.2-0.7-0.4-1.3-0.6-1.9c-0.2-0.5-0.3-1-0.4-1.3c-0.2-0.6-0.4-1-0.4-1c-2.7-7.3,1-15.4,8.3-18.1c7.3-2.7,15.5,0.9,18.2,8.2
		c0.7,1.9,1,3.9,0.9,5.8l0,0.7c0,0,0,0.5-0.1,1.4c-0.1,0.8-0.2,2-0.3,3.6c-0.1,1.5-0.3,3.3-0.4,5.4c-0.2,2.1-0.3,4.4-0.5,7
		c-0.3,5.1-0.6,11.1-0.9,17.4c-0.1,3.2-0.2,6.5-0.3,9.8c-0.1,1.8-0.1,3.5-0.2,5.3c0,0.5,0,0.9-0.1,1.3l0,0.3v0.2l0,0
		c0,0.1,0-0.1,0,0.2v0.1l-0.1,0.8c-0.1,1.1-0.3,2-0.4,2.9c-0.3,1.8-0.5,3.5-0.8,5.2c-0.2,1.7-0.4,3.3-0.5,4.9
		c-0.1,1.6-0.3,3.1-0.4,4.7c-0.2,1.6-0.3,2.9-0.5,4.5c-0.1,1.4-0.3,2.9-0.4,4.3c-0.1,1.5-0.2,2.9-0.3,4.3c-0.1,2.8-0.3,5.5-0.4,8
		c-0.1,1.2-0.1,2.5-0.2,3.6c-0.1,1.1-0.1,2.2-0.2,3.2c-0.1,2,0.2,3.8,0.1,5.3c-0.2,2.9,0.1,4.6,0.1,4.6c0,1.8-2.2,3-4,2.8
		C83.5,313.8,81.9,312.8,81.6,311.6L81.6,311.6z"/>
	<path class="st13" d="M105.3,153c-2.4-8.6-1.5-13.6-5.4-17.5c-3.9-3.8-10.7-3.5-10.7-3.5s-2.4,7.6-11.9,7.7
		c-9.6-0.1-12.1-7.7-12.1-7.7s-6.6-0.3-10.5,3.5c-3.9,3.8-3.5,9.6-5.9,18.2L60,156c0,0,3.3,16.1,2.5,22.3c0,0,4.4,3.5,14.8,3.5
		c10.4,0,17.4-2.2,17.4-2.2c-0.9-6.2,1.3-23.1,1.3-23.1L105.3,153L105.3,153z"/>
	<path class="st10" d="M99.5,313.8c-0.2-0.6-0.8-1.1-1.5-1.1l-1.2-0.1c-3.3-0.2-6.2-2.2-7.6-5.1c-0.8,1.8-2.6,3.3-5.1,3.3
		c-1.5,0-2.7-0.5-3.5-1.3l-0.1,1.9c-0.1,2.2,1.7,4.1,3.9,4.2l13.4,0.4C99,316.1,99.9,314.9,99.5,313.8z"/>
	<path class="st17" d="M51.1,269.5c6.7,3.7,15,4.3,22.2,1.5c2.7-1,5.5-2.5,8.2-1.7c2,0.6,3.4,2.3,5.2,3.1c6.2,2.9,13.5-3.7,20-1.5
		c-6.2-30.1-10.9-61.2-11.8-91.9l-32.4-0.7c0,0-9.1,25.6-7.2,47.3C57.4,247.4,51.1,269.5,51.1,269.5L51.1,269.5z"/>
	<path class="st19" d="M66.6,205.7c-0.1-0.4-0.3-0.9-0.6-1.4c-0.3-0.5-0.6-1-0.9-1.6c-0.3-0.6-0.5-1.2-0.7-1.9
		c-0.2-0.7-0.4-1.4-0.7-2.1c-0.5-1.4-1-3-1.5-4.7c-0.5-1.7-1.1-3.4-1.7-5.2c-0.6-1.8-1.2-3.7-1.9-5.5c-0.4-0.9-0.7-1.9-1.1-2.8
		l-0.6-1.4l-0.3-0.7l-0.1-0.2l0-0.1c0-0.1,0-0.1,0-0.2c-0.1-0.5-0.2-0.9-0.1-1.4c0-0.2,0-0.5,0.1-0.7c0,0,0.2-0.6,0.3-1.1
		c0.5-1.9,2.9-19,2.9-19l-10.6-2.1c0,0-0.1,2.2-0.3,3.5c-0.5,3-0.9,6.4-1.4,10.1c-0.2,1.9-0.5,3.8-0.7,5.7c-0.1,0.5-0.1,0.8-0.2,1.8
		c0,0.8,0,1.5,0,2.3c0.2,1.5,0.6,3,1.2,4.4c0.1,0.2,0.2,0.3,0.3,0.5l0.1,0.3l0.1,0.2l0.4,0.7l0.7,1.3c0.5,0.9,1,1.7,1.5,2.5
		c1,1.7,2,3.3,3,4.9c1.9,3.2,3.7,6.2,5,8.8c0.3,0.7,0.7,1.3,0.9,1.9c0.3,0.6,0.6,1.2,0.7,1.8c0.3,1.2,0.3,2.2,0.6,3
		c0.2,0.8,0.6,1.3,0.8,1.6c0.2,0.3,0.5,0.5,0.5,0.5l0.5,0.4c0.2,0.1,0.4,0.3,0.6,0.4c1.3,0.5,2.8-0.1,3.3-1.4c0,0,0.1-0.3,0.2-0.9
		C67,207.4,66.9,206.6,66.6,205.7L66.6,205.7z"/>
	<path class="st18" d="M75.4,102.8c-2.4,1.3-5.1,2.4-6.8,4.5c-2.5,2.9-2.5,7.1-2.8,10.9c-0.1,0.6-0.2,1.3-0.7,1.6
		c-0.8,0.4-1.7-0.4-1.8-1.3c-0.1-0.8-0.3-6.7-1.5-9.9c-1.4-3.6-1.2-9.5,1-12.6c2.2-3.1,4.8-5.4,8.5-6.2c2.6-0.6,5.6-0.6,7.8,1
		C85,94.6,79.5,100.5,75.4,102.8z"/>
	<path class="st18" d="M78.8,95.2c2.9,2.7,5.9,5.5,7.9,8.9c2.1,3.4,3.3,7.5,2.3,11.4c-0.2,0.7-0.4,1.4-0.2,2.1s1,1.3,1.6,0.9
		c0.5-0.3,0.6-0.9,0.7-1.4c0.4-3.2,0.9-6.4,1.3-9.7c0.4-3.1,0.8-6.3-0.2-9.2c-1-3-3.6-5.5-6.7-6.5c-3.1-1-6.6-0.4-9.2,1.5"/>
	<path class="st10" d="M72.3,111.8c0,0.6-0.5,1.1-1.1,1.1c-0.6,0-1.1-0.5-1.1-1.1c0-0.6,0.5-1.1,1.1-1.1
		C71.8,110.7,72.3,111.2,72.3,111.8z"/>
	<path class="st20" d="M73.7,116.6c0,1-1.1,1.9-2.4,1.9s-2.4-0.8-2.4-1.9c0-1,1.1-1.9,2.4-1.9S73.7,115.6,73.7,116.6z"/>
	<path class="st10" d="M83,111.8c0,0.6,0.5,1.1,1.1,1.1c0.6,0,1.1-0.5,1.1-1.1c0-0.6-0.5-1.1-1.1-1.1C83.5,110.7,83,111.2,83,111.8z
		"/>
	<path class="st20" d="M81.6,116.6c0,1,1.1,1.9,2.4,1.9c1.3,0,2.4-0.8,2.4-1.9c0-1-1.1-1.9-2.4-1.9
		C82.7,114.7,81.6,115.6,81.6,116.6z"/>
	<path class="st17" d="M81,119.9c0.5,0,0.8,0.5,0.5,0.9c-0.8,1.1-2,1.8-3.5,1.8c-1.5,0-2.7-0.7-3.5-1.8c-0.3-0.4,0-1,0.5-1H81z"/>
	<path class="st19" d="M231.3,305.9l0.2,5.8c0.1,2.2-1.7,4-3.9,4.1l-13.3,0.4c-1.2,0-2-1.1-1.6-2.2c0.2-0.6,0.8-1.1,1.5-1.1l1.2-0.1
		c4.2-0.2,7.6-3.3,8.3-7.4L231.3,305.9L231.3,305.9z"/>
	<path class="st19" d="M236.6,233.3c-0.5,2.1-1,4.2-1.4,6.4c-0.6,3.1-1.3,6.2-1.9,9.4c-0.3,1.5-0.6,3.1-0.8,4.6
		c-0.1,0.3-0.1,0.8-0.2,1.2l0,0.3l0,0.2v0c0-0.1,0,0.2,0-0.1v0.1l0,0.5c0,0.3,0,0.7-0.1,1l0,1.1c0.1,3,0.8,6.4,1.4,9.7
		c0.3,1.7,0.5,3.3,0.7,5c0.2,1.6,0.3,3.5,0.2,5c0,3.5-0.2,6.5-0.4,9.4c-0.2,2.9-0.5,5.7-0.9,8.2c-0.2,1.3-0.3,2.5-0.5,3.6
		c-0.2,1.1-0.3,2.2-0.5,3.2c-0.3,2-0.6,3.8-0.9,5.2c-0.6,2.9-0.9,4.6-0.9,4.6c-0.3,1.3-1.5,2.3-2.9,2.4c-1.7,0.2-2.8-1.1-3.6-2.8
		c0,0,0-1.7-0.3-4.6c-0.1-1.5-0.1-3.2-0.2-5.2c-0.1-1-0.1-2.1-0.2-3.2c-0.1-1.1-0.1-2.3-0.2-3.6c-0.1-2.5-0.3-5.1-0.4-8
		c-0.1-1.4-0.2-2.8-0.3-4.3c-0.1-1.4-0.2-2.9-0.4-4.3c-0.2-1.6-0.3-2.9-0.5-4.5c-0.1-1.5-0.3-3.1-0.4-4.6c-0.1-1.6-0.3-3.2-0.5-4.9
		c-0.2-1.7-0.5-3.3-0.7-5.2c-0.1-0.9-0.3-1.9-0.4-2.9l-0.1-0.8v-0.1c0-0.3,0-0.1,0-0.2v0l0-0.2l0-0.3c0-0.4-0.1-0.8-0.1-1.3
		c-0.1-1.8-0.1-3.5-0.2-5.3c-0.1-3.3-0.2-6.6-0.3-9.8c-0.1-3.5-0.3-6.9-0.5-10.1C223.7,231.3,230.3,232.9,236.6,233.3L236.6,233.3z"
		/>
	<path class="st20" d="M233.6,247.6c-2.9-5.3-5.5-10.7-8-16.2c3.6,1.1,7.3,1.8,11,2c-0.5,2.1-1,4.2-1.4,6.4
		C234.7,242.3,234.1,244.9,233.6,247.6L233.6,247.6z"/>
	<path class="st10" d="M212.6,314.1c0.2-0.6,0.8-1.1,1.5-1.1l1.2-0.1c3.3-0.2,6.2-2.2,7.6-5c0.8,1.8,2.5,3.3,5.1,3.3
		c1.5,0,2.7-0.5,3.5-1.3l0.1,1.9c0.1,2.2-1.7,4-3.9,4.1l-13.3,0.4C213.1,316.3,212.3,315.2,212.6,314.1z"/>
	<path class="st19" d="M248.3,305.9l0.2,5.8c0.1,2.2-1.7,4-3.9,4.1l-13.3,0.4c-1.2,0-2-1.1-1.6-2.2c0.2-0.6,0.8-1.1,1.5-1.1l1.2-0.1
		c4.2-0.2,7.6-3.3,8.3-7.4L248.3,305.9L248.3,305.9z"/>
	<path class="st19" d="M248.8,231.1c0.2,0,0.3-0.1,0.5-0.1c0,2.3-0.1,4.6-0.1,7.1c0,3.2,0,6.4,0,9.8c0,1.7,0,3.4,0,5.2l0,1.6l0,0.3
		v0.2l0,0.1c0,0.1,0-0.1,0,0.2v0l0,0.5c-0.1,0.6-0.1,1.3,0,2.1c0.1,3,0.8,6.4,1.4,9.7c0.3,1.7,0.5,3.3,0.7,5c0.2,1.6,0.3,3.5,0.2,5
		c0,3.5-0.2,6.5-0.4,9.4c-0.2,2.9-0.5,5.7-0.9,8.2c-0.2,1.3-0.3,2.5-0.5,3.6c-0.2,1.1-0.3,2.2-0.5,3.2c-0.3,2-0.6,3.8-0.9,5.3
		c-0.6,2.9-0.9,4.6-0.9,4.6c-0.3,1.3-1.5,2.3-2.9,2.4c-1.7,0.2-2.8-1.1-3.6-2.8c0,0,0-1.7-0.3-4.6c-0.1-1.5-0.1-3.2-0.2-5.3
		c-0.1-1-0.1-2.1-0.2-3.2c-0.1-1.1-0.1-2.3-0.2-3.6c-0.1-2.5-0.3-5.1-0.4-8c-0.1-1.4-0.2-2.8-0.3-4.3c-0.1-1.4-0.2-2.9-0.4-4.3
		c-0.2-1.6-0.3-2.9-0.5-4.5c-0.1-1.5-0.3-3.1-0.4-4.7c-0.1-1.6-0.3-3.2-0.5-4.9c-0.2-1.7-0.5-3.4-0.8-5.2c-0.1-0.9-0.3-1.9-0.4-2.9
		l-0.1-0.8v-0.1c0,0.3,0,0.1,0,0.1v-0.1l0-0.2l0-0.3l-0.1-0.4l-0.1-0.5c-0.3-1.5-0.6-3.1-1-4.7c-0.7-3.2-1.5-6.3-2.3-9.4
		c-1-3.8-1.9-7.4-2.8-10.8C236,231.6,242.7,232.2,248.8,231.1L248.8,231.1z"/>
	<path class="st10" d="M229.6,314.1c0.2-0.6,0.8-1.1,1.5-1.1l1.2-0.1c3.3-0.2,6.2-2.2,7.6-5c0.8,1.8,2.5,3.3,5.1,3.3
		c1.5,0,2.7-0.5,3.5-1.3l0.1,1.9c0.1,2.2-1.7,4-3.9,4.1l-13.3,0.4C230.1,316.3,229.2,315.2,229.6,314.1z"/>
	<path class="st17" d="M256,232.6c-4.2,4-32.8,6.6-43.3-2.1c-1.3-17.2,4.9-49.8,4.9-49.8l31.6-0.9c0,0,9,25.4,7.1,46.9
		C256.1,228.7,256,230.7,256,232.6L256,232.6z"/>
	<path class="st21" d="M216.6,118.9c1.2-5.3,5-9.9,10.1-11.8c4.4-1.7,9.5-1.3,13.8,0.6c4.3,1.9,13.6,17.6,11.2,23.5
		c-2.4,5.9-8.4,10.2-14.8,10.7c-6.4,0.5-12.9-2.6-16.8-7.7C216.8,129.9,215.4,124.2,216.6,118.9L216.6,118.9z"/>
	<path class="st19" d="M249.5,134.3c-9.2-0.3-8.4-8.1-8.4-8.1L235,126l-6.2,0.2c0,0,0.8,7.8-8.4,8.1c-3,0.1-9,9.8-9,9.8h42.3
		C253.7,144.1,250.9,134.4,249.5,134.3z"/>
	<path class="st20" d="M228.5,128.7c-0.2,0.7-0.5,1.5-0.9,2.3c2.9,6.2,10.9,7,14.5-0.4c-0.3-0.5-0.8-2.6-1-3.3L228.5,128.7
		L228.5,128.7z"/>
	<path class="st19" d="M221.7,107.3c0.8-8.3,6.9-13.1,12.9-13c6,0.1,12,5.1,12.6,13.4c0.3,4.9-0.7,10.1-1.5,13.2
		c-0.5,1.8-1.3,3.4-2.5,4.7c-2.7,3-6.3,5.3-9,5.3c-2.8,0-6.3-2.5-8.9-5.6c-1.2-1.3-2-3-2.4-4.8C222.2,117.5,221.3,112.2,221.7,107.3
		L221.7,107.3z"/>
	<path class="st19" d="M213.4,138c0,0-0.8,0.7-2.1,2c-1.4,1.3-3.3,3-5.6,5.1c-2.3,2.1-5.1,4.5-8.1,6.8c-1.5,1.1-3,2.3-4.5,3.2
		c-0.7,0.4-1.5,0.8-2,1c-0.2,0.1-0.4,0.2-0.4,0.2c0,0,0.1,0,0.3,0.1l0.1,0h0l0,0c0.5,0.1,0.1,0,0.2,0.1l-0.2,0c0,0,0.5,0.2,0.5,0.2
		c0.2,0.1,0.1,0.1-0.1,0c-0.2-0.1-0.4-0.4-0.7-0.6c-0.5-0.5-1.1-1.2-1.6-1.9c-1.1-1.5-2.1-3.1-3.1-4.7c-0.9-1.6-1.8-3.3-2.5-4.9
		c-0.4-0.8-0.7-1.6-1-2.3c-0.3-0.8-0.5-1.5-0.8-2.2c-0.4-1.4-0.7-2.8-0.9-4c-0.1-1.2,0.4-2.2,0.4-3c0.1-0.8,0.1-1.3,0-1.8
		c-0.1-0.4-0.2-0.7-0.2-0.7l-0.3-0.6c-0.6-1.2-2.1-1.7-3.3-1.2c-0.2,0.1-0.4,0.2-0.6,0.4c0,0-0.1,0.1-0.2,0.2
		c-0.1,0.1-0.3,0.3-0.4,0.6c-0.3,0.6-0.7,1.4-0.7,2.5c-0.1,1.1,0.3,2.4,0.4,3.8c0,1.4,0.1,3,0.3,4.7c0.1,0.8,0.2,1.7,0.3,2.6
		c0.1,0.9,0.3,1.9,0.5,2.8c0.4,1.9,0.9,3.9,1.5,6c0.6,2.1,1.4,4.2,2.5,6.4c0.6,1.1,1.2,2.2,2,3.3c0.4,0.6,0.9,1.1,1.5,1.7
		c0.6,0.6,1.3,1.2,2.5,1.8c0.2,0.1,0.9,0.4,1.2,0.5l0.2,0.1c0.1,0-0.3-0.1,0.3,0.1l0.1,0l0.1,0l0.3,0.1c0.7,0.1,1.4,0.1,1.9,0.1
		c1.1-0.1,2-0.3,2.8-0.5c1.5-0.4,2.7-1,3.9-1.6c2.2-1.1,4.2-2.3,6-3.5c3.6-2.4,6.6-4.8,9.2-6.9c2.5-2.1,4.6-3.9,6-5.2
		c1.4-1.3,2.2-2,2.2-2c2.4-2.2,2.5-5.9,0.3-8.3C219.6,135.9,215.9,135.8,213.4,138L213.4,138L213.4,138z"/>
	<path class="st10" d="M203.1,147.1c0,0,5.3-5.9,9.2-9.7c3.9-3.8,10.6-3.5,10.6-3.5s2.3,7.5,11.8,7.7c9.5-0.1,11.9-7.7,11.9-7.7
		s6.6-0.3,10.5,3.5c3.9,3.8,3.4,9.5,5.8,18.1l-11.1,2.2c0,0-3.4,16.3-2.6,22.4c0,0-4.2,3.2-14.6,3.2s-17.2-2.2-17.2-2.2
		c0.9-6.1-2.2-27.5-2.2-27.5l-4.4,2.2L203.1,147.1z"/>
	<path class="st19" d="M245.2,207c0.1-0.4,0.3-0.9,0.6-1.4c0.3-0.5,0.6-1,0.8-1.6c0.3-0.6,0.5-1.2,0.7-1.8c0.2-0.7,0.4-1.3,0.7-2.1
		c0.5-1.4,1-3,1.5-4.6c0.5-1.6,1.1-3.4,1.7-5.2c0.6-1.8,1.2-3.6,1.9-5.5c0.3-0.9,0.7-1.9,1-2.8l0.6-1.4l0.3-0.7l0.1-0.2l0-0.1
		c0-0.1,0-0.1,0-0.2c0.1-0.5,0.2-0.9,0.1-1.4c0-0.2,0-0.5-0.1-0.7c0,0-0.2-0.6-0.3-1.1c-0.5-1.9-2.8-18.9-2.8-18.9l10.6-2
		c0,0,0.1,2.2,0.3,3.4c0.4,2.9,0.9,6.4,1.4,10.1c0.2,1.8,0.5,3.7,0.7,5.7c0.1,0.5,0.1,0.8,0.2,1.8c0,0.8,0,1.5,0,2.3
		c-0.2,1.5-0.6,3-1.2,4.4c-0.1,0.2-0.2,0.3-0.3,0.5l-0.1,0.3l-0.1,0.2l-0.4,0.6l-0.7,1.3c-0.5,0.8-1,1.7-1.5,2.5c-1,1.7-2,3.3-3,4.9
		c-1.9,3.2-3.7,6.1-5,8.8c-0.3,0.7-0.6,1.3-0.9,1.9c-0.3,0.6-0.6,1.2-0.7,1.7c-0.3,1.2-0.3,2.2-0.6,2.9c-0.2,0.7-0.6,1.3-0.8,1.6
		c-0.2,0.3-0.5,0.5-0.5,0.5l-0.5,0.4c-0.2,0.1-0.4,0.3-0.6,0.4c-1.3,0.5-2.8-0.1-3.3-1.4c0,0-0.1-0.3-0.2-0.9
		C244.9,208.6,245,207.9,245.2,207L245.2,207z"/>
	<path class="st21" d="M233.9,105.3c1.8,0.9,3.8,1.4,5.5,2.3c1.8,0.9,3.4,2.4,3.9,4.3c0.5,2.2-0.8,4.8,0.3,6.7
		c1.2,2.2,4.6,2.4,6,4.6c1.3,2.1-0.1,4.8-2,6.4c-1.9,1.6-4.2,2.6-5.7,4.6c-1.6,2.1-1.9,5.2-0.6,7.6c1.3,2.4,3.9,3.9,6.6,3.8
		c3.7-0.2,6.8-3.3,8.1-6.7c1.3-3.5,1.1-7.3,0.9-11c-0.2-4.2-0.5-8.4-0.8-12.6c-0.4-6.5-1.1-13.4-4.8-18.7c-2.8-4-7.2-6.8-12-7.8
		c-3.8-0.7-12.9-0.6-13.5,4.2C225.5,97.8,229.8,103.3,233.9,105.3L233.9,105.3z"/>
	<path class="st21" d="M225.4,105.6c-2.2,4-5,7.9-5.1,12.4c0,3.3,1.4,6.3,2.7,9.3c1.3,3,2.5,6.2,2,9.5c-0.5,3.2-3.4,6.3-6.7,5.9
		c-2.2-0.3-4-2.1-4.9-4.2c-0.8-2.1-0.9-4.4-0.9-6.6c0-9.5,0.9-19.1,2.7-28.5c0.9-4.5,3.6-11.9,9.7-10.4
		C230.6,94.4,227.2,102.5,225.4,105.6z"/>
	<path class="st10" d="M228.5,114.1c0,0.6-0.5,1.1-1.1,1.1c-0.6,0-1.1-0.5-1.1-1.1c0-0.6,0.5-1.1,1.1-1.1
		C228,112.9,228.5,113.4,228.5,114.1z"/>
	<path class="st20" d="M229.9,118.8c0,1-1.1,1.9-2.4,1.9c-1.3,0-2.4-0.8-2.4-1.9c0-1,1.1-1.9,2.4-1.9
		C228.8,117,229.9,117.8,229.9,118.8z"/>
	<path class="st10" d="M239.2,114.1c0,0.6,0.5,1.1,1.1,1.1c0.6,0,1.1-0.5,1.1-1.1c0-0.6-0.5-1.1-1.1-1.1
		C239.7,112.9,239.2,113.4,239.2,114.1z"/>
	<path class="st20" d="M237.8,118.8c0,1,1.1,1.9,2.4,1.9c1.3,0,2.4-0.8,2.4-1.9c0-1-1.1-1.9-2.4-1.9
		C238.9,117,237.8,117.8,237.8,118.8z"/>
	<path class="st17" d="M237.2,122.2c0.5,0,0.8,0.5,0.5,0.9c-0.8,1.1-2,1.8-3.5,1.8c-1.5,0-2.7-0.7-3.5-1.8c-0.3-0.4,0-1,0.5-1H237.2
		z"/>
	<path class="st11" d="M189.2,140c-0.4-0.3-0.9-0.5-1.3-0.8l-2.1-1.3l-0.5-0.3l-1.2,0l-2.3,0c-1.6,0-3.1,0-4.7,0.1
		c-3.1,0.1-12.1,0.3-15.1,0.6c-2.1,0.2-6,0.9-6,0.9l-13.7-10.3c0,0,1.8-0.8,2.3-1c1-0.4,1.9-0.7,2.9-1c1-0.3,1.9-0.5,2.8-0.7
		c3.7-0.8,7.3-1.1,10.8-1.2c3.5-0.1,12.8,0,16.2,0.2c1.7,0.1,3.4,0.3,5.1,0.4l2.5,0.3l2.6,0.4l0.4,0.1c0.8,0.1,5.8-0.1,12.8,11.9
		C202.1,140.5,189.2,140,189.2,140L189.2,140z"/>
	<path class="st22" d="M151,159.3v22.5c0,0,0.1,0,0.1,0c0.9-0.3,1.6-1.1,2-2l0.1-0.4c1.3-3.8,2.6-7.6,3.8-11.5
		c0.6-1.9,1.2-3.9,1.7-5.8c0.1-0.3,0.1-0.5,0.2-0.8C156.3,160.7,153.6,160,151,159.3z"/>
	<path class="st23" d="M174.1,305.3l0.2,6c0.1,2.3-1.7,4.2-4,4.3l-16,0.4c-1.2,0-2.1-1.1-1.7-2.3c0.2-0.7,0.8-1.1,1.5-1.2l3.5-0.1
		c4.3-0.2,7.9-3.4,8.6-7.6L174.1,305.3L174.1,305.3z"/>
	<path class="st23" d="M164.6,295.3c-0.1-1.4-0.3-2.8-0.4-4.2c-0.2-2.3-0.4-4.7-0.6-7l12.2-2.6l-0.1,1.3l-0.6,8.3
		c-0.1,1.4-0.2,2.8-0.4,4.2c-0.1,1.4-0.1,2.8-0.2,4.2c-0.2,2.2-0.6,6.3-0.7,7.8c0,0.4-0.2,0.8-0.4,1.2c-1,1.6-2.1,2.6-3.8,2.4
		c-1.6-0.2-2.9-1.4-3.2-2.9c-0.5-2.8-0.9-5.6-1.2-8.3C164.9,298.1,164.7,296.7,164.6,295.3z"/>
	<path class="st10" d="M174.1,305.3l0.2,6c0.1,2.3-1.7,4.2-4,4.3l-16,0.4c-1.2,0-2.1-1.1-1.7-2.3c0.2-0.7,0.8-1.1,1.5-1.2l3.5-0.1
		c4.3-0.2,7.9-3.4,8.6-7.6L174.1,305.3L174.1,305.3z"/>
	<path class="st22" d="M164.6,295.3c-0.1-1.4-0.3-2.8-0.4-4.2c-0.2-2.3-0.4-4.7-0.6-7l12.2-2.6l-0.1,1.3l-0.6,8.3
		c-0.1,1.4-0.2,2.8-0.4,4.2c-0.1,1.4-0.1,2.8-0.2,4.2c-0.2,2.2-0.6,6.3-0.7,7.8c0,0.4-0.2,0.8-0.4,1.2c-1,1.6-2.1,2.6-3.8,2.4
		c-1.6-0.2-2.9-1.4-3.2-2.9c-0.5-2.8-0.9-5.6-1.2-8.3C164.9,298.1,164.7,296.7,164.6,295.3z"/>
	<path class="st10" d="M182.6,202.2l-25.1-7.3c0,0-0.5,13.3-0.3,17.5c0.3,8.4,0.6,26.2,1.2,40.9c0.5,14.7,3.9,52.8,3.9,52.8
		s8.4,1.4,13.4,0.4c0,0,2.3-36.8,1.2-47.7s1-23.9,3.6-40.4C181.3,212.9,182.5,207.3,182.6,202.2z"/>
	<path class="st10" d="M197.6,305.5l0.1,6c0,2.3-1.8,4.2-4.1,4.2l-16,0.3c-1.2,0-2.1-1.2-1.7-2.3c0.2-0.6,0.8-1.1,1.5-1.1l3.5,0
		c4.3-0.2,7.9-3.3,8.7-7.5L197.6,305.5L197.6,305.5z"/>
	<path class="st22" d="M188.1,295.6c-0.2-1.4-0.4-2.8-0.6-4.2c-0.3-2.3-0.6-4.7-0.9-7l12-3.1l0,1.3l-0.3,8.3c0,1.4-0.1,2.8-0.2,4.2
		c-0.1,1.4,0.1,2.8,0,4.2c-0.2,2.8-0.3,5.6-0.4,8.4c-1,1.9-2.1,3.3-4,3.2c-1.6-0.1-3-1.3-3.3-2.8c-0.6-2.8-1.1-5.5-1.6-8.3
		C188.5,298.3,188.3,297,188.1,295.6L188.1,295.6z"/>
	<path class="st24" d="M175.8,202.2c0.7,3,1.3,6.5,1.7,11.3c0.7,8.4,1.8,26.3,3,41.1c1.2,14.8,5.8,52.9,5.8,52.9s8.5,1.1,13.5-0.1
		c0,0,1.2-37-0.4-48c-1.6-11-0.1-24.1,1.8-40.7c0.6-5.6,2.2-14.5-2.6-26.8L175.8,202.2L175.8,202.2z"/>
	<path class="st22" d="M195.3,137.3c-9.5-0.3-8.7-8.3-8.7-8.3l-6.4-0.2l-6.4,0.2c0,0,0.9,8.1-8.7,8.3c-3.1,0.1-9.3,10.1-9.3,10.1
		h43.8C199.6,147.4,196.8,137.3,195.3,137.3L195.3,137.3z"/>
	<path class="st25" d="M173.6,131.5c-0.2,0.8-0.5,1.6-0.9,2.4c3,6.4,11.3,7.3,15-0.4c-0.3-0.5-0.5-1.2-0.6-1.9H173.6z"/>
	<path class="st22" d="M165.4,109c0.9-9.3,7.7-14.7,14.5-14.6c6.8,0.1,13.5,5.7,14.1,15c0.4,5.5-0.8,11.4-1.7,14.8
		c-0.5,2-1.5,3.9-2.8,5.3c-3.1,3.3-7,6-10.2,5.9c-3.1-0.1-7-2.8-10-6.2c-1.3-1.5-2.2-3.4-2.7-5.4C166,120.4,164.9,114.4,165.4,109
		L165.4,109z"/>
	<path class="st19" d="M203.4,163.7l10.2-4.5c-2.5-8.9-3.5-14.8-7.5-18.7c-4-3.9-13.6-3.3-13.6-3.3s-2.3,7.4-12.2,7.4
		c-10,0-12-7.4-12-7.4s-9.8-0.6-13.9,3.3c-4,3.9-6.4,9.8-8.8,18.7l11.5,4.5l-2,49c0,0,8.6,3.5,22.9,3.5c18.3,0,25.6-2.9,25.6-2.9
		L203.4,163.7z"/>
	<path class="st10" d="M173.2,116.6c0,0.6-0.5,1.1-1.1,1.1c-0.6,0-1.1-0.5-1.1-1.1c0-0.6,0.5-1.1,1.1-1.1
		C172.7,115.5,173.2,116,173.2,116.6z"/>
	<path class="st10" d="M186.2,116.6c0,0.6,0.5,1.1,1.1,1.1c0.6,0,1.1-0.5,1.1-1.1c0-0.6-0.5-1.1-1.1-1.1
		C186.7,115.5,186.2,116,186.2,116.6z"/>
	<path class="st17" d="M176.1,125.1c-0.6,0-0.9,0.6-0.6,1.1c0.9,1.3,2.5,2.2,4.3,2.2s3.3-0.9,4.2-2.2c0.4-0.5,0-1.2-0.6-1.2H176.1z"
		/>
	<path class="st26" d="M174.6,121.2c0,1-1.1,1.8-2.3,1.8c-1.3,0-2.3-0.8-2.3-1.8c0-1,1.1-1.8,2.3-1.8
		C173.5,119.4,174.6,120.2,174.6,121.2z"/>
	<path class="st26" d="M184.9,121.2c0,1,1.1,1.8,2.3,1.8c1.3,0,2.3-0.8,2.3-1.8c0-1-1.1-1.8-2.3-1.8
		C185.9,119.4,184.9,120.2,184.9,121.2z"/>
	<path class="st27" d="M194.5,95.5c-2.8-1.3-5.6-4.1-8.7-4.7c-2.2-0.4-4,0.4-6.1,0.8c-2.5,0.4-5.3,0.2-7.7,0.9
		c-3.8,1.1-6.8,4.5-5.5,8c-0.9,1.8-1.5,3.7-1.7,5.7c-0.7,6.6,0.8,10.8,1.3,10.6c0.8-0.3,1.7-1.9,1.7-4.9c0-4.1,1.5-6.3,3.2-7
		c5.5,3.7,12.2,2.4,18.2,0.3c1.4,1,2.6,3.1,2.6,6.7s0.9,4.5,1.7,4.9c0.5,0.2,1.9-4,1.3-10.6c-0.1-1-0.3-2.1-0.6-3.1
		C197.5,101,199.4,97.8,194.5,95.5L194.5,95.5z"/>
	<path class="st22" d="M215.3,180.9c0-0.7-0.1-1.2-0.1-1.8c-0.1-1.1-0.2-2.1-0.3-3.1c-0.4-3.9-1-7.4-1.5-10.3
		c-0.3-1.5-0.5-2.8-0.8-4c-0.1-0.6-0.3-1.5-0.4-2c-4.3,1.8-8.7,3.7-13.3,4.8c0.3,1.2,0.7,2.7,1.1,4.2c0.4,1.4,0.8,2.9,1.2,4.5
		c0.5,1.6,0.9,3.3,1.4,5c0.2,0.9,0.4,1.7,0.6,2.5c0.1,0.4,0.2,0.7,0.2,1.1l0.1,0.4v0l0,0c0-0.6,0-0.1,0-0.3v0.5c0,0,0,0,0,0
		c0,0,0,0,0,0.1l0,0.6c0,0.4-0.1,0.8-0.2,1.3c-0.1,0.9-0.3,1.9-0.4,2.8c-0.3,1.9-0.6,3.8-0.9,5.7c-0.3,1.9-0.6,3.8-1,5.6
		c-0.3,1.8-0.6,3.6-1,5.3c-0.3,1.7-0.7,3.2-1,4.7c-0.2,0.7-0.3,1.4-0.5,2.1c-0.2,0.6-0.5,1.2-0.8,1.8c-0.6,1.1-1,2-1.2,2.9
		c-0.4,1.7,0,2.8,0,2.8v0c0.1,0.3,0.3,0.6,0.5,0.9c1.1,1.4,3.1,1.7,4.5,0.7c0,0,1-0.7,1.6-2.4c0.3-0.8,0.5-1.9,0.6-3.1
		c0.1-0.6,0.2-1.3,0.4-1.9c0.2-0.7,0.5-1.3,0.8-2c0.5-1.4,1.1-2.9,1.8-4.5c0.6-1.6,1.4-3.3,2.1-5c0.7-1.7,1.5-3.5,2.2-5.4
		c0.7-1.8,1.5-3.7,2.2-5.7c0.3-1,0.7-2,1-3c0.2-0.5,0.3-1,0.4-1.6l0.2-0.9c0-0.1,0.1-0.3,0.1-0.6l0.2-0.7L215.3,180.9L215.3,180.9z"
		/>
	<path class="st11" d="M197.1,132.7c3.2,3.9,5,7.8,5.4,9.3c0.4,1.5,0.8,2.9,1.1,4.3c0.1,0.7,0.3,1.3,0.4,1.9
		c0.1,0.6,0.2,1.2,0.5,1.8c0.2,0.6,0.5,1,0.6,1.6c0.2,0.5,0.3,1,0.3,1.5c0.1,1-0.1,1.7-0.4,2.3c-0.3,0.5-0.5,0.8-0.5,0.8
		c-1.1,1-2.8,1.1-4,0.1l-1.2-1c0,0-0.2-0.2-0.4-0.4c-0.2-0.2-0.4-0.6-0.4-1.1c-0.1-0.6,0.1-1.3,0.1-2.3c0-0.9-0.6-1.9-1.1-3
		c-0.5-1.1-1.2-2.2-1.9-3.4c-0.8-1.2-1.6-2.4-2.5-3.7c-0.9-1.3-1.8-2.6-2.8-3.9c-0.5-0.7-1-1.3-1.4-2l-1-1.4
		C187.9,133.7,196.8,132.4,197.1,132.7L197.1,132.7z"/>
	<path class="st10" d="M121.4,84.2c0,3.6,2.9,6.4,6.5,6.4s6.5-2.9,6.5-6.4c0-3.6-2.9-6.4-6.5-6.4S121.4,80.7,121.4,84.2z"/>
	<path class="st23" d="M133.8,304.9l-0.2,6.2c-0.1,2.3,1.8,4.3,4.1,4.4l16.4,0.5c1.2,0,2.1-1.2,1.7-2.3c-0.2-0.7-0.8-1.1-1.5-1.2
		l-3.6-0.1c-4.4-0.2-8.1-3.5-8.8-7.8L133.8,304.9L133.8,304.9z"/>
	<path class="st23" d="M143.6,294.5c0.2-1.4,0.3-2.9,0.4-4.3c0.2-2.4,0.4-4.8,0.6-7.2l-12.5-2.7l0.1,1.3l0.7,8.5
		c0.1,1.4,0.2,2.8,0.4,4.3c0.1,1.4,0.1,2.9,0.2,4.3c0.3,2.8,0.8,8.6,0.8,8.6c1.1,1.9,2.3,3.3,4.3,3.1c1.6-0.2,3-1.5,3.3-3
		c0.5-2.8,0.9-5.7,1.2-8.5C143.3,297.4,143.5,296,143.6,294.5L143.6,294.5z"/>
	<path class="st13" d="M133.8,304.9l-0.2,6.2c-0.1,2.3,1.8,4.3,4.1,4.4l16.4,0.5c1.2,0,2.1-1.2,1.7-2.3c-0.2-0.7-0.8-1.1-1.5-1.2
		l-3.6-0.1c-4.4-0.2-8.1-3.5-8.8-7.8L133.8,304.9L133.8,304.9z"/>
	<path class="st11" d="M143.6,294.5c0.2-1.4,0.3-2.9,0.4-4.3c0.2-2.4,0.4-4.8,0.6-7.2l-12.5-2.7l0.1,1.3l0.7,8.5
		c0.1,1.4,0.2,2.8,0.4,4.3c0.1,1.4,0.1,2.9,0.2,4.3c0.3,2.8,0.8,8.6,0.8,8.6c1.1,1.9,2.3,3.3,4.3,3.1c1.6-0.2,3-1.5,3.3-3
		c0.5-2.8,0.9-5.7,1.2-8.5C143.3,297.4,143.5,296,143.6,294.5L143.6,294.5z"/>
	<path class="st28" d="M125.2,194.3l25.8-7.5c0,0,0.5,13.6,0.3,17.9c-0.3,8.6-0.6,26.8-1.2,41.9c-0.5,15.1-4,59.1-4,59.1
		s-8.6,1.4-13.7,0.4c0,0-2.4-42.6-1.3-53.9c1.1-11.2-1-24.5-3.7-41.4C126.5,205.2,125.3,199.5,125.2,194.3L125.2,194.3z"/>
	<path class="st13" d="M109.7,305.1l-0.1,6.2c0,2.3,1.8,4.3,4.2,4.3l16.4,0.3c1.2,0,2.1-1.2,1.7-2.3c-0.2-0.7-0.9-1.1-1.6-1.2
		l-3.6,0c-4.4-0.2-8.1-3.4-8.9-7.7L109.7,305.1L109.7,305.1z"/>
	<path class="st11" d="M119.5,294.9c0.2-1.4,0.4-2.8,0.6-4.3c0.3-2.4,0.6-4.8,0.9-7.2l-12.3-3.2l0,1.3l0.3,8.5
		c0,1.4,0.1,2.8,0.2,4.3c0.1,1.4-0.1,2.9,0,4.3c0.2,2.9,0.3,5.7,0.4,8.6c1,2,2.1,3.4,4.1,3.2c1.6-0.1,3.1-1.3,3.4-2.8
		c0.6-2.8,1.1-5.7,1.6-8.5C119.1,297.7,119.3,296.3,119.5,294.9L119.5,294.9z"/>
	<path class="st29" d="M132.1,194.3c-0.7,3.1-1.3,6.6-1.7,11.6c-0.7,8.6-1.8,26.9-3,42.1c-1.2,15.1-5.9,59.1-5.9,59.1
		s-8.7,1.1-13.8-0.1c0,0-1.3-42.9,0.4-54.1c1.6-11.2,0.1-24.7-1.9-41.7c-0.6-5.7-2.2-14.9,2.6-27.4L132.1,194.3L132.1,194.3z"/>
	<path class="st11" d="M112.1,127.8c9.8-0.3,8.9-8.6,8.9-8.6l6.5-0.2l6.5,0.2c0,0-0.9,8.3,8.9,8.6c3.2,0.1,9.6,10.4,9.6,10.4h-44.8
		C107.7,138.1,110.7,127.8,112.1,127.8L112.1,127.8z"/>
	<path class="st15" d="M134.4,121.8c0.2,0.8,0.5,1.6,1,2.4c-3.1,6.6-11.5,7.4-15.4-0.5c0.3-0.5,0.5-1.2,0.7-2H134.4z"/>
	<path class="st11" d="M142.7,98.7c-0.9-9.6-7.9-15-14.9-14.9c-6.9,0.1-13.8,5.8-14.5,15.4c-0.4,5.6,0.8,11.7,1.7,15.1
		c0.5,2.1,1.5,4,2.9,5.4c3.1,3.4,7.2,6.1,10.4,6.1c3.2-0.1,7.2-2.9,10.2-6.4c1.3-1.5,2.3-3.4,2.7-5.5
		C142.2,110.4,143.3,104.3,142.7,98.7L142.7,98.7z"/>
	<path class="st17" d="M103.8,154.8l-10.4-4.6c2.5-9.1,3.5-15.1,7.7-19.1c4.1-4,13.8-3.9,13.8-3.9s2.5,8,12.7,8
		c10.2,0,12.2-8.4,12.2-8.4s15.2-2.8,20.5-2c1,7.3,2.2,12.4,2.2,12.4l-10,7.2l1,60.6c0,0-8.8,3.6-23.5,3.6c-18.7,0-26.3-3-26.3-3
		L103.8,154.8L103.8,154.8z"/>
	<path class="st10" d="M134.8,106.6c0,0.6,0.5,1.1,1.1,1.1c0.6,0,1.1-0.5,1.1-1.1c0-0.6-0.5-1.1-1.1-1.1
		C135.3,105.4,134.8,105.9,134.8,106.6z"/>
	<path class="st10" d="M113.4,99.8c0.9,6.3,2.3,12.2,7.6,15.5c0.5-0.9,3.2-3.2,7.3-3.2c4.1,0,6.5,2.2,7.1,3.2c3.2-2.2,5-5.3,5.9-9.2
		c0.2-0.9,0.2-1.8-0.1-2.5c0.8-1.4,1.3-3,1.6-4.6c0.5,5.5-0.6,11.5-1.4,14.9c-0.5,2.1-1.4,4-2.7,5.5c-3,3.5-7.1,6.3-10.2,6.4
		c-3.2,0.1-7.3-2.7-10.4-6.1c-1.4-1.5-2.4-3.4-2.9-5.4C114.3,111,113.1,105.2,113.4,99.8L113.4,99.8z"/>
	<path class="st10" d="M121.4,106.6c0,0.6-0.5,1.1-1.1,1.1c-0.6,0-1.1-0.5-1.1-1.1c0-0.6,0.5-1.1,1.1-1.1
		C120.9,105.4,121.4,105.9,121.4,106.6z"/>
	<path class="st17" d="M131.9,115.9c0.6,0,1,0.7,0.6,1.1c-1,1.4-2.6,2.3-4.4,2.3s-3.4-0.9-4.3-2.2c-0.4-0.5,0-1.2,0.6-1.2
		L131.9,115.9L131.9,115.9z"/>
	<path class="st16" d="M133.4,111.3c0,1,1.1,1.9,2.4,1.9c1.3,0,2.4-0.8,2.4-1.9s-1.1-1.9-2.4-1.9
		C134.5,109.5,133.4,110.3,133.4,111.3z"/>
	<path class="st16" d="M122.8,111.3c0,1-1.1,1.9-2.4,1.9c-1.3,0-2.4-0.8-2.4-1.9s1.1-1.9,2.4-1.9
		C121.7,109.5,122.8,110.3,122.8,111.3z"/>
	<path class="st10" d="M112.7,95.9c0.7-6.8,5.3-13.3,15.4-13.3c10,0,14.7,6.5,15.4,13.3c0.7,6.8-0.8,11.1-1.3,10.9
		c-0.8-0.3-1.7-1.9-1.7-5c0-5.9-3-7.9-5.2-7.5c-2.1,0.4-3.6,2-7.1,2s-5-1.6-7.1-2c-2.2-0.5-5.2,1.6-5.2,7.5c0,3.7-0.9,4.6-1.7,5
		C113.5,106.9,112.1,102.7,112.7,95.9z"/>
	<path class="st11" d="M90.8,173.4v-1.1c0-0.7,0.1-1.2,0.1-1.8c0.1-1.1,0.2-2.2,0.3-3.1c0.4-4,1-7.5,1.5-10.6
		c0.3-1.5,0.5-2.9,0.8-4.1c0.1-0.7,0.5-1.6,0.6-2.1c4.4,1.9,8.7,3.9,13.4,5c-0.3,1.3-0.7,2.7-1.2,4.4c-0.4,1.4-0.8,3-1.3,4.7
		c-0.5,1.6-0.9,3.4-1.4,5.1c-0.2,0.9-0.5,1.7-0.7,2.6c-0.1,0.4-0.2,0.7-0.2,1.1l-0.1,0.4v0l0,0c0-0.6,0-0.2,0-0.3v0.5c0,0,0,0,0,0
		c0,0,0,0,0,0.1l0,0.6c0,0.4,0.1,0.9,0.2,1.3c0.1,0.9,0.3,1.9,0.4,2.8c0.3,2,0.6,3.9,0.9,5.9c0.3,2,0.7,3.9,1,5.8
		c0.3,1.9,0.6,3.7,1,5.4c0.3,1.7,0.7,3.3,1,4.8c0.2,0.7,0.3,1.5,0.5,2.1c0.2,0.7,0.5,1.3,0.8,1.8c0.6,1.1,1,2.1,1.3,2.9
		c0.4,1.7,0,2.9,0,2.9v0c-0.1,0.3-0.3,0.6-0.5,0.9c-1.1,1.5-3.2,1.8-4.7,0.7c0,0-1-0.8-1.6-2.4c-0.3-0.8-0.5-1.9-0.7-3.2
		c-0.1-0.6-0.2-1.3-0.4-2c-0.2-0.7-0.5-1.3-0.8-2.1c-0.6-1.4-1.2-3-1.8-4.6c-0.6-1.6-1.4-3.3-2.1-5.1c-0.7-1.8-1.5-3.6-2.3-5.5
		c-0.8-1.9-1.5-3.8-2.2-5.8c-0.3-1-0.7-2-1-3.1c-0.2-0.5-0.3-1.1-0.5-1.6l-0.2-0.9c0-0.1-0.1-0.4-0.1-0.6l-0.2-0.7L90.8,173.4
		L90.8,173.4z"/>
	<path class="st30" d="M125.5,255.4H168V222h-42.5V255.4z"/>
	<path class="st18" d="M143.6,255.4H168V222h-24.4V255.4z"/>
	<path class="st17" d="M151,246.7h10.8v-5.6H151V246.7z"/>
	<path class="st18" d="M230.7,274.7h46.4v-21h-46.4V274.7z"/>
	<path class="st19" d="M252.7,274.7h24.4v-21h-24.4V274.7z"/>
	<path class="st17" d="M260.1,266.1h10.8v-5.6h-10.8V266.1z"/>
	<path class="st30" d="M176,275.3h59.4v-46.8H176V275.3z"/>
	<path class="st18" d="M201.4,275.3h34.1v-46.8h-34.1V275.3z"/>
	<path class="st17" d="M213,266.6h10.8v-5.6H213V266.6z"/>
	<path class="st18" d="M95.3,275.3h82.8v-21H95.3V275.3z"/>
	<path class="st19" d="M153.7,275.3h24.4v-21h-24.4V275.3z"/>
	<path class="st17" d="M161.1,266.6h10.8v-5.6h-10.8V266.6z"/>
	<path class="st10" d="M97,325.3v14.5h24.6v-7.2h13.6v7.2h25.5v-7.2h12.7v7.2h25.5v-7.2h13.6v7.2h24.6v-7.2h13.6v7.2h24.6v-14.5H97z
		"/>
	<path class="st30" d="M101.9,326.2h86.4v-51.6h-86.4V326.2z"/>
	<path class="st18" d="M164,326.2h24.4v-51.6H164V326.2z"/>
	<path class="st17" d="M171.4,317.6h10.8V312h-10.8V317.6z"/>
	<path class="st30" d="M187.6,326.2h82.8v-51.6h-82.8V326.2z"/>
	<path class="st18" d="M246,326.2h24.4v-51.6H246V326.2z"/>
	<path class="st17" d="M253.4,317.6h10.8V312h-10.8V317.6z"/>
</g>
</svg>
