<?xml version="1.0" encoding="utf-8"?>
<!-- Generator: Adobe Illustrator 28.2.0, SVG Export Plug-In . SVG Version: 6.00 Build 0)  -->
<svg version="1.1" id="Layer_1" xmlns="http://www.w3.org/2000/svg" xmlns:xlink="http://www.w3.org/1999/xlink" x="0px" y="0px"
	 viewBox="0 0 371 353" style="enable-background:new 0 0 371 353;" xml:space="preserve">
<style type="text/css">
	.st0{clip-path:url(#SVGID_00000008124923472028427720000000514518311711677105_);}
	.st1{fill:#DCDDBF;}
	.st2{clip-path:url(#SVGID_00000009569272399221925510000006620171489550648978_);}
	.st3{fill:#83A532;}
	.st4{fill:#6D8F25;}
	.st5{fill:#632424;}
	.st6{fill:#D4DDBA;}
	.st7{clip-path:url(#SVGID_00000116943749269681280210000012388012339744191154_);}
	.st8{fill:#87B11A;}
	.st9{fill:#719913;}
	.st10{fill:#5E7C12;}
	.st11{fill:#516E0E;}
	.st12{clip-path:url(#SVGID_00000152980187891501765180000013856829765118363545_);}
	.st13{fill:#7B9834;}
	.st14{fill:#668426;}
	.st15{fill:#FFC74A;}
	.st16{fill:none;stroke:#E88400;stroke-linecap:round;stroke-linejoin:round;}
</style>
<g>
	<g>
		<defs>
			<rect id="SVGID_1_" x="-38.2" y="137" width="443" height="204.1"/>
		</defs>
		<clipPath id="SVGID_00000027586041020816766690000009156887312396256944_">
			<use xlink:href="#SVGID_1_"  style="overflow:visible;"/>
		</clipPath>
		<g style="clip-path:url(#SVGID_00000027586041020816766690000009156887312396256944_);">
			<path class="st1" d="M91.8,226.4c0.1,1.9,2.1,3.4,3.9,3c-1.3,1.2-1.6,3.3-0.9,5c0.6,1.6,2.3,2.7,4.1,2.7
				c-3.5,3.7-6.6,8.1-6.5,13.2c0.1,5.1,3.9,10.2,8.9,10.6c2.7,0.2,5.3-1,7.5-2.7c0.9,2.6,2.8,4.8,5.3,5.9c0.2,0.1,0.3,0.1,0.5,0.2
				c0.8,0.3,1.8,0.5,2.6,0.3c0.9-0.2,1.8-1.1,1.6-2c0.7,1.7,2.4,3,4.2,3.3c1.5,0.2,3.1-0.2,4.2-1.2c0.2-0.2,0.5-0.4,0.7-0.6
				c0.2,0.6,0.5,1.2,0.9,1.7c-0.8,4.2-1.9,8.4-3.3,12.5c-4.4,13-11.4,25-18.6,36.7c6.4,1.6,12.7,2.4,19.3,2.7
				c4.2-10.9,7.2-22.7,8.9-34.8c8.2-2.3,15.6-7.3,20.6-14c0.7,0.7,1.5,1.2,2.5,1.4c0.8,0.2,1.6,0.2,2.4,0c1.9-0.5,3.1-2.5,3.3-4.4
				c1.8,0.5,3.8-0.1,5.2-1.4c0.2-0.2,0.4-0.3,0.5-0.5c0.7-0.8,1.3-1.8,1.6-2.8c1.3,1.1,2.7,1.9,4.2,2.4c3.8,1.4,8.3,0.9,11.7-1.4
				c2.4-1.7,4.1-4.4,4.6-7.3c0.2-1.1,0.2-2.2,0-3.3c-0.7-4-4.1-7.5-8.1-8c2.4-1.2,3.7-3.8,3.7-6.5c0-2.7-1.5-5.3-3.9-6.6
				c-2.4-1.3-5.4-1.1-7.6,0.4c0.6-1,0.6-2.2,0-3.1c-0.6-1-1.8-1.5-2.9-1.4c3.5-3.7,7-7.5,8.7-12.3c1.7-4.8,2-10.3,0.2-15
				c-1.8-4.8-5.9-8.8-10.9-10c-5-1.2-10.7,0.9-13.4,5.2c0.7-3.3-2-7.3-5.2-8.3c-3.2-1-7,0.8-8.3,3.9c-1.1-2.5-4.4-4.5-7.2-4.4
				c-2.7,0.1-5.3,1.8-6.7,4.1c-1.4,2.4-1.7,5.3-1,8c-0.9-1.5-3.4-1.6-4.9-0.6c-1.4,1-2,2.8-2,4.6c0,1.7,0.6,3.4,1.2,5.1
				c-1.1-0.9-3-0.4-4.1,0.5c-1.1,1-1.6,2.4-2,3.8c-1.4-3.7-2.7-7.4-5.2-10.5c-2.5-3.1-6.2-5.4-10.2-5.3c-1.6,0.1-3.1,0.5-4.5,1.3
				c-3.4,1.9-5.9,5.8-6.5,9.8c-0.9,5.6,1.2,11.2,3.8,16.2C93,222.3,91.6,224.5,91.8,226.4L91.8,226.4z M135.8,277
				c0.2-2.1,0.4-4.3,0.5-6.4c0.1,0,0.2,0,0.3,0.1c0.6,0.1,1.3,0.1,1.9,0c3.1-0.2,6.1-2,7.9-4.7c0.3,1.6,1.3,3,2.8,3.8
				c0.3,0.1,0.6,0.3,0.9,0.4c0.3,0.1,0.7,0.2,1.1,0.2C145.9,274.6,139.8,276.6,135.8,277z"/>
			<path class="st1" d="M-37.6,224.6c1.2,3.4,4.2,5.7,7.8,6.2c-2.5,1.7-3.8,4.8-3.4,7.8c0.4,3,2.5,6.1,5.4,7
				c-0.2,3.2,1.1,6.4,3.5,8.5c2.4,2.1,5.8,3,8.9,2.3c1.2-0.3,2.3-0.7,3.2-1.6c0.9-0.8,1.3-2.1,1.1-3.2c1.9,2.8,5.6,4.3,8.9,3.7
				c0,0,0,0,0,0c1.3-0.2,2.5-0.9,3.6-1.7c-5.1,28.6-5.2,58.5,0.6,86.1c10.5-0.9,20.7-1.3,31.1-2.2c-7.5-15.7-12.9-32.5-15.9-49.7
				c6.9-7.7,12.6-16.5,16.9-26c1.8-0.6,3.4-2,4.2-3.8c0.2,0.2,0.4,0.3,0.6,0.4c3.3,2,8,1.3,10.8-1.4c1.7-1.6,2.7-3.7,3.2-6
				c0.4-1.8,0.3-3.7-0.1-5.5c-0.1-0.3-0.2-0.6-0.3-0.9c0,0,0,0,0.1,0c3.3-0.5,6.4-2.4,8.3-5.1c2-2.7,2.8-6.2,2.2-9.5
				c2.6,0.8,5.9,0.1,8.2-1.5c2.3-1.5,4-3.8,5.2-6.4c1-2.1,1.5-4.4,1.6-6.7c0.1-1.5-0.1-3-0.5-4.4c-1-3.6-3.6-6.9-7.2-8.3
				c-3.5-1.3-7.9-0.5-10.5,2.3c1.7-2.1,1.6-5.7,0.2-8c4.7-5,8.4-10.9,9.4-17.6c1-6.8-0.7-14.1-5.2-19.2c-4.5-5.1-12-7.7-18.6-5.8
				c1.4-4.1,0.4-9.1-2.2-12.5c-2.7-3.4-7.1-5.3-11.4-4.9c-4.3,0.4-8.3,3.2-10.2,7c-0.2-3.9-4.8-7-8.6-6.8c-3.9,0.2-7.2,3.1-8.7,6.7
				c-1.4,3.6-1.1,7.7,0.1,11.3c-2.5-2.4-6.8-3.2-9.8-1.5c-3.1,1.7-4.8,5.4-4.2,8.9c-2.4-2-6.6-1.8-9.1,0.1c-2.5,1.9-3.5,5.5-2.4,8.4
				c-2.2,0.1-4.3,0.8-6.2,1.8c-4,2.2-7.1,6-8.2,10.3c-1.7,6.5,1.2,13.8,6.8,17.5c-2.7,1.5-3.6,5.4-2.7,8.5c-2.1,1.2-3.9,2.9-5.2,5
				c-0.4,0.7-0.8,1.4-1.1,2.2C-38.3,219-38.5,221.9-37.6,224.6L-37.6,224.6z M15.7,277c-0.7-6.4-1.1-12.8-1.2-19.1
				c1.3,0.2,2.7,0.1,4.1-0.2c2.9-0.6,5.6-2.4,7.1-4.9c-1,2.7,0,6,2.2,7.9c0.3,0.2,0.6,0.4,0.9,0.6C25,267.1,20.7,272.4,15.7,277
				L15.7,277z"/>
			<path class="st1" d="M176.9,247.3c-0.2,3.8,1.2,7.8,4,10.2c1.3,1.1,2.9,1.8,4.6,2.1c-0.3,2.2-0.1,4.4,0.7,6.5
				c0.2,0.5,0.4,1,0.7,1.5c1.7,3.1,4.8,5.3,8.3,6.1c0.2,3.3,2.2,6.5,5.2,8.1c3,1.5,6.8,1.6,9.7-0.2c1.3,2.1,4.4,3.2,6.7,2.3
				c-0.2,3.2,1.6,6.3,4.2,8c2.1,1.4,4.7,2,7.3,1.9c0.6,0,1.3-0.1,1.9-0.1c0.5-0.1,0.9-0.1,1.4-0.3c-0.2,10.4-1.3,20.9-3.2,31.1
				c3.4,0.4,6.9,0.9,10.3,1.2c2-10.8,2.3-21.9,1.2-33c2.1,0.7,4.3,0.9,6.5,0.3c3.6-0.9,6.5-3.8,7.7-7.2c1.5,0.4,3.2-0.1,4.2-1.3
				c1-1.1,1.5-3,0.9-4.4c3-1.3,5.4-4.1,6.3-7.2c0.3-0.9,0.4-1.8,0.5-2.7c0.1-2-0.4-3.9-1.3-5.7c0.7-0.9,1.3-1.9,1.7-3
				c5-1.7,8.7-6.7,8.8-12c0.1-2.1-0.4-4.2-1.4-6.1c-1.4-3-3.9-5.6-6.9-6.8c3.4-1.5,5.5-5.7,4.6-9.3c-0.8-3.7-4.3-6.5-8.1-6.4
				c2.2-5.3,0.5-11.9-4-15.4c-4.5-3.5-11.4-3.7-16-0.3c-2.4-1.5-6-0.7-7.5,1.8c-1.4-1.9-3.7-3.2-6-3.5c-2.4-0.3-4.6,0.2-6.5,1.7
				c-2.5-6.4-8.9-11-15.8-11.4c-6.8-0.4-13.7,3.5-16.9,9.6c-3.2,6.1-2.9,14.3,1.3,19.8c-2.4,0.1-4.9,0.5-7.1,1.6
				c-0.7,0.4-1.4,0.8-2,1.3c-1.3,1.1-2.3,2.4-2.9,4c-0.8,2.3-0.7,5.2,1.1,6.8C178.8,239.9,177.1,243.5,176.9,247.3L176.9,247.3z
				 M250.6,252.5c0.5-0.1,1-0.3,1.4-0.5c-0.1,0.5-0.2,1-0.3,1.5C251.4,253.2,251,252.9,250.6,252.5L250.6,252.5z"/>
			<path class="st1" d="M278.1,239.2c-1.9-1.3-2.8-3.8-2.2-6c0.6-2.2,2.5-4.7,4.8-4.9c-6.9,0.4-13.6-3.5-17.6-9.1
				c-4-5.6-5.6-12.7-5.7-19.6c-0.1-5.9,1-12,4.7-16.6c1.7-2.1,3.9-3.7,6.3-4.8c2.2-1,4.7-1.7,7.2-1.8c5.1-0.3,9.9,1,14.4,3.5
				c0.7-3.1,2.6-6.1,5.5-7.5c2.9-1.4,6.7-0.5,8.3,2.3c-1-4.6-1.6-9.4-1-14c0.6-4.7,2.5-9.3,5.9-12.6c3.4-3.3,8.3-5.1,12.9-4.2
				c4.6,0.9,9,4.9,9.4,9.6c2-2.1,4.5-3.6,7.4-4c2.8-0.4,5.9,0.5,7.7,2.7c1.4,1.7,2,3.9,2.1,6.1c0.1,2.2-0.4,3.9-0.8,6
				c2.4-0.4,4.9,1.1,5.6,3.5c0.4,1.2,0.2,2.6-0.4,3.8c2.2-2,4.7-3.7,7.5-4.8c3.9-1.4,8.4-1.5,12,0.7c3.5,2.1,5.4,6.6,4.1,10.5
				c2.3-1.4,5.6-0.7,7.3,1.4c1.7,2.1,1.4,5.2-0.4,7.2c5-0.3,10.1,0.7,14.3,3.4c1.6,1.1,3,2.4,4.2,3.9c1.9,2.4,3.2,5.4,3.4,8.4
				c0.4,5-2.3,10-6.8,12.2c2.8,1.6,4.2,5.4,3,8.5c-1.2,3-4.1,4.9-7.3,4.2c1.6,7.1-1.6,15-7.6,19.1c-0.2,0.1-0.3,0.2-0.5,0.3
				c0.2,2.2,0,4.5-0.7,6.7c-0.4,1.3-1.1,2.5-1.9,3.6c-2.2,3-5.5,5.3-9.1,6.2c1.3,4.5-0.5,9.7-4.2,12.4c-3.7,2.8-9.2,3.1-13.1,0.6
				c-0.1,2.1-1.8,4.1-3.9,4.5c-2,0.4-4-0.5-5-2.2c0-0.1-0.1-0.2-0.1-0.2c-0.5,1.2-1.2,2.4-2.1,3.4c2.2,20,1.5,40.3-1.9,59.6
				c-7.7-2.8-15.6-5.3-23.6-7.2c5.4-15.5,8.7-31.7,9.7-48.1c-3.1-1.2-5.9-3.5-7.5-6.4c-1.1,1.3-2.7,2.2-4.3,2.7
				c-1.5,0.4-3.1,0.5-4.6,0.1c-3.2-0.8-5.8-3.8-6.5-7c-2.6,3.1-7.6,3.4-11,1.3c-3.4-2.1-5.4-6.1-5.8-10.1c0-0.1,0-0.3,0-0.4
				c-0.4-0.1-0.8-0.2-1.1-0.4c-2.6-1-4.8-3.2-6.5-5.4c-4.5,1.6-9.8,0.8-13.4-2.4c-3.5-3.2-4.8-8.7-2.8-13
				C268.2,240.4,273.6,237.7,278.1,239.2L278.1,239.2z"/>
		</g>
	</g>
	<g>
		<defs>
			<rect id="SVGID_00000101078864701134223720000014030069428080106174_" x="-60.7" y="137" width="472.7" height="192.8"/>
		</defs>
		<clipPath id="SVGID_00000008856861909529438100000017217171878475403196_">
			<use xlink:href="#SVGID_00000101078864701134223720000014030069428080106174_"  style="overflow:visible;"/>
		</clipPath>
		<g style="clip-path:url(#SVGID_00000008856861909529438100000017217171878475403196_);">
			<path class="st3" d="M290.7,251.8c0.6,4.5-2,9.2-6.1,11.1c-0.2,0.1-0.4,0.2-0.5,0.2c-0.9,0.3-1.9,0.6-2.8,0.3
				c-0.9-0.3-1.9-1.2-1.7-2.1c-0.8,1.8-2.5,3.2-4.4,3.5c-1.6,0.3-3.2-0.2-4.5-1.3c-0.3-0.2-0.5-0.4-0.7-0.7
				c-1.5,3.8-5.2,6.6-9.3,7.1c-0.7,0.1-1.3,0.1-2,0c-3.3-0.3-6.4-2.2-8.4-5c-0.3,1.7-1.4,3.2-3,4c-0.3,0.2-0.6,0.3-0.9,0.4
				c-2,0.6-4.3-0.3-5.7-1.8c-0.7,1-1.8,1.7-3,2c-0.8,0.2-1.7,0.2-2.5,0c-2-0.6-3.3-2.6-3.5-4.7c-1.9,0.5-4-0.2-5.5-1.5
				c-0.2-0.2-0.4-0.3-0.5-0.5c-1.5-1.7-2.2-3.9-2.3-6.2c-0.1-2.2,0.3-4.5,0.8-6.7c0.4-1.9,0.9-3.8,1.9-5.5c1-1.6,2.8-3,4.7-3
				c-0.6-7.8-2.6-19.9,3.3-24.9c0.1-0.1,0.2-0.1,0.2-0.2c6.2-5,22.2-4.8,30.1-3.6c6.9,1,13.3,4.3,18.5,8.9c0.7,0.7,1.5,1.4,2.2,2.1
				c1,1.1,2,2.2,2.9,3.4c1.6,2.1,2.9,4.4,3.8,6.8c0.4,0.9,0.7,1.9,0.9,2.9C293.9,241.9,293.5,247.4,290.7,251.8z"/>
			<g>
				<path class="st4" d="M290.7,251.8c0.6,4.5-2,9.2-6.1,11.1c-0.1,0-0.1-0.1-0.2-0.1c-2.8-2.2-3.7-6.3-2.2-9.6
					c-2.2,0.3-4.6-0.2-6-1.8c-1.2-1.4-1.6-3.3-1.4-5.1c0.2-1.8,0.8-3.5,1.4-5.2c-1.8,0.3-4-1.3-4-3.1c-2.2,8.2-2.9,17.1-1.6,25.6
					c-0.3-0.2-0.5-0.4-0.7-0.7c-1.5,3.8-5.2,6.6-9.3,7.1c-0.7,0.1-1.3,0.1-2,0c-1.2-7.4-1-14.9,0.3-22.3c-2.2,1.2-4.8,1.5-7.2,1
					c-2.4-0.5-4.6-1.8-6.1-3.8c-0.5,1.6-2.2,2.8-3.9,2.7c0.5,1.8,0.8,3.7,0.4,5.5c-0.4,1.8-1.7,3.6-3.6,4c1.5,4.7,4.6,9.1,8.7,12
					c-0.3,0.2-0.6,0.3-0.9,0.4c-2,0.6-4.3-0.3-5.7-1.8c-0.7,1-1.8,1.7-3,2c-2.4-2.7-4.1-6.1-4.9-9.7c-1.7,2-4.1,3.2-6.6,3.5
					c-0.2-0.2-0.4-0.3-0.5-0.5c-1.5-1.7-2.2-3.9-2.3-6.2c-0.1-2.2,0.3-4.5,0.8-6.7c0.4-1.9,0.9-3.8,1.9-5.5c1-1.6,2.8-3,4.7-3
					c-0.6-7.8-2.6-19.9,3.3-24.9c16.4,0.6,32.7,2.3,48.8,5.1c0.7,0.1,1.5,0.3,2.2,0.4c0.9,1.7,1.9,3.4,2.8,5.1
					c1.3,2.3,2.5,4.5,3.8,6.8c0.4,0.9,0.7,1.9,0.9,2.9C293.9,241.9,293.5,247.4,290.7,251.8z"/>
			</g>
			<path class="st5" d="M292.2,317c-7.6-12.5-15-25.2-19.7-39c-2.3-6.8-4-14-4.6-21.2c8.4-3.3,15.7-12.2,16.6-21.1
				c-0.5-0.1-1.1-0.1-1.6-0.1c-1.4,7.8-7.7,14.3-15.3,16.2c-0.2-5.8,0.4-11.5,1.7-17.1c-1.9-0.2-3.8-0.4-5.8-0.6
				c-2.9,13.7-3.4,28.2-2,42.6c-7.3-0.8-21.9-6.6-25.4-21.7c-0.6,0-1.2-0.2-1.8-0.2c2.8,13.8,14.4,24.2,27.9,28.1
				c1.7,12.8,5,25.4,9.4,37C278.7,319.6,285.3,318.8,292.2,317L292.2,317z"/>
			<path class="st3" d="M308.3,222.8c-0.1,2-2.2,3.6-4.2,3.2c1.4,1.2,1.7,3.6,1,5.3c-0.7,1.7-2.5,2.9-4.3,2.9c3.7,3.9,7,8.6,6.9,14
				c-0.1,5.4-4.1,10.9-9.5,11.2c-3.9,0.2-7.4-2-10.2-4.7c-6.7-6.4-10.8-15.7-10.9-25c-0.5,1.1-1.9,2-3.2,2c-1.2,0-2.5-0.7-3.1-1.8
				c0.7,1.8,0.4,4-0.6,5.6c-1,1.6-3.1,2.6-5,2.1c-1.9-0.5-3.3-2.5-2.8-4.4c-0.9,2.7-2.4,5.7-4.4,7.8c-2,2.1-5.4,3.2-7.9,1.7
				c-1.6-0.9-2.5-2.6-3.1-4.3c-1.6-4.2-2-8.8-1.2-13.2c-4.4,1.6-9.8,0.6-13.3-2.6c3.5,3.4,6.2,7.7,7.7,12.4c0.6,1.9,1.1,4,0.6,6
				c-0.4,2-2.5,4.9-4.5,5.1c2,1.1,3.1,3.6,2.7,5.9c-0.4,2.3-2.3,4.2-4.6,4.5c-2.3,0.4-4.7-0.8-5.8-2.8c-1.9,3.9-5.2,7.3-9.3,8.7
				c-4.1,1.4-8.8,1-12.4-1.5c-2.6-1.8-4.4-4.7-4.9-7.7c-0.2-1.2-0.2-2.4,0-3.6c0.7-4.3,4.3-8,8.6-8.5c-2.5-1.3-3.9-4-4-6.9
				c0-2.8,1.6-5.7,4.1-7c2.5-1.4,5.8-1.2,8.1,0.4c-0.6-1-0.7-2.3,0-3.3c0.6-1,1.9-1.6,3.1-1.5c-3.7-3.9-7.5-7.9-9.3-13.1
				c-1.8-5.1-2.1-10.9-0.2-16c1.9-5.1,6.2-9.4,11.5-10.6c5.3-1.2,11.4,0.9,14.2,5.6c-0.7-3.5,2.1-7.7,5.5-8.8
				c3.4-1.1,7.5,0.8,8.8,4.1c1.2-2.7,4.7-4.8,7.6-4.6c2.9,0.1,5.7,1.9,7.2,4.4c1.5,2.5,1.8,5.7,1,8.5c1-1.6,3.7-1.7,5.2-0.7
				c1.5,1.1,2.2,3,2.2,4.9c0,1.9-0.6,3.6-1.3,5.4c1.2-0.9,3.2-0.4,4.3,0.6c1.1,1,1.7,2.5,2.1,4c1.5-3.9,2.9-7.9,5.6-11.2
				c2.6-3.3,6.6-5.8,10.8-5.7c1.7,0.1,3.3,0.6,4.8,1.4c3.6,2.1,6.2,6.2,6.9,10.4c0.9,5.9-1.2,11.9-4.1,17.2
				C306.9,218.4,308.4,220.8,308.3,222.8z"/>
			<g>
				<path class="st4" d="M308.3,222.8c-0.1,2-2.2,3.6-4.2,3.2c1.4,1.2,1.7,3.6,1,5.3c-0.7,1.7-2.5,2.9-4.3,2.9c3.7,3.9,7,8.6,6.9,14
					c-0.1,5.4-4.1,10.9-9.5,11.2c-3.9,0.2-7.4-2-10.2-4.7c-6.7-6.4-10.8-15.7-10.9-25c-0.5,1.1-1.9,2-3.2,2c-1.2,0-2.5-0.7-3.1-1.8
					c0.7,1.8,0.4,4-0.6,5.6c-1,1.6-3.1,2.6-5,2.1c-1.9-0.5-3.3-2.5-2.8-4.4c-0.9,2.7-2.4,5.7-4.4,7.8c-2,2.1-5.4,3.2-7.9,1.7
					c-1.6-0.9-2.5-2.6-3.1-4.3c-1.6-4.2-2-8.8-1.2-13.2c-4.5,1.6-9.8,0.6-13.3-2.6c3.5,3.4,6.2,7.7,7.7,12.4c0.6,1.9,1.1,4,0.6,6
					c-0.4,2-2.5,4.9-4.5,5.1c2,1.1,3.1,3.6,2.7,5.9c-0.4,2.3-2.3,4.2-4.6,4.5c-2.3,0.4-4.7-0.8-5.8-2.8c-1.9,3.9-5.2,7.3-9.3,8.7
					c-4.1,1.4-8.8,1-12.4-1.5c-2.6-1.8-4.4-4.7-4.9-7.7c0.3,0.6,0.7,1.2,1.2,1.6c1.7,1.6,4.2,2.2,6.5,2.2c2,0,4-0.5,5.7-1.6
					c1.7-1.1,3-2.7,3.5-4.7c-2-0.5-3.5-2.8-3.2-4.8c1.9,0.3,3.5,1.6,4.1,3.5c0-2.1,0.9-4.1,2.4-5.5c0.3,1.7,0.2,3.4-0.4,5.1
					c0.7,0.8,2,0.9,3,0.5c1-0.4,1.6-1.4,1.8-2.4c0.2-1-0.1-2.1-0.5-3c1.3,0.5,2.9,0.2,3.9-0.8c1-1,1.4-2.6,1-3.9
					c-0.4-1.3-1.5-2.2-2.8-2.5c1.4,0.1,2.9-0.8,3.5-2.1c-1.1-0.5-2.6-0.3-3.5,0.6c1.4-1.5,1.7-3.9,1.6-5.9
					c-0.1-4.8-2.1-9.6-5.5-13.1c2,1.4,4.1,2.6,6.3,3.7c2.2,1.1,4.6,1.8,7,1.8c2.4,0,4.9-0.9,6.6-2.6c-1.1-0.5-1.9-1.9-1.6-3.1
					c0.8,0.6,1.5,1.4,2,2.3c0.1-1.2,0.6-2.4,1.4-3.3c0.2,1.2,0,2.4-0.5,3.5c1.7-0.8,3.1-2,4.1-3.5c-0.5,1.7-1,3.8-1,5.6
					c0,1.8,0.6,3.7,1.9,5c1.2,1.1,3,1.6,4.6,1.3c1.6-0.3,3-1.5,3.7-3c0.1,1.1,1,2.1,2,2.4c0.2-1-0.3-2.1-1.1-2.6
					c0.7,0.3,1.6,0.2,2.3-0.1c-0.5-0.4-1.2-0.6-1.9-0.6c1.2-1.1,1.9-2.8,1.8-4.5c0,1,0.6,1.8,1.3,2.5s1.6,1.1,2.6,1.2
					c0.6,0.1,1.2,0.1,1.7-0.1c0.5-0.2,1-0.5,1.3-1.1c-0.7-0.3-1.4-0.9-1.6-1.7c-0.2-0.8-0.1-1.6,0.3-2.3c0.9,1,1.5,2.2,1.7,3.5
					c0.3-1.2,0.9-2.3,1.9-3.1c0.2,1.1-0.2,2.2-1,3c1.4-0.9,2.5-2.4,3-4.1c-0.1,1.1,0.4,2.1,1.1,2.9c0.7,0.8,1.8,1.3,2.9,1.3
					c-0.9,0.2-1.7,0.8-2,1.7c0.9-0.1,1.8-0.5,2.5-1.2c-0.2,0.5-0.2,1.1-0.1,1.6c0.4-0.3,0.8-0.7,1.1-1c-0.5,3.6,0.3,7.3,2,10.5
					c0.8,1.6,2,3.1,3.5,4.1c1.5,1,3.5,1.4,5.2,0.8c1.7-0.6,3.1-2.3,3-4.1c-0.9,0.1-2-0.3-2.6-1c0.8-0.5,1.8-0.5,2.7-0.1
					c-0.6-0.6-1-1.5-1-2.4c0.8,0.3,1.5,1,1.7,1.9c0.9,0.3,1.8,0.5,2.7,0.6c0.9,0,1.9-0.2,2.5-0.9c0.4-0.5,0.6-1.2,0.6-1.8
					c0-1.5-1-3.1-2.4-3.6c1.4-0.2,2.9-0.6,3.8-1.6c0.8-1,0.8-2.4,0.4-3.6c-0.4-1.2-1.3-2.1-2.3-2.9c2.7-1.1,4.3-4,5.5-6.7
					c1.2-2.8,2.1-5.9,2.1-9c0-3.1-0.7-6.2-2.4-8.8c-0.5-0.7-1-1.4-1.6-2c3.6,2.1,6.2,6.2,6.9,10.4c0.9,5.9-1.2,11.9-4.1,17.2
					C306.9,218.4,308.4,220.8,308.3,222.8z"/>
			</g>
			<g>
				<path class="st4" d="M226.5,207.3c-1.2-0.2-2.2-0.9-2.9-1.8c-0.7-1-0.9-2.2-0.7-3.4c1.5,0.8,2.7,2.2,3.5,3.8
					c-0.2-1.5,0.5-3.1,1.8-3.9C228.3,203.8,227.4,205.8,226.5,207.3L226.5,207.3z"/>
			</g>
			<g>
				<path class="st4" d="M218.2,232.5c-0.5,0.7-1.3,1.1-2.1,1.2c-0.8,0.1-1.7-0.2-2.3-0.7c1-0.7,2.3-0.9,3.5-0.9
					c-1-0.4-1.7-1.4-1.8-2.5C216.6,230.2,217.6,231.4,218.2,232.5L218.2,232.5z"/>
			</g>
			<g>
				<path class="st4" d="M236.1,196.6c-1.6,0.2-3.2-0.3-4.4-1.3c1.2-0.5,2.6-0.5,3.8,0.1c-0.7-0.4-1.1-1.1-1.4-1.9
					c-0.3-0.8-0.4-1.6-0.6-2.3c1.4,0.8,2.4,2.2,2.8,3.8c0.1-1.2,0.7-2.3,1.5-3C238.2,193.6,237.3,195.4,236.1,196.6L236.1,196.6z"/>
			</g>
			<g>
				<path class="st4" d="M295.3,208.3c-0.8-1.1-1.1-2.5-0.8-3.9c0.9,0.7,1.4,1.8,1.5,2.9c0.1-0.7,0.4-1.3,0.8-1.8
					c0.4-0.5,1-1,1.5-1.4c0,1.4-0.7,2.7-1.7,3.6c0.9-0.4,2-0.4,2.9-0.1C298.4,208.6,296.7,208.6,295.3,208.3L295.3,208.3z"/>
			</g>
			<g>
				<path class="st4" d="M249.5,197.6c-0.7-0.8-1.1-1.8-1.1-2.8c0-1,0.5-2.1,1.2-2.8C250.2,193.8,249.7,195.8,249.5,197.6
					L249.5,197.6z"/>
			</g>
			<g>
				<path class="st4" d="M292.5,200.3c-0.3-1-0.2-2.1,0.2-3c0.5-0.9,1.3-1.7,2.3-2C294.8,197.1,293.5,198.7,292.5,200.3z"/>
			</g>
			<path class="st3" d="M411.4,219.6c-1.1,3.2-4,5.4-7.3,5.9c2.3,1.6,3.6,4.6,3.2,7.3c-0.4,2.8-2.4,5.7-5.1,6.6c0.2,3-1,6.1-3.3,8.1
				c-2.3,2-5.5,2.8-8.4,2.2c-1.1-0.2-2.2-0.7-3-1.5c-0.8-0.8-1.2-1.9-1-3.1c-1.8,2.6-5.2,4.1-8.4,3.5c0,0,0,0,0,0
				c-3.1-0.6-6.1-3.8-7-6.9c-0.3,4.3-3.7,8.1-7.9,9.1c-1.5,0.3-3.1,0.3-4.7,0c-2.7-0.6-5.3-2.2-6.7-4.6c1,2.6,0,5.7-2.1,7.5
				c-0.5,0.4-1,0.7-1.6,1c-3.1,1.3-6.9-0.4-8.3-3.5c-0.2,0.1-0.4,0.3-0.6,0.4c-3.1,1.9-7.5,1.2-10.2-1.3c-1.6-1.5-2.6-3.5-3-5.7
				c-0.3-1.7-0.3-3.5,0.1-5.2c0.9-3.8,3.5-7.1,6.6-9.5c2.3-14.1,15.2-28,28.6-32.9c13.4-4.9,27.2,2.2,40.7,6.9
				c3.2,1.1,6.1,3.2,7.9,6.1c0.4,0.7,0.8,1.4,1,2.1C412.1,214.4,412.3,217.2,411.4,219.6z"/>
			<g>
				<path class="st4" d="M411.2,212c-2.2,3.9-6.1,6.8-10.5,7.7c-6,1.2-12-1.9-15.4-6.9c-1.7,1.9-5.1,1.9-6.9,0
					c-0.2,2-1.3,3.9-2.9,5.1c-1.7,1.2-4,1.6-5.9,1.2c5,9.1,7.9,19.4,8.6,29.8c-3.1-0.6-6.1-3.8-7-6.9c-0.3,4.3-3.7,8.1-7.9,9.1
					c-1.5,0.3-3.1,0.3-4.7,0c-0.1-9.7-0.4-19.4-0.5-29c-1.9,0.2-3.8-0.6-5.1-2c0.6,2.7,1,5.4,0.6,8.1c-0.4,2.7-1.5,5.4-3.5,7.3
					c-2,1.9-5.1,2.9-7.7,2.1c1.4,5.9,3.9,11.5,7.5,16.4c-0.5,0.4-1,0.7-1.6,1c-3.1,1.3-6.9-0.4-8.3-3.5c-0.2,0.1-0.4,0.3-0.6,0.4
					c-1.5-3-2.8-6.1-3.6-9.3c-1.9,1.8-4.6,2.8-7.2,2.7c-0.8,0-1.6-0.1-2.3-0.4c-0.3-1.7-0.3-3.5,0.1-5.2c0.9-3.8,3.5-7.1,6.6-9.5
					c2.3-14.1,15.2-28,28.6-32.9c13.4-4.9,27.2,2.2,40.7,6.9c3.2,1.1,6.1,3.2,7.9,6.1C410.6,210.5,410.9,211.2,411.2,212z"/>
			</g>
			<path class="st5" d="M364.9,210.5c-2.1,0.6-4.3,1.2-6.4,1.8c4.2,18.6,5.1,37.8,2.9,56.8c-11.3-10.4-19.1-24.5-22-39.6
				c-1-0.1-2.1,0-3,0.5c3.1,18,11.2,35.7,23.5,49.4c-2.8,16.2-7.9,32.1-15,46.9c9.9,0.8,19.5,1.3,29.3,2.1
				C382.1,290.1,378.3,247.1,364.9,210.5L364.9,210.5z"/>
			<path class="st3" d="M404.5,207c-1.9,3-5.9,4.4-9.4,3.9c-3.6-0.5-6.7-2.6-9.3-5.1c-2.1,1.7-4.6,2.1-7.1,1.2
				c-2.5-0.9-4.4-3.2-4.9-5.8c-0.1,1.4-1,2.7-2.3,3.2c-1.3,0.6-2.8,0.4-3.9-0.5c1.2,1.4,1.9,3.1,2,4.9c0.1,1.8-0.8,3.7-2.4,4.5
				c-1.6,0.8-3.8,0.4-4.7-1.2c-1.9,1.4-4.7,1.6-6.5,0c-1.8-1.6-2.7-3.3-1.6-5.4c-2,3.4-6.7,4.9-10.3,3.2c2.3,3.4,3.6,7.3,4.1,11.4
				c0.3,2.5,0.2,5.1-0.7,7.5c-0.9,2.4-2.6,4.5-4.9,5.5c-2.3,1-5.2,0.7-7.1-1c-0.4,1.8-1.8,3.6-3.4,4.5c-1.7,0.8-3.6,1-5.4,0.7
				c-3.1-0.5-6-2.3-7.8-4.8c-1.8-2.5-2.6-5.8-2.1-9c-2.5,0.8-5.5,0.1-7.7-1.4c-2.2-1.4-3.8-3.6-4.9-6c-0.9-2-1.4-4.2-1.5-6.3
				c0-1.4,0.1-2.8,0.5-4.1c0.9-3.4,3.4-6.5,6.8-7.8c3.3-1.3,7.4-0.5,9.9,2.1c-1.6-2-1.5-5.4-0.2-7.6c-4.4-4.7-7.9-10.3-8.8-16.6
				c-0.9-6.4,0.7-13.3,4.9-18.1c4.3-4.8,11.3-7.3,17.5-5.5c-1.4-3.8-0.4-8.5,2.1-11.7c2.5-3.2,6.7-5,10.7-4.6c4,0.4,7.8,3,9.6,6.6
				c0.2-3.6,4.5-6.6,8.1-6.4c3.6,0.2,6.8,2.9,8.2,6.3c1.4,3.4,1.1,7.2-0.1,10.7c2.4-2.3,6.4-3,9.3-1.4c2.9,1.6,4.5,5.1,3.9,8.4
				c2.3-1.8,6.2-1.7,8.5,0.1c2.4,1.8,3.3,5.2,2.2,7.9c2,0.1,4,0.7,5.8,1.7c3.7,2,6.7,5.7,7.8,9.8c1.6,6.1-1.1,13.1-6.4,16.5
				C405.9,198.9,406.4,204,404.5,207z"/>
			<g>
				<path class="st6" d="M331.1,225.3c0-0.3,0-0.6,0-1C331.1,224.7,331.1,225,331.1,225.3z"/>
			</g>
			<g>
				<path class="st4" d="M404.5,207c-1.9,3-5.9,4.4-9.4,3.9c-3.6-0.5-6.7-2.6-9.3-5.1c-2.1,1.7-4.6,2.1-7.1,1.2
					c-2.5-0.9-4.4-3.2-4.9-5.8c-0.1,1.4-1,2.7-2.3,3.2c-1.3,0.6-2.8,0.4-3.9-0.5c1.2,1.4,1.9,3.1,2,4.9c0.1,1.8-0.8,3.7-2.4,4.5
					c-1.6,0.8-3.8,0.4-4.7-1.2c-1.9,1.4-4.7,1.6-6.5,0c-1.8-1.6-2.7-3.3-1.6-5.4c-2,3.4-6.7,4.9-10.3,3.2c2.3,3.4,3.6,7.3,4.1,11.4
					c0.3,2.5,0.2,5.1-0.7,7.5c-0.9,2.4-2.6,4.5-4.9,5.5c-2.3,1-5.2,0.7-7.1-1c-0.4,1.8-1.8,3.6-3.4,4.5c-1.7,0.8-3.6,1-5.4,0.7
					c-3.1-0.5-6-2.3-7.8-4.8c-1.8-2.5-2.6-5.8-2.1-9c-2.5,0.8-5.5,0.1-7.7-1.4c-2.2-1.4-3.8-3.6-4.9-6c-0.9-2-1.4-4.2-1.5-6.3
					c0.8,1.7,2,3.1,3.5,4.3c2.9,2.3,6.8,3.4,10.5,2.7c-1.4-2-0.3-5,1.8-6.1c0.4,1.7,0.4,4,0.2,5.7c1.3-2.3,3.5-4.1,6.1-4.7
					c-0.4,2.5-2.2,4.7-4.7,5.3c-0.4,1.8-0.5,3.9,0,5.7c0.5,1.8,1.6,3.5,3.2,4.4c1.6,1,3.6,1.2,5.3,0.4c1.4-0.7,2.4-2,2.6-3.6
					c0.1,1.2,0.7,2.4,1.7,3.2c0.5-1.3,0.4-2.7-0.1-4c1.4,1.1,3.5,0.4,4.5-1.1c1-1.4,1.1-3.4,0.9-5.1c-0.6-4.3-3-8.3-6.5-10.9
					c1.8,0.3,3.3,0.3,5.1,0.3c1.8-0.1,3.7-0.5,5.1-1.6c1.5-1.1,2.5-2.8,2.4-4.7c-1.7-0.8-2.5-2.9-2-4.7c1.5,0.6,2.6,1.8,3.2,3.3
					c0.3-1.6,1.2-3.1,2.4-4.2c0.7,1.5,0.4,3.5-0.8,4.8c1.4,1.3,3.3,2,5.2,1.8c1.9-0.2,3.7-1.2,4.8-2.7c-0.1,1.4,0.7,2.8,2,3.3
					c1.3,0.5,2.9,0.2,4-0.6c1.1-0.8,1.9-2.1,2.3-3.5c0.4-1.4,0.3-2.8,0.1-4.2c0.7,0.5,1.5,0.7,2.3,0.7c3.2,0,6.4-1.4,8.5-3.7
					c-1.3,1.5-1.4,4-0.1,5.6c0.8-1.7,1.4-3.6,1.6-5.5c0.3,1.6,1.5,3,3.1,3.5c0.1-1.5-0.4-3-1.4-4c1.3-0.8,2.4-2,3.1-3.4
					c0.4,2,0.9,4,1.8,5.9c0.9,1.9,2.2,3.6,4,4.5c1.8,0.9,4.2,1,5.8-0.1c1.7-1.2,2.4-3.7,1.4-5.4c-1.6,0.2-3.1-1.1-3.6-2.6
					c1.2-0.3,2.6-0.1,3.5,0.7c3.3-0.1,6.3-2.2,7.9-5c1.6-2.8,1.9-6.4,1-9.5c-0.6-1.9-1.6-3.7-2.8-5.3c3.7,2,6.7,5.7,7.8,9.8
					c1.6,6.1-1.1,13.1-6.4,16.5C405.9,198.9,406.4,204,404.5,207z"/>
			</g>
			<g>
				<path class="st4" d="M333.9,171.4c-0.7,0.9-1.8,1.5-3,1.7c-1.2,0.1-2.4-0.3-3.3-1c1.4-1,3.2-1.3,5-1.2c-1.4-0.5-2.5-1.9-2.6-3.5
					C331.7,168.1,333,169.8,333.9,171.4L333.9,171.4z"/>
			</g>
			<g>
				<path class="st4" d="M331.1,194.9c-0.5,0.7-1.3,1.1-2.1,1.2c-0.8,0.1-1.7-0.2-2.3-0.7c1-0.7,2.3-0.9,3.5-0.9
					c-1-0.4-1.7-1.4-1.8-2.5C329.6,192.6,330.5,193.8,331.1,194.9L331.1,194.9z"/>
			</g>
			<g>
				<path class="st4" d="M337.6,162.8c-1.6,0.2-3.2-0.3-4.4-1.3c1.2-0.5,2.6-0.5,3.8,0.1c-0.7-0.4-1.1-1.1-1.4-1.9
					c-0.3-0.7-0.4-1.6-0.6-2.3c1.4,0.8,2.4,2.2,2.8,3.8c0.1-1.2,0.7-2.3,1.5-3C339.7,159.8,338.8,161.5,337.6,162.8L337.6,162.8z"/>
			</g>
			<g>
				<path class="st4" d="M357.6,157.3c-0.7-0.8-1.1-1.8-1.1-2.8c0-1,0.5-2.1,1.2-2.8C358.4,153.5,357.8,155.5,357.6,157.3
					L357.6,157.3z"/>
			</g>
			<path class="st3" d="M146.4,264.5c-0.2,0.5-0.4,1-0.7,1.4c-1.7,3-4.6,5.1-7.9,5.9c-0.2,3.2-2.2,6.3-5,7.8
				c-2.9,1.5-6.6,1.5-9.3-0.2c-1.2,2-4.2,3.1-6.4,2.2c0.2,3.1-1.5,6.1-4.1,7.7c-2.1,1.3-4.5,1.9-7,1.9c-0.6,0-1.2-0.1-1.8-0.1
				c-1.6-0.2-3.2-0.7-4.5-1.7c-0.5-0.4-0.9-0.8-1.2-1.4c-2.6,2.4-6.4,3.3-9.8,2.5c-3.4-0.9-6.3-3.6-7.4-7c-1.4,0.4-3.1-0.1-4-1.2
				c-1-1.1-1.4-2.9-0.9-4.3c-2.9-1.3-5.2-3.9-6.1-7h0c-0.3-0.8-0.4-1.7-0.5-2.6c-0.2-4.1,2.1-8.1,5.6-10.1c8-4.5,13-12.3,21.3-16.2
				c0,0,0,0,0.1,0c8.2-3.9,17.6-5.7,26.5-4c4.8,0.9,9.2,3,13,5.8c3.4,2.5,6.4,5.7,8.8,9.2C147.3,256.4,147.8,260.8,146.4,264.5
				L146.4,264.5z"/>
			<g>
				<path class="st4" d="M146.4,264.5c-0.2,0.5-0.4,1-0.7,1.4c-1.7,0.2-3.4-0.1-4.8-1.2c-0.6,3.1-2.7,5.8-5.5,7.2
					c-2.8,1.4-6.1,1.1-8.8-0.3c-2.6,0.3-5.3-0.4-7.5-1.9c-2.2-1.5-3.6-3.8-4.3-6.3c-0.3,2-1.3,3.9-2.8,5.2c-1.5,1.3-3.6,2-5.6,1.9
					c-1.4,6.7-1.6,13.9-0.4,20.7c-0.6,0-1.2-0.1-1.8-0.1c-1.6-0.2-3.2-0.7-4.5-1.7c0-2.9-0.1-5.8-0.1-8.8c-0.6-0.4-1.1-1-1.7-1.4
					c-5.5-3.4-9.9-8.7-12.3-14.7c0.2,2.1-0.9,4.3-2.8,5.3c-1.8,1.1-4.2,0.9-5.9-0.3c-1.2,1.7-3.4,2.5-5.3,2c-0.5-0.1-1-0.3-1.4-0.6
					h0c-0.3-0.8-0.4-1.7-0.5-2.6c-0.2-4.1,2.1-8.1,5.6-10.1c8-4.5,13-12.3,21.3-16.2c0,0,0,0,0.1,0c13.2-0.8,26.5-0.2,39.6,1.8
					c3.4,2.5,6.4,5.7,8.8,9.2C147.3,256.4,147.8,260.8,146.4,264.5L146.4,264.5z"/>
			</g>
			<path class="st5" d="M104.1,250.3c1,0.1,1.9,0.1,2.9,0.2c-5.2,23-5.4,47.1-1,70.3c-3.3,0.3-6.6,0.8-9.9,1.2
				C91.7,298.2,96.1,273.1,104.1,250.3L104.1,250.3z"/>
			<path class="st5" d="M97.3,278.1c0.5-1,1.7-4.3,2.2-5.3c-6.5-5.4-10.9-13.6-12.1-22c-0.6-0.1-1.1-0.1-1.6-0.2
				C86.7,260,88.9,269.1,97.3,278.1z"/>
			<path class="st5" d="M102.1,279.6c0-1.3,0-2.6,0.1-3.9c9-1.1,17.4-6.6,21.8-14.6c0.4,0.2,0.8,0.5,1.3,0.7
				c-2.1,4.6-5.3,8.7-9.3,11.6C111.8,276.4,107,279.2,102.1,279.6L102.1,279.6z"/>
			<path class="st3" d="M151.5,256.2c-2.8,2.4-6.9,2.9-10.1,1c-1,3.9-3.2,7.7-6.6,9.9c-3.5,2.1-8.3,2.3-11.4-0.3
				c-2.6-2.2-3.7-5.9-3.5-9.3c0.2-3.4,1.3-6.8,2.6-10c-1.5,3.1-6,4.5-9.1,2.8c1.4,4.6-0.5,10.1-4.5,12.7c-4,2.7-9.7,2.4-13.5-0.6
				c-3.7-3-5.2-8.6-3.4-13.1c-1.6,2.4-6.3,2.9-8.9,1.5c0.7,3.3,1,6.9-0.4,9.9c-1.4,3.1-4.9,5.4-8.1,4.5c-2.6-0.7-4.3-2.7-5.2-5.3
				c-4.8-1.6-8.3-6.5-8.5-11.5c-0.1-2,0.4-4,1.3-5.9c1.4-2.9,3.7-5.4,6.6-6.5c-3.3-1.5-5.3-5.4-4.4-9c0.8-3.5,4.1-6.3,7.8-6.1
				c-2.1-5.1-0.5-11.5,3.9-14.8c4.3-3.4,11-3.6,15.4-0.3c2.4-1.4,5.8-0.6,7.2,1.7c1.4-1.9,3.5-3.1,5.8-3.4c2.3-0.3,4.4,0.2,6.2,1.6
				c2.4-6.1,8.6-10.6,15.2-11c6.6-0.4,13.2,3.4,16.3,9.3c3.1,5.8,2.8,13.8-1.2,19.1c2.4,0.1,4.7,0.5,6.9,1.5
				c0.7,0.3,1.3,0.7,1.9,1.2c1.3,1,2.3,2.3,2.8,3.9c0.7,2.2,0.7,5-1.1,6.6c2.2,2.9,3.9,6.4,4.1,10S154.3,253.8,151.5,256.2
				L151.5,256.2z"/>
			<g>
				<path class="st4" d="M151.5,256.2c-2.8,2.4-6.9,2.9-10.1,1c-1,3.9-3.2,7.7-6.6,9.9c-3.5,2.1-8.3,2.3-11.4-0.3
					c-2.6-2.2-3.7-5.9-3.5-9.3c0.2-3.4,1.3-6.8,2.6-10c-1.5,3.1-6,4.5-9.1,2.8c1.4,4.6-0.5,10.1-4.5,12.7c-4,2.7-9.7,2.4-13.5-0.6
					c-3.7-3-5.2-8.6-3.4-13.1c-1.6,2.4-6.3,2.9-8.9,1.5c0.7,3.3,1,6.9-0.4,9.9c-1.4,3.1-4.9,5.4-8.1,4.5c-2.6-0.7-4.3-2.7-5.2-5.3
					c-4.8-1.6-8.3-6.5-8.5-11.5c-0.1-2,0.4-4,1.3-5.9c0.2,1.1,0.5,2.2,1.1,3.1c1.6,2.5,4.5,4,7.4,3.7c-1.2-1.3-1.6-3.4-1-5.1
					c1.3,1.1,2.2,2.6,2.5,4.3c0.1-2.5,1.6-4.8,3.8-5.9c0.2,2.2-0.4,4.4-1.8,6.1c-0.7,0.9-0.8,2.4-0.8,3.5c0,1.1,0.4,2.3,1.3,3
					c1.2,0.8,2.9,0.5,3.9-0.5c1-1,1.5-2.5,1.4-3.9c0-1.4-0.4-2.8-0.8-4.2c6.2,2.2,14-0.5,18.2-5.7c-0.8,1.4-1.6,2.8-2.1,4.3
					c-0.4,1.5-0.4,3.3,0.3,4.7c0.7,1.4,2.4,2.4,3.9,2.1c-0.6,2.2,0,4.8,1.6,6.5c1-2.1,1.3-4.5,0.5-6.7c2,0.1,4.1-0.8,5.2-2.5
					c1.2-1.7,1.4-3.9,0.6-5.8c4.1,2.4,10.1,1.6,13.6-1.7c-1.1-2.1-0.8-4.8,0.6-6.7c0.8,1.7,1.2,3.5,1.1,5.4c1.2-1.3,2.6-2.5,3.8-3.8
					c-0.4,2.4-0.7,4.8-0.2,7.1c0.5,2.3,2,4.6,4.2,5.3c1.4,0.4,2.9,0.2,4.3-0.4c1.3-0.6,2.5-1.6,3.4-2.7c-1.9-1.5-2.7-4.2-1.9-6.5
					c1.6,1.2,2.6,2.9,3,4.9c0-1.8,0.7-3.7,1.9-5.1c0.4,1.4,0.6,2.9,0.5,4.3c2.1,0,3.8-1.9,4-4c0.2-2.1-0.7-4.2-1.9-5.9
					c2.7-0.3,5-2.1,5.6-4.8c0.3-1.1,0.2-2.3-0.2-3.4c1.3,1,2.3,2.3,2.8,3.9c0.7,2.2,0.7,5-1.1,6.6c2.2,2.9,3.9,6.4,4.1,10
					S154.3,253.8,151.5,256.2L151.5,256.2z"/>
			</g>
			<g>
				<path class="st4" d="M83.6,216.6c-0.8,1-2,1.7-3.3,1.8c-1.3,0.1-2.6-0.3-3.5-1.1c1.5-1.1,3.5-1.5,5.4-1.4
					c-1.6-0.6-2.7-2.1-2.8-3.8C81.2,213,82.6,214.8,83.6,216.6z"/>
			</g>
			<g>
				<path class="st4" d="M76.8,231.6c-0.6,0.7-1.4,1.2-2.3,1.3c-0.9,0.1-1.8-0.2-2.5-0.8c1.1-0.7,2.5-1,3.8-0.9
					c-1.1-0.4-1.9-1.5-2-2.7C75.1,229.1,76.1,230.4,76.8,231.6L76.8,231.6z"/>
			</g>
			<g>
				<path class="st4" d="M120.6,212.1c-1.3-1.2-2-2.8-2.1-4.5c1.2,0.6,2.2,1.8,2.6,3.2c-0.1-0.9,0.1-1.7,0.5-2.5
					c0.4-0.8,1-1.5,1.5-2.1c0.3,1.7-0.1,3.5-1.1,4.9c1-0.7,2.3-1.1,3.5-0.9C124.5,211.6,122.4,212.2,120.6,212.1L120.6,212.1z"/>
			</g>
			<g>
				<path class="st4" d="M125.6,226.9c-0.8-1.2-1.2-2.8-0.9-4.2c0.9,0.8,1.5,1.9,1.6,3.1c0.1-0.7,0.4-1.4,0.9-2
					c0.5-0.6,1.1-1,1.7-1.5c0,1.5-0.7,3-1.9,3.9c1-0.4,2.1-0.5,3.1-0.1C129,227.3,127.2,227.3,125.6,226.9L125.6,226.9z"/>
			</g>
			<g>
				<path class="st4" d="M104.7,214.4c-0.8-0.8-1.2-2-1.1-3.1c0-1.1,0.5-2.2,1.3-3C105.5,210.2,104.9,212.4,104.7,214.4z"/>
			</g>
			<g>
				<path class="st4" d="M133.4,229c-0.3-1.1-0.3-2.3,0.2-3.3c0.5-1,1.4-1.8,2.4-2.2C135.8,225.5,134.4,227.3,133.4,229z"/>
			</g>
			<path class="st3" d="M41.2,263.3c-0.4,3.6-2.1,7.1-5.2,9c-3.1,1.9-7.5,1.5-9.8-1.2c-0.7,2.8-3,5.5-5.8,6.2
				c-1.3,0.3-2.7,0.3-4-0.1c-1.5-0.4-2.8-1.2-3.8-2.4c-2.3,4.1-7,6.8-11.7,6.5c-4.7-0.2-9.1-3.3-10.9-7.7c0,0.1-0.1,0.1-0.1,0.2
				c-0.8,1.6-2.7,2.3-4.4,2c-1.8-0.4-3.3-2.1-3.4-4c-3.5,2.3-8.3,2-11.6-0.5c-3.3-2.5-4.9-7.1-3.7-11.1c-3.2-0.8-6.2-2.8-8.1-5.5
				c-0.7-1-1.3-2-1.6-3.2c-1.5-4.3-0.6-9.3,2.2-12.9c6-7.8,15.2-12.5,24.5-15.5c9.4-3,19.2-4.3,28.9-5.4c5.6-0.7,11.5-1.2,16.6,1.1
				c5.3,2.5,8.9,7.8,10.6,13.5c1.5,5.1-1.2,12.8-0.5,18.4c0.1,0.6,0.2,1.3,0.4,1.8C40.7,256.1,41.6,259.7,41.2,263.3z"/>
			<g>
				<path class="st4" d="M39.2,250.9c-1.6-0.9-3.2-1.8-4.8-2.7c-3.1,1.2-6.5,1.5-9.8,0.9c-1-0.2-2-0.5-2.8-1.1
					c-0.8-0.6-1.4-1.6-1.3-2.6c-1.6,4.4-5.7,7.6-10.3,8.2c0.2,3.5,0.2,7-0.1,10.5c7.6-2.3,14.7-6.3,20.5-11.8
					c1.2,1.6,2.3,3.2,3.5,4.8c-2.5,8.9-9.2,16.6-17.7,20.2c-1.5-0.4-2.8-1.2-3.8-2.4c-2.3,4.1-7,6.8-11.7,6.5
					c-4.7-0.2-9.1-3.3-10.9-7.7c0,0.1-0.1,0.1-0.1,0.2c0.2-7.5,1.3-15.1,3.1-22.4c-1.3-0.8-2.4-1.8-3.2-3.2
					c-2.7,2.1-6.4,2.5-9.4,0.9c-3.5,3.5-8.2,5.8-13.1,6.4c-2.9,0.3-5.9,0.1-8.7-0.7c-0.7-1-1.3-2-1.6-3.2c-1.5-4.3-0.6-9.3,2.2-12.9
					c6-7.8,15.2-12.5,24.5-15.5c9.4-3,19.2-4.3,28.9-5.4c5.6-0.7,11.5-1.2,16.6,1.1c5.3,2.5,8.9,7.8,10.6,13.5
					C41.1,237.6,38.4,245.3,39.2,250.9z"/>
			</g>
			<path class="st5" d="M32.2,255.9c-0.5-0.2-0.8-0.3-1.2-0.4c-5.3,9-15,14.8-25.3,14.9c0.1-14.3,2-28.6,6-42.4
				c-2.4,0.1-4.8,0.2-7.2,0.2c-13.4,31.2-16.8,68-10.8,101.5c6.8-2.5,13.8-4.7,20.9-6.4c-5.3-15-8.2-30.9-8.8-46.8
				C17.5,274.9,27.4,266.9,32.2,255.9L32.2,255.9z"/>
			<path class="st3" d="M70.3,203.9c-0.1,6.1-1.5,12.4-5.1,17.4c-3.6,5-9.5,8.5-15.6,8.1c2,0.2,3.7,2.4,4.2,4.4c0.5,2-0.3,4.2-2,5.3
				c4-1.4,8.8,1.1,10.5,4.9c1.8,3.8,0.6,8.7-2.5,11.6c-3.1,2.8-7.9,3.6-11.9,2.2c-1.5,1.9-3.5,3.9-5.8,4.8c-2.3,0.9-5,1-7.2-0.2
				c-2.2-1.1-3.7-3.5-3.5-6c-3.1-0.7-5.8-3.2-6.7-6.2c-0.9-3.1-0.5-6.4,0.5-9.4c1.1-3,2.7-5.8,4.4-8.5c-2.5,0.5-5.3,0-7.5-1.3
				c-1.4-0.9-3.3-2.1-4.6-3.6c2.4,5,2,11.3-1.1,15.9c-3.7,5.4-11,8-17.2,6.2c-5.9-1.7-10.4-7.1-11.2-13.2c-0.1,2.2-1.8,4.4-3.9,5.1
				c-2.6,0.7-5.5-0.8-6.4-3.3c0.7,2.8-1.3,5.6-3.7,7.2c-5.3,3.7-12.9,3.9-18.2,0.3c-5.4-3.6-8.2-10.7-6.8-17c-2.8,0.6-5.4-1-6.5-3.8
				c-1-2.7,0.2-6.1,2.7-7.5c-3.9-2-6.3-6.5-6-10.9c0.2-2.7,1.3-5.3,3-7.5c1.1-1.3,2.3-2.5,3.7-3.5c3.7-2.5,8.3-3.4,12.7-3.1
				c-1.6-1.7-1.9-4.5-0.4-6.4c1.5-1.9,4.4-2.4,6.5-1.2c-1.1-3.5,0.5-7.5,3.7-9.4c3.1-1.9,7.2-1.9,10.6-0.6c2.5,0.9,4.7,2.5,6.7,4.3
				c-0.5-1-0.7-2.3-0.4-3.4c0.6-2.1,2.9-3.5,5-3.1c-0.4-1.9-0.8-3.4-0.7-5.3c0.1-1.9,0.6-3.9,1.9-5.4c1.6-1.9,4.4-2.8,6.9-2.4
				c2.5,0.3,4.8,1.7,6.5,3.6c0.4-4.2,4.2-7.7,8.3-8.5s8.5,0.8,11.5,3.7c3,2.9,4.7,7,5.2,11.2c0.6,4.2,0,8.4-0.9,12.5
				c1.4-2.5,4.8-3.2,7.4-2c2.6,1.2,4.2,3.9,4.9,6.7c4-2.2,8.3-3.5,12.8-3.1c2.2,0.1,4.4,0.7,6.4,1.6c2.2,1,4.1,2.4,5.6,4.2
				C69.4,193.2,70.3,198.7,70.3,203.9z"/>
			<g>
				<path class="st4" d="M70.3,203.9c-0.1,6.1-1.5,12.4-5.1,17.4c-3.6,5-9.5,8.5-15.6,8.1c2,0.2,3.7,2.4,4.2,4.4
					c0.5,2-0.3,4.2-2,5.3c4-1.4,8.8,1.1,10.5,4.9c1.8,3.8,0.6,8.7-2.5,11.6c-3.1,2.8-7.9,3.6-11.9,2.2c-1.5,1.9-3.5,3.9-5.8,4.8
					c-2.3,0.9-5,1-7.2-0.2c-2.2-1.1-3.7-3.5-3.5-6c-3.1-0.7-5.8-3.2-6.7-6.2c-0.9-3.1-0.5-6.4,0.5-9.4c1.1-3,2.7-5.8,4.4-8.5
					c-2.5,0.5-5.3,0-7.5-1.3c-1.4-0.9-3.3-2.1-4.6-3.6c2.4,5,2,11.3-1.1,15.9c-3.7,5.4-11,8-17.2,6.2c-5.9-1.7-10.4-7.1-11.2-13.2
					c-0.1,2.2-1.8,4.4-3.9,5.1c-2.6,0.7-5.5-0.8-6.4-3.3c0.7,2.8-1.3,5.6-3.7,7.2c-5.3,3.7-12.9,3.9-18.2,0.3
					c-5.4-3.6-8.2-10.7-6.8-17c-2.8,0.6-5.4-1-6.5-3.8c-1-2.7,0.2-6.1,2.7-7.5c-3.9-2-6.3-6.5-6-10.9c0.2-2.7,1.3-5.3,3-7.5
					c-0.5,2.2-0.4,4.5,0.5,6.6c1.3,3.4,4.4,6.1,8,6.8c-0.3-2.8,1.5-5.7,4.2-6.6c1,2.7,0.5,5.9-1.8,7.8c-1.2,0.9-2,2.9-2.4,4.3
					c-0.4,1.4-0.4,3.1,0.5,4.3c0.8,1.2,2.6,1.9,3.9,1.2c-1.4,1.6-1.4,4.5-0.2,6.2c1.2-1,2-2.5,2.3-4.1c0,3.2,2.6,6.3,5.7,7.5
					c3.5,1.3,7.5,0.5,10.9-1.2c-3-2-4.3-6-2.9-9.3c2.7,1.6,4.5,4.5,4.6,7.6c0.1-3.4,1.7-6.5,4.2-8.9c0.2,3-0.7,6.2-2.5,8.6
					c0.1,2,2.2,3.7,4.2,4c2,0.3,4.1-0.6,5.6-1.9c1.5-1.4,2.6-3.1,3.5-5c-0.1,3.3,1.8,6.6,4.8,7.9c3,1.3,6.8,0.6,9.1-1.8
					c-0.7,2.2,0.8,4.8,3,5.4c0.9-2.2,0.8-4.7-0.1-6.9c3.5-3,5.1-7.9,4.5-12.5c-2.9-1.7-4.4-5.5-3.1-8.6c2.8,1.5,4.9,4.2,5.6,7.3
					c0.7,3.1,5,3.9,8.1,4.5c3.1,0.5,6.4-0.1,9.1-1.7c-1.1,2.4,0.2,5.6,2.6,6.6c0.8-2.2,1.1-4.6,0.7-6.9c1.8,1.3,4.2,1.8,6.4,1.5
					c-1.1-1.5-2.7-2.6-4.4-3.2c3.7-1.1,6.6-4.6,7.1-8.4c3.3,2.4,8.4,2.1,11.3-0.9c2.9-2.9,3.2-8,0.7-11.3c2.5-0.2,4.9-2.3,5.8-4.6
					c0.9-2.4,0.6-5.2-0.7-7.4c-0.2-0.3-0.4-0.6-0.6-0.9c2.2,1,4.1,2.4,5.6,4.2C69.4,193.2,70.3,198.7,70.3,203.9z"/>
			</g>
			<g>
				<path class="st4" d="M-2.8,211.8c1.3,0.4,2.4,1.4,3,2.6c0.6,1.2,0.7,2.7,0.2,4c-1.7-1.1-2.8-3-3.4-4.9c0,1.8-1.1,3.5-2.7,4.2
					C-5.5,215.6-4.2,213.4-2.8,211.8L-2.8,211.8z"/>
			</g>
			<g>
				<path class="st4" d="M31.5,195.2c-0.8-1.1-1.1-2.5-0.8-3.9c0.9,0.7,1.4,1.8,1.5,2.9c0.1-0.7,0.4-1.3,0.8-1.8
					c0.4-0.5,1-1,1.5-1.4c0,1.4-0.7,2.7-1.7,3.6c0.9-0.4,2-0.4,2.9-0.1C34.6,195.5,33,195.6,31.5,195.2L31.5,195.2z"/>
			</g>
			<g>
				<path class="st4" d="M9.8,173.9c-0.7-0.8-1.1-1.8-1.1-2.8c0-1,0.5-2.1,1.2-2.8C10.6,170,10,172,9.8,173.9L9.8,173.9z"/>
			</g>
			<g>
				<path class="st4" d="M37.7,202.9c-0.3-1-0.2-2.1,0.2-3c0.5-0.9,1.3-1.7,2.3-2C39.9,199.7,38.6,201.3,37.7,202.9z"/>
			</g>
		</g>
	</g>
	<g>
		<defs>
			<rect id="SVGID_00000014607236406671256410000012791550887527443103_" x="-34.1" y="284.7" width="438.9" height="88.2"/>
		</defs>
		<clipPath id="SVGID_00000102503916014934684500000012448876870406426281_">
			<use xlink:href="#SVGID_00000014607236406671256410000012791550887527443103_"  style="overflow:visible;"/>
		</clipPath>
		<g style="clip-path:url(#SVGID_00000102503916014934684500000012448876870406426281_);">
			<path class="st8" d="M47.2,313.8c-1.7,3.6-5.4,7-8.5,9.5c-1.6,0-3.1-0.1-4.7-0.1c-14.1-0.1-28.2,0.8-42.3,2.5
				c-0.9,0.1-1.8,0.2-2.6,0.3c-3.3-2.5-7.4-4.6-11.3-6c-2.1-0.7-4.2-1.3-6.1-2.6c-1.8-1.3-3.2-3.4-3-5.6c0.3-2.1,2-3.7,4-4.3
				c2-0.7,4.1-0.5,6.1-0.1c5.8,1.1,11.3,4,15.5,8.1c-3.5-3.6-6.7-7.3-10.2-10.9c-1.2-1.2-2.4-2.4-3.2-4c-0.8-1.5-1.1-3.4-0.4-4.9
				c1-2.2,3.5-3.2,5.9-3.3c4.7-0.2,9.3,2.3,12.6,5.7c3.3,3.4,5.6,7.7,7.9,11.9c-0.7-3.4,0-7,1.9-9.8c0.8-1.1,1.8-2.1,3.1-2.3
				c1.6-0.2,3,0.9,4,2.1c2.1,2.6,3.2,5.9,3,9.3c0.8-6.3,3.8-12.3,8.2-16.8c1.1-1.1,2.2-2.1,3.6-2.6c1.4-0.6,3-0.7,4.3,0
				c2,1.1,2.7,3.6,3,5.9c0.6,5.6-0.2,11.4-2.5,16.6c2.2-2.4,5.3-3.8,8.5-4.3c1-0.1,2.1-0.2,2.9,0.4C48.5,309.8,48,312.1,47.2,313.8z
				"/>
			<g>
				<path class="st9" d="M39.9,315.6c-0.2,0.5-0.5,1-0.9,1.4c-1.7,2.1-3.4,4.1-5.1,6.2c-14.1-0.1-28.2,0.8-42.3,2.5
					c-2-2.1-4-4.1-5.9-6.2c-0.7-0.7-1.5-1.7-1.1-2.6c0.4-0.9,1.5-1.1,2.5-1.1c4.1,0.1,8.1,1.6,11.3,4.2c-1.9-4.4-3.4-8.8-5.3-13.2
					c-0.3-0.6-0.5-1.2-0.4-1.9c0.2-0.9,1.2-1.4,2.2-1.4c0.9,0,1.8,0.5,2.6,1c4.8,3.1,8.7,7.5,11.2,12.7c0.4-1.9,1.2-3.6,1.6-5.5
					c0.2-0.9,0.4-1.9,1.2-2.4c0.6-0.4,1.5-0.5,2.2-0.2c0.7,0.3,1.3,0.8,1.8,1.3c1.7,1.9,2.7,4.5,2.6,7.1c1.2-4.1,3.2-7.9,5.6-11.5
					c0.6-0.9,1.3-1.8,2.1-2.4c0.9-0.6,2-1,3-0.7c1.3,0.4,2.2,1.7,2.7,3c1.6,3.7,1.8,7.9,0.6,11.7c1.6-1.6,3.6-2.8,5.7-3.6
					c0.6-0.2,1.3-0.4,1.8,0C40,314.4,40.1,315.1,39.9,315.6z"/>
			</g>
			<path class="st8" d="M265.2,313c-2.2,3.4-6.1,6.2-9.5,8.3c-1.5-0.2-3.1-0.4-4.6-0.6c-13.8-1.9-27.8-2.8-41.7-2.8
				c-0.9,0-1.8,0-2.6,0c-2.9-2.9-6.6-5.4-10.3-7.3c-1.9-1-4-1.8-5.6-3.3c-1.6-1.5-2.8-3.7-2.2-5.8c0.5-2,2.4-3.4,4.4-3.8
				c2-0.4,4.1,0,6,0.7c5.6,1.8,10.6,5.3,14.2,9.9c-2.9-3.9-5.7-8-8.7-11.9c-1-1.3-2.1-2.7-2.6-4.3c-0.6-1.6-0.7-3.4,0.2-4.9
				c1.2-2,3.9-2.7,6.2-2.5c4.7,0.4,8.8,3.4,11.6,7.2c2.8,3.8,4.6,8.2,6.2,12.6c-0.3-3.4,0.8-6.8,3.1-9.4c0.9-1,2-1.9,3.3-1.9
				c1.6,0,2.9,1.3,3.7,2.6c1.8,2.8,2.4,6.2,1.8,9.5c1.5-6.1,5.3-11.6,10.2-15.4c1.2-0.9,2.4-1.7,3.9-2.1c1.4-0.4,3-0.3,4.2,0.6
				c1.8,1.3,2.2,3.9,2.2,6.2c-0.1,5.6-1.6,11.2-4.5,16c2.5-2.1,5.6-3.1,8.8-3.2c1,0,2,0.1,2.7,0.8
				C266.9,309.3,266.2,311.5,265.2,313L265.2,313z"/>
			<g>
				<path class="st9" d="M257.8,314c-0.2,0.5-0.6,0.9-1.1,1.3c-1.9,1.8-3.8,3.6-5.8,5.4c-13.8-1.9-27.8-2.8-41.7-2.8
					c-1.7-2.3-3.4-4.5-5.1-6.8c-0.6-0.8-1.2-1.9-0.7-2.7c0.5-0.8,1.6-0.9,2.6-0.8c4,0.6,7.8,2.6,10.5,5.6c-1.4-4.5-2.2-9.1-3.6-13.6
					c-0.2-0.6-0.4-1.3-0.1-1.9c0.3-0.9,1.4-1.3,2.3-1.1c0.9,0.2,1.7,0.7,2.4,1.3c4.3,3.6,7.6,8.5,9.4,13.8c0.6-1.8,1.6-3.4,2.2-5.2
					c0.3-0.8,0.6-1.8,1.4-2.2c0.7-0.4,1.5-0.3,2.2,0.1c0.7,0.3,1.2,0.9,1.6,1.5c1.5,2.1,2.1,4.7,1.6,7.2c1.7-3.8,4.2-7.4,6.9-10.5
					c0.7-0.8,1.4-1.6,2.4-2.1c0.9-0.5,2.1-0.7,3-0.3c1.3,0.5,1.9,1.9,2.3,3.3c1.1,3.8,0.8,7.9-0.9,11.5c1.8-1.4,3.8-2.3,6-2.8
					c0.6-0.2,1.3-0.2,1.8,0.2C258,312.8,258,313.4,257.8,314L257.8,314z"/>
			</g>
			<path class="st8" d="M98.6,308c0,1.4-0.7,2.6-1.5,3.7c-1.5,2.3-4.3,3.8-6.4,5.5c-0.9,0-1.9,0-2.8,0.1c-2.9,0.1-5.8,0.3-8.7,0.7
				c-0.9,0.1-1.7,0.2-2.6,0.4c-3.6-1.3-7.4-2.9-11-4.3c-0.6-0.2-1.3-0.5-1.8-0.9c-0.5-0.4-1-1.1-1-1.8c0-1.2,1.3-2,2.4-2.4
				c3.4-1.1,7.3-0.4,10.1,1.8c-2.8-2.2-5-4.9-6.9-7.9c-0.7-1.1-1.3-2.2-1.5-3.4c-0.2-1.2,0-2.6,0.8-3.6c1.5-1.7,4.2-1.5,6.2-0.5
				c4.1,2,6.6,6.1,8.8,10.1c-0.1-4.3,0.1-8.8,2.3-12.4c1-1.6,2.6-3,4.5-2.9c1.2,0.1,2.2,0.9,2.9,1.8c0.7,1,1,2.1,1.3,3.3
				c0.9,4.1,0.5,8.4-1,12.3c0.4-0.7,0.9-1.4,1.5-2c0.6-0.5,1.4-0.9,2.3-0.7C97.8,305.2,98.6,306.6,98.6,308z"/>
			<g>
				<path class="st9" d="M94.1,310.9c0,0.5-0.4,0.9-0.8,1.2l-5.5,5.1c-2.9,0.1-5.8,0.3-8.7,0.7c-2.8-1.3-5.5-2.5-8.3-3.8
					c-0.6-0.3-1.2-0.7-1.2-1.3c0-0.4,0.3-0.7,0.6-0.8c0.3-0.2,0.7-0.2,1-0.2c2.9-0.2,5.8,0.7,8.2,2.4c-2-3-3.8-6-5.7-9
					c-0.5-0.7-0.9-1.5-0.6-2.3c0.3-0.6,0.9-0.8,1.5-0.9c1.3-0.1,2.5,0.7,3.5,1.5c2.8,2.2,5.2,4.9,7,7.9c0.1-3.3,0.7-6.7,1.6-10
					c0.2-0.6,0.3-1.2,0.7-1.8c0.4-0.5,1-0.9,1.6-0.8c1.1,0.1,1.6,1.4,1.8,2.5c0.5,3.6-0.5,7.3-1.4,10.8c0.6-0.4,0.9-1,1.4-1.5
					c0.5-0.5,1.1-0.9,1.7-0.9C93.4,309.7,94.2,310.2,94.1,310.9z"/>
			</g>
			<path class="st8" d="M391.7,321.2c-0.2,1.3-1.1,2.4-2.1,3.4c-1.9,2-4.8,3.1-7.2,4.3c-0.9-0.1-1.8-0.3-2.8-0.4
				c-2.9-0.4-5.8-0.6-8.7-0.7c-0.9,0-1.7-0.1-2.6-0.1c-3.3-1.9-6.8-4.1-10.2-6c-0.6-0.3-1.2-0.7-1.7-1.2c-0.5-0.5-0.8-1.2-0.7-1.9
				c0.2-1.2,1.6-1.8,2.8-2c3.5-0.5,7.3,0.8,9.7,3.4c-2.4-2.6-4.1-5.6-5.5-8.9c-0.5-1.2-0.9-2.4-0.9-3.6c0-1.3,0.4-2.6,1.4-3.4
				c1.7-1.4,4.4-0.8,6.2,0.5c3.7,2.6,5.5,7.1,7,11.4c0.6-4.2,1.5-8.6,4.4-11.8c1.2-1.4,3.1-2.6,4.9-2.1c1.1,0.3,2,1.2,2.6,2.3
				c0.5,1.1,0.7,2.3,0.7,3.5c0.2,4.2-0.9,8.4-3.1,12c0.5-0.6,1.1-1.3,1.8-1.7c0.7-0.4,1.6-0.6,2.3-0.3
				C391.4,318.3,392,319.8,391.7,321.2L391.7,321.2z"/>
			<g>
				<path class="st9" d="M386.8,323.3c-0.1,0.5-0.5,0.8-1,1.1c-2.1,1.4-4.1,2.8-6.2,4.1c-2.9-0.4-5.8-0.6-8.7-0.7
					c-2.5-1.7-5-3.4-7.5-5.1c-0.5-0.4-1.1-0.8-0.9-1.4c0.1-0.4,0.4-0.6,0.7-0.7c0.3-0.1,0.7-0.1,1.1-0.1c2.9,0.3,5.7,1.7,7.7,3.8
					c-1.4-3.3-2.7-6.6-4.2-9.8c-0.3-0.8-0.7-1.7-0.2-2.3c0.3-0.5,1-0.7,1.6-0.6c1.3,0.1,2.4,1.1,3.2,2c2.4,2.6,4.3,5.7,5.6,9
					c0.7-3.3,1.9-6.5,3.2-9.6c0.3-0.6,0.5-1.2,1-1.6c0.5-0.4,1.1-0.7,1.7-0.5c1,0.3,1.3,1.6,1.3,2.7c-0.1,3.7-1.7,7.1-3.2,10.4
					c0.6-0.3,1.1-0.8,1.6-1.2c0.6-0.4,1.2-0.7,1.9-0.6C386.3,322.1,387,322.7,386.8,323.3L386.8,323.3z"/>
			</g>
			<path class="st8" d="M184.1,305c-1.2,3.9-7.5,6-9.3,9.6h-2.6c-12.4,0-24.8,0-37.1,0h-2.3c-1.2-0.9-3.1-1.7-4.4-2.6
				c-0.8-0.6-1.8-1.6-1.4-2.6c0.3-0.8,1.2-1.1,2.1-1.2c1.8-0.1,3.5,0.5,4.9,1.6c-2.4-2.3-4.3-4.9-6.1-7.7c-0.9-1.4-1.8-3-1.6-4.7
				c0.4-2.4,3-3.7,5.4-3.9c3.4-0.2,6.8,1.2,9.4,3.4c2.6,2.2,4.6,5.1,6.4,8c-0.4-1.8,1.1-3.6,3-3.6c1.8-0.1,3.5,1.8,3.3,3.6
				c0.8-4.9,4.1-9.3,8.4-11.8c0.8-0.5,1.7-0.9,2.7-1c0.9-0.1,2,0.2,2.6,0.9c0.7,0.8,0.8,2,0.8,3c-0.1,3.4-1,6.7-2.6,9.6
				c0.7-0.9,2.1-1.2,3.1-0.8c1.3,0.6,1.9,2.4,1.2,3.6c2.4-3,5.7-5.2,9.1-7c1.3-0.7,2.9-1.2,4.2-0.5
				C184.3,301.9,184.5,303.6,184.1,305z"/>
			<g>
				<path class="st9" d="M178,308.1c-0.3,0.6-0.8,1.1-1.3,1.5c-1.7,1.5-3.2,3.2-4.6,5c-12.4,0-24.8,0-37.1,0c-0.4-0.5-0.9-1-1.3-1.6
					c-0.2-0.3-0.5-0.6-0.5-0.9c0-0.6,0.7-0.9,1.3-0.9c1.5-0.2,3.2,0.2,4.4,1.2c-1.8-2.3-3.5-4.7-4.4-7.5c-0.3-1-0.4-2.3,0.4-3
					c0.9-0.8,2.3-0.3,3.4,0.3c3.6,2.2,6.6,5.3,8.6,9.1c-0.4-1.5,0.2-3.2,1.5-4.1c1.3-0.9,3.2-0.9,4.5,0.1c1,0.8,1.6,2.2,1.5,3.4
					c0.7-3.1,2.4-6.3,4.7-8.5c0.4-0.4,0.9-0.8,1.4-1c0.5-0.2,1.2-0.2,1.7,0.1c0.7,0.5,0.9,1.5,0.9,2.4c0,2.8-0.5,5.7-1.6,8.3
					c0.7-1,1.5-1.8,2.5-2.5c0.7-0.5,1.6-0.9,2.3-0.5c0.6,0.3,0.9,1,0.9,1.7c0,0.7-0.3,1.3-0.5,1.9c2.8-2.3,5.7-4.2,8.8-5.9
					c0.6-0.3,1.4-0.7,2-0.3C178.2,306.7,178.3,307.5,178,308.1z"/>
			</g>
			<path class="st8" d="M342.2,315.1c-1.6,3.8-8,5.3-10.1,8.7l-2.6-0.2c-12.3-1.1-24.7-2.3-37-3.4l-2.3-0.2c-1.1-1-3-2-4.1-3
				c-0.8-0.7-1.6-1.7-1.2-2.7c0.3-0.8,1.3-1,2.2-1c1.8,0.1,3.5,0.8,4.7,2c-2.1-2.5-3.8-5.3-5.4-8.2c-0.8-1.5-1.6-3.2-1.1-4.8
				c0.6-2.3,3.3-3.4,5.7-3.4c3.4,0.1,6.7,1.8,9.1,4.3c2.4,2.4,4.1,5.5,5.6,8.6c-0.2-1.8,1.4-3.5,3.3-3.4c1.8,0.1,3.4,2.1,3,3.9
				c1.3-4.8,5-8.9,9.4-11c0.9-0.4,1.8-0.7,2.7-0.8c1,0,1.9,0.4,2.5,1.1c0.6,0.9,0.6,2,0.5,3.1c-0.4,3.3-1.6,6.6-3.4,9.4
				c0.8-0.8,2.2-1,3.2-0.5c1.3,0.7,1.7,2.5,0.9,3.7c2.6-2.8,6.1-4.7,9.6-6.1c1.4-0.6,3-1,4.2-0.1C342.7,312,342.8,313.8,342.2,315.1
				z"/>
			<g>
				<path class="st9" d="M335.9,317.7c-0.3,0.6-0.9,1-1.4,1.4c-1.8,1.4-3.5,2.9-5,4.5c-12.3-1.1-24.7-2.3-37-3.4
					c-0.4-0.6-0.8-1.1-1.2-1.7c-0.2-0.3-0.4-0.6-0.4-1c0.1-0.6,0.8-0.8,1.4-0.8c1.6-0.1,3.1,0.5,4.3,1.6c-1.5-2.5-3.1-5-3.7-7.9
					c-0.2-1-0.2-2.3,0.7-2.9c1-0.7,2.4-0.1,3.3,0.7c3.4,2.5,6.1,5.9,7.8,9.8c-0.3-1.6,0.5-3.2,1.9-3.9c1.4-0.8,3.3-0.6,4.4,0.5
					c1,0.9,1.4,2.3,1.2,3.6c1-3,3-6.1,5.4-8.1c0.5-0.4,0.9-0.7,1.5-0.9c0.6-0.2,1.2-0.1,1.7,0.2c0.7,0.5,0.7,1.6,0.7,2.4
					c-0.2,2.8-1,5.6-2.4,8.1c0.8-0.9,1.6-1.7,2.7-2.3c0.7-0.4,1.6-0.7,2.3-0.3c0.6,0.3,0.8,1.1,0.7,1.8c-0.1,0.7-0.4,1.3-0.7,1.9
					c3-2,6-3.6,9.3-5c0.7-0.3,1.5-0.5,2-0.1C336.1,316.3,336.2,317.1,335.9,317.7L335.9,317.7z"/>
			</g>
			<path class="st10" d="M404.8,336v36.9H-34.1c0-11.3,0.5-24.2,0.6-36.1c0.1-3.3,0.1-6.5,0.1-9.6c145.1-21.3,293.5-19.7,438.1,4.8
				C404.7,333.5,404.8,334.5,404.8,336z"/>
			<g>
				<path class="st11" d="M404.8,336v1.8c-0.2,0.1-0.5,0.3-0.7,0.4c-9.7,4.3-21,3.8-31.3,1.1c-10.3-2.6-20.1-7.1-30.2-10.5
					c-10.1-3.4-22.3-8.7-32-4.5c-24,10.4-35.1,8-52.7,4.1c-17.7-3.9-35.4-9.8-53.4-7.9c-21.6,2.2-40.7,15.5-62.2,19.2
					c-22.4,3.9-45.1-2.8-67.1-8.6c-22-5.8-45.6-10.6-67.1-3.1c-7.6,2.6-14.6,6.8-22.3,9c-6.3,1.8-13.4,2.2-19.3-0.4
					c0.1-3.3,0.1-6.5,0.1-9.6c145.1-21.3,293.5-19.7,438.1,4.8C404.7,333.5,404.8,334.5,404.8,336z"/>
			</g>
		</g>
	</g>
	<g>
		<defs>
			<rect id="SVGID_00000133528493497345405190000015636315119469233849_" x="-27.9" y="286.7" width="190.7" height="72.8"/>
		</defs>
		<clipPath id="SVGID_00000071558579757998603950000009546138674491434902_">
			<use xlink:href="#SVGID_00000133528493497345405190000015636315119469233849_"  style="overflow:visible;"/>
		</clipPath>
		<g style="clip-path:url(#SVGID_00000071558579757998603950000009546138674491434902_);">
			<path class="st13" d="M131.3,353.7c-4.9,0-9.8,0-14.6,0c-47,0.1-93.9,0.2-140.9,0.3c-0.1-2.4-0.7-5.2-1.5-8.1
				c-1.5-5.9-3.3-12.2-1.1-16.6c4.4-8.7,14.7-14.1,24.3-12.6c9.6,1.5,17.9,9.7,19.4,19.3c2.7-9.5,8.7-17.7,17-22.8
				c3.6-2.2,7.7-3.9,11.9-3.3c4.8,0.7,8.9,4.4,10.9,8.9c2.1,4.4,2.4,9.5,2.1,14.4c2.4-2.3,6.3-2.8,9.5-1.9c3.2,0.9,5.8,3.5,6.7,6.7
				c1.9-6.8,5.6-13,10.8-17.7c3.5-3.2,8-5.8,12.8-5.3c5,0.5,9.2,4.6,11,9.4c1.9,4.7,1.8,10,1.2,15c2.4-1.6,4.8-3.2,7.6-4
				c2.8-0.8,5.9-0.8,8.5,0.7c2.8,1.6,4.4,4.8,4.9,8C132.2,347.2,131.7,350.5,131.3,353.7z"/>
			<g>
				<path class="st14" d="M116.7,353.7c-47,0.1-93.9,0.2-140.9,0.3c-0.1-2.4-0.7-5.2-1.5-8.1C-22.6,338-14.5,332.2-6,332
					c9.5-0.1,18.7,6.9,21.2,16.1c2.4-4.1,5.1-7.9,8.7-11c3.6-3.1,8.5-5,13-3.8c5,1.3,8.5,6.1,9.8,11.1c2.8-1.7,5.3-3.5,8.3-4.6
					c3.1-1.1,6.4-1.5,9.6-0.7c3.1,0.9,6,3.2,6.9,6.3c2.7-3.1,5.9-5.8,9.4-8.1c3.4-2.3,7.7-3.6,11.7-2.6c5.5,1.3,9.4,7,9,12.7
					c2.1-1.1,4.2-2.6,6.5-3.4c2.3-0.8,5-0.9,6.9,0.6c1.4,1.1,2,2.9,2.2,4.7C117.1,350.8,116.9,352.3,116.7,353.7z"/>
			</g>
			<path class="st15" d="M6.4,342.1c-1.4-1.9-3.1-3.7-4.1-5.8c-1-2.2-1.1-5,0.6-6.7c1-1,2.6-1.4,3.7-2.3c2.8-2,3.1-6.1,2.1-9.4
				c-1-3.3-3-6.2-4.1-9.4c-1.7-4.8-1.2-10.4,1.4-14.7c2.7-4.3,7.7-7.2,12.7-7c5.1,0.2,10,3.6,11.6,8.4c2,5.9-1,12.4-4.4,17.6
				c-2.1,3.2-4.4,6.7-3.8,10.4c0.3,1.7,1.2,3.2,1.7,4.8c1.4,4.6-0.4,9.6-3.6,13.2c-2.2,2.5-5.8,5.7-9,6.8
				C7.9,349.1,8.2,344.5,6.4,342.1z"/>
			<path class="st16" d="M17.1,292.9c-0.3,22.5-4.1,44.9-11.2,66.3"/>
			<path class="st16" d="M15.5,315.3c-2.5-5.6-4.7-11.3-6.4-17.2"/>
			<path class="st16" d="M16.3,309.4c2.9-3.9,5.5-8,7.8-12.2"/>
			<path class="st16" d="M14.1,325.2c-0.9-2.9-1.9-5.7-2.8-8.6"/>
			<path class="st16" d="M13.8,328.8c1.8-1.4,3.7-2.9,5.5-4.3"/>
			<path class="st16" d="M11.4,339.7c-0.8-2.5-1.7-5.3-2.5-7.8"/>
			<path class="st16" d="M11.9,337.4c2.5-2.2,5-4.3,7.4-6.5"/>
			<path class="st15" d="M25,336.6c0.9-2.2,3.8-2.7,5.4-4.5c2.7-3.2-0.1-8.2,1.4-12.1c0.9-2.3,3.1-3.8,5.3-4.9
				c2.2-1.1,4.5-2,6.3-3.8c2.5-2.6,3.1-6.6,5.2-9.5c2.7-3.8,7.4-5.5,12-5.9c3.5-0.2,7.3,0.4,9.9,2.7c2.6,2.4,3.5,6.2,2.7,9.6
				c-0.8,3.4-3.2,6.3-6.1,8.2c-2.3,1.4-5,2.4-6.4,4.6c-1.4,2.3-1,5.3-1.8,8c-0.8,2.8-3.2,5.1-6,5.9c-1.8,0.5-3.7,0.4-5.6,0.7
				c-1.9,0.3-3.8,1.1-4.7,2.7c-1,1.8-0.5,4.1-1.7,5.8c-1.1,1.5-3.1,1.9-5,2.2c-2.3,0.3-8.1,2.4-9.5,0c-0.7-1.2-0.5-3.2-0.9-4.5
				C25,340.1,24.3,338.4,25,336.6L25,336.6z"/>
			<path class="st16" d="M63.5,301.5c-14,19.2-28.8,37.8-44.4,55.7"/>
			<path class="st16" d="M53,315.5c0.7-4.1,1.2-8.2,1.5-12.4"/>
			<path class="st16" d="M56.8,310.7c3.1-0.5,6.2-1.1,9.3-1.8"/>
			<path class="st16" d="M45.8,324.9c0.2-3.2,0.5-6.4,0.7-9.6"/>
			<path class="st16" d="M49,320.9c2.9-0.5,5.8-0.9,8.7-1.4"/>
			<path class="st16" d="M37.2,335.4c0-3.8,0.2-7.5,0.7-11.2"/>
			<path class="st16" d="M39.2,333.2c4.5-0.6,9.1-1.3,13.5-2.2"/>
			<path class="st16" d="M32,341.9c0.1-1.9,0.2-3.8,0.1-5.6"/>
			<path class="st15" d="M138.2,315.8c0.2-10.7,7-20.5,16.8-24.8c1,5.4-0.1,11.1-2.6,16C150,311.9,143,313.4,138.2,315.8
				L138.2,315.8z"/>
			<path class="st16" d="M151.3,297.7c-13.4,20.6-30.2,38.9-49.7,53.9"/>
			<path class="st15" d="M134.2,324.3c7.1-6.8,18.5-10.3,28.6-8.7c-2.8,3.9-7.3,7.1-12.3,9.1C145.5,326.8,139.4,325,134.2,324.3z"/>
			<path class="st16" d="M156.4,317.7c-8.2,3.6-16.9,6.1-25.8,7.2"/>
			<path class="st15" d="M128.6,325.1c-1.9-8.8,0.8-19.5,6.8-26.6c1.7,4,2,9.1,1.2,14C135.9,317.4,131.6,321.3,128.6,325.1
				L128.6,325.1z"/>
			<path class="st16" d="M134,304.5c-1.1,8.2-3.3,16.2-6.7,23.7"/>
			<path class="st15" d="M118.5,335.5c-1.6-7.5,0.7-16.6,5.8-22.8c1.5,3.4,1.7,7.8,1.1,12C124.7,328.9,121,332.3,118.5,335.5z"/>
			<path class="st16" d="M123.1,317.9c-0.9,7-2.8,13.8-5.7,20.2"/>
			<path class="st15" d="M108.6,344.7c-1.3-5.9,0.5-13.1,4.6-17.9c1.1,2.7,1.4,6.1,0.8,9.4C113.5,339.5,110.6,342.1,108.6,344.7
				L108.6,344.7z"/>
			<path class="st16" d="M112.2,330.8c-0.7,5.5-2.2,10.9-4.5,15.9"/>
			<path class="st15" d="M110.5,345.7c3.9-4.6,10.7-7.4,17-7.1c-1.5,2.5-4.1,4.8-7,6.3C117.6,346.5,113.8,345.8,110.5,345.7z"/>
			<path class="st16" d="M123.8,340.3c-4.8,2.7-10,4.7-15.4,5.9"/>
			<path class="st15" d="M120.1,337.4c4.9-5.9,13.5-9.7,21.5-9.4c-1.8,3.3-5.1,6.2-8.8,8.2C129.1,338.3,124.2,337.4,120.1,337.4z"/>
			<path class="st16" d="M136.8,330.2c-6,3.6-12.6,6.3-19.4,7.9"/>
		</g>
	</g>
</g>
</svg>
