<?xml version="1.0" encoding="utf-8"?>
<!-- Generator: Adobe Illustrator 28.2.0, SVG Export Plug-In . SVG Version: 6.00 Build 0)  -->
<svg version="1.1" id="Layer_1" xmlns="http://www.w3.org/2000/svg" xmlns:xlink="http://www.w3.org/1999/xlink" x="0px" y="0px"
	 viewBox="0 0 1920 1000.9" style="enable-background:new 0 0 1920 1000.9;" xml:space="preserve">
<style type="text/css">
	.st0{clip-path:url(#SVGID_00000114034070823681701790000002049663818090535552_);}
	.st1{fill:#FFE501;}
	.st2{clip-path:url(#SVGID_00000068640387044406516670000001254741608482931646_);}
	.st3{fill:#FFB300;}
	.st4{fill:#632424;}
	.st5{fill:#83A532;}
	.st6{fill:#6D8F22;}
	.st7{fill:#677446;}
	.st8{fill:#83A531;}
	.st9{fill:#91B13B;}
	.st10{fill:#9DBC43;}
	.st11{opacity:0.2;}
	.st12{fill:#FFFFFF;}
	.st13{fill:#98D3C5;}
	.st14{fill:#DDEDE8;}
	.st15{fill:#642424;}
	.st16{opacity:0.5;}
	.st17{fill:#803334;}
	.st18{fill:#4A1818;}
	.st19{fill:#551615;}
	.st20{fill:#414A2B;}
	.st21{fill:#2E351D;}
	.st22{fill:#B73835;}
	.st23{fill:#D84E4E;}
	.st24{fill:#A5AE76;}
</style>
<g>
	<defs>
		<rect id="SVGID_1_" x="1091.6" y="509.2" width="519.2" height="519.2"/>
	</defs>
	<clipPath id="SVGID_00000014630825633257545210000014771913831169979579_">
		<use xlink:href="#SVGID_1_"  style="overflow:visible;"/>
	</clipPath>
	<g style="clip-path:url(#SVGID_00000014630825633257545210000014771913831169979579_);">
		<path class="st1" d="M1604.6,825.4c31.3-139.9-56.8-278.7-196.8-310c-139.9-31.3-278.7,56.9-310,196.8
			c-31.3,139.9,56.9,278.7,196.8,310C1434.5,1053.5,1573.3,965.3,1604.6,825.4z"/>
	</g>
</g>
<g>
	<defs>
		<rect id="SVGID_00000104672121301508268190000017646280552762931365_" x="1122.2" y="539.9" width="457.9" height="457.9"/>
	</defs>
	<clipPath id="SVGID_00000096061099646060508480000006523415880842762883_">
		<use xlink:href="#SVGID_00000104672121301508268190000017646280552762931365_"  style="overflow:visible;"/>
	</clipPath>
	<g style="clip-path:url(#SVGID_00000096061099646060508480000006523415880842762883_);">
		<path class="st3" d="M1574.7,818.7c27.6-123.4-50.1-245.8-173.6-273.4c-123.4-27.6-245.8,50.1-273.4,173.6
			c-27.6,123.4,50.1,245.8,173.6,273.4C1424.7,1019.8,1547.1,942.1,1574.7,818.7z"/>
	</g>
</g>
<path class="st4" d="M1625.8,613c-14.8-64.2-16.2-130.7-2-195.1c-1.4-0.1-2.5,0.1-3.8,0.1c-7.3,19.4-11.3,40.2-12.2,60.8
	c-0.5-18.1-1.7-36.2-3.9-54.1c-1.2,0.1-2.4,0.3-3.5,0.4c2.2,61.7,1.2,123.4-3.2,185L1625.8,613z"/>
<path class="st5" d="M1713.2,326.6c7.9-0.2,16,4.1,19.8,11.1c4.5,8.1,3,19.1-3.5,25.7c-6.5,6.6-17.4,8.4-25.6,4.1
	c14,11.9,22.9,29.6,24.4,47.9c0.7,9.6-0.7,19.7-6.3,27.5c-8,11-22.9,15.1-36.5,13.6c-13.5-1.5-26-7.7-38.2-13.8
	c-0.9,4.8-5.8,8.5-10.7,7.9c-3.8-0.4-7.2-3.4-8.3-7.1c0.3,7.9-5.9,15.6-13.7,17.6c-8.8,2.2-18.4-2.1-24.1-9.2
	c-5.7-7.1-7.8-16.5-7.7-25.5c-1,4.6-5.5,8.3-10.3,8.2c-4.8-0.1-10.4-3.9-11.3-8.6c-0.1,9.7-8.6,18.5-18.2,19.1
	c-9.7,0.6-19.1-7.3-20.3-16.9c-3,2.7-8.2,2.8-11.2,0.1c-3.1-2.7-3.7-7.8-1.4-11.1c-9.9,4.1-22.3-1.5-27.1-11.2
	c-4.8-9.6-2.5-21.8,4.3-30.2c6.8-8.3,17.4-13,28.1-14c-3.1-9.2,2.9-20.3,12.3-22.8c-9.5-3.1-20-7.1-23.8-16.3
	c-3.9-9.4,1.7-20.3,10.2-26.2c0.9-0.6,1.8-1.2,2.8-1.7c10-5.2,21.7-5.3,33-5.2c-4-6.5-2.3-15.8,3.7-20.5
	c-14.2-6.1-20.9-25.3-13.6-38.9c7.3-13.6,27-18.6,39.9-10.1c-1.2-4.4,1.1-9.6,5.2-11.7c4.1-2.1,9.6-0.9,12.5,2.7
	c-3-8.2-4.1-17.2-1.8-25.6s8.3-16,16.4-19c6.3-2.3,13.8-1.5,19.3,2.3c14.2-4.4,31-0.3,40.8,11.1c11.8,13.6,11.8,35.9,0.1,49.6
	c8.4-1.2,17.2,4,20.3,11.8c3,7.5,0.4,16.8-5.8,21.8c8.1-5.9,18.7-7.9,28.5-5.9c4.3,0.9,8.4,2.5,12,5c12.3,8.2,18.4,24.7,14.5,38.9
	C1738.3,314.2,1726.6,324.4,1713.2,326.6L1713.2,326.6z"/>
<g>
	<path class="st6" d="M1713.2,326.6c7.9-0.2,16,4.1,19.8,11.1c4.5,8.1,3,19.1-3.5,25.7c-6.5,6.6-17.4,8.4-25.6,4.1
		c14,11.9,22.9,29.6,24.4,47.9c0.7,9.6-0.7,19.7-6.3,27.5c-8,11-22.9,15.1-36.5,13.6c-13.5-1.5-26-7.7-38.2-13.8
		c-0.9,4.8-5.8,8.5-10.7,7.9c-3.8-0.4-7.2-3.4-8.3-7.1c0.3,7.9-5.9,15.6-13.7,17.6c-8.8,2.2-18.4-2.1-24.1-9.2
		c-5.7-7.1-7.8-16.5-7.7-25.5c-1,4.6-5.5,8.3-10.3,8.2c-4.8-0.1-10.4-3.9-11.3-8.6c-0.1,9.7-8.6,18.5-18.2,19.1
		c-9.7,0.6-19.1-7.3-20.3-16.9c-3,2.7-8.2,2.8-11.2,0.1c-3.1-2.7-3.7-7.8-1.4-11.1c-9.9,4.1-22.3-1.5-27.1-11.2
		c-4.8-9.6-2.5-21.8,4.3-30.2c6.8-8.3,17.4-13,28.1-14c-3.1-9.2,2.9-20.3,12.3-22.8c-9.5-3.1-20-7.1-23.8-16.3
		c-3.9-9.4,1.7-20.3,10.2-26.2c-0.9,5.4,0.4,11.4,3.9,15.7c6.5,8.2,18.7,10.5,28.4,6.8c-2.1,2.8-2.5,6.8-1.1,9.9
		c1.5,3.2,4.8,5.4,8.3,5.6c-9.7,4.2-14.7,16.9-10.6,26.7c4.2,9.8,16.9,14.8,26.6,10.7c-3.4-4-4.2-10.4-2.6-15.4
		c5.1,3,9.1,8.2,10.3,14c2-6.4,6.9-12,13-14.8c1.5,5.9-0.6,12.6-5.2,16.7c2.3,5.9,8.4,10.2,14.7,10.1c6.4-0.1,12.4-4.6,14.5-10.6
		c3,2.8,7.3,5.1,11,3.5c2.9-1.2,4.6-4.2,5.6-7.1c2.7-7.4,3-15.5,1-23.1c5.4,3.5,11.6,5.6,18,5.6c2.1,0,4.6-0.3,5.8-2.1
		c1-1.3,1-3,0.6-4.5c-0.4-1.5-1.3-2.9-2.2-4.2c3.6,3.5,10.1,3.5,13.7,0c2.9-2.8,3.8-7.1,3.8-11.1c0-8.7-3.6-17.4-9.8-23.5
		c3.2,3.3,9.3,2.3,13.4,0.3c4.1-2,6.7-6.8,6-11.4c3,7.1,13.2,8.8,19.8,5c6.7-3.9,10.3-11.4,12.3-18.9c2-7.6,2.6-15.5,1.8-23.4
		c4.3,0.9,8.4,2.5,12,5c12.3,8.2,18.5,24.7,14.5,38.9C1738.3,314.2,1726.5,324.4,1713.2,326.6L1713.2,326.6z"/>
</g>
<path class="st7" d="M1574.1,596.5c-2.4,1.7-6.2,0-7.1-2.8c-0.9-2.8,0.7-6.1,3.3-7.6c2.6-1.5,5.7-1.6,8.6-0.9
	c-4.4-3.1-6.6-8.9-5.4-14.1c1.2-5.2,5.8-9.5,11-10.3c5.3-0.9,10.9,1.7,13.8,6.3c0.1-5.1,0.2-10.2,1.4-15.1c1.2-4.9,3.4-9.8,7.2-13.1
	c3.8-3.3,9.3-5,14.1-3.4c4.8,1.6,8.1,5.9,9.8,10.7c1.6,4.7,1.8,9.8,1.9,14.8c1.4-1.7,4.6-2.2,6.6-1.4c2,0.8,3.5,2.9,3.4,5.1
	c2.1-2.3,4.4-4.6,7.1-6.3c2.7-1.7,6-2.5,9.1-1.9c5,1.1,8.3,6.1,9.1,11.1c0.8,5-0.4,10.1-1.6,15
	C1632.8,586.6,1601.7,577.4,1574.1,596.5L1574.1,596.5z"/>
<path class="st4" d="M1752.8,592.6c-10.6-46-11.6-93.6-1.4-139.6c-1,0-1.8,0.1-2.7,0.1c-5.2,13.8-8.1,28.8-8.8,43.5
	c-0.3-13-1.2-25.9-2.8-38.7c-0.8,0.1-1.7,0.2-2.5,0.3c1.6,44.1,0.8,88.3-2.3,132.4L1752.8,592.6L1752.8,592.6z"/>
<path class="st5" d="M1833.7,408.7c-3.4,4.7-9,7.3-14.7,8.2c-5.7,0.9-11.5,0.3-17.3-0.3c2.1,4.6,1.1,10.5-2.3,14.3
	c-3.5,3.7-8.6,4.9-13.4,3.2c2.1,3.9,4.2,7.9,5.1,12.3c0.9,4.4,0.3,9.2-2.5,12.7c-2.7,3.3-7.3,4.9-11.5,4.5
	c-4.3-0.5-8.3-2.8-11.2-5.9c1.5,3.3-0.8,7.6-4.3,8.8c-3.5,1.2-7.4,0.1-10.4-2.1c-3-2.2-5.1-5.3-7.1-8.4c1.6,5.5-2.8,11.5-8.3,12.8
	c-5.6,1.3-11.5-1.4-15.3-5.7c-3.8-4.3-5.6-9.9-6.7-15.5c-2,0.6-4.2-0.1-5.5-1.7c-1.3-1.6-1.6-3.9-0.7-5.7
	c-4.7,3.6-10.6,5.8-16.4,5.2c-5.8-0.6-11.5-4.3-13.6-9.8s0-12.5,5.2-15.3c-2.7,0.4-5.3-3.6-4-6c-6.9,2.1-15.1-0.8-19.3-6.7
	c-4.2-6-4-14.6,0.3-20.4c4.3-5.8,12.6-8.4,19.5-6.1c-4.6-4.3-8.5-9.4-10.5-15.3c-2-5.9-1.9-12.7,1.3-18.2c0.3-0.5,0.5-0.9,0.9-1.3
	c3.4-4.6,9.3-7.5,14.9-6.5c-1.2-2.5-0.9-5.6,0.7-7.9c1.7-2.2,4.9-3.3,7.6-2.8c-4.5-4.5-4.4-12.7,0.1-17.2c4.6-4.5,12.8-4.4,17.2,0.2
	c-2.1-2.7,0.3-7,3.6-7.8c3.3-0.8,6.8,1.1,9.1,3.5c2-7.4,4-15,8.3-21.4c4.3-6.4,11.3-11.5,18.9-11.4c6.5,0.1,12.8,4.1,15.6,10
	c2.8,5.9,1.9,13.3-2.1,18.4c6.4-3.3,14.6-5,19.2,0.6c4.5,5.6,4.5,14.5-0.1,20c4.1-2.7,9.8-1.9,13.7,1.1c0,0,0.1,0.1,0.1,0.1
	c3.7,3,5.7,7.9,6.1,12.7c0.4,4.9-0.7,9.7-2.1,14.4c4.1-0.3,8.2,2.5,9.4,6.5c1.1,4-0.9,8.6-4.6,10.4c7.4-0.7,15,1.6,20.7,6.3
	c5.7,4.8,9.4,11.8,10,19.2C1837.5,399.6,1836.5,404.8,1833.7,408.7L1833.7,408.7z"/>
<g>
	<path class="st6" d="M1833.7,408.7c-3.4,4.7-9,7.3-14.7,8.2c-5.7,0.9-11.5,0.3-17.3-0.3c2.1,4.6,1.1,10.5-2.3,14.3
		c-3.5,3.7-8.6,4.9-13.4,3.2c2.1,3.9,4.2,7.9,5.1,12.3c0.9,4.4,0.3,9.2-2.5,12.7c-2.7,3.3-7.3,4.9-11.5,4.5
		c-4.3-0.5-8.3-2.8-11.2-5.9c1.5,3.3-0.8,7.6-4.3,8.8c-3.5,1.2-7.4,0.1-10.4-2.1c-3-2.2-5.1-5.3-7.1-8.4c1.6,5.5-2.8,11.5-8.3,12.8
		c-5.6,1.3-11.5-1.4-15.3-5.7c-3.8-4.3-5.6-9.9-6.7-15.5c-2,0.6-4.2-0.1-5.5-1.7c-1.3-1.6-1.6-3.9-0.7-5.7
		c-4.7,3.6-10.6,5.8-16.4,5.2c-5.8-0.6-11.5-4.3-13.6-9.8s0-12.5,5.2-15.3c-2.7,0.4-5.3-3.6-4-6c-6.9,2.1-15.1-0.8-19.3-6.7
		c-4.2-6-4-14.6,0.3-20.4c4.3-5.8,12.6-8.4,19.5-6.1c-4.6-4.3-8.5-9.4-10.5-15.3c-2-5.9-1.9-12.7,1.3-18.2c0.3-0.5,0.5-0.9,0.9-1.3
		c-0.5,2.3-0.2,4.9,0.8,7c2.1,4.4,6.6,7.3,11.4,8.4c4.8,1.1,9.7,0.5,14.5-0.5c-2.8,1.7-4.2,5.3-3.4,8.4c0.8,3.1,3.9,5.5,7.1,5.6
		c-4.5,4.5-9,9.1-11.5,14.9c-2.4,5.8-2.3,13.2,2,17.8c3.3,3.4,8.4,4.7,13,3.7c4.6-1,8.6-4.1,11.3-7.9c0.5,2.5,1,4.9,1.5,7.4
		c1-0.6,2-1.2,2.9-1.9c-0.4,3.9,2.6,7.7,6.3,8.7c3.8,1,8-0.4,10.7-3.2c2.7-2.8,4-6.8,4.1-10.7c0.1-3.9-1-7.8-2.4-11.4
		c2,1.9,5.8,1.8,7.9,0c2.1-1.7,2.8-5.1,1.4-7.5c4.7,3.7,11.9,3.7,16.6,0.1c4.7-3.7,6.5-10.7,4-16.2c1.6,3,5.6,3.6,8.6,2
		c1.1-0.6,2.1-1.7,2.3-2.9c0.1-0.8-0.1-1.7-0.7-2.4c1.4,0.6,3.1,0.3,4.3-0.5c1.6-1.1,2.6-2.9,3.1-4.8c1.1-3.8,0.6-7.9-1.3-11.3
		c-1.7-3-4.5-5.4-7.7-6.7c3.1,0.8,6.5-0.1,9.4-1.7c5.7-3.2,9.6-9.3,10.5-15.8c3.7,3,5.7,7.9,6.1,12.7c0.4,4.9-0.7,9.7-2.1,14.4
		c4.1-0.3,8.2,2.5,9.4,6.5c1.1,4-0.9,8.6-4.5,10.4c7.4-0.7,15,1.6,20.7,6.3c5.7,4.8,9.4,11.8,10,19.2
		C1837.4,399.6,1836.5,404.7,1833.7,408.7L1833.7,408.7z"/>
</g>
<path class="st8" d="M2240.2,597.1l-0.4,17l-3.2,128.6l-2.9,116.7H-5c-6.8,0-11.3-2.1-18.1-2.1V752.9c0-0.8,7.1,4.7,7.1,4
	c398.8,27.5,801.6-1.3,1192.1-85c176.3-37.8,350.5-86.8,529.3-111.3c152.1-20.9,309.6-23.3,457.8,13.5
	C2189.2,580.4,2214.9,588.1,2240.2,597.1z"/>
<g>
	<path class="st9" d="M2240.2,597.1l-0.4,17c-229.2-57.7-472.1-44.7-703.6,4.5c-236.8,50.3-464,137.2-690,223.9
		c-16.7,6.4-33.5,12-50.5,16.9H-5c-6.8,0-11.3-2.1-18.1-2.1V752.9c0-0.8,7.1,4.7,7.1,4c398.8,27.5,801.6-1.3,1192.1-85
		c176.3-37.8,350.5-86.8,529.3-111.3c152.1-20.9,309.6-23.3,457.8,13.5C2189.2,580.4,2214.9,588.1,2240.2,597.1z"/>
</g>
<g>
	<path class="st10" d="M2163.2,574c-162.3-23.7-328.9-14.2-490.9,13.1c-185.4,31.2-366.1,85.3-546.2,139.2
		C977.9,770.6,829.7,815,681.5,859.4H-5c-6.8,0-11.3-2.1-18.1-2.1V752.9c0-0.8,7.1,4.7,7.1,4c398.8,27.5,801.6-1.3,1192.1-85
		c176.3-37.8,350.5-86.8,529.3-111.3C1857.5,539.6,2015,537.2,2163.2,574z"/>
</g>
<g>
	<path class="st6" d="M2050.9,757.6c1-7.3,1.4-15.1-2.1-21c-4.4-7.5-11.2-13.1-19.4-16c-0.1,13.8,5.5,27.4,14.9,37.5
		c-184.1,13.7-368.4,24.1-552.9,31.2c2.5-2.3,4.6-4.8,5.8-7.5c3.3-7.1,4.2-15.3,1.7-22.8c-8.9,4.4-15.2,13.5-16.5,23.4
		c-6.2-10-17.7-16.1-29.5-16.3c2.5,9.2,7.7,17.6,14.6,24.1c-496.8,18.5-994.4,13.3-1490.7-15.7v82.7c6.8,0,11.3,2.1,18.1,2.1h2238.7
		l2.9-116.7C2174.7,748,2112.8,753,2050.9,757.6L2050.9,757.6z"/>
</g>
<g class="st11">
	<path class="st12" d="M1655.2,607.7c0,3.2-5.7,5.7-12.7,5.7s-12.8-2.6-12.8-5.7s5.7-5.7,12.8-5.7S1655.2,604.5,1655.2,607.7z"/>
	<path class="st12" d="M1672.2,616.9c0,2-3.6,3.6-7.9,3.6c-4.4,0-7.9-1.6-7.9-3.6c0-2,3.6-3.6,7.9-3.6
		C1668.6,613.4,1672.2,614.9,1672.2,616.9z"/>
	<path class="st12" d="M1408.4,720.7c0,2-3.6,3.6-7.9,3.6c-4.4,0-7.9-1.6-7.9-3.6c0-2,3.6-3.6,7.9-3.6
		C1404.8,717.1,1408.4,718.7,1408.4,720.7z"/>
	<path class="st12" d="M1670.7,607.7c2.7,0,4.8-1,4.8-2.2s-2.1-2.2-4.8-2.2c-2.6,0-4.8,1-4.8,2.2S1668.1,607.7,1670.7,607.7z"/>
	<path class="st12" d="M1361.7,702.4c0,1.2-2.1,2.2-4.8,2.2s-4.8-1-4.8-2.2c0-1.2,2.2-2.2,4.8-2.2S1361.7,701.2,1361.7,702.4z"/>
	<path class="st12" d="M1902.7,663.9c0,1.2-2.1,2.2-4.8,2.2c-2.7,0-4.8-1-4.8-2.2c0-1.2,2.1-2.2,4.8-2.2
		C1900.5,661.7,1902.7,662.7,1902.7,663.9z"/>
</g>
<path class="st13" d="M2218.3,804.6H-44.5V1355h2262.9V804.6z"/>
<g class="st11">
	<path class="st12" d="M2219.8,804.6v239.1c-69.9-9.5-139.1-33.6-204.7-60.3c-109.4-44.7-218.1-98.3-335.7-108.7
		c-262.5-23.3-510.9,171.7-772.2,136.7c-117.7-15.8-223.6-77-335.3-117.5c-196.1-71.2-415-77.4-615-18.1v-71.2H2219.8z"/>
</g>
<g class="st11">
	<path class="st12" d="M2219.8,804.6V923c-163.3-4.8-331.2-68.2-497.9-79.1c-313-20.4-628.9,145.7-932.2,65.6
		c-50.5-13.3-99-33.3-149-48.4c-220.2-66.6-455.5-37-683.7,0.6v-57H2219.8z"/>
</g>
<g>
	<path class="st14" d="M2219.8,1081.1V1355H-43.1v-349.8C709.6,1063.5,1464.9,1088.8,2219.8,1081.1z"/>
</g>
<g class="st11">
	<path class="st12" d="M1659.6,893.8c0,4.1-9.6,7.4-21.4,7.4s-21.4-3.3-21.4-7.4c0-4.1,9.6-7.4,21.4-7.4S1659.6,889.7,1659.6,893.8z
		"/>
	<path class="st12" d="M1415.7,1015.2c11.8,0,21.4-3.3,21.4-7.4c0-4.1-9.6-7.4-21.4-7.4c-11.8,0-21.4,3.3-21.4,7.4
		C1394.3,1011.9,1403.9,1015.2,1415.7,1015.2z"/>
	<path class="st12" d="M1687.1,904.5c0,1.8-4.2,3.2-9.4,3.2c-5.2,0-9.4-1.4-9.4-3.2s4.2-3.2,9.4-3.2
		C1682.9,901.2,1687.1,902.7,1687.1,904.5z"/>
	<path class="st12" d="M1470.4,955.9c0,1.8-4.2,3.2-9.4,3.2c-5.2,0-9.4-1.4-9.4-3.2s4.2-3.2,9.4-3.2
		C1466.2,952.7,1470.4,954.1,1470.4,955.9z"/>
	<path class="st12" d="M503.7,918c0,1.8-4.2,3.2-9.4,3.2c-5.2,0-9.4-1.4-9.4-3.2c0-1.8,4.2-3.2,9.4-3.2
		C499.5,914.7,503.7,916.2,503.7,918z"/>
	<path class="st12" d="M566.8,965.6c0,1.8-4.2,3.2-9.4,3.2c-5.2,0-9.4-1.4-9.4-3.2c0-1.8,4.2-3.2,9.4-3.2
		C562.6,962.4,566.8,963.8,566.8,965.6z"/>
	<path class="st12" d="M1677.7,974c0,1.8-4.2,3.2-9.4,3.2c-5.2,0-9.4-1.4-9.4-3.2c0-1.8,4.2-3.2,9.4-3.2
		C1673.5,970.7,1677.7,972.2,1677.7,974z"/>
	<path class="st12" d="M1642.8,912.6c0,1.2-2.7,2.1-6.1,2.1c-3.4,0-6.1-1-6.1-2.1c0-1.2,2.7-2.1,6.1-2.1
		C1640.1,910.5,1642.8,911.5,1642.8,912.6z"/>
	<path class="st12" d="M1748.6,931.5c0,1.2-2.7,2.1-6.1,2.1s-6.1-1-6.1-2.1c0-1.2,2.7-2.1,6.1-2.1S1748.6,930.3,1748.6,931.5z"/>
	<path class="st12" d="M1693.2,985.6c3.4,0,6.1-0.9,6.1-2.1c0-1.2-2.7-2.1-6.1-2.1c-3.4,0-6.1,0.9-6.1,2.1
		C1687.1,984.7,1689.8,985.6,1693.2,985.6z"/>
	<path class="st12" d="M1500.9,952.7c0,1.2-2.7,2.1-6.1,2.1c-3.4,0-6.1-1-6.1-2.1c0-1.2,2.7-2.1,6.1-2.1
		C1498.2,950.6,1500.9,951.5,1500.9,952.7z"/>
	<path class="st12" d="M546.5,946.4c0,1.2-2.7,2.1-6.1,2.1s-6.1-1-6.1-2.1c0-1.2,2.7-2.1,6.1-2.1S546.5,945.3,546.5,946.4z"/>
	<path class="st12" d="M357.7,894.2c0,1.2-2.7,2.1-6.1,2.1c-3.4,0-6.1-1-6.1-2.1s2.7-2.1,6.1-2.1C355,892.1,357.7,893.1,357.7,894.2
		z"/>
	<path class="st12" d="M436.3,959.1c0,1.2-2.7,2.1-6.1,2.1c-3.4,0-6.1-1-6.1-2.1c0-1.2,2.7-2.1,6.1-2.1
		C433.6,957,436.3,958,436.3,959.1z"/>
</g>
<path class="st15" d="M1898.4,811.6l-6.3,21.8l-1,3.4l-2.1,7l-5.6,19.4l-0.9,3.2l-11,37.9l-0.9,3.2l-18.3,63.4h-578.7
	c-19.7-19.2-35.6-38.6-48.4-57.1c-0.9-1.4-1.9-2.6-2.7-4c-9.2-13.6-16.7-26.7-22.7-38.8c-0.7-1.3-1.3-2.6-1.9-3.9
	c-3.9-7.9-7.1-15.4-9.8-22.3c-0.6-1.2-1-2.5-1.5-3.7c-3.2-8.2-5.5-15.5-7.4-21.7c-1.6-5.5-2.8-10.1-3.6-13.7
	c-0.4-1.5-0.6-2.8-0.8-3.9c-0.6-3-0.9-4.7-0.9-4.7h0.1c268.5,41.1,598.1-12.3,598.1-12.3L1898.4,811.6z"/>
<g class="st16">
	<path class="st17" d="M1174,797.3c7.4,2.5,283.7,105.1,724.4,14.3l-126.3-26.7C1772.1,784.9,1442.6,838.4,1174,797.3z"/>
</g>
<path class="st18" d="M1769.9,791.8l92.7,19.2c-345,62.3-583.3,5.9-583.3,5.9S1494.2,836.4,1769.9,791.8L1769.9,791.8z"/>
<path class="st18" d="M1602,878.7c23.4-0.7,46.8-2,70.1-4c41.4-3.5,82.6-9,123.4-16.5c32.1-5.9,63.9-13,95.5-21.4l1-3.4
	c-14.4,3.8-28.8,7.4-43.3,10.7c-40.6,9.3-81.6,16.5-123,21.8c-41.1,5.2-82.4,8.5-123.7,9.7C1600.2,875.8,1600.2,878.8,1602,878.7
	L1602,878.7z"/>
<path class="st18" d="M1186.6,841.2c0.5,1.2,1,2.5,1.5,3.7c39.3,14.2,79.6,25.5,120.4,34.1c47.7,10.1,96.1,16.7,144.6,20.3
	c50,3.7,100.1,4.1,150.2,1.9c51.6-2.2,103-7.2,154.2-14.2c41.9-5.7,83.5-12.7,125-20.6l1-3.2c-48.9,9.4-98,17.5-147.3,23.6
	c-50.5,6.3-101.3,10.6-152.1,12.1c-49.5,1.5-99.1,0.4-148.5-4c-48.7-4.3-97.2-11.7-144.9-22.9
	C1255.5,863.8,1220.6,853.6,1186.6,841.2L1186.6,841.2z"/>
<path class="st18" d="M1174.8,801.9c0.2,1.1,0.5,2.4,0.8,3.9c5.4,3,11,5.9,16.6,8.5c36,17.2,74.9,28,114.5,31.6c1.9,0.2,1.9-2.8,0-3
	c-11.2-1-22.3-2.6-33.4-4.8C1238.9,831.3,1205.6,819.1,1174.8,801.9L1174.8,801.9z"/>
<path class="st18" d="M1197.9,867.2c0.6,1.3,1.3,2.6,1.9,3.9c3.3,1.2,6.7,2.4,10.1,3.5c25.7,8.9,52,16.4,78.4,22.6
	c26.4,6.2,53.1,11,80,14.4c1.9,0.2,1.8-2.8,0-3c-15.2-2-30.4-4.3-45.5-7.2c-26.5-5-52.8-11.3-78.7-19
	C1228.5,877.8,1213.1,872.7,1197.9,867.2L1197.9,867.2z"/>
<path class="st18" d="M1680.2,924.3c16.9-0.5,33.8-1.2,50.7-2.2c29.9-1.8,59.8-4.4,89.6-7.9c16.8-2,33.5-4.2,50.2-6.7l0.9-3.2
	c-4.3,0.7-8.7,1.3-13.1,1.9c-29.5,4.2-59.2,7.5-88.9,10c-29.7,2.5-59.5,4.1-89.3,5C1678.3,921.3,1678.3,924.3,1680.2,924.3
	L1680.2,924.3z"/>
<path class="st18" d="M1222.6,910c0.8,1.3,1.7,2.6,2.7,3.9c34.1,10.2,68.9,18.1,104,24.1c38.3,6.5,77,10.8,115.7,13.3
	c40.1,2.6,80.3,3.3,120.5,2.7c40.9-0.6,81.7-2.5,122.6-5c41-2.6,82-5.8,123-9c1.9-0.1,1.9-3.2,0-3c-5,0.4-10.1,0.8-15.1,1.2
	c-40.8,3.2-81.6,6.3-122.5,8.7c-40.8,2.4-81.7,4.1-122.6,4.3c-39.6,0.2-79.2-0.8-118.7-3.7c-39.2-2.9-78.3-7.7-117-14.9
	C1284,926.7,1253,919.2,1222.6,910L1222.6,910z"/>
<path class="st18" d="M1347.3,859.5c37.2,7.3,75.1,11.8,113,13.2c10.7,0.4,21.4,0.6,32.1,0.5c1.9,0,1.9,3,0,3
	c-38.1,0.3-76.2-2.5-113.8-8.2c-10.7-1.6-21.3-3.5-31.9-5.6C1344.7,862.1,1345.5,859.2,1347.3,859.5L1347.3,859.5z"/>
<path class="st18" d="M1494.2,925.8c25.9,2.8,52,3.9,78.1,3.1c7.4-0.2,14.8-0.6,22.2-1.1c1.9-0.1,1.9,2.9,0,3
	c-26,1.8-52.2,1.8-78.2,0c-7.4-0.5-14.7-1.2-22.1-2C1492.4,928.7,1492.3,925.7,1494.2,925.8L1494.2,925.8z"/>
<g>
	<path class="st19" d="M1889.1,843.9l-5.6,19.4l-0.9,3.2l-11,37.9l-0.9,3.2l-18.3,63.5h-578.7c-19.7-19.2-35.6-38.6-48.4-57.1
		c-0.9-1.4-1.9-2.6-2.7-4c-9.2-13.6-16.7-26.7-22.7-38.8c-0.7-1.3-1.3-2.6-1.9-3.9c-3.9-7.9-7.1-15.4-9.8-22.3
		c-0.6-1.2-1-2.5-1.5-3.7c-3.2-8.2-5.5-15.5-7.4-21.7c38.8,37.8,87.2,63.7,137.4,79.6c62.2,19.8,127.5,25.2,192.2,28
		c72.6,3.2,145.8,3.3,217.1-11.9C1783.9,903.1,1840.8,880.3,1889.1,843.9L1889.1,843.9z"/>
</g>
<path class="st20" d="M319.8,1075.6c4.4-8.7,1.7-20.3-6-26.2c-7.8-5.9-19.7-5.3-26.9,1.2c12.3-15.4,17.7-36.9,10.9-55.4
	c-6.9-18.4-27.7-31.6-46.7-26.8c-18,4.5-29.3,21.9-38.5,38c1.3-5.1-2.4-10.9-7.5-12c-5.2-1.1-10.8,2.8-11.7,7.9
	c3.7-17.4-10.3-36.4-28.1-38c-17.7-1.6-34.9,14.6-34.4,32.4c-11.4-13.3-31.8-17.9-47.8-11c-16.1,7-26.6,25-24.7,42.4
	c-1.7-8.1-11.2-13-19.2-11.2c-8.1,1.8-14.2,9.1-16.3,17.1s-0.9,16.5,1.7,24.4c100.2,6.5,201.7,13.2,301.9,19.7L319.8,1075.6
	L319.8,1075.6z"/>
<g>
	<path class="st5" d="M271.7,1076.5c3-5.8,1.2-13.6-4-17.6c-5.2-3.9-13.2-3.6-18,0.8c8.2-10.3,11.9-24.7,7.3-37.1
		c-4.6-12.3-18.5-21.2-31.3-18c-12.1,3-19.6,14.7-25.8,25.5c0.8-3.4-1.6-7.3-5-8c-3.4-0.7-7.2,1.9-7.9,5.3
		c2.5-11.7-6.9-24.4-18.8-25.5c-11.9-1.1-23.4,9.8-23,21.7c-7.7-8.9-21.3-12-32.1-7.3c-10.8,4.7-17.8,16.7-16.5,28.4
		c-1.1-5.4-7.5-8.7-12.9-7.5c-5.4,1.2-9.5,6.1-10.9,11.4c-1.4,5.4-0.6,11.1,1.2,16.3c67.2,4.4,135.2,8.8,202.3,13.2L271.7,1076.5
		L271.7,1076.5z"/>
</g>
<path class="st21" d="M205.5,840.4c-28.4,21-53.6,46.1-74.7,74.4c-6,8.1-11.7,16.5-17.1,25c-1,1.6,1.5,3,2.5,1.4
	c18.4-29.6,41.2-56.5,67.4-79.6c7.5-6.6,15.3-12.9,23.3-18.8C208.5,841.7,207,839.3,205.5,840.4L205.5,840.4z"/>
<path class="st21" d="M239.7,873.1c-19.9,17.4-45.8,27.5-72.2,28.4c-7.5,0.3-15-0.2-22.4-1.4c-1.8-0.3-2.6,2.5-0.8,2.8
	c26.9,4.5,55.1-0.8,78.8-14.4c6.6-3.8,12.9-8.3,18.6-13.4C243.2,873.9,241.1,871.9,239.7,873.1z"/>
<path class="st21" d="M176.3,820.8c-10.9,18.7-17.4,39.7-19.1,61.2c-0.1,1.9,2.7,1.8,2.9,0c1.7-21,8.2-41.5,18.8-59.8
	C179.7,820.7,177.2,819.2,176.3,820.8z"/>
<path class="st21" d="M219.5,855.9c-11.1,12.4-19.8,26.7-25.8,42.2c-0.7,1.7,2.1,2.5,2.8,0.8c5.8-15,14.3-28.9,25.1-40.9
	C222.7,856.5,220.7,854.5,219.5,855.9z"/>
<path class="st21" d="M228.2,903.7c-13.6,3.2-28.1,2-40.9-3.6c-1.7-0.7-3.2,1.7-1.4,2.5c13.6,5.9,28.7,7.3,43.1,3.9
	C230.7,906,230,903.2,228.2,903.7z"/>
<path class="st21" d="M160.3,809.1c-1.4,12.6-0.1,25.4,3.6,37.5c0.6,1.8,3.3,1,2.8-0.8c-3.6-11.9-4.8-24.3-3.5-36.7
	C163.4,807.3,160.5,807.3,160.3,809.1L160.3,809.1z"/>
<path class="st22" d="M151.4,802.3c-2.3,4.4-0.1,10.2,5,12.8c5.1,2.6,11.1,1.2,13.4-3.2c2.3-4.4,0.1-10.2-5-12.8
	C159.7,796.4,153.7,797.8,151.4,802.3z"/>
<path class="st22" d="M199.2,832.8c-2.3,4.4-0.1,10.2,5,12.8c5.1,2.6,11.1,1.2,13.4-3.2c2.3-4.4,0.1-10.2-5-12.8
	C207.5,826.9,201.5,828.4,199.2,832.8z"/>
<path class="st22" d="M221.8,899.2c-2.3,4.4-0.1,10.2,5,12.8c5.1,2.6,11.1,1.2,13.4-3.2c2.3-4.4,0.1-10.2-5-12.8
	C230,893.3,224,894.7,221.8,899.2z"/>
<path class="st23" d="M241.7,860.4c-5.4,2.9-7,10.3-3.6,16.4c3.4,6.1,10.4,8.7,15.8,5.8c5.4-2.9,7-10.3,3.6-16.4
	C254.2,860.1,247.1,857.5,241.7,860.4z"/>
<path class="st23" d="M212.3,849.9c-5.4,2.9-7,10.3-3.6,16.4c3.4,6.1,10.4,8.7,15.8,5.8c5.4-2.9,7-10.3,3.6-16.4
	C224.7,849.5,217.6,847,212.3,849.9z"/>
<path class="st23" d="M171.7,811.9c-3.2,5.2-0.9,12.4,5.1,16c6,3.6,13.4,2.3,16.6-3c3.2-5.2,0.9-12.4-5.1-16
	C182.2,805.4,174.8,806.7,171.7,811.9z"/>
<path class="st24" d="M179.1,899.2c-10.9-8.9-27.2-5.5-39.9,0.5c-37.3,17.3-63.7,50.8-88,84.4c23.2-33.4,40.1-71.1,49.5-110.7
	c2.4-10.2,4.4-20.8,2.8-31.1c-1.6-10.4-7.4-20.6-16.9-25c-10.8-5.1-23.8-1.7-34.2,4.3c-20.7,12-34.6,33.5-42.3,56.2
	c-7.7,22.7-9.8,46.9-11.8,70.8c-1.3,15.4-2.7,30.8-4,46.2c-1.2,13.7-2.8,27.5-3.6,41.3c-0.4,7.5-0.2,17.5,7.2,21.9
	c8.8,5.2,23.6-1.2,32.3-4.1c12.9-4.2,25.5-9.7,37.4-16.2c24-12.9,46-29.3,67.8-45.6c20.2-15.1,41.4-31.5,50-55.2
	C190,924.1,189.6,907.7,179.1,899.2L179.1,899.2z"/>
<path class="st21" d="M72.9,836.4c-17.4,24-32.1,49.9-43.8,77.2c-11.6,27.3-20.2,55.7-25.6,84.8c-3,16.3-5,32.8-5.9,49.3
	c-0.1,1.9,2.8,1.9,2.9,0c1.7-29.4,6.6-58.6,14.8-86.8c8.2-28.3,19.4-55.7,33.6-81.4c7.9-14.4,16.8-28.3,26.4-41.6
	C76.5,836.4,74,834.9,72.9,836.4z"/>
<path class="st21" d="M154.9,911.7c-20.2,17.6-40.3,35.2-60.5,52.8c-20.2,17.6-40.5,35.3-60.8,53c-11.4,9.9-22.7,19.8-34.1,29.7
	c-1.4,1.2,0.6,3.2,2,2c20.2-17.6,40.3-35.2,60.5-52.8s40.5-35.3,60.8-53c11.4-9.9,22.7-19.8,34.1-29.7
	C158.4,912.5,156.3,910.5,154.9,911.7z"/>
<path class="st21" d="M1653.9,601.2c-2.3-2.5-9-1.2-9-1.2s-1.4-4.1,1-6.3c3.7-2,9.3-13.4,7.7-20.8c-1.6-7.4-21.9-16.6-24.9-15.7
	c-3,0.9-8.7,10.2-8.7,10.2l-18,3.1l14.9,7.6c0,0-2.9,20.2,0.6,22.1l-4.1,7.1l-13.9-0.8l-4.7,8.9l-0.8-29.1l-2.2-0.4
	c-1-12.8-2.1-25.7-3.2-38.5c-1.2-14.4-2-28.9-4.1-43.2c-1.8-13.1-5-26-10.8-37.9c-5.4-10.8-13.1-20.7-23.3-27.3
	c-10-6.5-22.2-9.9-34.1-8.1l-0.2-0.3l-515.5,405.4l0.4,0.6l514.7-404.7c0.1,0.5,0.5,1,1.2,0.9c13.3-2,26.9,2.9,37.2,11.2
	c20.2,16.4,26.7,43.3,29.5,67.9c1.6,14.1,2.5,28.2,3.6,42.2c0.9,10.5,1.7,20.9,2.6,31.4l-3.2-0.6l-3.8,2.9l-4.1,9l1-13l-8.9-3.7
	l-3.8,4.6l-4.9-0.8l-4.6,8.6l4.5,4.2l-2.3,4.1l11,6.9l3.6-5.6l4.6,2.6l-8.8,14c0,0-13.8-15.4-15.2-14.6c-1.4,0.8-12.4,6-13,7.3
	c-0.6,1.2-0.3,5.9,1.6,8.1c2,2.1,6.7,1.3,8.3,2.1c1.7,0.7,20.1,23.4,20.1,23.4l-3,12.4c0,0-13.2,19-12,22.6c1.2,3.6,5.9,7.4,5.9,7.4
	s-17.4,66.4-16.7,71.4c0.7,5,38,58.3,36.9,62.1c-1.1,3.8-25.2,18.4-25.2,18.4h42c-0.5,0.5-0.9,1.1-1,1.5h49.1
	c0.3-5.8-5-10.7-14.4-17.7c-9.4-7-38.8-59.7-48.6-61.7l6.4-1.3l24.1-64.1c0,0,10.7-3.8,9.4-7.6c21.8-13.9,24.3-54.1,23.6-70.2
	C1654.1,614.1,1656.2,603.7,1653.9,601.2L1653.9,601.2z M1617.8,825.2c-0.2,1.6-6.8,5.6-12.2,9.3c0.5-1.3,0.8-2.8,0.5-4.2
	c-0.7-4.1-19.9-31.4-23.1-37.1C1583.1,793.1,1618.2,822.5,1617.8,825.2z"/>
</svg>
