<?xml version="1.0" encoding="utf-8"?>
<!-- Generator: Adobe Illustrator 28.2.0, SVG Export Plug-In . SVG Version: 6.00 Build 0)  -->
<svg version="1.1" id="Layer_1" xmlns="http://www.w3.org/2000/svg" xmlns:xlink="http://www.w3.org/1999/xlink" x="0px" y="0px"
	 viewBox="0 0 1920 1000.9" style="enable-background:new 0 0 1920 1000.9;" xml:space="preserve">
<style type="text/css">
	.st0{fill:#632424;}
	.st1{opacity:0.3;}
	.st2{fill:#4A1919;}
	.st3{fill:#83A532;}
	.st4{fill:#6D8F22;}
	.st5{opacity:0.2;}
	.st6{fill:#FFFFFF;}
	.st7{fill:#677446;}
	.st8{fill:#728050;}
	.st9{fill:#7F8D5A;}
	.st10{fill:#56642F;}
	.st11{fill:#182106;}
</style>
<g>
	<path class="st0" d="M858.1,919.9h-12.2l-20.3-0.2c11.8-74.5-4.3-99.3-8.3-147.2h0.5l2.4-0.1c1.9,18.4,9.5,36.3,17.1,53.1
		c8.4-17.5,12.8-35.7,16.5-54.8c1.9,0.2,4.1,0.4,6.1,0.6C847.6,819.6,846.7,871.3,858.1,919.9L858.1,919.9z"/>
	<g class="st1">
		<path class="st2" d="M858.1,919.9h-12.2c1.8-29.1-5.4-58.2-12.5-86.5c-5.1-20.4-12.6-35.6-15.6-60.8l2.4-0.1
			c1.9,18.4,9.5,36.3,17.1,53.1c8.5-17.5,12.8-35.7,16.5-54.8c1.9,0.2,4.1,0.4,6.1,0.6C847.5,819.6,846.7,871.3,858.1,919.9
			L858.1,919.9z"/>
	</g>
	<path class="st3" d="M936.3,734.1c-4.4,6.3-13.5,8.8-20.3,5.5c2.3,2.1,4.6,4.3,6.1,7.1c1.6,2.7,2.3,6.1,1.2,9
		c-1.1,2.9-4.3,5.1-7.3,4.4c7.3,4.6,13.9,11.3,16,19.7c2.1,8.4-1.6,18.5-9.7,21.8c-4.3,1.8-9.4,1.4-13.7-0.3
		c-4.4-1.7-8.2-4.6-11.6-7.9c-2.7,3.8-8,5.8-12.5,4.7c-4.2-1-7.6-4.5-8.8-8.6c0.5,3.8-1.6,7.9-4.8,10c-3.6,2.4-8.4,2.8-12.6,1.7
		c-6.8-1.7-12.5-7.1-14.7-13.7c-2-6.1-1-13.2,2.7-18.5c-1.7,1.8-4.7,2.4-7,1.6c-0.4,1.4-1.2,2.6-2.3,3.5c-2.3,1.8-5.8,2-8.3,0.4
		c-0.1,6.1-0.4,12.3-1.7,18.3c-1.4,6-4,11.8-8.4,16.1c-4.4,4.3-10.6,6.9-16.7,6.1c-5-0.7-9.3-3.5-13.5-6.3c-3-2-6.3-4.6-6-8.2
		c-2.7,3.2-7.4,4.6-11.4,3.4c-4-1.1-7.2-4.7-8-8.8c-4.4,4-11.3,5-16.7,2.3c-5.3-2.6-8.8-8.7-8.3-14.7c0.5-5.9,4.9-11.3,10.6-13
		c-6.3,1-12.9-2-16.8-7c4.5-2.8,9.9-4.8,15.2-4.4c-6.6-2.2-12.2-7.3-15-13.7c5.6-1.6,11.6-1.7,17,0.2c-2.8-1.4-4.7-4.4-4.7-7.5
		c0-3.6,2.7-7.1,6.2-8c-5.6,0.8-11.3-3.4-13.1-8.8c-1-3.3-0.8-6.9,0.5-10.2c0.8-2.1,1.9-4,3.4-5.7c3.8-4.3,9.2-6.9,14.8-8.1
		c-4.5-4.9-4.2-13.7-0.4-19.1c3.8-5.4,11.5-7.7,17.6-5.1c-4.9-16.8,3.5-36.4,19-44.4c5.1-2.6,11-4.1,16.7-3.1
		c5.6,1,11,4.9,12.8,10.4c0.5-3.1,1-6.3,2.5-9.2c1.5-2.8,4-5.3,7.2-5.8c3.2-0.5,6.7,1.6,7.2,4.7c2.5-6.2,5.4-12.4,10.3-16.9
		c4.9-4.5,12.5-6.7,18.4-3.6c5.5,2.9,8.1,9.6,8,15.8c-0.2,6.2-2.6,12.1-5.1,17.8c3.4-3.6,9.5-4.2,13.6-1.4c4.1,2.8,5.6,8.7,3.5,13.2
		c4.1-1.7,8.2-3.3,12.6-3.8c4.3-0.5,9,0,12.6,2.5c6.5,4.5,7.8,14.1,5.1,21.5c-0.1,0.3-0.2,0.6-0.4,0.8c-2.9,7.1-8.4,12.6-13.9,18
		c3.6-1.6,8-1.4,11.5,0.3c3.5,1.7,6.1,5.4,6.1,9.4c0,3.5-2.2,7.1-5.5,8.4c6.9-2.1,15.1,0,19.8,5.6c4.9,5.9,5.5,15,1.1,21.3
		L936.3,734.1z"/>
	<path class="st0" d="M514.8,972.1l19.8-0.1l32.8-0.2c-19-120.4,7-160.4,13.4-238h-0.8l-3.8-0.2c-3.1,29.7-15.3,58.6-27.7,85.8
		c-13.7-28.3-20.7-57.8-26.6-88.7c-3.1,0.4-6.7,0.6-9.8,0.9C531.8,809.9,533.3,893.5,514.8,972.1L514.8,972.1z"/>
	<g class="st1">
		<path class="st2" d="M514.8,972.1l19.8-0.1c-2.9-46.9,8.7-93.9,20.2-139.8c8.3-33,20.4-57.6,25.1-98.4l-3.8-0.2
			c-3.1,29.7-15.3,58.6-27.7,85.8c-13.7-28.3-20.7-57.8-26.6-88.7c-3.1,0.4-6.7,0.6-9.8,0.9C531.8,809.9,533.3,893.5,514.8,972.1
			L514.8,972.1z"/>
	</g>
	<path class="st3" d="M378.3,586.9c6.1,14.2,19.9,24.9,35.3,27.2c-5.8,2.3-9.7,8.6-9.3,14.8c0.4,6.2,5.5,11.5,11.6,13.1
		c-8.2,3.8-14.5,11.1-18.2,19.3c-3.7,8.2-5,17.4-4.9,26.4c0,7.9,1.1,15.9,4.5,23c3.4,7.1,9.3,13.2,16.8,15.6
		c7.5,2.4,16.5,0.4,21.5-5.6c-2.5,5-1,11.7,3.4,15.1c4.4,3.4,11.2,3.3,15.5-0.3c-3.6,9.1-3.8,19.6,0.4,28.5
		c4.2,8.8,12.9,15.6,22.6,16.5c9.7,0.9,18.3-2.9,22.2-11.8c1.9,2.7,6.2,3.2,8.7,1c1.5-1.3,2.3-3.8,2.1-6.1c3,4.7,9.5,7.2,15.1,5.8
		c6.9-1.8,11.9-8.2,14.1-15c2.2-6.8,2-14.2,1.8-21.3c0.7,2.4,1.4,4.7,2.8,6.7c1.4,2,3.7,3.6,6.2,3.4c1.6-0.1,3.1-1.1,3.9-2.4
		c-1.5,8.4,0.7,17.2,5.4,24.3c6.8-3.1,12.4-7.6,12.6-15.2c1.3,6.2,2.8,12.5,5.9,18c3,5.5,7.9,10.4,14,12.1c8,2.3,17-1.4,22.4-7.8
		c5.4-6.4,7.6-15,7.8-23.3c0.1-8.4-1.6-16.6-3.4-24.8c0.9,4.1,4.9,7.2,9.1,7.1c4.2-0.1,8.7-2.8,9.4-6.9
		c-0.1,8.6,10.1,14.7,18.5,12.6c8.4-2.2,14-10.4,15.8-18.8c1.8-8.4,0.5-17.2-0.8-25.7c3.6,3.4,9.8,3.5,13.5,0.2s4.2-9.5,1.1-13.4
		c21.1,1.7,43.3-8.8,53-27.6c9.7-18.8,4.4-44.6-13.3-56.2c-16.7-10.9-38.5-7.8-58.2-4.2c6.4-1.9,9.7-10,7.7-16.3
		c-1.1-3.6-3.4-6.6-6.4-8.9c-2.3-1.8-5.1-3.2-7.8-4.2c-6.2-2.1-13.1-3.8-19.6-3.8c17.8,0,33.8-17.4,32.1-35.2
		c-1.7-18-21.1-32.1-38.8-28.2c2.5-3.4,2.6-8.3,0.4-11.8c-1.9-2.9-5.4-4.7-8.9-4.7c9.7-1.4,18.7-7.5,23.6-16.1
		c5.2-9.2,5.6-20.9,0.9-30.5c-5.9-11.9-18.7-19.2-31.7-21.8c-13.1-2.5-26.5-1.1-39.7,0.4c8.8-6.4,11.8-20,5.7-29
		c-6.2-9-21.1-10.6-28.3-2.5c7.6-8.4,15.3-17.1,19.3-27.7c3.9-10.6,3.4-23.7-4.5-31.8c-7.6-8-20.1-9.2-30.9-7.3
		c-18.5,3.3-35.1,15-45.1,30.8c-3-2.7-6.3-5.1-10-6.8c-8.9-4.3-20.7-4.2-27.8,2.8c-5.3,5.2-7.1,13.1-6.4,20.5
		c0.7,7.3,3.5,14.3,6.3,21.1c-3.8-4.1-10.9-4.3-15.4-1c-4.6,3.3-6.5,9.5-5.5,15.1c1.1,5.5,4.9,10.3,9.7,13.2
		c-16.5-6.7-36.8-2.7-49.5,9.8c-12.7,12.6-16.9,32.8-10.2,49.4c5.6,14,18.7,24.6,33.4,27.7c-4.8,0-9.3,1.1-11.6,5
		c-2.5,4.2-0.9,9.9,2.5,13.5s8.6,8.9,13.1,10.9c-8.2-0.6-16.5,1.3-23.7,5c-6.5,3.3-12.3,8.1-16.5,14.1
		C374.1,555.4,372.3,572.8,378.3,586.9L378.3,586.9z"/>
	<g>
		<path class="st4" d="M378.3,586.9c6.1,14.2,19.9,24.9,35.3,27.2c-5.8,2.3-9.7,8.6-9.3,14.8c0.4,6.2,5.5,11.5,11.6,13.1
			c-8.2,3.8-14.5,11.1-18.2,19.3c-3.7,8.2-5,17.4-4.9,26.4c0,7.9,1.1,15.9,4.5,23c3.4,7.1,9.3,13.2,16.8,15.6
			c7.5,2.4,16.5,0.4,21.5-5.6c-2.5,5-1,11.7,3.4,15.1c4.4,3.4,11.2,3.3,15.5-0.3c-3.6,9.1-3.8,19.6,0.4,28.5
			c4.2,8.8,12.9,15.6,22.6,16.5c9.7,0.9,18.3-2.9,22.2-11.8c1.9,2.7,6.2,3.2,8.7,1c1.5-1.3,2.3-3.8,2.1-6.1c3,4.7,9.5,7.2,15.1,5.8
			c6.9-1.8,11.9-8.2,14.1-15c2.2-6.8,2-14.2,1.8-21.3c0.7,2.4,1.4,4.7,2.8,6.7c1.4,2,3.7,3.6,6.2,3.4c1.6-0.1,3.1-1.1,3.9-2.4
			c-1.5,8.4,0.7,17.2,5.4,24.3c6.8-3.1,12.4-7.6,12.6-15.2c1.3,6.2,2.8,12.5,5.9,18c3,5.5,7.9,10.4,14,12.1c8,2.3,17-1.4,22.4-7.8
			c5.4-6.4,7.6-15,7.8-23.3c0.1-8.4-1.6-16.6-3.4-24.8c0.9,4.1,4.9,7.2,9.1,7.1c4.2-0.1,8.7-2.8,9.4-6.9
			c-0.1,8.6,10.1,14.7,18.5,12.6c8.4-2.2,14-10.4,15.8-18.8c1.8-8.4,0.5-17.2-0.8-25.7c3.6,3.4,9.8,3.5,13.5,0.2s4.2-9.5,1.1-13.4
			c21.1,1.7,43.3-8.8,53-27.6c9.7-18.8,4.4-44.6-13.3-56.2c-16.7-10.9-38.5-7.8-58.2-4.2c6.4-1.9,9.7-10,7.7-16.3
			c-1.1-3.6-3.4-6.6-6.4-8.9c0,6.3-2.5,12.7-7.1,17.2c-5.7,5.6-14.4,8-22.2,6c2.6,2.9,5.4,6,6.6,9.8s0.7,8.4-2.4,10.9
			c5.3-1.3,10.9,2.6,12.7,7.7c1.9,5.1,0.8,10.9-1.6,15.8c-3.9,8.3-11.4,14.8-20,17.7c-8.7,2.9-18.6,2.2-26.7-1.9
			c-0.6,6.8-5.5,13.1-12,15.4c-6.5,2.3-14.2,0.4-19-4.6c-2.5,7.5-11.2,12.4-19,10.8c-7.6-1.7-13.1-8.6-15.3-16
			c-2.2-7.4-1.7-15.4-1.2-23.1c-4.8,5.4-14.1,5.4-19.7,0.8s-6.8-13.5-2.6-19.4c-6.3,2.9-13,5.3-19.8,5.7c-6.9,0.4-14.2-1.2-19.6-5.5
			c-5.2-4.2-8.4-10.4-10.3-16.8c-3.5-11.7-3.5-24.4,0-36c-2.1,1.9-5.6,2.1-8,0.6c-2-1.3-3.1-3.8-3-6.2c-1.4,6.1-5.2,11.8-10.7,14.7
			c-5.9,3.1-13.9,2.6-18.9-2c-5-4.6-5.9-13.2-1.3-18.2c-4.1,4.6-11.6,5.3-17,2.4c-5.5-2.9-8.9-8.8-10.1-14.8
			c-0.5-2.7-0.7-5.4-0.5-8.1c-6.5,3.3-12.3,8.1-16.5,14.1c-9,12.6-10.9,30-4.8,44.3L378.3,586.9z"/>
	</g>
	<g>
		<path class="st4" d="M553.6,522.4c-6.8-9-17.6-14.7-28.8-14.9c0.6,10.1,1.6,21,8,28.9c4.2,5.2,11.1,8.7,17.8,9.2
			c6.4-3.2,11.6-8.8,14.4-15.4c2.8-6.6,3.1-14.2,1-21C559.8,511.6,555.4,516.1,553.6,522.4L553.6,522.4z"/>
	</g>
	<path class="st3" d="M1992.8,932.8c-8.2,67.2-19.3,139.2-28.4,207.9c-1.7,12.8-3.3,25.6-4.9,38.1
		c-551.5,31.9-1514.5,43.5-2066.7,26.8l4.1-105.2l7.7-197.9l1.1-28.4c435.8,15.2,1251.6,30.5,1687.3,45.7
		c82.5,2.9,165,5.8,247.5,8.6C1881.4,930,1952.1,931.4,1992.8,932.8z"/>
	<g class="st5">
		<path class="st6" d="M1593.1,919.9C1157,914.2,340.8,908.4-95.4,902.7l1.1-28.4C341.5,889.5,1157.3,904.7,1593.1,919.9z"/>
	</g>
	<g>
		<path class="st4" d="M1840.6,928.6c-134.9,20-405.9,57.1-629.9,68.3c2.9-5.8,3.8-11.8,3.1-18.4c-3.6,3-5.8,7.6-6.1,12.3
			c-5.6-3.8-12-6.7-18.6-8.2c2.7,6.4,7.9,11.7,14.2,14.7c-46,2.2-90,3.2-130.2,2.8c-76.6-12.8-153.5-24.3-230.5-34.6
			c2.8-2.1,4.9-4.9,6.2-8.1c-6.2,0.6-12.1,2.9-17,6.7c-0.8-0.1-1.7-0.2-2.5-0.3c2.8-3.3,4.4-7.5,4.3-11.8c-3.1,1.6-5.8,3.9-8.5,6.2
			c-1.9-2.7-4.3-4.9-7.1-6.5c0.1,3.9,1.3,7.7,3.2,11.1c-161.7-21.2-704.1-37-866.8-47.3l-57.6,185.2l2067.5,40.2
			c9.1-68.7,20.3-140.7,28.4-207.9C1952.1,931.4,1881.4,930,1840.6,928.6L1840.6,928.6z"/>
	</g>
	<path class="st7" d="M1039.1,1016.7c-216.3,64.4-925.1,116.8-1203.3,129.8l22.1-100.8l4.8-21.7l7.2-32.6l13.2-60.2
		c202.5,3.1,784.7,21.1,984.5,53.7c20.2,3.3,40.3,6.7,60.4,10.3c7.7,1.4,15.4,2.8,23.1,4.2
		C980.4,1004.9,1009.8,1010.7,1039.1,1016.7z"/>
	<g>
		<path class="st8" d="M951,999.5c-121.5-11.9-243.2-23.7-365.2-22.8c-115.9,0.8-612.5,13.3-723.1,47.3l7.2-32.6l13.2-60.2
			c202.5,3.1,784.7,21.1,984.5,53.7c20.2,3.3,40.3,6.7,60.4,10.3C935.6,996.7,943.3,998.1,951,999.5z"/>
	</g>
	<g>
		<path class="st9" d="M867.5,985c-16-1.8-32-3.4-48-4.9c-58.8-5.4-117.8-8.6-176.9-9.7c-59.1-1.1-118.2-0.1-177.1,3.1
			c-59,3.2-497.9,8.5-556.5,16c-10.2,1.3-27.5,7.3-37.4,3c-0.7-0.3-1.3-0.6-1.8-1l13.2-60.2C85.5,934.4,667.7,952.4,867.5,985z"/>
	</g>
	<g>
		<path class="st10" d="M927.9,995.4c-11.8,7.5-24,14.2-36.6,20.3c0.9-5.3,0.1-10.9-2.3-15.6c-3.3,4.8-5,10.5-5.1,16.3
			c-5.3-0.2-10.4-0.4-15.7-0.7c-0.4,2.1,1.2,4,2.9,5.2c1.2,0.9,2.5,1.7,3.9,2.3c-41.7,18.2-86.7,30.2-131.4,39
			c-94.1,18.6-190.5,24.8-286.2,19c2.8-5.3,3.9-11.5,3.1-17.5c-4.5,3-8.9,6.5-12.5,10.5c-3.8-6.6-10.2-11.8-17.5-14
			c0.3,7.6,3.9,14.9,9.7,19.8c-68.3-5.2-516.1-16.6-582.3-34.1l-22.1,100.8c278.2-13.1,987-65.5,1203.3-129.8
			C1002.2,1009.1,965.1,1002,927.9,995.4z"/>
	</g>
	<path class="st4" d="M342.6,575.1c-8.7,16-28.3,24.5-46.4,22.5c-18.1-2.1-34.4-13.4-45.1-28.1c8.2,17.3-0.7,40.6-18.4,48
		c11.6,16.9,23.6,34.8,25.2,55.2c1.7,20.4-11.4,43.5-31.8,45.2c-18.5,1.6-34.5-14.9-39.4-32.7c-0.4,8.2-9.3,15-17.4,15.9
		c-8.2,0.8-16.6-4.9-18.7-12.9c1.1,17.3,1.1,37.4-12.2,48.6c-11.8,10-29.6,8.5-44.2,3.5c-22.8-7.9-45.7-15.5-59.2-35.6
		c-8.7,15.6-25.5,26.4-43.4,27.9c-17.8,1.4-36.2-6.5-47.3-20.5c-3.7,10.3-15,17.4-25.9,16.2c-11-1.2-20.4-10.6-21.7-21.5
		c-18.9,16.8-49,18-70.7,5c-21.6-13-34.4-38.5-34.9-63.7c-0.4-25.2,10.6-50,27.4-68.8c-15.7-3.1-29.3-8.7-38.5-21.8
		c14.6-4.8,30.9-3.8,44.8,2.8c-13.5-12.6-22.5-29.6-24.8-47.8c19.5-7,42.1-4.2,58.4,8.5c-6.8-8.9-9.1-21.2-6-32
		c3.1-10.8,11.6-20,22.1-23.9c-23-7.9-39.9-29.8-44.3-53.8c-4.5-23.9,2.5-49.2,16.4-69.3c0.5-0.8,1-1.5,1.7-2.2
		c13.7-18.9,33.1-33.4,54.2-43.6c-9.6-13.4-5.1-31.1,10.3-36.7c-16.9-44.2-6.3-97.6,26.2-132c6.4-6.9,13.9-13.1,22.7-16.6
		c8.8-3.4,19.1-3.8,27.4,0.8c-3.5-9.3-1.4-20.5,5.3-27.8c6.7-7.4,17.7-10.5,27.2-8c3.2-20.1,10-40.2,23.6-55.3
		C58.9,5.4,80.3-3.7,100,1.4c18.2,4.7,31.8,20.3,39,37.7c7.2,17.3,8.8,36.3,10.4,54.9c3.8-9.4,15.1-12.6,24.2-8
		c9.1,4.5,14.3,14.8,15,25c0.7,10.1-2.4,20.1-6.2,29.6c11.5-6.4,27-1.3,35,9.2c8,10.5,9.3,24.8,6.6,37.7c-2.7,12.9-9,24.7-15.2,36.3
		c10.3-9.6,25.3-13.9,39-10.4c1.5,15.6-9.5,31-24.4,35.7c11.3-2.9,23.1-3.4,34.6-1.7c4.6,0.7,9.2,1.7,13.5,3.2
		c-1.2,17.7-15,33.8-32.4,37.2c11.8,7.7,14.4,26.3,5.1,36.9c19.1-5.8,41.1-2.2,56.6,10.3c15.6,12.5,23.9,33.8,19.9,53.3
		c-4,19.6-20.7,36.1-40.5,39c9.4,3.5,14.8,10.6,22.9,16.7c8,6.1,14.3,15.2,14.6,25.2c0.1,5-1.4,10.4-5.3,13.7
		c-3.4,2.9-8.6,3.5-12.2,1.3c14.1,11.2,28.3,22.8,37.7,38.1C347.6,538,351.4,558.8,342.6,575.1L342.6,575.1z"/>
	<g>
		<path class="st11" d="M342.6,575.1c-8.7,16-28.3,24.5-46.4,22.5c-18.1-2.1-34.4-13.4-45.1-28.1c8.2,17.3-0.7,40.6-18.4,48
			c11.6,16.9,23.6,34.8,25.2,55.2c1.7,20.4-11.4,43.5-31.8,45.2c-18.5,1.6-34.5-14.9-39.4-32.7c-0.4,8.2-9.3,15-17.4,15.9
			s-16.6-4.9-18.7-12.9c1.1,17.3,1.1,37.4-12.2,48.6c-11.8,10-29.6,8.5-44.2,3.5c-22.8-7.9-45.7-15.5-59.2-35.6
			c-8.7,15.6-25.5,26.4-43.4,27.9c-17.8,1.4-36.2-6.5-47.3-20.5c-3.7,10.3-15,17.4-25.9,16.2c-11-1.2-20.4-10.6-21.7-21.5
			c-18.9,16.8-49,18-70.7,5c-21.6-13-34.4-38.5-34.9-63.7c-0.4-25.2,10.6-50,27.4-68.8c-15.7-3.1-29.3-8.7-38.5-21.8
			c14.6-4.8,30.9-3.8,44.8,2.8c-13.5-12.6-22.5-29.6-24.8-47.8c19.5-7,42.1-4.2,58.4,8.5c-6.8-8.9-9.1-21.2-6-32
			c3.1-10.8,11.6-20,22.1-23.9c-23-7.9-39.9-29.8-44.3-53.8c-4.5-23.9,2.5-49.2,16.4-69.3c0.5-0.8,1-1.5,1.7-2.2
			c-0.9,15.5,3.3,31.4,12.4,44c14.5,20,40.6,30.9,65.1,27.1c-4.4,2.1-7.2,7.2-6.7,12.1c0.5,4.9,4.2,9.2,8.9,10.5
			c-16.6,12.8-30.4,31-31.8,51.9c-1,15.5,5.3,31.3,16.7,41.8s27.7,15.5,43,13.3c-6.3-3.8-10.9-8.2-12.9-15.3
			c-2-7.1-1.2-14.9,2.3-21.4c12.6,3.6,26.4,12.2,31.7,24.2c0-0.2,0.1-0.4,0.1-0.6c0-13.9,14.4-27.9,27.5-32.6
			c8.4,13.9,7.2,32.3-2.9,45.2c1.6,5.9,7.4,10.2,13.4,11.4c6,1.2,12.7-1.2,16.5-6.1c3.4,5,8.2,8.8,13.8,11c3,13.4,11.9,25,23.6,32.1
			c11.7,7.1,26.2,9.3,39.5,5.8c13.2-3.4,24.6-12.2,32.6-23.3c8-11,12.7-24.2,15.1-37.6c5.1-29.1-0.7-59.9-16.1-85.1
			c4.5,2.9,11,1.9,14.4-2.2c3.4-4.1,3.2-10.7-0.5-14.5c15.2,12.7,39.8,12.1,54.4-1.2c14.6-13.4,17.2-37.9,5.7-54
			c4.7-7,5.2-16.6,1.6-24.2c-3.6-7.6-10.3-13.5-17.7-17.6c-7.4-4.1-15.5-6.7-23.6-9.2c14.9-13.3,20-37.5,12-55.7
			c15.2,7.8,33.9,10.4,49.5,3.3c10.6-4.7,19-14.6,22-25.5c4.6,0.7,9.2,1.7,13.5,3.2c-1.2,17.7-15,33.8-32.4,37.2
			c11.8,7.7,14.4,26.3,5.1,36.9c19.1-5.8,41.1-2.2,56.6,10.3c15.6,12.5,23.9,33.8,19.9,53.3c-4,19.6-20.7,36.1-40.5,39
			c9.4,3.5,14.8,10.6,22.9,16.7c8,6.1,14.3,15.2,14.6,25.2c0.1,5-1.4,10.4-5.3,13.7c-3.4,2.9-8.6,3.5-12.2,1.3
			c14.1,11.2,28.3,22.8,37.7,38.1C347.6,537.9,351.3,558.7,342.6,575.1L342.6,575.1z"/>
	</g>
</g>
</svg>
