<svg width="34" height="34" viewBox="0 0 34 34" fill="none" xmlns="http://www.w3.org/2000/svg">
<path d="M17.0007 22.8333C15.4536 22.8333 13.9699 22.2187 12.8759 21.1247C11.782 20.0307 11.1674 18.547 11.1674 16.9999C11.1674 15.4528 11.782 13.9691 12.8759 12.8751C13.9699 11.7812 15.4536 11.1666 17.0007 11.1666C18.5478 11.1666 20.0315 11.7812 21.1255 12.8751C22.2195 13.9691 22.834 15.4528 22.834 16.9999C22.834 18.547 22.2195 20.0307 21.1255 21.1247C20.0315 22.2187 18.5478 22.8333 17.0007 22.8333ZM29.384 18.6166C29.4507 18.0833 29.5007 17.5499 29.5007 16.9999C29.5007 16.4499 29.4507 15.8999 29.384 15.3333L32.9007 12.6166C33.2174 12.3666 33.3007 11.9166 33.1007 11.5499L29.7674 5.78325C29.5674 5.41658 29.1174 5.26659 28.7507 5.41659L24.6007 7.08325C23.734 6.43325 22.834 5.86659 21.784 5.44992L21.1674 1.03325C21.1007 0.633252 20.7507 0.333252 20.334 0.333252H13.6674C13.2507 0.333252 12.9007 0.633252 12.834 1.03325L12.2174 5.44992C11.1674 5.86659 10.2674 6.43325 9.40071 7.08325L5.25071 5.41659C4.88404 5.26659 4.43404 5.41658 4.23404 5.78325L0.900709 11.5499C0.684042 11.9166 0.784042 12.3666 1.10071 12.6166L4.61738 15.3333C4.55071 15.8999 4.50071 16.4499 4.50071 16.9999C4.50071 17.5499 4.55071 18.0833 4.61738 18.6166L1.10071 21.3833C0.784042 21.6333 0.684042 22.0833 0.900709 22.4499L4.23404 28.2166C4.43404 28.5833 4.88404 28.7166 5.25071 28.5833L9.40071 26.8999C10.2674 27.5666 11.1674 28.1333 12.2174 28.5499L12.834 32.9666C12.9007 33.3666 13.2507 33.6666 13.6674 33.6666H20.334C20.7507 33.6666 21.1007 33.3666 21.1674 32.9666L21.784 28.5499C22.834 28.1166 23.734 27.5666 24.6007 26.8999L28.7507 28.5833C29.1174 28.7166 29.5674 28.5833 29.7674 28.2166L33.1007 22.4499C33.3007 22.0833 33.2174 21.6333 32.9007 21.3833L29.384 18.6166Z" fill="#737373"/>
</svg>
