<?xml version="1.0" encoding="utf-8"?>
<!-- Generator: Adobe Illustrator 28.2.0, SVG Export Plug-In . SVG Version: 6.00 Build 0)  -->
<svg version="1.1" id="Layer_1" xmlns="http://www.w3.org/2000/svg" xmlns:xlink="http://www.w3.org/1999/xlink" x="0px" y="0px"
	 viewBox="0 0 1920 1000.9" style="enable-background:new 0 0 1920 1000.9;" xml:space="preserve">
<style type="text/css">
	.st0{fill:#632424;}
	.st1{fill:#414A2B;}
	.st2{fill:#36401C;}
</style>
<path class="st0" d="M1588.2,1031.8c35.8-126.8,39.2-258,4.9-385.1c3.3-0.1,6,0.3,9.2,0.2c17.7,38.2,27.3,79.3,29.6,120.1
	c1.2-35.7,4.1-71.4,9.5-106.9c2.8,0.3,5.7,0.6,8.5,0.9c-5.3,121.7-2.8,243.7,7.7,365.2L1588.2,1031.8L1588.2,1031.8z"/>
<path class="st1" d="M1461.6,668c0.2,10.7,4.3,22.5,14.1,26.9c10,4.5,21.5-0.5,31.4-5.4c2.4,5.3,7.7,9.1,13.5,9.7
	c5.8,0.6,11.8-2,15.3-6.6c-8.4,11.1-5.9,28.8,5.1,37.2c11.1,8.4,28.8,6.1,37.2-4.9c8.3-10.8,7.2-26,4.9-39.5
	c4.9,4.6,13.1,4.2,18.6,0.4c5.5-3.8,8.5-10.5,9.4-17.1c0.9-6.6,0-13.4-0.9-20c1.6,8.7,8.7,16,17.1,18.5c0.2,6.1,3.3,12.2,8.3,15.7
	c6.4,4.5,15.4,4.8,22.1,0.7c-4.1,8.7,4,20.4,13.6,19.5c-10.8,8-15.2,23.7-10,36.1c5.1,12.4,19.2,20.5,32.6,18.6
	c13.3-1.9,24.6-13.6,26-27c1.6,5.6,7.5,9.7,13.3,9.1c5.8-0.6,10.8-5.6,11.3-11.5c13.1,11,35.5,3.3,42.8-12.2
	c7.3-15.5,2.1-34.5-8.5-48c-10.5-13.5-25.7-22.5-40.4-31.2c7.2-2.6,11.9-10.7,10.6-18.2c19.4-10.7,29.7-35.7,23.4-56.9
	c-1.3-4.4-3.3-8.5-5.8-12.3c-9.7-14.6-27.3-24-44.9-22.8c6.4-12.3,2.5-29.1-8.7-37.3c7.2-17.7,11.8-36.9,9.6-55.9
	c-2.2-19-12-37.7-28.4-47.6c-16.4-9.8-39.6-8.8-53,4.8c7.9-9.4,5.3-24.9-4.1-32.9c-9.3-7.9-23.3-8.9-34.7-4.4
	c-11.4,4.5-20.5,13.6-27.3,23.7c-19.3,28.5-22.6,67.2-8.5,98.6c-4-6.4-13.6-8.4-19.9-4.3c-6.3,4.1-8.1,13.8-3.8,19.9
	c-16.5-7.4-37.3-4.1-50.6,8.2c-4.9,4.5-8.8,10.2-11.3,16.4c-4.3,10.5-4.9,22.6-1,33.3c6,17,22.9,29.7,40.9,30.8
	c-4.7,4.3-12.5,4.4-18.8,5.7c-6.2,1.3-13.3,5.1-13.6,11.5c-0.2,4.8,3.6,8.9,8,10.7c4.4,1.7,9.4,1.5,14.2,1.3
	c-13.8,2.2-26.7,9.5-35.6,20.1C1466.3,640.2,1461.4,654.1,1461.6,668L1461.6,668z"/>
<g>
	<path class="st2" d="M1461.6,668c0.2,10.7,4.3,22.5,14.1,26.9c10,4.5,21.5-0.5,31.4-5.4c2.4,5.3,7.7,9.1,13.5,9.7
		c5.8,0.6,11.8-2,15.3-6.6c-8.4,11.1-5.9,28.8,5.1,37.2c11.1,8.4,28.8,6.1,37.2-4.9c8.3-10.8,7.2-26,4.9-39.5
		c4.9,4.6,13.1,4.2,18.6,0.4c5.5-3.8,8.5-10.5,9.4-17.1c0.9-6.6,0-13.4-0.9-20c1.6,8.7,8.7,16,17.1,18.5c0.2,6.1,3.3,12.2,8.3,15.7
		c6.4,4.5,15.4,4.8,22.1,0.7c-4.1,8.7,4,20.4,13.6,19.5c-10.8,8-15.2,23.7-10,36.1c5.1,12.4,19.2,20.5,32.6,18.6
		c13.3-1.9,24.6-13.6,26-27c1.6,5.6,7.5,9.7,13.3,9.1c5.8-0.6,10.8-5.6,11.3-11.5c13.1,11,35.5,3.3,42.8-12.2
		c7.3-15.5,2.1-34.5-8.5-48c-10.5-13.5-25.7-22.5-40.4-31.2c7.2-2.6,11.9-10.7,10.6-18.2c19.4-10.7,29.7-35.7,23.4-56.9
		c-1.3-4.4-3.3-8.5-5.8-12.3c1.7,8.2,0.5,17.1-3.9,24.3c-6.7,11.2-20.5,17.8-33.4,16c1.8,3.2,1.3,7.6-1.3,10.3
		c-2.6,2.6-7,3.3-10.3,1.6c3.5,10.4,1.7,22.3-4.5,31.3c-4.2,6-11.2,11-18.5,9.9c-5.8-0.8-10.5-5.3-13.2-10.4
		c-2.7-5.2-3.7-11-4.6-16.8c6.1-0.1,11.6-2.9,15.1-7.9c-5.3-3.9-12.1-5.8-18.2-3.2c-1.5-7.6-5.7-15-11.3-20.4
		c-5.1,8.5-5.6,19.7-0.7,28.4c-0.5,1.4-2.3,2.6-3.8,2.8c-1.2-0.9-4.5-1.8-5.7-2.6c-2.4,7-9.5,10.6-16.7,12.5
		c-7.2,1.9-15.2,0-20.8-4.8c-5.6-4.8-8.6-12.5-7.7-19.9c6-3.2,10.8-8.3,13.6-14.5c-8.7-0.8-17.5,3.2-22.1,10.5
		c2.8,2.5,1.6,8.6-1.3,10.9c-2.9,2.3-7.8,1.3-9.6-2c-3.2,4.8-9,8-14.7,7.2c-6.4-0.9-11.4-6.6-12.8-12.8c-1.4-6.3,0.3-12.9,3.5-18.5
		c3.1-5.6,7.6-10.4,12-15c-3.7,2.7-9.1,2.8-13,0.3c-3.9-2.5-5.9-7.5-5-12c-13.4,10.7-31.6,18.2-47.8,12.5
		c-14.8-5.2-24.4-20.3-27.3-35.7c-0.9-5-1.3-10.1-1.3-15.2c-4.3,10.5-4.9,22.6-1,33.3c6,17,22.9,29.7,40.9,30.8
		c-4.7,4.3-12.5,4.4-18.8,5.7c-6.2,1.3-13.3,5.1-13.6,11.5c-0.2,4.8,3.6,8.9,8,10.7c4.4,1.7,9.4,1.5,14.2,1.3
		c-13.8,2.2-26.7,9.5-35.6,20.1C1466.4,640.3,1461.4,654.2,1461.6,668L1461.6,668z"/>
</g>
<path class="st0" d="M255.9,1031.8c35.8-126.8,39.2-258,4.9-385.1c3.3-0.1,6,0.3,9.2,0.2c17.7,38.2,27.3,79.3,29.6,120.1
	c1.2-35.7,4.1-71.4,9.5-106.9c2.8,0.3,5.7,0.6,8.5,0.9c-5.3,121.7-2.8,243.7,7.7,365.2L255.9,1031.8L255.9,1031.8z"/>
<path class="st1" d="M129.3,668c0.2,10.7,4.4,22.5,14.1,26.9c10,4.5,21.6-0.5,31.4-5.4c2.4,5.3,7.7,9.1,13.5,9.7
	c5.8,0.6,11.8-2,15.3-6.6c-8.4,11.1-5.9,28.8,5.1,37.2c11,8.4,28.8,6.1,37.2-4.9c8.3-10.8,7.2-26,4.9-39.5
	c4.9,4.6,13.1,4.2,18.6,0.4c5.5-3.8,8.5-10.5,9.4-17.1c0.9-6.6,0-13.4-0.9-20c1.6,8.7,8.7,16,17.1,18.5c0.3,6.1,3.3,12.2,8.3,15.7
	c6.4,4.5,15.4,4.8,22.1,0.7c-4.1,8.7,4,20.4,13.6,19.5c-10.8,8-15.1,23.7-10,36.1c5.1,12.4,19.3,20.5,32.6,18.6
	c13.3-1.9,24.6-13.6,26-27c1.6,5.6,7.5,9.7,13.3,9.1c5.8-0.6,10.8-5.6,11.3-11.5c13.1,11,35.5,3.3,42.8-12.2
	c7.3-15.5,2.1-34.5-8.5-48c-10.5-13.5-25.7-22.5-40.4-31.2c7.2-2.6,11.9-10.7,10.6-18.2c19.4-10.7,29.7-35.7,23.4-56.9
	c-1.3-4.4-3.3-8.5-5.8-12.3c-9.7-14.6-27.3-24-44.9-22.8c6.4-12.3,2.5-29.1-8.7-37.3c7.2-17.7,11.8-36.9,9.6-55.9
	c-2.2-19-12-37.7-28.4-47.6c-16.4-9.8-39.6-8.8-53,4.8c7.9-9.4,5.3-24.9-4.1-32.9c-9.3-7.9-23.3-8.9-34.7-4.4
	c-11.4,4.5-20.5,13.6-27.3,23.7c-19.3,28.5-22.6,67.2-8.5,98.6c-4-6.4-13.6-8.4-19.9-4.3c-6.3,4.1-8.1,13.8-3.8,19.9
	c-16.5-7.4-37.3-4.1-50.6,8.2c-4.9,4.5-8.7,10.2-11.3,16.4c-4.3,10.5-4.9,22.6-1,33.3c6,17,22.9,29.7,40.9,30.8
	c-4.7,4.3-12.5,4.4-18.7,5.7c-6.2,1.3-13.3,5.1-13.6,11.5c-0.3,4.8,3.6,8.9,8,10.7c4.4,1.7,9.4,1.5,14.1,1.3
	c-13.8,2.2-26.7,9.5-35.6,20.1C134.1,640.2,129.1,654.1,129.3,668L129.3,668z"/>
<g>
	<path class="st2" d="M129.3,668c0.2,10.7,4.4,22.5,14.1,26.9c10,4.5,21.6-0.5,31.4-5.4c2.4,5.3,7.7,9.1,13.5,9.7
		c5.8,0.6,11.8-2,15.3-6.6c-8.4,11.1-5.9,28.8,5.1,37.2c11,8.4,28.8,6.1,37.2-4.9c8.3-10.8,7.2-26,4.9-39.5
		c4.9,4.6,13.1,4.2,18.6,0.4c5.5-3.8,8.5-10.5,9.4-17.1c0.9-6.6,0-13.4-0.9-20c1.6,8.7,8.7,16,17.1,18.5c0.3,6.1,3.3,12.2,8.3,15.7
		c6.4,4.5,15.4,4.8,22.1,0.7c-4.1,8.7,4,20.4,13.6,19.5c-10.8,8-15.1,23.7-10,36.1c5.1,12.4,19.3,20.5,32.6,18.6
		c13.3-1.9,24.6-13.6,26-27c1.6,5.6,7.5,9.7,13.3,9.1c5.8-0.6,10.8-5.6,11.3-11.5c13.1,11,35.5,3.3,42.8-12.2
		c7.3-15.5,2.1-34.5-8.5-48c-10.5-13.5-25.7-22.5-40.4-31.2c7.2-2.6,11.9-10.7,10.6-18.2c19.4-10.7,29.7-35.7,23.4-56.9
		c-1.3-4.4-3.3-8.5-5.8-12.3c1.7,8.2,0.5,17.1-3.9,24.3c-6.7,11.2-20.5,17.8-33.4,16c1.8,3.2,1.3,7.6-1.3,10.3
		c-2.6,2.6-7,3.3-10.3,1.6c3.5,10.4,1.7,22.3-4.5,31.3c-4.2,6-11.2,11-18.5,9.9c-5.8-0.8-10.5-5.3-13.2-10.4
		c-2.7-5.2-3.7-11-4.6-16.8c6.1-0.1,11.6-2.9,15.1-7.9c-5.3-3.9-12.1-5.8-18.2-3.2c-1.5-7.6-5.7-15-11.3-20.4
		c-5.1,8.5-5.6,19.7-0.7,28.4c-0.5,1.4-2.3,2.6-3.8,2.8c-1.2-0.9-4.5-1.8-5.7-2.6c-2.4,7-9.5,10.6-16.7,12.5s-15.2,0-20.8-4.8
		c-5.6-4.8-8.6-12.5-7.7-19.9c6-3.2,10.8-8.3,13.6-14.5c-8.7-0.8-17.5,3.2-22.1,10.5c2.8,2.5,1.6,8.6-1.3,10.9
		c-2.9,2.3-7.8,1.3-9.6-2c-3.2,4.8-9,8-14.7,7.2c-6.4-0.9-11.4-6.6-12.8-12.8c-1.4-6.3,0.3-12.9,3.5-18.5c3.1-5.6,7.6-10.4,12-15
		c-3.7,2.7-9.1,2.8-13,0.3c-3.9-2.5-5.9-7.5-5-12c-13.4,10.7-31.6,18.2-47.8,12.5c-14.8-5.2-24.4-20.3-27.3-35.7
		c-0.9-5-1.3-10.1-1.3-15.2c-4.3,10.5-4.9,22.6-1,33.3c6,17,22.9,29.7,40.9,30.8c-4.7,4.3-12.5,4.4-18.7,5.7
		c-6.2,1.3-13.3,5.1-13.6,11.5c-0.3,4.8,3.6,8.9,8,10.7c4.4,1.7,9.4,1.5,14.1,1.3c-13.8,2.2-26.7,9.5-35.6,20.1
		C134.2,640.3,129.2,654.2,129.3,668L129.3,668z"/>
</g>
</svg>
