<?xml version="1.0" encoding="utf-8"?>
<!-- Generator: Adobe Illustrator 28.2.0, SVG Export Plug-In . SVG Version: 6.00 Build 0)  -->
<svg version="1.1" id="Layer_1" xmlns="http://www.w3.org/2000/svg" xmlns:xlink="http://www.w3.org/1999/xlink" x="0px" y="0px"
	 viewBox="0 0 56 56" style="enable-background:new 0 0 56 56;" xml:space="preserve">
<style type="text/css">
	.st0{fill:#FFFFFF;}
	.st1{fill:#23649A;}
</style>
<g>
	<path shape-rendering="crispEdges" class="st0" d="M28,0L28,0c15.5,0,28,12.5,28,28l0,0c0,15.5-12.5,28-28,28l0,0
		C12.5,56,0,43.5,0,28l0,0C0,12.5,12.5,0,28,0z"/>
	<path class="st1" d="M35.2,8c0.2,0.1,0.4,0.1,0.6,0.2c0.7,0.1,1.4,0.1,2.1,0.2c0,0,0,0,0.1,0.1v6.2c0,0,0,0-0.1,0.1
		c-1.3,0-2.5,0-3.8,0c-0.5,0-1,0.1-1.5,0.2c-0.9,0.2-1.4,0.9-1.6,1.9C31,17.2,31,17.7,31,18.2c0,1.4,0,2.8,0,4.2c0,0.1,0,0.1,0,0.3
		h6.7c-0.3,2.4-0.6,4.7-0.9,7.1H31V48h-7.1V29.8c-0.2,0-0.3,0-0.4,0c-1.7,0-3.3,0-5,0c-0.1,0-0.3,0-0.4,0c0,0,0-0.1-0.1-0.1v-6.9
		c0,0,0,0,0,0c0,0,0,0,0-0.1c0.1,0,0.2,0,0.4,0c1.7,0,3.4,0,5.1,0h0.4c0-0.1,0-0.1,0-0.2c0-1.7,0-3.4,0-5.2c0-1.7,0.3-3.3,1-4.9
		c0.8-1.6,1.9-2.7,3.4-3.5c0.8-0.4,1.7-0.7,2.7-0.8c0.2,0,0.4-0.1,0.5-0.2c0.9,0,1.8,0,2.6,0c0.2,0,0.3,0,0.5,0.1
		c0.1,0,0.1,0,0.2-0.1C35,8,35.1,8,35.2,8L35.2,8z"/>
</g>
</svg>
