<svg width="34" height="37" viewBox="0 0 34 37" fill="none" xmlns="http://www.w3.org/2000/svg">
<path d="M33.6654 11.6667V26.6667C33.6654 28.5 32.1654 30 30.332 30H6.9987L0.332031 36.6667V6.66667C0.332031 4.83333 1.83203 3.33333 3.66536 3.33333H20.4987C20.332 3.83333 20.332 4.5 20.332 5C20.332 9.66667 23.9987 13.3333 28.6654 13.3333C30.4987 13.3333 32.332 12.6667 33.6654 11.6667ZM23.6654 5C23.6654 7.83333 25.832 10 28.6654 10C31.4987 10 33.6654 7.83333 33.6654 5C33.6654 2.16667 31.4987 0 28.6654 0C25.832 0 23.6654 2.16667 23.6654 5Z" fill="#737373"/>
</svg>
