<svg width="40" height="40" viewBox="0 0 40 40" fill="none" xmlns="http://www.w3.org/2000/svg">
<path d="M20.2 18.2C19.1391 18.2 18.1217 17.7786 17.3716 17.0284C16.6214 16.2783 16.2 15.2609 16.2 14.2C16.2 13.1391 16.6214 12.1217 17.3716 11.3716C18.1217 10.6214 19.1391 10.2 20.2 10.2C21.2609 10.2 22.2783 10.6214 23.0284 11.3716C23.7786 12.1217 24.2 13.1391 24.2 14.2C24.2 14.7253 24.0965 15.2454 23.8955 15.7307C23.6945 16.216 23.3999 16.657 23.0284 17.0284C22.657 17.3999 22.216 17.6945 21.7307 17.8955C21.2454 18.0965 20.7253 18.2 20.2 18.2ZM20.2 3C17.2296 3 14.3808 4.18 12.2804 6.2804C10.18 8.38081 9 11.2296 9 14.2C9 22.6 20.2 35 20.2 35C20.2 35 31.4 22.6 31.4 14.2C31.4 11.2296 30.22 8.38081 28.1196 6.2804C26.0192 4.18 23.1704 3 20.2 3Z" fill="#737373"/>
</svg>
