<?xml version="1.0" encoding="UTF-8"?>
<svg id="Layer_1" xmlns="http://www.w3.org/2000/svg" xmlns:xlink="http://www.w3.org/1999/xlink" version="1.1" viewBox="0 0 72.5 72.5">
  <!-- Generator: Adobe Illustrator 29.3.1, SVG Export Plug-In . SVG Version: 2.1.0 Build 151)  -->
  <defs>
    <style>
      .st0 {
        fill: #da0000;
      }
    </style>
  </defs>
  <g id="SVGRepo_iconCarrier">
    <path class="st0" d="M12.9,27.5c0-.7,0-1.4,0-2.2,0-13.2,10.4-24,23.1-24s23.1,10.7,23.1,24,0,1.5,0,2.2h0c0,13.1-23.1,43.6-23.1,43.6,0,0-23.1-30.4-23.1-43.6h0ZM35.9,31.9c5,.1,9.1-3.8,9.2-8.7-.1-5-4.3-8.9-9.2-8.7-5-.1-9.1,3.8-9.2,8.7.1,5,4.3,8.9,9.2,8.7Z"/>
  </g>
</svg>