<?xml version="1.0" encoding="utf-8"?>
<!-- Generator: Adobe Illustrator 28.2.0, SVG Export Plug-In . SVG Version: 6.00 Build 0)  -->
<svg version="1.1" id="Layer_1" xmlns="http://www.w3.org/2000/svg" xmlns:xlink="http://www.w3.org/1999/xlink" x="0px" y="0px"
	 viewBox="0 0 72.5 72.5" style="enable-background:new 0 0 72.5 72.5;" xml:space="preserve">
<style type="text/css">
	.st0{fill:#77BEF9;}
	.st1{fill:#FFFFFF;}
</style>
<circle class="st0" cx="36.2" cy="36.2" r="36.2"/>
<g>
	<path class="st1" d="M32.1,27.9H21.4c-1.1,0-2.1,0.9-2.1,2.1v10.6c0,1.1,0.9,2.1,2.1,2.1h10.6c1.1,0,2.1-0.9,2.1-2.1V29.9
		C34.1,28.8,33.2,27.9,32.1,27.9z M32,40.5l-10.5,0.1L21.4,30L32,29.9V40.5z"/>
	<path class="st1" d="M55.9,38.6C55.9,38.6,55.9,38.6,55.9,38.6l0-11.7c0.1,0,0.2,0,0.3,0c0.5,0,0.9-0.2,1.2-0.4
		c0.5-0.5,0.4-1.2-0.3-1.6L35.6,12c-0.5-0.3-1.3-0.3-1.9,0L11.4,24.3c-0.7,0.4-0.8,1.1-0.3,1.6c0.5,0.5,1.5,0.6,2.2,0.3l0,0v25H11
		c-0.6,0-1.1,0.5-1.1,1.1s0.5,1.1,1.1,1.1h29.2c1.7,4.3,5.9,7.4,10.8,7.4c6.4,0,11.6-5.2,11.6-11.6C62.6,44.5,59.8,40.5,55.9,38.6z
		 M39.6,51.2H15.3V25l19.3-10.6l19.2,11.4v12c-0.9-0.2-1.8-0.4-2.8-0.4c-6.4,0-11.6,5.2-11.6,11.6C39.4,49.8,39.5,50.5,39.6,51.2z
		 M51.6,58.5c0-0.3,0-0.6,0-0.9c0-1,0-2.3,0.1-2.6c0.1-0.9,0.4-1.8,0.8-2.6c0,0,0-0.1,0.1-0.1c0,0,0.1,0,0.1,0.1
		c0.7,0.4,1.5,0.5,2.4,0.3c0.7-0.1,1.2-0.5,1.6-1c0.3-0.5,0.6-1,0.7-1.7c0.2-1,0.3-2,0.3-2.8c0-0.3-0.1-0.4-0.2-0.5
		c-0.1-0.1-0.3-0.2-0.5-0.2c-0.6,0-1.4,0-2.3,0.2c-0.5,0.1-1.3,0.3-2,0.7c-0.6,0.3-0.9,0.8-1.1,1.3c-0.3,0.9-0.3,1.7,0,2.6
		c-0.2,0.3-0.4,0.6-0.5,1c-0.1-0.6-0.3-1.1-0.6-1.6c0,0,0-0.1,0-0.1c0.1-0.1,0.1-0.2,0.2-0.4c0.2-0.6,0.3-1.2,0.3-1.8
		c-0.1-0.9-0.5-1.7-1.3-2.1c-0.5-0.3-1-0.5-1.7-0.6c-0.9-0.2-1.8-0.2-2.5-0.2c-0.3,0-0.6,0.2-0.7,0.5l0,0.9l0.1,0.6
		c0,0.4,0.1,0.7,0.1,1.1c0.1,0.8,0.3,1.4,0.7,2c0.3,0.5,0.7,0.9,1.3,1.1c0.7,0.3,1.5,0.3,2.3,0.1c0.1,0,0.2-0.1,0.2-0.1
		c0.3,0.7,0.5,1.5,0.6,2.3c0.1,0.7,0.2,3.4,0.2,4.8c-4.9-0.4-8.7-4.5-8.7-9.4c0-5.2,4.3-9.5,9.5-9.5s9.5,4.3,9.5,9.5
		S56.5,58.2,51.6,58.5z M55.4,49.2L55.4,49.2c0-0.2-0.2-0.4-0.3-0.5c-0.2-0.1-0.4-0.1-0.6,0c-0.2,0.1-0.3,0.2-0.5,0.3
		c-0.5,0.3-0.9,0.6-1.3,0.9c0-0.4,0.1-0.8,0.3-1.1c0.1-0.2,0.4-0.4,0.6-0.5c0.4-0.2,0.9-0.3,1.4-0.4c0.4,0,0.8-0.1,1.2-0.1h0.1
		c0,0,0,0,0,0c0,0.7-0.1,1.4-0.3,2c-0.1,0.3-0.2,0.6-0.4,0.8c-0.2,0.4-0.5,0.6-1,0.7c-0.5,0.1-1,0-1.4-0.2c0.2-0.2,0.4-0.4,0.6-0.6
		c0.3-0.3,0.7-0.5,1.1-0.7C55.5,49.7,55.4,49.3,55.4,49.2z M47.2,48.8c0.1,0.1,0.2,0.2,0.3,0.2c0.1,0.1,0.2,0.2,0.4,0.3
		c0.3,0.3,0.6,0.6,0.9,0.9c-0.1,0-0.3,0.1-0.4,0.1c-0.4,0-0.8,0-1.1-0.1c-0.3-0.1-0.5-0.3-0.7-0.7c-0.2-0.4-0.3-0.8-0.4-1.4
		c-0.1-0.5-0.1-1-0.1-1.4c0.7,0,1.3,0.1,1.9,0.2c0.5,0.1,0.8,0.3,1.2,0.5c0.3,0.2,0.5,0.5,0.5,0.8c0.1,0.3,0.1,0.7,0,1
		c-0.4-0.5-0.8-0.9-1.3-1.2L48,47.7c-0.3-0.2-0.7-0.2-1,0.1c-0.1,0.2-0.2,0.3-0.1,0.5C47,48.5,47.1,48.6,47.2,48.8z"/>
	<path class="st1" d="M47.2,48.8C47.2,48.8,47.2,48.8,47.2,48.8C47.2,48.8,47.2,48.8,47.2,48.8L47.2,48.8z"/>
</g>
</svg>
