<?xml version="1.0" encoding="utf-8"?>
<!-- Generator: Adobe Illustrator 28.2.0, SVG Export Plug-In . SVG Version: 6.00 Build 0)  -->
<svg version="1.1" id="Layer_1" xmlns="http://www.w3.org/2000/svg" xmlns:xlink="http://www.w3.org/1999/xlink" x="0px" y="0px"
	 viewBox="0 0 72.5 72.5" style="enable-background:new 0 0 72.5 72.5;" xml:space="preserve">
<style type="text/css">
	.st0{fill:#408D27;}
	.st1{fill:#FFFFFF;}
</style>
<circle class="st0" cx="36.2" cy="36.2" r="36.2"/>
<g>
	<path class="st1" d="M36.9,18.7c10,0,17.9,7.8,17.9,17.8c0,9.8-7.9,17.7-17.7,17.9c-9.8,0.1-18-8.1-18-17.9
		C19.2,26.7,27.1,18.7,36.9,18.7z M30.3,37c0.9-1.5,1.4-3.4,2.7-4.2c1.3-0.8,3.2-0.5,4.9-0.8c0.4-0.1,0.8-0.5,1.2-0.8
		c0.9-0.8,2-1.4,2.7-2.3c0.9-1.1,2.5-2.7,2.2-3.7c-0.3-1.3-2-2.7-3.3-3.1c-5.6-1.6-10.5,0-14.5,4.1c-2.2,2.2-1.1,4.9-0.6,7.4
		C26.1,35.7,27.5,37.3,30.3,37z M45.8,48.4c6.8-3.3,9.1-16.1,1.7-22.4c-0.4,0.5-0.7,1-1.1,1.5c-3,3.2-4.9,7.9-10.7,7
		c-0.5-0.1-1.4,1.7-2.1,2.6c0.8,0.3,1.7,0.9,2.6,1c0.8,0.1,1.6-0.3,2.4-0.4c3.7-0.6,8,2,8.6,5.6C47.4,44.9,46.2,46.9,45.8,48.4z
		 M38.2,51.2c-1.6-2.4-2.8-4.2-4-6c-0.6-0.9-1.8-1.7-1.9-2.7c-0.3-2.1-1.4-2.9-3.3-3c-2.5-0.2-4.3-1.3-5.2-3.7
		c-0.3-0.7-0.8-1.3-1.4-2.2C21.1,43.6,28,51.8,38.2,51.2z M40.7,50.7c0.9-1.4,2.1-3.2,3.3-5.1c1.3-1.9,0.8-3.2-1.1-4.3
		c-2.8-1.8-5.4-1.1-8.1-0.2C36.8,44.3,38.7,47.4,40.7,50.7z"/>
	<path class="st1" d="M40.6,57.7c-6.6,2.4-13,1.9-19.1-1.6c-1.6-0.9-3.2-2.1-4.5-3.4c-1.7-1.7-3.5-2.6-6.6-0.5
		c1.5-5.3,2.8-9.6,4.1-14C17.6,52.8,28.6,58.7,40.6,57.7z"/>
	<path class="st1" d="M36.1,7.6c3,2.9,6.1,5.9,9.1,8.8c-13.1-3.3-22.7,0.7-29.3,12.4c0.3-1.1,0.4-2.2,0.8-3.2
		c2.8-6.9,7.9-11.4,15-13.6c2.2-0.7,4.4-1.2,3.5-4.7C35.5,7.4,35.8,7.5,36.1,7.6z"/>
	<path class="st1" d="M62.1,50.4c-1.2,0.5-1.8,0.8-2.4,1c-3.4,1-6.8,1.9-10.4,2.6c9.5-9.5,10.7-19.8,3.8-31.1
		c4.1,3.3,6.4,7.5,7.1,12.6c0.4,2.8,0.1,5.8-0.2,8.7C59.6,46.5,58.8,48.8,62.1,50.4z"/>
</g>
</svg>
