<?xml version="1.0" encoding="utf-8"?>
<!-- Generator: Adobe Illustrator 28.2.0, SVG Export Plug-In . SVG Version: 6.00 Build 0)  -->
<svg version="1.1" id="Layer_1" xmlns="http://www.w3.org/2000/svg" xmlns:xlink="http://www.w3.org/1999/xlink" x="0px" y="0px"
	 viewBox="0 0 72.5 72.5" style="enable-background:new 0 0 72.5 72.5;" xml:space="preserve">
<style type="text/css">
	.st0{fill:#7FAE70;}
	.st1{fill:#FFFFFF;}
</style>
<circle class="st0" cx="36.2" cy="36.2" r="36.2"/>
<g>
	<path class="st1" d="M54.5,38v0.7c0,5.9,0,11.9,0,17.8c0,2-1.1,3.4-2.9,3.7c-0.2,0-0.5,0-0.7,0c-9.7,0-19.5,0-29.2,0
		c-2.2,0-3.7-1.4-3.7-3.7c0-6,0-11.9,0-17.9c0-0.2,0-0.4,0-0.7c-0.3,0.3-0.4,0.4-0.5,0.4c-0.6,0.4-1.2,0.4-1.6-0.2
		c-1.2-1.5-2.3-3-3.4-4.6c-0.4-0.6-0.3-1.2,0.3-1.7c3.3-2.8,6.6-5.6,10-8.5c4.1-3.4,8.2-7,12.4-10.5c0.8-0.7,1.2-0.7,2,0
		c7.5,6.4,14.9,12.7,22.4,19c0.8,0.7,0.8,1.2,0.2,2c-1,1.3-2,2.6-2.9,3.9C56.1,38.8,55.6,38.8,54.5,38L54.5,38z M36.2,21.8
		c-0.2,0.2-0.3,0.3-0.4,0.4c-5,4.4-10,8.8-15,13.2c-0.4,0.4-0.6,0.7-0.6,1.3c0,6.3,0,12.7,0,19c0,0.4,0,0.7,0,1.1
		c0,0.7,0.4,1.1,1.1,1.2c0.2,0,0.4,0,0.5,0c9.6,0,19.1,0,28.7,0c1.4,0,1.7-0.3,1.7-1.7c0-6.6,0-13.1,0-19.7c0-0.5-0.2-0.9-0.5-1.2
		c-3.3-2.9-6.5-5.7-9.8-8.6C40,25.2,38.1,23.5,36.2,21.8L36.2,21.8z M57.5,33c-7.1-6-14.2-12-21.3-18C29.1,21,22,27.1,14.9,33.1
		c0.7,0.9,1.4,1.8,2,2.7c0.2-0.1,0.3-0.2,0.4-0.3c5.9-5.3,11.9-10.5,17.8-15.8c0.9-0.8,1.3-0.8,2.1,0c5.1,4.6,10.3,9.1,15.4,13.6
		c0.9,0.8,1.8,1.6,2.7,2.4C56.1,34.8,56.8,34,57.5,33z"/>
	<path class="st1" d="M36.1,53.5c-1.1-0.1-2.3-0.1-3.5-0.4C30,52.6,29,51,29.5,48.4c0.5-2.5,1.8-4.4,4-5.7c2.1-1.2,4.2-1,6.1,0.4
		c1.8,1.3,2.9,3,3.3,5.1c0.6,2.6-0.6,4.4-3.3,4.8C38.4,53.4,37.3,53.4,36.1,53.5z M36.2,51.3c1.1-0.1,2.3-0.2,3.5-0.4
		c0.9-0.2,1.2-0.7,1.1-1.6C40.5,47.5,39.6,46,38,45c-1.1-0.8-2.3-0.8-3.4-0.1c-1.6,1-2.5,2.5-2.9,4.3c-0.2,1,0.1,1.6,1.2,1.8
		C33.9,51.1,35.1,51.1,36.2,51.3L36.2,51.3z"/>
	<path class="st1" d="M36.2,39.7c-1.9,0-3.4-1.6-3.4-3.5c0-1.9,1.6-3.4,3.5-3.4c1.9,0,3.4,1.6,3.4,3.4
		C39.6,38.2,38.1,39.7,36.2,39.7z M37.3,36.3c0-0.6-0.5-1.1-1.1-1.1c-0.6,0-1.2,0.5-1.1,1.2c0,0.6,0.5,1.1,1.1,1.1
		C36.8,37.5,37.3,36.9,37.3,36.3L37.3,36.3z"/>
	<path class="st1" d="M40.8,40.9c0-1.9,1.5-3.4,3.4-3.4s3.4,1.5,3.4,3.4c0,1.9-1.5,3.5-3.4,3.5C42.3,44.3,40.8,42.8,40.8,40.9z
		 M45.3,40.9c0-0.6-0.5-1.1-1.1-1.1S43,40.3,43.1,41c0,0.6,0.5,1.1,1.2,1.1C44.9,42,45.3,41.5,45.3,40.9L45.3,40.9z"/>
	<path class="st1" d="M28.2,37.5c1.9,0,3.4,1.5,3.4,3.4c0,1.9-1.5,3.5-3.4,3.4c-1.9,0-3.4-1.5-3.4-3.4C24.8,39,26.3,37.5,28.2,37.5
		L28.2,37.5z M28.2,42c0.6,0,1.2-0.5,1.2-1.1c0-0.6-0.5-1.1-1.1-1.1s-1.1,0.5-1.1,1.1C27.1,41.5,27.5,42,28.2,42L28.2,42z"/>
</g>
</svg>
