<?xml version="1.0" encoding="UTF-8"?>
<svg id="Layer_1" xmlns="http://www.w3.org/2000/svg" xmlns:xlink="http://www.w3.org/1999/xlink" version="1.1" viewBox="0 0 72.5 72.5">
  <!-- Generator: Adobe Illustrator 29.3.1, SVG Export Plug-In . SVG Version: 2.1.0 Build 151)  -->
  <defs>
    <style>
      .st0 {
        fill: #fff;
      }

      .st1 {
        fill: #e88400;
      }
    </style>
  </defs>
  <circle class="st1" cx="36.2" cy="36.2" r="36.2"/>
  <g>
    <path class="st0" d="M54.5,38v18.5c0,2-1.1,3.4-2.9,3.7h-29.9c-2.2,0-3.7-1.4-3.7-3.7v-18.6c-.3.3-.4.4-.5.4-.6.4-1.2.4-1.6-.2-1.2-1.5-2.3-3-3.4-4.6-.4-.6-.3-1.2.3-1.7,3.3-2.8,6.6-5.6,10-8.5,4.1-3.4,8.2-7,12.4-10.5.8-.7,1.2-.7,2,0,7.5,6.4,14.9,12.7,22.4,19,.8.7.8,1.2.2,2-1,1.3-2,2.6-2.9,3.9-.8,1.1-1.3,1.1-2.4.3h0ZM36.2,21.8c-.2.2-.3.3-.4.4-5,4.4-10,8.8-15,13.2-.4.4-.6.7-.6,1.3v20.1c0,.7.4,1.1,1.1,1.2h29.2c1.4,0,1.7-.3,1.7-1.7v-19.7c0-.5-.2-.9-.5-1.2-3.3-2.9-6.5-5.7-9.8-8.6-1.9-1.6-3.8-3.3-5.7-5h0ZM57.5,33c-7.1-6-14.2-12-21.3-18-7.1,6-14.2,12.1-21.3,18.1.7.9,1.4,1.8,2,2.7.2,0,.3-.2.4-.3,5.9-5.3,11.9-10.5,17.8-15.8.9-.8,1.3-.8,2.1,0,5.1,4.6,10.3,9.1,15.4,13.6.9.8,1.8,1.6,2.7,2.4.8-.9,1.5-1.7,2.2-2.7Z"/>
    <path class="st0" d="M36.1,53.5c-1.1,0-2.3,0-3.5-.4-2.6-.5-3.6-2.1-3.1-4.7.5-2.5,1.8-4.4,4-5.7,2.1-1.2,4.2-1,6.1.4,1.8,1.3,2.9,3,3.3,5.1.6,2.6-.6,4.4-3.3,4.8-1.2.4-2.3.4-3.5.5ZM36.2,51.3c1.1,0,2.3-.2,3.5-.4.9-.2,1.2-.7,1.1-1.6-.3-1.8-1.2-3.3-2.8-4.3-1.1-.8-2.3-.8-3.4,0-1.6,1-2.5,2.5-2.9,4.3-.2,1,.1,1.6,1.2,1.8,1,0,2.2,0,3.3.3h0Z"/>
    <path class="st0" d="M36.2,39.7c-1.9,0-3.4-1.6-3.4-3.5s1.6-3.4,3.5-3.4,3.4,1.6,3.4,3.4c-.1,2-1.6,3.5-3.5,3.5ZM37.3,36.3c0-.6-.5-1.1-1.1-1.1s-1.2.5-1.1,1.2c0,.6.5,1.1,1.1,1.1s1.1-.6,1.1-1.2h0Z"/>
    <path class="st0" d="M40.8,40.9c0-1.9,1.5-3.4,3.4-3.4s3.4,1.5,3.4,3.4-1.5,3.5-3.4,3.5c-1.9-.1-3.4-1.6-3.4-3.5ZM45.3,40.9c0-.6-.5-1.1-1.1-1.1s-1.2.5-1.1,1.2c0,.6.5,1.1,1.2,1.1.6,0,1-.6,1-1.2h0Z"/>
    <path class="st0" d="M28.2,37.5c1.9,0,3.4,1.5,3.4,3.4s-1.5,3.5-3.4,3.4c-1.9,0-3.4-1.5-3.4-3.4,0-1.9,1.5-3.4,3.4-3.4h0ZM28.2,42c.6,0,1.2-.5,1.2-1.1s-.5-1.1-1.1-1.1-1.1.5-1.1,1.1c-.1.6.3,1.1,1,1.1h0Z"/>
  </g>
</svg>