<?xml version="1.0" encoding="utf-8"?>
<!-- Generator: Adobe Illustrator 28.2.0, SVG Export Plug-In . SVG Version: 6.00 Build 0)  -->
<svg version="1.1" id="Layer_1" xmlns="http://www.w3.org/2000/svg" xmlns:xlink="http://www.w3.org/1999/xlink" x="0px" y="0px"
	 viewBox="0 0 72.5 72.5" style="enable-background:new 0 0 72.5 72.5;" xml:space="preserve">
<style type="text/css">
	.st0{fill:#23649A;}
	.st1{fill:#FFFFFF;}
</style>
<circle class="st0" cx="36.2" cy="36.2" r="36.2"/>
<path class="st1" d="M12.2,36.2c0-13.2,10.8-24,24-24c13.2,0,24,10.7,24,23.9c0,13.3-10.8,24.1-24.1,24.1
	C23,60.2,12.3,49.4,12.2,36.2z M36.3,42.3c0.1-0.1,0.1-0.1,0.2-0.2c2.2-2.2,4.3-4.3,6.5-6.5c1.3-1.4,1.3-3.4,0-4.8
	c-1.3-1.3-3.4-1.4-4.8-0.1c-0.4,0.4-0.7,0.7-1.1,1.1c-0.6,0.6-1,0.6-1.6,0c-0.4-0.4-0.8-0.8-1.2-1.2c-1.3-1.2-3.4-1.1-4.7,0.2
	c-1.3,1.3-1.4,3.4-0.2,4.6C31.6,37.7,34,40,36.3,42.3L36.3,42.3z M35.4,46.5c0-0.9,0-1.7,0-2.5c0-0.1-0.1-0.3-0.3-0.4
	c-2.1-2.1-4.2-4.2-6.3-6.3c-0.1-0.1-0.3-0.2-0.4-0.2c-1.4,0-2.8,0-4.2,0c0.1,1.1,0.1,2.2,0.3,3.3c0.3,1.9,0.7,3.9,1,5.8
	c0,0.3,0.1,0.4,0.4,0.4C29.1,46.5,32.2,46.5,35.4,46.5L35.4,46.5z M48.3,37.1c-1.5,0-2.8,0-4.1,0c-0.2,0-0.3,0.1-0.5,0.2
	c-2.1,2.1-4.2,4.2-6.4,6.4c-0.1,0.1-0.2,0.2-0.2,0.3c0,0.8,0,1.7,0,2.5c3.2,0,6.4,0,9.5,0c0.1,0,0.3-0.2,0.4-0.4
	c0.3-1.5,0.7-3.1,0.9-4.6C48.1,40.1,48.2,38.6,48.3,37.1L48.3,37.1z M14,35.4h8.6c0.1-3.2,0.5-6.3,1.3-9.4c-2.4,0-4.8,0-7.1,0
	c-0.1,0-0.3,0.1-0.4,0.2C14.9,29.1,14.1,32.1,14,35.4L14,35.4z M14,37.1c0.1,3.3,0.9,6.3,2.4,9.1c0.1,0.1,0.4,0.3,0.6,0.3
	c2,0,3.9,0,5.9,0h1.1c-0.8-3.1-1.2-6.2-1.3-9.4H14L14,37.1z M58.5,37.1H50c-0.1,3.2-0.5,6.3-1.3,9.4c2.4,0,4.8,0,7.1,0
	c0.1,0,0.3-0.1,0.4-0.2C57.6,43.4,58.4,40.4,58.5,37.1L58.5,37.1z M58.5,35.4c-0.1-3.3-0.9-6.3-2.4-9.1c-0.1-0.1-0.4-0.3-0.6-0.3
	c-2,0-4.1,0-6.1,0c-0.3,0-0.5,0-0.8,0c0.8,3.1,1.2,6.2,1.3,9.4H58.5z M35.4,14c-0.2,0-0.4,0-0.6,0.1c-1.3,0.3-2.4,0.9-3.4,1.8
	c-2.3,2-3.8,4.6-4.9,7.4c-0.1,0.3-0.2,0.6-0.4,1h9.2V14z M46.3,24.2c0-0.1-0.1-0.3-0.1-0.4c-0.7-1.9-1.6-3.7-2.7-5.4
	c-1.1-1.5-2.4-2.9-4.1-3.7c-0.7-0.3-1.5-0.6-2.3-0.8v10.3H46.3z M26.2,48.3c0.8,2.3,1.8,4.4,3.3,6.3c1,1.3,2.2,2.5,3.7,3.2
	c0.7,0.3,1.4,0.6,2.2,0.7V48.3H26.2z M37.1,48.3v10.2c1.3-0.1,2.4-0.7,3.4-1.4c2.1-1.6,3.5-3.7,4.7-6c0.4-0.9,0.8-1.8,1.2-2.7
	L37.1,48.3L37.1,48.3z M37.1,29.3c2-1.4,4.1-1.7,6.1-0.4c2.4,1.6,2.8,3.8,2,6.4h3c0-0.1,0-0.2,0-0.2c-0.1-3-0.5-5.9-1.2-8.8
	C46.9,26,46.7,26,46.4,26c-2.9,0-5.9,0-8.8,0c-0.2,0-0.3,0-0.5,0V29.3z M35.4,26c-0.1,0-0.2,0-0.2,0c-3.1,0-6.1,0-9.2,0
	c-0.3,0-0.4,0.1-0.5,0.4c-0.3,1.8-0.7,3.6-1,5.4c-0.2,1.2-0.2,2.4-0.3,3.6h3c-0.9-2.4-0.5-4.6,1.6-6.2c2.1-1.6,4.3-1.4,6.5,0.1
	L35.4,26L35.4,26z M17.5,24.2c2.1,0,4.2,0,6.3,0c0.4,0,0.6-0.1,0.8-0.5c0.9-2.6,2.1-5.1,3.9-7.2c0.4-0.5,0.9-1,1.4-1.5
	C26.1,15.5,19.7,20.3,17.5,24.2z M42.6,57.5c0,0,0.1,0.1,0.1,0.1C47.9,56,52,52.9,55,48.2c-2.2,0-4.3,0-6.3,0
	c-0.4,0-0.6,0.1-0.8,0.6c-1,2.9-2.4,5.6-4.5,7.8C43.2,56.9,42.9,57.2,42.6,57.5L42.6,57.5z M17.5,48.3c3.1,4.6,7.2,7.7,12.4,9.4
	c-0.1-0.1-0.1-0.2-0.1-0.2c-2.5-2.4-4.1-5.4-5.3-8.7c-0.1-0.4-0.3-0.5-0.7-0.5c-0.6,0-1.3,0-1.9,0H17.5z M42.7,14.9
	c-0.1,0.1-0.1,0.1-0.2,0.2c0.3,0.3,0.7,0.5,0.9,0.8c2.1,2.3,3.5,5,4.5,7.9c0.1,0.4,0.3,0.5,0.7,0.5c1.9,0,3.9,0,5.8,0
	c0.2,0,0.3,0,0.5,0C51.9,19.6,47.9,16.5,42.7,14.9z"/>
</svg>
