<?xml version="1.0" encoding="utf-8"?>
<!-- Generator: Adobe Illustrator 28.2.0, SVG Export Plug-In . SVG Version: 6.00 Build 0)  -->
<svg version="1.1" id="Layer_1" xmlns="http://www.w3.org/2000/svg" xmlns:xlink="http://www.w3.org/1999/xlink" x="0px" y="0px"
	 viewBox="0 0 72.5 72.5" style="enable-background:new 0 0 72.5 72.5;" xml:space="preserve">
<style type="text/css">
	.st0{fill:#23649A;}
	.st1{fill:#FFFFFF;}
</style>
<circle class="st0" cx="36.2" cy="36.2" r="36.2"/>
<path class="st1" d="M14,31.1c0-1.7,0-3.3,0-5c0.1-0.5,0.1-0.9,0.3-1.3c0.7-3.2,1.5-6.4,2.3-9.6c0.2-0.8,0.6-1.2,1.7-1.2
	c11.9,0,23.9,0,35.8,0c1.1,0,1.5,0.4,1.8,1.5c0.3,1.2,0.6,2.4,0.9,3.7c0.4,1.7,0.8,3.3,1.2,5c0.6,2,0.4,4.2,0.4,6.3
	c0,2.4-1.5,4.6-3.5,5.4c-0.4,0.2-0.5,0.4-0.5,0.7c0,5.3,0,10.5,0,15.8c0,3.4-2.3,5.9-5.4,5.9c-8.5,0-17,0-25.5,0
	c-0.3,0-0.6,0-0.9-0.1c-2.7-0.5-4.5-2.9-4.5-5.7c0-5.3,0-10.6,0-15.9c0-0.4-0.1-0.5-0.4-0.6c-1.6-0.6-2.7-1.9-3.3-3.7
	C14.2,32,14.1,31.5,14,31.1z M23.7,34.4c-0.7,0.8-1.5,1.4-2.5,1.8c-0.3,0.1-0.5,0.3-0.5,0.6c0,5.3,0,10.4,0,15.7c0,1.8,1,3,2.7,3
	c2.1,0,4.2,0,6.4,0c0.2,0,0.3,0,0.5,0c0-0.3,0-0.5,0-0.6c0-3.3,0-6.6,0-10c0-2.1,1.7-4.1,3.6-4.3c1.4-0.2,2.8-0.1,4.1-0.1
	c0.2,0,0.4,0.1,0.6,0.1c2,0.6,3.3,2.3,3.3,4.7c0,3.2,0,6.4,0,9.6c0,0.2,0,0.4,0,0.6c0.1,0,0.2,0,0.2,0c2.3,0,4.7,0,7,0
	c1.1,0,2-1,2.2-2.1c0-0.3,0.1-0.6,0.1-0.8c0-5.2,0-10.3,0-15.6c0-0.4-0.1-0.6-0.5-0.6c-0.8-0.3-1.6-0.7-2.2-1.5
	c-0.1-0.1-0.2-0.2-0.3-0.3c-1.2,1.3-2.5,2-4.2,2c-1.7,0-3-0.7-4.2-2c-2,2.4-5.7,3-8.3,0C29.4,37.3,25.8,36.8,23.7,34.4L23.7,34.4z
	 M55.1,24.4c0-0.1,0-0.2,0-0.3c-0.6-2.2-1.1-4.3-1.6-6.6c-0.1-0.4-0.3-0.6-0.6-0.6c-8.4,0-16.9,0-25.3,0c-2.7,0-5.4,0-8,0
	c-0.3,0-0.5,0.1-0.6,0.5c-0.4,1-0.6,2-0.8,3c-0.3,1.3-0.6,2.6-0.9,3.9H55.1z M39.2,55.3c0-0.1,0-0.2,0-0.2c0-3.3,0-6.7,0-10.1
	c0-1-0.6-1.7-1.6-1.7c-0.9,0-1.8,0-2.8,0c-1.1,0-1.7,0.6-1.7,1.8c0,3.2,0,6.5,0,9.7c0,0.2,0,0.3,0,0.5L39.2,55.3L39.2,55.3z
	 M16.8,27.4c0,1.1,0,2.2,0,3.2c0.1,1.4,1.1,2.6,2.4,2.8c1.4,0.2,2.7-0.7,3-2.1c0.2-1.2,0.1-2.5,0.2-3.8L16.8,27.4L16.8,27.4z
	 M25.1,27.4c0,1,0,2,0,3c0,1.7,1.3,3,2.8,3c1.5,0,2.8-1.3,2.8-3c0-0.9,0-1.8,0-2.7c0-0.1,0-0.2,0-0.3L25.1,27.4L25.1,27.4z
	 M33.4,27.4c0,1,0,2,0,3c0,1.7,1.3,3,2.8,3c1.5,0,2.8-1.3,2.8-3c0-0.9,0-1.8,0-2.7c0-0.1,0-0.2,0-0.3L33.4,27.4L33.4,27.4z
	 M41.7,27.4c0,0.1,0,0.2,0,0.4c0,1-0.1,2,0,3c0.1,1.5,1.3,2.6,2.6,2.7c1.4,0.1,2.6-0.9,2.9-2.4c0.1-0.8,0.1-1.7,0.1-2.4
	c0-0.4,0-0.8,0-1.2L41.7,27.4L41.7,27.4z M50,27.4c0,1,0,2,0,3c0,1.6,1.1,2.9,2.5,3c1.5,0.1,2.8-0.9,3-2.6c0.1-1.1,0-2.3,0-3.4
	L50,27.4L50,27.4z"/>
</svg>
