<?xml version="1.0" encoding="utf-8"?>
<!-- Generator: Adobe Illustrator 28.2.0, SVG Export Plug-In . SVG Version: 6.00 Build 0)  -->
<svg version="1.1" id="Layer_1" xmlns="http://www.w3.org/2000/svg" xmlns:xlink="http://www.w3.org/1999/xlink" x="0px" y="0px"
	 viewBox="0 0 54 48" style="enable-background:new 0 0 54 48;" xml:space="preserve">
<style type="text/css">
	.st0{fill:#FFFFFF;}
</style>
<path class="st0" d="M3,18.5c0-1.8,0-3.6,0-5.4c0.1-0.5,0.1-1,0.3-1.4C4.1,8.2,4.9,4.8,5.8,1.3C6,0.4,6.5,0,7.6,0
	c12.9,0,25.9,0,38.8,0c1.2,0,1.6,0.4,1.9,1.6c0.3,1.3,0.6,2.6,1,4c0.4,1.8,0.9,3.6,1.3,5.4c0.6,2.2,0.4,4.5,0.4,6.8
	c0,2.6-1.6,5-3.8,5.9c-0.4,0.2-0.5,0.4-0.5,0.8c0,5.7,0,11.4,0,17.1c0,3.7-2.5,6.4-5.9,6.4c-9.2,0-18.4,0-27.6,0c-0.3,0-0.7,0-1-0.1
	c-2.9-0.5-4.9-3.1-4.9-6.2c0-5.7,0-11.5,0-17.2c0-0.4-0.1-0.5-0.4-0.7c-1.7-0.7-2.9-2.1-3.6-4C3.2,19.4,3.1,18.9,3,18.5z M13.5,22
	c-0.8,0.9-1.6,1.5-2.7,1.9c-0.3,0.1-0.5,0.3-0.5,0.7c0,5.7,0,11.3,0,17c0,1.9,1.1,3.2,2.9,3.2c2.3,0,4.6,0,6.9,0c0.2,0,0.3,0,0.5,0
	c0-0.3,0-0.5,0-0.7c0-3.6,0-7.2,0-10.8c0-2.3,1.8-4.4,3.9-4.7c1.5-0.2,3-0.1,4.4-0.1c0.2,0,0.4,0.1,0.6,0.1c2.2,0.6,3.6,2.5,3.6,5.1
	c0,3.5,0,6.9,0,10.4c0,0.2,0,0.4,0,0.6c0.1,0,0.2,0,0.2,0c2.5,0,5.1,0,7.6,0c1.2,0,2.2-1.1,2.4-2.3c0-0.3,0.1-0.6,0.1-0.9
	c0-5.6,0-11.2,0-16.9c0-0.4-0.1-0.6-0.5-0.7c-0.9-0.3-1.7-0.8-2.4-1.6c-0.1-0.1-0.2-0.2-0.3-0.3c-1.3,1.4-2.7,2.2-4.5,2.2
	c-1.8,0-3.2-0.8-4.5-2.2c-2.2,2.6-6.2,3.2-9,0C19.7,25.2,15.7,24.7,13.5,22L13.5,22z M47.5,11.2c0-0.1,0-0.2,0-0.3
	c-0.6-2.4-1.2-4.7-1.7-7.1c-0.1-0.4-0.3-0.6-0.7-0.6c-9.1,0-18.3,0-27.4,0c-2.9,0-5.8,0-8.7,0c-0.3,0-0.5,0.1-0.6,0.5
	C8,4.8,7.8,5.9,7.5,7c-0.3,1.4-0.7,2.8-1,4.2H47.5z M30.3,44.7c0-0.1,0-0.2,0-0.2c0-3.6,0-7.3,0-10.9c0-1.1-0.7-1.8-1.7-1.8
	c-1,0-2,0-3,0c-1.2,0-1.8,0.7-1.8,2c0,3.5,0,7,0,10.5c0,0.2,0,0.3,0,0.5H30.3z M6,14.5c0,1.2,0,2.4,0,3.5c0.1,1.5,1.2,2.8,2.6,3
	c1.5,0.2,2.9-0.8,3.2-2.3c0.2-1.3,0.1-2.7,0.2-4.1H6z M15,14.5c0,1.1,0,2.2,0,3.3c0,1.8,1.4,3.2,3,3.2c1.6,0,3-1.4,3-3.2
	c0-1,0-2,0-2.9c0-0.1,0-0.2,0-0.3L15,14.5L15,14.5z M24,14.5c0,1.1,0,2.2,0,3.3c0,1.8,1.4,3.2,3,3.2c1.6,0,3-1.4,3-3.2
	c0-1,0-2,0-2.9c0-0.1,0-0.2,0-0.3H24L24,14.5z M33,14.5c0,0.1,0,0.2,0,0.4c0,1.1-0.1,2.2,0,3.2c0.1,1.6,1.4,2.8,2.8,2.9
	c1.5,0.1,2.8-1,3.1-2.6c0.1-0.9,0.1-1.8,0.1-2.6c0-0.4,0-0.9,0-1.3L33,14.5L33,14.5z M42,14.5c0,1.1,0,2.2,0,3.2
	c0,1.7,1.2,3.1,2.7,3.2c1.6,0.1,3-1,3.2-2.8c0.1-1.2,0-2.5,0-3.7L42,14.5L42,14.5z"/>
</svg>
