<?xml version="1.0" encoding="utf-8"?>
<!-- Generator: Adobe Illustrator 28.2.0, SVG Export Plug-In . SVG Version: 6.00 Build 0)  -->
<svg version="1.1" id="Layer_1" xmlns="http://www.w3.org/2000/svg" xmlns:xlink="http://www.w3.org/1999/xlink" x="0px" y="0px"
	 viewBox="0 0 54 48" style="enable-background:new 0 0 54 48;" xml:space="preserve">
<style type="text/css">
	.st0{fill:#FFFFFF;}
</style>
<g>
	<path class="st0" d="M3,19.4c0-0.4,0-0.8,0-1.2C3,18.1,3.1,18,3.1,18c0.3-1.5,1.2-2.6,2.6-3.3c0.7-0.3,1.3-0.7,2-1
		c0.5-0.2,0.7-0.6,0.7-1.2c-0.1-0.8-0.1-1.7-0.1-2.5C8.2,7.2,10.3,5.1,13,5.2c0.8,0,1.7,0.1,2.5,0.1c0.5,0,0.8-0.2,1-0.6
		c0.4-0.7,0.7-1.4,1.1-2.1C19,0,21.9-0.8,24.4,0.8c0.7,0.4,1.4,0.9,2,1.3c0.4,0.3,0.7,0.3,1.1,0c0.7-0.4,1.3-0.9,2-1.3
		C32.1-0.8,35,0,36.4,2.6c0.4,0.7,0.7,1.4,1.1,2.1c0.2,0.5,0.6,0.6,1.1,0.6c0.8-0.1,1.6-0.1,2.3-0.1c2.9-0.1,5.1,2,5,4.9
		c0,0.8-0.1,1.6-0.1,2.3c0,0.5,0.2,0.9,0.6,1.1c0.7,0.3,1.4,0.7,2,1c2.6,1.4,3.4,4.3,1.8,6.8c-0.4,0.7-0.8,1.3-1.3,2
		c-0.3,0.4-0.3,0.8,0,1.3c0.4,0.7,0.9,1.3,1.3,2c1.5,2.4,0.7,5.3-1.8,6.6c-0.7,0.4-1.5,0.8-2.2,1.1c-0.4,0.2-0.6,0.5-0.6,1
		c0.1,0.8,0.1,1.7,0.1,2.5c0.1,2.8-2.1,4.9-4.9,4.8c-0.8,0-1.5-0.1-2.3-0.1c-0.6-0.1-1,0.1-1.2,0.7c-0.3,0.7-0.7,1.4-1.1,2.1
		c-0.4,0.7-0.9,1.4-1.6,1.8c-0.6,0.3-1.3,0.5-1.9,0.8h-1.2c-1-0.2-1.9-0.7-2.7-1.3c-0.4-0.3-0.8-0.5-1.2-0.8c-0.5-0.3-0.9-0.3-1.4,0
		c-1.2,0.8-2.4,1.8-3.9,2h-1.2c0,0-0.1-0.1-0.1-0.1c-1.6-0.3-2.7-1.2-3.5-2.7c-0.3-0.7-0.7-1.3-1-2c-0.2-0.5-0.6-0.7-1.2-0.7
		c-0.8,0.1-1.5,0.1-2.3,0.1c-2.9,0.1-5-2-4.9-4.9c0-0.8,0.1-1.6,0.1-2.3c0-0.6-0.2-0.9-0.7-1.2c-0.7-0.3-1.4-0.7-2-1
		c-0.7-0.4-1.4-0.9-1.8-1.6c-0.3-0.6-0.6-1.3-0.8-2c0-0.4,0-0.8,0-1.2c0.2-0.9,0.6-1.8,1.2-2.6c0.3-0.4,0.5-0.9,0.8-1.3
		c0.4-0.5,0.3-0.9,0-1.5C4.2,22,3.3,20.9,3,19.4z M41.9,11.5c0,0,0.1,0,0.1,0c0-0.5,0-1,0-1.5c0-0.7-0.3-1.1-1-1
		c-0.8,0-1.6,0.1-2.4,0.1c-2,0.1-3.5-0.8-4.5-2.6c-0.4-0.7-0.7-1.4-1.1-2.2c-0.3-0.6-0.8-0.8-1.4-0.4c-0.7,0.4-1.4,0.9-2.1,1.3
		c-1.7,1-3.4,1-5.1,0c-0.7-0.4-1.3-0.9-2-1.3c-0.7-0.4-1.1-0.3-1.5,0.4c-0.4,0.7-0.7,1.4-1.1,2c-1,1.9-2.5,2.7-4.6,2.7
		C14.5,9,13.8,9,13,9c-0.7,0-1.1,0.3-1,1c0,0.8,0.1,1.6,0.1,2.4c0,2-0.8,3.5-2.5,4.4c-0.7,0.4-1.5,0.8-2.2,1.1
		c-0.6,0.3-0.7,0.8-0.4,1.4c0.4,0.7,0.9,1.4,1.3,2.1c1.1,1.7,1.1,3.4,0,5.1c-0.4,0.7-0.9,1.4-1.3,2.1c-0.4,0.6-0.3,1.1,0.4,1.4
		c0.8,0.4,1.6,0.8,2.4,1.3c1.3,0.7,2.1,1.8,2.2,3.3c0.1,1.1,0,2.3,0,3.5c0,0.7,0.3,1,1,1c0.8,0,1.7-0.1,2.5-0.1c2,0,3.5,0.8,4.4,2.6
		c0.4,0.7,0.7,1.4,1.1,2.2c0.3,0.7,0.8,0.8,1.4,0.4c0.7-0.4,1.4-0.9,2.1-1.3c1.7-1,3.4-1,5,0c0.7,0.4,1.3,0.8,2,1.3
		c0.8,0.5,1.2,0.4,1.6-0.4c0.3-0.7,0.7-1.3,1-2c1-1.9,2.5-2.7,4.6-2.6c0.8,0,1.5,0.1,2.3,0.1c0.8,0,1.1-0.3,1-1.1
		c0-0.8-0.1-1.6-0.1-2.3c-0.1-2,0.8-3.5,2.6-4.5c0.7-0.4,1.4-0.7,2.1-1.1c0.7-0.3,0.8-0.8,0.4-1.4c-0.4-0.7-0.9-1.3-1.3-2
		c-1.1-1.7-1.1-3.4,0-5.2c0.4-0.7,0.9-1.3,1.3-2c0.4-0.7,0.3-1.1-0.4-1.5c-0.8-0.4-1.5-0.8-2.3-1.2c-1.2-0.7-2-1.7-2.3-3
		C41.9,13,41.9,12.2,41.9,11.5L41.9,11.5z"/>
	<path class="st0" d="M18.8,35.3c0.1-0.2,0.2-0.4,0.2-0.5c3.9-7.2,7.8-14.4,11.7-21.6c0.2-0.3,0.4-0.4,0.7-0.4c1.2,0,2.5,0,3.7,0
		c-0.1,0.2-0.2,0.4-0.2,0.5c-3.9,7.2-7.8,14.4-11.7,21.6c-0.2,0.3-0.4,0.4-0.7,0.4C21.3,35.3,20.1,35.3,18.8,35.3L18.8,35.3z"/>
	<path class="st0" d="M13.6,17.5c0-3.1,2.5-5.6,5.6-5.6c3.1,0,5.6,2.5,5.6,5.6c0,3.1-2.5,5.6-5.6,5.6C16.1,23.2,13.6,20.6,13.6,17.5
		L13.6,17.5z M19.2,15.7c-1,0-1.9,0.8-1.9,1.9c0,1,0.8,1.9,1.9,1.9c1,0,1.9-0.8,1.9-1.9C21.1,16.5,20.3,15.7,19.2,15.7L19.2,15.7z"
		/>
	<path class="st0" d="M29.1,30.7c0-3.1,2.5-5.6,5.6-5.6c3.1,0,5.6,2.5,5.6,5.6c0,3.1-2.5,5.6-5.6,5.6C31.6,36.3,29.1,33.8,29.1,30.7
		L29.1,30.7z M36.6,30.6c0-1-0.9-1.9-1.9-1.9c-1,0-1.9,0.9-1.9,1.9c0,1,0.9,1.9,1.9,1.9C35.7,32.5,36.6,31.7,36.6,30.6z"/>
</g>
</svg>
