<?xml version="1.0" encoding="utf-8"?>
<!-- Generator: Adobe Illustrator 28.2.0, SVG Export Plug-In . SVG Version: 6.00 Build 0)  -->
<svg version="1.1" id="Layer_1" xmlns="http://www.w3.org/2000/svg" xmlns:xlink="http://www.w3.org/1999/xlink" x="0px" y="0px"
	 viewBox="0 0 54 48" style="enable-background:new 0 0 54 48;" xml:space="preserve">
<style type="text/css">
	.st0{fill:#FFFFFF;}
</style>
<g>
	<path class="st0" d="M3,31.1c0.4-0.7,0.8-1.4,1.2-2.1c1.4-2.5,2.8-5.1,4.2-7.6c-0.4-0.3-0.7-0.5-1-0.8c-0.4-0.3-0.6-0.6-0.4-1.1
		C7,19,7.3,18.9,7.8,18.9c2.7-0.1,5.4-0.2,8.1-0.3c0.8,0,0.9,0.1,1.2,0.9c1,2.9,1.9,5.7,2.9,8.6c0.2,0.5,0.2,0.9-0.2,1.2
		c-0.3,0.2-0.6,0.2-0.9,0c-0.4-0.3-0.9-0.5-1.4-0.9c-0.7,1.6-1.4,3.2-2.2,4.8c0.6,0,1.1,0.1,1.7,0.1c2.1,0.1,4.3,0.2,6.4,0.3
		c0.7,0,1,0.4,1,1.2c0,3.2,0,6.4,0,9.6c0,0.9-0.3,1.2-1,1.2c-3.8,0-7.6,0-11.4,0c-0.5,0-0.8-0.2-1-0.6c-2.7-4.4-5.3-8.8-8-13.2
		C3,31.5,3,31.3,3,31.1L3,31.1z M10.1,40.3c0.1-0.2,0.2-0.4,0.3-0.6c1.9-4.2,3.8-8.3,5.8-12.5c0.2-0.3,0.4-0.7,0.6-0.9
		c0.2-0.1,0.6,0,0.9,0c0,0,0,0,0-0.1c-0.6-1.9-1.2-3.8-1.9-5.6c-0.1-0.3-0.2-0.3-0.5-0.3c-0.9,0.1-1.8,0.1-2.7,0.1
		c-0.8,0-1.7,0.1-2.6,0.1c0.4,0.5,0.1,0.9-0.1,1.3c-1.7,3-3.3,6-5,9c-0.2,0.4-0.2,0.6,0,1c0.8,1.3,1.7,2.7,2.5,4.1
		C8.4,37.4,9.2,38.8,10.1,40.3z M22.7,35.5c-0.1,0-0.1,0-0.2,0c-2.6-0.1-5.2-0.3-7.7-0.4c-0.3,0-0.4,0.1-0.5,0.4
		c-0.8,1.7-1.6,3.5-2.5,5.2c-0.6,1.1-0.7,1.9,0.1,2.8c0.2,0.2,0.4,0.4,0.7,0.4c3.2,0,6.4,0,9.6,0c0.2,0,0.3,0,0.5,0V35.5z"/>
	<path class="st0" d="M39.2,10.7c0.5-0.2,0.9-0.4,1.3-0.5c0.3-0.1,0.7-0.1,0.9,0.2c0.3,0.3,0.3,0.7,0,1.1c-1.5,2.6-2.9,5.3-4.4,7.9
		c-0.3,0.5-0.6,0.7-1.2,0.5c-2.7-0.7-5.4-1.5-8.1-2.2c-0.4-0.1-0.8-0.3-0.8-0.8c-0.1-0.5,0.3-0.8,0.6-1c0.4-0.2,0.8-0.5,1.3-0.7
		c-0.8-1.6-1.6-3.1-2.4-4.7c-0.1,0.2-0.2,0.3-0.3,0.4c-1.5,2.2-3,4.5-4.4,6.7c-0.5,0.8-0.9,0.9-1.6,0.3c-2.3-1.9-4.7-3.9-7-5.8
		c-0.7-0.6-0.8-1.1-0.2-1.9c2.4-3.2,4.8-6.3,7.1-9.5C20.4,0.2,20.8,0,21.3,0c4.2,0,8.5,0,12.7,0c0.6,0,1,0.2,1.2,0.9
		C36.5,4,37.7,7,39,10.1C39,10.3,39.1,10.4,39.2,10.7z M38.8,12.8c-0.5-0.1-0.8-0.4-0.9-0.8c-1.3-3.2-2.6-6.5-3.9-9.7
		c-0.1-0.3-0.3-0.5-0.7-0.5c-2.9,0-5.8,0-8.7,0h-0.5c0.1,0.2,0.2,0.4,0.3,0.6c2,4.1,4,8.2,6.1,12.3c0.5,1,0.5,1.2-0.3,1.9
		c1.8,0.5,3.6,1,5.4,1.5c0.1,0,0.3-0.1,0.3-0.2C36.9,16.2,37.9,14.5,38.8,12.8L38.8,12.8z M14.5,10.9c2.1,1.7,4.2,3.5,6.2,5.2
		c1.6-2.4,3.2-4.7,4.8-7.1c0.1-0.1,0.1-0.4,0-0.5c-1-2.1-2-4.2-3.1-6.4c-0.1-0.1-0.2-0.3-0.3-0.3c-0.5,0-1-0.1-1.3,0.5
		c-0.1,0.1-0.2,0.3-0.3,0.4C18.6,5.4,16.6,8.1,14.5,10.9L14.5,10.9z"/>
	<path class="st0" d="M34.7,45.6c0,0.5-0.1,1-0.1,1.4c0,0.5-0.2,0.9-0.6,1c-0.4,0.1-0.7-0.2-0.9-0.5c-0.5-0.8-1-1.7-1.5-2.6
		c-1-1.6-2-3.3-3-4.9c-0.4-0.6-0.4-1,0-1.5c1.7-2.4,3.4-4.8,5.1-7.3c0.2-0.3,0.5-0.6,0.9-0.5c0.4,0.1,0.7,0.4,0.7,0.9
		c0,0.6,0,1.1,0,1.7c1.7-0.2,3.2-0.3,4.9-0.5c-0.1-0.2-0.2-0.4-0.2-0.5c-1.2-2.4-2.4-4.8-3.6-7.3c-0.4-0.8-0.3-1.2,0.4-1.7
		c2.6-1.6,5.2-3.3,7.9-4.9c0.6-0.4,1-0.3,1.3,0.4c1.7,3.9,3.4,7.7,5,11.6c0.1,0.3,0.1,0.7,0,1c-1.8,4.5-3.6,8.9-5.4,13.4
		c-0.2,0.5-0.6,0.7-1.1,0.7c-3,0-6.1,0-9.1,0C35.2,45.5,35,45.5,34.7,45.6L34.7,45.6z M33.3,44.4c0.3-0.5,0.7-0.6,1.1-0.6
		c3.2,0,6.4,0,9.5,0c0.3,0,0.5-0.1,0.6-0.4c1.2-3,2.4-5.9,3.6-8.9c0.1-0.1,0.1-0.3,0.2-0.5c-2.2,0.2-4.3,0.3-6.5,0.5
		c-2.3,0.2-4.5,0.5-6.8,0.7c-0.9,0.1-1.1-0.1-1.3-1.2c-1.2,1.8-2.4,3.5-3.6,5.2C31.2,41,32.2,42.7,33.3,44.4L33.3,44.4z M44.7,20.4
		c-2.3,1.4-4.5,2.8-6.8,4.3c1.3,2.6,2.5,5.1,3.7,7.6c0.2,0.4,0.4,0.5,0.8,0.5c2-0.2,4-0.3,6-0.5c0.7-0.1,1.1-0.9,0.8-1.6
		c-1.4-3.1-2.7-6.2-4.1-9.2C45,21,44.9,20.7,44.7,20.4L44.7,20.4z"/>
</g>
</svg>
