<svg width="59" height="80" viewBox="0 0 59 80" fill="none" xmlns="http://www.w3.org/2000/svg">
<path d="M27.287 80C25.3772 79.6355 23.4417 79.3737 21.5628 78.8911C17.4403 77.8335 13.8056 75.8005 10.5918 73.0232C6.54128 69.527 3.66122 65.2198 2.00813 60.1322C0.899232 56.7182 0.467993 53.2067 0.688746 49.6028C0.971105 44.9977 2.24942 40.7213 4.59557 36.7631C8.07115 30.9055 13.015 26.7933 19.3706 24.3804C22.1378 23.328 25.0076 22.7581 27.9646 22.6349C28.1905 22.6246 28.4164 22.5938 28.5807 22.5784C29.0376 20.5147 28.0724 19.0156 26.8095 17.6449C26.6914 17.5165 26.3834 17.496 26.1781 17.5319C20.1304 18.4611 13.8056 15.2525 11.0744 9.78501C9.55995 6.75607 9.36487 3.56285 10.1349 0.287486C10.1555 0.189944 10.2273 0.107803 10.2838 0.00512695C11.2336 0.405563 12.1628 0.795732 13.092 1.1859C14.9556 1.9611 16.8962 2.2332 18.8932 1.99704C23.7446 1.42719 27.0713 5.15946 27.8979 9.19976C28.324 11.2892 28.3702 13.3941 28.0006 15.4835C27.8619 16.2639 28.1443 16.7054 28.6526 17.1931C28.9452 16.1355 29.1505 15.0882 29.5253 14.1077C30.7009 11.0274 32.8982 9.2049 36.2352 8.80959C40.0804 8.35782 43.1863 12.049 41.9594 15.6529C41.0147 18.4303 37.493 19.3596 35.4035 17.4036C33.8172 15.9199 34.387 12.6445 36.0298 11.8539C36.2916 12.2903 36.5535 12.7318 36.7948 13.1374C36.5894 13.5173 36.3481 13.8407 36.23 14.2001C35.9323 15.0934 36.1838 15.9764 36.7948 16.3871C37.5546 16.9005 38.8329 16.8286 39.5721 16.2279C41.1174 14.9753 40.6656 11.9771 38.7815 10.9709C36.4559 9.73368 33.0882 10.8939 31.6815 13.4403C30.2902 15.9558 30.1362 18.687 30.3108 21.4747C30.3313 21.834 30.398 22.1883 30.434 22.5117C32.0357 22.7479 33.6067 22.9173 35.1571 23.2202C39.5721 24.0878 43.5354 25.9668 47.0521 28.7595C52.6531 33.2054 56.2467 38.945 57.5045 45.9783C59.1679 55.2807 56.8217 63.5616 50.4917 70.6257C46.3128 75.2923 41.0661 78.1518 34.962 79.4558C33.771 79.7074 32.5542 79.8254 31.3478 80.0051H27.2818L27.287 80ZM12.2706 30.3972C12.5324 30.4178 12.6505 30.4383 12.7737 30.4383C15.1712 30.4229 17.4711 30.7104 19.576 32.04C20.4795 32.6048 21.5884 32.7896 22.6357 32.2351C24.6893 31.1468 26.9122 30.9055 29.1557 31.1365C30.1208 31.234 31.2246 31.5677 31.9382 32.1735C33.1344 33.1849 34.3305 33.3286 35.768 33.0719C39.3463 32.4456 42.4317 36.0085 41.3638 39.4789C40.7324 41.5273 39.2384 42.8878 37.4724 43.8786C35.5062 44.9823 33.4424 45.9116 31.3683 46.81C30.1311 47.3439 29.1967 48.1037 28.6269 49.3204C28.4729 49.649 28.2624 49.9519 28.1032 50.2804C27.2921 51.9232 26.6196 53.5917 26.7838 55.4964C26.8711 56.5026 26.8711 57.5345 26.7684 58.5407C26.6658 59.5623 26.522 60.6199 26.1575 61.5748C25.5517 63.1611 23.9757 63.6283 22.5895 62.6477C21.917 62.1703 21.2547 61.4926 20.9262 60.7534C20.3409 59.4443 19.4014 58.6074 18.1745 58.0222C17.2144 57.5653 16.2493 57.0827 15.2277 56.8055C14.4319 56.5899 13.5438 56.595 12.707 56.6515C11.8856 56.7079 11.0796 56.9852 10.2633 57.1238C9.41107 57.2675 8.56399 57.2213 7.96334 56.5026C7.49616 55.943 7.1214 56.0765 6.65935 56.4769C5.75067 57.2573 4.83172 58.0273 3.89224 58.7717C3.52774 59.0644 3.48667 59.3262 3.63555 59.7677C4.71878 63.043 6.37186 66.0001 8.5794 68.6389C9.95012 70.2766 11.48 71.7551 13.2768 73.0283C14.1239 72.0375 15.0582 71.6986 16.239 72.4533C16.4598 72.5919 16.9988 72.4995 17.2247 72.3147C18.5133 71.2725 19.7505 71.519 21.0494 72.289C21.7579 72.71 22.5023 73.1566 23.2929 73.3415C23.9141 73.4852 24.6328 73.2901 25.295 73.1618C25.9316 73.0386 26.5682 72.6022 27.1689 72.6587C29.705 72.8948 31.9639 73.824 33.9558 75.4925C35.424 76.7195 37.0874 77.5409 39.0844 76.4987C40.2087 75.9083 41.4408 75.5079 42.5241 74.8611C44.0694 73.937 45.5222 72.8691 47.0162 71.8629C46.9905 71.7705 46.9648 71.673 46.9391 71.5806C46.4874 71.4163 46.0459 71.1339 45.5838 71.1134C44.6597 71.0672 43.7254 71.1134 42.8013 71.1955C40.6554 71.3855 38.5762 71.252 36.7588 69.9377C35.5678 69.0753 35.4856 67.8534 36.5124 66.801C36.9488 66.3543 37.4262 65.9488 37.9293 65.574C38.4478 65.189 38.5248 64.7064 38.5608 64.0903C38.6121 63.0687 38.6891 62.0009 39.0382 61.0563C39.7826 59.0284 41.0712 57.3035 42.6832 55.8711C43.2171 55.3937 43.9564 55.0343 44.6597 54.8854C46.1075 54.5774 47.2523 55.1986 48.0532 56.4256C48.8438 57.6423 49.7627 58.7101 51.0924 59.3775C51.5647 59.6137 51.8625 59.5675 52.0935 59.0849C52.1808 58.9001 52.3296 58.7409 52.4272 58.5561C53.0997 57.2367 54.0854 56.441 55.6563 56.5847C55.7179 56.5899 55.7898 56.5231 55.8463 56.4923C58.2027 43.9813 51.9138 32.8101 42.1801 27.5377C32.0922 22.0753 20.1561 23.7952 12.2757 30.4126L12.2706 30.3972ZM2.97842 57.3189C3.18377 57.1751 3.35832 57.0673 3.51234 56.939C4.33888 56.2613 5.12948 55.5374 5.98683 54.9111C7.03412 54.1462 8.00954 54.1718 8.80528 55.0035C9.28273 55.5015 9.7653 55.5272 10.3557 55.404C11.2952 55.2089 12.2347 54.9676 13.1844 54.8598C15.3201 54.6133 17.122 55.6298 18.9343 56.5283C20.4847 57.2983 21.7835 58.3354 22.415 60.0398C22.5433 60.3837 22.836 60.6969 23.1183 60.9536C23.9449 61.7083 24.5609 61.5748 24.7765 60.4813C25.0024 59.3159 25.0435 58.1146 25.1051 56.9236C25.1718 55.7325 25.023 54.5107 25.2232 53.3453C25.5825 51.2148 26.6298 49.3409 27.7644 47.5287C28.3651 46.5687 29.207 45.9167 30.244 45.4752C31.9382 44.7462 33.6323 44.0172 35.2957 43.2215C36.7126 42.5438 37.9961 41.6505 39.0023 40.4184C40.0342 39.1503 40.1831 37.6718 39.4181 36.3576C38.6789 35.0895 37.2363 34.4632 35.6602 34.7763C33.9814 35.11 32.4772 34.8944 31.1681 33.6623C30.7574 33.2773 30.1465 32.9795 29.592 32.8871C27.6669 32.5842 25.6903 32.5842 23.9397 33.498C21.8092 34.6069 19.9148 34.2424 17.964 33.1284C17.3017 32.7536 16.5368 32.4302 15.7924 32.3583C14.1393 32.1992 12.4708 32.1838 10.8075 32.1786C10.4789 32.1786 10.0631 32.384 9.82691 32.6304C5.96116 36.6707 3.55854 41.4503 2.65499 46.9794C2.09027 50.4242 2.15188 53.8535 2.97842 57.324V57.3189ZM55.4202 58.3662C55.3688 58.2943 55.3175 58.2224 55.2662 58.1505C54.9171 58.3764 54.4961 58.5356 54.2343 58.8333C53.7979 59.3416 53.5104 59.9782 53.0843 60.4967C52.4015 61.3335 51.7136 61.4618 50.7228 61.0203C49.0543 60.2811 47.7708 59.1208 46.8108 57.5653C45.9535 56.1792 44.7008 56.0251 43.6073 57.247C42.6576 58.3046 41.8053 59.4648 41.0353 60.6661C40.4192 61.6261 39.9828 62.7299 40.1985 63.9158C40.4192 65.1428 39.9674 66.0463 39.0742 66.8061C38.7353 67.0936 38.376 67.3503 38.0371 67.6327C37.3492 68.2025 37.3646 68.4489 38.1501 68.8648C39.5927 69.6246 41.1534 69.6913 42.714 69.4808C44.6905 69.2139 46.6054 69.1009 48.2585 70.5538C51.7598 67.0885 54.1162 63.0379 55.415 58.3662H55.4202ZM15.0737 4.67175C16.7781 5.61637 18.3952 6.51478 20.0175 7.41833C20.0534 7.15651 20.0842 6.91009 20.1202 6.61746H21.5679C21.7425 7.51588 21.7322 8.48103 22.1326 9.22543C22.5587 10.0212 23.3801 10.6064 24.0219 11.2841C24.181 11.4535 24.3453 11.6229 24.489 11.8077C25.1154 12.5881 25.7314 13.3684 26.4604 14.2822C26.5734 12.3879 26.599 10.6886 26.1267 9.01494C25.0794 5.28267 22.6563 3.56798 18.8008 3.67066C17.3582 3.7066 15.9002 3.57825 14.473 3.35236C13.4719 3.19835 12.517 2.75171 11.4235 2.40261C11.1309 6.18109 12.1423 9.41538 14.7605 12.0747C17.8767 15.2422 22.3636 16.4384 25.4491 15.7916C22.569 11.7051 19.1807 8.22947 14.4114 6.3351C14.6321 5.77552 14.817 5.32374 15.0737 4.67688V4.67175ZM14.6373 73.8138C18.1796 77.2585 30.1722 79.6047 34.2125 77.7565C33.812 77.4639 33.3756 77.2175 33.0265 76.8889C31.4145 75.359 29.4226 74.666 27.2972 74.2861C27.0354 74.2399 26.6658 74.2399 26.4861 74.3887C25.0794 75.5438 23.5804 75.3128 22.0813 74.7019C21.3164 74.3887 20.6028 73.9472 19.8789 73.5468C19.3604 73.2593 18.8675 73.1515 18.3747 73.5827C17.4352 74.399 16.4033 74.3836 15.3201 73.901C15.1712 73.8343 14.9864 73.8497 14.6424 73.8086L14.6373 73.8138Z" fill="white"/>
</svg>
