<svg width="77" height="80" viewBox="0 0 77 80" fill="none" xmlns="http://www.w3.org/2000/svg">
<path d="M62.7559 0C63.9379 0.156633 65.1388 0.223464 66.2958 0.492873C68.7163 1.05675 71.1201 1.69791 73.5114 2.38292C73.881 2.48943 74.2757 2.928 74.4282 3.30601C75.7209 6.48671 76.3663 9.83031 76.6399 13.2345C77.4982 23.8668 74.7477 33.578 69.0233 42.504C68.3905 43.4898 67.7097 44.4421 67.0205 45.3903C66.3501 46.3134 65.64 47.2093 64.9613 48.1011C68.545 53.6459 68.5743 59.1866 65.0908 64.7794C69.0484 68.7328 73.006 72.6883 76.9322 76.6105C75.8003 77.7403 74.7143 78.8242 73.597 79.9394C69.6853 76.0236 65.7215 72.0576 61.743 68.075C59.8195 69.374 57.8355 70.2407 55.6322 70.5352C50.5364 71.216 46.2404 69.6643 42.7841 65.857C42.4207 65.4582 42.1742 65.3099 41.6229 65.5292C35.3179 68.0541 28.7581 69.1338 21.9936 68.5637C19.2911 68.336 16.6263 67.6448 13.9405 67.1874C13.6482 67.1373 13.2138 67.1206 13.0425 67.2876C11.3007 69.0064 9.536 70.7127 7.90493 72.5338C6.03368 74.6223 5.12938 77.1451 5.10223 80H0.401143C0.363551 78.0097 0.718587 76.1176 1.41195 74.2839C2.27239 72.0075 3.62988 70.0486 5.31317 68.3151C6.71034 66.8762 8.15345 65.4811 9.54436 64.038C9.73232 63.8417 9.87851 63.4344 9.81168 63.188C6.81685 52.1756 7.99055 41.5246 13.0926 31.429C19.383 18.9861 28.9439 9.74678 41.6479 3.89077C46.3094 1.73759 51.2423 0.503315 56.3778 0.144103C56.5782 0.129484 56.7746 0.0501227 56.9709 0C58.8985 0 60.8261 0 62.7559 0ZM61.4088 44.7617C61.5383 44.699 61.5926 44.6865 61.6281 44.6531C61.6866 44.6008 61.7346 44.5382 61.7827 44.4776C67.9686 36.7504 71.7654 28.0938 72.0494 18.0734C72.1581 14.2516 71.732 10.4903 70.6502 6.81878C70.5667 6.53892 70.2367 6.18598 69.9652 6.1275C67.7556 5.66595 65.5502 5.09372 63.3114 4.8807C56.054 4.18942 49.1183 5.52603 42.5334 8.62319C35.0443 12.1464 28.9043 17.4009 23.6643 23.7268C15.9705 33.0141 12.0296 43.5629 13.2033 55.7573C13.3286 57.0563 13.5813 58.3407 13.7881 59.717C13.9886 59.5771 14.0575 59.5416 14.1118 59.4873C17.706 55.8972 21.3044 52.3114 24.8756 48.6984C25.1054 48.4645 25.2077 48.0113 25.2077 47.6583C25.2286 42.291 25.2223 36.9237 25.2223 31.5564C25.2223 31.2578 25.2223 30.9591 25.2223 30.673H29.9318V43.6193C30.1552 43.423 30.2701 43.3332 30.3745 43.2287C33.2127 40.3926 36.0593 37.5649 38.8703 34.7037C39.1209 34.4489 39.265 33.9811 39.265 33.6114C39.288 27.4631 39.2817 21.3147 39.2817 15.1663V14.2808H44.0413V29.6183C49.1476 24.51 54.1181 19.5395 58.98 14.6776C60.0827 15.7907 61.1728 16.8893 62.4447 18.1737C60.6716 19.9259 58.8171 21.7553 56.9249 23.6245H67.3776V28.2943H66.467C61.8558 28.2943 57.2445 28.2838 52.6332 28.3131C52.2719 28.3151 51.8208 28.5031 51.5639 28.7579C47.2325 33.0476 42.9261 37.3623 38.6176 41.6749C38.4443 41.8483 38.2918 42.0404 38.1143 42.2409C38.2292 42.2973 38.273 42.3349 38.3148 42.3349C42.8446 42.3579 47.3766 42.4894 51.9022 42.3599C55.3377 42.2618 58.5247 42.8069 61.4088 44.7617ZM62.925 56.4904C62.9146 51.2546 58.6688 47.0401 53.4122 47.0506C48.2349 47.061 43.9933 51.3215 43.9933 56.5175C43.9933 61.7658 48.2224 65.9844 53.479 65.9824C58.7293 65.9782 62.9355 61.7533 62.925 56.4925V56.4904ZM17.1547 63.1128C25.0782 64.7397 32.605 63.9545 39.9918 61.1163C38.4986 55.9307 39.3715 51.2839 42.8446 47.0485H41.932C39.2755 47.0485 36.619 47.0589 33.9625 47.0381C33.4592 47.0339 33.0958 47.1696 32.7324 47.5351C29.3031 50.9936 25.8551 54.4312 22.4092 57.875C20.6987 59.5834 18.9841 61.2854 17.1505 63.1128H17.1547Z" fill="white"/>
</svg>
