<?xml version="1.0" encoding="utf-8"?>
<!-- Generator: Adobe Illustrator 28.2.0, SVG Export Plug-In . SVG Version: 6.00 Build 0)  -->
<svg version="1.1" id="Layer_1" xmlns="http://www.w3.org/2000/svg" xmlns:xlink="http://www.w3.org/1999/xlink" x="0px" y="0px"
	 viewBox="0 0 54 48" style="enable-background:new 0 0 54 48;" xml:space="preserve">
<style type="text/css">
	.st0{fill:#FFFFFF;}
</style>
<g>
	<path class="st0" d="M45.3,25.7v0.7c0,5.9,0,11.9,0,17.8c0,2-1.1,3.4-2.9,3.7c-0.2,0-0.5,0-0.7,0c-9.7,0-19.5,0-29.2,0
		c-2.2,0-3.7-1.4-3.7-3.7c0-6,0-11.9,0-17.9c0-0.2,0-0.4,0-0.7C8.5,25.9,8.4,26,8.3,26c-0.6,0.4-1.2,0.4-1.6-0.2
		c-1.2-1.5-2.3-3-3.4-4.6c-0.4-0.6-0.3-1.2,0.3-1.7c3.3-2.8,6.6-5.6,10-8.5C17.7,7.6,21.8,4,26,0.5c0.8-0.7,1.2-0.7,2,0
		c7.5,6.4,14.9,12.7,22.4,19c0.8,0.7,0.8,1.2,0.2,2c-1,1.3-2,2.6-2.9,3.9C46.9,26.5,46.4,26.5,45.3,25.7L45.3,25.7z M27,9.5
		c-0.2,0.2-0.3,0.3-0.4,0.4c-5,4.4-10,8.8-15,13.2c-0.4,0.4-0.6,0.7-0.6,1.3c0,6.3,0,12.7,0,19c0,0.4,0,0.7,0,1.1
		c0,0.7,0.4,1.1,1.1,1.2c0.2,0,0.4,0,0.5,0c9.6,0,19.1,0,28.7,0c1.4,0,1.7-0.3,1.7-1.7c0-6.6,0-13.1,0-19.7c0-0.5-0.2-0.9-0.5-1.2
		c-3.3-2.9-6.5-5.7-9.8-8.6C30.8,12.9,28.9,11.2,27,9.5L27,9.5z M48.3,20.7C41.2,14.7,34.1,8.7,27,2.7c-7.1,6-14.2,12.1-21.3,18.1
		c0.7,0.9,1.4,1.8,2,2.7c0.2-0.1,0.3-0.2,0.4-0.3C14,17.9,20,12.7,25.9,7.4c0.9-0.8,1.3-0.8,2.1,0c5.1,4.6,10.3,9.1,15.4,13.6
		c0.9,0.8,1.8,1.6,2.7,2.4C46.9,22.5,47.6,21.7,48.3,20.7z"/>
	<path class="st0" d="M26.9,41.2c-1.1-0.1-2.3-0.1-3.5-0.4c-2.6-0.5-3.6-2.1-3.1-4.7c0.5-2.5,1.8-4.4,4-5.7c2.1-1.2,4.2-1,6.1,0.4
		c1.8,1.3,2.9,3,3.3,5.1c0.6,2.6-0.6,4.4-3.3,4.8C29.2,41.1,28.1,41.1,26.9,41.2z M27,39c1.1-0.1,2.3-0.2,3.5-0.4
		c0.9-0.2,1.2-0.7,1.1-1.6c-0.3-1.8-1.2-3.3-2.8-4.3c-1.1-0.8-2.3-0.8-3.4-0.1c-1.6,1-2.5,2.5-2.9,4.3c-0.2,1,0.1,1.6,1.2,1.8
		C24.7,38.8,25.9,38.8,27,39L27,39z"/>
	<path class="st0" d="M27,27.4c-1.9,0-3.4-1.6-3.4-3.5c0-1.9,1.6-3.4,3.5-3.4c1.9,0,3.4,1.6,3.4,3.4C30.4,25.9,28.9,27.4,27,27.4z
		 M28.1,24c0-0.6-0.5-1.1-1.1-1.1c-0.6,0-1.2,0.5-1.1,1.2c0,0.6,0.5,1.1,1.1,1.1C27.6,25.2,28.1,24.6,28.1,24L28.1,24z"/>
	<path class="st0" d="M31.6,28.6c0-1.9,1.5-3.4,3.4-3.4c1.9,0,3.4,1.5,3.4,3.4c0,1.9-1.5,3.5-3.4,3.5C33.1,32,31.6,30.5,31.6,28.6z
		 M36.1,28.6c0-0.6-0.5-1.1-1.1-1.1c-0.6,0-1.2,0.5-1.1,1.2c0,0.6,0.5,1.1,1.2,1.1C35.7,29.7,36.1,29.2,36.1,28.6L36.1,28.6z"/>
	<path class="st0" d="M19,25.2c1.9,0,3.4,1.5,3.4,3.4c0,1.9-1.5,3.5-3.4,3.4c-1.9,0-3.4-1.5-3.4-3.4C15.6,26.7,17.1,25.2,19,25.2
		L19,25.2z M19,29.7c0.6,0,1.2-0.5,1.2-1.1c0-0.6-0.5-1.1-1.1-1.1c-0.6,0-1.1,0.5-1.1,1.1C17.9,29.2,18.3,29.7,19,29.7L19,29.7z"/>
</g>
</svg>
