<svg width="36" height="24" viewBox="0 0 36 24" fill="none" xmlns="http://www.w3.org/2000/svg">
<path d="M7.79276 24C6.56118 24 5.4875 23.4316 4.96645 22.6105L0.845395 10.6611L0.6875 10.1053C0.6875 9.77025 0.853853 9.44896 1.14996 9.21208C1.44607 8.97519 1.84768 8.8421 2.26645 8.8421H9.49803L16.7612 0.543158C17.0454 0.214737 17.5191 0 18.0559 0C18.5928 0 19.0822 0.214737 19.3664 0.55579L26.6138 8.8421H33.8454C34.2642 8.8421 34.6658 8.97519 34.9619 9.21208C35.258 9.44896 35.4243 9.77025 35.4243 10.1053L35.3612 10.4716L31.1454 22.6105C30.6243 23.4316 29.5507 24 28.3191 24H7.79276ZM18.0559 3.46105L13.3191 8.8421H22.7928L18.0559 3.46105ZM18.0559 13.8947C17.2184 13.8947 16.4152 14.1609 15.823 14.6347C15.2307 15.1085 14.898 15.751 14.898 16.4211C14.898 17.0911 15.2307 17.7337 15.823 18.2074C16.4152 18.6812 17.2184 18.9474 18.0559 18.9474C18.8934 18.9474 19.6967 18.6812 20.2889 18.2074C20.8811 17.7337 21.2138 17.0911 21.2138 16.4211C21.2138 15.751 20.8811 15.1085 20.2889 14.6347C19.6967 14.1609 18.8934 13.8947 18.0559 13.8947Z" fill="#737373"/>
</svg>
