<?xml version="1.0" encoding="utf-8"?>
<!-- Generator: Adobe Illustrator 28.2.0, SVG Export Plug-In . SVG Version: 6.00 Build 0)  -->
<svg version="1.1" id="Layer_1" xmlns="http://www.w3.org/2000/svg" xmlns:xlink="http://www.w3.org/1999/xlink" x="0px" y="0px"
	 viewBox="0 0 36 33.8" style="enable-background:new 0 0 36 33.8;" xml:space="preserve">
<style type="text/css">
	.st0{fill:#737373;}
</style>
<path class="st0" d="M1.6,13.1c0-1.2,0-2.5,0-3.7c0.1-0.3,0.1-0.7,0.2-1c0.5-2.4,1.1-4.7,1.7-7.1C3.6,0.8,4,0.5,4.7,0.5
	c8.8,0,17.7,0,26.5,0c0.8,0,1.1,0.3,1.3,1.1c0.2,0.9,0.4,1.8,0.7,2.7c0.3,1.2,0.6,2.5,0.9,3.7c0.4,1.5,0.3,3.1,0.3,4.6
	c0,1.8-1.1,3.4-2.6,4c-0.3,0.1-0.3,0.3-0.3,0.5c0,3.9,0,7.8,0,11.7c0,2.5-1.7,4.4-4,4.4c-6.3,0-12.6,0-18.9,0c-0.2,0-0.5,0-0.7-0.1
	c-2-0.3-3.3-2.1-3.3-4.2c0-3.9,0-7.9,0-11.8c0-0.3-0.1-0.3-0.3-0.5c-1.2-0.5-2-1.4-2.5-2.7C1.7,13.7,1.6,13.4,1.6,13.1z M32,8.1
	c0-0.1,0-0.1,0-0.2c-0.4-1.6-0.8-3.2-1.2-4.9c-0.1-0.3-0.2-0.4-0.5-0.4c-6.2,0-12.5,0-18.7,0c-2,0-4,0-5.9,0C5.5,2.7,5.3,2.7,5.3,3
	C5,3.8,4.9,4.5,4.7,5.3C4.5,6.2,4.2,7.2,4,8.1H32z M20.2,31c0-0.1,0-0.1,0-0.1c0-2.5,0-5,0-7.5c0-0.8-0.5-1.2-1.2-1.2s-1.4,0-2.1,0
	c-0.8,0-1.2,0.5-1.2,1.4c0,2.4,0,4.8,0,7.2c0,0.1,0,0.2,0,0.3L20.2,31L20.2,31z M3.6,10.4c0,0.8,0,1.6,0,2.4c0.1,1,0.8,1.9,1.8,2.1
	c1,0.1,2-0.5,2.2-1.6c0.1-0.9,0.1-1.8,0.1-2.8L3.6,10.4L3.6,10.4z M9.8,10.4c0,0.8,0,1.5,0,2.3c0,1.2,1,2.2,2.1,2.2s2.1-1,2.1-2.2
	c0-0.7,0-1.4,0-2c0-0.1,0-0.1,0-0.2L9.8,10.4L9.8,10.4z M15.9,10.4c0,0.8,0,1.5,0,2.3c0,1.2,1,2.2,2.1,2.2c1.1,0,2.1-1,2.1-2.2
	c0-0.7,0-1.4,0-2c0-0.1,0-0.1,0-0.2L15.9,10.4L15.9,10.4z M22.1,10.4c0,0.1,0,0.1,0,0.3c0,0.8-0.1,1.5,0,2.2c0.1,1.1,1,1.9,1.9,2
	c1,0.1,1.9-0.7,2.1-1.8c0.1-0.6,0.1-1.2,0.1-1.8c0-0.3,0-0.6,0-0.9L22.1,10.4L22.1,10.4z M28.2,10.4c0,0.8,0,1.5,0,2.2
	c0,1.2,0.8,2.1,1.8,2.2c1.1,0.1,2.1-0.7,2.2-1.9c0.1-0.8,0-1.7,0-2.5L28.2,10.4L28.2,10.4z"/>
</svg>
