<svg width="54" height="48" viewBox="0 0 54 48" fill="none" xmlns="http://www.w3.org/2000/svg">
<path d="M34.1768 29.9296C34.5071 28.9547 34.3916 27.8868 33.8593 27.005L31.5696 23.1856C30.5755 21.5341 28.4494 20.912 26.7273 21.7746L25.6178 22.3294C24.1523 21.4507 22.4366 20.9441 20.6023 20.9441C18.9251 20.9441 17.3442 21.3674 15.9652 22.1146L15.2886 21.7778C13.5633 20.9152 11.4372 21.5341 10.4431 23.1888L8.15343 27.0082C7.62431 27.89 7.50886 28.9579 7.83596 29.9328C8.16305 30.9077 8.90062 31.6869 9.85625 32.0717L10.7638 32.4341L10.5938 36.1444C10.5201 37.7735 11.1005 39.3191 12.2261 40.4993C13.3517 41.6794 14.8717 42.3271 16.504 42.3271H24.6942C26.3265 42.3271 27.8433 41.6762 28.9721 40.4993C30.0977 39.3191 30.6781 37.7735 30.6044 36.1444L30.444 32.6297L32.1533 32.0717C33.1089 31.6901 33.8465 30.9109 34.1736 29.9328L34.1768 29.9296ZM10.8664 30.2471L10.8504 30.5838L10.504 30.4459C10.023 30.2535 9.65422 29.8622 9.48747 29.3716C9.32392 28.8809 9.38164 28.3454 9.64781 27.9029L11.9375 24.0835C12.4249 23.2722 13.4286 22.9323 14.2977 23.2498C12.2998 24.943 10.9915 27.4283 10.8632 30.2471H10.8664ZM20.8364 35.3427C20.1149 35.3427 19.528 34.7558 19.528 34.0343C19.528 33.3128 20.1149 32.7259 20.8364 32.7259C21.5579 32.7259 22.1448 33.3128 22.1448 34.0343C22.1448 34.7558 21.5579 35.3427 20.8364 35.3427ZM27.7118 39.2903C26.9165 40.1208 25.8454 40.5794 24.6974 40.5794H22.1448V36.789C23.1742 36.2983 23.8893 35.2497 23.8893 34.0343C23.8893 32.3507 22.52 30.9814 20.8364 30.9814C19.1528 30.9814 17.7835 32.3507 17.7835 34.0343C17.7835 35.5704 18.9251 36.8403 20.4003 37.0551V40.5794H16.5104C15.3592 40.5794 14.2881 40.1208 13.496 39.2903C12.7007 38.4597 12.2934 37.3694 12.3447 36.2214L12.6109 30.3272C12.8065 26.0461 16.3148 22.6886 20.6023 22.6886C24.8898 22.6886 28.3981 26.0429 28.5937 30.3272L28.8599 36.2214C28.9112 37.3694 28.5039 38.4597 27.7086 39.2903H27.7118ZM31.56 30.4266L30.3607 30.8147L30.335 30.2471C30.2131 27.5629 29.0202 25.1803 27.1827 23.4967L27.5066 23.3364C28.4205 22.8778 29.5461 23.2081 30.072 24.0835L32.3617 27.9029C32.6279 28.3454 32.6856 28.8809 32.5221 29.3716C32.3553 29.8622 31.9865 30.2535 31.56 30.4266Z" fill="white"/>
<path d="M18.2196 30.106C18.9422 30.106 19.528 29.3249 19.528 28.3614C19.528 27.398 18.9422 26.6169 18.2196 26.6169C17.497 26.6169 16.9113 27.398 16.9113 28.3614C16.9113 29.3249 17.497 30.106 18.2196 30.106Z" fill="white"/>
<path d="M23.4532 30.106C24.1758 30.106 24.7615 29.3249 24.7615 28.3614C24.7615 27.398 24.1758 26.6169 23.4532 26.6169C22.7306 26.6169 22.1448 27.398 22.1448 28.3614C22.1448 29.3249 22.7306 30.106 23.4532 30.106Z" fill="white"/>
<path d="M46.5519 39.7617L46.2248 33.2615C46.1991 32.8189 45.933 32.4341 45.5289 32.2545C45.1249 32.0749 44.6599 32.1359 44.3039 32.4213L40.2986 35.8077C40.0677 35.7884 39.8336 35.7788 39.5963 35.7788C39.359 35.7788 39.1249 35.7884 38.8908 35.8077L34.8759 32.4149C34.5327 32.1391 34.0677 32.0749 33.6637 32.2545C33.2596 32.4341 32.9935 32.8189 32.9678 33.2647L32.6343 39.7841C32.3393 40.4415 32.1789 41.1502 32.1789 41.891C32.1789 45.2582 35.5076 48 39.5963 48C42.7518 48 45.4552 46.3677 46.523 44.0716H46.5775V43.953C46.8597 43.3084 47.0137 42.6125 47.0137 41.891C47.0137 41.1695 46.8501 40.4255 46.5487 39.7649L46.5519 39.7617ZM44.8619 33.0947C44.9902 32.9921 45.1249 33.0306 45.1762 33.053C45.2275 33.0755 45.3461 33.146 45.3557 33.3096L45.6315 38.3379C44.631 37.1898 43.1623 36.3368 41.4595 35.9744L44.8651 33.0947H44.8619ZM33.8368 33.3128C33.8465 33.146 33.9651 33.0755 34.0164 33.053C34.0677 33.0306 34.1992 32.9889 34.3179 33.0851L37.7363 35.9744C36.0207 36.34 34.5456 37.2026 33.545 38.3603L33.8336 33.3096L33.8368 33.3128ZM39.5963 47.1245C36.9603 47.1245 34.6899 45.8707 33.6541 44.0716H35.2318V43.1994H33.266C33.173 42.9172 33.1089 42.6254 33.0768 42.3271H35.2318V41.4549H33.0768C33.3558 38.7708 36.1682 36.6543 39.5931 36.6543C43.018 36.6543 45.8303 38.7708 46.1093 41.4549H44.3905V42.3271H46.1093C46.0773 42.6254 46.0131 42.9172 45.9201 43.1994H44.3905V44.0716H45.5321C44.4963 45.8707 42.2259 47.1245 39.5899 47.1245H39.5963Z" fill="white"/>
<path d="M42.2163 38.8349C41.7352 38.8349 41.344 39.2261 41.344 39.7072C41.344 40.1882 41.7352 40.5794 42.2163 40.5794C42.6973 40.5794 43.0885 40.1882 43.0885 39.7072C43.0885 39.2261 42.6973 38.8349 42.2163 38.8349Z" fill="white"/>
<path d="M36.9795 40.5794C37.4613 40.5794 37.8518 40.1889 37.8518 39.7072C37.8518 39.2254 37.4613 38.8349 36.9795 38.8349C36.4978 38.8349 36.1073 39.2254 36.1073 39.7072C36.1073 40.1889 36.4978 40.5794 36.9795 40.5794Z" fill="white"/>
<path d="M41.142 45.2005C40.7892 45.2005 40.4942 44.9696 40.3916 44.6489C40.5295 44.5751 40.661 44.4853 40.7732 44.3731C41.0875 44.0588 41.2606 43.6419 41.2574 43.1994C41.2574 42.2822 40.5102 41.5383 39.5963 41.5383C38.6824 41.5383 37.9352 42.2822 37.9352 43.1994C37.9352 43.8343 38.2975 44.3795 38.8202 44.6585C38.7144 44.9728 38.4226 45.2005 38.0731 45.2005C37.6369 45.2005 37.2842 44.8445 37.2842 44.4116H36.4119C36.4119 45.3287 37.1591 46.0759 38.0731 46.0759C38.7625 46.0759 39.3558 45.6526 39.6059 45.0561C39.8593 45.6558 40.4493 46.0759 41.1388 46.0759C42.0559 46.0759 42.7999 45.3287 42.7999 44.4116H41.9277C41.9277 44.8477 41.5717 45.2005 41.1388 45.2005H41.142ZM39.5995 42.4105C40.0356 42.4105 40.3884 42.7633 40.3884 43.1994C40.3884 43.411 40.305 43.6099 40.1575 43.7574C40.0068 43.9081 39.8111 43.9883 39.5995 43.9883C39.1634 43.9883 38.8106 43.6355 38.8106 43.1994C38.8106 42.7633 39.1634 42.4105 39.5995 42.4105Z" fill="white"/>
<path d="M53.3311 19.5716L28.8951 0.372325C28.2826 -0.108698 27.4264 -0.124732 26.7947 0.330636L1.48646 18.6576C0.707198 19.222 0.530823 20.3155 1.09522 21.0948C1.65962 21.874 2.74994 22.0504 3.53241 21.486L27.776 3.93189L51.1761 22.3166C51.4968 22.5667 51.8752 22.6886 52.2536 22.6886C52.7699 22.6886 53.283 22.4609 53.6261 22.0216C54.2226 21.2648 54.0911 20.1648 53.3311 19.5716Z" fill="white"/>
</svg>
