<?xml version="1.0" encoding="utf-8"?>
<!-- Generator: Adobe Illustrator 28.2.0, SVG Export Plug-In . SVG Version: 6.00 Build 0)  -->
<svg version="1.1" id="Layer_1" xmlns="http://www.w3.org/2000/svg" xmlns:xlink="http://www.w3.org/1999/xlink" x="0px" y="0px"
	 viewBox="0 0 54 48" style="enable-background:new 0 0 54 48;" xml:space="preserve">
<style type="text/css">
	.st0{fill:#FFFFFF;}
</style>
<path class="st0" d="M3,24C3,10.8,13.8,0,27,0c13.2,0,24,10.7,24,23.9C51,37.3,40.2,48,26.9,48C13.7,48,3,37.2,3,24z M27,30
	c0.1-0.1,0.1-0.1,0.2-0.2c2.2-2.2,4.3-4.3,6.5-6.5c1.3-1.4,1.3-3.4,0-4.8c-1.3-1.3-3.4-1.4-4.8-0.1c-0.4,0.4-0.7,0.7-1.1,1.1
	c-0.6,0.6-1,0.6-1.6,0c-0.4-0.4-0.8-0.8-1.2-1.2c-1.3-1.2-3.4-1.1-4.7,0.2c-1.3,1.3-1.4,3.4-0.2,4.6C22.4,25.5,24.7,27.7,27,30
	L27,30z M26.1,34.3c0-0.9,0-1.7,0-2.5c0-0.1-0.1-0.3-0.3-0.4c-2.1-2.1-4.2-4.2-6.3-6.3c-0.1-0.1-0.3-0.2-0.4-0.2c-1.4,0-2.8,0-4.2,0
	c0.1,1.1,0.1,2.2,0.3,3.3c0.3,1.9,0.7,3.9,1,5.8c0,0.3,0.1,0.4,0.4,0.4C19.8,34.3,22.9,34.3,26.1,34.3L26.1,34.3z M39,24.9
	c-1.5,0-2.8,0-4.1,0c-0.2,0-0.3,0.1-0.5,0.2c-2.1,2.1-4.2,4.2-6.4,6.4c-0.1,0.1-0.2,0.2-0.2,0.3c0,0.8,0,1.7,0,2.5
	c3.2,0,6.4,0,9.5,0c0.1,0,0.3-0.2,0.4-0.4c0.3-1.5,0.7-3.1,0.9-4.6C38.9,27.8,38.9,26.4,39,24.9L39,24.9z M4.7,23.1h8.6
	c0.1-3.2,0.5-6.3,1.3-9.4c-2.4,0-4.8,0-7.1,0c-0.1,0-0.3,0.1-0.4,0.2C5.7,16.8,4.9,19.9,4.7,23.1L4.7,23.1z M4.7,24.9
	c0.1,3.3,0.9,6.3,2.4,9.1c0.1,0.1,0.4,0.3,0.6,0.3c2,0,3.9,0,5.9,0h1.1c-0.8-3.1-1.2-6.2-1.3-9.4H4.7L4.7,24.9z M49.3,24.9h-8.6
	c-0.1,3.2-0.5,6.3-1.3,9.4c2.4,0,4.8,0,7.1,0c0.1,0,0.3-0.1,0.4-0.2C48.3,31.2,49.1,28.1,49.3,24.9L49.3,24.9z M49.3,23.1
	c-0.1-3.3-0.9-6.3-2.4-9.1c-0.1-0.1-0.4-0.3-0.6-0.3c-2,0-4.1,0-6.1,0c-0.3,0-0.5,0-0.8,0c0.8,3.1,1.2,6.2,1.3,9.4H49.3z M26.1,1.8
	c-0.2,0-0.4,0-0.6,0.1c-1.3,0.3-2.4,0.9-3.4,1.8c-2.3,2-3.8,4.6-4.9,7.4c-0.1,0.3-0.2,0.6-0.4,1h9.2V1.8z M37.1,12
	c0-0.1-0.1-0.3-0.1-0.4c-0.7-1.9-1.6-3.7-2.7-5.4c-1.1-1.5-2.4-2.9-4.1-3.7c-0.7-0.3-1.5-0.6-2.3-0.8V12H37.1z M16.9,36
	c0.8,2.3,1.8,4.4,3.3,6.3c1,1.3,2.2,2.5,3.7,3.2c0.7,0.3,1.4,0.6,2.2,0.7V36H16.9z M27.9,36v10.2c1.3-0.1,2.4-0.7,3.4-1.4
	c2.1-1.6,3.5-3.7,4.7-6c0.4-0.9,0.8-1.8,1.2-2.7L27.9,36L27.9,36z M27.9,17.1c2-1.4,4.1-1.7,6.1-0.4c2.4,1.6,2.8,3.8,2,6.4h3
	c0-0.1,0-0.2,0-0.2c-0.1-3-0.5-5.9-1.2-8.8c-0.1-0.4-0.3-0.4-0.6-0.4c-2.9,0-5.9,0-8.8,0c-0.2,0-0.3,0-0.5,0V17.1z M26.1,13.7
	c-0.1,0-0.2,0-0.2,0c-3.1,0-6.1,0-9.2,0c-0.3,0-0.4,0.1-0.5,0.4c-0.3,1.8-0.7,3.6-1,5.4c-0.2,1.2-0.2,2.4-0.3,3.6h3
	c-0.9-2.4-0.5-4.6,1.6-6.2c2.1-1.6,4.3-1.4,6.5,0.1L26.1,13.7L26.1,13.7z M8.3,12c2.1,0,4.2,0,6.3,0c0.4,0,0.6-0.1,0.8-0.5
	c0.9-2.6,2.1-5.1,3.9-7.2c0.4-0.5,0.9-1,1.4-1.5C16.9,3.2,10.4,8,8.3,12z M33.3,45.2c0,0,0.1,0.1,0.1,0.1c5.2-1.6,9.3-4.7,12.3-9.3
	c-2.2,0-4.3,0-6.3,0c-0.4,0-0.6,0.1-0.8,0.6c-1,2.9-2.4,5.6-4.5,7.8C33.9,44.7,33.6,44.9,33.3,45.2L33.3,45.2z M8.2,36
	c3.1,4.6,7.2,7.7,12.4,9.4c-0.1-0.1-0.1-0.2-0.1-0.2c-2.5-2.4-4.1-5.4-5.3-8.7C15.2,36.1,15,36,14.6,36c-0.6,0-1.3,0-1.9,0H8.2z
	 M33.5,2.7c-0.1,0.1-0.1,0.1-0.2,0.2c0.3,0.3,0.7,0.5,0.9,0.8c2.1,2.3,3.5,5,4.5,7.9c0.1,0.4,0.3,0.5,0.7,0.5c1.9,0,3.9,0,5.8,0
	c0.2,0,0.3,0,0.5,0C42.7,7.4,38.6,4.3,33.5,2.7z"/>
</svg>
