<?xml version="1.0" encoding="utf-8"?>
<!-- Generator: Adobe Illustrator 28.2.0, SVG Export Plug-In . SVG Version: 6.00 Build 0)  -->
<svg version="1.1" id="Layer_1" xmlns="http://www.w3.org/2000/svg" xmlns:xlink="http://www.w3.org/1999/xlink" x="0px" y="0px"
	 viewBox="0 0 77 80" style="enable-background:new 0 0 77 80;" xml:space="preserve">
<style type="text/css">
	.st0{fill:#FFFFFF;}
</style>
<path class="st0" d="M73.8,43.2C72.5,42,70.6,42,69.2,43c-1.1,0.8-2.1,1.6-3.3,2.6v-0.9c0-4.4,0-8.8,0-13.2c0-0.5,0-0.9-0.1-1.4
	c-0.5-2-2.3-2.9-4.7-2.4c-0.3-1.6-1.2-2.9-3-3.2c-1.7-0.3-3,0.5-3.8,1.8c-0.4-0.5-0.7-1.1-1.1-1.5c-1.4-1.4-3.7-1.5-5.3-0.3
	c-1.3,1-2.6,2.1-4.1,3.2v-0.9c0-2.2,0-4.4,0-6.6c0-0.2,0-0.4,0-0.6c0,0,0,0,0,0c0-3.2,0-8.6-0.1-9.8c-0.1-1.8-1.6-3.3-3.4-3.4
	c-0.7-0.1-1.5,0.1-2.2,0.2c0-1-0.4-1.9-1.1-2.6c-0.6-0.5-1.3-0.8-2-1.2h-1.8c-0.8,0.5-1.6,1-2.3,1.6c-0.4,0.4-0.6,1.1-0.9,1.7
	c-1.4-0.6-2.7-0.5-4,0.4c-1.3,0.9-1.7,2.2-1.7,3.8C24.2,10,24.1,9.9,24,9.9c-2.8-0.9-5.3,1-5.3,3.9c0,1.5,0,8.1,0,11.7
	c0,0.6,0,1.3,0,2c0,0.1,0,0.2,0,0.2c-1.2-0.3-2.2-0.2-3.1,0.4c-0.9,0.6-1.4,1.5-1.6,2.6c-3-0.8-4.8,1.4-4.7,3.7
	c0.1,4.3,0,8.5,0,12.8v0.9c-1.1-0.9-2.1-1.7-3.2-2.5c-2.1-1.5-5-0.4-5.6,2.2c0,0.2-0.1,0.3-0.1,0.5v0.4c0.2,0.5,0.3,1,0.5,1.4
	C3.6,55.7,7,60.6,11.5,64.8c0.8,0.7,1.1,1.4,0.9,2.4c0,0.2-0.2,0.5-0.4,0.6c-1.3,0.7-2,1.8-2,3.3c0,1.6,0,3.2,0,4.8
	c0,0.9,0.4,1.4,1.1,1.4c0.7,0,1.1-0.5,1.1-1.4c0-1.6,0-3.2,0-4.7c0-1,0.4-1.4,1.4-1.4c4.5,0,9,0,13.5,0c1,0,1.5,0.5,1.5,1.5
	c0,1.6,0,3.2,0,4.7c0,0.8,0.4,1.3,1,1.4c0.8,0.1,1.2-0.4,1.2-1.4c0-1.6,0-3.1,0-4.7c0-1.5-0.6-2.7-2-3.4c-0.2-0.1-0.4-0.3-0.4-0.5
	c0-1.7-0.2-3.4,0.6-5c0.3-0.5,0.4-1.2,0.5-1.8c0.1-0.5,0.3-0.7,0.9-0.7c3,0,6.1,0,9.1,0h0.7v1c0,5.1,0,10.1,0,15.2
	c0,0.9,0.4,1.3,1.1,1.4c0.7,0,1.1-0.5,1.1-1.4c0-7,0-13.9,0-20.9c0-1.5-0.7-2.7-2-3.5c-0.6-0.3-0.7-0.7-0.8-1.3
	c-0.1-1.3,0.2-2.2,1.3-3c1.1-0.8,2-1.9,3-2.9v0.8c0,2.5,0,5.1,0,7.6c0,3,0.5,5.8,1.6,8.6c0.2,0.4,0.2,0.8,0.2,1.2c0,3,0,6.1,0,9.1
	c0,1.5,0,3,0,4.5c0,0.7,0.5,1.1,1.1,1.1c0.6,0,1.1-0.4,1.1-1.1c0-0.2,0-0.4,0-0.7c0-4.4,0-8.7,0-13.1c0-0.7-0.1-1.4-0.4-2
	c-0.9-2.2-1.4-4.5-1.4-7c0-3.8,0-7.6,0-11.5c0-0.2,0-0.4,0.1-0.6c0.8-1.1,1.6-2.2,2.6-3.4c0,1.2,0,2.3,0,3.3c0,0.9,0.4,1.4,1.1,1.4
	c0.7,0,1.1-0.5,1.1-1.4c0-1.7,0.1-3.3,0-5c-0.1-1.3,0.2-2.4,0.9-3.4c0.6-0.9,1.1-1.9,1.6-2.9c0.1,0,0.1,0,0.2,0v0.8
	c0,3.4,0,6.7,0,10.1c0,0.2,0,0.4,0,0.6c0.1,0.7,0.5,1.1,1.1,1.1c0.6,0,1.1-0.4,1.1-1.1c0-0.2,0-0.5,0-0.7c0-4.1,0-8.2,0-12.3
	c0-0.3,0-0.6,0-0.9c0.1-0.7,0.5-1,1.2-1.1c0.9-0.1,1.4,0.5,1.4,1.7c0,4.4,0,8.8,0,13.2c0,0.3,0,0.5,0,0.8c0.1,0.6,0.5,1.1,1.1,1.1
	c0.6,0,1.1-0.5,1.1-1.1c0-0.2,0-0.4,0-0.6c0-3.5,0-7.1,0-10.6c0-1,0.7-1.6,1.6-1.4c0.6,0.1,1,0.7,1,1.6c0,5,0,10,0,15
	c0,0.8,0.3,1.5,1,1.8c0.7,0.4,1.4,0.2,2-0.3c1.2-0.9,2.3-1.9,3.6-2.8c0.4-0.3,0.9-0.5,1.3-0.4c1,0.1,1.4,1.2,0.9,2.1
	c-1.4,2.9-3.1,5.7-5.1,8.4c-0.1,0.1-0.2,0.2-0.3,0.3c-1,1-5.1,5.8-6.1,6.8c-0.4,0.4-0.6,0.9-0.6,1.5c0,2,0,4.1,0,6.1c0,2,0,4,0,6.1
	c0,0.3,0,0.7,0.1,0.8c0.3,0.3,0.7,0.7,1,0.7c0.3,0,0.8-0.3,1-0.6c0.2-0.2,0.1-0.6,0.1-0.9c0-3.8,0-7.5,0-11.3c0-0.5,0.2-0.9,0.5-1.3
	c0.8-0.8,4.4-5,5.4-6.1c0.2-0.1,0.3-0.2,0.4-0.4c2.2-2.9,4.1-6.1,5.7-9.4C75.4,45.9,75,44.2,73.8,43.2L73.8,43.2z M28.1,56.7
	c0,1.7-0.6,3.5-1.1,5.2c-0.4,1.2-0.7,2.4-0.6,3.7c0,0.6,0,1.3,0,2H14.7c0-0.6,0-1.3,0-1.9c0-0.6-0.2-1-0.6-1.4C9.4,60,5.7,55,3,49.3
	c-0.5-1-0.1-2,0.9-2.1c0.4,0,0.9,0.1,1.2,0.4c1.2,0.9,2.3,1.8,3.4,2.7c0.6,0.5,1.3,0.7,2.1,0.4c0.8-0.4,1-1,1-1.9
	c0-4.7,0-9.4,0-14.2c0-0.2,0-0.4,0-0.6c0.1-0.7,0.6-1.2,1.3-1.2c0.7,0,1.2,0.5,1.2,1.3c0,1.2,0,2.5,0,3.7c0,2.4,0,4.7,0,7.1
	c0,0.7,0.4,1.2,1.1,1.2c0.7,0,1.1-0.4,1.1-1.1c0-0.2,0-0.5,0-0.7c0-4.2,0-8.4,0-12.6c0-0.3,0-0.6,0.1-0.9c0.2-0.6,0.6-0.9,1.3-0.9
	c0.6,0,1,0.4,1.1,1c0.1,0.3,0,0.6,0,0.9c0,3.9,0,7.9,0,11.8c0,0.2,0,0.3,0,0.5c0,0.9,0.5,1.4,1.1,1.4c0.7,0,1.1-0.6,1.1-1.4
	c0-3.5,0-6.9,0-10.4c0-0.6,0.2-1.1,0.8-1.3c0.5-0.2,1.1-0.1,1.3,0.4c0.2,0.3,0.3,0.8,0.3,1.2c0,3.2,0,6.4,0,9.6c0,0.2,0,0.4,0,0.6
	c0,0.8,0.4,1.3,1.1,1.3c0.7,0,1.1-0.5,1.1-1.3c0-2.1,0-4.1,0-6.2c0-0.3,0-0.6,0-0.9c0-0.8,0.6-1.3,1.3-1.3c0.7,0,1.2,0.5,1.2,1.3
	C28.1,43.6,28.2,50.1,28.1,56.7L28.1,56.7z M40.5,55.4c0,0.7,0,1.4,0,2.2H30.4v-4.2c0.2,0,0.4,0,0.6,0c2.5,0,4.9,0,7.4,0
	C39.7,53.2,40.5,54,40.5,55.4z M51.9,28.8c-3.4,6.8-7.8,12.9-13.5,18c-0.5,0.5-0.8,1-0.7,1.7c0,0.8,0,1.6,0,2.5h-7.3v-0.9
	c0-4.1,0-8.3,0-12.4c0-0.4,0-0.8-0.1-1.2c-0.2-1.5-1.4-2.8-2.9-3c-0.6-0.1-1.2,0-1.8,0c-0.3-2.6-1.7-3.6-4.7-3.4c0-0.3,0-0.5,0-0.8
	c0-0.5,0-1,0-1.4c0-0.1,0-0.2,0-0.3c0-0.3,0-0.5,0-0.8c0-2.9,0-11.5,0-13.3c0-0.9,0.6-1.5,1.5-1.6c0.7-0.1,1.6,0.3,1.8,1.1
	c0.1,0.4,0.2,0.8,0.2,1.2c0,2.6,0,5.1,0,7.7c0,0.2,0,0.4,0,0.7c0,0.7,0.5,1.2,1.1,1.2c0.7,0,1.1-0.5,1.1-1.2c0-1.3,0-2.6,0-3.9
	c0-3,0-6,0-9c0-1.3,1.1-2.1,2.3-1.7c0.8,0.2,1.2,1,1.2,2c0,4,0,8.1,0,12.1c0,0.2,0,0.5,0,0.7c0.1,0.6,0.5,1,1.1,1
	c0.6,0,1-0.3,1.1-0.9c0-0.2,0-0.4,0-0.7c0-5,0-10,0-15c0-0.2,0-0.4,0-0.7c0.1-0.9,0.8-1.6,1.7-1.7c0.9,0,1.7,0.7,1.8,1.7
	c0,0.2,0,0.4,0,0.7c0,5.3,0,10.5,0,15.8c0,0.2,0,0.4,0,0.7c0.1,0.6,0.5,1,1.1,1c0.6,0,1-0.3,1.1-1c0-0.3,0-0.5,0-0.8
	c0-4.1,0-8.2,0-12.3c0-1.3,0.7-2,1.8-2c1.1,0,1.7,0.8,1.7,2c0,1.3,0,8.5,0,10.7c0,2.3,0,4.6,0,6.9c0,0.9,0.3,1.6,1.1,2
	c0.8,0.4,1.6,0.2,2.3-0.4c1.4-1.1,2.7-2.3,4.2-3.3c0.4-0.3,1.1-0.5,1.7-0.5C52.1,26.1,52.6,27.4,51.9,28.8L51.9,28.8z"/>
</svg>
