<?xml version="1.0" encoding="utf-8"?>
<!-- Generator: Adobe Illustrator 28.2.0, SVG Export Plug-In . SVG Version: 6.00 Build 0)  -->
<svg version="1.1" id="Layer_1" xmlns="http://www.w3.org/2000/svg" xmlns:xlink="http://www.w3.org/1999/xlink" x="0px" y="0px"
	 viewBox="0 0 1920 1000.9" style="enable-background:new 0 0 1920 1000.9;" xml:space="preserve">
<style type="text/css">
	.st0{fill:#253819;}
	.st1{fill:#0E7154;}
	.st2{fill:#118764;}
	.st3{fill:#0A442E;}
</style>
<g>
	<path class="st0" d="M585.4,1030.6c1.7,32.1,163,44.1,247.1-17.9c-3.9,27.8-8.9,55.5-15.2,83H33.4V752.2c0,0,11.6-61.5,61.4-156.7
		c33.5,49.6,141.8,199.7,203.4,165.2c57.3-31.9-84.4-169.3-123.1-294.4c44-61.1,101.4-128.3,175.6-197.8
		C366.2,316.2,418,452,496.9,418.8c61.4-25.8,26.8-169-5.6-267.8c46.9-35.2,98.6-70.4,155.5-105.2c0,0,53.8,106.3,105.2,266.9
		c-45.2,59.8-156,219.9-112.9,299c35.7,65.6,116.7-27.5,166.9-97.1c16.2,76,28.8,157.2,34.4,240.7c-18.5,45-53.3,115.4-101.4,152.1
		C664.9,963.9,583.4,993.6,585.4,1030.6z"/>
</g>
<path class="st1" d="M545.3,1030.6c1.7,32.1,163,44.1,247.1-17.9c-3.9,27.8-8.9,55.5-15.2,83H-6.7V752.2c0,0,11.6-61.5,61.4-156.7
	C88.2,645,196.5,795.1,258.1,760.7c57.3-31.9-84.4-169.3-123.1-294.4c44-61.1,101.4-128.3,175.6-197.8
	c15.5,47.6,67.2,183.5,146.2,150.3c61.4-25.8,26.8-169-5.6-267.8c46.9-35.2,98.6-70.4,155.5-105.2c0,0,53.8,106.3,105.2,266.9
	c-45.2,59.8-156,219.9-112.9,299c35.7,65.6,116.7-27.5,166.9-97.1c16.2,76,28.8,157.2,34.4,240.7c-18.5,45-53.3,115.4-101.4,152.1
	C624.7,963.9,543.3,993.6,545.3,1030.6z"/>
<path class="st2" d="M230.8,645.7c70.1,22.8,160.4,19.4,266-56.6c114-82,170.8-208.8,198.6-325.5c-45.8-132.8-88.8-217.7-88.8-217.7
	c-56.8,34.8-108.5,70-155.5,105.2c32.4,98.8,67,242,5.6,267.8c-79,33.2-130.7-102.6-146.2-150.3C236.4,338,179.1,405.1,135,466.3
	C154,527.8,197.9,592.2,230.8,645.7L230.8,645.7z"/>
<path class="st3" d="M298.8,1095.7L-6.7,804.6v19l285.6,272.1H298.8z"/>
<path class="st3" d="M798.4,730.5c-0.4-4.7-0.8-9.5-1.3-14.2L441.2,826c12-34.8,23.1-69.8,33.5-104.5l312.4-89.3
	c-0.7-4.7-1.4-9.3-2.1-13.9l-305.6,87.3c9.2-31.5,17.7-62.8,25.7-93.5l85.8-23.8c-0.8-4.5-1.3-9.2-1.5-14.1L509,596.5
	c14.3-56.4,26.4-110.9,36.8-161.7l110.1-40.3c4.1-6.6,8.1-13.1,12.2-19.3l-119,43.6c10.1-50.3,18.3-96.9,24.9-137.7l106.4-60.3
	c-1.7-4.5-3.3-8.8-4.9-13.2l-98.7,55.9c14.8-93.8,20.6-153.7,20.8-155.6c0.4-3.8-2.4-7.2-6.1-7.6c-3.8-0.4-7,2.4-7.4,6.3
	c-0.2,1.8-5.4,55.8-18.6,141.3l-55.6-139c-3.9,2.7-7.7,5.3-11.4,8l62.9,157.3c-6.5,40.5-14.7,86.9-24.6,137.2l-46.4-56.4
	c-0.5,6.6-1.2,12.8-2.4,18.6l45.4,55C523.1,479,511,533.1,497,589L267.8,310.2c-3.2,3.3-6.5,6.6-9.6,9.8l234.7,285.4
	c-8,31-16.5,62.6-25.8,94.3L194.4,390.4c-3,3.6-6,7.1-8.9,10.7l276.8,314.5c-10.6,35.7-22.1,71.7-34.4,107.5L189.8,579.4
	c11.2,18.6,22.7,36.7,33.4,53.8l199.7,204.2c-11.8,33.5-24.3,66.7-37.7,99.4L225.1,764c-10.5-2.6-21.6-7.9-32.9-15.3l187.2,202.2
	c-11,26.4-22.6,52.4-34.8,77.8L14.4,684.1c-1.9,5-3.7,9.8-5.3,14.3l329.1,343.5c-8.9,18.3-18.2,36.2-27.8,53.8h15.6
	c8.8-16.5,17.4-33.2,25.7-50.3l199.5-33.1c3.8-5.6,9.2-11.2,15.9-16.8L359,1030c11.6-24.6,22.7-49.6,33.3-75l340.4-80.8
	c4.7-5.6,9.1-11.5,13.4-17.5l-347.2,82.4c13-31.9,25.2-64.3,36.6-96.8L798.4,730.5L798.4,730.5z"/>
</svg>
