<?xml version="1.0" encoding="utf-8"?>
<!-- Generator: Adobe Illustrator 28.2.0, SVG Export Plug-In . SVG Version: 6.00 Build 0)  -->
<svg version="1.1" id="Layer_1" xmlns="http://www.w3.org/2000/svg" xmlns:xlink="http://www.w3.org/1999/xlink" x="0px" y="0px"
	 viewBox="0 0 1440 624" style="enable-background:new 0 0 1440 624;" xml:space="preserve">
<style type="text/css">
	.st0{opacity:0.3;}
	.st1{fill:#86975C;}
	.st2{fill:#83A532;}
	.st3{fill:#719913;}
	.st4{fill:#632424;}
	.st5{fill:#D4DDBA;}
	.st6{fill:#87B11A;}
	.st7{fill:#5E7C12;}
	.st8{fill:#516E0E;}
	.st9{fill:#193441;}
	.st10{fill:#B56B1F;}
	.st11{fill:#91BAEE;}
	.st12{fill:#FB523A;}
	.st13{fill:#EB3434;}
	.st14{fill:#885017;}
	.st15{fill:#D18015;}
	.st16{fill:#FFFFFF;}
	.st17{fill:#FFC366;}
	.st18{fill:#E89A49;}
	.st19{fill:#E88620;}
	.st20{fill:#FFDB82;}
	.st21{fill:#FFC0A9;}
	.st22{fill:#1D262D;}
	.st23{fill:#25506B;}
	.st24{fill:#FFAF96;}
	.st25{fill:#FFAF8A;}
	.st26{fill:#AB661F;}
	.st27{fill:#385ABF;}
	.st28{fill:#4B78FF;}
	.st29{fill:#FFE79F;}
</style>
<g class="st0">
	<path class="st1" d="M-170.1,373.4c-0.8,14,4.2,28.5,14.9,37.6c4.9,4.1,10.7,6.8,16.8,7.7c-1.1,8-0.4,16.3,2.6,23.9
		c0.8,1.9,1.6,3.6,2.5,5.4c6.4,11.3,17.6,19.3,30.4,22.5c0.7,12.3,8.3,24,19.2,29.6s25.1,5.8,35.6-0.7c4.6,7.7,16.1,11.7,24.5,8.6
		c-0.9,11.7,5.8,23.1,15.6,29.5c7.9,5.2,17.4,7.3,26.9,7.1c2.3-0.1,4.6-0.2,6.9-0.5c1.7-0.2,3.5-0.5,5.2-1
		c-0.7,38.4-4.7,76.7-11.9,114.5c12.6,1.3,25.3,3.2,37.8,4.6c7.5-39.8,8.5-80.6,4.6-121.3c7.6,2.7,16,3.2,23.8,1.2
		c13.1-3.3,24-13.9,28.4-26.6c5.5,1.4,11.7-0.5,15.5-4.8c3.8-4.2,5.5-10.9,3.4-16.2c11.1-4.9,19.8-15,23.3-26.6
		c1-3.2,1.6-6.5,1.7-9.9c0.3-7.2-1.4-14.5-4.7-20.9c2.7-3.2,4.9-7,6.3-11.1c18.4-6.2,31.9-24.7,32.4-44c0.2-7.6-1.7-15.3-5-22.5
		c-5.2-11.1-14.3-20.6-25.4-25c12.7-5.6,20.2-20.8,17.1-34.3c-3.1-13.5-15.9-24-29.7-23.4c8.1-19.3,1.7-43.8-14.8-56.7
		s-42.1-13.7-58.9-1.1c-9-5.5-22.3-2.4-27.8,6.6c-5.3-7.1-13.5-11.8-22.2-13C16,211.4,8,213.3,1,218.7c-9.2-23.5-32.8-40.5-58-41.9
		c-25.2-1.4-50.6,13-62.3,35.3c-11.8,22.3-10.8,52.8,4.7,72.7c-9,0.3-18.1,1.7-26.2,5.8c-2.6,1.3-5,2.8-7.3,4.6
		c-4.9,3.9-8.6,9-10.5,14.8c-2.8,8.6-2.5,19,4.2,25C-163.2,346.2-169.3,359.4-170.1,373.4L-170.1,373.4z M101.6,392.8
		c1.9-0.5,3.6-1.1,5.2-2c-0.5,1.9-0.8,3.8-1.1,5.7C104.3,395.2,103,394,101.6,392.8L101.6,392.8z"/>
	<path class="st1" d="M202.8,343.7c-6.9-4.7-10.3-13.9-8.3-21.9c2-8,9.3-17.4,17.5-18.1c-25.4,1.5-50-13-64.9-33.6
		c-14.8-20.6-20.7-46.6-21.1-72c-0.4-21.5,3.5-44.2,17.2-60.9c6.2-7.6,14.3-13.5,23.2-17.5c8.3-3.8,17.3-6.1,26.4-6.7
		c18.9-1.3,36.6,3.8,53.2,13c2.7-11.5,9.6-22.6,20.3-27.6c10.7-5,24.7-2,30.6,8.3c-3.8-16.9-5.9-34.4-3.6-51.6
		c2.3-17.1,9.3-34.1,21.7-46.2c12.4-12.1,30.6-18.8,47.6-15.4c17,3.4,33.1,17.9,34.6,35.2c7.3-7.6,16.8-13.3,27.2-14.7
		c10.4-1.4,21.7,2,28.5,10c5.2,6.1,7.5,14.3,7.8,22.4c0.3,8-1.5,14.2-3.1,22.1c8.7-1.7,18.2,4.2,20.7,12.7c1.3,4.5,0.6,9.6-1.5,14
		c8.2-7.4,17.3-13.7,27.6-17.6c14.3-5.3,31-5.4,44.1,2.5c13,7.9,19.9,24.2,15.2,38.7c8.6-5,20.6-2.7,26.8,5
		c6.2,7.7,5.1,19.2-1.7,26.4c18.4-1.2,37.4,2.5,52.7,12.7c5.8,3.9,11.1,8.7,15.5,14.3c7.1,9,11.7,19.7,12.5,31
		c1.4,18.4-8.6,36.6-24.9,45.1c10.4,6.1,15.3,19.9,11.1,31.2c-4.2,11.2-15.1,17.9-26.9,15.5c5.9,26.2-5.8,55.4-28.1,70.2
		c-0.6,0.5-1.3,0.8-1.9,1.1c0.9,8.2,0.2,16.6-2.6,24.5c-1.6,4.7-3.9,9.2-6.8,13.2c-8,11.1-20.3,19.4-33.6,22.8
		c4.8,16.5-1.7,35.6-15.5,45.7c-13.8,10.2-33.9,11.5-48.2,2c-0.4,7.8-6.5,14.9-14.2,16.4c-7.3,1.4-14.9-1.7-18.4-8.2
		c-0.2-0.3-0.3-0.6-0.5-0.9c-1.9,4.5-4.5,8.7-7.6,12.4c8.1,73.3,5.6,148.1-7.1,219.2C416,708.2,387,699,357.7,691.8
		c20-56.9,31.9-116.7,35.6-176.9c-11.6-4.4-21.8-12.7-27.8-23.5c-4.2,4.7-9.8,8.1-15.9,9.8c-5.5,1.5-11.3,1.7-16.8,0.3
		c-11.7-3-21.3-14.1-24-25.9c-9.6,11.3-27.8,12.6-40.6,4.9c-12.7-7.7-19.9-22.4-21.5-37.1c-0.1-0.5-0.1-1-0.1-1.5
		c-1.4-0.4-2.8-0.8-4.2-1.4c-9.5-3.7-17.5-11.8-23.9-19.8c-16.5,5.9-36.3,2.8-49.2-9s-17.8-32.1-10.5-47.9
		C166.4,348.1,186.2,338.1,202.8,343.7L202.8,343.7z"/>
</g>
<g>
	<path class="st2" d="M248,425.9c2.3,18.1-7.5,36.9-22.8,44.6c-0.7,0.3-1.3,0.6-2,0.9c-3.3,1.4-6.9,2.3-10.3,1.2
		c-3.4-1.1-7-4.8-6.4-8.6c-2.9,7.3-9.3,12.7-16.5,14c-6,1.1-12.1-1-16.7-5c-0.9-0.8-1.8-1.7-2.7-2.7c-5.6,15.2-19.3,26.5-34.4,28.5
		c-2.5,0.3-4.9,0.4-7.4,0.2c-12.4-1.1-24-8.6-31.3-19.8c-1.1,6.8-5.3,13-11,16.2c-1.1,0.6-2.2,1.1-3.3,1.5
		c-7.4,2.4-15.9-1.3-21.1-7.4c-2.7,3.9-6.7,6.8-11.1,7.9c-3,0.8-6.3,0.8-9.3-0.1c-7.4-2.2-12.2-10.5-12.8-18.7
		c-7.1,2.1-14.9-0.6-20.4-5.9c-0.7-0.7-1.4-1.4-2-2.1C1,463.8-1.6,454.7-2,445.7s1.1-17.9,2.9-26.7c1.5-7.7,3.3-15.4,7.1-21.9
		c3.9-6.6,10.3-11.9,17.5-12.1c-2.2-31.3-9.8-79.4,12.3-99.7c0.3-0.3,0.5-0.5,0.8-0.8c23.1-19.9,82.5-19.2,111.7-14.6
		c25.5,4,49.5,17.1,68.6,35.7c2.8,2.7,5.5,5.5,8,8.4c3.8,4.3,7.4,8.9,10.7,13.7c5.8,8.4,10.7,17.5,14.2,27.2
		c1.4,3.8,2.5,7.7,3.4,11.6C259.9,386.4,258.3,408.7,248,425.9z"/>
	<g>
		<path class="st3" d="M248,425.9c2.3,18.1-7.5,36.9-22.8,44.6c-0.2-0.2-0.4-0.3-0.6-0.5c-10.2-8.8-13.6-25.3-8.2-38.2
			c-8,1.1-16.9-0.8-22.3-7.4c-4.5-5.5-5.9-13.2-5.3-20.4c0.6-7.2,2.8-14.2,5.2-20.9c-6.7,1.4-14.9-5.2-14.9-12.4
			c-8.2,32.9-10.8,68.5-5.9,102.4c-0.9-0.8-1.8-1.7-2.7-2.7c-5.6,15.2-19.3,26.5-34.4,28.5c-2.5,0.3-4.9,0.4-7.4,0.2
			c-4.4-29.5-3.7-59.5,1.2-89c-8.1,4.7-17.8,6.2-26.9,4.1c-9-2.1-17.2-7.3-22.8-15.2c-2,6.5-8,11.1-14.5,10.8
			c1.7,7.1,3.1,14.6,1.7,21.8c-1.4,7.2-6.4,14.5-13.2,15.9c5.8,18.9,17.2,36.5,32.3,48c-1.1,0.6-2.2,1.1-3.3,1.5
			c-7.4,2.4-15.9-1.3-21.1-7.4c-2.7,3.9-6.7,6.8-11.1,7.9c-9.1-10.9-15.4-24.4-18.1-38.9c-6.1,7.8-15.2,12.9-24.6,14.1
			c-0.7-0.7-1.4-1.4-2-2.1c-5.5-6.7-8.1-15.8-8.6-24.7s1.1-17.9,2.9-26.7c1.5-7.7,3.3-15.4,7.1-21.9c3.9-6.6,10.3-11.9,17.5-12.1
			c-2.2-31.3-9.8-79.4,12.3-99.7c60.8,2.2,121.4,9,181.3,20.4c2.7,0.5,5.5,1,8.2,1.6c3.5,6.8,7.1,13.7,10.5,20.5
			c4.7,9.1,9.4,18.2,14.2,27.2c1.4,3.8,2.5,7.7,3.4,11.6C259.9,386.4,258.3,408.7,248,425.9z"/>
	</g>
	<path class="st4" d="M253.4,687c-28.4-49.8-55.7-100.8-73.2-156.1c-8.6-27.2-14.7-55.8-17.2-84.6c31.2-13.1,58.2-48.8,61.7-84.4
		c-1.9-0.2-4-0.3-5.9-0.5c-5.1,31.1-28.5,57.2-56.8,64.9c-0.5-23.1,1.3-46,6.4-68.3c-7.1-0.8-14.3-1.5-21.4-2.4
		c-10.6,54.7-12.6,112.8-7.4,170.3c-27.2-3-81.5-26.5-94.2-86.5c-2,0-4.6-0.8-6.6-0.8c10.5,55,53.4,96.8,103.5,112.3
		c6.4,51.1,18.4,101.3,35,147.9C203.2,697.1,228,693.9,253.4,687L253.4,687z"/>
	<path class="st2" d="M313.1,310.2c-0.5,8-8.2,14.4-15.5,12.9c5.1,4.9,6.2,14.2,3.7,21.1c-2.5,6.8-9.2,11.7-16,11.5
		c13.7,15.6,25.9,34.6,25.6,56.1c-0.4,21.5-15.2,43.5-35.1,44.9c-14.3,1-27.5-8.2-37.9-18.9c-25-25.8-40-62.6-40.5-100
		c-2,4.5-7.1,7.8-11.8,7.9c-4.6,0.2-9.2-2.7-11.4-7c2.6,7.2,1.4,15.9-2.4,22.3c-3.9,6.4-11.5,10.4-18.4,8.5
		c-6.9-1.9-12.1-10-10.5-17.4c-3.4,11-9,22.9-16.5,31.3c-7.4,8.3-19.9,12.6-29.2,6.7c-5.8-3.7-9.2-10.5-11.6-17.4
		c-5.9-16.7-7.5-35.1-4.6-52.7c-16.5,6.3-36.3,2.3-49.2-10.4c13,13.7,22.9,30.9,28.6,49.7c2.4,7.7,4,15.9,2.4,23.8
		c-1.7,7.9-9.1,19.5-16.5,20.5c7.4,4.6,11.6,14.4,10.1,23.5c-1.5,9-8.7,16.7-17.1,18.1c-8.4,1.4-17.4-3.3-21.5-11.4
		c-7,15.5-19.3,29.1-34.4,35c-15.1,5.8-32.8,3.9-46-6c-9.6-7.2-16.2-18.7-18.2-30.9c-0.8-4.7-0.8-9.5-0.2-14.2
		c2.6-17.1,16-31.9,31.9-33.9c-9.4-5.2-14.6-16.2-14.7-27.5c-0.2-11.4,6-22.6,15.3-28.1c9.3-5.4,21.4-4.8,30.1,1.6
		c-2.4-4.1-2.5-9.2-0.1-13.3c2.4-4.1,7.1-6.4,11.4-5.8C-21,295-34.8,279-41.5,258.4s-7.8-43.6-0.6-64c7.2-20.3,23.2-37.5,42.9-42.4
		c19.6-5,42.2,3.7,52.7,22.3c-2.7-14,7.8-30.9,20.5-35.2s27.7,3.4,32.7,16.5c4.5-10.6,17.4-19,28.3-18.6c10.8,0.4,21,7.5,26.6,17.5
		c5.5,10,6.7,22.6,3.8,33.8c3.6-6.2,13.6-7,19.2-2.7c5.6,4.2,8,12.1,8,19.5c-0.1,7.4-2.4,14.5-4.7,21.5c4.4-3.8,11.8-1.7,16,2.4
		c4.2,4.1,6.3,10.1,7.8,16c5.7-15.8,10.8-31.6,20.6-44.7c9.9-13.1,24.5-23.2,40.1-22.6c6.3,0.2,12.3,2.2,17.7,5.5
		c13.4,8.3,23.2,24.6,25.6,41.5c3.4,23.7-4.6,47.7-15.2,68.7C308.1,292.7,313.6,302.3,313.1,310.2z"/>
	<g>
		<path class="st3" d="M313.1,310.2c-0.5,8-8.2,14.4-15.5,12.9c5.1,4.9,6.2,14.2,3.7,21.1c-2.5,6.8-9.2,11.7-16,11.5
			c13.7,15.6,25.9,34.6,25.6,56.1c-0.4,21.5-15.2,43.5-35.1,44.9c-14.3,1-27.5-8.2-37.9-18.9c-25-25.8-40-62.6-40.5-100
			c-2,4.5-7.1,7.8-11.8,7.9c-4.6,0.2-9.2-2.7-11.4-7c2.6,7.2,1.4,15.9-2.4,22.3c-3.9,6.4-11.5,10.4-18.4,8.5
			c-6.9-1.9-12.1-10-10.5-17.4c-3.4,11-9,22.9-16.5,31.3c-7.4,8.3-19.9,12.6-29.2,6.7c-5.8-3.7-9.2-10.5-11.6-17.4
			c-5.9-16.7-7.5-35.1-4.6-52.7c-16.5,6.3-36.3,2.3-49.2-10.4c13,13.7,22.9,30.9,28.6,49.7c2.4,7.7,4,15.9,2.4,23.8
			c-1.7,7.9-9.1,19.5-16.5,20.5c7.4,4.6,11.6,14.4,10.1,23.5c-1.5,9-8.7,16.7-17.1,18.1c-8.4,1.4-17.4-3.3-21.5-11.4
			c-7,15.5-19.3,29.1-34.4,35c-15.1,5.8-32.8,3.9-46-6c-9.6-7.2-16.2-18.7-18.2-30.9c1.2,2.4,2.7,4.7,4.6,6.5
			c6.4,6.4,15.5,8.8,24.1,8.6c7.4-0.2,14.8-2.1,21-6.4c6.2-4.2,11.1-10.9,12.9-18.7c-7.6-2.1-13-11-11.8-19.4
			c7,1.1,13,6.5,15.1,13.9c0.1-8.3,3.3-16.5,9-22.1c1.3,7,0.7,13.7-1.5,20.5c2.6,3.1,7.5,3.6,11.1,1.9s5.9-5.6,6.6-9.7
			c0.7-4.1-0.2-8.4-2-12.1c4.9,1.9,10.9,0.8,14.6-3.2c3.7-3.9,5.2-10.2,3.6-15.6c-1.5-5-5.6-9-10.4-10.2c5.2,0.5,10.6-3.3,12.9-8.4
			c-4.2-2-9.6-1.1-12.9,2.4c5.1-5.9,6.1-15.5,6-23.6c-0.5-19.3-8-38.4-20.6-52.2c7.4,5.6,15.2,10.4,23.4,14.7c8.1,4.3,17,7.2,26,7.1
			c9-0.2,18.2-3.6,24.5-10.5c-4.2-1.8-7.2-7.6-6.1-12.3c3,2.4,5.5,5.5,7.3,9c0.4-5,2.2-9.6,5.2-13.3c0.7,4.7,0,9.5-1.8,13.8
			c6.1-3.3,11.6-7.9,15.2-14.1c-1.9,7-3.6,15.2-3.6,22.5c0.1,7.3,2.3,14.9,7.2,19.8c4.5,4.6,11.1,6.5,17.1,5.2
			c6-1.4,11.3-6.1,13.7-12.1c0.4,4.3,3.7,8.4,7.6,9.7c0.8-3.9-1-8.3-4.2-10.3c2.7,1.2,5.8,0.8,8.4-0.5c-2-1.4-4.6-2.4-7-2.2
			c4.6-4.6,7-11.4,6.7-18.1c0.2,3.9,2.3,7.3,4.9,9.9c2.7,2.7,6.1,4.2,9.6,4.9c2.1,0.3,4.3,0.3,6.4-0.4c2-0.7,3.9-2.2,4.9-4.2
			c-2.7-1.2-5.1-3.6-6-6.7s-0.5-6.5,1.1-9.3c3.3,4,5.5,8.8,6.3,14c1.1-4.9,3.4-9.3,6.9-12.5c0.6,4.4-0.8,9-3.6,12.2
			c5.3-3.8,9.3-9.6,11.1-16.2c-0.2,4.3,1.4,8.5,4.2,11.7c2.7,3.2,6.6,5.2,10.6,5.3c-3.4,0.9-6.3,3.3-7.4,7c3.4-0.5,6.8-2.2,9.3-4.8
			c-0.7,2-0.9,4.2-0.5,6.4c1.4-1.4,2.9-2.7,4.2-3.9c-1.8,14.3,1.1,29.1,7.3,41.9c3.1,6.4,7.4,12.4,13,16.5
			c5.7,3.9,12.9,5.6,19.3,3.3c6.4-2.4,11.5-9.2,11.1-16.5c-3.4,0.5-7.5-1-9.8-3.9c3-1.9,6.8-2,9.9-0.4c-2.3-2.5-3.6-5.9-3.6-9.4
			c3,1.4,5.5,4,6.4,7.5c3.2,1.2,6.8,2.1,10.2,2.3c3.4,0.2,7.1-1,9.3-3.7c1.6-2,2.3-4.6,2.4-7.2c0.2-6.1-3.6-12.2-9-14.4
			c5.2-0.8,10.8-2.2,14.1-6.6c2.9-3.9,3.1-9.6,1.4-14.3c-1.7-4.6-4.9-8.4-8.4-11.8c10-4.3,16.1-15.9,20.5-26.6
			c4.6-11.4,7.7-23.6,7.8-36s-2.7-25-8.9-35.3c-1.7-2.8-3.6-5.5-5.8-7.9c13.4,8.3,23.2,24.6,25.6,41.5c3.4,23.7-4.6,47.7-15.2,68.7
			C308.1,292.7,313.6,302.3,313.1,310.2z"/>
	</g>
	<g>
		<path class="st3" d="M264.9,252.1c-2.9-4.5-4-10.2-3.1-15.5c3.2,2.8,5.3,7.1,5.5,11.5c0.2-2.8,1.4-5.2,3.1-7.3
			c1.7-2.1,3.7-3.9,5.7-5.6c-0.1,5.5-2.5,10.9-6.4,14.6c3.4-1.6,7.3-1.7,10.8-0.3C276.4,253.3,270.1,253.6,264.9,252.1L264.9,252.1z
			"/>
	</g>
	<g>
		<path class="st3" d="M254.5,220.2c-1.2-3.9-0.9-8.3,0.8-12.1c1.7-3.7,4.8-6.7,8.3-8.1C262.9,207.5,258.1,213.9,254.5,220.2z"/>
	</g>
	<path class="st2" d="M696.1,297.5c-4.2,12.8-14.9,21.6-27.2,23.5c8.6,6.4,13.4,18.2,12.1,29.4c-1.4,11.1-8.9,22.9-18.7,26.5
		c0.8,12-3.8,24.3-12.2,32.2c-8.4,7.9-20.3,11.3-31.3,8.7c-4.2-1-8.2-2.8-11.2-5.9c-3-3.2-4.6-7.7-3.9-12.2
		c-6.8,10.5-19.5,16.2-31.2,14h-0.1c-11.7-2.2-22.8-15.2-25.9-27.5c-1.3,17.1-13.7,32.5-29.2,36.3c-5.6,1.4-11.5,1.3-17.3-0.1
		c-10.2-2.4-19.6-9-24.7-18.4c3.6,10.3,0.1,22.8-7.7,29.8c-1.8,1.6-3.8,3-6,3.9c-11.7,5.1-25.7-1.5-30.6-14
		c-0.7,0.5-1.4,1.1-2.1,1.5c-11.5,7.7-28,5-37.9-5.2c-5.8-6.1-9.6-14.1-11-22.7c-1.2-6.9-1.1-14.1,0.5-20.9
		c3.4-15.3,12.9-28.4,24.5-38c8.5-56.6,56.5-112,106.3-131.8s100.8,8.8,151,27.4c11.9,4.4,22.7,12.8,29.3,24.3
		c1.5,2.7,2.8,5.5,3.8,8.3C698.8,276.6,699.3,287.6,696.1,297.5z"/>
	<g>
		<path class="st3" d="M695.3,266.9c-8.3,15.5-22.8,27.2-39.1,30.6c-22.1,4.6-44.7-7.4-57.3-27.6c-6.4,7.5-19,7.4-25.6,0
			c-0.7,8.1-4.8,15.7-10.9,20.4c-6.1,4.7-14.7,6.6-22,4.6c18.7,36.5,29.4,77.4,31.9,119c-11.7-2.2-22.8-15.2-25.9-27.5
			c-1.3,17.1-13.7,32.5-29.2,36.3c-5.6,1.4-11.5,1.3-17.3-0.1c-0.5-38.7-1.6-77.4-2-116.1c-7.1,0.9-14.2-2.4-19.1-8.1
			c2.2,10.7,3.6,21.7,2.3,32.5c-1.3,10.8-5.5,21.6-12.9,29c-7.4,7.4-18.8,11.8-28.5,8.5c5.1,23.5,14.4,46.2,27.8,65.5
			c-1.8,1.6-3.8,3-6,3.9c-11.7,5.1-25.7-1.5-30.6-14c-0.7,0.5-1.4,1.1-2.1,1.5c-5.7-11.8-10.2-24.3-13.5-37.3
			c-7.2,7.2-17.1,11.1-26.9,10.8c-2.9-0.1-5.8-0.6-8.6-1.4c-1.2-6.9-1.1-14.1,0.5-20.9c3.4-15.3,12.9-28.4,24.5-38
			c8.5-56.6,56.5-112,106.3-131.8s100.8,8.8,151,27.4c11.9,4.4,22.7,12.8,29.3,24.3C693,261.1,694.3,263.9,695.3,266.9z"/>
	</g>
	<path class="st4" d="M523.2,260.9c-8,2.4-15.9,4.9-23.9,7.4c15.6,74.2,18.7,151.3,10.7,227.1c-41.9-41.6-70.9-97.9-81.6-158.4
		c-3.8-0.6-7.8,0.2-11.2,2c11.6,72.1,41.8,142.9,87.3,197.4c-10.5,64.9-29.2,128.3-55.6,187.4c36.7,3.3,72.2,5,108.9,8.3
		C587.3,579.4,573.2,407.3,523.2,260.9L523.2,260.9z"/>
	<path class="st2" d="M670.4,247c-7.1,12.1-21.8,17.7-35,15.7s-25-10.3-34.4-20.6c-7.7,6.7-17.2,8.4-26.5,4.8
		c-9.3-3.6-16.5-12.8-18.3-23.3c-0.3,5.5-3.8,10.7-8.4,12.9s-10.4,1.4-14.3-2c4.3,5.5,7.2,12.6,7.4,19.8c0.2,7.2-3,14.7-9,18.1
		c-5.9,3.4-14.3,1.5-17.5-4.8c-7.1,5.5-17.5,6.3-24.1,0.1c-6.5-6.2-10-13.4-5.9-21.6c-7.4,13.6-24.9,19.5-38.2,12.9
		c8.6,13.5,13.5,29.1,15.2,45.4c1.1,10.1,0.6,20.4-2.7,29.9c-3.3,9.4-9.7,17.9-18.3,21.9c-8.6,4-19.4,2.9-26.3-3.9
		c-1.4,7.3-6.6,14.6-12.8,17.8c-6.1,3.3-13.4,3.9-20.2,2.8c-11.5-2-22.2-9-29.1-19.2c-6.8-10.2-9.7-23.4-7.8-35.8
		c-9.3,3.1-20.5,0.2-28.6-5.5s-14.1-14.5-18.1-24c-3.3-7.9-5.3-16.6-5.6-25.3c-0.2-5.6,0.4-11.1,1.7-16.5
		c3.5-13.8,12.7-26.1,25.1-31.1c12.4-5.1,27.6-2,36.6,8.5c-6.1-7.9-5.5-21.4-0.8-30.3c-16.4-18.8-29.3-41-32.8-66.5
		c-3.5-25.6,2.4-53,18.3-72.4c15.9-19.3,41.9-29.2,64.9-22c-5.1-15.3-1.5-34.2,7.8-47c9.3-12.8,24.9-19.9,39.8-18.4
		c14.9,1.7,28.9,12,35.6,26.5c0.8-14.6,16.7-26.4,30.1-25.6c13.5,0.8,25.3,11.8,30.3,25.3c5,13.5,3.9,29-0.4,42.8
		c8.9-9.1,23.7-12.1,34.4-5.8c10.7,6.3,16.9,20.6,14.5,33.5c8.5-7.4,23-6.8,31.7,0.3c8.8,7.1,12.3,20.7,8.3,31.6
		c7.6,0.5,15,2.9,21.7,6.8c13.9,8.1,24.8,22.6,28.8,39c6,24.3-4,52.3-23.7,65.9C675.6,214.8,677.5,234.9,670.4,247z"/>
	<g>
		<path class="st5" d="M397.9,320.2c-0.2-1.3-0.1-2.6,0.1-3.8C398,317.6,398,318.9,397.9,320.2z"/>
	</g>
	<g>
		<path class="st3" d="M670.4,247c-7.1,12.1-21.8,17.7-35,15.7s-25-10.3-34.4-20.6c-7.7,6.7-17.2,8.4-26.5,4.8
			c-9.3-3.6-16.5-12.8-18.3-23.3c-0.3,5.5-3.8,10.7-8.4,12.9s-10.4,1.4-14.3-2c4.3,5.5,7.2,12.6,7.4,19.8c0.2,7.2-3,14.7-9,18.1
			c-5.9,3.4-14.3,1.5-17.5-4.8c-7.1,5.5-17.5,6.3-24.1,0.1c-6.5-6.2-10-13.4-5.9-21.6c-7.4,13.7-24.9,19.5-38.2,12.9
			c8.6,13.5,13.5,29.1,15.2,45.4c1.1,10.1,0.6,20.4-2.7,29.9c-3.3,9.4-9.7,17.9-18.3,21.9c-8.6,4-19.4,2.9-26.3-3.9
			c-1.4,7.3-6.6,14.6-12.8,17.8c-6.1,3.3-13.4,3.9-20.2,2.8c-11.5-2-22.2-9-29.1-19.2c-6.8-10.2-9.7-23.4-7.8-35.8
			c-9.3,3.1-20.5,0.2-28.6-5.5s-14.1-14.5-18.1-24c-3.3-7.9-5.3-16.6-5.6-25.3c3.1,6.6,7.5,12.5,12.9,17.2
			c10.8,9.3,25.3,13.4,38.8,10.9c-5-8-1.3-19.9,6.8-24.3c1.5,6.8,1.3,15.9,0.7,22.8c4.7-9.3,13-16.3,22.5-18.7
			c-1.4,9.9-8.3,18.7-17.3,21.2c-1.5,7.3-1.7,15.5,0.2,22.7c1.8,7.2,5.9,13.8,11.8,17.7c5.8,3.9,13.5,4.9,19.8,1.7
			c5.2-2.7,9-8.2,9.8-14.3c0.5,4.9,2.7,9.6,6.2,12.7c1.7-5.2,1.6-11-0.3-16c5.1,4.6,12.9,1.5,16.8-4.2c3.9-5.8,4.2-13.4,3.2-20.5
			c-2.3-17.1-11.3-33.2-24.3-43.4c6.7,1.2,12.3,1.4,19,1.1c6.8-0.2,13.6-2,19-6.3c5.5-4.3,9.3-11.4,8.8-18.6
			c-6.3-3.3-9.3-11.6-7.4-19c5.5,2.4,9.8,7.2,11.7,13.3c1.2-6.6,4.5-12.3,9.1-16.8c2.7,6.2,1.4,14.1-2.8,19.1
			c5.2,5,12.2,8.1,19.2,7.4c7-0.8,13.6-4.9,17.7-11c-0.5,5.7,2.5,11.1,7.4,13.1c4.9,2,10.8,0.8,15-2.5c4.2-3.3,7.1-8.6,8.4-14
			c1.3-5.5,1.2-11.4,0.4-17c2.5,1.8,5.4,2.7,8.4,2.7c11.9,0.1,23.7-5.5,31.7-14.9c-5,6.1-5.2,16.2-0.4,22.5c3-6.8,5.3-14.3,5.9-21.8
			c1,6.4,5.7,12.1,11.5,13.9c0.4-5.8-1.6-11.8-5.3-16.1c4.9-3.4,9-8.2,11.6-13.7c1.7,8,3.4,16,6.7,23.4s8.2,14.3,14.9,18.1
			c6.8,3.8,15.4,4.1,21.7-0.5c6.3-4.6,9-14.6,5.1-21.6c-5.8,0.8-11.5-4.4-13.4-10.5c4.4-1.1,9.6-0.2,13,3c12.1-0.5,23.4-8.7,29.5-20
			c6.1-11.3,7.1-25.4,3.7-38c-2.1-7.7-5.8-14.9-10.5-21.2c13.9,8.1,24.8,22.6,28.8,39c6,24.3-4,52.3-23.7,65.9
			C675.6,214.8,677.5,234.9,670.4,247z"/>
	</g>
	<g>
		<path class="st3" d="M408.3,104.6c-2.7,3.7-6.8,6.1-11.1,6.6c-4.3,0.5-8.8-1.1-12.1-4.1c5.3-3.9,12.1-5.4,18.5-5
			c-5.3-2.1-9.2-7.8-9.5-13.9C400.1,91.3,405.1,98.2,408.3,104.6L408.3,104.6z"/>
	</g>
	<g>
		<path class="st3" d="M398,198.7c-1.9,2.6-4.8,4.3-7.9,4.6c-3,0.3-6.2-0.8-8.6-3c3.7-2.8,8.6-3.8,13-3.5c-3.8-1.5-6.4-5.5-6.7-9.9
			C392.2,189.3,395.7,194.2,398,198.7L398,198.7z"/>
	</g>
	<g>
		<path class="st3" d="M422.1,70.1c-5.8,0.8-11.9-1.2-16.4-5.2c4.5-1.9,9.6-1.9,14,0.3c-2.5-1.7-4.1-4.5-5.2-7.5
			c-1.1-3-1.6-6.2-2.1-9.4c5.2,3.2,9,8.9,10.2,15.2c0.4-4.6,2.4-9,5.7-12.1C429.7,58.1,426.5,65.3,422.1,70.1L422.1,70.1z"/>
	</g>
	<g>
		<path class="st3" d="M616.5,136.4c-2.9-4.5-4-10.2-3.1-15.5c3.2,2.8,5.3,7.1,5.5,11.5c0.2-2.7,1.4-5.2,3.1-7.3
			c1.7-2.1,3.6-3.9,5.7-5.6c-0.1,5.5-2.5,10.9-6.4,14.6c3.4-1.6,7.3-1.7,10.8-0.3C628,137.6,621.7,137.9,616.5,136.4L616.5,136.4z"
			/>
	</g>
	<g>
		<path class="st3" d="M496.3,48.4c-2.6-3-4-7.2-3.9-11.4c0.1-4.1,1.7-8.2,4.5-11.1C499,33,497.1,41.1,496.3,48.4L496.3,48.4z"/>
	</g>
	<g>
		<path class="st3" d="M587.1,100.1c-1.2-3.9-0.9-8.3,0.8-12.1c1.7-3.7,4.8-6.7,8.3-8.1C595.5,87.2,590.7,93.7,587.1,100.1z"/>
	</g>
</g>
<g>
	<g>
		<g>
			<path class="st6" d="M365.2,541c-4.5,9.3-13.7,18-21.8,24.3c-4-0.1-8-0.2-12.1-0.2c-36-0.2-72.1,2-107.9,6.4
				c-2.3,0.3-4.5,0.5-6.8,0.8c-8.3-6.5-18.8-11.7-28.7-15.3c-5.3-1.9-10.8-3.4-15.5-6.6c-4.6-3.2-8.3-8.6-7.6-14.2
				c0.7-5.2,5.1-9.4,10.1-11.1c5-1.7,10.5-1.3,15.6-0.3c14.9,2.8,28.8,10.2,39.7,20.8c-8.9-9.1-17.2-18.7-26.2-27.8
				c-3-3.1-6.1-6.2-8.2-10.1c-2-3.9-2.8-8.6-1.1-12.6c2.4-5.5,9-8.1,15.1-8.3c12.1-0.5,23.7,5.9,32.2,14.6
				c8.5,8.7,14.3,19.6,20.1,30.3c-1.7-8.6-0.1-17.8,4.9-25.1c1.9-2.8,4.6-5.5,8-5.9c4-0.5,7.7,2.4,10.3,5.5
				c5.4,6.5,8.3,15.2,7.7,23.7c2-16.1,9.7-31.3,21.1-42.9c2.7-2.7,5.6-5.2,9.2-6.8c3.5-1.4,7.7-1.7,11.1,0.1c5.2,2.7,7,9.3,7.6,15
				c1.7,14.3-0.5,29.1-6.3,42.4c5.6-6.1,13.4-9.9,21.6-11c2.5-0.4,5.3-0.4,7.3,1.1C368.4,531,367.2,536.8,365.2,541z"/>
			<g>
				<path class="st3" d="M346.7,545.8c-0.4,1.4-1.4,2.6-2.3,3.7c-4.3,5.2-8.6,10.5-13,15.8c-36-0.2-72.1,2-107.9,6.4
					c-5.1-5.2-10.1-10.5-15.2-15.8c-1.8-1.9-3.7-4.4-2.7-6.8c0.9-2.3,3.9-2.8,6.4-2.8c10.5,0.2,20.8,4,28.7,10.8
					c-4.9-11.1-8.6-22.5-13.7-33.7c-0.7-1.5-1.4-3.2-1-4.9c0.5-2.4,3.1-3.7,5.5-3.6c2.4,0.1,4.6,1.4,6.5,2.6
					c12.2,7.9,22.2,19.2,28.5,32.3c1-4.9,3-9.3,3.9-14.1c0.5-2.3,1.1-4.7,3-6.1c1.6-1.1,3.7-1.2,5.5-0.5c1.8,0.7,3.3,2,4.6,3.4
					c4.4,4.9,6.8,11.5,6.6,18.1c3.2-10.4,8.3-20.3,14.4-29.3c1.5-2.3,3.2-4.5,5.4-6.1s5.1-2.4,7.7-1.7c3.4,1,5.5,4.3,6.9,7.6
					c4,9.3,4.6,20.1,1.5,29.8c4.1-4.2,9.1-7.1,14.6-9.2c1.5-0.6,3.3-1.1,4.7-0.1C346.8,542.7,347.1,544.4,346.7,545.8z"/>
			</g>
		</g>
		<g>
			<path class="st6" d="M921.7,546.7c-5.5,8.6-15.6,15.9-24.3,21.2c-3.9-0.6-7.9-1.1-11.8-1.7c-35.3-4.7-70.9-7.1-106.5-7.2
				c-2.2,0-4.5,0-6.7,0c-7.4-7.4-17-13.8-26.2-18.7c-4.9-2.5-10.2-4.7-14.3-8.4s-7.1-9.5-5.6-14.9c1.3-5.1,6.1-8.6,11.3-9.6
				c5.1-1.1,10.4,0.1,15.3,1.7c14.3,4.6,27,13.6,36.3,25.3c-7.5-10-14.6-20.5-22.1-30.5c-2.6-3.4-5.2-6.9-6.8-10.9
				c-1.5-4-1.7-8.8,0.5-12.5c3.1-5.2,9.9-6.8,15.8-6.3c11.9,1,22.5,8.7,29.7,18.4s11.6,21,15.9,32.2c-0.7-8.7,2.1-17.5,7.9-24
				c2.3-2.5,5.2-4.8,8.5-4.8c4,0,7.3,3.3,9.4,6.7c4.5,7.1,6.1,15.9,4.6,24.2c3.9-15.5,13.4-29.5,25.9-39.4c3-2.4,6.2-4.5,9.9-5.5
				c3.6-1,7.7-0.8,10.8,1.4c4.7,3.3,5.7,9.9,5.6,15.7c-0.2,14.3-4.2,28.5-11.5,40.7c6.3-5.2,14.4-8,22.5-8c2.5-0.1,5.2,0.3,7,2
				C926.1,537.3,924.2,542.9,921.7,546.7L921.7,546.7z"/>
			<g>
				<path class="st3" d="M902.9,549c-0.6,1.4-1.7,2.4-2.7,3.3c-4.9,4.6-9.8,9.2-14.7,13.8c-35.3-4.7-70.9-7.1-106.5-7.2
					c-4.3-5.8-8.6-11.6-12.9-17.4c-1.5-2-3.1-4.8-1.8-7c1.2-2.1,4.2-2.3,6.6-1.9c10.2,1.4,19.9,6.6,26.8,14.3
					c-3.5-11.5-5.7-23.2-9.2-34.7c-0.5-1.6-0.9-3.3-0.4-4.9c0.8-2.2,3.5-3.3,5.8-2.8c2.3,0.4,4.2,1.9,6.1,3.4
					c11,9.3,19.4,21.6,24,35.3c1.6-4.6,4-8.7,5.6-13.3c0.8-2.2,1.7-4.5,3.6-5.6c1.7-0.9,3.8-0.8,5.5,0.2c1.7,0.9,3,2.4,4.1,3.9
					c3.7,5.3,5.2,12.1,4.2,18.5c4.4-9.8,10.6-18.9,17.7-26.9c1.7-2,3.7-4,6.1-5.3c2.4-1.3,5.3-1.7,7.7-0.7c3.2,1.4,4.9,4.9,5.8,8.3
					c2.8,9.6,2,20.3-2.2,29.4c4.6-3.6,9.8-5.8,15.4-7.2c1.6-0.4,3.4-0.6,4.6,0.5C903.3,546,903.4,547.7,902.9,549L902.9,549z"/>
			</g>
		</g>
		<g>
			<path class="st6" d="M1478.3,584c-5.5,8.6-15.6,15.9-24.3,21.2c-3.9-0.6-7.9-1.1-11.8-1.7c-35.3-4.7-70.9-7.1-106.5-7.2
				c-2.2,0-4.5,0-6.7,0c-7.4-7.4-17-13.8-26.2-18.7c-4.9-2.5-10.2-4.7-14.3-8.4c-4.2-3.7-7.1-9.5-5.6-14.9c1.3-5.1,6.1-8.6,11.3-9.6
				c5.1-1.1,10.4,0.1,15.3,1.7c14.3,4.6,27,13.6,36.3,25.3c-7.5-10-14.6-20.5-22.1-30.5c-2.6-3.4-5.2-6.9-6.8-10.9
				s-1.7-8.8,0.5-12.5c3.1-5.2,9.9-6.8,15.8-6.3c11.9,1,22.5,8.7,29.7,18.4c7.2,9.6,11.6,21,15.9,32.2c-0.7-8.7,2.1-17.5,7.9-24
				c2.3-2.5,5.2-4.8,8.5-4.8c4,0,7.3,3.3,9.4,6.7c4.5,7.1,6.1,15.9,4.6,24.2c3.9-15.5,13.4-29.5,25.9-39.4c3-2.4,6.2-4.5,9.9-5.5
				c3.6-1,7.7-0.8,10.8,1.4c4.7,3.3,5.7,9.9,5.6,15.7c-0.2,14.3-4.2,28.5-11.5,40.7c6.3-5.2,14.4-8,22.5-8c2.5-0.1,5.2,0.3,7,2
				C1482.7,574.5,1480.8,580.1,1478.3,584L1478.3,584z"/>
			<g>
				<path class="st3" d="M1459.6,586.3c-0.6,1.4-1.7,2.4-2.7,3.3c-4.9,4.6-9.8,9.2-14.7,13.8c-35.3-4.7-70.9-7.1-106.5-7.2
					c-4.3-5.8-8.6-11.6-12.9-17.4c-1.5-2-3.1-4.8-1.8-7c1.2-2.1,4.2-2.3,6.6-1.9c10.2,1.4,19.9,6.6,26.8,14.3
					c-3.5-11.5-5.7-23.2-9.2-34.7c-0.5-1.6-0.9-3.3-0.4-4.9c0.8-2.2,3.5-3.3,5.8-2.8c2.3,0.4,4.2,1.9,6.1,3.4
					c11,9.3,19.4,21.6,24,35.3c1.6-4.6,4-8.7,5.6-13.3c0.8-2.2,1.7-4.5,3.6-5.6c1.7-0.9,3.8-0.8,5.5,0.2c1.7,0.9,3,2.4,4.1,3.9
					c3.7,5.3,5.2,12.1,4.2,18.5c4.4-9.8,10.6-18.9,17.7-26.9c1.7-2,3.7-4,6.1-5.3c2.4-1.3,5.3-1.7,7.7-0.7c3.2,1.4,4.9,4.9,5.8,8.3
					c2.8,9.6,2,20.3-2.2,29.4c4.6-3.6,9.8-5.8,15.4-7.2c1.6-0.4,3.4-0.6,4.6,0.5C1460.1,583.3,1460.1,585,1459.6,586.3L1459.6,586.3
					z"/>
			</g>
		</g>
		<g>
			<path class="st6" d="M496.5,529.9c-0.1,3.4-1.8,6.7-3.8,9.5c-3.9,5.8-10.9,9.7-16.4,14c-2.4,0-4.8,0.1-7.1,0.2
				c-7.4,0.3-14.8,0.9-22.1,1.8c-2.2,0.3-4.4,0.6-6.7,0.9c-9.3-3.4-18.9-7.4-28.1-10.8c-1.7-0.6-3.3-1.2-4.7-2.3
				c-1.4-1.1-2.5-2.7-2.4-4.5c0-3.1,3.3-5.2,6.2-6.1c8.6-2.8,18.6-1.1,25.8,4.6c-7.1-5.6-12.7-12.4-17.5-20.1
				c-1.7-2.7-3.3-5.6-3.9-8.8c-0.6-3.2-0.1-6.7,2-9.1c3.7-4.3,10.7-3.8,15.8-1.3c10.4,5,16.8,15.6,22.5,25.6
				c-0.4-10.8,0.2-22.4,6-31.6c2.6-4,6.7-7.7,11.4-7.3c3,0.3,5.7,2.2,7.4,4.7c1.7,2.5,2.6,5.5,3.3,8.4c2.2,10.5,1.3,21.5-2.7,31.5
				c1.1-1.8,2.3-3.6,3.9-5s3.7-2.2,5.8-1.9C494.3,522.8,496.5,526.5,496.5,529.9z"/>
			<g>
				<path class="st5" d="M485.1,537.4c-0.1,1.3-1.1,2.3-2,3.1l-14,13c-7.4,0.3-14.8,0.9-22.1,1.8c-7.1-3.3-14.1-6.5-21.1-9.8
					c-1.4-0.7-3-1.7-3-3.2c0-0.9,0.7-1.7,1.5-2.1c0.8-0.5,1.7-0.5,2.7-0.6c7.4-0.5,14.9,1.8,20.9,6.2c-5-7.7-9.6-15.4-14.6-23
					c-1.1-1.7-2.4-3.9-1.4-5.8c0.7-1.4,2.3-2.1,3.9-2.3c3.3-0.2,6.4,1.7,9,3.7c7.2,5.5,13.3,12.4,18,20.3c0.4-8.5,1.9-17.2,3.9-25.4
					c0.4-1.6,0.8-3.2,1.7-4.5c0.9-1.3,2.5-2.3,4.1-2.1c2.7,0.3,4.1,3.6,4.5,6.3c1.4,9.3-1.2,18.6-3.7,27.6c1.4-1,2.4-2.6,3.6-3.8
					c1.2-1.2,2.7-2.4,4.5-2.4C483.3,534.4,485.2,535.7,485.1,537.4z"/>
			</g>
		</g>
		<g>
			<path class="st6" d="M96.3,562.1c-0.1,3.4-1.8,6.7-3.8,9.5c-3.9,5.8-10.9,9.7-16.4,14c-2.4,0-4.8,0.1-7.1,0.2
				c-7.4,0.3-14.8,0.9-22.1,1.8c-2.2,0.3-4.4,0.6-6.7,0.9c-9.3-3.4-18.9-7.4-28.1-10.8c-1.7-0.6-3.3-1.2-4.7-2.3
				C6,574.4,4.9,572.8,5,571c0-3.1,3.3-5.2,6.2-6.1c8.6-2.8,18.6-1.1,25.8,4.6c-7.1-5.6-12.7-12.4-17.5-20.1
				c-1.7-2.7-3.3-5.6-3.9-8.8c-0.6-3.2-0.1-6.7,2-9.1c3.7-4.3,10.7-3.8,15.8-1.3c10.2,4.9,16.6,15.5,22.4,25.6
				c-0.4-10.8,0.2-22.4,6-31.6c2.6-4,6.7-7.7,11.4-7.3c3,0.3,5.7,2.2,7.4,4.7c1.7,2.5,2.6,5.5,3.3,8.4c2.2,10.5,1.3,21.5-2.7,31.5
				c1.1-1.8,2.3-3.6,3.9-5s3.7-2.2,5.8-1.9C94.2,554.9,96.4,558.7,96.3,562.1z"/>
			<g>
				<path class="st3" d="M84.9,569.7c-0.1,1.3-1.1,2.3-2,3.1l-14,13c-7.4,0.3-14.8,0.9-22.1,1.8c-7.1-3.3-14.1-6.5-21.1-9.8
					c-1.4-0.7-3-1.7-3-3.2c0-0.9,0.7-1.7,1.5-2.1c0.8-0.5,1.7-0.5,2.7-0.6c7.4-0.5,14.9,1.8,20.9,6.2c-5-7.7-9.6-15.4-14.6-23
					c-1.1-1.7-2.4-3.9-1.4-5.8c0.7-1.4,2.3-2.1,3.9-2.3c3.3-0.2,6.4,1.7,9,3.7c7.2,5.5,13.3,12.4,18,20.3c0.4-8.5,1.9-17.2,3.9-25.4
					c0.4-1.6,0.8-3.2,1.7-4.5c0.9-1.3,2.5-2.3,4.1-2.1c2.7,0.3,4.1,3.6,4.5,6.3c1.4,9.3-1.2,18.6-3.7,27.6c1.4-1,2.4-2.6,3.6-3.8
					c1.2-1.2,2.7-2.4,4.5-2.4C83.1,566.5,85,567.9,84.9,569.7z"/>
			</g>
		</g>
		<g>
			<path class="st6" d="M1244.7,559.9c-0.6,3.4-2.9,6.2-5.2,8.7c-4.9,5.1-12.4,7.8-18.5,11.1c-2.4-0.4-4.7-0.7-7.1-1
				c-7.4-1-14.7-1.6-22.1-1.9c-2.2-0.1-4.5-0.2-6.7-0.2c-8.5-4.9-17.4-10.5-25.9-15.4c-1.5-0.9-3.1-1.7-4.2-3
				c-1.2-1.3-2-3.1-1.7-4.9c0.5-3.1,4-4.6,7.1-5.1c9-1.3,18.5,2,24.7,8.8c-6.1-6.7-10.5-14.4-14-22.8c-1.2-3-2.3-6.1-2.4-9.3
				s1.1-6.6,3.5-8.6c4.4-3.6,11.1-2,15.8,1.4c9.4,6.7,14,18.2,17.9,29.1c1.4-10.8,3.9-22.1,11.1-30.1c3.2-3.6,7.9-6.5,12.4-5.3
				c2.9,0.8,5.2,3.1,6.5,5.8c1.3,2.7,1.7,5.8,1.8,8.8c0.5,10.7-2.3,21.5-7.8,30.6c1.3-1.6,2.8-3.3,4.6-4.3c1.7-1.1,4-1.6,6-0.9
				C1243.8,552.5,1245.3,556.5,1244.7,559.9L1244.7,559.9z"/>
			<g>
				<path class="st3" d="M1232.2,565.4c-0.2,1.2-1.4,2-2.4,2.7c-5.3,3.5-10.6,7.1-15.9,10.5c-7.4-1-14.7-1.6-22.1-1.9
					c-6.4-4.4-12.8-8.7-19.2-13.1c-1.3-0.9-2.7-2.1-2.4-3.6c0.2-0.9,1-1.6,1.9-1.8c0.9-0.3,1.8-0.2,2.7-0.2
					c7.4,0.8,14.4,4.2,19.6,9.6c-3.6-8.3-7-16.8-10.7-25.1c-0.8-1.9-1.7-4.2-0.5-6c0.9-1.3,2.6-1.7,4.2-1.6c3.3,0.3,6,2.7,8.3,5.2
					c6.2,6.7,11.1,14.5,14.4,22.9c1.7-8.3,4.7-16.6,8.1-24.4c0.7-1.5,1.4-3,2.5-4.1c1.1-1.1,2.9-1.8,4.4-1.4c2.7,0.8,3.4,4.2,3.3,7
					c-0.2,9.3-4.2,18.1-8.2,26.6c1.6-0.8,2.8-2.1,4.2-3.1c1.4-1,3.1-1.8,4.8-1.7C1230.9,562.1,1232.5,563.7,1232.2,565.4
					L1232.2,565.4z"/>
			</g>
		</g>
		<g>
			<path class="st6" d="M714.8,526.1c-3.1,9.9-19,15.2-23.7,24.6h-6.6c-31.6,0-63.2,0-94.8,0h-5.9c-3.1-2.4-8-4.4-11.1-6.8
				c-2.1-1.6-4.6-4-3.6-6.6c0.7-2,3.2-2.8,5.3-3c4.5-0.2,9,1.2,12.5,4.1c-6.1-6-10.9-12.6-15.6-19.7c-2.4-3.6-4.7-7.7-3.9-12.1
				c1-6,7.7-9.4,13.7-9.9c8.7-0.6,17.4,3.1,24,8.7c6.8,5.6,11.8,13,16.2,20.6c-0.9-4.6,2.8-9.1,7.5-9.3c4.7-0.2,9,4.5,8.5,9.2
				c2.1-12.4,10.5-23.7,21.4-30.1c2.1-1.2,4.3-2.3,6.8-2.6c2.4-0.2,5,0.5,6.7,2.3c1.8,2,2,5,2,7.8c-0.2,8.6-2.4,17.1-6.5,24.6
				c1.8-2.2,5.3-3.2,8-2c3.3,1.4,4.9,6.1,3,9.3c6-7.6,14.6-13.3,23.1-17.7c3.3-1.7,7.4-3.2,10.6-1.2
				C715.1,518.2,715.8,522.6,714.8,526.1z"/>
			<g>
				<path class="st3" d="M699.2,534.2c-0.7,1.5-2,2.7-3.2,3.8c-4.2,3.9-8.1,8.1-11.6,12.7c-31.6,0-63.2,0-94.8,0
					c-1.1-1.4-2.2-2.7-3.3-4c-0.6-0.7-1.2-1.5-1.1-2.4c0.1-1.4,1.8-2.2,3.3-2.4c3.9-0.5,8.1,0.5,11.3,3c-4.5-5.9-9-12-11.1-19.1
					c-0.8-2.6-1-5.8,1.1-7.6c2.4-2,6-0.7,8.6,0.9c9.3,5.5,17,13.7,22.1,23.2c-1.1-3.9,0.5-8.1,3.9-10.5c3.3-2.3,8.2-2.2,11.4,0.3
					c2.7,2,4.1,5.5,3.8,8.8c1.8-8,6.2-16.2,12-21.8c1.1-1.1,2.2-2,3.6-2.6c1.4-0.5,3-0.6,4.3,0.2c1.9,1.2,2.2,3.8,2.2,6.1
					c0.1,7.2-1.4,14.5-4.1,21.2c1.8-2.6,3.8-4.6,6.4-6.4c1.7-1.2,3.9-2.2,5.8-1.3c1.5,0.8,2.3,2.6,2.3,4.3c0,1.7-0.7,3.3-1.4,4.9
					c7.1-5.8,14.5-10.6,22.5-15c1.6-0.9,3.6-1.7,5.2-0.8C699.6,530.5,699.9,532.6,699.2,534.2z"/>
			</g>
		</g>
		<g>
			<path class="st6" d="M1118.3,548.1c-3.9,9.6-20.3,13.5-25.9,22.3l-6.6-0.6c-31.5-2.9-63-5.8-94.4-8.7l-5.9-0.5
				c-2.9-2.7-7.6-5.1-10.5-7.7c-2-1.8-4.2-4.4-3-6.9c0.9-2,3.4-2.5,5.5-2.4c4.5,0.2,8.9,2,12.1,5.2c-5.5-6.5-9.7-13.6-13.8-21
				c-2-3.8-3.9-8.2-2.9-12.4c1.6-5.9,8.5-8.7,14.6-8.6c8.7,0.2,17,4.7,23.2,10.9c6.2,6.2,10.5,14,14.3,21.9
				c-0.5-4.7,3.6-8.8,8.3-8.6c4.7,0.2,8.6,5.3,7.6,9.9c3.3-12.2,12.7-22.7,24-28c2.2-1.1,4.6-1.9,7-1.9s5,0.9,6.4,2.9
				c1.6,2.2,1.6,5.2,1.3,7.9c-1,8.5-4,16.8-8.7,23.9c2-2,5.6-2.7,8.1-1.3c3.2,1.7,4.3,6.5,2.2,9.5c6.7-7.1,15.7-11.9,24.7-15.5
				c3.5-1.4,7.7-2.5,10.7-0.2C1119.4,540.3,1119.6,544.8,1118.3,548.1z"/>
			<g>
				<path class="st3" d="M1102.1,554.7c-0.8,1.4-2.2,2.5-3.5,3.5c-4.6,3.5-8.9,7.4-12.7,11.6c-31.5-2.9-63-5.8-94.4-8.7
					c-1-1.4-2-2.9-3-4.3c-0.5-0.8-1.1-1.6-0.9-2.5c0.2-1.4,2-2,3.5-2.1c3.9-0.2,8,1.3,10.9,4c-3.9-6.3-7.9-12.8-9.3-20.1
					c-0.5-2.7-0.5-5.8,1.7-7.4c2.5-1.8,6-0.2,8.5,1.7c8.7,6.4,15.6,15.2,19.9,25.1c-0.8-4,1.2-8.1,4.8-10c3.6-2,8.3-1.4,11.3,1.4
					c2.4,2.3,3.6,5.8,3,9.1c2.6-7.7,7.7-15.5,13.9-20.6c1.1-0.9,2.4-1.8,3.9-2.3s3.1-0.3,4.2,0.6c1.7,1.4,1.8,4,1.7,6.2
					c-0.6,7.2-2.7,14.3-6,20.7c2-2.4,4.2-4.2,7-5.8c1.8-1.1,4.2-1.8,6-0.8c1.4,0.9,2,2.8,1.9,4.5c-0.2,1.7-1,3.3-1.8,4.8
					c7.6-5.2,15.4-9.3,23.8-12.9c1.7-0.8,3.8-1.4,5.2-0.2C1102.7,551.1,1102.8,553.3,1102.1,554.7L1102.1,554.7z"/>
			</g>
		</g>
		<path class="st7" d="M1448.9,610.7v94.1h-1462c0-29,1.5-61.7,2.1-92.3c0.2-8.3,0.3-16.5,0.3-24.5
			c483.3-54.5,977.7-50.3,1459.4,12.3C1448.7,604.2,1448.9,606.8,1448.9,610.7z"/>
		<g>
			<path class="st8" d="M1448.9,610.7v4.7c-0.8,0.4-1.6,0.7-2.4,1c-32.4,11.1-70,9.6-104.4,3c-34.4-6.7-66.9-18.1-100.5-26.7
				c-33.7-8.6-74.1-22.3-106.7-11.5c-79.9,26.5-116.7,20.3-175.6,10.5c-58.9-9.9-117.9-25-177.9-20.2c-72.1,5.8-135.7,39.4-207.1,49
				c-74.6,9.9-150.1-7.2-223.4-21.9s-151.9-27-223.4-7.8c-25.2,6.8-48.6,17.3-74.3,23c-20.9,4.6-44.8,5.6-64.3-1.1
				c0.2-8.3,0.3-16.5,0.3-24.5c483.3-54.5,977.7-50.3,1459.4,12.3C1448.7,604.2,1448.9,606.8,1448.9,610.7z"/>
		</g>
	</g>
</g>
<g>
	<path class="st9" d="M636.1,264.2c-1.2-1.3-2.7-2.4-3.5-3.9c-1.2-2.2-1.1-4.8-1.4-7.3c-0.6-6.4-3.9-12.1-7.1-17.7
		c-1.8-3.3-4-6.8-7.6-8c-2.3-0.8-4.9-0.5-7.2-1.1c-3.5-0.8-6.4-3.5-9.7-4.8c-6.4-2.5-12.4-0.7-16.3,0.6c-3.9,1.2-6.6,4.8-7.7,7.8
		c-1.1,3-1.9,6.4-4.2,8.6c-2.9,2.7-7.7,3-9.9,6.3c-1.6,2.4-1.3,5.5-1.1,8.3c0.2,2.8,0.2,6-1.8,8c-1.6,1.7-4.2,2.2-5.6,4
		c-2,2.7-0.2,6.9,2.8,8.4c3,1.4,6.7,0.8,9.9-0.3c3.3-1.2,6.9-3,10-1.5c1.9,0.9,3.1,2.8,4.9,3.8c2.6,1.4,5.8,0.7,8.6-0.5
		c2.7-1.1,5.5-2.7,8.4-2.7c5.8-0.1,10.9,5.3,16.7,4.3c3-0.5,5.5-2.9,8.6-3.5c2.9-0.6,5.8,0.3,8.7,0.2c3,0,6.3-1.6,6.6-4.5
		C638.4,267.1,637.3,265.5,636.1,264.2L636.1,264.2z"/>
	<path class="st10" d="M587.3,298c-1.4-4.9-6.4-7.7-11.4-6.4l-0.5,0.2c-0.5,0.2-0.9,0.3-1.4,0.5c-0.5,0.2-0.7,0.3-0.9,0.4l-0.7,0.3
		c-0.8,0.4-1.4,0.7-2,1.1c-1.2,0.7-2.4,1.4-3.5,2c-2.2,1.4-4.3,2.7-6.4,4c-4.2,2.7-8.2,5.5-12.2,8.3c-7.8,5.4-15.5,10.9-23.1,16.3
		c-3.6,1-7.1,2-10.5,3.3c-2,0.7-4.1,1.4-6.1,2.1l-6.1,2.1c-4.1,1.4-8.1,2.9-12.3,4.1c-1.1,0.3-2,0.7-3.1,0.9
		c-1.1,0.2-2.1,0.3-3.3,0.3c-1.1,0.1-2.2,0.2-3.2,0.5c-1.1,0.4-2,0.8-2.9,1.7c-1.6,1.7-1.5,4.3,0.2,5.8c0.4,0.4,0.8,0.7,1.4,0.8
		c1.2,0.5,2.3,0.5,3.3,0.3c1.1-0.2,2-0.5,3.1-0.9c1-0.5,2-0.9,3-1.1s2.1-0.3,3.2-0.5c4.2-0.6,8.6-1.1,12.8-1.5l6.4-0.7
		c2.1-0.2,4.3-0.5,6.4-0.7c4.2-0.5,8.5-1.2,12.7-1.9c0.7-0.1,1.3-0.3,1.8-0.7l0.7-0.4c4.2-2.5,8.5-5,12.7-7.6s8.3-5.2,12.4-7.7
		l12.4-7.7c2-1.3,4.1-2.5,6.1-3.6l2.9-1.6c0.5-0.2,0.8-0.5,1.2-0.6l0.2-0.1c0,0,0,0,0.1,0h0.1C585.7,308,588.6,303,587.3,298
		L587.3,298z M580.7,309.4c-0.2,0.1-0.4,0.1-0.5,0.2L580.7,309.4L580.7,309.4C580.7,309.4,580.7,309.4,580.7,309.4L580.7,309.4z"/>
	<path class="st10" d="M620.3,289.3c-11.1-0.2-14.6-7.4-15.7-13.2h-7l-0.1,0.1l-9.6,0.3c0,0,1.7,12.7-12.7,13.2
		c-2.2,0.1-6.9,14.7-6.9,14.7h66.1C634.4,304.4,625.6,289.4,620.3,289.3L620.3,289.3z"/>
	<path class="st9" d="M588,555l1,12.1c0,3.5-2.9,6.2-6.3,6.2l-20.8-0.2c-1.8,0-3-1.8-2.4-3.5c0.4-1,1.3-1.7,2.4-1.7h1.9
		c6.5-0.1,13.1-4.6,14.5-10.9L588,555z"/>
	<path class="st10" d="M596.4,375.5c-8.4-3-17.4-0.4-23.2,5.8c-2.5,10.7-3.8,21.5-3.6,32.5c0,1-0.3,1.7-0.9,2.2
		c0.2,2.4,0.2,4.9,0.4,7.5c0.2,3.8,0.4,7.9,0.5,12.2c0.2,4.3,0.3,9,0.4,13.7c0.1,4.7,0.2,9.6,0.3,14.6c0.1,2.5,0.1,5.1,0.2,7.6
		l0.1,4.2c0,0.8,0.1,1.3,0.2,1.9v0.5v0.1c0,0,0,0.6,0,0.4v0.2l0.1,0.3l0.2,1.2c0.4,3.1,0.8,5.7,1.2,8.3c0.4,2.6,0.7,5,1,7.4
		c0.5,4.9,0.8,9.5,1.3,13.7c0.1,1,0.2,2,0.3,3c0.1,1.1,0.2,2.1,0.2,3.2c0.2,2.1,0.3,4.3,0.4,6.4c0.2,4.2,0.5,8.3,0.6,12
		c0.2,3.7,0.5,7.1,0.7,10.2c0.2,3,0.5,5.7,0.7,7.9c0.5,4.4,0.8,6.9,0.8,6.9c0.4,2.7,2.9,4.6,5.6,4.2c2-0.3,3.6-1.8,4.2-3.7
		c0,0,0.6-2.5,1.5-6.8c0.4-2.2,0.9-4.8,1.4-7.8c0.5-3,1-6.4,1.5-10.2c0.5-3.7,1-7.8,1.4-12.2c0.2-2.2,0.4-4.4,0.5-6.8l0.1-0.9v-1.1
		l0.1-1.7c0-1.2,0-2.8-0.2-4c-0.3-5.1-1.3-10-2.2-14.9c-0.5-2.4-0.8-4.9-1.1-7.2c-0.3-2.4-0.5-4.7-0.3-6.6l0.1-0.6v-0.2v-0.1
		c0-0.3,0,0.3,0,0.2v-0.1l0.1-0.5c0.1-0.6,0.2-1.3,0.3-1.8l0.7-3.2c0.5-2.4,1-4.8,1.4-7.1c1-4.8,2.1-9.5,3.2-14
		c1.1-4.6,2.2-9,3.3-13.1c1.1-4.2,2.1-8.1,3.1-11.8c2-7.3,3.8-13.3,5.2-17.5c0.7-2.1,1.2-3.7,1.6-4.9c0.4-1.1,0.6-1.7,0.6-1.7
		C613.7,391.9,607.7,379.5,596.4,375.5L596.4,375.5z"/>
	<path class="st9" d="M629.8,555.5l1,11.1c0.1,3.5-2.7,6.3-6.2,6.3l-20.8,0.2c-1.8,0-3.1-1.7-2.5-3.5c0.4-1,1.3-1.7,2.4-1.7l1.9-0.1
		c6.5-0.2,12.7-4.9,14-11.2L629.8,555.5L629.8,555.5z"/>
	<path class="st10" d="M632.1,514.6l-0.1-0.9l-0.2-2.7c-0.2-1.2-0.3-2.7-0.5-3.9c-0.8-4.9-2.2-9.6-3.4-14.4
		c-0.7-2.4-1.2-4.7-1.7-7.1c-0.5-2.4-0.8-4.7-0.8-6.7c0.1-4.9,0.2-9.7,0.3-14.5c0.1-4.9,0.3-9.8,0.5-14.4c0.2-4.7,0.5-9.2,0.7-13.5
		c0.1-1.1,0.2-2.1,0.2-3.2h-31.3c0.5,1.8,0.8,3.7,1.3,5.6c1,4.2,2,8.6,3,13.3c1,4.6,2,9.3,3,14.2c1,4.9,2,10,3,15.1
		c0.6,3,1.3,5.5,1.8,8c0.5,2.5,1.1,4.9,1.5,7.4c0.9,4.8,1.7,9.5,2.6,13.7c0.2,1,0.5,2,0.6,3c0.2,1.1,0.4,2,0.6,3.1
		c0.4,2,0.7,4.2,1,6.1c0.6,4.2,1.2,8.1,1.7,11.7c1.1,7.3,2.1,13.4,2.9,17.7c0.8,4.3,1.4,6.8,1.4,6.8c1.2,2.7,3.1,4.4,5.8,3.9
		c2-0.5,3.5-2,3.8-3.9c0,0,0.5-2.5,1-6.9c0.2-2.2,0.5-4.9,0.8-8c0.3-3,0.5-6.5,0.7-10.3c0.2-3.8,0.3-7.9,0.2-12.4
		C632.2,519.3,632.2,516.9,632.1,514.6z"/>
	<path class="st11" d="M632.9,293.5c-6.8-5.1-16-4.6-16-4.6s-4.1,11.4-18.9,11.5c-14.8-0.2-18.9-11.5-18.9-11.5s-7.5-0.8-13.6,5.2
		c-6.1,6-11.8,10.3-11.8,10.3l10.2,15.2l9.3-5.7c0,0-2,6.4-0.5,10.8s5.1,27.2,3.7,36.8c0,0,5.5,6.6,21.7,6.6
		c16.1,0,26.5-5.5,26.5-5.5c-1.4-9.6,3.1-47,3.1-47l5.8,2.8l8.2-18.6C641.6,299.9,636,295.8,632.9,293.5L632.9,293.5z"/>
	<path class="st12" d="M576,361.8c-1.2-0.5-8.3,28.3-8.4,62.5c-0.1,33.7,0,49.3,2.4,59.7c2.4,10.4,5.6,58.6,5.6,58.6
		s12.1,3.2,17.7,0.4c0,0,3.2-44.1-1.2-60.5l5.6-34.9l18.1,93.8c0,0,12.9,3.6,17.7,0.4c0,0,0.4-27.2-3.6-49.3
		c-4-22.1-3.2-35.3-1.2-58.9c2-23.7,12.4-45.5-4.2-71.1C624.5,362.6,602.7,371.5,576,361.8z"/>
	<path class="st10" d="M670.5,328.4c-0.5-1.6-1.2-3-1.9-4.2c-1.4-2.4-2.9-4.2-4.4-6c-3-3.4-6.1-6.1-9.1-8.6
		c-3-2.5-12.3-8.2-13.7-9.2c-2.7,6-5.2,11.1-7.6,17.3c3.1,1.9,6.8,4.3,9.9,6.5c2.7,1.9,5.4,4,7.7,6.1c1.1,1.1,2,2.1,2.7,3
		c0.3,0.5,0.5,0.8,0.7,1c0.2,0.2,0.1,0.2,0.2-0.2c0.2,0.2,0,1.6-0.5,3c-0.4,1.4-0.9,3-1.6,4.6c-1.3,3.2-2.7,6.4-4.3,9.6
		c-1.6,3.1-3.3,6.1-4.9,9s-3.3,5.5-4.9,7.9c-0.8,1.2-1.6,2.4-2.3,3.4s-1.4,2.1-2.3,3c-1.7,1.7-3.3,3-4.3,4.2c-1.1,1.3-1.7,2.4-2,3.3
		c-0.4,0.8-0.4,1.4-0.4,1.4v0.2c-0.1,0.6,0,1.1,0.2,1.7c0.8,2.4,3.3,3.6,5.6,2.9c0,0,0.6-0.2,1.4-0.7c0.8-0.5,1.9-1.4,3-2.7
		c1.1-1.3,2-3.2,3.3-5.2c0.7-1,1.4-2,2.4-3c0.9-1,1.8-2,2.8-3.2c2-2.2,4-4.6,6.3-7.2c2.2-2.6,4.6-5.3,6.9-8.3s4.7-6.1,6.9-9.7
		c1.1-1.8,2.1-3.7,3.1-5.8c0.5-1.1,0.9-2.3,1.3-3.6c0.2-0.7,0.4-1.4,0.5-2.1l0.1-0.8l0.1-0.6l0.1-0.4v-0.2c0,0.2,0-0.3,0-0.3v-0.3
		C671.5,331.9,671.1,330,670.5,328.4L670.5,328.4z"/>
	<path class="st13" d="M597.8,447.6c0,0-2.3-12.7-3.3-26.5c-0.9-12-1.7-24-5.2-27.1c0,0,7,57.5,6.1,68.9L597.8,447.6z"/>
	<path class="st14" d="M588,278.2c-0.3,1.1-0.5,4.2-1.2,5.5c5.5,6.5,14.4,5.7,19.6-2c-0.5-0.7-0.5-4.1-0.5-4.1L588,278.2L588,278.2z
		"/>
	<path class="st10" d="M576,246.7c1.2-12.8,10.6-20.3,19.9-20.1c9.3,0.2,18.5,7.8,19.4,20.7c0.5,7.6-1.1,15.7-2.4,20.3
		c-0.7,2.8-2,5.3-3.9,7.3c-4.2,4.6-9.6,8.2-14,8.1c-4.3-0.1-9.6-3.9-13.7-8.6c-1.8-2-3-4.6-3.7-7.4
		C576.7,262.4,575.2,254.2,576,246.7L576,246.7z"/>
	<path class="st9" d="M586.4,257.1c0,1-0.8,1.7-1.7,1.7s-1.7-0.8-1.7-1.7s0.8-1.7,1.7-1.7S586.4,256.1,586.4,257.1z"/>
	<path class="st15" d="M588.5,264.5c0,1.6-1.7,2.9-3.7,2.9s-3.7-1.3-3.7-2.9s1.7-2.9,3.7-2.9S588.5,262.9,588.5,264.5z"/>
	<path class="st9" d="M602.9,257.1c0,1,0.8,1.7,1.7,1.7s1.7-0.8,1.7-1.7s-0.8-1.7-1.7-1.7C603.7,255.3,602.9,256.1,602.9,257.1z"/>
	<path class="st15" d="M600.8,264.5c0,1.6,1.7,2.9,3.7,2.9c2,0,3.7-1.3,3.7-2.9s-1.7-2.9-3.7-2.9
		C602.4,261.6,600.8,262.9,600.8,264.5z"/>
	<path class="st16" d="M599.8,269.7c0.7,0,1.2,0.8,0.8,1.4c-1.2,1.7-3.2,2.8-5.4,2.8c-2.3,0-4.2-1.1-5.4-2.7
		c-0.5-0.6-0.1-1.5,0.8-1.5L599.8,269.7L599.8,269.7z"/>
	<path class="st9" d="M609.7,248.5c0.5,0.2,1.1,0.1,1.7,0.3c1.4,0.5,1.7,2.3,1.7,3.7c-0.1,1.4-0.2,3,0.7,4.2
		c1.1,1.4,3.3,1.1,4.6-0.1c1.3-1.1,1.7-3,2-4.7c1-7.7-2.7-15.9-9.3-20.3c-1.7-1.1-6.6-3.1-7.9-0.2c-0.6,1.4,0.9,2.5,1.8,3.5
		c1.5,1.7,2.4,3.2,2.4,5.6C607.2,243,606.1,247.7,609.7,248.5L609.7,248.5z"/>
	<path class="st9" d="M598.3,240.7c-1.2,0.1-2.5,0-3.6,0.5c-1.6,0.7-2.5,2.4-3.5,3.9s-2.5,3-4.2,2.7c-0.8-0.2-1.4-0.5-2.2-0.6
		c-1.1-0.1-2,0.7-2.5,1.5c-0.5,0.8-0.8,1.8-1.3,2.7c-0.7,1.5-1.8,2.9-3.3,3.6c-1.5,0.7-3.4,0.6-4.8-0.5c-1.3-1-1.7-2.7-1.7-4.4
		c0.1-1.6,0.8-3.1,1.4-4.6c1.4-3.3,3.1-6.5,4.9-9.7c2-3.6,4.4-7.3,8-9.3c3.9-2.2,8.7-2,13.3-1.8c3.7,0.2,11.6,1.7,9.4,7.4
		c-0.7,1.7-2.6,3.9-3.7,5.3C602.9,239.1,600.7,240.5,598.3,240.7L598.3,240.7z"/>
	<path class="st17" d="M267.9,219.3c-4.9,5.4-3.3,13.7-4.1,20.9c-0.9,9.4-6.4,18.2-14.5,23.2c-3.6,2.2-7.7,3.8-10.3,7
		c-2.4,3-3.3,7.1-2.1,10.8c1.1,3.6,4.1,6.7,7.7,7.7c2.1,0.6,4.6,0.8,6.1,2.3c1.7,1.6,1.9,4.1,3,6.1c2.6,4.9,9.8,5.8,14.6,3
		c4.9-2.7,7.9-7.7,10.3-12.7c6.5-13.3,10.6-21.5,12.9-36.2c1.6-10.6,4.4-26.5-5.6-33.1C280.7,214.8,272.6,214.2,267.9,219.3
		L267.9,219.3z"/>
	<path class="st18" d="M266.6,225.9c7.9,0.1,15.6-1.5,23.4-1.2c-6.9-4.8-17.3-7.1-22.8,0.5c-0.2,0.3-0.5,0.5-0.8,0.8
		C266.5,225.9,266.6,225.9,266.6,225.9L266.6,225.9z"/>
	<path class="st18" d="M257.8,556.7l-0.3,9.1c-0.1,3.4,2.6,6.3,6.1,6.4l20.7,0.7c1.8,0.1,3.1-1.7,2.6-3.4c-0.3-1-1.2-1.7-2.3-1.7
		l-1.9-0.1c-6.4-0.3-11.8-5.1-12.9-11.5L257.8,556.7L257.8,556.7z"/>
	<path class="st18" d="M259.2,565.9c0,0-0.6-2.6-1.4-7.1c-0.4-2.3-0.9-5-1.4-8.2c-0.2-1.6-0.5-3.3-0.8-5.1s-0.5-3.6-0.8-5.6
		c-0.5-3.9-1-8.2-1.4-12.7c-0.4-4.6-0.7-9.3-0.6-14.7c-0.1-2.4,0.2-5.2,0.4-7.8c0.3-2.6,0.7-5.2,1.1-7.8c0.9-5.2,2-10.4,2.2-15.1
		c0-1.1,0.1-2.3-0.1-3.3l-0.1-0.7v-0.1c0-0.5,0-0.2,0-0.3v-0.2V477v-0.5v-2.5c-0.1-2.8,0-5.5,0-8c0-5.2,0-10.3,0-15.2
		c-0.1-9.9-0.2-19-0.6-26.8c-0.2-3.9-0.4-7.4-0.7-10.5c-0.2-3.1-0.5-5.7-0.8-7.7c-0.3-2-0.6-3.4-0.8-3.8c-0.1-0.1-0.1-0.2-0.2-0.2
		c0-0.1-0.1,0.1-0.1,0.2c0,0.1,0,0.2-0.1,0.2c-0.1,0.3-0.1,0.5-0.1,0.5c-1.4-11.6,6.8-22.2,18.4-23.7c11.7-1.4,22.3,6.8,23.7,18.4
		c0,0,0,0.5,0,1.4c0,0.2,0,0.5,0,0.8c0,0.2,0,0.7,0,0.8c-0.1,0.5-0.1,0.9-0.2,1.4c-0.2,2-0.7,4.2-1.3,6.8c-0.6,2.5-1.4,5.4-2.2,8.6
		c-0.8,3.2-1.8,6.8-2.9,10.6c-2.1,7.7-4.5,16.6-6.9,26.2c-1.2,4.8-2.4,9.7-3.5,14.6c-0.5,2.4-1.1,5-1.6,7.3l-0.2,0.8l-0.2,0.6
		l-0.1,0.5v0.2v0.2c0-0.1,0,0.3,0-0.2v0.1l-0.2,1.2c-0.2,1.7-0.4,3.1-0.6,4.6c-0.5,2.8-0.8,5.5-1.1,8c-0.3,2.6-0.5,5.1-0.8,7.6
		c-0.2,2.4-0.5,4.9-0.6,7.3c-0.2,2.4-0.5,4.5-0.8,7c-0.2,2.1-0.5,4.4-0.5,6.7c-0.2,2.3-0.3,4.5-0.4,6.7c-0.2,4.4-0.5,8.6-0.6,12.4
		c-0.1,1.9-0.2,3.8-0.3,5.5c-0.1,1.7-0.2,3.5-0.3,5c-0.2,3.2,0.2,5.9,0.1,8.2c-0.3,4.6,0,7.1,0,7.1c-1.4,2.7-3.3,4.7-6,4.4
		C262.1,569.5,259.7,567.9,259.2,565.9L259.2,565.9z"/>
	<path class="st9" d="M286.9,569.4c-0.3-1-1.2-1.7-2.3-1.7l-1.9-0.1c-5.2-0.3-9.6-3.3-11.8-7.8c-1.3,2.9-3.9,5.1-8,5.1
		c-2.4,0-4.1-0.8-5.4-2l-0.1,2.9c-0.1,3.4,2.6,6.3,6.1,6.4l20.7,0.7C286.1,572.9,287.5,571.2,286.9,569.4z"/>
	<path class="st18" d="M255.9,288.9c14.4-0.5,13-12.6,13-12.6l9.6-0.3l9.6,0.3c0,0-1.3,12.1,13,12.6c4.7,0.2,14,15.2,14,15.2h-65.9
		C249.3,304.1,253.7,288.9,255.9,288.9z"/>
	<path class="st19" d="M288.6,280.1c0.3,1.1,0.7,2.4,1.4,3.6c-4.5,9.7-17,11-22.6-0.7c0.5-0.7,0.8-1.8,1-3L288.6,280.1L288.6,280.1z
		"/>
	<path class="st18" d="M299.2,246.8c-1.2-13-10.8-20.4-20.1-20.3c-9.4,0.2-18.7,7.9-19.6,20.9c-0.5,7.6,1.1,15.9,2.4,20.6
		c0.7,2.8,2,5.4,3.9,7.4c4.2,4.6,9.8,8.3,14.1,8.2c4.3-0.1,9.8-3.9,13.9-8.6c1.8-2,3.1-4.6,3.7-7.5
		C298.4,262.6,299.9,254.3,299.2,246.8L299.2,246.8z"/>
	<path class="st18" d="M316.2,301.6c0,0,0.5,1.6,1.4,4.3c0.9,2.7,2.2,6.6,3.8,11.2c1.6,4.6,3.5,9.9,5.8,15.3
		c1.1,2.7,2.4,5.4,3.7,7.7c0.7,1.1,1.4,2.2,1.9,2.9c0.2,0.3,0.5,0.5,0.4,0.5c0,0-0.2-0.1-0.5-0.2l-0.2-0.1h-0.1l0,0
		c-0.8-0.2-0.2-0.1-0.4-0.1l0.3,0.1c0,0-0.8-0.2-0.8-0.1c-0.4,0.1-0.2,0.2,0.2,0.1c0.4,0,0.8-0.2,1.4-0.3c1.1-0.3,2.4-0.8,3.7-1.4
		c2.6-1.1,5.2-2.6,7.7-4.1c2.5-1.5,4.9-3.1,7.1-4.7c1.1-0.8,2.1-1.7,3.1-2.4c1-0.8,1.9-1.7,2.7-2.5c1.7-1.7,3.1-3.3,4.2-4.8
		c1-1.6,1.2-3.3,1.7-4.4c0.5-1.1,0.9-1.9,1.4-2.4c0.5-0.5,0.8-0.8,0.8-0.8l0.9-0.6c1.7-1.2,4.2-0.8,5.4,0.9c0.2,0.3,0.4,0.6,0.5,0.9
		c0,0,0.1,0.2,0.1,0.4s0.2,0.7,0.2,1.1c0.1,1-0.2,2.4-0.9,4c-0.8,1.6-2.2,3-3.5,4.9c-1.1,1.9-2.4,4-4,6.1c-0.8,1.1-1.6,2.2-2.5,3.3
		c-0.8,1.1-1.8,2.4-2.8,3.5c-2,2.4-4.2,4.7-6.6,7.1c-2.4,2.4-5.2,4.6-8.3,6.8c-1.6,1.1-3.3,2-5.2,3c-1,0.5-2,0.8-3.3,1.2
		c-1.3,0.4-2.7,0.7-4.9,0.6c-0.3,0-1.6-0.2-2-0.2l-0.3-0.1c-0.2-0.1,0.4,0.1-0.5-0.2h-0.1l-0.6-0.2c-1.1-0.4-2-0.8-2.7-1.3
		c-1.5-0.9-2.5-1.9-3.4-2.7c-1.7-1.7-3-3.4-4.1-5.1c-2.2-3.3-3.9-6.3-5.4-9.3c-3-6-5.3-11.5-7.2-16.4c-1.8-4.8-3.3-8.8-4.2-11.6
		c-0.9-2.8-1.4-4.4-1.4-4.4c-1.6-4.8,1.1-10,5.8-11.6C309.5,294.2,314.7,296.7,316.2,301.6L316.2,301.6z"/>
	<path class="st18" d="M284.3,556.7l-0.3,9.1c-0.1,3.4,2.6,6.3,6.1,6.4l20.7,0.7c1.8,0.1,3.1-1.7,2.6-3.4c-0.3-1-1.2-1.7-2.3-1.7
		l-1.9-0.1c-6.4-0.3-11.8-5.1-12.9-11.5L284.3,556.7L284.3,556.7z"/>
	<path class="st18" d="M285.7,565.9c0,0-0.6-2.6-1.4-7.1c-0.4-2.3-0.9-5-1.4-8.2c-0.2-1.6-0.5-3.3-0.8-5.1c-0.2-1.8-0.5-3.6-0.8-5.6
		c-0.5-3.9-1-8.2-1.4-12.7c-0.4-4.6-0.7-9.3-0.6-14.7c-0.1-2.4,0.2-5.2,0.4-7.8c0.3-2.6,0.7-5.2,1.1-7.8c0.9-5.2,2-10.4,2.2-15.1
		V480c0-0.5,0-1.1-0.1-1.5l-0.1-0.7v-0.1c0,0.5,0,0.1,0,0.2v-0.1l-0.1-0.2l-0.1-0.5c-0.1-0.6-0.2-1.3-0.3-1.8
		c-0.5-2.4-0.9-4.9-1.3-7.2c-0.9-5-2-9.9-3-14.7c-2-9.6-4.2-18.4-6.1-26.1c-0.5-1.9-1-3.7-1.4-5.5s-0.9-3.3-1.4-4.9
		c-0.8-3.1-1.6-5.8-2.3-7.9c-0.3-1.1-0.6-2-0.9-2.9s-0.5-1.6-0.7-2c-0.4-1-0.6-1.5-0.6-1.5c-4.2-11.2,1.4-23.8,12.8-28
		c11.3-4.2,23.9,1.4,28.1,12.7c1.1,3,1.5,6.1,1.4,9l-0.1,1c0,0-0.1,0.8-0.2,2.2c-0.1,1.3-0.3,3.2-0.5,5.5c-0.2,2.4-0.5,5.2-0.7,8.4
		s-0.5,6.8-0.8,10.8c-0.5,7.9-1,17.1-1.4,26.9c-0.2,4.9-0.4,10-0.5,15.2c-0.1,2.7-0.2,5.5-0.3,8.2c0,0.8-0.1,1.4-0.2,2l-0.1,0.5v0.2
		v0.1c0,0.2,0-0.2,0,0.3v0.2l-0.2,1.2c-0.2,1.7-0.4,3.1-0.6,4.6c-0.5,2.8-0.8,5.5-1.1,8c-0.3,2.6-0.5,5.1-0.8,7.6
		c-0.2,2.4-0.5,4.9-0.6,7.3c-0.2,2.4-0.5,4.5-0.8,7c-0.2,2.1-0.4,4.4-0.5,6.7s-0.3,4.5-0.4,6.7c-0.2,4.4-0.5,8.6-0.6,12.4
		c-0.1,1.9-0.2,3.8-0.3,5.5c-0.1,1.7-0.2,3.5-0.3,5c-0.2,3.2,0.4,5.9,0.2,8.2c-0.3,4.6,0.2,7.1,0.2,7.1c0,2.7-3.4,4.7-6.1,4.4
		C288.6,569.4,286.1,567.8,285.7,565.9L285.7,565.9z"/>
	<path class="st12" d="M322.2,320.6c-3.7-13.3-2.3-21.1-8.3-27s-16.5-5.5-16.5-5.5s-3.6,11.8-18.4,12c-14.8-0.2-18.6-12-18.6-12
		s-10.2-0.5-16.3,5.4c-6.1,5.9-5.4,14.9-9,28.2l17.3,3.3c0,0,5.2,25,3.8,34.5c0,0,6.8,5.5,22.8,5.5c16,0,26.9-3.5,26.9-3.5
		c-1.4-9.6,2-35.7,2-35.7L322.2,320.6L322.2,320.6z"/>
	<path class="st9" d="M313.4,569.4c-0.3-1-1.2-1.7-2.3-1.7l-1.9-0.1c-5.2-0.3-9.6-3.3-11.8-7.8c-1.3,2.9-3.9,5.1-8,5.1
		c-2.4,0-4.1-0.8-5.4-2l-0.1,2.9c-0.1,3.4,2.6,6.3,6.1,6.4l20.7,0.7C312.6,572.9,314,571.2,313.4,569.4z"/>
	<path class="st16" d="M238.7,500.9c10.3,5.7,23.2,6.6,34.2,2.4c4.1-1.6,8.5-3.9,12.7-2.7c3,0.9,5.2,3.5,8.1,4.9
		c9.5,4.6,20.9-5.7,30.9-2.4c-9.6-46.5-16.8-94.7-18.2-142.1l-50-1.1c0,0-14,39.7-11.1,73.2C248.4,466.6,238.7,500.9,238.7,500.9
		L238.7,500.9z"/>
	<path class="st18" d="M262.6,402.2c-0.2-0.7-0.5-1.4-0.9-2.2c-0.4-0.8-0.9-1.5-1.3-2.4c-0.5-0.9-0.8-1.8-1.1-2.9
		c-0.3-1.1-0.7-2.1-1.1-3.3c-0.8-2.2-1.5-4.7-2.4-7.3c-0.8-2.6-1.7-5.3-2.7-8c-0.9-2.8-1.9-5.7-3-8.6c-0.5-1.4-1.1-2.9-1.6-4.4
		l-0.8-2.2l-0.5-1.1l-0.1-0.3l-0.1-0.2c0-0.1-0.1-0.2-0.1-0.3c-0.2-0.8-0.3-1.4-0.2-2.1c0-0.4,0.1-0.7,0.2-1c0,0.1,0.2-1,0.4-1.7
		c0.7-3,4.5-29.4,4.5-29.4l-16.5-3.2c0,0-0.2,3.4-0.5,5.4c-0.7,4.6-1.4,9.9-2.2,15.7c-0.4,2.9-0.8,5.8-1.1,8.9
		c-0.1,0.8-0.2,1.3-0.3,2.9c-0.1,1.2-0.1,2.4,0.1,3.6c0.2,2.4,0.8,4.7,1.9,6.8c0.2,0.3,0.2,0.5,0.4,0.8l0.2,0.4l0.2,0.2l0.6,1l1.1,2
		c0.8,1.3,1.6,2.7,2.4,3.9c1.6,2.6,3.1,5.2,4.6,7.6c3,4.9,5.7,9.6,7.7,13.7c0.5,1,1,2,1.4,3c0.5,0.9,0.8,1.8,1.1,2.7
		c0.4,1.8,0.5,3.4,0.9,4.6c0.3,1.1,0.8,2,1.2,2.5c0.4,0.5,0.8,0.8,0.8,0.8l0.7,0.5c0.3,0.2,0.6,0.4,1,0.5c2,0.8,4.3-0.2,5.2-2.2
		c0,0,0.2-0.5,0.3-1.4C263.2,404.8,263,403.6,262.6,402.2L262.6,402.2z"/>
	<path class="st17" d="M276.1,243c-3.7,2-7.8,3.6-10.5,6.9c-3.8,4.6-3.8,11-4.3,16.8c-0.1,1-0.3,2-1.1,2.5c-1.1,0.6-2.6-0.7-2.7-2
		c-0.2-1.3-0.5-10.4-2.3-15.2c-2.1-5.5-1.8-14.7,1.6-19.6c3.4-4.9,7.4-8.3,13.2-9.6c4.1-0.9,8.6-0.8,12.1,1.5
		C291,230.4,282.4,239.4,276.1,243z"/>
	<path class="st17" d="M281.4,231.2c4.5,4.2,9,8.6,12.3,13.8c3.3,5.3,5,11.7,3.6,17.7c-0.3,1.1-0.6,2.2-0.4,3.3
		c0.3,1.1,1.5,2,2.5,1.4c0.8-0.4,0.9-1.4,1.1-2.2c0.7-5,1.4-9.9,2-14.9c0.6-4.8,1.2-9.7-0.3-14.3c-1.6-4.7-5.5-8.6-10.3-10.1
		c-4.8-1.5-10.2-0.6-14.3,2.3"/>
	<path class="st9" d="M271.3,256.9c0,1-0.8,1.7-1.7,1.7c-1,0-1.7-0.8-1.7-1.7c0-1,0.8-1.7,1.7-1.7
		C270.6,255.2,271.3,255.9,271.3,256.9z"/>
	<path class="st19" d="M273.5,264.3c0,1.6-1.7,2.9-3.7,2.9s-3.7-1.3-3.7-2.9s1.7-2.9,3.7-2.9C271.9,261.4,273.5,262.7,273.5,264.3z"
		/>
	<path class="st9" d="M287.9,256.9c0,1,0.8,1.7,1.7,1.7s1.7-0.8,1.7-1.7c0-1-0.8-1.7-1.7-1.7S287.9,255.9,287.9,256.9z"/>
	<path class="st19" d="M285.8,264.3c0,1.6,1.7,2.9,3.7,2.9s3.7-1.3,3.7-2.9s-1.7-2.9-3.7-2.9S285.8,262.7,285.8,264.3z"/>
	<path class="st16" d="M284.7,269.4c0.7,0,1.2,0.8,0.8,1.4c-1.2,1.7-3.2,2.8-5.4,2.8c-2.3,0-4.2-1.1-5.4-2.7
		c-0.5-0.6-0.1-1.5,0.8-1.5L284.7,269.4L284.7,269.4z"/>
	<path class="st18" d="M516.8,557.2l0.3,9c0.1,3.4-2.6,6.3-6,6.4l-20.6,0.7c-1.8,0.1-3.1-1.7-2.5-3.4c0.3-1,1.2-1.7,2.3-1.7l1.9-0.1
		c6.4-0.3,11.8-5.1,12.8-11.4L516.8,557.2L516.8,557.2z"/>
	<path class="st18" d="M525.1,444.9c-0.8,3.2-1.4,6.5-2.2,9.9c-1,4.7-2,9.6-3,14.6c-0.5,2.4-0.8,4.8-1.3,7.1
		c-0.1,0.5-0.2,1.1-0.3,1.8l-0.1,0.5v0.2v0.1c0-0.1,0,0.3,0-0.2v0.1l-0.1,0.7c-0.1,0.5-0.1,1-0.1,1.5v1.7c0.2,4.7,1.3,9.9,2.2,14.9
		c0.5,2.6,0.8,5.2,1.1,7.8c0.2,2.5,0.5,5.5,0.4,7.7c0.1,5.4-0.3,10.1-0.6,14.6c-0.4,4.6-0.8,8.7-1.3,12.6c-0.2,2-0.5,3.8-0.8,5.5
		c-0.3,1.7-0.5,3.4-0.8,5c-0.5,3.1-1,5.8-1.4,8.1c-0.8,4.5-1.4,7.1-1.4,7.1c-0.5,2-2.4,3.5-4.5,3.7c-2.7,0.3-4.4-1.7-5.5-4.4
		c0,0-0.1-2.6-0.4-7.1c-0.2-2.3-0.2-5-0.3-8.1c-0.1-1.6-0.2-3.3-0.3-5c-0.1-1.7-0.2-3.6-0.3-5.5c-0.2-3.8-0.4-8-0.6-12.3
		c-0.2-2.1-0.2-4.3-0.4-6.6c-0.2-2.2-0.3-4.5-0.5-6.6c-0.3-2.5-0.5-4.6-0.8-6.9c-0.2-2.4-0.5-4.8-0.6-7.2c-0.2-2.4-0.5-4.9-0.8-7.5
		c-0.3-2.6-0.8-5.2-1.1-8c-0.2-1.4-0.5-2.9-0.6-4.5l-0.1-1.2v-0.2c0-0.5,0-0.2,0-0.3v-0.1v-0.2l-0.1-0.5c-0.1-0.6-0.1-1.3-0.2-2
		c-0.1-2.7-0.2-5.5-0.3-8.1c-0.2-5.2-0.4-10.2-0.5-15.1c-0.2-5.5-0.5-10.7-0.7-15.6C505.2,441.8,515.3,444.3,525.1,444.9
		L525.1,444.9z"/>
	<path class="st19" d="M520.4,467c-4.6-8.2-8.6-16.6-12.4-25.1c5.5,1.7,11.3,2.7,17,3.1c-0.8,3.2-1.4,6.5-2.2,9.9
		C522,458.8,521.2,462.9,520.4,467L520.4,467z"/>
	<path class="st9" d="M488,569.9c0.3-1,1.2-1.7,2.3-1.7l1.9-0.1c5.2-0.3,9.6-3.3,11.7-7.8c1.3,2.8,3.9,5.1,7.9,5.1
		c2.4,0,4.1-0.8,5.3-2l0.1,2.9c0.1,3.4-2.6,6.3-6,6.4l-20.6,0.7C488.7,573.3,487.4,571.6,488,569.9z"/>
	<path class="st18" d="M543,557.2l0.3,9c0.1,3.4-2.6,6.3-6,6.4l-20.6,0.7c-1.8,0.1-3.1-1.7-2.5-3.4c0.3-1,1.2-1.7,2.3-1.7l1.9-0.1
		c6.4-0.3,11.8-5.1,12.8-11.4L543,557.2L543,557.2z"/>
	<path class="st18" d="M543.8,441.5c0.3-0.1,0.5-0.1,0.8-0.2c-0.1,3.5-0.1,7.2-0.1,10.9c0,4.9,0,9.9,0,15.1c0,2.6,0.1,5.2,0,8v2.5
		v0.5v0.2v0.2c0,0.2,0-0.2,0,0.3v0.1l-0.1,0.7c-0.1,1-0.1,2-0.1,3.2c0.2,4.7,1.3,9.9,2.2,14.9c0.5,2.6,0.8,5.2,1.1,7.8
		c0.2,2.5,0.5,5.5,0.4,7.7c0.1,5.4-0.3,10.1-0.6,14.6c-0.4,4.6-0.8,8.7-1.3,12.7c-0.2,2-0.5,3.8-0.8,5.5c-0.3,1.7-0.5,3.4-0.8,5
		c-0.5,3.1-1,5.8-1.4,8.1c-0.8,4.5-1.4,7.1-1.4,7.1c-0.5,2-2.4,3.5-4.5,3.7c-2.7,0.2-4.4-1.7-5.5-4.4c0,0-0.1-2.6-0.4-7.1
		c-0.2-2.3-0.2-5-0.3-8.1c-0.1-1.6-0.2-3.3-0.3-5c-0.1-1.7-0.2-3.6-0.3-5.5c-0.2-3.8-0.4-8-0.6-12.3c-0.2-2.1-0.2-4.4-0.4-6.6
		c-0.2-2.2-0.3-4.5-0.5-6.6c-0.3-2.5-0.5-4.6-0.8-6.9s-0.5-4.8-0.6-7.2c-0.2-2.4-0.5-4.9-0.8-7.5s-0.8-5.2-1.1-8
		c-0.2-1.4-0.5-2.9-0.6-4.5l-0.1-1.2v-0.1c0,0.5,0,0.1,0,0.2v-0.2l-0.1-0.2l-0.1-0.5l-0.2-0.5l-0.2-0.8c-0.5-2.3-1-4.8-1.6-7.2
		c-1.1-4.9-2.3-9.8-3.5-14.5c-1.4-5.8-3-11.5-4.3-16.8C524.2,442.2,534.5,443.2,543.8,441.5L543.8,441.5z"/>
	<path class="st9" d="M514.2,569.9c0.3-1,1.2-1.7,2.3-1.7l1.9-0.1c5.2-0.3,9.6-3.3,11.7-7.8c1.3,2.8,3.9,5.1,7.9,5.1
		c2.4,0,4.1-0.8,5.3-2l0.1,2.9c0.1,3.4-2.6,6.3-6,6.4l-20.6,0.7C515,573.3,513.7,571.6,514.2,569.9z"/>
	<path class="st16" d="M554.9,443.7c-6.5,6.1-50.7,10.3-66.9-3.2c-2-26.5,7.6-77,7.6-77l48.8-1.4c0,0,14,39.4,11,72.5
		C555.3,437.8,555,440.8,554.9,443.7L554.9,443.7z"/>
	<path class="st20" d="M494.1,267.9c1.8-8.1,7.7-15.3,15.5-18.3c6.8-2.6,14.6-2,21.2,1c6.7,2.9,20.9,27.2,17.3,36.3
		c-3.7,9.2-13,15.7-22.9,16.5c-9.9,0.8-19.9-4-25.9-11.9C494.4,284.8,492.3,276,494.1,267.9L494.1,267.9z"/>
	<path class="st18" d="M545,291.7c-14.3-0.5-13-12.5-13-12.5l-9.6-0.3l-9.6,0.3c0,0,1.3,12.1-13,12.5c-4.6,0.2-14,15.1-14,15.1h65.4
		C551.5,306.8,547.1,291.8,545,291.7z"/>
	<path class="st19" d="M512.5,282.9c-0.3,1.1-0.7,2.4-1.4,3.6c4.5,9.6,16.8,10.8,22.4-0.7c-0.5-0.7-1.2-4-1.4-5.1L512.5,282.9
		L512.5,282.9z"/>
	<path class="st18" d="M502.1,250c1.2-12.8,10.6-20.3,19.9-20.1c9.3,0.2,18.5,7.8,19.4,20.7c0.5,7.6-1.1,15.7-2.4,20.3
		c-0.7,2.8-2,5.3-3.9,7.3c-4.2,4.6-9.6,8.2-14,8.1c-4.3-0.1-9.6-3.9-13.7-8.6c-1.8-2-3-4.6-3.7-7.4
		C502.8,265.7,501.3,257.5,502.1,250L502.1,250z"/>
	<path class="st18" d="M489.2,297.4c0,0-1.2,1.1-3.3,3c-2.1,2-5.1,4.7-8.7,7.9c-3.6,3.2-7.9,6.9-12.4,10.5c-2.3,1.7-4.7,3.5-7,4.9
		c-1.1,0.7-2.3,1.2-3,1.6c-0.4,0.2-0.7,0.2-0.6,0.3c0,0,0.2,0,0.5,0.1h0.2h0.1l0,0c0.8,0.2,0.2,0.1,0.4,0.1l-0.3-0.1
		c0,0,0.8,0.3,0.7,0.3c0.3,0.2,0.1,0.2-0.2,0c-0.3-0.2-0.7-0.5-1.1-1c-0.8-0.8-1.7-1.9-2.5-3c-1.7-2.3-3.3-4.8-4.7-7.3
		c-1.4-2.5-2.7-5.1-3.9-7.5c-0.5-1.2-1.1-2.4-1.5-3.6s-0.8-2.4-1.1-3.5c-0.7-2.2-1.1-4.3-1.4-6.1c-0.1-1.8,0.5-3.4,0.7-4.6
		c0.2-1.2,0.1-2,0-2.7c-0.2-0.6-0.3-1.1-0.3-1.1l-0.5-1c-0.9-1.9-3.2-2.7-5.2-1.8c-0.3,0.2-0.6,0.4-0.8,0.5c0,0-0.1,0.1-0.3,0.3
		c-0.2,0.2-0.5,0.5-0.7,1c-0.5,0.8-1.1,2.2-1.1,3.9c-0.1,1.7,0.5,3.7,0.7,5.8c0.1,2.2,0.2,4.6,0.5,7.3c0.2,1.3,0.3,2.7,0.5,4.1
		s0.5,2.9,0.8,4.4c0.6,3,1.4,6.1,2.4,9.3c1,3.2,2.2,6.5,3.9,9.9c0.9,1.7,1.8,3.3,3.1,5.1c0.7,0.8,1.4,1.7,2.4,2.7
		c0.9,0.9,2,1.9,3.9,2.8c0.3,0.2,1.4,0.6,1.8,0.8l0.3,0.1c0.2,0.1-0.4-0.1,0.5,0.1h0.1l0.2,0.1l0.5,0.1c1.1,0.2,2.1,0.2,3,0.2
		c1.7-0.1,3-0.5,4.2-0.8c2.4-0.7,4.2-1.5,6-2.4c3.5-1.7,6.4-3.6,9.2-5.5c5.5-3.7,10.2-7.4,14.2-10.7c3.9-3.3,7.1-6.1,9.3-8
		c2.2-2,3.4-3.1,3.4-3.1c3.7-3.4,3.9-9.2,0.5-12.8C498.7,294.2,493,294,489.2,297.4L489.2,297.4L489.2,297.4z"/>
	<path class="st9" d="M473.3,311.5c0,0,8.2-9.1,14.3-15c6-5.9,16.4-5.4,16.4-5.4s3.6,11.7,18.3,11.9c14.6-0.2,18.4-11.8,18.4-11.8
		s10.2-0.5,16.2,5.4s5.3,14.7,9,28l-17.1,3.3c0,0-5.3,25.3-3.9,34.7c0,0-6.5,4.9-22.5,4.9c-15.9,0-26.6-3.4-26.6-3.4
		c1.4-9.5-3.5-42.5-3.5-42.5l-6.8,3.4L473.3,311.5z"/>
	<path class="st18" d="M538.3,404.1c0.2-0.7,0.5-1.4,0.9-2.2c0.4-0.8,0.9-1.5,1.3-2.4c0.5-0.8,0.8-1.8,1.1-2.9
		c0.3-1.1,0.7-2,1.1-3.2c0.7-2.2,1.5-4.6,2.4-7.2c0.8-2.6,1.7-5.2,2.6-8c0.9-2.7,1.9-5.6,3-8.5c0.5-1.4,1.1-2.9,1.6-4.3l0.8-2.1
		l0.5-1.1l0.1-0.3l0.1-0.2c0-0.1,0.1-0.2,0.1-0.2c0.2-0.7,0.3-1.4,0.2-2.1c0-0.4-0.1-0.7-0.2-1c0,0.1-0.2-1-0.4-1.7
		c-0.7-3-4.4-29.2-4.4-29.2l16.3-3.2c0,0,0.2,3.4,0.5,5.3c0.7,4.6,1.4,9.9,2.2,15.5c0.4,2.9,0.8,5.8,1.1,8.8
		c0.1,0.8,0.2,1.3,0.3,2.8c0.1,1.2,0.1,2.4-0.1,3.6c-0.2,2.4-0.8,4.6-1.8,6.8c-0.2,0.3-0.2,0.5-0.4,0.8l-0.2,0.4l-0.2,0.2l-0.6,1
		l-1.1,2c-0.8,1.3-1.5,2.6-2.3,3.9c-1.6,2.6-3.1,5.1-4.6,7.6c-3,4.9-5.6,9.5-7.7,13.6c-0.5,1-1,2-1.4,2.9s-0.8,1.8-1.1,2.7
		c-0.4,1.8-0.5,3.3-0.9,4.6c-0.3,1.1-0.8,2-1.2,2.5c-0.4,0.5-0.8,0.8-0.8,0.8l-0.7,0.5c-0.3,0.2-0.6,0.4-1,0.5
		c-2,0.8-4.2-0.2-5.1-2.2c0,0-0.2-0.5-0.3-1.4C537.8,406.7,538,405.5,538.3,404.1L538.3,404.1z"/>
	<path class="st20" d="M520.9,246.8c2.7,1.4,5.8,2.1,8.6,3.5s5.3,3.6,6,6.6c0.8,3.5-1.2,7.4,0.5,10.5c1.9,3.4,7.2,3.7,9.2,7.1
		c2,3.2-0.2,7.4-3,9.9c-2.9,2.4-6.5,4.1-8.7,7.1c-2.5,3.3-2.9,8-0.9,11.7c2,3.6,6.1,6,10.2,5.8c5.8-0.2,10.5-5,12.5-10.5
		c2-5.4,1.7-11.3,1.4-17.1c-0.4-6.4-0.8-13-1.2-19.4c-0.7-10.1-1.7-20.6-7.4-29c-4.2-6.1-11.1-10.6-18.4-12
		c-5.9-1.1-19.9-1-20.8,6.6C507.8,235.3,514.4,243.7,520.9,246.8L520.9,246.8z"/>
	<path class="st20" d="M507.8,247.4c-3.4,6.1-7.7,12.2-7.8,19.3c-0.1,5.1,2.2,9.8,4.2,14.4s3.9,9.6,3.1,14.6
		c-0.8,5-5.2,9.8-10.2,9.1c-3.4-0.5-6.2-3.3-7.5-6.5c-1.3-3.2-1.4-6.8-1.4-10.2c-0.1-14.8,1.4-29.6,4.1-44.1c1.4-7,5.5-18.4,15-16.2
		C515.8,230,510.5,242.5,507.8,247.4z"/>
	<path class="st9" d="M512.5,260.4c0,1-0.8,1.7-1.7,1.7s-1.7-0.8-1.7-1.7c0-1,0.8-1.7,1.7-1.7S512.5,259.4,512.5,260.4z"/>
	<path class="st19" d="M514.7,267.8c0,1.6-1.7,2.9-3.7,2.9c-2,0-3.7-1.3-3.7-2.9s1.7-2.9,3.7-2.9C513,264.9,514.7,266.2,514.7,267.8
		z"/>
	<path class="st9" d="M529.1,260.4c0,1,0.8,1.7,1.7,1.7c1,0,1.7-0.8,1.7-1.7c0-1-0.8-1.7-1.7-1.7
		C529.8,258.7,529.1,259.4,529.1,260.4z"/>
	<path class="st19" d="M526.9,267.8c0,1.6,1.7,2.9,3.7,2.9c2,0,3.7-1.3,3.7-2.9s-1.7-2.9-3.7-2.9
		C528.6,264.9,526.9,266.2,526.9,267.8z"/>
	<path class="st16" d="M525.9,272.9c0.7,0,1.2,0.8,0.8,1.4c-1.2,1.7-3.2,2.8-5.4,2.8c-2.2,0-4.2-1.1-5.4-2.7
		c-0.5-0.6-0.1-1.5,0.8-1.5L525.9,272.9L525.9,272.9z"/>
	<path class="st10" d="M451.8,300.5c-0.7-0.5-1.3-0.8-2-1.2l-3.2-2l-0.8-0.5l-1.8-0.1h-3.6c-2.4,0-4.9,0.1-7.2,0.1
		c-4.8,0.2-18.7,0.5-23.2,0.9c-3.2,0.4-9.3,1.4-9.3,1.4l-21.1-15.9c0,0,2.7-1.3,3.6-1.6c1.5-0.5,3-1.1,4.5-1.5
		c1.4-0.5,2.9-0.8,4.3-1.1c5.7-1.2,11.2-1.7,16.6-1.9c5.4-0.2,19.8-0.1,25.1,0.2c2.7,0.2,5.2,0.4,7.9,0.7l3.9,0.5l4,0.5l0.6,0.1
		c1.2,0.2,8.9-0.2,19.7,18.4C471.8,301.2,451.9,300.5,451.8,300.5L451.8,300.5z"/>
	<path class="st21" d="M392.9,330.4v34.7c0,0,0.1,0,0.2-0.1c1.4-0.5,2.6-1.7,3-3.1l0.2-0.6c2-5.9,3.9-11.8,5.8-17.7
		c0.9-3,1.8-6,2.7-9c0.1-0.4,0.2-0.8,0.3-1.2C401,332.5,397,331.5,392.9,330.4z"/>
	<path class="st22" d="M428.6,556.3l0.3,9.3c0.1,3.5-2.7,6.4-6.2,6.6l-24.7,0.7c-1.8,0.1-3.2-1.7-2.6-3.5c0.3-1,1.3-1.7,2.4-1.8
		l5.4-0.1c6.6-0.4,12.1-5.2,13.2-11.8L428.6,556.3L428.6,556.3z"/>
	<path class="st22" d="M413.9,540.8c-0.2-2.1-0.5-4.3-0.7-6.4c-0.3-3.6-0.7-7.2-0.9-10.8l18.7-4.1l-0.2,2l-1,12.8
		c-0.2,2.1-0.4,4.2-0.5,6.4c-0.2,2.1-0.1,4.3-0.3,6.4c-0.3,3.5-0.9,9.7-1.1,12c-0.1,0.6-0.3,1.3-0.6,1.8c-1.4,2.4-3.3,4.1-5.9,3.7
		c-2.4-0.3-4.6-2.2-4.9-4.5c-0.8-4.3-1.4-8.6-1.9-12.9C414.3,545.1,414.1,543,413.9,540.8z"/>
	<path class="st9" d="M428.6,556.3l0.3,9.3c0.1,3.5-2.7,6.4-6.2,6.6l-24.7,0.7c-1.8,0.1-3.2-1.7-2.6-3.5c0.3-1,1.3-1.7,2.4-1.8
		l5.4-0.1c6.6-0.4,12.1-5.2,13.2-11.8L428.6,556.3L428.6,556.3z"/>
	<path class="st21" d="M413.9,540.8c-0.2-2.1-0.5-4.3-0.7-6.4c-0.3-3.6-0.7-7.2-0.9-10.8l18.7-4.1l-0.2,2l-1,12.8
		c-0.2,2.1-0.4,4.2-0.5,6.4c-0.2,2.1-0.1,4.3-0.3,6.4c-0.3,3.5-0.9,9.7-1.1,12c-0.1,0.6-0.3,1.3-0.6,1.8c-1.4,2.4-3.3,4.1-5.9,3.7
		c-2.4-0.3-4.6-2.2-4.9-4.5c-0.8-4.3-1.4-8.6-1.9-12.9C414.3,545.1,414.1,543,413.9,540.8z"/>
	<path class="st9" d="M441.6,396.8l-38.8-11.4c0,0-0.8,20.5-0.5,27c0.5,13,1,40.5,1.8,63.3c0.8,22.8,6.1,81.7,6.1,81.7
		s12.9,2.2,20.7,0.6c0,0,3.6-56.9,1.9-73.8s1.5-37,5.5-62.4C439.7,413.3,441.5,404.7,441.6,396.8z"/>
	<path class="st9" d="M464.9,556.5l0.2,9.3c0.1,3.5-2.7,6.4-6.3,6.5l-24.7,0.4c-1.8,0.1-3.2-1.8-2.6-3.6c0.4-1,1.3-1.7,2.4-1.7
		l5.4-0.1c6.6-0.2,12.2-5.1,13.3-11.6L464.9,556.5L464.9,556.5z"/>
	<path class="st21" d="M450.2,541.1c-0.3-2.1-0.7-4.2-0.9-6.4c-0.5-3.6-1-7.2-1.4-10.8l18.5-4.8l-0.1,2l-0.5,12.9
		c-0.1,2.1-0.2,4.3-0.3,6.4c-0.1,2.1,0.1,4.3-0.1,6.4c-0.2,4.3-0.5,8.6-0.7,13c-1.4,3-3.2,5.2-6.2,4.9c-2.4-0.2-4.6-2-5.1-4.2
		c-0.9-4.2-1.7-8.5-2.4-12.8C450.9,545.5,450.5,543.3,450.2,541.1L450.2,541.1z"/>
	<path class="st23" d="M431.2,396.8c1,4.7,2,10,2.6,17.4c1.1,13,2.7,40.7,4.6,63.5c1.8,22.8,9,81.8,9,81.8s13,1.7,20.9-0.2
		c0,0,1.9-57.3-0.6-74.2c-2.5-16.9-0.1-37.3,2.8-63c1-8.6,3.3-22.5-3.9-41.4L431.2,396.8L431.2,396.8z"/>
	<path class="st21" d="M461.3,296.4c-14.7-0.5-13.4-12.9-13.4-12.9l-9.9-0.3l-9.9,0.3c0,0,1.3,12.4-13.4,12.9
		c-4.8,0.2-14.4,15.6-14.4,15.6h67.6C467.9,312,463.5,296.4,461.3,296.4L461.3,296.4z"/>
	<path class="st24" d="M427.7,287.3c-0.3,1.1-0.8,2.4-1.4,3.7c4.6,9.9,17.4,11.2,23.1-0.7c-0.5-0.8-0.8-1.9-1-3H427.7z"/>
	<path class="st21" d="M415.2,252.5c1.4-14.4,12-22.7,22.4-22.5c10.5,0.2,20.9,8.8,21.8,23.2c0.6,8.5-1.3,17.6-2.6,22.8
		c-0.8,3.1-2.3,6-4.3,8.2c-4.7,5.2-10.8,9.3-15.7,9.2c-4.9-0.1-10.8-4.4-15.5-9.6c-2-2.3-3.4-5.2-4.1-8.3
		C416,270.1,414.3,260.9,415.2,252.5L415.2,252.5z"/>
	<path class="st18" d="M473.8,337.2l15.7-7c-3.8-13.7-5.4-22.8-11.6-28.9c-6.2-6.1-21.1-5.1-21.1-5.1s-3.5,11.4-18.9,11.4
		c-15.4,0-18.6-11.5-18.6-11.5s-15.2-0.9-21.4,5.2c-6.2,6.1-9.8,15.2-13.6,28.9l17.7,7L399,413c0,0,13.3,5.5,35.3,5.5
		c28.2,0,39.6-4.6,39.6-4.6L473.8,337.2z"/>
	<path class="st9" d="M427.1,264.3c0,1-0.8,1.7-1.7,1.7s-1.7-0.8-1.7-1.7s0.8-1.7,1.7-1.7C426.4,262.6,427.1,263.4,427.1,264.3z"/>
	<path class="st9" d="M447.2,264.3c0,1,0.8,1.7,1.7,1.7s1.7-0.8,1.7-1.7s-0.8-1.7-1.7-1.7C448.1,262.6,447.2,263.4,447.2,264.3z"/>
	<path class="st16" d="M431.5,277.5c-0.8,0-1.4,1-1,1.7c1.4,2,3.9,3.5,6.6,3.5c2.7,0,5.1-1.4,6.5-3.3c0.5-0.8,0.1-1.8-0.9-1.8
		L431.5,277.5L431.5,277.5z"/>
	<path class="st25" d="M429.3,271.5c0,1.5-1.6,2.8-3.6,2.8c-2,0-3.6-1.3-3.6-2.8s1.6-2.8,3.6-2.8C427.7,268.7,429.3,270,429.3,271.5
		z"/>
	<path class="st25" d="M445.2,271.5c0,1.5,1.6,2.8,3.6,2.8c2,0,3.6-1.3,3.6-2.8s-1.6-2.8-3.6-2.8C446.8,268.7,445.2,270,445.2,271.5
		z"/>
	<path class="st26" d="M460,231.7c-4.3-2-8.6-6.4-13.4-7.3c-3.3-0.6-6.2,0.7-9.5,1.1c-3.8,0.6-8.2,0.3-11.9,1.4
		c-5.9,1.7-10.5,7-8.5,12.4c-1.4,2.7-2.3,5.7-2.6,8.8c-1,10.2,1.2,16.7,2,16.4c1.2-0.5,2.7-2.9,2.7-7.5c0-6.4,2.4-9.8,4.9-10.9
		c8.5,5.7,18.9,3.8,28.1,0.5c2.2,1.5,4,4.8,4,10.4c0,5.6,1.4,7.1,2.7,7.5c0.8,0.3,3-6.1,2-16.4c-0.2-1.6-0.5-3.3-1-4.8
		C464.8,240.2,467.6,235.3,460,231.7L460,231.7z"/>
	<path class="st21" d="M492.2,363.8c0-1.1-0.1-1.8-0.2-2.7c-0.1-1.7-0.2-3.3-0.4-4.8c-0.7-6.1-1.5-11.4-2.4-16
		c-0.5-2.3-0.8-4.4-1.2-6.2c-0.2-1-0.5-2.4-0.6-3.2c-6.7,2.8-13.4,5.8-20.6,7.4c0.5,1.9,1.1,4.1,1.7,6.6c0.6,2.2,1.2,4.6,1.9,7.1
		c0.7,2.5,1.4,5.1,2.1,7.7c0.4,1.4,0.7,2.6,1,3.9c0.2,0.5,0.2,1.1,0.4,1.7l0.2,0.6v0.1l0,0c0-0.9,0-0.2,0-0.5v0.8v0.1c0,0,0,0,0,0.2
		l-0.1,0.9c-0.1,0.6-0.2,1.3-0.2,2c-0.2,1.4-0.5,2.9-0.6,4.3c-0.5,3-0.9,5.9-1.4,8.9c-0.5,3-1,5.8-1.4,8.7c-0.5,2.8-1,5.5-1.5,8.1
		c-0.5,2.6-1.1,5-1.6,7.2c-0.3,1.1-0.5,2.2-0.8,3.2c-0.3,1-0.8,1.9-1.2,2.7c-0.9,1.7-1.6,3.2-1.9,4.5c-0.7,2.6-0.1,4.4-0.1,4.4v0.1
		c0.2,0.5,0.5,1,0.8,1.4c1.7,2.2,4.8,2.7,7.1,1c0,0,1.5-1.1,2.5-3.6c0.5-1.3,0.8-2.9,1-4.8c0.1-0.9,0.3-2,0.6-3c0.3-1,0.8-2,1.1-3.1
		c0.8-2.1,1.7-4.5,2.7-6.9c1-2.4,2.1-5,3.3-7.7c1.1-2.7,2.3-5.5,3.4-8.3c1.1-2.9,2.4-5.8,3.3-8.8c0.5-1.5,1.1-3,1.5-4.6
		c0.2-0.8,0.5-1.6,0.7-2.5l0.3-1.4c0.1-0.2,0.2-0.5,0.2-0.9l0.2-1.1L492.2,363.8L492.2,363.8z"/>
	<path class="st10" d="M464,289.2c5,6,7.7,12.1,8.3,14.3c0.6,2.4,1.1,4.6,1.7,6.6c0.2,1.1,0.5,2,0.7,3c0.2,1,0.4,1.9,0.7,2.7
		c0.3,0.8,0.8,1.6,1,2.4c0.3,0.8,0.5,1.5,0.5,2.3c0.1,1.5-0.2,2.7-0.6,3.6c-0.4,0.8-0.8,1.2-0.8,1.2c-1.7,1.6-4.4,1.7-6.1,0.2
		l-1.8-1.6c0,0-0.3-0.3-0.6-0.7c-0.2-0.3-0.6-1-0.6-1.7c-0.2-0.8,0.2-2,0.2-3.5c-0.1-1.4-1-3-1.7-4.6c-0.8-1.7-1.8-3.5-2.9-5.3
		c-1.1-1.9-2.4-3.8-3.8-5.8c-1.4-2-2.8-4-4.3-6.1c-0.8-1.1-1.4-2-2.2-3.1l-1.5-2.2C449.8,290.8,463.6,288.8,464,289.2L464,289.2z"/>
	<path class="st9" d="M347.2,214.2c0,5.5,4.5,9.9,10,9.9c5.5,0,10-4.5,10-9.9c0-5.5-4.5-9.9-10-9.9
		C351.7,204.3,347.2,208.8,347.2,214.2z"/>
	<path class="st22" d="M366.4,555.6l-0.3,9.6c-0.1,3.6,2.7,6.6,6.4,6.8l25.3,0.7c1.9,0.1,3.3-1.8,2.7-3.6c-0.4-1.1-1.3-1.7-2.4-1.8
		l-5.5-0.1c-6.8-0.4-12.4-5.4-13.6-12.1L366.4,555.6L366.4,555.6z"/>
	<path class="st22" d="M381.5,539.5c0.2-2.2,0.5-4.4,0.7-6.6c0.3-3.7,0.7-7.4,1-11.1l-19.3-4.2l0.2,2l1,13.1
		c0.2,2.2,0.4,4.4,0.5,6.6c0.2,2.2,0.1,4.4,0.3,6.6c0.5,4.4,1.2,13.3,1.2,13.3c1.6,3,3.5,5.2,6.6,4.8c2.5-0.3,4.6-2.3,5.1-4.6
		c0.8-4.4,1.4-8.8,1.9-13.2C380.9,543.9,381.3,541.8,381.5,539.5L381.5,539.5z"/>
	<path class="st12" d="M366.4,555.6l-0.3,9.6c-0.1,3.6,2.7,6.6,6.4,6.8l25.3,0.7c1.9,0.1,3.3-1.8,2.7-3.6c-0.4-1.1-1.3-1.7-2.4-1.8
		l-5.5-0.1c-6.8-0.4-12.4-5.4-13.6-12.1L366.4,555.6L366.4,555.6z"/>
	<path class="st10" d="M381.5,539.5c0.2-2.2,0.5-4.4,0.7-6.6c0.3-3.7,0.7-7.4,1-11.1l-19.3-4.2l0.2,2l1,13.1
		c0.2,2.2,0.4,4.4,0.5,6.6c0.2,2.2,0.1,4.4,0.3,6.6c0.5,4.4,1.2,13.3,1.2,13.3c1.6,3,3.5,5.2,6.6,4.8c2.5-0.3,4.6-2.3,5.1-4.6
		c0.8-4.4,1.4-8.8,1.9-13.2C380.9,543.9,381.3,541.8,381.5,539.5L381.5,539.5z"/>
	<path class="st27" d="M353,384.5l39.7-11.7c0,0,0.8,21,0.5,27.7c-0.5,13.3-1,41.5-1.8,64.9c-0.8,23.3-6.2,91.4-6.2,91.4
		S372,559,364,557.4c0,0-3.7-65.9-2-83.3c1.7-17.4-1.6-37.9-5.7-64C355,401.4,353.2,392.6,353,384.5L353,384.5z"/>
	<path class="st12" d="M329.1,555.8l-0.2,9.6c-0.1,3.6,2.8,6.6,6.4,6.7l25.3,0.5c1.9,0.1,3.3-1.8,2.7-3.6c-0.4-1.1-1.3-1.7-2.4-1.8
		l-5.5-0.1c-6.8-0.3-12.5-5.2-13.7-11.8L329.1,555.8L329.1,555.8z"/>
	<path class="st10" d="M344.2,540.1c0.3-2.2,0.7-4.4,1-6.6c0.5-3.7,1-7.4,1.4-11.1l-19-4.9l0.1,2l0.5,13.2c0.1,2.2,0.2,4.4,0.3,6.6
		c0.1,2.2-0.1,4.4,0.1,6.6c0.2,4.4,0.5,8.9,0.7,13.3c1.5,3,3.3,5.3,6.4,5c2.5-0.2,4.8-2,5.2-4.4c0.9-4.4,1.7-8.7,2.4-13.1
		C343.6,544.5,343.9,542.3,344.2,540.1L344.2,540.1z"/>
	<path class="st28" d="M363.7,384.5c-1.1,4.8-2,10.2-2.7,17.9c-1.1,13.3-2.8,41.7-4.7,65.1c-1.9,23.4-9.2,91.5-9.2,91.5
		s-13.3,1.7-21.3-0.2c0,0-2-66.3,0.6-83.7c2.5-17.4,0.1-38.2-2.9-64.5c-1-8.9-3.4-23,4-42.4L363.7,384.5L363.7,384.5z"/>
	<path class="st10" d="M332.9,281.6c15.1-0.5,13.7-13.2,13.7-13.2l10.1-0.3l10.1,0.3c0,0-1.4,12.8,13.7,13.2
		c4.9,0.2,14.7,16,14.7,16H326C326,297.7,330.6,281.7,332.9,281.6L332.9,281.6z"/>
	<path class="st14" d="M367.2,272.3c0.3,1.2,0.8,2.5,1.5,3.8c-4.7,10.2-17.8,11.5-23.7-0.7c0.5-0.8,0.8-1.9,1-3.1L367.2,272.3
		L367.2,272.3z"/>
	<path class="st10" d="M380.1,236.7c-1.4-14.8-12.3-23.3-22.9-23.1c-10.7,0.2-21.3,9-22.4,23.8c-0.6,8.6,1.3,18.1,2.7,23.4
		c0.8,3.2,2.4,6.1,4.5,8.4c4.9,5.2,11.1,9.5,16.1,9.4c4.9-0.1,11.1-4.5,15.9-9.9c2-2.4,3.5-5.3,4.2-8.6
		C379.3,254.7,380.9,245.3,380.1,236.7L380.1,236.7z"/>
	<path class="st16" d="M320,323.4l-16.1-7.1c3.9-14,5.5-23.4,11.8-29.6c6.4-6.2,21.4-6,21.4-6s3.8,12.4,19.6,12.4
		c15.9,0,18.8-13,18.8-13s23.4-4.4,31.7-3c1.6,11.2,3.4,19.1,3.4,19.1l-15.5,11.1l1.4,93.8c0,0-13.6,5.6-36.3,5.6
		c-29,0-40.6-4.6-40.6-4.6L320,323.4L320,323.4z"/>
	<path class="st9" d="M367.8,248.8c0,1,0.8,1.7,1.7,1.7c1,0,1.7-0.8,1.7-1.7c0-1-0.8-1.7-1.7-1.7C368.6,247,367.8,247.8,367.8,248.8
		z"/>
	<path class="st9" d="M334.8,238.3c1.4,9.7,3.6,18.8,11.8,24c0.8-1.4,4.9-4.9,11.3-4.9s9.9,3.4,10.9,4.9c5-3.3,7.8-8.1,9.2-14.2
		c0.3-1.4,0.2-2.7-0.2-3.8c1.1-2.2,2-4.6,2.4-7.2c0.7,8.5-0.9,17.7-2.1,23.1c-0.8,3.3-2.2,6.1-4.2,8.6c-4.7,5.4-10.9,9.8-15.9,9.9
		c-4.9,0.1-11.2-4.1-16.1-9.4c-2.1-2.3-3.6-5.2-4.5-8.4C336.2,255.6,334.4,246.7,334.8,238.3L334.8,238.3z"/>
	<path class="st9" d="M347.2,248.8c0,1-0.8,1.7-1.7,1.7c-1,0-1.7-0.8-1.7-1.7c0-1,0.8-1.7,1.7-1.7
		C346.4,247,347.2,247.8,347.2,248.8z"/>
	<path class="st16" d="M363.3,263.3c0.9,0,1.5,1,1,1.7c-1.5,2.1-3.9,3.6-6.8,3.6s-5.2-1.4-6.7-3.4c-0.5-0.8-0.1-1.8,0.9-1.8
		L363.3,263.3L363.3,263.3z"/>
	<path class="st15" d="M365.7,256.2c0,1.6,1.7,2.9,3.7,2.9c2,0,3.7-1.3,3.7-2.9c0-1.6-1.7-2.9-3.7-2.9
		C367.4,253.3,365.7,254.6,365.7,256.2z"/>
	<path class="st15" d="M349.4,256.2c0,1.6-1.7,2.9-3.7,2.9s-3.7-1.3-3.7-2.9c0-1.6,1.7-2.9,3.7-2.9S349.4,254.6,349.4,256.2z"/>
	<path class="st9" d="M333.8,232.3c1.1-10.5,8.3-20.5,23.7-20.5s22.7,10,23.7,20.5c1.1,10.5-1.2,17.1-2,16.8c-1.3-0.5-2.7-3-2.7-7.7
		c0-9-4.7-12.3-8-11.5c-3.2,0.7-5.5,3.1-10.9,3.1c-5.5,0-7.8-2.4-10.9-3.1c-3.3-0.7-8,2.4-8,11.5c0,5.7-1.4,7.2-2.7,7.7
		C335,249.4,332.8,242.7,333.8,232.3z"/>
	<path class="st10" d="M299.9,352.2v-1.7c0-1.1,0.1-1.9,0.2-2.8c0.1-1.7,0.2-3.3,0.4-4.9c0.7-6.1,1.6-11.7,2.4-16.4
		c0.5-2.4,0.8-4.5,1.2-6.4c0.2-1,0.8-2.4,0.9-3.3c6.8,2.9,13.4,6,20.8,7.7c-0.5,2-1.1,4.2-1.8,6.8c-0.6,2.2-1.3,4.6-2,7.2
		c-0.7,2.5-1.4,5.2-2.1,7.9c-0.4,1.4-0.7,2.7-1,3.9c-0.2,0.6-0.2,1.1-0.4,1.7l-0.2,0.6v0.1l0,0c0-0.9,0-0.2,0-0.5v0.8v0.1
		c0,0,0,0,0,0.2l0.1,0.9c0.1,0.7,0.2,1.4,0.2,2c0.2,1.4,0.5,3,0.7,4.4c0.5,3,1,6.1,1.4,9.1c0.5,3,1,6,1.5,8.9c0.5,2.9,1,5.7,1.5,8.3
		c0.5,2.7,1.1,5.2,1.6,7.4c0.3,1.1,0.5,2.3,0.8,3.3c0.3,1,0.8,2,1.2,2.8c0.9,1.7,1.6,3.3,2,4.6c0.7,2.7,0.1,4.5,0.1,4.5v0.1
		c-0.2,0.5-0.5,1-0.8,1.4c-1.7,2.3-4.9,2.7-7.2,1.1c0,0-1.6-1.1-2.6-3.7c-0.5-1.3-0.8-3-1.1-4.9c-0.2-1-0.3-2-0.6-3
		c-0.3-1.1-0.8-2-1.2-3.2c-0.8-2.2-1.8-4.6-2.8-7.1c-1-2.5-2.2-5.2-3.3-7.9c-1.1-2.8-2.4-5.6-3.5-8.5c-1.1-3-2.4-5.9-3.4-9
		c-0.5-1.5-1.1-3.1-1.5-4.7c-0.2-0.8-0.5-1.7-0.7-2.5l-0.4-1.6c-0.1-0.2-0.2-0.5-0.2-0.9l-0.3-1.1L299.9,352.2L299.9,352.2z"/>
	<path class="st29" d="M353.6,479h65.5v-51.7h-65.5L353.6,479L353.6,479z"/>
	<path class="st17" d="M381.5,479h37.6v-51.7h-37.6V479z"/>
	<path class="st16" d="M392.9,465.7h16.6V457h-16.6V465.7z"/>
	<path class="st17" d="M516,508.9h71.6v-32.5H516V508.9z"/>
	<path class="st18" d="M549.9,508.9h37.6v-32.5h-37.6V508.9z"/>
	<path class="st16" d="M561.3,495.5h16.6v-8.6h-16.6V495.5z"/>
	<path class="st29" d="M431.5,509.8h91.8v-72.4h-91.8V509.8z"/>
	<path class="st17" d="M470.6,509.8h52.6v-72.4h-52.6V509.8z"/>
	<path class="st16" d="M488.6,496.4h16.6v-8.6h-16.6V496.4z"/>
	<path class="st17" d="M306.8,509.8h127.8v-32.5H306.8V509.8z"/>
	<path class="st18" d="M397,509.8h37.6v-32.5H397V509.8z"/>
	<path class="st16" d="M408.4,496.4H425v-8.6h-16.6V496.4z"/>
	<path class="st9" d="M309.6,587.2v22.4h37.9v-11.1h21.1v11.1h39.4v-11.1h19.6v11.1H467v-11.1H488v11.1H526v-11.1h21.1v11.1H585
		v-22.4H309.6z"/>
	<path class="st29" d="M317.1,588.5h133.4v-79.8H317.1V588.5z"/>
	<path class="st17" d="M413,588.5h37.6v-79.8H413V588.5z"/>
	<path class="st16" d="M424.3,575.2h16.6v-8.6h-16.6V575.2z"/>
	<path class="st29" d="M449.4,588.5h127.8v-79.8H449.4V588.5z"/>
	<path class="st17" d="M539.6,588.5h37.6v-79.8h-37.6V588.5z"/>
	<path class="st16" d="M551,575.2h16.6v-8.6H551V575.2z"/>
</g>
</svg>
