<?xml version="1.0" encoding="utf-8"?>
<!-- Generator: Adobe Illustrator 28.2.0, SVG Export Plug-In . SVG Version: 6.00 Build 0)  -->
<svg version="1.1" id="Layer_1" xmlns="http://www.w3.org/2000/svg" xmlns:xlink="http://www.w3.org/1999/xlink" x="0px" y="0px"
	 viewBox="0 0 1920 1000.9" style="enable-background:new 0 0 1920 1000.9;" xml:space="preserve">
<style type="text/css">
	.st0{clip-path:url(#SVGID_00000033349560894075655640000005058424132157765509_);}
	.st1{fill:#632424;}
	.st2{fill:#2E351D;}
	.st3{fill:#272E14;}
	.st4{fill:#414A2B;}
	.st5{fill:#36401C;}
	.st6{fill:#642424;}
	.st7{fill:#551615;}
	.st8{fill:#4E1112;}
	.st9{opacity:0.5;}
	.st10{fill:#57623B;}
	.st11{fill:#4A5428;}
	.st12{fill:#677446;}
	.st13{fill:#56642F;}
	.st14{fill:#D6DDAB;}
	.st15{clip-path:url(#SVGID_00000058590215358523846920000014355963591471649427_);}
	.st16{fill:#A5AE76;}
	.st17{fill:#89974F;}
	.st18{fill:#52734C;}
	.st19{fill:#40603D;}
	.st20{fill:#B4D494;}
	.st21{fill:#505C43;}
	.st22{fill:#DDFFBC;}
	.st23{fill:#687858;}
	.st24{fill:#354A32;}
	.st25{fill:#52734D;}
	.st26{opacity:0.3;}
	.st27{fill:#80B079;}
	.st28{clip-path:url(#SVGID_00000131348965213140805930000002896312736766437539_);}
	.st29{fill:#3A8E3E;}
	.st30{fill:#21C130;}
	.st31{fill:#30282B;}
	.st32{fill:#312827;}
	.st33{fill:#473B3A;}
	.st34{fill:#356D37;}
	.st35{fill:#1CA028;}
	.st36{fill:#53F463;}
	.st37{fill:#FFFFFF;}
	.st38{fill:#AD831A;}
	.st39{fill:#96731A;}
	.st40{fill:#E5B816;}
	.st41{fill:#C1951B;}
	.st42{fill:#896619;}
	.st43{fill:#F9D86E;}
</style>
<g>
	<g>
		<defs>
			<rect id="SVGID_1_" x="-2.2" y="86.9" width="983.5" height="655.7"/>
		</defs>
		<clipPath id="SVGID_00000144308927865581264320000010612831388895590297_">
			<use xlink:href="#SVGID_1_"  style="overflow:visible;"/>
		</clipPath>
		<g style="clip-path:url(#SVGID_00000144308927865581264320000010612831388895590297_);">
			<path class="st1" d="M276,891.2c-15.3-66.4-16.8-135.1-2.1-201.7c-1.4,0-2.6,0.1-4,0.1c-7.5,20-11.7,41.5-12.7,62.9
				c-0.5-18.7-1.7-37.4-4-56c-1.2,0.1-2.5,0.3-3.6,0.4c2.3,63.7,1.2,127.6-3.3,191.2L276,891.2L276,891.2z"/>
			<path class="st2" d="M352,675.8c3.2,7.1,3,15.9-1.4,22.3c-3.8,5.5-10.4,8.5-17,9.6c-6.6,1.1-13.3,0.4-20-0.3
				c2.7,4.3,1,10.7-3.5,13c-4.5,2.3-10.8,0-12.7-4.7c-0.4,6.1-6.8,10.8-13,10.4c-6.1-0.4-11.5-5.1-13.8-10.7
				c-2.3-5.7-2-12.2-0.4-18.1c-1.3,2.9-4.6,4.6-7.7,4.1c-2.6-0.4-5-2.4-5.9-4.9c1,5-0.8,10.5-4.7,14c-4.2,3.7-10.6,4.8-15.7,2.6
				c1.4,3.1,0.1,7.1-2.9,8.7c-3,1.6-7.2,0.4-8.8-2.6c-2,9.6-13.2,16.1-22.6,13.1c-9.3-3-14.6-14.9-10.6-23.8c-1.7,2-3.7,4.2-6.4,4.5
				c-2.7,0.3-5.9-4.1-4.3-6.2c-2.5,3.3-5,6.6-8.5,8.7c-3.5,2.2-8.1,3-11.6,0.9c-4.5-2.6-5.6-8.9-3.9-13.8c1.7-4.9,5.5-8.7,9.3-12.3
				c-4.4-2.9-4.5-10.4-0.1-13.4c-5.4,1.3-11.8,2.1-15.7-1.8c-4.3-4.1-3-11.6,1-16c0.1-0.1,0.2-0.2,0.3-0.3c4.2-4.3,10.2-6.1,16-7.7
				c-2.5,0.6-5.1-2.1-4.6-4.7c0.5-2.7,3.9-5.7,6.5-4.9c-7.6-1.7-15.4-3.6-21.4-8.5c-6-4.9-9.4-13.9-5.5-20.6c2.6-4.5,7.8-7,12.9-7.6
				c5.1-0.6,10.3,0.4,15.4,1.4c-4-3.7-4.2-10.7-0.5-14.7c3.7-4,10.7-4.2,14.7-0.5c-2.5-4.9-2.7-10.8-0.7-15.8c2-5,6.3-9.1,11.4-11
				c6.4-2.3,13.7-1,19.7,2.1c6.1,3,11.2,7.7,16.1,12.4c2.8-1.6,6.6-1.1,9.1,1c2.5,2.1,3.4,5.8,2.2,8.8c4.6-3.8,11.3-5,17-3
				c2.6,0.9,4.9,2.5,6.8,4.6c1.2-1.2,2.6-2.2,4.2-2.9c4.6-2,11.2,0,12,4.9c1.2-6.8,3.3-13.5,7.4-19.1c4-5.6,10.1-10,16.9-10.9
				c6.8-0.9,14.3,2.1,17.8,8c3.5,6.1,2.3,13.9,0.6,20.7c5.8,1.2,8.9,9.1,5.4,13.9c2.7-2.6,5.7-5,9.2-6.3c3.5-1.3,7.5-1.5,10.8,0.2
				c1.9,1,3.3,2.5,4.4,4.3c1.7,2.7,2.4,6.2,2.6,9.4c0.5,13.8-8.8,27.4-21.9,31.8c4.3-1.5,9.6,2,9.9,6.6c0.3,4.6-4.8,9.1-9.3,8.3
				C343,663.1,349,668.7,352,675.8L352,675.8z"/>
			<g>
				<path class="st3" d="M352,675.8c3.2,7.1,3,15.9-1.4,22.3c-3.8,5.5-10.4,8.5-17,9.6c-6.6,1.1-13.3,0.4-20-0.3
					c2.7,4.3,1,10.7-3.5,13c-4.5,2.3-10.8,0-12.7-4.7c-0.4,6.1-6.8,10.8-13,10.4c-6.1-0.4-11.5-5.1-13.8-10.7
					c-2.3-5.7-2-12.2-0.4-18.1c-1.3,2.9-4.6,4.6-7.7,4.1c-2.6-0.4-5.1-2.4-5.9-4.9c1,5-0.8,10.5-4.7,14c-4.2,3.7-10.6,4.8-15.7,2.6
					c1.4,3.1,0.1,7.1-2.9,8.7c-3,1.6-7.2,0.4-8.8-2.6c-2,9.6-13.2,16.1-22.6,13.1c-9.3-3-14.6-14.9-10.6-23.8
					c-1.7,2-3.7,4.2-6.4,4.5c-2.7,0.3-5.9-4.1-4.3-6.2c-2.5,3.3-5,6.6-8.5,8.7c-3.5,2.2-8.1,3-11.6,0.9c-4.5-2.6-5.6-8.9-3.9-13.8
					c1.7-4.9,5.5-8.7,9.3-12.3c-4.4-2.9-4.5-10.4-0.1-13.4c-5.4,1.3-11.8,2.1-15.7-1.8c-4.3-4.1-3-11.6,1-16c0.2,0.8,0.5,1.5,1,2.1
					c1.8,2.7,5,4.1,8.3,4.3c3.2,0.1,6.4-0.9,9.2-2.4c6.2-3.2,11.3-8.4,14.3-14.8c0.6,2.1,2.2,3.9,4.2,4.6c2,0.8,4.4,0.6,6.3-0.6
					c-4.9,3.9-6.8,11-5,17c1.7,6,6.7,10.9,12.6,13.1c5.9,2.2,12.5,1.9,18.4-0.2c6.7-2.4,12.8-7.3,15.2-14c-5.6-1.5-10.6-5.6-12.8-11
					c5-1.6,11-0.6,14.7,3.2c-0.8-5.1,1-10.6,4.5-14.4c2.9,2.4,4.7,6.1,4.9,9.8c0.1,2.4-0.2,5,1.4,6.7c1.2,1.3,3.3,1.6,4.7,0.7
					c1.5-0.9,2.2-2.9,1.6-4.5c2,3.2,5.5,5.4,9.2,6.3c3.7,0.9,7.6,0.8,11.4,0c3.5-0.7,7.1-1.9,9.5-4.4c2.3-2.3,3.5-5.5,3.9-8.6
					c0.4-3.2,0.2-6.4,0-9.6c2.8,1.6,5.5,2.2,8.7,2.1c3.3-0.1,6.6-2.8,6.2-6c3.5,2.5,7.8,3.9,12.1,3.6c4.3-0.4,8.4-2.7,10.6-6.4
					c2.2-3.7,2-8.7-0.7-12c5.3,2.6,11.8,2.2,17-0.6c5.2-2.7,9.1-7.7,11.1-13.2c0.9-2.4,1.4-4.8,1.6-7.3c1.7,2.7,2.4,6.2,2.6,9.4
					c0.5,13.8-8.8,27.4-21.9,31.8c4.3-1.5,9.6,2,9.9,6.6c0.3,4.6-4.8,9.1-9.3,8.3C343,663,349,668.6,352,675.8L352,675.8z"/>
			</g>
			<path class="st4" d="M356.9,445c0,11.4-6.1,22.1-14.5,29.8c-8.4,7.7-19,12.6-29.7,16.3c3.5,1.5,8.9,2.6,11.6,5.4
				c2.6,2.8,4,7.1,2.3,10.6c-1.5,3-5.9,4.2-8.5,2.4c10.2,9.7,17.2,22.8,19.7,36.7c1.6,8.9,0.3,19.8-7.6,24.1
				c-5.5,3-12.7,1.6-17.9-1.9c-5.3-3.5-9.1-8.8-12.7-13.9c3.4,5.9-2.5,14.6-9.2,13.7c8.7,10.3,17.7,21.2,20.6,34.4
				c2.9,13.2-2.7,29.3-15.6,33.6c-7.5,2.5-15.8,0.6-22.6-3.4c-6.8-3.9-12.3-9.7-17.7-15.3c0.8,7.9-6.1,15.7-14,16
				c-5,0.2-9.8-2.7-12.6-6.8c1,9.6-4,19.8-12.8,24c-11.4,5.4-26.8-0.8-31.4-12.5c2,6.4-3,13.7-9.4,15.1c-1.2,0.3-2.3,0.3-3.6,0.2
				c1.7,2.6,3,5.5,3.9,8.5c1.6,5.2,2,10.7,1.4,16.1c-0.7,5.9-2.6,11.6-5.8,16.6c-7.7,12.3-21.8,20-36.2,21
				c-14.5,1.1-29.1-4.1-40.5-13c-11.9,7.5-28.7,5.9-39.1-3.7c-9.9-9.2-8.2-19.7-12.8-31c-3.7-9.2-10-15.3-11.6-25.8
				c-3-19.6,4.6-41.3,21.2-52.7c-30.2-20.8-50.4-55.4-53.7-91.9c-3.3-36.4,10.4-74.1,36.4-99.9c-11.1-8.7-14.2-25-9.7-38.3
				c4.5-13.3,15.3-23.7,27.6-30.6C63.6,322.6,83,321,91.4,313c9-8.6,8.8-20.1,25.1-20.8c11.4-0.5,22.7,7.1,26.6,17.8
				c0.7-4.5,5-8.1,9.6-8c4.5,0.1,8.7,3.8,9.2,8.3c13-17.2,29.6-31.6,48.5-42c10.7-5.9,24-10.5,34.9-5c9.7,4.9,14.3,16.8,13.8,27.7
				c-0.5,10.9-5.1,21.1-9.6,31c6.9-4.9,17.6-2.8,22.2,4.2c4.6,7,2.2,17.7-5.1,22c12.2-2.8,25-5.6,36.9-1.8
				c11.9,3.8,21.8,16.8,17.6,28.5c-3,8.3-11.5,12.9-19.6,16.6c5.6-1.9,12.5,0.4,15.4,5.6c3.2,5.8,0.9,14-4.9,17.2
				c9.3-3.7,20.3-2.7,28.9,2.3c0.6,0.3,1.1,0.7,1.7,1.1C351.3,423.8,356.9,434.4,356.9,445z"/>
			<g>
				<path class="st5" d="M334.7,448.2c-8.5,11.3-23.9,16.8-37.6,13.5c2.9,1.8,3.9,5.9,2.3,8.9c-1.7,2.9-5.9,4.1-8.8,2.5
					c3.9,13,3.8,27.8-3.2,39.4c-7.1,11.6-22.1,18.7-34.9,14.1c-3.9,2.2-9.9,1.8-12.4-1.9c0.8,2,1.5,4.1,1.7,6.2
					c0.2,2.1-0.1,4.4-1.3,6.2c-1.7,2.4-5.1,3.4-7.9,2.3c0.6,3.2,1.8,6.1,2.9,9.2c1.1,3.1,1.6,6.7-0.1,9.6c-4.9-3.3-8.3-8.8-9.3-14.7
					c0.2,1.6-0.5,3.4-1.7,4.4c-1.3,1.2-3.3,1.6-5,0.9c2.8,8.1,0.6,17.4-3.5,25c-4,7.6-10.1,13.9-16,20.1
					c-7.9,8.3-15.8,16.5-23.7,24.7c-1.1,11.6-1.5,23.1-1.2,34.5c0.1,2.9,0.2,5.8,0.4,8.7c0.3,5.4,0.8,10.7,1.4,16.1
					c-0.7,5.9-2.6,11.6-5.8,16.6c-7.7,12.3-21.8,20-36.2,21c-14.5,1.1-29.1-4.1-40.5-13c-11.9,7.5-28.7,5.9-39.1-3.7
					c-9.9-9.2-8.2-19.7-12.8-31c-3.7-9.2-10-15.3-11.6-25.8c-3-19.6,4.6-41.3,21.2-52.7c-30.2-20.8-50.4-55.4-53.7-91.9
					c-3.3-36.4,10.4-74.1,36.4-99.9c-11.1-8.7-14.2-25-9.7-38.3c4.5-13.3,15.3-23.7,27.6-30.6C63.6,322.6,83,321,91.4,313
					c9-8.6,8.8-20.1,25.1-20.8c11.4-0.5,22.7,7.1,26.6,17.8c0.7-4.5,5-8.1,9.6-8c4.5,0.1,8.7,3.8,9.2,8.3c13-17.2,29.6-31.6,48.5-42
					c10.7-5.9,24-10.5,34.9-5c9.7,4.9,14.3,16.8,13.8,27.7c-0.5,10.9-5.1,21.1-9.6,31c6.9-4.9,17.6-2.8,22.2,4.2
					c4.6,7,2.2,17.7-5.1,22c12.2-2.8,25-5.6,36.9-1.8c11.9,3.8,21.8,16.8,17.6,28.5c-3,8.3-11.5,12.9-19.6,16.6
					c5.6-1.9,12.5,0.4,15.4,5.6c3.2,5.8,0.9,14-4.9,17.2c9.3-3.7,20.3-2.7,28.9,2.3C343.5,427.4,341.4,439.4,334.7,448.2z"/>
			</g>
			<path class="st6" d="M232.1,457.7c-0.3,12.1-1.2,24.2-2.7,36.3c-0.1,0.9-0.2,1.7-0.3,2.6c-0.6,4.2-1.2,8.4-2,12.5
				c-0.1,0.8-0.3,1.5-0.4,2.3c-2.6,13.9-6.2,27.6-11.1,40.9c-0.2,0.6-0.4,1.2-0.7,1.8c-0.1,0.1-0.1,0.3-0.2,0.4
				c-1.3,3.6-2.8,7-4.4,10.4c-0.2,0.6-0.5,1.1-0.8,1.7c-4,8.4-8.8,16.3-14.1,23.7c-0.8,1.1-1.6,2.1-2.4,3.2
				c-5.3,7.1-11.1,13.8-17.4,20.3c-0.7,0.7-1.4,1.5-2.2,2.2c0,0.2,0,0.4,0,0.6c-0.1,2.5-0.2,5-0.3,7.4c0,1-0.1,1.9-0.1,2.9
				c-0.1,4.5-0.3,9-0.4,13.6c0,0.9,0,1.7-0.1,2.6c-0.3,13.9-0.5,27.8-0.6,41.7c0,1.1,0,2.2,0,3.3c0,8.1,0,16.3,0.1,24.4
				c0,1,0,2,0,2.9c0.1,8.9,0.3,17.7,0.6,26.4c0,0.7,0,1.3,0.1,2c0.2,7.6,0.5,15.2,0.8,22.7c0,0.7,0.1,1.5,0.1,2.2
				c0.7,15,1.5,29.9,2.6,44.6c0.1,0.6,0.1,1.3,0.1,1.9c0.7,9.6,1.5,19.2,2.4,28.6c0.1,0.6,0.1,1.2,0.2,1.8c0.4,3.9,0.7,7.7,1.2,11.5
				c0.1,0.6,0.1,1.2,0.2,1.8c0.5,4.6,1,9.1,1.5,13.6c0.1,0.6,0.1,1.2,0.2,1.8c0.9,7.3,1.8,14.4,2.7,21.4c0.1,0.6,0.2,1.2,0.3,1.9
				c0.8,6,1.7,12,2.6,17.9c-12.4,0-23.2,0.1-33.4,0.3c-18.3,0.3-35.2,0.6-57.4,0.6c0.3-8.6,0.7-17.2,1.1-25.9c0-0.6,0.1-1.2,0.1-1.9
				c0.4-9.1,0.8-18.2,1.2-27.4c0.1-1.4,0.1-2.8,0.2-4.2c0,0,0,0,0,0c0.4-8.3,0.8-16.6,1.3-25c0-1,0.1-1.9,0.1-2.9
				c0.3-6.1,0.7-12.2,1-18.4c0.1-1,0.1-1.9,0.2-2.9c0.4-7.1,0.9-14.2,1.3-21.3c0-0.8,0.1-1.7,0.2-2.5c0.5-8.1,1.1-16.2,1.7-24.4
				c0.1-0.8,0.1-1.6,0.2-2.4c1.3-17,2.7-34,4.4-51.1c0.1-0.8,0.2-1.7,0.3-2.5c0.1-1,0.2-2,0.3-3c0.1-1.2,0.2-2.3,0.3-3.5
				c-2.4-5.3-4.6-10.7-6.6-16.1c-0.2-0.6-0.4-1.2-0.7-1.8c-1-2.8-2-5.6-3-8.4c-0.5-1.6-1.1-3.2-1.6-4.8
				c-8.7-27.2-13.5-55.6-14.2-84.1c0-1.2-0.1-2.5-0.1-3.7c-0.1-9.1,0.2-18.3,0.9-27.4c0.1-1.1,0.2-2.3,0.3-3.4
				c1-10.8,2.5-21.6,4.7-32.2c0-0.2,0.1-0.3,0.1-0.5l0.2,0l1.2,0.3l2.3,0.5c0,6.4,0.2,12.9,0.6,19.3c0.1,1,0.1,1.9,0.2,2.9
				c0.3,5.7,0.8,11.5,1.4,17.2c0.1,1.1,0.2,2.3,0.4,3.4c1,9.2,2.4,18.3,4,27.3c0.3,1.5,0.6,3,0.9,4.5c3.6,18.8,8.6,37.3,14.9,55.4
				c0.7-5.1,1.3-10.2,2.1-15.3c0.1-0.6,0.2-1.2,0.3-1.9c0.7-4.8,1.3-9.5,2.1-14.3c0.1-0.6,0.2-1.2,0.3-1.8
				c0.8-5.3,1.6-10.6,2.5-15.9c0.1-0.7,0.2-1.4,0.3-2.1c0.4-2.4,0.8-4.7,1.2-7.1c0.2-1,0.3-2,0.5-3c2.2-12.6,4.5-25.1,7.1-37.5v-0.1
				c1-4.6,1.9-9.1,2.9-13.7c0,0,0-0.1,0-0.1c1.1-4.9,2.2-9.9,3.4-14.8V518c0.8-3.4,1.6-6.9,2.5-10.2c0,0,0-0.1,0-0.1
				c0.7-2.9,1.4-5.7,2.1-8.6c0.2-0.8,0.4-1.6,0.6-2.4c1.1-4.1,2.2-8.3,3.3-12.4c0.2-0.8,0.4-1.7,0.7-2.5c2.4-8.6,4.8-17,7.5-25.4
				c0.2-0.6,0.4-1.1,0.6-1.7c0.9-2.9,1.9-5.9,2.8-8.8l21.3,3.3l7.1,1.1c-0.2,1.6-0.4,3.2-0.7,4.8c-0.1,0.6-0.2,1.3-0.3,1.9
				c-0.5,3.9-1,7.7-1.5,11.7c-0.1,0.7-0.2,1.3-0.3,2c-0.8,6.3-1.5,12.7-2.3,19.1c-0.1,0.8-0.2,1.6-0.3,2.4c-0.8,7-1.5,14-2.2,21.1
				c-0.1,1-0.2,2-0.3,3c-0.3,3.7-0.7,7.5-1,11.3c-0.1,1.1-0.2,2.1-0.3,3.2c-0.6,6.6-1.1,13.3-1.6,20c-0.1,1-0.1,1.9-0.2,2.9
				c-0.4,5.1-0.7,10.3-1.1,15.5c0,0.7-0.1,1.3-0.1,2c-0.1,0.8-0.1,1.6-0.1,2.3c0.8-1.1,1.6-2.1,2.4-3.3c0.6-0.9,1.2-1.7,1.8-2.6
				c6.4-8.9,12.2-18.2,17.5-27.8c1-1.8,2-3.6,2.9-5.4c0-0.1,0-0.1,0.1-0.2c0.5-0.9,0.9-1.8,1.4-2.6c0-0.1,0-0.1,0.1-0.2
				c1.3-2.5,2.6-5.1,3.8-7.6c2.6-5.4,5-10.9,7.2-16.5c0.4-0.9,0.7-1.8,1.1-2.7c6-15.3,10.6-31.1,13.8-47.1c1.5,0.1,3,0.1,4.5,0.2
				L232.1,457.7z"/>
			<path class="st7" d="M232,457.7c-0.3,12.1-1.2,24.2-2.7,36.3c-0.1,0.9-0.2,1.7-0.3,2.6c-0.6,4.2-1.2,8.4-2,12.5
				c-0.1,0.8-0.3,1.5-0.4,2.3c-2.6,13.9-6.2,27.6-11.1,40.9c-0.2,0.6-0.4,1.2-0.7,1.8c-0.1,0.1-0.1,0.3-0.2,0.4
				c-1.3,3.6-2.8,7-4.4,10.4c-0.2,0.6-0.5,1.1-0.8,1.7c-4,8.4-8.8,16.3-14.1,23.7c-0.8,1.1-1.6,2.1-2.4,3.2
				c-5.3,7.1-11.1,13.8-17.4,20.3c-0.7,0.7-1.4,1.5-2.2,2.2c0,0.2,0,0.4,0,0.6c-0.1,2.5-0.2,5-0.3,7.4c0,1-0.1,1.9-0.1,2.9
				c-0.1,4.5-0.3,9-0.4,13.6c0,0.9,0,1.7-0.1,2.6c-0.3,13.9-0.5,27.8-0.6,41.7c0,1.1,0,2.2,0,3.3c0,8.1,0,16.3,0.1,24.4
				c0,1,0,2,0,2.9c0.1,8.9,0.3,17.7,0.6,26.4c0,0.7,0,1.3,0.1,2c0.2,7.6,0.5,15.2,0.8,22.7c0,0.7,0.1,1.5,0.1,2.2
				c0.7,15,1.5,29.9,2.6,44.6c0.1,0.6,0.1,1.3,0.1,1.9c0.7,9.6,1.5,19.2,2.4,28.6c0.1,0.6,0.1,1.2,0.2,1.8c0.4,3.9,0.7,7.7,1.2,11.5
				c0.1,0.6,0.1,1.2,0.2,1.8c0.5,4.6,1,9.1,1.5,13.6c0.1,0.6,0.1,1.2,0.2,1.8c0.9,7.3,1.8,14.4,2.7,21.4c0.1,0.6,0.2,1.2,0.3,1.9
				c0.8,6,1.7,12,2.6,17.9c-12.4,0-23.2,0.1-33.4,0.3c-8.1-155.9,0.7-312.8,26.4-466.8l7.1,1.1c-0.2,1.6-0.4,3.2-0.7,4.8
				c-0.1,0.6-0.2,1.3-0.3,1.9c-0.5,3.9-1,7.7-1.5,11.7c-0.1,0.7-0.2,1.3-0.3,2c-0.8,6.3-1.5,12.7-2.3,19.1c-0.1,0.8-0.2,1.6-0.3,2.4
				c-0.8,7-1.5,14-2.2,21.1c-0.1,1-0.2,2-0.3,3c-0.3,3.7-0.7,7.5-1,11.3c-0.1,1.1-0.2,2.1-0.3,3.2c-0.6,6.6-1.1,13.3-1.6,20
				c-0.1,1-0.1,1.9-0.2,2.9c-0.4,5.1-0.7,10.3-1.1,15.5c0,0.7-0.1,1.3-0.1,2c-0.1,0.8-0.1,1.6-0.1,2.3c0.8-1.1,1.6-2.1,2.4-3.3
				c0.6-0.9,1.2-1.7,1.8-2.6c6.4-8.9,12.2-18.2,17.5-27.8c1-1.8,2-3.6,2.9-5.4c0-0.1,0-0.1,0.1-0.2c0.5-0.9,0.9-1.8,1.4-2.6
				c0-0.1,0-0.1,0.1-0.1c1.3-2.5,2.6-5.1,3.8-7.6c2.6-5.4,5-10.9,7.2-16.5c0.4-0.9,0.7-1.8,1.1-2.7c6-15.3,10.6-31.1,13.8-47.1
				C229.1,457.6,230.6,457.6,232,457.7L232,457.7z"/>
			<g>
				<path class="st8" d="M172,715.5c-1.6,2-3.1,4-4.7,6c-14.2,17.7-29.6,34.3-46.2,49.7c-5.8,5.4-11.8,10.6-17.8,15.7
					c0-0.8,0.1-1.7,0.2-2.5c15.2-12.8,29.6-26.6,43-41.3c8.9-9.8,17.5-19.9,25.5-30.4C172,713.6,172,714.6,172,715.5L172,715.5z"/>
				<path class="st8" d="M134.1,776c-10.8,11.7-21.5,23.4-32.3,35c0.1-1,0.1-1.9,0.2-2.9c3.7-4,7.4-8,11.1-12
					c8.6-9.3,17.2-18.7,25.9-28c7.5-7.9,15.4-15.6,24.6-21.4c2.9-1.8,5.9-3.4,9-4.8c0,0.7,0,1.3,0.1,2c-0.6,0.3-1.2,0.6-1.7,0.8
					c-4.8,2.4-9.3,5.3-13.4,8.6C148.9,760,141.5,768,134.1,776L134.1,776z"/>
				<path class="st8" d="M140,725.6c11.8-12.6,22.4-26.3,31.8-40.8c0,1.1,0,2.2,0,3.3c-10.7,16.1-23,31.3-36.6,45.1
					c-9.4,9.6-19.5,18.5-30.1,26.8c0.1-0.8,0.1-1.6,0.2-2.4C117.7,747.8,129.3,737.1,140,725.6L140,725.6z"/>
				<path class="st8" d="M172.5,640.5c0,0.9,0,1.7-0.1,2.6c-1,0.9-2,1.9-3,2.8c-18.2,17.5-33.2,38.2-52.4,54.6c-2.4,2-4.8,4-7.3,5.9
					c0.1-0.8,0.2-1.7,0.3-2.5c6.4-4.9,12.4-10.5,18.1-16.2c9-9.1,17.3-18.8,25.9-28.3c4.4-4.8,8.9-9.6,13.6-14.2
					C169.1,643.6,170.8,642.1,172.5,640.5L172.5,640.5z"/>
				<path class="st8" d="M173,624.1c0,1-0.1,1.9-0.1,2.9c-3.7,4.5-7.8,8.6-12.1,12.4c-9.2,7.9-19.3,14.8-29.1,21.9l-27.8,20.2
					c-0.2-0.6-0.4-1.2-0.7-1.8c4.3-3.1,8.5-6.2,12.8-9.3c10.4-7.5,20.8-15,31.1-22.6c9.3-6.9,18.5-14.2,25.5-23.4
					C172.7,624.2,172.9,624.1,173,624.1L173,624.1z"/>
				<path class="st8" d="M101.6,590.4c-2.7,12.7-3.8,25.7-3.2,38.7c0.6,13.7,3,28.2,1.9,42.1c-0.5-1.6-1.1-3.2-1.6-4.8
					c0.1-2.6,0.1-5.1,0-7.6c-0.4-11.8-2.2-23.5-2.3-35.3c-0.1-10.4,0.9-20.9,2.9-31.1c0.4-2.2,0.9-4.4,1.4-6.5
					C101,587.4,101.3,588.9,101.6,590.4L101.6,590.4z"/>
				<path class="st8" d="M175.5,613.8c-0.7,0.7-1.4,1.5-2.2,2.2c0,0.2,0,0.4,0,0.6c-10.2,4-20.2,8.4-30.7,11.7
					c-6.8,2.1-14.2,4.5-21.3,3c-0.9-0.2-1.9-0.5-2.7-0.8c0.1-0.6,0.2-1.2,0.3-1.9c3.2,1.3,6.9,1.5,10.2,1.1c3.7-0.4,7.4-1.5,11-2.6
					c3.5-1.1,7-2.3,10.4-3.5C158.9,620.6,167.1,617,175.5,613.8L175.5,613.8z"/>
				<path class="st8" d="M94.9,538c-0.2,0.2-0.3,0.5-0.5,0.7c-3,4.2-6,8.3-9.1,12.4c0.1-1.2,0.2-2.3,0.3-3.4c3-4.2,6.1-8.4,9.2-12.6
					C94.8,536.1,94.9,537.1,94.9,538L94.9,538z"/>
				<path class="st8" d="M96.7,558.6c-4,8-8,15.9-12.2,23.7c0-1.2-0.1-2.5-0.1-3.7c4-7.7,8-15.5,11.9-23.4
					C96.4,556.3,96.6,557.4,96.7,558.6z"/>
				<path class="st8" d="M185.2,468.6c-0.1,0.7-0.2,1.3-0.3,2c-0.4,0.2-0.9,0.3-1.3,0.4c-6.9,2.4-13.7,4.8-20.6,7.2
					c-3.2,1.1-6.4,2.2-9.6,3.4c-1.9,0.7-3.9,1.6-5.6,2.7c0.2-0.8,0.4-1.7,0.7-2.5c0.7-0.4,1.4-0.7,2.1-1c2.8-1.2,5.7-2.1,8.5-3.1
					c3.3-1.1,6.6-2.3,9.9-3.4C174.4,472.4,179.8,470.6,185.2,468.6L185.2,468.6z"/>
				<path class="st8" d="M168,540.6c3.6-4.3,7.2-8.6,10.8-13c-0.1,1.1-0.2,2.1-0.3,3.2c-1.8,2.1-3.6,4.3-5.4,6.4
					c-7.3,8.7-14.9,19-26.2,22.4c-4.6,1.4-11.3,1.9-13.6-3.5c-1.1-2.6-0.8-5.5-0.6-8.3l0.1-1v-0.1c1-4.6,1.9-9.1,2.9-13.7
					c-0.3,4.3-0.7,8.6-1,12.9c-0.2,2.9-0.8,6,0.1,8.8c0.9,2.9,3.7,3.9,6.5,3.9c5.4-0.1,10.7-2.9,14.8-6.1
					C160.6,549.2,164.4,544.9,168,540.6z"/>
				<path class="st8" d="M182.6,489.8c-0.1,0.8-0.2,1.6-0.3,2.4c-0.5,0.3-0.9,0.7-1.4,1c-5.2,3.6-10.2,7.6-16.1,10
					c-5.2,2.1-11.4,2.6-16.5-0.1c-1.7-0.9-3.3-2.3-4.5-3.9c0.2-0.8,0.4-1.6,0.6-2.4c0.5,0.9,1.1,1.8,1.8,2.5
					c4.3,4.4,11.2,4.4,16.7,2.6c6.3-2.1,11.7-6.5,17-10.3C180.9,491,181.8,490.4,182.6,489.8z"/>
				<path class="st8" d="M186.9,455.1c-0.1,0.6-0.2,1.3-0.3,1.9c-0.1,0-0.2,0-0.3,0c-10.1,1.3-20.5,1.1-30.5-0.6
					c0.2-0.6,0.4-1.1,0.6-1.7C166.5,456.4,176.8,456.5,186.9,455.1z"/>
				<path class="st8" d="M180.2,513.3c-0.1,1-0.2,2-0.3,3c-0.6,0.7-1.3,1.3-1.9,2c-4.3,4.3-9.2,8.1-14.3,11.3
					c-2.6,1.7-5.4,3.2-8.2,4.5c-2.8,1.3-5.8,2.3-8.9,1.8c-2.8-0.4-5-2.1-6.1-4.7c-1.2-2.8-1.1-6.1-1.2-9.1c0-1.3,0-2.5,0-3.8v-0.2
					c0.8-3.4,1.6-6.9,2.5-10.2c-0.6,5.2-0.8,10.5-0.6,15.8c0.1,2.7,0,5.9,1.7,8.1c1.7,2.4,5,2.8,7.7,2.2c3-0.7,5.7-2.2,8.4-3.7
					c2.4-1.3,4.8-2.8,7-4.4C171.2,522.3,176,518.1,180.2,513.3L180.2,513.3z"/>
				<path class="st8" d="M177,550.8c-0.1,1-0.1,1.9-0.2,2.9c-6.5,6.4-14.5,11.2-22.5,15.5c-6.2,3.4-12.6,6.6-18.7,10.4
					c-3,1.9-5.9,3.9-8.6,6.2c-0.6,0.5-1.2,1.1-1.8,1.7c0.2-1,0.3-2,0.5-3c0.7-0.6,1.4-1.1,2-1.6c2.9-2.2,5.9-4.2,9-6.1
					c6.2-3.8,12.7-7,19.1-10.5C163.4,562,171,557.1,177,550.8L177,550.8z"/>
				<path class="st8" d="M159.2,579.1c5-4.2,10.6-7.5,16.5-10c0,0.7-0.1,1.3-0.1,2c-2.4,1-4.7,2.2-6.9,3.5
					c-6.3,3.7-11.5,8.8-17.1,13.4c-5.3,4.4-11.3,8.4-18.2,9.7c-2.9,0.6-6.1,0.8-8.9-0.5c-0.3-0.1-0.6-0.3-0.8-0.5
					c0.1-0.7,0.2-1.4,0.3-2.1c1.9,2.1,5.7,1.9,8.3,1.5c3.4-0.6,6.7-1.9,9.7-3.6C148.4,588.9,153.6,583.7,159.2,579.1L159.2,579.1z"
					/>
				<path class="st8" d="M210.2,564.9c-0.2,0.6-0.5,1.1-0.8,1.7c-7.6-1.1-15.4-0.7-22.9,0.9c-2.9,0.7-5.8,1.5-8.6,2.6
					c0.6-0.8,1.2-1.7,1.8-2.5c4.4-1.5,8.9-2.5,13.7-3C198.9,564,204.6,564.1,210.2,564.9L210.2,564.9z"/>
				<path class="st8" d="M195.2,590.3c-0.8,1.1-1.6,2.1-2.4,3.2c-0.4,0.2-0.9,0.5-1.4,0.7c-11.6,5.6-23.6,10.3-35.9,13.9
					c-6.3,1.9-12.7,3.5-19.1,4.8c-5.1,1-10.3,1.8-15.5,1.5c0.1-0.6,0.2-1.2,0.3-1.8c6.1,0.3,12.3-0.9,18.3-2.2
					C158.8,606.2,177.6,599.4,195.2,590.3L195.2,590.3z"/>
				<path class="st8" d="M203.8,548.5c3.4,2.7,7.5,3.6,11.7,3.7c-0.2,0.6-0.4,1.2-0.7,1.8c-4.8-0.2-9.3-1.5-13-4.9
					c-2.5-2.2-4.2-5.2-4.5-8.5c0-0.3,0-0.6,0-0.8c1-1.8,2-3.6,2.9-5.4c-0.8,1.9-1.2,3.9-1.1,5.9
					C199.3,543.6,201.2,546.5,203.8,548.5L203.8,548.5z"/>
				<path class="st8" d="M227,509.1c-0.1,0.8-0.3,1.5-0.4,2.3c-8.9,4.7-17.6,9.8-23.5,18c-0.5,0.6-0.9,1.3-1.3,2
					c1.3-2.5,2.6-5.1,3.8-7.6c3.5-3.6,7.5-6.5,11.7-9.1C220.3,512.7,223.7,510.9,227,509.1L227,509.1z"/>
				<path class="st8" d="M229.3,494c-0.1,0.9-0.2,1.7-0.3,2.6c-5.1,4-10.6,7.6-16.3,10.7c0.4-0.9,0.7-1.8,1.1-2.7
					c1.4-0.8,2.8-1.6,4.2-2.5C221.9,499.7,225.7,497,229.3,494L229.3,494z"/>
			</g>
			<g class="st9">
				<path class="st7" d="M110.2,701c0.1-1.2,0.2-2.3,0.3-3.5c-2.4-5.3-4.6-10.7-6.6-16.1c-0.2-0.6-0.4-1.2-0.7-1.8
					c-1-2.8-2-5.6-3-8.4c-0.5-1.6-1.1-3.2-1.6-4.8c-8.7-27.2-13.5-55.6-14.2-84.2c0-1.2-0.1-2.5-0.1-3.7c-0.1-9.1,0.2-18.3,0.9-27.4
					c0.1-1.2,0.2-2.3,0.3-3.4c1-10.8,2.5-21.6,4.7-32.2c0.1-0.2,0.2-0.3,0.3-0.4c0.6-0.8,1.1-1.5,1.7-2.3c-0.1,0.8-0.3,1.7-0.4,2.5
					c-8.9,51-0.7,104.9,23,151C113.1,678.3,111.9,689.1,110.2,701z"/>
			</g>
			<path class="st10" d="M315.1,451.6c-12.5,5.1-26.5,6.3-39.6,3.3c5.9,1.2,9.5,8.6,6.8,13.9c-2.7,5.3-10.8,6.8-15.3,2.8
				c4.2,7.2,7.9,14.9,8.7,23.2c0.9,8.3-1.5,17.3-7.8,22.7c-6.3,5.5-16.7,6.3-22.8,0.6c-7.1,3.6-16.7-0.3-18-8.1
				c0.1,4.8-3.9,9.1-8.5,10.3c-4.7,1.3-9.7,0-14-2.2c-11.4-5.9-18.5-19-17.2-31.8c-3.4,5.7-9.7,9.5-16.3,9.9
				c-4,0.2-8.1-0.9-11.5-2.9c1.4,1.5,2.7,3,3.8,4.8c2.3,4,3,9.3,0.5,13.2c-3.1,4.9-9.7,5.9-15.5,6.4c-13.1,1.2-26.2,2.4-39.3,3.6
				c2.9,0.6,4.4,1.3,5.7,4c1.3,2.7,0.9,6.2-1.4,8.2c-0.6,0.5-1.2,0.8-1.9,1c7.7,3.9,13.2,12.2,13.2,20.9c0,10.8-8.6,20.9-19.2,22.7
				c1.9,3.6,2.9,7,0.8,10.5c-1.7,2.9-5.3,4.3-8.7,4.1c-3.4-0.1-6.6-1.4-9.7-2.8c2,3.4,2.1,7.9,0.4,11.4c-1.7,3.6-5.3,6.1-9.3,6.7
				c-7.3,1-14.2-5.1-16.5-12.1c-2.3-7-1.3-14.7,0-22c-11.1-0.5-21.8-7.8-26.1-18c-4.3-10.2-2.3-22.8,5.1-31.1
				c-12.6-1.8-27-4.9-32.8-16.2c-5.1-9.9-1-22.1,4.8-31.6c2-3.3,4.3-6.5,6.8-9.5c9.5-11.6,21.9-20.9,35.7-26.6
				c-12.2-12.1-12.3-34.3-0.1-46.4c-12.5-8-16-27.1-7.3-39c8.7-12,32.1-16.5,43.6-7.1c-2.6-7.2,0.4-16,6.9-20c6.5-4,15.8-2.8,21,2.8
				c-1.3-3.7,0-8.1,3.1-10.5c3.1-2.4,7.8-2.5,11-0.3c-2.7-11.9-2.6-25.9,6.3-34.2c6.4-5.9,16.6-7.3,24.3-3.1
				c7.7,4.1,12.2,13.4,10.8,22c2.5-6.8,12.2-9.7,18-5.4c7.2-6.5,14.6-13.1,23.8-16.4c9.1-3.3,20.5-2.4,27,4.7c5.1,5.5,5.4,15,1,20.6
				c2.7-1.7,5.6-3.1,8.7-4.1c3.3-1.1,6.7-1.7,10.2-1.8c12.2-0.4,25.4,7.3,27.1,19.3c1,7.3-2.5,14.7-7.5,20.2
				c-5.1,5.4-11.6,9.2-18,12.9c3.1,3.8,3.9,9.4,2.1,14c-0.1,0.3-0.2,0.6-0.3,0.8c-1,2.2-2.7,4.1-4.8,5.5c2.7-0.1,5.5,0.5,8,1.6
				c3.1,1.5,5.8,3.9,7.2,7c3.2,6.8,0.2,15.6-5.9,19.7c3.3-0.6,7,0.4,9.1,3.2c3,3.9,1.9,10.3-2.2,13c11,1.8,22,3.6,33,5.4
				c6.1,1,13.3,2.9,15.4,8.7C330.3,441.6,322.5,448.6,315.1,451.6z"/>
			<g>
				<path class="st11" d="M263.3,442.7c2.9,2.7,2,8-1.1,10.3c-3.2,2.4-7.7,2.2-11.3,0.4c-3.5-1.7-6.3-4.8-8.7-7.9
					c1.9,5.6-1.6,11.8-6.9,14.4c-1.4-2.5-3.6-4.9-5-7.5c-7.5,4.2-17.9,1.7-22.7-5.4c-2.8,4.4-9.6,5.3-13.7,2.2
					c3.7,3.8,4.5,10.3,1.6,14.7c-3.2,4.9-10.3,6.7-15.5,3.9c1.5,2.5,1.3,5.8-0.5,8.1c-2.5,9.6-15.7,14.5-23.8,8.8
					c-1.2,13-11.2,24.8-23.8,28.1c-12.7,3.4-27.1-1.9-34.7-12.5c-24,10.5-54.9,1.8-69.9-19.7c-2.9-4.1-5.2-8.5-7.2-13.1
					c9.5-11.6,21.9-20.9,35.7-26.6c-12.2-12.1-12.3-34.3-0.1-46.4c-12.5-8-16-27.1-7.3-39c8.7-12,32.1-16.5,43.6-7.1
					c-2.6-7.2,0.4-16,6.9-20c6.5-4,15.8-2.8,21,2.8c-1.3-3.7,0-8.1,3.1-10.5c3.1-2.4,7.8-2.5,11-0.3c-2.7-11.9-2.6-25.9,6.3-34.2
					c6.4-5.9,16.6-7.3,24.3-3.1c7.7,4.1,12.2,13.4,10.8,22c2.5-6.8,12.2-9.7,18-5.4c7.2-6.5,14.6-13.1,23.8-16.4
					c9.1-3.3,20.5-2.4,27,4.7c5.1,5.5,5.4,15,1,20.6c2.7-1.7,5.6-3.1,8.7-4.1c4.6,14.5,1.2,31.4-8.9,42.9c2.4,0.5,4.3,2.7,4.5,5.1
					c0.2,2.4-1.5,4.9-3.8,5.7c8.6-1.1,17.4,3.6,22,10.9c-0.1,0.3-0.2,0.6-0.3,0.8c-1,2.2-2.7,4.1-4.8,5.5c2.7-0.1,5.5,0.5,8,1.6
					c1.4,10.2-5.1,21.1-14.9,24.4c8.8,1.7,16.2,9.3,17.7,18.1C275.3,428.5,271,438.1,263.3,442.7z"/>
			</g>
			<path class="st12" d="M261.1,392.7c-2.5,3-6.4,4.6-10.3,5.1c-3.9,0.5-7.8,0-11.7-0.4c3.5,3.4,7,6.9,10.5,10.3
				c1.5,1.4,3.1,3.2,2.8,5.3c-0.4,2.7-3.6,3.7-6.4,4.1c5.4-0.3,10.8,3.1,12.7,8.1c1.2,3.1,1.1,6.8-0.9,9.5c-2.6,3.6-8,4.5-12.3,3.1
				c-4.3-1.3-7.8-4.4-11.2-7.3c0.6,4.2-1.5,9.3-4,12.7c-2.5,3.5-6.3,5.9-10.5,6.7c-3.6-1.5-6.7-4-8.4-7.5c-1.7-3.6-2-7.7-0.8-11.5
				c-3.9,5.8-10,9.8-16.9,11.1c-4.7-2.2-8.5-5.9-10.7-10.6c0,3.2-1.6,6.4-4.2,8.3c-2.6,1.9-6.1,2.5-9.1,1.6c3.9,2,7.9,4.2,10.7,7.6
				c2.8,3.4,4.1,8.4,1.9,12.3c-1.7,3.1-5.3,4.7-8.7,5.7c-3.5,0.9-7.1,1.3-10.3,2.8c2.8,1,2.6,5.5,0.7,7.7c-1.9,2.2-5.3,2.7-8.1,1.9
				c-2.8-0.8-5.2-2.7-7.5-4.5c-0.3,8.5-2.7,17.2-8.2,23.7c-5.5,6.5-14.5,10.4-22.8,8.3c-8.3-2.1-14.7-11-12.6-19.3
				c-3.2,1.9-6.6,3.8-10.3,3.4c-3-0.4-5.8-3.2-5.7-6c-1.1,3.2-4.1,5.8-7.4,7c-3.9,1.4-8.1,1.4-12.2,1.4c-7.2,0-14.8-0.2-21-3.8
				c-3.2-1.8-5.8-4.6-7.7-7.8c-2-3.6-3.1-7.7-2.8-11.9c0.4-5.1,2.8-10,6.4-13.5c1.9-1.9,4.2-3.5,6.8-4.5c-3.7,0.4-7.5-2-8.8-5.4
				c-1.3-3.4-0.1-7.7,2.8-9.9c-2.8,1.7-6.6,1.4-9.5-0.2c-2.9-1.7-5-4.5-6.2-7.6c-2.8-6.9-1.7-15.3,2.9-21.2c4.6-5.9,12.4-9.1,19.8-8
				c-4.6-6.7-4.1-16.5,1.2-22.7c3.1-3.7,7.8-5.9,12.5-6.3c0-2.5,0.2-5,0.6-7.5c1.2-6.6,4.9-13,10.9-16c6-3,14.4-1.2,17.5,4.7
				c-1.1-3.3,0.5-7.2,3.5-8.9c3.1-1.6,7.2-0.7,9.3,2c-1.7-7.7-1.3-16.2,2.6-23.1c3.9-6.9,11.7-11.9,19.6-11.1
				c7.9,0.8,14.9,8.4,13.8,16.3c0.3-2.8,2.2-5.3,4.9-6.3c2.6-1,5.8-0.4,7.8,1.5c2.9-5.3,6.9-10.2,12.3-12.9
				c5.4-2.7,12.3-2.9,17.3,0.6c4.9,3.5,7,10.9,3.7,16c8.4-10.8,21.6-17.7,35.3-18.5c2.3-0.1,4.7-0.1,7,0.3c3.3,0.6,6.4,1.9,8.7,4.2
				c3.7,3.7,4.6,9.4,4.2,14.6c-0.9,10.9-7.2,21-16.4,26.9c1.5-0.5,3.2-0.5,4.6-0.1c2.4,0.8,4.2,3.4,3.9,6c-0.3,2.2-2.4,4.1-4.6,4.1
				c5.4,0.4,10.9,1,16,2.7c1.3,0.4,2.6,1,3.8,1.6c4,2,7.5,4.8,9.7,8.6C264.8,381.5,264.8,388.3,261.1,392.7z"/>
			<g>
				<path class="st13" d="M233.3,316.5c-1,4.6-4.2,8.5-8.3,10.9c-4,2.4-8.8,3.5-13.5,3.7c2.7,0.9,2.7,5.1,0.7,7
					c-2,1.9-5.1,2.2-8,2.3c-2.8,0.1-5.8,0.1-8.2,1.6c4.8,1.6,8.4,6.3,8.7,11.3c0.3,5-2.7,10.1-7.2,12.3c-4.6,2.2-10.4,1.3-14.1-2
					c0,1.9-1,4.3-2.7,5c-1.8,0.7-3.9,0.1-5.2-1.3c2.5,10.1-0.3,21.4-7.3,29.2c-3.2-6.8-4-15.1-1.7-22.3c-4.6,5-11.2,8.3-18,8.9
					c-0.1-5.7,2.2-11.9,6.9-15.2c-4.1,1.7-9.1,0.9-12.4-2.1c0.5,6.4-4.6,12.1-10.5,14.4c-5.9,2.3-12.6,2.1-18.9,1.7
					c3.8,2.2,7.7,4.5,10.5,7.9c2.8,3.4,4.4,8.1,2.9,12.3c-1.9,5.3-7.9,7.8-13.4,9.2c1.6-0.3,3.3-0.6,4.9-0.4c1.7,0.2,3.3,1.1,4,2.7
					c0.9,2-0.2,4.4-1.9,5.7c-0.9,0.7-2,1.2-3.2,1.6c2.1-0.2,4.3,0.3,6.1,1.5c2.6,1.8,4.2,4.9,4,8.1c-0.2,4.1-3.1,7.5-6.2,10.1
					c-5.3,4.5-11.7,7.8-18.6,9.4c5.1,1.7,9.7,4.8,13.7,8.3c-5.2,4.1-12.2,6-18.6,4c1.2,4.3,0.4,9.1-2,12.8c-2.7-4-6.5-7.7-9.2-11.6
					c-4.2,1.1-9.2-1.1-11.1-5.1c0.9,9.7-5.8,19.1-14.8,22.7c-6.3,2.5-13.4,2.4-19.9,0.5c-2-3.6-3.1-7.7-2.8-11.9
					c0.4-5.1,2.8-10,6.4-13.5c1.9-1.9,4.2-3.5,6.8-4.5c-3.7,0.4-7.5-2-8.8-5.4c-1.3-3.4-0.1-7.7,2.8-9.9c-2.8,1.7-6.6,1.4-9.5-0.2
					c-2.9-1.7-5-4.5-6.2-7.6c-2.8-6.9-1.7-15.3,2.9-21.2c4.6-5.9,12.4-9.1,19.8-8c-4.6-6.7-4.1-16.5,1.2-22.7
					c3.1-3.7,7.8-5.9,12.5-6.3c0-2.5,0.2-5,0.6-7.5c1.2-6.6,4.9-13,10.9-16c6-3,14.4-1.2,17.5,4.7c-1.1-3.3,0.5-7.2,3.5-8.9
					c3.1-1.6,7.2-0.7,9.3,2c-1.7-7.7-1.3-16.2,2.6-23.1c3.9-6.9,11.7-11.9,19.6-11.1c7.9,0.8,14.9,8.4,13.8,16.3
					c0.3-2.8,2.2-5.3,4.9-6.3c2.6-1,5.8-0.4,7.8,1.5c2.9-5.3,6.9-10.2,12.3-12.9c5.4-2.7,12.3-2.9,17.3,0.6c4.9,3.5,7,10.9,3.7,16
					c8.4-10.8,21.6-17.7,35.3-18.5c2.3-0.1,4.7-0.1,7,0.3C233.5,310.5,233.9,313.6,233.3,316.5z"/>
			</g>
			<path class="st1" d="M825.4,866.1c-18.2-64.6-20-131.4-2.5-196.1c-1.7,0-3,0.1-4.7,0.1c-9,19.5-13.9,40.4-15.1,61.2
				c-0.6-18.2-2.1-36.3-4.8-54.4c-1.4,0.2-2.9,0.3-4.3,0.4c2.7,62,1.4,124-3.9,185.9L825.4,866.1L825.4,866.1z"/>
			<path class="st4" d="M889.9,680.9c-0.1,5.4-2.2,11.5-7.2,13.7c-5.1,2.3-11-0.3-16-2.8c-1.2,2.7-3.9,4.6-6.9,4.9
				c-2.9,0.3-6-1-7.8-3.3c4.3,5.6,3,14.6-2.6,18.9c-5.6,4.3-14.6,3.1-18.9-2.5c-4.2-5.5-3.6-13.2-2.5-20.1c-2.5,2.3-6.7,2.1-9.5,0.2
				c-2.8-2-4.3-5.3-4.8-8.7c-0.5-3.4,0-6.8,0.5-10.2c-0.8,4.4-4.4,8.1-8.7,9.4c-0.1,3.1-1.7,6.2-4.2,8c-3.2,2.3-7.8,2.4-11.2,0.4
				c2.1,4.4-2,10.4-6.9,9.9c5.5,4.1,7.7,12,5.1,18.4c-2.6,6.3-9.8,10.4-16.6,9.4c-6.8-1-12.5-6.9-13.2-13.7
				c-0.8,2.9-3.8,4.9-6.8,4.6c-3-0.3-5.5-2.9-5.8-5.9c-6.7,5.6-18.1,1.7-21.8-6.2c-3.7-7.9-1.1-17.6,4.3-24.4
				c5.4-6.9,13.1-11.5,20.6-15.9c-3.7-1.3-6.1-5.4-5.4-9.3c-9.9-5.4-15.1-18.1-11.9-29c0.7-2.2,1.7-4.3,2.9-6.3
				c4.9-7.4,13.9-12.2,22.8-11.6c-3.3-6.3-1.3-14.8,4.4-19c-3.7-9-6-18.8-4.9-28.5c1.1-9.7,6.1-19.2,14.4-24.2
				c8.4-5,20.2-4.5,27,2.4c-4-4.8-2.7-12.7,2.1-16.7s11.9-4.5,17.7-2.2c5.8,2.3,10.4,6.9,13.9,12.1c9.8,14.5,11.5,34.2,4.3,50.2
				c2-3.3,6.9-4.3,10.1-2.2c3.2,2.1,4.1,7,1.9,10.1c8.4-3.8,19-2.1,25.8,4.2c2.5,2.3,4.5,5.2,5.7,8.3c2.2,5.4,2.5,11.5,0.5,17
				c-3.1,8.7-11.7,15.1-20.8,15.7c2.4,2.2,6.4,2.3,9.5,2.9c3.2,0.7,6.8,2.6,6.9,5.9c0.1,2.4-1.8,4.6-4.1,5.4
				c-2.3,0.9-4.8,0.8-7.2,0.7c7,1.1,13.6,4.8,18.1,10.3C887.5,666.7,890,673.8,889.9,680.9L889.9,680.9z"/>
			<g>
				<path class="st5" d="M889.9,680.9c-0.1,5.4-2.2,11.5-7.2,13.7c-5.1,2.3-11-0.3-16-2.8c-1.2,2.7-3.9,4.6-6.9,4.9
					c-2.9,0.3-6-1-7.8-3.3c4.3,5.6,3,14.6-2.6,18.9c-5.6,4.3-14.6,3.1-18.9-2.5c-4.2-5.5-3.6-13.2-2.5-20.1
					c-2.5,2.3-6.7,2.1-9.5,0.2c-2.8-2-4.3-5.3-4.8-8.7c-0.5-3.4,0-6.8,0.5-10.2c-0.8,4.4-4.4,8.1-8.7,9.4c-0.1,3.1-1.7,6.2-4.2,8
					c-3.2,2.3-7.8,2.4-11.2,0.4c2.1,4.4-2,10.4-6.9,9.9c5.5,4.1,7.7,12,5.1,18.4c-2.6,6.3-9.8,10.4-16.6,9.4
					c-6.8-1-12.5-6.9-13.2-13.7c-0.8,2.9-3.8,4.9-6.8,4.6c-3-0.3-5.5-2.9-5.8-5.9c-6.7,5.6-18.1,1.7-21.8-6.2
					c-3.7-7.9-1.1-17.6,4.3-24.4c5.4-6.9,13.1-11.5,20.6-15.9c-3.7-1.3-6.1-5.4-5.4-9.3c-9.9-5.4-15.1-18.1-11.9-29
					c0.7-2.2,1.7-4.3,2.9-6.3c-0.9,4.2-0.2,8.7,2,12.4c3.4,5.7,10.4,9.1,17,8.1c-0.9,1.6-0.6,3.9,0.7,5.2c1.3,1.3,3.6,1.7,5.2,0.8
					c-1.8,5.3-0.9,11.3,2.3,15.9c2.1,3.1,5.7,5.6,9.4,5c2.9-0.4,5.3-2.7,6.7-5.3c1.4-2.6,1.9-5.6,2.4-8.5c-3.1,0-5.9-1.5-7.7-4
					c2.7-2,6.2-3,9.2-1.6c0.7-3.9,2.9-7.6,5.8-10.4c2.6,4.3,2.8,10,0.4,14.4c0.3,0.7,1.2,1.3,1.9,1.4c0.6-0.4,2.3-0.9,2.9-1.3
					c1.2,3.6,4.9,5.4,8.5,6.4c3.6,1,7.7,0,10.6-2.4c2.9-2.5,4.4-6.4,3.9-10.1c-3.1-1.6-5.5-4.2-6.9-7.4c4.4-0.4,8.9,1.6,11.3,5.4
					c-1.4,1.3-0.8,4.4,0.7,5.5c1.5,1.2,4,0.6,4.9-1c1.6,2.4,4.6,4.1,7.5,3.7c3.2-0.4,5.8-3.3,6.5-6.5c0.7-3.2-0.2-6.6-1.8-9.4
					c-1.6-2.9-3.9-5.3-6.1-7.7c1.9,1.4,4.6,1.4,6.6,0.2c2-1.3,3-3.8,2.6-6.1c6.8,5.5,16.1,9.3,24.4,6.4c7.5-2.6,12.4-10.3,13.9-18.2
					c0.5-2.6,0.7-5.1,0.7-7.7c2.2,5.4,2.5,11.5,0.5,17c-3.1,8.7-11.7,15.1-20.8,15.7c2.4,2.2,6.4,2.3,9.5,2.9
					c3.2,0.7,6.8,2.6,6.9,5.9c0.1,2.4-1.8,4.6-4.1,5.4c-2.3,0.9-4.8,0.8-7.2,0.7c7,1.1,13.6,4.8,18.1,10.3
					C887.4,666.8,890,673.9,889.9,680.9L889.9,680.9z"/>
			</g>
			<path class="st1" d="M934.3,849.2c-16.1-46.5-17.7-94.7-2.2-141.3c-1.5,0-2.7,0.1-4.2,0.1c-8,14-12.3,29.1-13.4,44.1
				c-0.5-13.1-1.8-26.2-4.3-39.2c-1.3,0.1-2.6,0.2-3.9,0.3c2.4,44.7,1.3,89.4-3.5,134L934.3,849.2L934.3,849.2z"/>
			<path class="st12" d="M972,700.1c-2.6-0.5-4.9-1.8-7.2-3.1c0.8,0.5,1.2,1.7,1.8,2.4c0.6,0.8,0.8,1.9,0.3,2.6
				c-0.3,0.6-1.1,0.8-1.7,0.6c2.9,2.1,5.8,4.3,8.1,6.9c2.5,2.9,4.5,6.4,4.8,10.3c0.4,3.8-1,7.9-4,10.3c-2.7,2.1-6.6,2.6-9.9,1.7
				c-3.3-1-6.2-3.3-8.1-6.2c-0.3,2.1-2.8,3.3-4.9,2.9c-2.1-0.4-3.8-1.8-5.4-3.1c0.6,3.6-1,7.4-3.6,9.9c-2.6,2.6-6.1,4.1-9.7,4.9
				c-2.8,0.6-5.7,0.8-8.4,0c-3.5-1-6.4-3.8-7.6-7.1c-0.9-2.5-0.9-5.2-0.1-7.7c-1.1-0.6-2-1.6-2.5-2.7c-0.6,2.4-3.9,3.7-6,2.4
				c0.7,5.9-0.3,12-2.8,17.3c-1.1,2.3-2.5,4.6-4.6,5.9c-2.2,1.3-5.2,1.5-7.1-0.2c-1.3,2.2-4.5,2.9-6.6,1.5c1.3,2.3-0.4,5.4-2.9,6.2
				c-2.5,0.8-5.3-0.3-7.1-2.1c-2.2-2.1-3.3-5.1-3.5-8.2c-0.2-3,0.6-6,1.9-8.8c-3.3,2.1-8.7,2-11.6-0.7c-0.8-0.8-1.6-1.8-1.7-2.9
				c-0.1-1.1,0.5-2.4,1.6-2.7c-4.4-1-7.7-5.2-8.4-9.7c-0.7-4.5,1-9.1,3.7-12.7c2.7-3.6,6.5-6.4,10.4-8.7
				c-10-5.2-17.6-15.4-19.3-26.5c0-0.1,0-0.1,0-0.2c-1.6-11.3,2.4-23.2,10.6-31.1c3.3-3.1,7.3-5.7,11.7-6.5
				c4.6-0.7,9.4,0.6,13.4,2.9c4,2.3,7.4,5.7,10.5,9.1c-0.4-2.2,2.5-3.8,4.6-3.2c2.2,0.7,3.6,2.6,4.8,4.5c0.1-4.5,4.6-8.4,9.1-7.9
				c4.5,0.5,8,5.3,7.1,9.7c1.6-2.2,5.1-2.1,6.4,0.4c1.2-5.2,4.7-9.8,9.4-12.3c4.7-2.6,10.4-3,15.5-1.2c2.5,0.9,4.9,2.4,6.5,4.4
				c2.4,3,3.2,7,2.8,10.7c-0.4,3.8-1.9,7.3-3.8,10.7c2.4-0.1,4.9-0.3,7.2,0.5c0.6,0.2,1.2,0.4,1.7,0.8c1.6,1,2.8,2.5,3,4.3
				c0.2,1.7-0.6,3.5-1.7,4.9c-1.1,1.3-2.6,2.4-4,3.4c7.7,0.3,14.9,6.4,16.3,14c0.5,2.8,0.2,6-1.8,8
				C977.4,700.3,974.5,700.7,972,700.1L972,700.1z"/>
			<g>
				<path class="st14" d="M972,700.1c-2.6-0.5-4.9-1.8-7.2-3.1c0.8,0.5,1.2,1.7,1.8,2.4c0.6,0.8,0.8,1.9,0.3,2.6
					c-0.3,0.6-1.1,0.8-1.7,0.6c2.9,2.1,5.8,4.3,8.1,6.9c2.5,2.9,4.5,6.4,4.8,10.3c0.4,3.8-1,7.9-4,10.3c-2.7,2.1-6.6,2.6-9.9,1.7
					c-3.3-1-6.2-3.3-8.1-6.2c-0.3,2.1-2.8,3.3-4.9,2.9c-2.1-0.4-3.8-1.8-5.4-3.1c0.6,3.6-1,7.4-3.6,9.9c-2.6,2.6-6.1,4.1-9.7,4.9
					c-2.8,0.6-5.7,0.8-8.4,0c-3.5-1-6.4-3.8-7.6-7.1c-0.9-2.5-0.9-5.2-0.1-7.7c-1.1-0.6-2-1.6-2.5-2.7c-0.6,2.4-3.9,3.7-6,2.4
					c0.7,5.9-0.3,12-2.8,17.3c-1.1,2.3-2.5,4.6-4.6,5.9c-2.2,1.3-5.2,1.5-7.1-0.2c-1.3,2.2-4.5,2.9-6.6,1.5c1.3,2.3-0.4,5.4-2.9,6.2
					c-2.5,0.8-5.3-0.3-7.1-2.1c-2.2-2.1-3.3-5.1-3.5-8.2c-0.1-3,0.6-6,1.9-8.8c-3.3,2.1-8.7,2-11.6-0.7c-0.8-0.8-1.6-1.8-1.7-2.9
					c-0.1-1.1,0.5-2.4,1.6-2.7c-4.4-1-7.7-5.2-8.4-9.7c-0.7-4.5,1-9.1,3.7-12.7c2.7-3.6,6.5-6.4,10.4-8.7
					c-10-5.2-17.6-15.4-19.3-26.5c0.1,0.3,0.3,0.5,0.4,0.8c2.5,4.9,6.4,9.1,11.3,11.4c4.9,2.3,10.9,2.7,15.9,0.3
					c-0.7,1.1-0.6,2.6,0.2,3.6c0.8,1,2.2,1.5,3.4,1.1c-1.6,2.1-3.3,4.2-4.5,6.6c-1.2,2.4-2,5-1.7,7.7c0.2,2.6,1.6,5.3,3.8,6.7
					c2.3,1.4,5.5,1.3,7.4-0.4c-0.3,2,1.8,4.2,3.8,4.5c2,0.3,4.1-0.9,5.1-2.7c1-1.8,1-4,0.3-5.9c0.9,1.3,3,1.5,4.4,0.7
					c1.4-0.8,2.2-2.4,2.4-4c0.2-1.6-0.1-3.2-0.3-4.8c-1.3,0.4-2.6-0.4-3.6-1.3c-1-0.9-1.6-2.1-2.1-3.3c-0.8-1.8-1.4-3.6-1.8-5.6
					c3.2,0.7,6.4,2.7,8.2,5.5c0.6-3.6,2.9-6.9,6.2-8.5c1.8,3.1,1.3,7.2-1,9.9c-0.9,1,0.3,3.1,1.6,3.6c1.3,0.6,2.9-0.1,3.4-1.4
					c0.1,2.9,1.5,5.6,3.5,7.8c1.9,2.1,4.4,3.8,7,5.1c2.6,1.4,5.4,2.5,8.4,2.4c2.8-0.1,5.5-1.4,7.2-3.6c1.8-2.1,2.6-5,2.3-7.7
					c1.6,1,4.3,0,5.2-1.5c0.9-1.6,0.3-3.9-1.3-4.7c2.7,1.2,6-0.5,7.3-3.1c1.3-2.6,0.9-5.8-0.4-8.5c-1.3-2.6-3.3-4.8-5.3-7
					c1,0.3,1.9,0.7,2.9,1c0.1-1.1,0.2-2.3,0.3-3.4c2.3,2.4,5.9,3.4,9.2,2.6c3.2-0.8,6-3.1,7.5-6.1c1-2,1.5-4.3,1.5-6.6
					c1.6,1,2.8,2.5,3,4.3c0.2,1.7-0.6,3.5-1.7,4.9c-1.1,1.3-2.6,2.4-4,3.4c7.7,0.3,14.9,6.4,16.3,14c0.5,2.8,0.2,6-1.8,8
					C977.5,700.2,974.5,700.7,972,700.1L972,700.1z"/>
			</g>
			<g>
				<defs>
					<rect id="SVGID_00000011005065967964607890000007564293015206051748_" x="417.7" y="405.9" width="281.2" height="353.1"/>
				</defs>
				<clipPath id="SVGID_00000017499402409334529060000017872375275299401407_">
					<use xlink:href="#SVGID_00000011005065967964607890000007564293015206051748_"  style="overflow:visible;"/>
				</clipPath>
				<g style="clip-path:url(#SVGID_00000017499402409334529060000017872375275299401407_);">
					<path class="st1" d="M532.2,759c-11.6-50.7-12.8-103.1-1.6-153.8c-1.1,0-1.9,0.1-3,0.1c-5.8,15.3-8.9,31.7-9.6,48
						c-0.4-14.3-1.3-28.5-3.1-42.7c-0.9,0.1-1.9,0.2-2.8,0.3c1.7,48.6,0.9,97.3-2.5,145.9L532.2,759z"/>
					<path class="st2" d="M601.1,533.2c6.3-0.2,12.6,3.3,15.6,8.8c3.5,6.4,2.4,15-2.7,20.3c-5.1,5.2-13.7,6.6-20.2,3.3
						c11,9.4,18.1,23.3,19.2,37.7c0.6,7.6-0.5,15.6-5,21.7c-6.3,8.7-18.1,11.9-28.8,10.7c-10.7-1.2-20.5-6.1-30.1-10.9
						c-0.7,3.8-4.6,6.7-8.4,6.2c-3-0.3-5.7-2.7-6.6-5.6c0.3,6.2-4.7,12.3-10.8,13.9c-6.9,1.7-14.5-1.6-19-7.2s-6.2-13-6.1-20.1
						c-0.8,3.7-4.4,6.5-8.1,6.5c-3.7-0.1-8.2-3.1-8.9-6.8c-0.1,7.7-6.8,14.6-14.4,15.1c-7.6,0.4-15.1-5.7-16-13.3
						c-2.4,2.1-6.4,2.2-8.9,0c-2.4-2.1-2.9-6.1-1.1-8.8c-7.8,3.2-17.6-1.2-21.3-8.8c-3.8-7.6-1.9-17.2,3.4-23.8
						c5.3-6.6,13.7-10.2,22.2-11c-2.5-7.2,2.3-16,9.7-18c-7.5-2.4-15.8-5.6-18.8-12.9c-3-7.4,1.3-16,8-20.7c0.7-0.5,1.4-0.9,2.2-1.3
						c7.9-4.1,17.1-4.2,26-4.1c-3.1-5.1-1.8-12.5,2.9-16.2c-11.2-4.8-16.5-19.9-10.7-30.7c5.8-10.7,21.3-14.7,31.5-8
						c-0.9-3.5,0.9-7.6,4.1-9.2c3.2-1.6,7.6-0.7,9.8,2.1c-2.3-6.4-3.2-13.5-1.4-20.2c1.8-6.6,6.5-12.6,12.9-15
						c5-1.8,10.9-1.2,15.2,1.8c11.2-3.5,24.4-0.2,32.2,8.7c9.3,10.7,9.3,28.3,0,39.1c6.6-0.9,13.6,3.1,16,9.3
						c2.3,5.9,0.3,13.3-4.6,17.2c6.4-4.7,14.8-6.2,22.5-4.7c3.4,0.7,6.6,2,9.5,3.9c9.7,6.5,14.5,19.4,11.5,30.7
						C620.9,523.4,611.7,531.5,601.1,533.2L601.1,533.2z"/>
					<g>
						<path class="st14" d="M601.1,533.2c6.3-0.2,12.6,3.3,15.6,8.8c3.5,6.4,2.4,15-2.7,20.3c-5.1,5.2-13.7,6.6-20.2,3.3
							c11,9.4,18.1,23.3,19.2,37.7c0.6,7.6-0.5,15.6-5,21.7c-6.3,8.7-18.1,11.9-28.8,10.7c-10.7-1.2-20.5-6.1-30.1-10.9
							c-0.7,3.8-4.6,6.7-8.4,6.2c-3-0.3-5.7-2.7-6.6-5.6c0.3,6.2-4.7,12.3-10.8,13.9c-6.9,1.7-14.5-1.6-19-7.2s-6.2-13-6.1-20.1
							c-0.8,3.7-4.4,6.5-8.1,6.5c-3.7-0.1-8.2-3.1-8.9-6.8c-0.1,7.7-6.8,14.6-14.4,15.1c-7.6,0.4-15.1-5.7-16-13.3
							c-2.4,2.1-6.4,2.2-8.9,0c-2.4-2.1-2.9-6.1-1.1-8.8c-7.8,3.2-17.6-1.2-21.3-8.8c-3.8-7.6-1.9-17.2,3.4-23.8
							c5.3-6.6,13.7-10.2,22.2-11c-2.5-7.2,2.3-16,9.7-18c-7.5-2.4-15.8-5.6-18.8-12.9c-3-7.4,1.3-16,8-20.7c-0.7,4.3,0.3,9,3,12.4
							c5.1,6.4,14.7,8.3,22.4,5.4c-1.7,2.2-2,5.3-0.8,7.8c1.2,2.5,3.8,4.3,6.5,4.4c-7.7,3.3-11.6,13.3-8.3,21
							c3.3,7.7,13.3,11.7,21,8.4c-2.6-3.2-3.3-8.2-2-12.1c4,2.3,7.2,6.5,8.1,11c1.6-5.1,5.4-9.4,10.2-11.7c1.2,4.7-0.5,9.9-4.1,13.2
							c1.8,4.7,6.6,8.1,11.6,8c5-0.1,9.8-3.6,11.4-8.4c2.3,2.2,5.7,4,8.7,2.8c2.3-0.9,3.6-3.3,4.4-5.6c2.1-5.8,2.4-12.2,0.8-18.2
							c4.2,2.8,9.1,4.4,14.2,4.5c1.7,0,3.6-0.3,4.6-1.6c0.8-1,0.8-2.4,0.5-3.6c-0.3-1.2-1-2.3-1.7-3.3c2.9,2.8,8,2.8,10.8,0
							c2.3-2.2,3-5.6,3-8.7c0-6.9-2.8-13.7-7.7-18.5c2.5,2.6,7.4,1.8,10.6,0.2s5.3-5.4,4.8-9c2.4,5.6,10.4,6.9,15.6,3.9
							c5.3-3,8.1-9,9.7-14.9c1.6-6,2-12.2,1.5-18.4c3.4,0.7,6.6,2,9.5,3.9c9.7,6.5,14.5,19.4,11.5,30.7
							C620.9,523.3,611.6,531.4,601.1,533.2L601.1,533.2z"/>
					</g>
					<path class="st1" d="M632.4,743c-8.3-36.3-9.1-73.8-1.1-110.1c-0.8,0-1.4,0.1-2.1,0c-4.1,10.9-6.4,22.7-6.9,34.3
						c-0.3-10.2-1-20.4-2.2-30.5c-0.7,0.1-1.3,0.2-2,0.3c1.2,34.8,0.6,69.7-1.8,104.4L632.4,743L632.4,743z"/>
					<path class="st16" d="M696.1,597.9c-2.7,3.7-7.1,5.8-11.6,6.5c-4.5,0.7-9.1,0.3-13.6-0.2c1.6,3.7,0.9,8.3-1.8,11.2
						c-2.7,2.9-6.8,3.9-10.6,2.5c1.7,3.1,3.3,6.3,4,9.7c0.7,3.4,0.3,7.3-2,10c-2.1,2.6-5.7,3.9-9.1,3.5c-3.4-0.4-6.5-2.2-8.8-4.7
						c1.2,2.6-0.7,6-3.4,7c-2.7,1-5.9,0-8.2-1.7c-2.3-1.7-4-4.2-5.6-6.6c1.3,4.3-2.2,9.1-6.6,10.1c-4.4,1-9.1-1.1-12-4.5
						c-3-3.4-4.5-7.8-5.3-12.2c-1.6,0.5-3.3-0.1-4.4-1.3c-1-1.2-1.3-3.1-0.5-4.5c-3.7,2.8-8.3,4.6-12.9,4.1
						c-4.6-0.5-9.1-3.4-10.7-7.7c-1.7-4.3,0-9.9,4.1-12.1c-2.1,0.3-4.2-2.8-3.2-4.7c-5.5,1.6-11.9-0.6-15.2-5.3
						c-3.3-4.7-3.2-11.5,0.2-16.1c3.4-4.6,9.9-6.6,15.3-4.8c-3.6-3.4-6.7-7.4-8.3-12.1c-1.6-4.7-1.5-10.1,1-14.3
						c0.2-0.4,0.4-0.7,0.7-1c2.7-3.7,7.3-5.9,11.8-5.1c-0.9-2-0.7-4.5,0.6-6.2c1.3-1.7,3.8-2.6,6-2.2c-3.5-3.6-3.5-10.1,0.1-13.6
						c3.6-3.5,10-3.5,13.5,0.1c-1.6-2.1,0.3-5.6,2.9-6.1c2.6-0.6,5.3,0.8,7.2,2.7c1.6-5.9,3.2-11.8,6.5-16.9c3.4-5,8.9-9.1,14.9-9
						c5.1,0,10.1,3.2,12.3,7.9c2.2,4.6,1.5,10.5-1.7,14.5c5.1-2.6,11.5-4,15.1,0.5c3.6,4.5,3.5,11.4-0.1,15.8
						c3.2-2.1,7.7-1.5,10.8,0.9c0,0,0,0,0.1,0.1c2.9,2.4,4.5,6.2,4.8,10c0.3,3.8-0.5,7.7-1.6,11.3c3.2-0.3,6.5,2,7.4,5.1
						c0.9,3.1-0.7,6.8-3.6,8.2c5.8-0.6,11.9,1.3,16.4,5c4.5,3.7,7.4,9.3,7.9,15.2C699.1,590.7,698.3,594.8,696.1,597.9L696.1,597.9z
						"/>
					<g>
						<path class="st17" d="M696.1,597.9c-2.7,3.7-7.1,5.8-11.6,6.5c-4.5,0.7-9.1,0.3-13.6-0.2c1.6,3.7,0.9,8.3-1.8,11.2
							c-2.7,2.9-6.8,3.9-10.6,2.5c1.7,3.1,3.3,6.3,4,9.7c0.7,3.4,0.3,7.3-2,10c-2.1,2.6-5.7,3.9-9.1,3.5c-3.4-0.4-6.5-2.2-8.8-4.7
							c1.2,2.6-0.7,6-3.4,7c-2.7,1-5.9,0-8.2-1.7c-2.3-1.7-4-4.2-5.6-6.6c1.3,4.3-2.2,9.1-6.6,10.1c-4.4,1-9.1-1.1-12-4.5
							c-3-3.4-4.5-7.8-5.3-12.2c-1.6,0.5-3.3-0.1-4.4-1.3c-1-1.2-1.3-3.1-0.5-4.5c-3.7,2.8-8.3,4.6-12.9,4.1
							c-4.6-0.5-9.1-3.4-10.7-7.7c-1.7-4.3,0-9.9,4.1-12.1c-2.1,0.3-4.2-2.8-3.2-4.7c-5.5,1.6-11.9-0.6-15.2-5.3
							c-3.3-4.7-3.2-11.5,0.2-16.1c3.4-4.6,9.9-6.6,15.3-4.8c-3.6-3.4-6.7-7.4-8.3-12.1c-1.6-4.7-1.5-10.1,1-14.3
							c0.2-0.4,0.4-0.7,0.7-1c-0.4,1.9-0.2,3.8,0.6,5.6c1.6,3.5,5.2,5.8,9,6.6c3.7,0.8,7.7,0.4,11.4-0.4c-2.2,1.3-3.3,4.2-2.7,6.6
							c0.7,2.5,3.1,4.3,5.6,4.4c-3.5,3.5-7.1,7.2-9.1,11.8c-1.9,4.6-1.8,10.4,1.6,14c2.6,2.7,6.6,3.7,10.3,2.9
							c3.6-0.8,6.8-3.2,8.9-6.3c0.4,1.9,0.8,3.9,1.2,5.8c0.8-0.5,1.6-1,2.3-1.5c-0.3,3.1,2,6.1,5,6.9c3,0.8,6.3-0.3,8.4-2.5
							c2.1-2.2,3.2-5.3,3.3-8.4c0.1-3.1-0.8-6.1-1.9-9c1.6,1.5,4.5,1.4,6.2,0c1.7-1.4,2.2-4,1.1-5.9c3.7,2.9,9.4,2.9,13.1,0
							c3.7-2.9,5.1-8.4,3.2-12.7c1.3,2.4,4.5,2.9,6.8,1.6c0.9-0.5,1.7-1.3,1.9-2.3c0.1-0.7-0.1-1.4-0.5-1.9c1.1,0.4,2.4,0.2,3.4-0.4
							c1.3-0.8,2.1-2.3,2.5-3.8c0.8-3,0.5-6.3-1-8.9c-1.3-2.4-3.5-4.3-6.1-5.3c2.4,0.6,5.1-0.1,7.4-1.3c4.5-2.5,7.6-7.3,8.2-12.4
							c2.9,2.4,4.5,6.2,4.8,10c0.3,3.8-0.5,7.7-1.6,11.3c3.2-0.3,6.5,2,7.4,5.1c0.9,3.1-0.7,6.8-3.6,8.2c5.8-0.6,11.9,1.3,16.4,5
							c4.5,3.7,7.4,9.3,7.9,15.2C699.1,590.7,698.3,594.7,696.1,597.9L696.1,597.9z"/>
					</g>
				</g>
			</g>
		</g>
	</g>
	<path class="st18" d="M1429.6,739.5c-7.5-2.6-16.1-1.8-22.9,2.2c-6.8,4-11.7,11.2-13,19.1c-5.6-6-15.3-8.1-23-5.3
		c-7.8,2.8-13.5,10.5-13.9,18.8c8,9,19.1,14.8,31,16.8c11.9,2,24.1,1.2,36.2,0.5c5.2-0.3,10.7-0.7,15-3.7c5.3-3.6,7.6-10.4,7.9-16.8
		C1447.5,757.7,1442.2,744,1429.6,739.5L1429.6,739.5z"/>
	<g>
		<path class="st19" d="M1429.6,752c-7.5-2.6-16.1-1.8-22.9,2.2c-6.8,4-11.7,11.2-13,19c-5.6-6-15.3-8.1-23-5.3
			c-7.8,2.8-13.5,10.5-13.9,18.8c8,9,19.1,14.8,31,16.8c11.9,2,24.1,1.2,36.2,0.5c5.2-0.3,10.7-0.7,15-3.7
			c5.3-3.6,7.6-10.4,7.9-16.8C1447.5,770.3,1442.2,756.5,1429.6,752L1429.6,752z"/>
	</g>
	<path class="st20" d="M1813.5,711c0,0-62.8-46.5-41.4-134.7C1772,576.2,1840.1,628.3,1813.5,711z"/>
	<path class="st21" d="M1811.1,673.7c0.6-5.8,1.3-11.7,1.7-17.6c-1.2,5.8-2.2,11.6-3.1,17.4c-0.7,5-1.5,9.9-2.1,14.8
		c-1.4-5-2.9-10-4.3-15l-1.3-4.4v-0.2c0.4-3,0.7-6,1-9l0.9-9.1c0.5-6,1.1-12.1,1.3-18.2c-1,6-1.9,12-2.7,18l-1.1,9
		c-0.2,1.8-0.4,3.6-0.6,5.3l-5.7-19l-1.2-3.9c0.4-4.8,0.7-9.5,1-14.3c0.2-4.8,0.5-9.6,0.5-14.5c-0.8,4.8-1.3,9.6-1.8,14.4
		c-0.4,3.4-0.7,6.8-1,10.2l-5.9-18.5v-0.5c0-3.2,0.1-6.5,0-9.7c-0.1-3.2-0.2-6.5-0.5-9.7c-0.4,3.2-0.6,6.5-0.8,9.7
		c-0.1,1.8-0.2,3.6-0.3,5.3c-2.5-7.7-5-15.4-7.7-23c2.2,8.2,4.5,16.3,6.9,24.4c-1.5-1.7-3.1-3.3-4.7-4.9c-2.3-2.4-4.7-4.7-7.2-6.9
		c2,2.7,4.1,5.3,6.2,7.8c2.1,2.5,4.3,5,6.6,7.5l0.2,0.2l5.9,19.5c-2.3-2.4-4.7-4.8-7.1-7.1c-3.2-3.1-6.4-6.2-9.8-9.2
		c2.9,3.5,5.9,6.8,8.9,10.1c3,3.3,6,6.5,9.1,9.7l1.2,3.9l6.2,19.6c-3.1-3-6.2-6-9.4-8.9c-3.9-3.6-7.8-7.1-11.9-10.6
		c3.6,3.9,7.3,7.7,11,11.5c3.7,3.8,7.5,7.5,11.3,11.2l0.1,0.1l1.4,4.4c1.7,5.1,3.3,10.1,5,15.2c-2.4-2.3-4.8-4.7-7.2-7
		c-1.5-1.4-3-2.8-4.5-4.2c-1.5-1.4-3-2.8-4.6-4.1c1.3,1.6,2.7,3.1,4.1,4.6c1.3,1.5,2.8,3,4.2,4.5c2.8,3,5.6,5.9,8.5,8.9l0.7,0.7
		c1,2.9,1.9,5.7,2.9,8.6c-0.8-2.9-1.6-5.8-2.4-8.7l0.2-1.1C1809.8,685.4,1810.4,679.6,1811.1,673.7L1811.1,673.7z"/>
	<path class="st22" d="M1811.2,734.4c0,0-75.1-21.6-85.8-111.7C1725.4,622.6,1807.3,647.6,1811.2,734.4z"/>
	<path class="st23" d="M1805.4,725.8c-1.7-2.5-3.5-4.9-5.3-7.3l-0.2-1c-1.2-5.8-2.6-11.5-3.9-17.2c-1.4-5.7-2.9-11.4-4.6-17
		c0.9,5.8,2,11.6,3.1,17.4c1.1,4.9,2.1,9.8,3.2,14.6c-3.1-4.2-6.2-8.4-9.3-12.6l-2.8-3.7l-0.1-0.2c-0.7-3-1.5-5.9-2.2-8.8l-2.3-8.8
		c-1.6-5.9-3.2-11.7-5.1-17.5c1.1,6,2.4,11.9,3.7,17.8l2.1,8.9c0.4,1.7,0.8,3.5,1.3,5.2l-12-15.8l-2.5-3.2
		c-1.3-4.6-2.6-9.2-4.1-13.8c-1.5-4.6-2.9-9.2-4.6-13.7c1,4.7,2.1,9.4,3.3,14.1c0.8,3.3,1.7,6.6,2.6,9.8l-12-15.3l-0.2-0.5
		c-1.1-3.1-2.2-6.1-3.4-9.1c-1.2-3-2.4-6-3.8-9c0.8,3.2,1.7,6.3,2.6,9.4c0.5,1.7,1.1,3.4,1.6,5.1c-5-6.3-10.1-12.6-15.2-18.8
		c4.9,6.9,9.9,13.7,15,20.5c-2-1-4-2-6.1-2.9c-3-1.4-6-2.8-9.2-3.9c2.8,1.8,5.7,3.5,8.5,5.1c2.9,1.7,5.8,3.2,8.8,4.7l0.2,0.1
		l12.3,16.2c-3-1.4-6-2.8-9.1-4.2c-4.1-1.8-8.2-3.6-12.4-5.2c3.9,2.2,7.8,4.3,11.8,6.4c3.9,2.1,7.9,4,11.9,5.9l2.4,3.2l12.7,16.2
		c-4-1.7-7.9-3.4-11.9-5c-4.9-2-9.8-3.9-14.8-5.8c4.7,2.4,9.5,4.7,14.3,6.9c4.8,2.3,9.7,4.4,14.5,6.5l0.1,0l2.9,3.7
		c3.3,4.2,6.6,8.3,10,12.5c-3-1.4-6.1-2.7-9.2-4c-1.9-0.8-3.8-1.6-5.7-2.4c-1.9-0.8-3.8-1.5-5.7-2.2c1.8,1,3.6,1.9,5.4,2.9
		c1.8,1,3.7,1.8,5.5,2.8c3.6,1.9,7.4,3.6,11.1,5.3l0.9,0.4C1801.6,721.2,1803.5,723.6,1805.4,725.8L1805.4,725.8z"/>
	<path class="st18" d="M1831.2,700.2c-22.7-11.7-49.6-16.6-74-9.2c-24.4,7.5-45.1,28.8-47.6,54.2c-7.1-7.7-19.9-10-29.3-5.5
		c-9.4,4.5-15.3,15.4-13.8,25.8c-6.9-10-17-17.6-28.1-22.8c-11-5.1-24.2-6.2-35.4-1.5c-11.2,4.7-19.9,15.8-20.4,28
		c-4.9-13-20.5-21-34.2-23.1c-13.8-2-28,2.6-39.1,11.1c-11,8.5-19,20.5-24.1,33.4c29.3,28.4,71.2,33.3,111.8,36.3
		c65.4,4.8,130.8,9.6,196.1,14.4c11.2,0.8,23.6,1.3,32.3-5.9c7.6-6.2,10.2-16.6,12.1-26.3c4-19.5,7.3-39,10.1-58.7
		c1.2-8.5,2.3-17.2,0.5-25.5C1846.3,716.7,1838.8,704.2,1831.2,700.2L1831.2,700.2z"/>
	<g>
		<path class="st19" d="M1831.9,731.3c-22.7-11.7-49.6-16.6-74-9.2c-24.4,7.5-45.1,28.8-47.6,54.2c-7.1-7.7-19.9-10-29.3-5.5
			c-9.4,4.5-15.3,15.4-13.8,25.8c-6.9-10-17-17.6-28.1-22.8c-11.1-5.1-24.2-6.2-35.5-1.5c-11.2,4.8-19.9,15.8-20.4,28
			c-4.9-13-20.5-21-34.2-23.1c-13.8-2-28,2.6-39.1,11.1c-11,8.5-19,20.5-24.1,33.4c29.3,28.4,71.2,33.3,111.8,36.3
			c65.4,4.8,130.8,9.6,196.1,14.4c11.2,0.8,23.6,1.3,32.3-5.9c7.6-6.2,10.2-16.6,12.1-26.3c4-19.5,7.3-39,10.1-58.7
			c1.2-8.5,2.3-17.2,0.5-25.5C1847,747.8,1839.5,735.2,1831.9,731.3L1831.9,731.3z"/>
	</g>
	<path class="st24" d="M992,740.9c0,0,19.2-43.6-5.9-76.4c0,0,33.8,24.6,15.7,78.8L992,740.9L992,740.9z"/>
	<path class="st24" d="M997.4,748.5c0,0,6.2-52,44.1-93.5c0,0-31.7,53.4-34.7,95.8L997.4,748.5L997.4,748.5z"/>
	<path class="st24" d="M1008.8,743c0,0,7.9-65.6,60.6-60.3c0,0-43.5-0.4-53.9,61.9L1008.8,743z"/>
	<path class="st24" d="M266.9,718c0,0-16.6-44.6-57.5-50.6c0,0,41.4-6,66.2,45.5L266.9,718L266.9,718z"/>
	<path class="st24" d="M276,719.7c0,0-31.8-41.6-33.6-97.7c0,0,14.5,60.4,42,92.8L276,719.7L276,719.7z"/>
	<path class="st24" d="M280.4,707.8c0,0-40.1-52.5,1.4-85.5c0,0-31.4,30.1,4.6,82L280.4,707.8z"/>
	<path class="st24" d="M365,717.3c0-0.2-1.1-19.1,6.4-44c6.9-23,22.8-55.8,59.1-82l-0.5-0.7c-36.5,26.3-52.5,59.4-59.4,82.5
		c-7.6,25-6.5,44.1-6.5,44.3L365,717.3L365,717.3z"/>
	<path class="st24" d="M420.3,598.6c0,0,3.7-14.5,23.8-17.6C444.1,581,441.7,598.9,420.3,598.6z M405.1,613.2c0,0,14.9,2.3,28.7-6.3
		C433.8,606.8,420.6,603.1,405.1,613.2z M405.1,613.2c0,0,11.9-13.6,11-28.2C416.1,585,401.9,596.3,405.1,613.2z M392.3,629.1
		c0,0,16.5,0.1,26.3-10.4C418.7,618.7,404.3,617.3,392.3,629.1z M392.3,629.1c0,0,9.3-12.1,8.7-25.3
		C401.1,603.8,388.1,616.8,392.3,629.1z M382.2,645.8c0,0,20.7-1.6,30.4-12.1C412.6,633.7,396.6,631.7,382.2,645.8z M382.2,645.8
		c0,0,7-12.9,6-26.4C388.2,619.4,377.4,628,382.2,645.8z M374.6,662.7c0,0,15.7-2.4,27.7-13.9C402.2,648.8,385.6,648.3,374.6,662.7z
		 M374.6,662.7c0,0,4.9-13.7-1.6-25.5C373,637.2,369.3,652.1,374.6,662.7z M369.3,679.3c0,0,13.4-4.6,22.5-16.9
		C391.8,662.4,377.7,662.7,369.3,679.3z M369.3,679.3c0,0,4.5-11.4-2.7-23.3C366.6,655.9,362.5,668.4,369.3,679.3z M366,695.5
		c0,0,15.7-5.3,18.5-17.9C384.5,677.6,372.1,680.4,366,695.5z M366,695.5c0,0,3-14.7-5.3-24.2C360.6,671.3,357.8,687.2,366,695.5z"
		/>
	<path class="st18" d="M1083.3,751.6c-0.3-7.8,4.4-15.6,11.5-19c7.1-3.4,16.1-2.3,22,2.8c5-11.6,16.2-20.3,28.7-22
		c12.5-1.7,25.8,3.5,33.8,13.4c9.6-11.6,25.7-18.4,40.5-15.6c14.8,2.8,27.7,14,32.5,28.3c6.2-4.8,15.5-7,23-5
		c7.6,2.1,14,7.9,16.9,15.2c7.4-5.5,19.4-3.4,26.6,2.3c7.2,5.7,11.3,14.6,14,23.4c-75.2,9.1-152.4,7-226.8-6.9
		C1096.7,766.7,1083.7,761,1083.3,751.6L1083.3,751.6z"/>
	<g>
		<path class="st19" d="M1082.9,769.4c-0.3-7.8,4.4-15.6,11.5-19.1c7-3.4,16.1-2.3,22,2.8c5-11.6,16.2-20.3,28.7-22
			c12.5-1.7,25.8,3.5,33.8,13.4c9.6-11.6,25.7-18.4,40.5-15.6c14.8,2.8,27.7,14,32.5,28.3c6.2-4.8,15.5-7,23-5
			c7.6,2.1,14,7.9,16.9,15.2c7.4-5.5,19.4-3.4,26.6,2.3c7.2,5.7,11.3,14.6,14,23.4c-75.2,9.1-152.4,7.1-226.8-6.9
			C1096.2,784.5,1083.2,778.8,1082.9,769.4L1082.9,769.4z"/>
	</g>
	<path class="st25" d="M913,677.3c13.1-3.8,27.8-1.7,39.4,5.5c11.6,7.3,19.8,19.6,22.1,33.1c5.6-4.2,12.9-5.7,19.5-3.3
		c6.6,2.5,11.8,8.4,13.3,15.3c6.3-6.2,16.1-9.1,24.8-7.3c8.7,1.8,16.4,7.3,21.7,14.3c5.4,7,8.6,15.6,10.3,24.3
		c-12.5,5.6-26.7,6.3-40.5,6.4c-29.6,0.2-59.2,0.4-88.7-1.5c-11.3-0.7-23.7-2.2-31.5-10.4c-8.2-8.6-8.8-21.8-8.9-33.6
		c-0.1-7.9-0.1-15.9,2-23.4C898.7,689,905.5,679.5,913,677.3L913,677.3z"/>
	<g class="st26">
		<path class="st25" d="M904.9,692.4c13.1-3.8,27.8-1.7,39.4,5.5c11.6,7.3,19.8,19.6,22.1,33c5.6-4.2,12.9-5.7,19.5-3.3
			c6.6,2.5,11.8,8.4,13.3,15.3c6.3-6.2,16.1-9.1,24.8-7.3c8.7,1.8,16.4,7.3,21.7,14.3c5.4,7,8.6,15.6,10.3,24.3
			c-12.5,5.6-26.7,6.3-40.5,6.4c-29.6,0.2-59.2,0.4-88.7-1.5c-11.3-0.7-23.7-2.2-31.5-10.4c-8.2-8.6-8.8-21.7-8.9-33.6
			c-0.1-7.9-0.1-15.9,2-23.4C890.5,704.1,897.3,694.5,904.9,692.4L904.9,692.4z"/>
	</g>
	<path class="st22" d="M685.2,731.5c0,0-13.3-77.1,63-126C748.3,605.5,761.6,690.2,685.2,731.5z"/>
	<path class="st23" d="M720.5,664l8.6-17.5l0.3-0.3c2.3-2.3,4.5-4.6,6.7-7c2.2-2.4,4.3-4.8,6.4-7.4c-2.5,2.1-4.9,4.2-7.3,6.4
		c-1.3,1.2-2.6,2.5-3.9,3.7c3.5-7.3,6.9-14.6,10.3-21.9c-4.1,7.4-8,14.9-11.9,22.5c0-2.2,0-4.5,0-6.8c-0.1-3.3-0.2-6.6-0.4-10
		c-0.4,3.3-0.7,6.6-0.9,9.9c-0.2,3.3-0.3,6.6-0.4,9.9v0.3l-9.2,18.2c0-3.3-0.1-6.7-0.2-10c-0.1-4.5-0.3-9-0.7-13.4
		c-0.3,4.5-0.5,9-0.6,13.4c-0.1,4.4-0.2,8.9-0.2,13.3l-1.8,3.6l-9.1,18.5c-0.2-4.3-0.4-8.6-0.7-12.9c-0.3-5.3-0.7-10.6-1.3-15.9
		c-0.1,5.3-0.1,10.6,0,15.9c0,5.3,0.3,10.6,0.4,15.9v0.1l-2,4.2c-2.3,4.8-4.6,9.6-6.9,14.4c-0.1-3.4-0.2-6.7-0.4-10
		c-0.1-2-0.2-4.1-0.3-6.2c-0.2-2-0.3-4.1-0.5-6.2c-0.1,2-0.2,4.1-0.2,6.2c-0.1,2-0.1,4.1-0.1,6.2c-0.1,4.1,0,8.2,0,12.3v1
		c-1.3,2.8-2.6,5.5-3.8,8.2c1.4-2.6,2.8-5.3,4.3-8l0.8-0.6c4.7-3.6,9.2-7.3,13.7-11c4.5-3.8,9-7.6,13.3-11.5
		c-4.9,3.3-9.5,6.9-14.2,10.4c-3.9,3.1-7.9,6.1-11.8,9.3c2.4-4.6,4.8-9.2,7.2-13.9l2.1-4.1l0.1-0.1c2.4-1.9,4.6-3.9,6.9-5.9l6.9-5.9
		c4.6-4,9.1-8,13.5-12.2c-4.9,3.6-9.7,7.4-14.4,11.1l-7,5.8c-1.4,1.1-2.8,2.3-4.1,3.4l9-17.6l1.8-3.6c3.6-3.2,7.1-6.4,10.6-9.7
		c3.5-3.3,7-6.7,10.3-10.1c-3.9,2.9-7.5,6-11.2,9.1C725.5,659.5,723,661.8,720.5,664L720.5,664z"/>
	<path class="st22" d="M634.8,741.7c0,0-72.4-29.4-73.6-120.2C561.2,621.5,640.1,655,634.8,741.7z"/>
	<path class="st23" d="M629.9,732.6c-1.5-2.6-3-5.2-4.5-7.8l-0.1-1.1c-0.6-5.9-1.4-11.7-2.1-17.5c-0.8-5.8-1.7-11.6-2.7-17.4
		c0.3,5.9,0.8,11.7,1.3,17.6c0.5,5,1,9.9,1.6,14.9c-2.6-4.5-5.3-9-7.9-13.5l-2.4-4v-0.2c-0.4-3-0.9-6-1.3-9l-1.4-9
		c-1-6-2-12-3.2-17.9c0.5,6.1,1.1,12.1,1.8,18.1l1.1,9c0.3,1.8,0.5,3.6,0.7,5.3l-10.2-16.9l-2.2-3.4c-0.8-4.7-1.7-9.4-2.6-14.1
		c-1-4.7-1.9-9.5-3.1-14.1c0.5,4.8,1.1,9.6,1.8,14.4c0.5,3.4,1,6.7,1.6,10.1l-10.3-16.5l-0.1-0.5c-0.8-3.1-1.5-6.3-2.5-9.4
		c-0.9-3.1-1.8-6.2-2.9-9.3c0.4,3.2,1,6.4,1.6,9.6c0.3,1.7,0.7,3.5,1.1,5.2c-4.3-6.8-8.7-13.6-13.2-20.4c4.2,7.4,8.5,14.7,12.8,22
		c-1.9-1.2-3.8-2.4-5.7-3.6c-2.8-1.7-5.7-3.4-8.7-4.9c2.6,2.1,5.3,4.1,8,6c2.7,2,5.4,3.8,8.2,5.6l0.2,0.1l10.5,17.5
		c-2.8-1.7-5.7-3.4-8.6-5.1c-3.9-2.2-7.8-4.5-11.8-6.5c3.6,2.6,7.3,5.1,11.1,7.6c3.7,2.5,7.4,4.8,11.2,7.2l2.1,3.4l10.9,17.4
		c-3.8-2.1-7.5-4.2-11.4-6.2c-4.7-2.5-9.4-5-14.1-7.3c4.4,2.9,9,5.7,13.5,8.4c4.5,2.8,9.2,5.3,13.7,8l0.1,0l2.5,3.9
		c2.8,4.5,5.7,9,8.6,13.5c-2.9-1.7-5.8-3.4-8.7-5c-1.8-1-3.6-2-5.4-2.9c-1.8-0.9-3.6-1.9-5.5-2.8c1.7,1.2,3.4,2.3,5.1,3.4
		c1.7,1.1,3.4,2.2,5.2,3.3c3.4,2.2,6.9,4.4,10.5,6.5l0.8,0.5C626.5,727.6,628.2,730.1,629.9,732.6L629.9,732.6z"/>
	<path class="st18" d="M561.2,732.7c8.4-19.7,26.7-34.9,47.6-39.6c20.9-4.7,43.9,1.1,60,15.3c6.9-13.1,20.6-20.5,35.4-19.8
		c14.8,0.8,28.7,10.6,34.3,24.3c9.6-9,25.8-9.3,37.2-2.6c11.3,6.7,18.5,18.9,22.4,31.5c-39.6,4.6-81.5,9-121.4,9.8
		C637.4,752.4,598,746.2,561.2,732.7L561.2,732.7z"/>
	<g>
		<path class="st19" d="M559.7,750.4c8.4-19.7,26.7-34.9,47.6-39.6c20.9-4.7,43.9,1.1,60,15.3c6.9-13.1,20.6-20.5,35.4-19.8
			c14.8,0.8,28.7,10.6,34.3,24.3c9.6-9,25.8-9.3,37.2-2.6c11.3,6.7,18.5,18.9,22.4,31.5c-39.6,4.6-81.5,9-121.4,9.8
			C635.8,770.1,596.5,763.9,559.7,750.4L559.7,750.4z"/>
	</g>
	<path class="st18" d="M225.5,737.8c-0.9-16.1,8.6-32.4,23.1-39.4c14.5-7,33.2-4.5,45.2,6.2c10.8-13.6,27.6-22.9,44.9-23
		c17.3-0.1,34.6,8.1,45.5,21.6c5.9-9,17.3-15.3,28-16.3c10.7-1,21.9,3,29.4,10.8c13.1-4.2,28.3-2.9,40.1,4.1
		c11.8,7,20.5,19.2,23.1,32.7C411.3,736.7,319.1,735.5,225.5,737.8z"/>
	<g>
		<path class="st19" d="M225.5,759.6c-0.9-16.1,8.6-32.4,23.1-39.4c14.5-7,33.2-4.5,45.2,6.2c10.8-13.6,27.6-22.9,44.9-23
			c17.3-0.1,34.6,8.1,45.5,21.6c5.9-9,17.3-15.3,28-16.3c10.7-1,21.9,3,29.4,10.8c13.1-4.2,28.3-2.9,40.1,4.1
			c11.8,7,20.5,19.2,23.1,32.7C411.3,758.5,319.1,757.3,225.5,759.6z"/>
	</g>
	<path class="st27" d="M-1.8,736.9c645.9-31.2,1296.2-1,1933.5,89.7c-10.7,64.8,7.5,139.8,7.9,205.1c0.4,65.3-20.4,137-85.4,175.3
		c-56.3,33.2-131.3,33.3-200.8,32.1c-501.8-8.8-1004.1-17.6-1503.7-55.7c-46-3.5-96.9-9.3-126.7-38.1c-26.1-25.2-28.4-61.1-29-94.1
		C-7.8,949.4-8.5,838.5-1.8,736.9L-1.8,736.9z"/>
</g>
<g>
	<defs>
		<rect id="SVGID_00000013896369072567233370000009841465002162101391_" x="366.2" y="381.2" width="642.5" height="494"/>
	</defs>
	<clipPath id="SVGID_00000009583952015011672400000009386086064102187699_">
		<use xlink:href="#SVGID_00000013896369072567233370000009841465002162101391_"  style="overflow:visible;"/>
	</clipPath>
	<g style="clip-path:url(#SVGID_00000009583952015011672400000009386086064102187699_);">
		<path class="st29" d="M370.6,522.2c0,0,7.7,5.3,12.8,32c5.1,26.7,15-15.9,15-15.9l-7.2-22.2L370.6,522.2L370.6,522.2z"/>
		<path class="st29" d="M637.8,522.2c0,0-7.7,5.3-12.8,32c-5.1,26.7-15-15.9-15-15.9l7.2-22.2L637.8,522.2L637.8,522.2z"/>
		<path class="st29" d="M505.2,511.5h-1.3h-1.3l-120.4,0.6l15.6,334c0,0,3,28.7,30,28.7H580c27,0,30-28.7,30-28.7l15.6-334
			L505.2,511.5L505.2,511.5z"/>
		<path class="st30" d="M373.8,808.4l-7.6,7.6v37.6l6.8,6.8L373.8,808.4z"/>
		<path class="st31" d="M411.8,816.8h-23.6v36h23.6V816.8z"/>
		<path class="st32" d="M394.2,795.2H371v80.1h23.2V795.2z"/>
		<path class="st30" d="M634,808.4l7.6,7.6v37.6l-6.8,6.8L634,808.4z"/>
		<path class="st31" d="M596,852.8h23.6v-36H596V852.8z"/>
		<path class="st30" d="M505.2,524.8h-1.3h-1.3l-120.4,0.6l15.6,321.9c0,0,3,27.6,30,27.6H580c27,0,30-27.6,30-27.6l15.6-321.9
			L505.2,524.8L505.2,524.8z"/>
		<path class="st32" d="M613.6,875.2h23.2v-80.1h-23.2V875.2z"/>
		<path class="st33" d="M394.2,795.2H371v14.2h23.2V795.2z"/>
		<path class="st33" d="M613.6,809.4h23.2v-14.2h-23.2V809.4z"/>
		<path class="st29" d="M404.4,522.5c0,0,0.7,33.3,10.3,33.3c9.6,0,11-32.7,11-32.7L404.4,522.5L404.4,522.5z"/>
		<path class="st34" d="M410.3,522.9c0,0-1.3,31.8,5.1,31.8c6.4,0,5.3-31.4,5.3-31.4L410.3,522.9z"/>
		<path class="st29" d="M463.9,522.5c0,0,0.7,33.3,10.3,33.3c9.6,0,11-32.7,11-32.7L463.9,522.5L463.9,522.5z"/>
		<path class="st34" d="M469.8,522.9c0,0-1.3,31.8,5.1,31.8s5.3-31.4,5.3-31.4L469.8,522.9z"/>
		<path class="st29" d="M523.4,522.5c0,0,0.7,33.3,10.3,33.3c9.6,0,11-32.7,11-32.7L523.4,522.5L523.4,522.5z"/>
		<path class="st34" d="M529.3,522.9c0,0-1.3,31.8,5.1,31.8c6.4,0,5.3-31.4,5.3-31.4L529.3,522.9z"/>
		<path class="st29" d="M582.9,522.5c0,0,0.7,33.3,10.3,33.3c9.6,0,11-32.7,11-32.7L582.9,522.5L582.9,522.5z"/>
		<path class="st34" d="M588.8,522.9c0,0-1.3,31.8,5.1,31.8c6.4,0,5.3-31.4,5.3-31.4L588.8,522.9z"/>
		<path class="st30" d="M631.2,497.3l-8.8-6c0,0-11.6-63.2-18.8-86.5c-7.2-23.2-26-23.6-26-23.6H430.3c0,0-18.8,0.4-26,23.6
			c-7.2,23.2-18.8,86.5-18.8,86.5l-8.8,6c0,0-6.4,2-6.4,9.6s0.4,15.2,0.4,15.2h266.6c0,0,0.4-7.6,0.4-15.2S631.2,497.3,631.2,497.3
			L631.2,497.3z"/>
		<path class="st35" d="M603.6,404.9c-3.7-11.8-10.3-17.6-15.9-20.6c2.4,3.5,5.6,9.7,8.7,20.4c6,21,7.8,61.3-4.2,69.7
			c-12,8.4-49.2,10.8-96,10.8H386.6c-0.6,3.2-1,5.4-1.1,6h236.9C621.7,487.2,610.6,427.3,603.6,404.9L603.6,404.9z"/>
		<path class="st36" d="M506.4,504.3c71.2,0,129-0.9,129-2.1c0-1.2-57.7-2.1-129-2.1s-129,0.9-129,2.1
			C377.4,503.4,435.2,504.3,506.4,504.3z"/>
		<path class="st36" d="M587.1,388.2c0,1.2-36.8,2.1-82.1,2.1s-82.1-0.9-82.1-2.1c0-1.2,36.8-2.1,82.1-2.1S587.1,387,587.1,388.2z"
			/>
		<path class="st37" d="M482.3,646.1c0,0,14.7-28.2,18.4-34.1c3.6-5.9,9-16.1,16.3-17.6l-27.7-0.7c0,0-6.4-1.9-16,14.9
			c-7.9,14-13.1,24-13.1,24L482.3,646.1z"/>
		<path class="st37" d="M503.5,612.2c0,0,5.9-13.4,15.9-16.5c0,0,5-0.7,10.7,9.3c6.1,10.7,6.8,12.8,6.8,12.8l7.8-4l-9.5,24.4
			l-28-2.1l8.6-5.4L503.5,612.2L503.5,612.2z"/>
		<path class="st37" d="M524.5,647.1c0,0,16.5,27.2,19.7,33.3c3.2,6.1,9.1,16,6.7,23l14.9-23.4c0,0,5-4.5-4.5-21.4
			c-7.9-14-13.8-23.7-13.8-23.7L524.5,647.1L524.5,647.1z"/>
		<path class="st37" d="M542.6,682.8c0,0,8.5,12,5.9,22.2c0,0-2,4.6-13.5,4.4c-12.3-0.3-14.4-0.7-14.4-0.7l-0.6,8.8l-16-20.8
			l16.3-22.9l0.2,10.1L542.6,682.8L542.6,682.8z"/>
		<path class="st37" d="M502.4,683.8c0,0-31.8,0.6-38.7,0.2c-6.9-0.4-18.4-0.2-23.2-5.9l12.7,24.6c0,0,1.4,6.6,20.7,6.9
			c16,0.3,27.4,0,27.4,0L502.4,683.8z"/>
		<path class="st37" d="M462.6,681.4c0,0-14.6,1.3-22.1-6.1c0,0-3-4,3-13.9c6.4-10.5,7.9-12.1,7.9-12.1l-7.3-4.9l26-3.3l11.5,25.6
			l-8.8-5L462.6,681.4L462.6,681.4z"/>
		<path class="st38" d="M737.8,522.2c0,0,7.7,5.3,12.8,32c5.1,26.7,15-15.9,15-15.9l-7.2-22.2L737.8,522.2L737.8,522.2z"/>
		<path class="st38" d="M1004.9,522.2c0,0-7.7,5.3-12.8,32c-5.1,26.7-15-15.9-15-15.9l7.2-22.2L1004.9,522.2L1004.9,522.2z"/>
		<path class="st39" d="M872.3,511.5h-1.3h-1.3l-120.4,0.6l15.6,334c0,0,3,28.7,30,28.7h152.2c27,0,30-28.7,30-28.7l15.6-334
			L872.3,511.5L872.3,511.5z"/>
		<path class="st40" d="M741,808.4l-7.6,7.6v37.6l6.8,6.8L741,808.4z"/>
		<path class="st31" d="M779,816.8h-23.6v36H779V816.8z"/>
		<path class="st32" d="M761.4,795.2h-23.2v80.1h23.2V795.2z"/>
		<path class="st40" d="M1001.1,808.4l7.6,7.6v37.6l-6.8,6.8L1001.1,808.4z"/>
		<path class="st31" d="M963.2,852.8h23.6v-36h-23.6V852.8z"/>
		<path class="st40" d="M872.3,524.8h-1.3h-1.3l-120.4,0.6L765,847.3c0,0,3,27.6,30,27.6h152.2c27,0,30-27.6,30-27.6l15.6-321.9
			L872.3,524.8L872.3,524.8z"/>
		<path class="st32" d="M980.8,875.2h23.2v-80.1h-23.2V875.2z"/>
		<path class="st33" d="M761.4,795.2h-23.2v14.2h23.2V795.2z"/>
		<path class="st33" d="M980.8,809.4h23.2v-14.2h-23.2V809.4z"/>
		<path class="st41" d="M771.6,522.5c0,0,0.7,33.3,10.3,33.3c9.6,0,11-32.7,11-32.7L771.6,522.5L771.6,522.5z"/>
		<path class="st42" d="M777.4,522.9c0,0-1.3,31.8,5.1,31.8c6.4,0,5.3-31.4,5.3-31.4L777.4,522.9z"/>
		<path class="st41" d="M831.1,522.5c0,0,0.7,33.3,10.3,33.3c9.6,0,11-32.7,11-32.7L831.1,522.5L831.1,522.5z"/>
		<path class="st42" d="M836.9,522.9c0,0-1.3,31.8,5.1,31.8c6.4,0,5.3-31.4,5.3-31.4L836.9,522.9z"/>
		<path class="st41" d="M890.6,522.5c0,0,0.7,33.3,10.3,33.3c9.6,0,11-32.7,11-32.7L890.6,522.5L890.6,522.5z"/>
		<path class="st42" d="M896.4,522.9c0,0-1.3,31.8,5.1,31.8c6.4,0,5.3-31.4,5.3-31.4L896.4,522.9z"/>
		<path class="st41" d="M950.1,522.5c0,0,0.7,33.3,10.3,33.3s11-32.7,11-32.7L950.1,522.5L950.1,522.5z"/>
		<path class="st42" d="M955.9,522.9c0,0-1.3,31.8,5.1,31.8c6.4,0,5.3-31.4,5.3-31.4L955.9,522.9z"/>
		<path class="st40" d="M998.3,497.3l-8.8-6c0,0-11.6-63.2-18.8-86.5c-7.2-23.2-26-23.6-26-23.6H797.4c0,0-18.8,0.4-26,23.6
			c-7.2,23.2-18.8,86.5-18.8,86.5l-8.8,6c0,0-6.4,2-6.4,9.6s0.4,15.2,0.4,15.2h266.6c0,0,0.4-7.6,0.4-15.2S998.3,497.3,998.3,497.3z
			"/>
		<path class="st41" d="M970.7,404.9c-3.7-11.8-10.3-17.6-15.9-20.6c2.4,3.5,5.6,9.7,8.7,20.4c6,21,7.8,61.3-4.2,69.7
			c-12,8.4-49.2,10.8-96,10.8H753.7c-0.6,3.2-1,5.4-1.1,6h236.9C988.8,487.2,977.7,427.3,970.7,404.9L970.7,404.9z"/>
		<path class="st43" d="M873.5,504.3c71.2,0,129-0.9,129-2.1c0-1.2-57.7-2.1-129-2.1s-129,0.9-129,2.1
			C744.6,503.4,802.3,504.3,873.5,504.3z"/>
		<path class="st43" d="M954.2,388.2c0,1.2-36.8,2.1-82.1,2.1s-82.1-0.9-82.1-2.1c0-1.2,36.8-2.1,82.1-2.1S954.2,387,954.2,388.2z"
			/>
		<path class="st37" d="M849.5,646.1c0,0,14.7-28.2,18.4-34.1c3.6-5.9,9-16.1,16.3-17.6l-27.7-0.7c0,0-6.4-1.9-16,14.9
			c-7.9,14-13.1,24-13.1,24L849.5,646.1z"/>
		<path class="st37" d="M870.7,612.2c0,0,5.9-13.4,15.9-16.5c0,0,5-0.7,10.7,9.3c6.1,10.7,6.8,12.8,6.8,12.8l7.8-4l-9.5,24.4
			l-28-2.1l8.6-5.4L870.7,612.2L870.7,612.2z"/>
		<path class="st37" d="M891.6,647.1c0,0,16.5,27.2,19.7,33.3c3.2,6.1,9.1,16,6.7,23l14.9-23.4c0,0,5-4.5-4.5-21.4
			c-7.9-14-13.8-23.7-13.8-23.7L891.6,647.1L891.6,647.1z"/>
		<path class="st37" d="M909.7,682.8c0,0,8.5,12,5.9,22.2c0,0-2,4.6-13.5,4.4c-12.3-0.3-14.4-0.7-14.4-0.7l-0.6,8.8l-16-20.8
			l16.3-22.9l0.2,10.1L909.7,682.8L909.7,682.8z"/>
		<path class="st37" d="M869.6,683.8c0,0-31.8,0.6-38.7,0.2c-6.9-0.4-18.4-0.2-23.2-5.9l12.7,24.6c0,0,1.4,6.6,20.7,6.9
			c16,0.3,27.4,0,27.4,0L869.6,683.8z"/>
		<path class="st37" d="M829.7,681.4c0,0-14.6,1.3-22.1-6.1c0,0-3-4,3-13.9c6.4-10.5,7.9-12.1,7.9-12.1l-7.3-4.9l26-3.3l11.5,25.6
			l-8.8-5L829.7,681.4L829.7,681.4z"/>
	</g>
</g>
</svg>
