<svg width="1440" height="624" viewBox="0 0 1440 624" fill="none" xmlns="http://www.w3.org/2000/svg">
<g clip-path="url(#clip0_977_852)">
<path d="M990.132 491.571C984.95 493.627 979.787 495.652 974.605 497.646C938.192 511.822 901.661 525.187 865.032 537.773C832.27 549.02 799.41 559.644 766.49 569.614C482.86 655.57 193.832 693.61 -95 678.686L-75.6451 441.941L-65.1432 313.49L-63.5728 294.206L-59.0187 238.439C222.59 220.774 505.847 271.307 778.092 386.984C846.011 415.834 913.223 448.733 979.552 485.652C983.085 487.614 986.618 489.577 990.132 491.571Z" fill="#414A2B"/>
<g style="mix-blend-mode:soft-light" opacity="0.2">
<path d="M990.131 491.571C984.948 493.627 979.786 495.652 974.604 497.646C938.19 511.821 901.659 525.187 865.03 537.773C832.268 549.02 799.408 559.644 766.489 569.613C650.575 423.03 511.95 321.964 366.317 278.223C223.452 235.292 74.1677 247.629 -65.1445 313.49L-63.5742 294.205L-59.0201 238.438C222.588 220.774 505.845 271.307 778.09 386.984C846.009 415.834 913.221 448.733 979.55 485.651C983.083 487.614 986.617 489.577 990.131 491.571Z" fill="white"/>
</g>
<g style="mix-blend-mode:soft-light" opacity="0.2">
<path d="M979.55 485.651C978.156 489.826 976.488 493.845 974.604 497.646C974.604 497.646 974.623 497.677 974.604 497.677C968.145 510.887 959.194 521.573 949.556 528.52C931.438 541.605 909.884 559.145 890.019 561.326C881.755 553.319 873.412 545.437 865.03 537.773C587.623 282.647 250.816 194.261 -63.5742 294.205L-59.0201 238.438C222.588 220.774 505.845 271.307 778.09 386.984C846.009 415.834 913.221 448.733 979.55 485.651Z" fill="white"/>
</g>
<g style="mix-blend-mode:multiply">
<path d="M778.092 386.984C731.51 425.149 683.044 457.487 633.303 483.751C634.206 474.217 632.439 464.31 628.788 456.553C626.079 462.005 625.058 469.669 626.432 476.274C620.17 473.376 612.849 474.498 606.822 478.548C610.748 485.277 616.441 489.141 622.212 489.514C538.059 532.29 450.412 557.743 362.137 564.41C308.43 568.461 254.547 565.532 201.134 555.905C204.236 552.759 206.984 548.428 208.692 543.443C210.988 536.745 211.852 528.832 211.087 521.292C206.297 527.399 202.175 535.156 199.427 543.911C198.386 532.103 192.654 521.915 185.47 518.426C184.783 531.885 188.355 545.686 194.637 554.753C101.847 537.088 10.5884 499.079 -75.6254 441.941L-95 678.686C270.152 697.566 635.619 631.736 990.132 491.571C920.368 452.253 849.622 417.36 778.092 386.984Z" fill="#D6DDAB"/>
</g>
<g style="mix-blend-mode:soft-light" opacity="0.2">
<path d="M252.41 263.3C252.41 266.042 249.269 268.285 245.402 268.285C241.535 268.285 238.395 266.073 238.395 263.3C238.395 260.527 241.535 258.315 245.402 258.315C249.269 258.315 252.41 260.527 252.41 263.3Z" fill="white"/>
<path d="M367.559 310.032C367.559 312.774 364.418 315.017 360.551 315.017C356.684 315.017 353.543 312.805 353.543 310.032C353.543 307.259 356.684 305.047 360.551 305.047C364.418 305.047 367.559 307.259 367.559 310.032Z" fill="white"/>
<path d="M250.289 278.815C250.289 279.75 249.229 280.497 247.914 280.497C246.599 280.497 245.539 279.75 245.539 278.815C245.539 277.88 246.599 277.133 247.914 277.133C249.229 277.133 250.289 277.88 250.289 278.815Z" fill="white"/>
<path d="M311.297 310.032C311.297 310.967 310.237 311.715 308.922 311.715C307.607 311.715 306.547 310.967 306.547 310.032C306.547 309.098 307.607 308.35 308.922 308.35C310.237 308.35 311.297 309.098 311.297 310.032Z" fill="white"/>
<path d="M157.442 310.032C157.442 310.967 156.382 311.715 155.067 311.715C153.751 311.715 152.691 310.967 152.691 310.032C152.691 309.098 153.751 308.35 155.067 308.35C156.382 308.35 157.442 309.098 157.442 310.032Z" fill="white"/>
<path d="M372.953 346.732C374.265 346.732 375.329 345.979 375.329 345.05C375.329 344.121 374.265 343.368 372.953 343.368C371.642 343.368 370.578 344.121 370.578 345.05C370.578 345.979 371.642 346.732 372.953 346.732Z" fill="white"/>
<path d="M69.3598 346.732C69.3598 347.667 68.2998 348.415 66.9846 348.415C65.6694 348.415 64.6094 347.667 64.6094 346.732C64.6094 345.798 65.6694 345.05 66.9846 345.05C68.2998 345.05 69.3598 345.798 69.3598 346.732Z" fill="white"/>
<path d="M271.844 278.815C271.844 280.186 270.273 281.308 268.33 281.308C266.387 281.308 264.816 280.186 264.816 278.815C264.816 277.444 266.387 276.323 268.33 276.323C270.273 276.323 271.844 277.444 271.844 278.815Z" fill="white"/>
<path d="M70.4806 308.35C70.4806 309.721 68.9102 310.842 66.9669 310.842C65.0235 310.842 63.4531 309.721 63.4531 308.35C63.4531 306.979 65.0235 305.857 66.9669 305.857C68.9102 305.857 70.4806 306.979 70.4806 308.35Z" fill="white"/>
<path d="M126.484 285.763C126.484 287.133 124.914 288.255 122.971 288.255C121.027 288.255 119.457 287.133 119.457 285.763C119.457 284.392 121.027 283.27 122.971 283.27C124.914 283.27 126.484 284.392 126.484 285.763Z" fill="white"/>
</g>
<path d="M1487 341.956L1486.71 360.275L1484.57 498.54L1482.62 624H-34.6572C-39.2506 624 -42.3128 621.726 -46.9258 621.726V509.475C-46.9258 508.665 -42.1165 514.553 -42.1165 513.743C228.165 543.278 501.137 512.373 765.844 422.335C885.349 381.678 1003.4 328.996 1124.54 302.608C1227.61 280.145 1334.38 277.559 1434.81 317.126C1452.41 324.073 1469.84 332.298 1487 341.956Z" fill="#677446"/>
<g style="mix-blend-mode:soft-light" opacity="0.2">
<path d="M1487 341.956L1486.71 360.275C1331.36 298.215 1166.72 312.203 1009.86 365.073C849.388 419.126 695.412 512.653 542.202 605.806C530.915 612.66 519.49 618.704 507.948 624H-34.6572C-39.2506 624 -42.3128 621.726 -46.9258 621.726V509.475C-46.9258 508.665 -42.1165 514.553 -42.1165 513.743C228.165 543.278 501.137 512.373 765.844 422.335C885.349 381.678 1003.4 328.996 1124.54 302.608C1227.61 280.145 1334.38 277.559 1434.81 317.126C1452.41 324.073 1469.84 332.298 1487 341.956Z" fill="white"/>
</g>
<g style="mix-blend-mode:soft-light" opacity="0.2">
<path d="M1434.81 317.126C1324.82 291.641 1211.91 301.86 1102.08 331.208C976.412 364.761 853.961 422.896 731.904 480.875C631.478 528.573 531.052 576.302 430.626 624H-34.6572C-39.2506 624 -42.3128 621.726 -46.9258 621.726V509.475C-46.9258 508.665 -42.1165 514.553 -42.1165 513.743C228.165 543.278 501.137 512.373 765.844 422.335C885.349 381.678 1003.4 328.996 1124.54 302.608C1227.61 280.145 1334.38 277.559 1434.81 317.126Z" fill="white"/>
</g>
<g style="mix-blend-mode:multiply">
<path d="M1358.68 514.647C1359.35 506.827 1359.62 498.384 1357.27 492.091C1354.26 484.053 1349.65 478.009 1344.1 474.893C1344.04 489.723 1347.81 504.397 1354.19 515.176C1229.42 529.881 1104.48 541.066 979.454 548.761C981.143 546.331 982.556 543.621 983.42 540.661C985.638 532.997 986.246 524.211 984.598 516.173C978.552 520.909 974.292 530.723 973.409 541.346C969.188 530.598 961.415 524.024 953.425 523.775C955.094 533.682 958.627 542.717 963.339 549.727C626.649 569.604 289.391 563.996 -46.9453 532.841V621.726C-42.3323 621.726 -39.2701 624 -34.6767 624H1482.6L1484.55 498.54C1442.62 504.303 1400.65 509.631 1358.68 514.616V514.647Z" fill="#D6DDAB"/>
</g>
<g style="mix-blend-mode:soft-light" opacity="0.2">
<path d="M1090.52 353.359C1090.52 356.754 1086.65 359.527 1081.88 359.527C1077.11 359.527 1073.25 356.754 1073.25 353.359C1073.25 349.963 1077.11 347.19 1081.88 347.19C1086.65 347.19 1090.52 349.963 1090.52 353.359Z" fill="white"/>
<path d="M1102.04 363.328C1102.04 365.447 1099.63 367.16 1096.66 367.16C1093.7 367.16 1091.29 365.447 1091.29 363.328C1091.29 361.21 1093.7 359.496 1096.66 359.496C1099.63 359.496 1102.04 361.21 1102.04 363.328Z" fill="white"/>
<path d="M1328.84 375.852C1328.84 377.971 1326.43 379.684 1323.46 379.684C1320.5 379.684 1318.09 377.971 1318.09 375.852C1318.09 373.734 1320.5 372.02 1323.46 372.02C1326.43 372.02 1328.84 373.734 1328.84 375.852Z" fill="white"/>
<path d="M923.253 474.862C923.253 476.981 920.839 478.694 917.875 478.694C914.911 478.694 912.496 476.981 912.496 474.862C912.496 472.744 914.911 471.03 917.875 471.03C920.839 471.03 923.253 472.744 923.253 474.862Z" fill="white"/>
<path d="M1101.04 353.39C1102.84 353.39 1104.3 352.344 1104.3 351.053C1104.3 349.763 1102.84 348.717 1101.04 348.717C1099.24 348.717 1097.78 349.763 1097.78 351.053C1097.78 352.344 1099.24 353.39 1101.04 353.39Z" fill="white"/>
<path d="M891.63 455.204C891.63 456.481 890.178 457.54 888.372 457.54C886.566 457.54 885.113 456.512 885.113 455.204C885.113 453.895 886.566 452.867 888.372 452.867C890.178 452.867 891.63 453.895 891.63 455.204Z" fill="white"/>
<path d="M1314.81 365.665C1316.61 365.665 1318.07 364.619 1318.07 363.328C1318.07 362.038 1316.61 360.991 1314.81 360.991C1313.01 360.991 1311.55 362.038 1311.55 363.328C1311.55 364.619 1313.01 365.665 1314.81 365.665Z" fill="white"/>
<path d="M1258.26 413.83C1258.26 415.107 1256.8 416.167 1255 416.167C1253.19 416.167 1251.74 415.139 1251.74 413.83C1251.74 412.522 1253.19 411.493 1255 411.493C1256.8 411.493 1258.26 412.522 1258.26 413.83Z" fill="white"/>
</g>
</g>
<g clip-path="url(#clip1_977_852)">
<path d="M168.626 499.869C156.495 447.206 155.329 392.704 166.953 339.923C165.838 339.889 164.926 340.041 163.811 339.99C157.829 355.868 154.552 372.928 153.774 389.869C153.386 375.037 152.389 360.222 150.564 345.491C149.618 345.609 148.621 345.727 147.675 345.845C149.483 396.399 148.621 447.038 145.09 497.49L168.643 499.853L168.626 499.869Z" fill="#632424"/>
<path d="M228.928 329.005C231.428 334.658 231.344 341.627 227.796 346.672C224.755 351.009 219.568 353.439 214.347 354.316C209.109 355.177 203.77 354.654 198.498 354.114C200.661 357.505 199.292 362.618 195.71 364.457C192.145 366.296 187.161 364.457 185.641 360.745C185.286 365.588 180.234 369.3 175.368 368.979C170.502 368.642 166.278 364.963 164.419 360.458C162.561 355.953 162.797 350.806 164.081 346.132C163.051 348.393 160.415 349.811 157.948 349.423C155.853 349.085 153.944 347.499 153.268 345.508C154.028 349.49 152.609 353.86 149.568 356.577C146.256 359.53 141.187 360.374 137.099 358.653C138.247 361.082 137.166 364.322 134.784 365.571C132.401 366.82 129.107 365.858 127.772 363.512C126.184 371.122 117.28 376.303 109.879 373.907C102.479 371.527 98.2886 362.129 101.448 355.025C100.08 356.645 98.5083 358.383 96.3963 358.602C94.2843 358.821 91.733 355.379 92.9833 353.675C91.0234 356.257 89.0128 358.889 86.2587 360.61C83.5216 362.331 79.8383 362.955 77.0336 361.336C73.4685 359.277 72.573 354.265 73.9247 350.384C75.2764 346.503 78.3176 343.466 81.2744 340.598C77.7601 338.32 77.7094 332.313 81.2068 329.984C76.9491 331.013 71.8634 331.621 68.7208 328.567C65.3416 325.293 66.3047 319.337 69.498 315.861C69.5656 315.776 69.65 315.692 69.7345 315.608C73.0461 312.216 77.8108 310.782 82.3896 309.516C80.4127 309.972 78.3176 307.812 78.7063 305.77C79.1286 303.644 81.7982 301.231 83.8764 301.855C77.8783 300.489 71.6606 299.004 66.9129 295.089C62.182 291.174 59.4956 284.054 62.5369 278.721C64.5813 275.161 68.687 273.204 72.7589 272.714C76.8308 272.225 80.9365 273.018 84.9577 273.794C81.7982 270.858 81.5955 265.29 84.5522 262.135C87.4921 258.979 93.0678 258.793 96.2273 261.746C94.2843 257.899 94.0815 253.191 95.6867 249.192C97.2918 245.193 100.688 241.937 104.76 240.485C109.845 238.697 115.59 239.726 120.422 242.156C125.238 244.569 129.293 248.264 133.179 251.993C135.426 250.762 138.433 251.099 140.376 252.77C142.319 254.44 143.063 257.376 142.15 259.772C145.817 256.735 151.122 255.807 155.6 257.427C157.661 258.169 159.486 259.435 160.972 261.038C161.936 260.093 163.034 259.3 164.284 258.726C167.9 257.106 173.205 258.726 173.813 262.624C174.76 257.241 176.466 251.892 179.642 247.454C182.819 243.016 187.634 239.54 193.041 238.815C198.465 238.072 204.395 240.452 207.132 245.193C209.937 250.07 208.991 256.178 207.605 261.628C212.184 262.573 214.634 268.817 211.914 272.63C214.059 270.605 216.425 268.698 219.179 267.635C221.933 266.572 225.16 266.42 227.779 267.821C229.249 268.614 230.398 269.795 231.243 271.213C232.56 273.389 233.169 276.106 233.287 278.688C233.709 289.622 226.309 300.404 215.935 303.914C219.382 302.75 223.538 305.517 223.808 309.145C224.079 312.756 220.024 316.384 216.459 315.743C221.747 318.932 226.495 323.353 228.979 329.005H228.928Z" fill="#2E351D"/>
<g style="mix-blend-mode:multiply">
<path d="M228.927 329.005C231.428 334.658 231.343 341.627 227.795 346.672C224.754 351.009 219.567 353.439 214.346 354.316C209.108 355.177 203.769 354.653 198.498 354.113C200.66 357.505 199.292 362.618 195.71 364.457C192.145 366.296 187.161 364.457 185.64 360.745C185.285 365.588 180.233 369.3 175.367 368.979C170.501 368.642 166.277 364.963 164.419 360.458C162.56 355.953 162.797 350.806 164.081 346.132C163.05 348.393 160.414 349.811 157.948 349.423C155.853 349.085 153.943 347.499 153.267 345.508C154.028 349.49 152.608 353.86 149.567 356.577C146.256 359.53 141.187 360.374 137.098 358.653C138.247 361.082 137.166 364.322 134.783 365.571C132.401 366.819 129.106 365.858 127.771 363.512C126.183 371.122 117.279 376.303 109.879 373.906C102.478 371.527 98.2881 362.129 101.448 355.025C100.079 356.645 98.5078 358.383 96.3958 358.602C94.2838 358.821 91.7325 355.379 92.9828 353.675C91.0229 356.256 89.0123 358.889 86.2582 360.61C83.5211 362.331 79.8378 362.955 77.0331 361.335C73.468 359.277 72.5725 354.265 73.9242 350.384C75.2759 346.503 78.3171 343.466 81.2739 340.598C77.7596 338.32 77.7089 332.313 81.2063 329.984C76.9486 331.013 71.8629 331.621 68.7202 328.567C65.3411 325.293 66.3041 319.337 69.4975 315.861C69.6664 316.468 69.9199 317.059 70.2578 317.565C71.677 319.691 74.2621 320.838 76.8134 320.956C79.3647 321.058 81.8653 320.231 84.1462 319.067C89.0629 316.552 93.1011 312.368 95.4665 307.356C95.9396 309.01 97.2237 310.41 98.8288 311.035C100.434 311.659 102.326 311.473 103.796 310.596C99.927 313.718 98.4402 319.32 99.8087 324.095C101.177 328.87 105.114 332.718 109.777 334.456C114.441 336.194 119.712 335.94 124.392 334.287C129.715 332.397 134.53 328.465 136.456 323.167C132.046 321.952 128.042 318.712 126.302 314.477C130.289 313.178 135.037 314.021 137.96 317.008C137.335 312.975 138.788 308.588 141.542 305.568C143.823 307.474 145.242 310.377 145.411 313.33C145.512 315.203 145.225 317.312 146.492 318.679C147.405 319.691 149.077 319.927 150.243 319.202C151.409 318.493 151.95 316.89 151.476 315.624C153.082 318.172 155.836 319.877 158.759 320.636C161.698 321.378 164.79 321.243 167.764 320.67C170.535 320.147 173.357 319.202 175.334 317.194C177.141 315.388 178.071 312.857 178.442 310.343C178.797 307.812 178.611 305.247 178.425 302.699C180.673 303.965 182.768 304.471 185.336 304.37C187.921 304.268 190.591 302.159 190.286 299.594C193.057 301.552 196.487 302.716 199.866 302.412C203.246 302.125 206.557 300.303 208.281 297.367C209.987 294.431 209.869 290.432 207.689 287.816C211.879 289.858 217.033 289.554 221.155 287.378C225.295 285.218 228.387 281.303 229.975 276.933C230.651 275.06 231.073 273.136 231.259 271.162C232.577 273.339 233.185 276.055 233.303 278.637C233.726 289.571 226.325 300.354 215.951 303.863C219.398 302.699 223.554 305.466 223.825 309.094C224.095 312.705 220.04 316.333 216.475 315.692C221.763 318.881 226.511 323.302 228.995 328.955L228.927 329.005Z" fill="#D6DDAB"/>
</g>
<path d="M232.747 145.992C232.747 155.02 227.949 163.558 221.275 169.65C214.618 175.741 206.237 179.622 197.705 182.575C200.51 183.756 204.801 184.65 206.913 186.861C209.008 189.071 210.124 192.514 208.755 195.23C207.555 197.593 204.075 198.588 202.014 197.154C210.124 204.865 215.682 215.209 217.625 226.227C218.859 233.264 217.879 241.903 211.61 245.345C207.217 247.758 201.574 246.628 197.401 243.861C193.228 241.076 190.22 236.908 187.314 232.842C190.017 237.55 185.371 244.451 179.981 243.742C186.909 251.943 194.039 260.582 196.32 271.061C198.584 281.54 194.14 294.313 183.969 297.705C178.055 299.679 171.432 298.144 166.059 295.022C160.669 291.917 156.293 287.361 151.985 282.873C152.593 289.133 147.169 295.326 140.867 295.562C136.88 295.697 133.078 293.436 130.865 290.145C131.642 297.722 127.671 305.872 120.71 309.145C111.637 313.414 99.4553 308.538 95.8396 299.223C97.4278 304.302 93.4573 310.056 88.4223 311.17C87.5099 311.389 86.5637 311.44 85.6007 311.305C86.9523 313.397 87.9999 315.675 88.7264 318.038C89.9936 322.138 90.3484 326.508 89.8584 330.811C89.3009 335.452 87.7633 339.974 85.2796 343.939C79.1802 353.675 67.9951 359.767 56.5397 360.627C45.0673 361.488 33.4937 357.387 24.4543 350.3C15.0095 356.223 1.66175 354.958 -6.51588 347.381C-14.4063 340.058 -13.0377 331.773 -16.6365 322.83C-19.5764 315.524 -24.5438 310.715 -25.8448 302.362C-28.2271 286.855 -22.1615 269.627 -9.03337 260.532C-32.958 244.046 -48.9922 216.609 -51.6111 187.688C-54.2299 158.783 -43.3659 128.916 -22.7697 108.431C-31.5387 101.547 -34.0393 88.6046 -30.4912 78.0585C-26.943 67.4955 -18.343 59.2442 -8.62786 53.794C0.158009 48.8837 15.5333 47.6519 22.1903 41.3074C29.3035 34.5241 29.1514 25.3954 42.1106 24.8385C51.1668 24.4504 60.1385 30.4406 63.2305 38.9619C63.8049 35.4184 67.2179 32.5667 70.8167 32.6342C74.3987 32.7017 77.7103 35.6715 78.1496 39.2319C88.4561 25.6147 101.652 14.1912 116.605 5.92299C125.103 1.23208 135.629 -2.42954 144.297 1.97452C152.002 5.88925 155.617 15.288 155.212 23.9105C154.823 32.5499 151.157 40.6493 147.575 48.4956C153.015 44.6484 161.548 46.2683 165.197 51.8535C168.847 57.4387 166.904 65.8925 161.176 69.3179C170.824 67.1074 181.029 64.9138 190.44 67.9173C199.868 70.9209 207.707 81.2139 204.362 90.5114C201.997 97.0921 195.272 100.754 188.784 103.656C193.194 102.121 198.685 104.01 200.983 108.111C203.551 112.7 201.692 119.197 197.097 121.745C204.48 118.826 213.199 119.568 220.025 123.601C220.481 123.871 220.92 124.141 221.359 124.445C228.354 129.203 232.764 137.539 232.747 145.992Z" fill="#414A2B"/>
<g style="mix-blend-mode:multiply">
<path d="M215.175 148.507C208.434 157.433 196.201 161.82 185.32 159.221C187.601 160.622 188.446 163.929 187.111 166.241C185.777 168.57 182.465 169.481 180.116 168.198C183.208 178.508 183.141 190.252 177.565 199.449C171.973 208.662 160.027 214.314 149.907 210.619C146.815 212.34 142.084 212.053 140.09 209.117C140.698 210.72 141.29 212.34 141.475 214.044C141.661 215.732 141.408 217.537 140.428 218.938C139.076 220.845 136.356 221.655 134.176 220.794C134.65 223.359 135.613 225.654 136.457 228.117C137.319 230.581 137.691 233.449 136.373 235.694C132.453 233.078 129.8 228.742 129.023 224.068C129.192 225.333 128.601 226.734 127.638 227.594C126.59 228.539 124.985 228.843 123.667 228.337C125.864 234.799 124.106 242.173 120.879 248.197C117.669 254.221 112.888 259.233 108.157 264.16C101.905 270.707 95.6537 277.254 89.3853 283.784C88.4899 292.98 88.1688 302.092 88.4223 311.17C88.4899 313.465 88.5912 315.743 88.7264 318.038C88.9798 322.29 89.3515 326.559 89.8584 330.811C89.3009 335.452 87.7633 339.974 85.2796 343.939C79.1802 353.675 67.9951 359.767 56.5397 360.627C45.0673 361.488 33.4937 357.387 24.4543 350.3C15.0095 356.223 1.66175 354.958 -6.51588 347.381C-14.4063 340.058 -13.0377 331.773 -16.6365 322.83C-19.5764 315.524 -24.5438 310.715 -25.8448 302.362C-28.2271 286.855 -22.1615 269.627 -9.03337 260.532C-32.958 244.046 -48.9922 216.609 -51.6111 187.688C-54.2299 158.783 -43.3659 128.916 -22.7697 108.431C-31.5387 101.547 -34.0393 88.6046 -30.4912 78.0585C-26.943 67.4955 -18.343 59.2442 -8.62786 53.794C0.158009 48.8837 15.5333 47.6519 22.1903 41.3074C29.3035 34.5241 29.1514 25.3954 42.1106 24.8385C51.1668 24.4504 60.1385 30.4406 63.2305 38.9619C63.8049 35.4184 67.2179 32.5667 70.8167 32.6342C74.3987 32.7017 77.7103 35.6715 78.1496 39.2319C88.4561 25.6147 101.652 14.1912 116.605 5.92299C125.103 1.23208 135.629 -2.42954 144.297 1.97452C152.002 5.88925 155.617 15.288 155.212 23.9105C154.823 32.5499 151.157 40.6493 147.575 48.4956C153.015 44.6484 161.548 46.2683 165.197 51.8535C168.847 57.4387 166.904 65.8925 161.176 69.3179C170.824 67.1074 181.029 64.9138 190.44 67.9173C199.868 70.9209 207.707 81.2139 204.362 90.5114C201.997 97.0921 195.272 100.754 188.784 103.656C193.194 102.121 198.685 104.01 200.983 108.111C203.551 112.7 201.692 119.197 197.097 121.745C204.48 118.826 213.199 119.568 220.025 123.601C222.17 132.055 220.481 141.521 215.175 148.507Z" fill="#D6DDAB"/>
</g>
<path d="M133.77 156.083C133.516 165.701 132.824 175.302 131.59 184.836C131.506 185.527 131.421 186.202 131.32 186.911C130.864 190.235 130.357 193.542 129.765 196.833C129.664 197.44 129.546 198.031 129.427 198.621C127.366 209.657 124.477 220.507 120.591 231.036C120.439 231.508 120.253 231.981 120.067 232.437C120.016 232.555 119.983 232.69 119.932 232.791C118.867 235.609 117.685 238.342 116.418 241.025C116.232 241.481 116.012 241.936 115.776 242.392C112.565 249.074 108.798 255.284 104.574 261.189C103.965 262.05 103.34 262.894 102.698 263.737C98.491 269.356 93.8784 274.689 88.8941 279.801C88.3197 280.392 87.7452 280.966 87.1707 281.556C87.1707 281.708 87.1707 281.877 87.1707 282.029C87.0863 284.003 87.0187 285.96 86.9342 287.934C86.9342 288.694 86.8835 289.47 86.8666 290.229C86.7483 293.807 86.647 297.401 86.5456 300.978C86.5456 301.67 86.5118 302.362 86.4949 303.053C86.2246 314.038 86.0725 325.074 86.0387 336.092C86.0387 336.97 86.0387 337.864 86.0387 338.742C86.0387 345.204 86.0725 351.667 86.1401 358.13C86.1401 358.906 86.1739 359.699 86.1739 360.458C86.2752 367.478 86.4273 374.463 86.6301 381.432C86.6301 381.955 86.6639 382.478 86.6808 382.985C86.8497 389.025 87.0694 395.033 87.3397 401.023C87.3735 401.613 87.3904 402.187 87.4073 402.794C87.9479 414.724 88.6238 426.536 89.4686 438.196C89.5193 438.702 89.5362 439.191 89.5869 439.697C90.1444 447.341 90.7865 454.918 91.4961 462.41C91.5468 462.882 91.5806 463.371 91.6313 463.844C91.9185 466.915 92.2226 469.952 92.5605 472.973C92.6112 473.445 92.645 473.934 92.7126 474.407C93.0843 478.018 93.4898 481.595 93.9122 485.155C93.9629 485.645 94.0136 486.117 94.0643 486.607C94.7401 492.361 95.4666 498.013 96.2438 503.599C96.3114 504.088 96.3959 504.577 96.4635 505.083C97.1224 509.859 97.8321 514.6 98.5586 519.274C88.6914 519.274 80.1589 519.359 72.032 519.477C57.4846 519.679 44.1537 519.949 26.5144 519.966C26.7847 513.183 27.072 506.349 27.3761 499.464C27.4099 498.975 27.4268 498.486 27.4437 497.98C27.7478 490.791 28.0857 483.569 28.4067 476.28C28.4574 475.166 28.525 474.053 28.5588 472.956C28.5588 472.956 28.5588 472.944 28.5588 472.922C28.8798 466.358 29.2177 459.744 29.5725 453.112C29.6063 452.353 29.6401 451.577 29.6908 450.817C29.9443 445.975 30.2146 441.115 30.5018 436.238C30.5525 435.479 30.5863 434.72 30.637 433.96C30.9749 428.341 31.3128 422.706 31.7014 417.053C31.7352 416.395 31.769 415.72 31.8366 415.045C32.259 408.616 32.6983 402.17 33.1883 395.724C33.239 395.083 33.2728 394.442 33.3403 393.784C34.3541 380.302 35.503 366.786 36.804 353.287C36.8547 352.629 36.9392 351.954 37.0068 351.296C37.0743 350.503 37.1588 349.726 37.2264 348.933C37.3109 348.005 37.4123 347.094 37.4967 346.183C35.6213 341.964 33.881 337.712 32.2421 333.409C32.0731 332.937 31.8873 332.464 31.7183 332.009C30.9073 329.798 30.1301 327.588 29.3698 325.361C28.9474 324.095 28.525 322.829 28.1195 321.547C21.2429 299.965 17.4413 277.422 16.8499 254.811C16.8161 253.833 16.7992 252.82 16.7823 251.841C16.6979 244.603 16.9344 237.364 17.4751 230.142C17.5427 229.231 17.6271 228.336 17.6947 227.442C18.455 218.853 19.7053 210.315 21.4287 201.878C21.4287 201.743 21.4794 201.625 21.4963 201.49L21.6653 201.524L22.6452 201.726L24.5038 202.097C24.5038 207.21 24.6727 212.323 24.9431 217.419C24.9938 218.178 25.0275 218.938 25.0782 219.714C25.3486 224.253 25.7372 228.809 26.2103 233.331C26.2947 234.225 26.3961 235.119 26.4975 236.014C27.3085 243.286 28.3898 250.508 29.6908 257.697C29.9105 258.878 30.147 260.076 30.3667 261.257C33.2559 276.173 37.2264 290.854 42.2107 305.196C42.7345 301.147 43.2751 297.097 43.8496 293.03C43.9172 292.541 44.0017 292.069 44.0692 291.562C44.593 287.783 45.1337 284.003 45.725 280.24C45.7757 279.768 45.8602 279.278 45.9447 278.823C46.5698 274.604 47.2288 270.403 47.9384 266.201C48.0229 265.644 48.1074 265.104 48.2087 264.531C48.5129 262.641 48.8339 260.768 49.1718 258.878C49.307 258.085 49.4253 257.275 49.5773 256.482C51.3007 246.492 53.1761 236.587 55.2206 226.733V226.683C55.9809 223.072 56.7243 219.461 57.5184 215.85C57.5184 215.816 57.5184 215.799 57.5184 215.765C58.3801 211.851 59.2925 207.919 60.2217 204.038V203.869C60.8469 201.153 61.4889 198.436 62.1817 195.753C62.1817 195.719 62.1817 195.702 62.1817 195.669C62.7392 193.391 63.2968 191.146 63.8713 188.885C64.0233 188.244 64.2092 187.603 64.3612 186.962C65.2229 183.671 66.0846 180.415 66.9801 177.158C67.1491 176.5 67.3349 175.825 67.5208 175.167C69.3962 168.384 71.3561 161.668 73.4343 155.003C73.5864 154.547 73.7216 154.091 73.8736 153.636C74.6002 151.307 75.3436 148.996 76.087 146.667L92.9491 149.266L98.5586 150.126C98.3896 151.392 98.2038 152.657 98.0348 153.94C97.9672 154.429 97.8996 154.935 97.8321 155.425C97.4266 158.479 97.0211 161.567 96.6324 164.671C96.5649 165.194 96.4973 165.734 96.4297 166.257C95.8045 171.252 95.2132 176.297 94.6387 181.41C94.5711 182.051 94.4867 182.676 94.4191 183.334C93.8108 188.868 93.2364 194.47 92.6957 200.106C92.6281 200.899 92.5436 201.692 92.4592 202.486C92.1888 205.455 91.9016 208.442 91.6481 211.429C91.5637 212.272 91.4961 213.116 91.4116 213.943C90.9554 219.191 90.5499 224.472 90.1444 229.77C90.0937 230.53 90.043 231.272 89.9924 232.048C89.7051 236.132 89.4179 240.232 89.1476 244.333C89.1138 244.856 89.08 245.362 89.0462 245.885C88.9955 246.509 88.9786 247.117 88.9279 247.741C89.5869 246.881 90.212 246.037 90.854 245.159C91.3271 244.484 91.8171 243.793 92.3071 243.135C97.359 236.064 101.988 228.724 106.212 221.114C107.007 219.68 107.801 218.229 108.544 216.795C108.544 216.744 108.578 216.71 108.595 216.66C108.983 215.968 109.338 215.259 109.693 214.567C109.693 214.517 109.727 214.5 109.744 214.449C110.774 212.458 111.771 210.433 112.734 208.408C114.779 204.105 116.688 199.769 118.462 195.348C118.749 194.639 119.02 193.931 119.307 193.222C124.038 181.106 127.721 168.586 130.272 155.846C131.438 155.931 132.655 155.931 133.803 155.998L133.77 156.083Z" fill="#632424"/>
<g style="mix-blend-mode:multiply" opacity="0.5">
<path d="M86.1417 360.509C84.9083 362.095 83.658 363.681 82.4077 365.25C71.1719 379.256 58.9224 392.417 45.7773 404.634C41.1647 408.903 36.4508 413.071 31.6523 417.103C31.6861 416.445 31.7199 415.77 31.7875 415.096C43.8512 404.921 55.239 393.97 65.8835 382.327C72.9629 374.565 79.7381 366.516 86.1248 358.18C86.1248 358.956 86.1586 359.749 86.1586 360.509H86.1417Z" fill="#B73835"/>
<path d="M56.0999 408.498C47.5505 417.762 39.0181 427.025 30.4688 436.272C30.5194 435.513 30.5532 434.754 30.6039 433.994C33.5438 430.805 36.4668 427.633 39.4236 424.444C46.2664 417.053 53.0248 409.578 59.9521 402.255C65.8826 395.994 72.1341 389.886 79.4669 385.28C81.7479 383.828 84.1302 382.546 86.6139 381.466C86.6139 381.989 86.6477 382.512 86.6646 383.018C86.2084 383.238 85.7353 383.457 85.296 383.677C81.4944 385.55 77.9463 387.878 74.6347 390.477C67.8594 395.809 61.9627 402.17 56.1336 408.498H56.0999Z" fill="#B73835"/>
<path d="M87.3569 402.828C80.3282 408.396 73.1981 413.864 66.1863 419.466C53.1933 429.792 40.4876 440.676 29.5391 453.163C29.5729 452.403 29.6067 451.627 29.6573 450.868C40.7242 438.466 53.4975 427.7 66.5073 417.373C73.4009 411.923 80.3958 406.54 87.2893 401.073C87.3231 401.664 87.34 402.238 87.3569 402.845V402.828Z" fill="#B73835"/>
<path d="M94.0151 486.657C89.1322 486.607 84.2492 486.539 79.3663 486.472C72.4897 486.37 65.613 486.286 58.7364 486.185C55.3572 486.134 51.978 486.1 48.5989 486.05C45.49 485.999 42.3474 486.05 39.2723 485.493C34.4063 484.649 29.1854 481.578 28.3407 476.331C28.3069 476.229 28.29 476.111 28.29 475.993C28.1548 474.93 28.2393 473.934 28.5096 473.006C28.5096 473.006 28.5096 472.995 28.5096 472.973C29.4727 469.362 32.9026 466.628 35.9945 464.671C41.266 461.33 46.7572 458.292 52.2653 455.356C57.824 452.37 63.4504 449.552 69.1612 446.886C75.8182 443.781 82.5597 440.912 89.4025 438.246C89.4532 438.753 89.4701 439.242 89.5208 439.748C81.7487 442.768 74.0948 446.11 66.5761 449.704C61.0343 452.353 55.5938 455.154 50.204 458.107C47.5682 459.558 44.9493 461.026 42.3474 462.545C39.9313 463.945 37.4644 465.329 35.1666 466.949C33.2067 468.332 31.2468 470.037 30.2668 472.281C29.2361 474.626 29.6585 477.174 31.0778 479.25C34.4908 484.194 41.0126 484.481 46.4531 484.565C59.6488 484.751 72.8276 484.919 86.0402 485.105C88.6422 485.139 91.2442 485.172 93.8292 485.206C93.8799 485.695 93.9306 486.168 93.9813 486.657H94.0151Z" fill="#B73835"/>
<path d="M92.6451 474.457C89.9925 474.576 87.3398 474.677 84.6872 474.711C80.1591 474.744 75.4958 474.66 71.0691 473.766C69.2612 473.394 67.4533 472.686 66.2706 471.201C65.2569 469.918 64.8176 468.214 65.4765 466.679C66.7437 463.675 70.7142 463.405 73.5021 463.27L91.4455 462.46C91.4962 462.933 91.53 463.422 91.5807 463.894C89.9249 463.979 88.2691 464.046 86.6302 464.131L78.9088 464.485C76.5602 464.603 74.1948 464.62 71.8632 464.839C70.3932 464.974 68.6529 465.261 67.5209 466.291C66.1354 467.539 66.5409 469.497 67.7575 470.711C69.2274 472.179 71.5084 472.466 73.4683 472.703C75.6648 472.989 77.895 473.158 80.1422 473.226C84.2648 473.378 88.4043 473.226 92.5269 473.057C92.5776 473.529 92.6113 474.019 92.6789 474.491L92.6451 474.457Z" fill="#B73835"/>
<path d="M96.3973 505.117C94.2684 504.965 92.1564 504.746 90.0275 504.459C78.4707 502.991 67.1166 500.274 55.5598 498.891C46.1657 497.743 36.5519 497.49 27.293 499.498C27.3268 499.009 27.3437 498.52 27.3606 498.013C31.6521 497.085 36.0451 496.647 40.438 496.562C51.8934 496.326 63.1799 498.452 74.3988 500.477C81.5964 501.776 88.8617 503.059 96.1607 503.632C96.2283 504.122 96.3128 504.611 96.3804 505.117H96.3973Z" fill="#B73835"/>
<path d="M60.7953 368.49C70.1219 358.467 78.5698 347.617 86.0209 336.143C86.0209 337.021 86.0209 337.915 86.0209 338.792C77.5392 351.599 67.8071 363.597 57.0275 374.548C49.5427 382.141 41.5847 389.245 33.1367 395.775C33.1874 395.134 33.2212 394.493 33.2888 393.835C43.1222 386.14 52.3136 377.653 60.8122 368.507L60.7953 368.49Z" fill="#B73835"/>
<path d="M86.5305 301.045C86.5305 301.737 86.4968 302.429 86.4799 303.121C85.6689 303.863 84.8747 304.606 84.0806 305.365C69.6346 319.252 57.7568 335.62 42.5167 348.68C40.6243 350.283 38.6982 351.836 36.7383 353.32C36.789 352.662 36.8734 351.987 36.941 351.329C42.0436 347.415 46.7745 343.027 51.2857 338.455C58.3988 331.25 64.9714 323.521 71.7973 316.013C75.2948 312.182 78.8598 308.386 82.5938 304.775C83.8779 303.509 85.1958 302.26 86.5305 301.029V301.045Z" fill="#B73835"/>
<path d="M86.9163 287.985C86.9163 288.744 86.8656 289.521 86.8487 290.28C83.9426 293.84 80.6817 297.08 77.218 300.084C69.9359 306.378 61.9441 311.828 54.172 317.464L32.1566 333.46C31.9876 332.988 31.8018 332.515 31.6328 332.059C35.0289 329.596 38.4081 327.132 41.8042 324.686C50.0156 318.712 58.2608 312.806 66.4384 306.766C73.805 301.315 81.0703 295.477 86.6966 288.188C86.7473 288.12 86.8318 288.053 86.8994 288.002L86.9163 287.985Z" fill="#B73835"/>
<path d="M30.2999 261.291C28.1541 271.365 27.2924 281.708 27.7655 292.001C28.2555 302.885 30.1816 314.393 29.303 325.411C28.8806 324.146 28.4582 322.88 28.0527 321.598C28.1203 319.573 28.1034 317.565 28.0527 315.54C27.7148 306.209 26.2787 296.928 26.2111 287.58C26.1435 279.295 26.9207 271.027 28.5089 262.894C28.8469 261.156 29.2186 259.435 29.641 257.73C29.8606 258.912 30.0971 260.11 30.3168 261.291H30.2999Z" fill="#B73835"/>
<path d="M88.896 279.852C88.3215 280.442 87.7471 281.016 87.1726 281.607C87.1726 281.759 87.1726 281.927 87.1726 282.079C79.0964 285.285 71.1215 288.744 62.8425 291.377C57.4865 293.081 51.6067 294.954 45.9635 293.739C45.22 293.587 44.4935 293.368 43.8008 293.081C43.8684 292.592 43.9528 292.119 44.0204 291.613C46.5548 292.608 49.4778 292.811 52.1474 292.507C55.1041 292.17 57.9933 291.343 60.8319 290.482C63.6197 289.639 66.3568 288.694 69.0602 287.698C75.7341 285.235 82.2897 282.417 88.9129 279.835L88.896 279.852Z" fill="#B73835"/>
<path d="M25.0094 219.764C24.8573 219.95 24.7391 220.152 24.587 220.338C22.2047 223.645 19.8055 226.919 17.4062 230.209C17.4738 229.298 17.5583 228.404 17.6259 227.509C20.042 224.168 22.475 220.827 24.8911 217.486C24.9418 218.246 24.9756 219.005 25.0263 219.781L25.0094 219.764Z" fill="#B73835"/>
<path d="M26.43 236.048C23.2874 242.358 20.0602 248.619 16.7824 254.862C16.7486 253.883 16.7317 252.871 16.7148 251.892C19.9251 245.75 23.0846 239.574 26.1428 233.365C26.2272 234.259 26.3286 235.153 26.43 236.048Z" fill="#B73835"/>
<path d="M96.5834 164.722C96.5158 165.245 96.4482 165.785 96.3806 166.308C96.0258 166.426 95.6541 166.561 95.3162 166.662C89.8757 168.552 84.4352 170.476 78.9947 172.366C76.4603 173.243 73.9091 174.087 71.4085 175.032C69.8878 175.606 68.3165 176.28 66.9648 177.209C67.1338 176.55 67.3197 175.875 67.5055 175.217C68.0462 174.931 68.5868 174.661 69.1613 174.407C71.3578 173.446 73.6556 172.72 75.9028 171.927C78.5047 171.016 81.1236 170.105 83.7256 169.193C88.0172 167.709 92.3425 166.257 96.6172 164.722H96.5834Z" fill="#B73835"/>
<path d="M83.0146 221.772C85.8869 218.364 88.7424 214.921 91.6147 211.496C91.5302 212.34 91.4626 213.183 91.3781 214.01C89.9589 215.698 88.5396 217.419 87.1203 219.106C81.3588 225.991 75.3101 234.158 66.3215 236.874C62.6551 237.988 57.3835 238.359 55.5588 234.107C54.6802 232.048 54.8998 229.737 55.0688 227.56L55.1195 226.801V226.75C55.8798 223.139 56.6232 219.528 57.4173 215.917C57.1639 219.326 56.8767 222.734 56.6232 226.143C56.4543 228.404 55.9981 230.918 56.7077 233.111C57.4511 235.389 59.6138 236.216 61.8272 236.199C66.1187 236.149 70.292 233.905 73.6036 231.357C77.1349 228.589 80.1254 225.198 83.0146 221.772Z" fill="#B73835"/>
<path d="M94.5878 181.478C94.5202 182.119 94.4357 182.743 94.3681 183.401C93.9964 183.655 93.6247 183.924 93.253 184.178C89.1642 187.063 85.143 190.218 80.4459 192.075C76.3233 193.711 71.4235 194.116 67.3685 192.024C65.9999 191.315 64.7665 190.235 63.8203 188.953C63.9724 188.312 64.1582 187.67 64.3103 187.029C64.682 187.772 65.172 188.43 65.7464 189.02C69.1425 192.547 74.6675 192.53 79.0266 191.062C84.0109 189.375 88.2856 185.916 92.5265 182.929C93.2023 182.456 93.895 181.967 94.5878 181.478Z" fill="#B73835"/>
<path d="M97.9833 153.99C97.9157 154.48 97.8481 154.986 97.7805 155.475C97.7129 155.475 97.6453 155.475 97.5778 155.509C89.5353 156.555 81.3577 156.403 73.3828 155.053C73.5349 154.598 73.67 154.142 73.8221 153.687C81.8139 155.003 89.9746 155.087 97.9833 153.99Z" fill="#B73835"/>
<path d="M92.6451 200.174C92.5775 200.967 92.493 201.76 92.4086 202.553C91.9017 203.093 91.3948 203.616 90.871 204.122C87.4243 207.514 83.6058 210.518 79.5001 213.082C77.405 214.399 75.2423 215.613 73.012 216.66C70.8156 217.689 68.4164 218.482 65.9496 218.077C63.7531 217.723 61.9452 216.407 61.0835 214.365C60.1374 212.137 60.2218 209.522 60.1543 207.143C60.1205 206.147 60.1205 205.135 60.1543 204.139V203.971C60.7794 201.254 61.4215 198.537 62.1142 195.854C61.658 200.005 61.5059 204.19 61.658 208.375C61.7256 210.484 61.658 213.049 62.9928 214.837C64.3613 216.727 66.9802 217.031 69.1091 216.558C71.4745 216.035 73.6541 214.787 75.7661 213.639C77.6753 212.576 79.5508 211.429 81.3417 210.163C85.4812 207.295 89.2828 203.937 92.6451 200.208V200.174Z" fill="#B73835"/>
<path d="M90.0923 229.855C90.0416 230.614 89.991 231.34 89.9403 232.116C84.787 237.161 78.4172 240.992 72.132 244.417C67.1815 247.117 62.1127 249.665 57.3311 252.702C54.9657 254.187 52.6679 255.807 50.5221 257.596C50.0659 257.967 49.559 258.439 49.0859 258.962C49.2211 258.169 49.3394 257.359 49.4914 256.566C50.0321 256.111 50.5728 255.706 51.1134 255.284C53.3944 253.529 55.7767 251.96 58.2266 250.458C63.1771 247.471 68.3304 244.906 73.3654 242.105C79.3634 238.764 85.3784 234.883 90.1092 229.872L90.0923 229.855Z" fill="#B73835"/>
<path d="M76.021 252.314C80.0253 249.007 84.4182 246.357 89.0984 244.417C89.0646 244.94 89.0308 245.446 88.997 245.969C87.1047 246.762 85.2799 247.691 83.5396 248.737C78.5554 251.69 74.4159 255.722 69.9722 259.367C65.7483 262.843 61.0005 266.032 55.5431 267.078C53.2453 267.517 50.6771 267.703 48.5144 266.657C48.2779 266.539 48.0582 266.404 47.8555 266.269C47.9399 265.712 48.0244 265.172 48.1258 264.598C49.6633 266.302 52.6539 266.083 54.6983 265.762C57.4017 265.307 59.9867 264.294 62.386 262.944C67.4547 260.126 71.5942 255.976 76.0379 252.314H76.021Z" fill="#B73835"/>
<path d="M116.419 241.042C116.233 241.498 116.013 241.953 115.777 242.409C109.745 241.548 103.561 241.818 97.6138 243.151C95.299 243.675 93.0181 244.349 90.8047 245.21C91.2778 244.552 91.7678 243.86 92.2577 243.202C95.7383 242.021 99.3371 241.211 103.088 240.806C107.515 240.317 112.009 240.401 116.419 241.059V241.042Z" fill="#B73835"/>
<path d="M104.555 261.24C103.947 262.101 103.322 262.944 102.68 263.788C102.325 263.974 101.937 264.159 101.582 264.345C92.4073 268.783 82.8611 272.495 73.0952 275.38C68.094 276.848 63.0422 278.131 57.9396 279.16C53.8846 279.987 49.762 280.561 45.6562 280.325C45.7069 279.852 45.7914 279.363 45.8759 278.907C50.7419 279.16 55.6248 278.232 60.3726 277.186C75.7141 273.794 90.5994 268.412 104.572 261.257L104.555 261.24Z" fill="#B73835"/>
<path d="M111.347 228.083C114.051 230.209 117.278 230.969 120.589 231.053C120.437 231.525 120.251 231.998 120.065 232.453C116.298 232.285 112.682 231.289 109.725 228.606C107.782 226.851 106.414 224.489 106.194 221.857C106.194 221.637 106.16 221.401 106.16 221.199C106.954 219.764 107.748 218.313 108.492 216.879C107.867 218.364 107.512 219.95 107.613 221.57C107.765 224.185 109.32 226.514 111.347 228.1V228.083Z" fill="#B73835"/>
<path d="M129.766 196.833C129.665 197.44 129.547 198.031 129.428 198.621C122.4 202.367 115.489 206.417 110.775 212.93C110.404 213.437 110.032 213.977 109.711 214.517C110.742 212.525 111.738 210.501 112.702 208.476C115.456 205.658 118.666 203.295 121.977 201.22C124.478 199.651 127.131 198.216 129.766 196.816V196.833Z" fill="#B73835"/>
<path d="M131.592 184.853C131.507 185.544 131.423 186.219 131.321 186.928C127.266 190.134 122.941 192.986 118.43 195.432C118.717 194.724 118.987 194.015 119.274 193.306C120.39 192.665 121.471 192.024 122.569 191.332C125.729 189.358 128.736 187.198 131.608 184.853H131.592Z" fill="#B73835"/>
</g>
<g style="mix-blend-mode:multiply" opacity="0.5">
<path d="M133.77 156.083C133.517 165.701 132.824 175.302 131.591 184.836C131.506 185.527 131.422 186.202 131.32 186.911C130.864 190.235 130.357 193.542 129.766 196.833C129.665 197.44 129.546 198.031 129.428 198.621C127.367 209.657 124.478 220.507 120.592 231.036C120.439 231.509 120.254 231.981 120.068 232.437C120.017 232.555 119.983 232.69 119.933 232.791C118.868 235.609 117.685 238.342 116.418 241.025C116.232 241.481 116.013 241.937 115.776 242.392C112.566 249.074 108.798 255.284 104.574 261.19C103.966 262.05 103.341 262.894 102.699 263.737C98.4917 269.356 93.8791 274.689 88.8948 279.801C88.3204 280.392 87.7459 280.966 87.1714 281.556C87.1714 281.708 87.1714 281.877 87.1714 282.029C87.087 284.003 87.0194 285.96 86.9349 287.935C86.9349 288.694 86.8842 289.47 86.8673 290.229C86.749 293.807 86.6477 297.401 86.5463 300.978C86.5463 301.67 86.5125 302.362 86.4956 303.053C86.2253 314.038 86.0732 325.074 86.0394 336.092C86.0394 336.97 86.0394 337.864 86.0394 338.742C86.0394 345.204 86.0732 351.667 86.1408 358.13C86.1408 358.906 86.1746 359.699 86.1746 360.458C86.2759 367.478 86.428 374.463 86.6308 381.432C86.6308 381.955 86.6646 382.478 86.6815 382.985C86.8504 389.025 87.0701 395.033 87.3404 401.023C87.3742 401.613 87.3911 402.187 87.408 402.794C87.9486 414.724 88.6245 426.536 89.4693 438.196C89.52 438.702 89.5369 439.191 89.5876 439.697C90.1451 447.341 90.7872 454.918 91.4968 462.41C91.5475 462.882 91.5813 463.371 91.632 463.844C91.9192 466.915 92.2233 469.952 92.5612 472.973C92.6119 473.445 92.6457 473.934 92.7133 474.407C93.085 478.018 93.4905 481.595 93.9129 485.155C93.9636 485.645 94.0143 486.117 94.065 486.607C94.7408 492.361 95.4673 498.013 96.2445 503.599C96.3121 504.088 96.3966 504.577 96.4642 505.083C97.1231 509.859 97.8328 514.6 98.5593 519.274C88.6921 519.274 80.1596 519.359 72.0327 519.477C65.5785 395.809 72.5903 271.449 92.9498 149.282L98.5593 150.143C98.3903 151.409 98.2045 152.674 98.0355 153.957C97.9679 154.446 97.9003 154.952 97.8328 155.441C97.4273 158.496 97.0218 161.583 96.6331 164.688C96.5656 165.211 96.498 165.751 96.4304 166.274C95.8052 171.269 95.2139 176.314 94.6394 181.427C94.5718 182.068 94.4874 182.693 94.4198 183.351C93.8115 188.885 93.2371 194.487 92.6964 200.123C92.6288 200.916 92.5443 201.709 92.4599 202.502C92.1895 205.472 91.9023 208.459 91.6488 211.446C91.5644 212.289 91.4968 213.133 91.4123 213.96C90.9561 219.208 90.5506 224.489 90.1451 229.787C90.0944 230.547 90.0437 231.289 89.9931 232.065C89.7058 236.149 89.4186 240.249 89.1483 244.349C89.1145 244.873 89.0807 245.379 89.0469 245.902C88.9962 246.526 88.9793 247.134 88.9286 247.758C89.5876 246.897 90.2127 246.054 90.8547 245.176C91.3278 244.501 91.8178 243.81 92.3078 243.151C97.3597 236.081 101.989 228.741 106.213 221.131C107.007 219.697 107.801 218.246 108.545 216.811C108.545 216.761 108.579 216.727 108.595 216.676C108.984 215.985 109.339 215.276 109.694 214.584C109.694 214.533 109.727 214.517 109.744 214.466C110.775 212.475 111.772 210.45 112.735 208.425C114.779 204.122 116.689 199.786 118.463 195.365C118.75 194.656 119.02 193.947 119.307 193.239C124.038 181.123 127.722 168.603 130.273 155.863C131.439 155.948 132.655 155.948 133.804 156.015L133.77 156.083Z" fill="#B73835"/>
</g>
<g style="mix-blend-mode:multiply" opacity="0.5">
<path d="M37.16 348.984C37.2445 348.056 37.3458 347.145 37.4303 346.233C35.5549 342.015 33.8146 337.763 32.1757 333.46C32.0067 332.987 31.8209 332.515 31.6519 332.059C30.8409 329.849 30.0637 327.638 29.3034 325.411C28.881 324.146 28.4586 322.88 28.0531 321.598C21.1765 300.016 17.3749 277.473 16.7835 254.862C16.7497 253.883 16.7328 252.871 16.7159 251.892C16.6315 244.653 16.868 237.414 17.4087 230.192C17.4763 229.281 17.5607 228.387 17.6283 227.492C18.3886 218.904 19.6389 210.366 21.3623 201.929C21.4299 201.794 21.5144 201.676 21.6157 201.574C22.055 200.967 22.4943 200.376 22.9505 199.786C22.8323 200.444 22.6971 201.102 22.5957 201.777C15.5332 242.24 22.0213 284.965 40.8095 321.513C39.4409 330.979 38.5117 339.534 37.16 348.984Z" fill="#B73835"/>
</g>
<path d="M199.667 151.189C189.783 155.222 178.665 156.15 168.258 153.805C172.921 154.733 175.776 160.622 173.647 164.857C171.502 169.075 165.047 170.274 161.55 167.084C164.878 172.788 167.784 178.93 168.443 185.511C169.119 192.074 167.227 199.195 162.243 203.549C157.258 207.902 148.962 208.56 144.147 204.021C138.521 206.856 130.867 203.819 129.904 197.592C130.022 201.406 126.846 204.78 123.162 205.793C119.462 206.788 115.475 205.793 112.096 204.038C103.09 199.347 97.4299 188.936 98.4267 178.845C95.7403 183.351 90.7222 186.405 85.4676 186.692C82.2742 186.86 79.064 186.017 76.3269 184.397C77.4758 185.561 78.5064 186.81 79.3174 188.227C81.1591 191.416 81.6998 195.618 79.7229 198.706C77.2392 202.57 72.0184 203.363 67.4565 203.785C57.0655 204.73 46.6745 205.692 36.3004 206.637C38.5983 207.143 39.7641 207.7 40.8116 209.809C41.8592 211.935 41.5044 214.753 39.7134 216.288C39.2741 216.66 38.7504 216.93 38.1928 217.081C44.3091 220.186 48.6683 226.767 48.6345 233.668C48.6007 242.207 41.8085 250.238 33.3774 251.706C34.915 254.575 35.6584 257.224 34.0364 260.042C32.7016 262.371 29.8124 263.434 27.1429 263.333C24.4733 263.231 21.9389 262.185 19.4721 261.139C21.0434 263.872 21.1617 267.382 19.7762 270.2C18.3908 273.018 15.5354 275.077 12.4096 275.515C6.59741 276.309 1.17383 271.483 -0.701618 265.914C-2.56017 260.346 -1.71537 254.271 -0.701618 248.484C-9.4875 248.062 -17.9861 242.274 -21.3991 234.175C-24.8121 226.092 -23.1901 216.103 -17.3779 209.522C-27.3465 208.071 -38.8188 205.624 -43.3976 196.647C-47.4188 188.784 -44.2255 179.132 -39.5791 171.607C-37.9571 168.974 -36.1662 166.443 -34.2062 164.064C-26.7044 154.834 -16.871 147.46 -5.85487 142.938C-15.5362 133.32 -15.57 115.754 -5.92245 106.102C-15.8066 99.7242 -18.6113 84.639 -11.684 75.1559C-4.75664 65.6559 13.7782 62.0956 22.8851 69.5201C20.79 63.8336 23.1892 56.831 28.3594 53.6587C33.5295 50.4695 40.8792 51.4651 45.0187 55.886C43.9881 52.9669 45.0187 49.4402 47.5024 47.5672C49.9692 45.6774 53.6525 45.593 56.2038 47.3647C54.0749 37.966 54.1256 26.8125 61.1881 20.2485C66.24 15.5408 74.3669 14.4946 80.4664 17.7681C86.5489 21.0247 90.1646 28.3817 89.0326 35.1819C91.0263 29.7822 98.6802 27.4874 103.327 30.879C109.037 25.7325 114.934 20.451 122.182 17.8525C129.414 15.2708 138.402 15.9626 143.623 21.5985C147.661 25.9688 147.881 33.4776 144.451 37.9323C146.597 36.5655 148.929 35.4687 151.362 34.6925C153.964 33.832 156.684 33.3595 159.421 33.2751C169.069 32.9883 179.595 39.046 180.913 48.5797C181.724 54.4011 178.97 60.2732 174.931 64.576C170.91 68.8788 165.723 71.8824 160.621 74.8184C163.087 77.8557 163.746 82.2429 162.31 85.8876C162.226 86.107 162.141 86.3264 162.04 86.5288C161.212 88.3006 159.86 89.7855 158.255 90.8992C160.418 90.8148 162.648 91.2704 164.608 92.1816C167.092 93.3459 169.187 95.2357 170.353 97.7162C172.887 103.099 170.505 110.051 165.672 113.324C168.308 112.818 171.248 113.679 172.904 115.839C175.286 118.96 174.425 124.022 171.13 126.182C179.865 127.617 188.583 129.051 197.319 130.502C202.168 131.295 207.878 132.763 209.551 137.386C211.697 143.292 205.479 148.827 199.667 151.189Z" fill="#57623B"/>
<g style="mix-blend-mode:multiply">
<path d="M158.558 144.187C160.856 146.313 160.18 150.497 157.68 152.387C155.162 154.26 151.564 154.108 148.742 152.725C145.937 151.341 143.775 148.928 141.848 146.465C143.369 150.869 140.564 155.813 136.374 157.888C135.225 155.88 133.519 153.973 132.37 151.965C126.456 155.273 118.16 153.282 114.393 147.679C112.162 151.139 106.806 151.881 103.562 149.434C106.519 152.438 107.161 157.568 104.863 161.111C102.346 165.009 96.6687 166.443 92.5968 164.233C93.7626 166.19 93.6106 168.856 92.2082 170.662C90.2314 178.289 79.7728 182.153 73.3017 177.647C72.3386 187.957 64.4482 197.288 54.429 199.955C44.3928 202.637 32.9035 198.487 26.9224 190.016C7.8638 198.318 -16.6184 191.433 -28.53 174.424C-30.7941 171.185 -32.6188 167.675 -34.207 164.064C-26.7052 154.834 -16.8718 147.46 -5.85569 142.938C-15.537 133.32 -15.5708 115.754 -5.92326 106.102C-15.8074 99.7242 -18.6121 84.639 -11.6848 75.1559C-4.75745 65.6559 13.7774 62.0956 22.8843 69.5201C20.7892 63.8336 23.1884 56.8309 28.3586 53.6587C33.5287 50.4695 40.8784 51.4651 45.0179 55.886C43.9873 52.9668 45.0179 49.4402 47.5016 47.5672C49.9684 45.6774 53.6517 45.593 56.203 47.3647C54.0741 37.966 54.1248 26.8125 61.1873 20.2485C66.2392 15.5408 74.3661 14.4946 80.4656 17.7681C86.5481 21.0247 90.1638 28.3817 89.0318 35.1819C91.0255 29.7822 98.6794 27.4874 103.326 30.879C109.037 25.7325 114.933 20.451 122.182 17.8525C129.413 15.2708 138.402 15.9626 143.622 21.5985C147.661 25.9688 147.88 33.4776 144.45 37.9323C146.596 36.5655 148.928 35.4687 151.361 34.6925C154.993 46.2005 152.307 59.5645 144.332 68.6764C146.241 69.0645 147.779 70.8193 147.897 72.7598C148.015 74.7003 146.714 76.6239 144.873 77.2482C151.682 76.3877 158.711 80.0999 162.309 85.8876C162.225 86.107 162.14 86.3263 162.039 86.5288C161.211 88.3006 159.859 89.7855 158.254 90.8991C160.417 90.8148 162.647 91.2704 164.607 92.1816C165.739 100.264 160.552 108.903 152.763 111.519C159.741 112.903 165.587 118.859 166.837 125.879C168.071 132.881 164.641 140.491 158.558 144.187Z" fill="#D6DDAB"/>
</g>
<path d="M156.816 104.482C154.822 106.862 151.73 108.11 148.655 108.498C145.58 108.903 142.454 108.498 139.379 108.144C142.15 110.878 144.938 113.611 147.709 116.345C148.875 117.492 150.142 118.91 149.922 120.529C149.618 122.689 147.084 123.499 144.837 123.786C149.094 123.55 153.386 126.267 154.94 130.232C155.903 132.679 155.802 135.632 154.265 137.758C152.169 140.643 147.946 141.301 144.533 140.238C141.136 139.175 138.332 136.762 135.628 134.417C136.135 137.741 134.412 141.774 132.469 144.507C130.509 147.258 127.485 149.198 124.173 149.839C121.284 148.675 118.868 146.684 117.516 143.866C116.181 141.048 115.945 137.724 116.874 134.754C113.816 139.361 108.916 142.499 103.492 143.596C99.7921 141.841 96.7847 138.905 95.0106 135.227C95.0106 137.774 93.7434 140.272 91.699 141.79C89.6715 143.309 86.9006 143.798 84.4507 143.09C87.5426 144.71 90.719 146.397 92.9493 149.097C95.1627 151.78 96.1933 155.762 94.4868 158.816C93.1183 161.28 90.3135 162.579 87.5933 163.305C84.8562 164.03 81.9839 164.351 79.4326 165.549C81.629 166.359 81.4939 169.919 79.9732 171.691C78.4695 173.463 75.7831 173.817 73.5359 173.159C71.3056 172.501 69.4133 171.033 67.5885 169.582C67.3182 176.331 65.4427 183.216 61.0667 188.379C56.7076 193.542 49.5437 196.613 42.9881 194.977C36.4325 193.323 31.3468 186.27 32.9857 179.706C30.4851 181.191 27.7311 182.726 24.825 182.389C22.4426 182.102 20.2631 179.875 20.3307 177.664C19.4352 180.229 17.0866 182.237 14.5016 183.199C11.4434 184.346 8.09801 184.346 4.8371 184.329C-0.87372 184.296 -6.87177 184.194 -11.8223 181.343C-14.3567 179.891 -16.4518 177.715 -17.9217 175.167C-19.5437 172.332 -20.3716 169.025 -20.1351 165.768C-19.8309 161.735 -17.9386 157.871 -15.0494 155.07C-13.5119 153.535 -11.6871 152.303 -9.67649 151.51C-12.5995 151.797 -15.5901 149.957 -16.6545 147.224C-17.7021 144.507 -16.7559 141.132 -14.4242 139.361C-16.6714 140.727 -19.6789 140.508 -21.9598 139.209C-24.2577 137.893 -25.8966 135.632 -26.8765 133.202C-29.1237 127.718 -28.1944 121.069 -24.5449 116.412C-20.9123 111.738 -14.6777 109.224 -8.8148 110.051C-12.4812 104.719 -12.0926 96.9568 -7.88552 92.0296C-5.41872 89.1273 -1.73541 87.3893 2.06617 87.0181C2.06617 85.027 2.20134 83.0359 2.57305 81.0785C3.55301 75.8645 6.44221 70.7349 11.2069 68.4063C15.9546 66.0608 22.6285 67.4276 25.0784 72.1185C24.2167 69.52 25.467 66.3814 27.8831 65.099C30.3161 63.8166 33.6108 64.5253 35.2835 66.6852C33.9319 60.5431 34.2529 53.8273 37.3448 48.3265C40.4199 42.8425 46.6207 38.894 52.8891 39.5521C59.1575 40.2102 64.6993 46.2341 63.8545 52.4774C64.0742 50.2669 65.6286 48.259 67.7068 47.4828C69.785 46.7066 72.2687 47.1959 73.8907 48.6977C76.1717 44.4792 79.365 40.5983 83.6565 38.4722C87.9481 36.3292 93.4224 36.2111 97.3422 38.9615C101.262 41.7288 102.901 47.6178 100.265 51.6168C106.956 43.0618 117.431 37.5778 128.279 36.9535C130.103 36.8354 131.996 36.9029 133.821 37.2235C136.423 37.6791 138.872 38.7084 140.714 40.5814C143.62 43.5512 144.347 48.0565 144.009 52.1906C143.282 60.7962 138.281 68.8787 131.016 73.519C132.215 73.1478 133.55 73.0972 134.648 73.4515C136.575 74.1096 138.011 76.1682 137.74 78.1762C137.504 79.948 135.848 81.416 134.108 81.4666C138.399 81.8209 142.725 82.2428 146.797 83.6096C147.827 83.947 148.824 84.3689 149.804 84.8414C152.947 86.3937 155.735 88.6549 157.458 91.6753C159.705 95.6406 159.756 101.006 156.816 104.482Z" fill="#677446"/>
<g style="mix-blend-mode:multiply">
<path d="M134.733 44.0911C133.956 47.7359 131.371 50.8407 128.177 52.7643C124.984 54.6879 121.216 55.5147 117.499 55.7172C119.611 56.4596 119.662 59.75 118.04 61.3024C116.418 62.8379 113.968 63.0742 111.721 63.1079C109.49 63.1585 107.091 63.1585 105.216 64.3903C109 65.6896 111.839 69.4018 112.075 73.3841C112.295 77.3663 109.93 81.3822 106.331 83.1034C102.715 84.8414 98.1026 84.1664 95.1289 81.4835C95.1289 82.9852 94.3686 84.9257 92.9662 85.4657C91.5638 85.9888 89.8574 85.5669 88.8605 84.4533C90.8711 92.4852 88.6239 101.462 83.0821 107.638C80.5815 102.238 79.9394 95.6406 81.7642 89.9879C78.0978 93.987 72.8939 96.5349 67.4872 97.0074C67.3689 92.4852 69.2612 87.5918 72.9445 84.9595C69.7174 86.3263 65.7131 85.6513 63.1111 83.289C63.5166 88.3342 59.4616 92.8902 54.7476 94.7463C50.0337 96.6024 44.779 96.383 39.7272 96.1299C42.7346 97.8848 45.8266 99.7072 48.0569 102.407C50.2871 105.09 51.5543 108.853 50.3716 112.143C48.851 116.345 44.1032 118.319 39.7779 119.433C41.0788 119.18 42.3967 118.926 43.6977 119.112C45.0156 119.298 46.3166 120.006 46.8572 121.221C47.55 122.791 46.7052 124.714 45.3535 125.777C44.6101 126.351 43.7484 126.739 42.8529 127.043C44.5425 126.891 46.2659 127.313 47.6683 128.258C49.7127 129.658 50.963 132.172 50.8278 134.653C50.6419 137.876 48.361 140.592 45.8942 142.702C41.6702 146.296 36.5845 148.861 31.1778 150.126C35.1991 151.459 38.8317 153.956 42.0757 156.69C37.9362 159.964 32.3774 161.415 27.3256 159.896C28.2548 163.305 27.6466 167.101 25.7036 170.037C23.5578 166.882 20.5334 163.963 18.3876 160.807C15.0253 161.718 11.1055 159.913 9.61865 156.758C10.3621 164.418 4.98917 171.91 -2.14091 174.779C-7.12521 176.77 -12.7347 176.719 -17.9217 175.167C-19.5437 172.332 -20.3716 169.025 -20.1351 165.768C-19.8309 161.735 -17.9386 157.871 -15.0494 155.07C-13.5119 153.535 -11.6871 152.303 -9.67649 151.51C-12.5995 151.797 -15.5901 149.957 -16.6545 147.224C-17.7021 144.507 -16.7559 141.132 -14.4242 139.361C-16.6714 140.727 -19.6789 140.508 -21.9598 139.209C-24.2577 137.893 -25.8966 135.632 -26.8765 133.202C-29.1237 127.718 -28.1944 121.069 -24.5449 116.412C-20.9123 111.738 -14.6777 109.224 -8.8148 110.051C-12.4812 104.719 -12.0926 96.9568 -7.88552 92.0296C-5.41872 89.1273 -1.73541 87.3893 2.06617 87.0181C2.06617 85.027 2.20134 83.0359 2.57305 81.0785C3.55301 75.8645 6.44221 70.7349 11.2069 68.4063C15.9546 66.0608 22.6285 67.4276 25.0784 72.1185C24.2167 69.52 25.467 66.3814 27.8831 65.099C30.3161 63.8166 33.6108 64.5253 35.2835 66.6852C33.9319 60.5431 34.2529 53.8273 37.3448 48.3265C40.4199 42.8425 46.6207 38.894 52.8891 39.5521C59.1575 40.2102 64.6993 46.2341 63.8545 52.4774C64.0742 50.2669 65.6286 48.259 67.7068 47.4828C69.785 46.7066 72.2687 47.1959 73.8907 48.6977C76.1717 44.4792 79.365 40.5983 83.6565 38.4722C87.9481 36.3292 93.4224 36.2111 97.3422 38.9615C101.262 41.7288 102.901 47.6178 100.265 51.6168C106.956 43.0618 117.431 37.5778 128.279 36.9535C130.103 36.8354 131.996 36.9029 133.821 37.2235C134.902 39.299 135.223 41.7963 134.733 44.0911Z" fill="#D6DDAB"/>
</g>
<path d="M604.373 479.908C589.927 428.696 588.541 375.729 602.379 324.416C601.061 324.382 599.963 324.517 598.645 324.483C591.515 339.923 587.612 356.51 586.683 372.978C586.21 358.551 585.044 344.158 582.847 329.832C581.715 329.95 580.533 330.068 579.401 330.186C581.546 379.323 580.516 428.561 576.309 477.613L604.356 479.908H604.373Z" fill="#632424"/>
<path d="M655.482 333.055C655.414 337.375 653.725 342.15 649.771 343.922C645.716 345.727 641.07 343.719 637.099 341.728C636.119 343.854 633.973 345.39 631.659 345.643C629.327 345.896 626.911 344.85 625.492 342.994C628.871 347.465 627.874 354.603 623.414 357.995C618.953 361.386 611.806 360.441 608.393 356.003C605.031 351.633 605.504 345.508 606.399 340.075C604.422 341.914 601.111 341.779 598.881 340.226C596.667 338.674 595.451 335.991 595.079 333.308C594.707 330.625 595.079 327.909 595.451 325.226C594.809 328.735 591.953 331.671 588.557 332.701C588.456 335.181 587.222 337.611 585.195 339.045C582.627 340.868 578.977 340.986 576.291 339.332C577.963 342.825 574.686 347.55 570.817 347.195C575.176 350.435 576.933 356.746 574.855 361.774C572.793 366.786 567.083 370.042 561.693 369.266C556.32 368.49 551.758 363.765 551.2 358.366C550.558 360.627 548.176 362.264 545.827 362.044C543.479 361.808 541.451 359.766 541.266 357.404C535.977 361.859 526.938 358.72 523.998 352.477C521.041 346.234 523.136 338.539 527.411 333.089C531.669 327.655 537.768 323.994 543.732 320.501C540.826 319.455 538.934 316.181 539.458 313.144C531.618 308.824 527.462 298.751 529.996 290.162C530.52 288.39 531.314 286.72 532.328 285.184C536.231 279.295 543.344 275.499 550.44 275.988C547.855 271.01 549.426 264.244 553.954 260.936C551.048 253.782 549.19 246.02 550.068 238.359C550.947 230.682 554.901 223.122 561.524 219.157C568.147 215.192 577.507 215.597 582.931 221.097C579.738 217.318 580.802 211.041 584.57 207.835C588.338 204.629 593.981 204.257 598.593 206.063C603.206 207.868 606.856 211.547 609.626 215.647C617.415 227.172 618.767 242.763 613.039 255.452C614.661 252.871 618.514 252.044 621.065 253.731C623.599 255.402 624.343 259.283 622.602 261.78C629.259 258.777 637.657 260.143 643.03 265.087C645.023 266.91 646.561 269.205 647.575 271.702C649.298 275.954 649.551 280.814 647.997 285.15C645.564 292.018 638.755 297.131 631.473 297.586C633.382 299.341 636.525 299.375 639.042 299.898C641.56 300.421 644.398 301.974 644.516 304.555C644.618 306.479 643.063 308.166 641.272 308.858C639.482 309.55 637.488 309.482 635.562 309.398C641.12 310.275 646.324 313.228 649.94 317.531C653.556 321.834 655.566 327.453 655.482 333.072V333.055Z" fill="#414A2B"/>
<g style="mix-blend-mode:multiply">
<path d="M655.482 333.055C655.414 337.375 653.725 342.15 649.771 343.922C645.716 345.727 641.07 343.719 637.099 341.728C636.119 343.854 633.973 345.39 631.659 345.643C629.327 345.896 626.911 344.85 625.492 342.994C628.871 347.465 627.874 354.603 623.414 357.995C618.953 361.386 611.806 360.441 608.393 356.003C605.031 351.633 605.504 345.508 606.399 340.075C604.422 341.914 601.111 341.779 598.881 340.226C596.667 338.674 595.451 335.991 595.079 333.308C594.707 330.625 595.079 327.909 595.451 325.226C594.809 328.735 591.953 331.671 588.557 332.701C588.456 335.181 587.222 337.611 585.195 339.045C582.627 340.868 578.977 340.986 576.291 339.332C577.963 342.825 574.686 347.55 570.817 347.195C575.176 350.435 576.933 356.746 574.855 361.774C572.793 366.786 567.083 370.042 561.693 369.266C556.32 368.49 551.758 363.765 551.2 358.366C550.558 360.627 548.176 362.264 545.827 362.044C543.479 361.808 541.451 359.766 541.266 357.404C535.977 361.859 526.938 358.72 523.998 352.477C521.041 346.233 523.136 338.539 527.411 333.089C531.669 327.655 537.768 323.994 543.732 320.501C540.826 319.455 538.934 316.181 539.458 313.144C531.618 308.824 527.462 298.751 529.996 290.162C530.52 288.39 531.314 286.72 532.328 285.184C531.635 288.491 532.142 292.069 533.882 294.988C536.585 299.527 542.144 302.176 547.382 301.45C546.638 302.75 546.875 304.521 547.923 305.601C548.97 306.664 550.744 306.951 552.062 306.259C550.66 310.444 551.369 315.253 553.887 318.881C555.576 321.311 558.398 323.302 561.338 322.863C563.67 322.526 565.579 320.737 566.677 318.645C567.775 316.552 568.164 314.19 568.552 311.878C566.086 311.845 563.855 310.697 562.453 308.672C564.599 307.103 567.336 306.327 569.786 307.373C570.377 304.285 572.084 301.315 574.348 299.122C576.392 302.547 576.595 307.086 574.635 310.579C574.855 311.153 575.547 311.642 576.173 311.71C576.646 311.355 577.997 310.984 578.47 310.647C579.45 313.465 582.323 314.933 585.212 315.692C588.101 316.451 591.345 315.692 593.592 313.751C595.856 311.794 597.056 308.706 596.701 305.736C594.268 304.437 592.359 302.395 591.21 299.898C594.707 299.594 598.272 301.197 600.148 304.15C599.016 305.146 599.506 307.609 600.688 308.537C601.871 309.465 603.848 309.044 604.558 307.727C605.842 309.668 608.19 310.95 610.505 310.647C613.073 310.292 615.118 307.997 615.675 305.466C616.25 302.935 615.54 300.252 614.273 297.991C613.006 295.73 611.215 293.807 609.441 291.917C610.944 292.997 613.124 293.064 614.678 292.052C616.233 291.039 617.078 289.031 616.706 287.226C622.129 291.562 629.445 294.583 636.018 292.288C641.999 290.196 645.851 284.087 647.034 277.861C647.406 275.836 647.558 273.777 647.558 271.719C649.281 275.971 649.535 280.831 647.98 285.167C645.547 292.035 638.738 297.148 631.456 297.603C633.365 299.358 636.508 299.392 639.025 299.915C641.543 300.438 644.381 301.99 644.5 304.572C644.601 306.496 643.047 308.183 641.256 308.875C639.465 309.567 637.471 309.499 635.545 309.415C641.104 310.292 646.307 313.245 649.923 317.548C653.539 321.851 655.55 327.47 655.465 333.089L655.482 333.055Z" fill="#D6DDAB"/>
</g>
<path d="M690.661 466.544C677.854 429.641 676.621 391.455 688.887 354.468C687.721 354.434 686.741 354.552 685.575 354.518C679.256 365.638 675.793 377.602 674.965 389.481C674.542 379.087 673.512 368.709 671.569 358.383C670.572 358.467 669.524 358.551 668.511 358.636C670.42 394.054 669.507 429.539 665.773 464.907L690.661 466.56V466.544Z" fill="#632424"/>
<path d="M720.568 348.326C718.523 347.921 716.682 346.875 714.874 345.845C715.533 346.217 715.82 347.162 716.276 347.752C716.732 348.36 716.918 349.22 716.513 349.844C716.242 350.283 715.634 350.469 715.161 350.334C717.476 351.971 719.74 353.709 721.598 355.835C723.609 358.129 725.13 360.931 725.417 363.968C725.721 367.005 724.623 370.245 722.224 372.118C720.044 373.805 717.003 374.21 714.367 373.434C711.731 372.658 709.467 370.785 707.93 368.507C707.71 370.16 705.733 371.105 704.077 370.835C702.421 370.549 701.053 369.435 699.769 368.355C700.208 371.224 698.941 374.193 696.88 376.218C694.801 378.243 692.03 379.441 689.192 380.065C686.996 380.538 684.698 380.707 682.535 380.065C679.781 379.239 677.466 377.079 676.469 374.396C675.743 372.438 675.726 370.245 676.368 368.254C675.489 367.781 674.78 367.005 674.425 366.077C673.935 368.018 671.333 369.047 669.643 367.984C670.184 372.658 669.39 377.467 667.396 381.736C666.551 383.558 665.419 385.347 663.713 386.393C662.006 387.456 659.59 387.574 658.087 386.258C657.09 387.996 654.538 388.587 652.866 387.473C653.863 389.279 652.562 391.759 650.585 392.4C648.625 393.041 646.412 392.181 644.925 390.73C643.201 389.042 642.306 386.646 642.188 384.233C642.069 381.837 642.694 379.441 643.708 377.248C641.056 378.918 636.832 378.8 634.534 376.657C633.875 376.049 633.3 375.256 633.216 374.362C633.131 373.468 633.621 372.472 634.5 372.236C630.986 371.409 628.4 368.085 627.86 364.525C627.319 360.964 628.62 357.303 630.766 354.417C632.929 351.532 635.885 349.355 638.994 347.516C631.053 343.365 625.021 335.333 623.67 326.491C623.67 326.424 623.653 326.373 623.636 326.305C622.335 317.379 625.562 307.913 632.033 301.636C634.618 299.139 637.795 297.08 641.343 296.506C644.992 295.916 648.777 296.962 651.987 298.818C655.181 300.674 657.867 303.307 660.334 306.057C660.013 304.302 662.311 303.02 664 303.526C665.707 304.049 666.839 305.618 667.836 307.086C667.937 303.509 671.519 300.421 675.084 300.826C678.649 301.231 681.437 305.044 680.727 308.554C681.961 306.782 684.782 306.917 685.796 308.841C686.759 304.724 689.547 301.079 693.247 299.054C696.964 297.029 701.526 296.675 705.513 298.092C707.507 298.801 709.366 299.965 710.7 301.619C712.576 303.965 713.218 307.137 712.897 310.123C712.576 313.11 711.376 315.945 709.923 318.577C711.849 318.459 713.843 318.358 715.668 318.965C716.124 319.117 716.58 319.32 717.003 319.59C718.253 320.349 719.233 321.547 719.402 322.981C719.571 324.365 718.963 325.749 718.067 326.829C717.172 327.892 716.006 328.702 714.857 329.495C720.99 329.697 726.667 334.557 727.782 340.598C728.188 342.825 727.934 345.356 726.346 346.959C724.876 348.444 722.561 348.798 720.517 348.393L720.568 348.326Z" fill="#677446"/>
<g style="mix-blend-mode:multiply">
<path d="M720.566 348.326C718.522 347.921 716.68 346.875 714.872 345.845C715.531 346.217 715.818 347.161 716.274 347.752C716.731 348.36 716.917 349.22 716.511 349.844C716.241 350.283 715.632 350.469 715.159 350.334C717.474 351.971 719.738 353.709 721.597 355.835C723.607 358.129 725.128 360.931 725.415 363.968C725.719 367.005 724.621 370.245 722.222 372.118C720.042 373.805 717.001 374.21 714.365 373.434C711.729 372.658 709.465 370.785 707.928 368.507C707.708 370.16 705.731 371.105 704.076 370.835C702.42 370.549 701.051 369.435 699.767 368.355C700.206 371.224 698.939 374.193 696.878 376.218C694.8 378.243 692.029 379.441 689.19 380.065C686.994 380.538 684.696 380.707 682.533 380.065C679.779 379.239 677.465 377.079 676.468 374.396C675.741 372.438 675.724 370.245 676.366 368.254C675.488 367.781 674.778 367.005 674.423 366.077C673.933 368.018 671.331 369.047 669.642 367.984C670.182 372.658 669.388 377.467 667.395 381.736C666.55 383.558 665.418 385.347 663.711 386.393C662.005 387.456 659.589 387.574 658.085 386.258C657.088 387.996 654.537 388.587 652.864 387.473C653.861 389.279 652.56 391.759 650.583 392.4C648.623 393.041 646.41 392.181 644.923 390.73C643.2 389.042 642.304 386.646 642.186 384.233C642.068 381.837 642.693 379.441 643.707 377.247C641.054 378.918 636.83 378.8 634.532 376.657C633.873 376.049 633.299 375.256 633.214 374.362C633.13 373.468 633.62 372.472 634.498 372.236C630.984 371.409 628.399 368.085 627.858 364.525C627.318 360.964 628.618 357.303 630.764 354.417C632.927 351.532 635.884 349.355 638.993 347.516C631.051 343.365 625.02 335.333 623.668 326.491C623.769 326.694 623.871 326.896 623.972 327.099C625.949 330.963 629.041 334.304 632.961 336.16C636.881 338.016 641.628 338.269 645.548 336.413C645.024 337.29 645.109 338.471 645.717 339.265C646.325 340.074 647.457 340.446 648.437 340.159C647.153 341.829 645.852 343.517 644.906 345.39C643.96 347.28 643.335 349.389 643.521 351.481C643.707 353.574 644.754 355.666 646.545 356.78C648.336 357.893 650.87 357.843 652.425 356.425C652.155 358.011 653.861 359.732 655.466 359.986C657.054 360.239 658.693 359.277 659.47 357.859C660.248 356.459 660.231 354.687 659.673 353.185C660.417 354.232 662.039 354.383 663.137 353.725C664.235 353.067 664.843 351.785 665.012 350.519C665.181 349.254 664.962 347.971 664.742 346.706C663.745 347.01 662.647 346.352 661.87 345.643C661.092 344.934 660.586 343.972 660.18 343.011C659.572 341.593 659.099 340.125 658.778 338.606C661.346 339.18 663.846 340.733 665.266 342.96C665.705 340.091 667.564 337.51 670.166 336.227C671.568 338.691 671.213 341.964 669.355 344.107C668.645 344.934 669.608 346.554 670.622 346.976C671.619 347.415 672.936 346.858 673.325 345.828C673.426 348.123 674.525 350.3 676.062 352.021C677.6 353.725 679.56 355.025 681.587 356.088C683.632 357.168 685.879 358.079 688.21 357.978C690.407 357.876 692.536 356.83 693.938 355.143C695.34 353.455 696.016 351.177 695.729 349.018C696.962 349.777 699.125 349.051 699.835 347.803C700.561 346.554 700.038 344.749 698.77 344.074C700.899 345.002 703.552 343.685 704.583 341.61C705.613 339.535 705.292 336.987 704.278 334.894C703.282 332.802 701.66 331.081 700.071 329.376C700.832 329.646 701.592 329.916 702.352 330.203C702.437 329.309 702.504 328.415 702.589 327.52C704.397 329.461 707.303 330.203 709.871 329.596C712.439 328.988 714.636 327.115 715.852 324.753C716.68 323.15 717.052 321.345 717.052 319.539C718.302 320.298 719.282 321.496 719.451 322.931C719.62 324.314 719.012 325.698 718.116 326.778C717.221 327.841 716.055 328.651 714.906 329.444C721.039 329.646 726.716 334.506 727.831 340.547C728.237 342.774 727.983 345.305 726.395 346.908C724.925 348.393 722.61 348.748 720.566 348.343V348.326Z" fill="#D6DDAB"/>
</g>
<g clip-path="url(#clip2_977_852)">
<path d="M371.834 533C362.596 492.829 361.709 451.263 370.566 411.002C369.714 410.965 369.026 411.092 368.175 411.056C363.611 423.16 361.111 436.188 360.531 449.107C360.224 437.782 359.481 426.494 358.086 415.26C357.362 415.35 356.601 415.441 355.877 415.532C357.253 454.09 356.601 492.72 353.902 531.206L371.834 533Z" fill="#632424"/>
<path d="M426.462 353.907C431.425 353.78 436.442 356.498 438.869 360.865C441.676 365.939 440.752 372.788 436.713 376.937C432.674 381.086 425.846 382.192 420.72 379.528C429.468 386.975 435.065 398.01 435.953 409.461C436.405 415.459 435.518 421.801 432.004 426.675C427.023 433.578 417.659 436.115 409.201 435.173C400.742 434.231 392.936 430.371 385.328 426.566C384.767 429.556 381.67 431.857 378.645 431.513C376.236 431.241 374.153 429.357 373.447 427.055C373.646 431.984 369.752 436.84 364.861 438.054C359.355 439.413 353.36 436.749 349.81 432.328C346.26 427.907 344.92 422.036 345.01 416.365C344.394 419.264 341.551 421.529 338.598 421.493C335.628 421.438 332.078 419.047 331.553 416.129C331.48 422.199 326.191 427.726 320.142 428.07C314.092 428.414 308.206 423.522 307.445 417.525C305.543 419.228 302.337 419.246 300.417 417.561C298.498 415.876 298.081 412.705 299.512 410.603C293.299 413.14 285.583 409.643 282.595 403.627C279.606 397.611 281.055 389.965 285.294 384.765C289.532 379.564 296.179 376.665 302.863 376.031C300.906 370.305 304.656 363.311 310.524 361.771C304.601 359.85 297.99 357.314 295.636 351.552C293.227 345.663 296.704 338.832 301.993 335.154C302.555 334.755 303.134 334.411 303.732 334.085C309.963 330.805 317.316 330.769 324.362 330.823C321.881 326.764 322.931 320.912 326.662 317.976C317.787 314.153 313.603 302.158 318.168 293.642C322.75 285.144 335.067 282.009 343.145 287.3C342.402 284.528 343.833 281.303 346.405 279.998C348.977 278.693 352.4 279.436 354.211 281.683C352.364 276.573 351.676 270.938 353.106 265.702C354.537 260.465 358.268 255.718 363.34 253.833C367.27 252.366 371.98 252.909 375.385 255.247C384.242 252.493 394.765 255.084 400.887 262.168C408.241 270.685 408.259 284.637 400.923 293.171C406.158 292.428 411.7 295.653 413.638 300.582C415.486 305.275 413.892 311.091 409.979 314.244C415.033 310.547 421.698 309.297 427.82 310.547C430.501 311.091 433.055 312.124 435.337 313.646C443.035 318.774 446.874 329.065 444.429 337.98C442.183 346.134 434.812 352.548 426.516 353.943L426.462 353.907Z" fill="#2E351D"/>
<g style="mix-blend-mode:multiply">
<path d="M426.462 353.907C431.425 353.78 436.442 356.498 438.869 360.865C441.676 365.939 440.752 372.788 436.713 376.937C432.674 381.086 425.846 382.192 420.72 379.528C429.468 386.975 435.065 398.01 435.953 409.462C436.405 415.459 435.518 421.801 432.004 426.675C427.023 433.579 417.659 436.115 409.201 435.173C400.742 434.231 392.936 430.371 385.328 426.566C384.767 429.556 381.67 431.857 378.645 431.513C376.236 431.241 374.153 429.357 373.447 427.056C373.646 431.984 369.752 436.84 364.861 438.054C359.355 439.413 353.36 436.749 349.81 432.328C346.26 427.907 344.92 422.036 345.01 416.365C344.394 419.264 341.551 421.529 338.598 421.493C335.628 421.438 332.078 419.047 331.553 416.13C331.48 422.2 326.191 427.726 320.142 428.07C314.092 428.415 308.206 423.522 307.445 417.525C305.543 419.228 302.337 419.246 300.417 417.561C298.498 415.876 298.081 412.705 299.512 410.603C293.299 413.14 285.583 409.643 282.595 403.627C279.606 397.611 281.055 389.965 285.294 384.765C289.532 379.564 296.179 376.665 302.863 376.031C300.906 370.305 304.656 363.311 310.524 361.771C304.601 359.85 297.99 357.314 295.636 351.552C293.227 345.663 296.704 338.832 301.993 335.154C301.45 338.56 302.247 342.256 304.402 344.974C308.441 350.084 316.067 351.57 322.152 349.251C320.83 350.99 320.558 353.491 321.482 355.466C322.406 357.459 324.471 358.854 326.662 358.981C320.577 361.626 317.443 369.544 320.051 375.651C322.678 381.757 330.593 384.928 336.697 382.319C334.596 379.818 334.07 375.814 335.085 372.697C338.272 374.545 340.772 377.825 341.496 381.431C342.764 377.408 345.807 373.947 349.611 372.154C350.535 375.868 349.249 380.036 346.387 382.59C347.818 386.305 351.621 388.987 355.606 388.914C359.591 388.823 363.394 386.051 364.68 382.282C366.528 384.058 369.227 385.453 371.581 384.475C373.374 383.732 374.425 381.847 375.077 380.017C376.743 375.415 376.961 370.305 375.675 365.594C379.025 367.787 382.901 369.11 386.904 369.128C388.245 369.128 389.766 368.928 390.563 367.841C391.161 367.044 391.197 365.957 390.925 365.015C390.653 364.072 390.11 363.221 389.549 362.405C391.813 364.616 395.87 364.616 398.134 362.405C399.927 360.648 400.489 357.984 400.507 355.466C400.507 350.03 398.261 344.612 394.367 340.789C396.377 342.836 400.199 342.238 402.771 340.97C405.343 339.702 406.937 336.694 406.538 333.849C408.422 338.288 414.779 339.357 418.945 336.947C423.129 334.538 425.393 329.808 426.625 325.134C427.874 320.386 428.237 315.422 427.784 310.529C430.465 311.073 433.018 312.106 435.301 313.628C442.998 318.756 446.838 329.047 444.393 337.962C442.147 346.116 434.775 352.53 426.48 353.925L426.462 353.907Z" fill="#D6DDAB"/>
</g>
<path d="M451.238 520.28C444.627 491.525 443.993 461.772 450.332 432.944C449.734 432.926 449.227 432.999 448.629 432.981C445.369 441.642 443.576 450.973 443.16 460.214C442.942 452.115 442.399 444.015 441.403 435.988C440.877 436.061 440.352 436.115 439.827 436.188C440.805 463.784 440.334 491.434 438.414 518.994L451.256 520.28H451.238Z" fill="#632424"/>
<path d="M501.808 405.258C499.689 408.193 496.157 409.824 492.589 410.404C489.021 410.965 485.38 410.603 481.794 410.223C483.098 413.122 482.5 416.8 480.327 419.137C478.153 421.475 474.948 422.199 471.941 421.112C473.263 423.577 474.585 426.077 475.129 428.831C475.672 431.567 475.328 434.611 473.571 436.786C471.868 438.869 469.025 439.866 466.344 439.576C463.664 439.286 461.182 437.855 459.353 435.88C460.313 437.963 458.828 440.609 456.654 441.406C454.499 442.185 451.999 441.442 450.17 440.065C448.322 438.688 447 436.731 445.714 434.829C446.728 438.253 443.993 442.04 440.516 442.856C437.038 443.671 433.325 441.968 430.971 439.286C428.616 436.604 427.439 433.089 426.75 429.592C425.519 429.955 424.106 429.538 423.291 428.559C422.476 427.581 422.295 426.113 422.856 424.972C419.94 427.219 416.245 428.596 412.587 428.233C408.928 427.871 405.396 425.552 404.074 422.127C402.752 418.702 404.074 414.299 407.298 412.56C405.595 412.795 403.965 410.313 404.78 408.809C400.433 410.114 395.325 408.338 392.717 404.605C390.109 400.873 390.2 395.473 392.898 391.831C395.615 388.189 400.759 386.559 405.07 387.99C402.226 385.308 399.763 382.119 398.495 378.405C397.245 374.708 397.318 370.432 399.292 367.044C399.455 366.754 399.636 366.482 399.835 366.228C401.955 363.329 405.65 361.517 409.163 362.17C408.421 360.611 408.602 358.636 409.634 357.259C410.667 355.882 412.677 355.212 414.38 355.502C411.59 352.675 411.627 347.529 414.47 344.739C417.314 341.948 422.44 342.003 425.211 344.848C423.925 343.144 425.41 340.444 427.493 339.973C429.558 339.502 431.713 340.644 433.198 342.148C434.43 337.491 435.698 332.762 438.379 328.757C441.059 324.753 445.424 321.564 450.224 321.618C454.299 321.655 458.248 324.173 459.987 327.851C461.744 331.53 461.2 336.186 458.665 339.357C462.685 337.31 467.811 336.205 470.637 339.738C473.462 343.271 473.444 348.779 470.582 352.276C473.136 350.609 476.723 351.081 479.113 352.983C479.132 352.983 479.15 353.019 479.168 353.038C481.504 354.94 482.754 357.966 482.989 360.974C483.243 364.018 482.573 367.062 481.685 369.961C484.239 369.744 486.829 371.537 487.536 374.002C488.242 376.484 486.974 379.365 484.692 380.525C489.311 380.072 494.092 381.521 497.661 384.493C501.229 387.464 503.529 391.904 503.909 396.524C504.163 399.568 503.565 402.775 501.772 405.258H501.808Z" fill="#A5AE76"/>
<g style="mix-blend-mode:multiply">
<path d="M501.808 405.258C499.689 408.193 496.157 409.824 492.589 410.404C489.021 410.965 485.38 410.603 481.794 410.222C483.098 413.122 482.5 416.8 480.327 419.137C478.153 421.475 474.948 422.199 471.941 421.112C473.263 423.577 474.585 426.077 475.129 428.831C475.672 431.567 475.328 434.611 473.571 436.786C471.868 438.869 469.025 439.866 466.344 439.576C463.664 439.286 461.182 437.855 459.353 435.88C460.313 437.963 458.828 440.609 456.654 441.406C454.499 442.185 451.999 441.442 450.17 440.065C448.322 438.688 447 436.731 445.714 434.829C446.728 438.253 443.993 442.04 440.516 442.856C437.038 443.671 433.325 441.968 430.971 439.286C428.616 436.604 427.439 433.089 426.75 429.592C425.519 429.955 424.106 429.538 423.291 428.559C422.476 427.581 422.295 426.113 422.856 424.972C419.94 427.219 416.245 428.596 412.587 428.233C408.928 427.871 405.396 425.552 404.074 422.127C402.752 418.702 404.074 414.299 407.298 412.56C405.595 412.795 403.965 410.313 404.78 408.809C400.433 410.114 395.325 408.338 392.717 404.605C390.109 400.873 390.2 395.473 392.898 391.831C395.615 388.189 400.759 386.558 405.07 387.99C402.226 385.308 399.763 382.119 398.495 378.405C397.245 374.708 397.318 370.432 399.292 367.044C399.455 366.754 399.636 366.482 399.835 366.228C399.546 367.696 399.709 369.272 400.343 370.631C401.629 373.386 404.454 375.216 407.443 375.868C410.413 376.538 413.528 376.194 416.499 375.578C414.76 376.611 413.854 378.876 414.38 380.815C414.905 382.771 416.825 384.257 418.835 384.294C416.046 387.084 413.184 389.983 411.645 393.625C410.123 397.267 410.214 401.888 412.931 404.75C414.959 406.888 418.183 407.686 421.081 407.07C423.961 406.454 426.479 404.533 428.145 402.105C428.453 403.645 428.761 405.167 429.069 406.707C429.685 406.327 430.3 405.946 430.916 405.548C430.663 407.976 432.51 410.349 434.865 411.002C437.219 411.654 439.846 410.748 441.53 409.008C443.233 407.251 444.048 404.787 444.12 402.341C444.175 399.912 443.523 397.484 442.599 395.238C443.849 396.434 446.203 396.343 447.544 395.256C448.884 394.169 449.282 392.067 448.395 390.581C451.329 392.9 455.857 392.918 458.791 390.617C461.744 388.316 462.83 383.931 461.291 380.507C462.287 382.391 464.823 382.771 466.688 381.775C467.395 381.394 468.011 380.742 468.155 379.945C468.246 379.419 468.083 378.858 467.739 378.459C468.59 378.803 469.659 378.64 470.419 378.133C471.434 377.462 472.05 376.303 472.376 375.143C473.046 372.788 472.756 370.178 471.561 368.058C470.51 366.174 468.771 364.67 466.761 363.891C468.699 364.38 470.836 363.837 472.611 362.858C476.197 360.865 478.643 357.042 479.15 353.001C481.486 354.904 482.736 357.93 482.971 360.938C483.225 363.982 482.555 367.026 481.667 369.925C484.221 369.707 486.811 371.501 487.518 373.965C488.224 376.448 486.956 379.329 484.674 380.488C489.293 380.035 494.074 381.485 497.642 384.457C501.211 387.428 503.511 391.867 503.891 396.488C504.145 399.532 503.547 402.739 501.754 405.222L501.808 405.258Z" fill="#D6DDAB"/>
</g>
</g>
</g>
<defs>
<clipPath id="clip0_977_852">
<rect width="1582" height="460" fill="white" transform="translate(-95 164)"/>
</clipPath>
<clipPath id="clip1_977_852">
<rect width="780" height="520" fill="white" transform="translate(-52)"/>
</clipPath>
<clipPath id="clip2_977_852">
<rect width="223" height="280" fill="white" transform="translate(281 253)"/>
</clipPath>
</defs>
</svg>
