<?xml version="1.0" encoding="utf-8"?>
<!-- Generator: Adobe Illustrator 28.2.0, SVG Export Plug-In . SVG Version: 6.00 Build 0)  -->
<svg version="1.1" id="Layer_1" xmlns="http://www.w3.org/2000/svg" xmlns:xlink="http://www.w3.org/1999/xlink" x="0px" y="0px"
	 viewBox="0 0 1920 1000.9" style="enable-background:new 0 0 1920 1000.9;" xml:space="preserve">
<style type="text/css">
	.st0{clip-path:url(#SVGID_00000049935212972530345870000002645484529989267641_);}
	.st1{fill:#BCBF32;}
	.st2{fill:#C9CC35;}
	.st3{fill:#688214;}
</style>
<g>
	<defs>
		
			<rect id="SVGID_1_" x="-74.9" y="24.6" transform="matrix(0.9968 -7.964777e-02 7.964777e-02 0.9968 -45.7613 36.9754)" width="1031" height="1135"/>
	</defs>
	<clipPath id="SVGID_00000132792645450163507800000016229936649063318714_">
		<use xlink:href="#SVGID_1_"  style="overflow:visible;"/>
	</clipPath>
	<g style="clip-path:url(#SVGID_00000132792645450163507800000016229936649063318714_);">
		<path class="st1" d="M911.8,301.4c0-0.4-0.1-0.7-0.1-1.1c-0.3-3.5-0.7-7-1-10.5c-0.1-0.9-0.2-1.8-0.3-2.7
			c-9-76.3-38.6-142.9-97.4-192.1c-3-2.5-6-5-9.1-7.4l-4.8-3.6c-4.8-3.6-9.8-7-15-10.3c-5.2-3.3-10.5-6.6-16-9.7
			c-3.7-2.1-7.4-4.1-11.3-6.1c-3.9-2-7.8-3.9-11.8-5.8c-4-1.9-8.1-3.7-12.3-5.5c-2.1-0.8-4.2-1.8-6.3-2.6c-4.3-1.8-8.6-3.4-13-5.1
			s-8.9-3.2-13.5-4.7c-4.6-1.5-9.3-3-14-4.4c-3.1-0.9-6.1-1.8-9.2-2.6c-9.2-2.5-18.2-4.6-27.1-6.4c-14.9-3.1-29.4-5.2-43.6-6.4
			c-1-0.1-2-0.1-3.1-0.2c-0.1,0-0.1,0-0.2,0c-20.8-1.7-40.9-1.5-60.4,0.5l-1.5,0.1l-5.5,0.6c-2.1,0.3-4.2,0.5-6.3,0.9
			c-2.1,0.3-4.2,0.6-6.3,0.9c-4.2,0.7-8.3,1.4-12.5,2.3c-6.2,1.2-12.3,2.7-18.3,4.3l-0.2,0l-5.3,1.5l-6.7,2c-2,0.6-4,1.2-5.9,1.9
			c-4,1.3-7.9,2.7-11.8,4.1c-3.8,1.4-7.5,2.8-11.2,4.4c-0.1,0-0.2,0-0.3,0.1C430.8,46,412,56.3,393.8,68.2
			c-3.4,2.1-6.8,4.4-10.2,6.8c-55.4,38.7-103.5,93.8-145.2,159.3c-34.4,53.9-64.5,115-90.8,179.8c-30.1,74-55.3,153.1-76.2,232.3
			c-2,7.6-4,15.2-5.9,22.8c-0.4,1.4-0.7,2.9-1.1,4.3c-16.9,66.7-30.9,133.1-42.5,196.3c-1.8,10.1-3.6,20-5.3,29.9
			c-14.7,84.2-25,161.7-32.2,225.2c-0.3,2.5-0.6,5-0.8,7.5c-0.8,7.4-1.6,14.6-2.4,21.6c-2.9,27.9-5.2,52.4-6.9,72.8l591.1-47.2
			c9.7-14.5,20.5-30.9,32.2-49.1c5.5-8.5,11.1-17.3,17-26.6c34.1-54,73.5-120,112.4-192.5c4.7-8.7,9.4-17.5,14-26.4
			c3.3-6.3,6.6-12.7,9.9-19.1c5.8-11.3,11.6-22.8,17.2-34.4c1.4-2.9,2.9-5.8,4.3-8.7c9.5-19.3,18.7-38.9,27.6-58.7
			c1.5-3.2,2.9-6.4,4.4-9.7c0.4-0.7,0.7-1.6,1-2.3l7.6-17.3c2.3-5.4,4.6-10.8,6.9-16.1c0.4-0.9,0.7-1.7,1.1-2.6c1.7-4,3.4-8,5-12
			c1.1-2.9,2.4-5.7,3.5-8.6l0.9-2.2c2.4-5.9,4.7-11.7,7-17.6c1.8-4.7,3.6-9.3,5.4-13.9c1.9-5.2,3.9-10.3,5.8-15.5
			c1.5-4.2,3.1-8.5,4.6-12.7l5.8-16.6c5.8-16.9,11.3-33.8,16.4-50.6c1-3.3,2-6.6,2.9-9.9c4.8-16.5,9.2-32.9,13.1-49.1
			c0.4-1.4,0.7-2.8,1-4.3c1.2-5.1,2.4-10.2,3.5-15.3c1.5-6.5,2.8-12.9,4-19.4c0.5-2.2,0.9-4.6,1.3-6.9c0.2-0.9,0.4-1.8,0.6-2.7
			c0.6-3.2,1.2-6.4,1.7-9.6c0-0.1,0-0.2,0-0.3c0.5-2.5,0.9-5.1,1.3-7.7c1.6-10.1,3.1-20.1,4.2-30c0.4-3.1,0.8-6.2,1.1-9.3
			c0.9-8.6,1.6-17.1,2.2-25.5c0.2-2.8,0.3-5.6,0.5-8.4c0.1-1.7,0.2-3.5,0.2-5.2c0.1-2.2,0.2-4.3,0.3-6.4c0.2-6.2,0.3-12.4,0.2-18.5
			c0-2.6,0-5.1-0.1-7.6C913.2,320.4,912.6,310.8,911.8,301.4L911.8,301.4z M265.8,282.9c2-4.2,4.2-8.3,6.7-12.1
			c2.2-3.6,4.7-6.9,7.3-10.1c0.2-0.1,0.2-0.3,0.3-0.4c1.2-1.5,2.5-3,3.8-4.4c1.4-1.5,2.8-3,4.2-4.3c19.4-18.6,43.7-25.8,63.2-16.6
			c1.8,0.9,3.6,1.9,5.2,3c24.1,16,29.5,56.2,11.8,93.5c-0.6,1.2-1.2,2.5-1.9,3.7c-4,7.8-8.9,14.7-14.1,20.8
			c-7.8,9-16.8,16.1-26.1,20.8c-14.7,7.4-30.2,8.7-43.6,2.4C254.5,365.9,246.9,322.7,265.8,282.9z"/>
		<path class="st2" d="M685.8,30.1C596.9,4,519,9.4,450.5,37.9c-21.1,213.8-41.4,764.6,300.2,828
			C912.9,548.8,1042.1,134.7,685.8,30.1z"/>
		<path class="st3" d="M533.6,496.9l369.8-48.1c0,0,0,0.2,0,0.3c-0.7,4.1-1.4,8.2-2.2,12.4c-0.8,4.2-1.6,8.4-2.5,12.7l-374.7,48.8
			l-32.2,86.6l-42.5,114.1l380.9-30.4l-0.9,2.2c-2.8,6.9-5.7,13.8-8.5,20.7c-0.4,0.9-0.8,1.7-1.1,2.6l-379.9,30.4l-67.1,180.5
			L740.8,885c-4.6,8.9-9.3,17.7-14,26.4l-363.2,44l-0.5-0.4l-68.4,183.8l319.6-34.9c-5.8,9.2-11.5,18.1-17,26.6l-312.2,34.1
			l-14.3,38.5l-27,2.2l18.3-49.1L58,943l-41.5-43.3c1.7-9.9,3.5-19.8,5.3-29.9L63,912.8l208.7,217.7l72.1-193.8L104,710.9
			l-39.6-37.3c0.4-1.5,0.7-2.9,1.1-4.3c2-7.6,3.9-15.2,5.9-22.8l39.3,37l242.4,228.3l63.8-171.5L172.5,477.1l-34.9-37.5
			c3.3-8.5,6.6-17,10-25.4l34.3,37l244.5,263.3l53.3-143.3l21.1-56.6L457.3,468l-84.1-89.8l-20.7-22.2l-0.1,0
			c0.6-0.8,1.1-1.5,1.7-2.2c1.4-1.7,2.8-3.6,4.2-5.4c1.1-1.5,2.1-3,3.1-4.5c1.3-2,2.5-4,3.7-6.1c0.5-0.9,0.9-1.7,1.4-2.6l0.1,0
			l27.1,29l57.6,61.5l59.1,63.1l54.3-146.1L441.5,174.9l-49.4-67.3l-18.5-25.3c3.3-2.5,6.6-4.9,10-7.3c3.3-2.4,6.7-4.7,10.2-6.8
			l17.2,23.4l32.3,44l131.7,179.6l65-174.8c2.4-6.3,9.5-9.6,15.8-7.2c6.3,2.4,9.6,9.4,7.2,15.8l-65.6,176.6l311.8-48.4
			c1.1,8,2,16.1,2.7,24.4l-324.3,50.4L533.6,496.9L533.6,496.9z"/>
	</g>
</g>
</svg>
