<?xml version="1.0" encoding="utf-8"?>
<!-- Generator: Adobe Illustrator 28.2.0, SVG Export Plug-In . SVG Version: 6.00 Build 0)  -->
<svg version="1.1" id="Layer_1" xmlns="http://www.w3.org/2000/svg" xmlns:xlink="http://www.w3.org/1999/xlink" x="0px" y="0px"
	 viewBox="0 0 1440 624" style="enable-background:new 0 0 1440 624;" xml:space="preserve">
<style type="text/css">
	.st0{clip-path:url(#SVGID_00000065753682047107079710000010033859419362533807_);}
	.st1{fill:#632424;}
	.st2{fill:#2E351D;}
	.st3{fill:#272E14;}
	.st4{fill:#414A2B;}
	.st5{fill:#36401C;}
	.st6{opacity:0.5;}
	.st7{fill:#B73835;}
	.st8{fill:#57623B;}
	.st9{fill:#4A5428;}
	.st10{fill:#677446;}
	.st11{fill:#56642F;}
	.st12{clip-path:url(#SVGID_00000089574091338222503460000008648292916257708673_);}
	.st13{fill:#A5AE76;}
	.st14{fill:#89974F;}
	.st15{fill:#52734D;}
	.st16{fill:#40603D;}
	.st17{fill:#B4D494;}
	.st18{fill:#505C43;}
	.st19{fill:#DDFFBC;}
	.st20{fill:#687858;}
	.st21{fill:#354A32;}
	.st22{opacity:0.3;}
	.st23{fill:#80B079;}
	.st24{fill:none;stroke:#68807C;stroke-miterlimit:10;}
	.st25{fill:#486641;}
	.st26{fill:#B0CF81;}
	.st27{opacity:0.2;}
	.st28{fill:#2C402A;}
	.st29{clip-path:url(#SVGID_00000175314492596275843150000009484469975352394902_);}
	.st30{fill:#FFF9E9;}
	.st31{fill:#DDD8CE;}
	.st32{fill:#AA3C37;}
	.st33{fill:#BF946D;}
	.st34{fill:#EDB68A;}
	.st35{fill:#231F20;}
	.st36{opacity:0.29;fill:#FFF9E9;enable-background:new    ;}
	.st37{fill:#CE9736;}
	.st38{fill:#F45C4D;}
	.st39{fill:#F2BC44;}
	.st40{opacity:0.48;fill:#FFF9E9;enable-background:new    ;}
</style>
<g>
	<defs>
		<rect id="SVGID_1_" x="-46.8" y="-83.7" width="780" height="520"/>
	</defs>
	<clipPath id="SVGID_00000037690830331347260840000006659668111974057882_">
		<use xlink:href="#SVGID_1_"  style="overflow:visible;"/>
	</clipPath>
	<g style="clip-path:url(#SVGID_00000037690830331347260840000006659668111974057882_);">
		<path class="st1" d="M173.9,554.2c-12.1-52.7-13.3-107.2-1.7-159.9c-1.1,0-2,0.1-3.1,0.1c-6,15.9-9.3,32.9-10,49.9
			c-0.4-14.8-1.4-29.6-3.2-44.4c-0.9,0.1-1.9,0.2-2.9,0.4c1.8,50.6,0.9,101.2-2.6,151.6L173.9,554.2L173.9,554.2z"/>
		<path class="st2" d="M234.2,383.3c2.5,5.7,2.4,12.6-1.1,17.7c-3,4.3-8.2,6.8-13.4,7.6c-5.2,0.9-10.6,0.3-15.8-0.2
			c2.2,3.4,0.8,8.5-2.8,10.3c-3.6,1.8-8.6,0-10.1-3.7c-0.4,4.8-5.4,8.6-10.3,8.2c-4.9-0.3-9.1-4-10.9-8.5c-1.9-4.5-1.6-9.7-0.3-14.3
			c-1,2.3-3.7,3.7-6.1,3.3c-2.1-0.3-4-1.9-4.7-3.9c0.8,4-0.7,8.4-3.7,11.1c-3.3,3-8.4,3.8-12.5,2.1c1.1,2.4,0.1,5.7-2.3,6.9
			c-2.4,1.2-5.7,0.3-7-2.1c-1.6,7.6-10.5,12.8-17.9,10.4c-7.4-2.4-11.6-11.8-8.4-18.9c-1.4,1.6-2.9,3.4-5.1,3.6
			c-2.1,0.2-4.7-3.2-3.4-4.9c-2,2.6-4,5.2-6.7,6.9c-2.7,1.7-6.4,2.3-9.2,0.7c-3.6-2.1-4.5-7.1-3.1-11c1.4-3.9,4.4-6.9,7.3-9.8
			c-3.5-2.3-3.6-8.3-0.1-10.6c-4.3,1-9.3,1.6-12.5-1.4c-3.4-3.3-2.4-9.2,0.8-12.7c0.1-0.1,0.2-0.2,0.2-0.3c3.3-3.4,8.1-4.8,12.7-6.1
			c-2,0.5-4.1-1.7-3.7-3.7c0.4-2.1,3.1-4.5,5.2-3.9c-6-1.4-12.2-2.9-17-6.8c-4.7-3.9-7.4-11-4.4-16.4c2-3.6,6.2-5.5,10.2-6
			c4.1-0.5,8.2,0.3,12.2,1.1c-3.2-2.9-3.4-8.5-0.4-11.7c2.9-3.2,8.5-3.3,11.7-0.4c-1.9-3.8-2.1-8.6-0.5-12.6c1.6-4,5-7.3,9.1-8.7
			c5.1-1.8,10.8-0.8,15.7,1.7c4.8,2.4,8.9,6.1,12.8,9.8c2.2-1.2,5.3-0.9,7.2,0.8c1.9,1.7,2.7,4.6,1.8,7c3.7-3,9-4,13.4-2.3
			c2.1,0.7,3.9,2,5.4,3.6c1-0.9,2.1-1.7,3.3-2.3c3.6-1.6,8.9,0,9.5,3.9c0.9-5.4,2.7-10.7,5.8-15.2c3.2-4.4,8-7.9,13.4-8.6
			c5.4-0.7,11.4,1.6,14.1,6.4c2.8,4.9,1.9,11,0.5,16.4c4.6,0.9,7,7.2,4.3,11c2.1-2,4.5-3.9,7.3-5s6-1.2,8.6,0.2
			c1.5,0.8,2.6,2,3.5,3.4c1.3,2.2,1.9,4.9,2,7.5c0.4,10.9-7,21.7-17.4,25.2c3.4-1.2,7.6,1.6,7.9,5.2c0.3,3.6-3.8,7.2-7.3,6.6
			C227,373.2,231.7,377.7,234.2,383.3L234.2,383.3z"/>
		<g>
			<path class="st3" d="M234.2,383.3c2.5,5.7,2.4,12.6-1.1,17.7c-3,4.3-8.2,6.8-13.4,7.6c-5.2,0.9-10.6,0.3-15.8-0.2
				c2.2,3.4,0.8,8.5-2.8,10.3c-3.6,1.8-8.5,0-10.1-3.7c-0.4,4.8-5.4,8.6-10.3,8.2c-4.9-0.3-9.1-4-10.9-8.5
				c-1.9-4.5-1.6-9.7-0.3-14.3c-1,2.3-3.7,3.7-6.1,3.3c-2.1-0.3-4-1.9-4.7-3.9c0.8,4-0.7,8.4-3.7,11.1c-3.3,3-8.4,3.8-12.5,2.1
				c1.1,2.4,0.1,5.7-2.3,6.9c-2.4,1.2-5.7,0.3-7-2.1c-1.6,7.6-10.5,12.8-17.9,10.4c-7.4-2.4-11.6-11.8-8.4-18.9
				c-1.4,1.6-2.9,3.4-5.1,3.6c-2.1,0.2-4.7-3.2-3.4-4.9c-2,2.6-4,5.2-6.7,6.9c-2.7,1.7-6.4,2.3-9.2,0.7c-3.6-2.1-4.5-7.1-3.1-11
				c1.4-3.9,4.4-6.9,7.3-9.8c-3.5-2.3-3.6-8.3-0.1-10.6c-4.3,1-9.3,1.6-12.5-1.4c-3.4-3.3-2.4-9.2,0.8-12.7c0.2,0.6,0.4,1.2,0.8,1.7
				c1.4,2.1,4,3.3,6.6,3.4c2.6,0.1,5.1-0.7,7.3-1.9c4.9-2.5,9-6.7,11.3-11.7c0.5,1.7,1.8,3.1,3.4,3.7c1.6,0.6,3.5,0.4,5-0.4
				c-3.9,3.1-5.4,8.7-4,13.5c1.4,4.8,5.3,8.6,10,10.4c4.7,1.7,9.9,1.5,14.6-0.2c5.3-1.9,10.1-5.8,12.1-11.1
				c-4.4-1.2-8.4-4.5-10.2-8.7c4-1.3,8.7-0.5,11.7,2.5c-0.6-4,0.8-8.4,3.6-11.4c2.3,1.9,3.7,4.8,3.9,7.8c0.1,1.9-0.2,4,1.1,5.3
				c0.9,1,2.6,1.2,3.8,0.5c1.2-0.7,1.7-2.3,1.2-3.6c1.6,2.5,4.4,4.3,7.3,5c2.9,0.7,6,0.6,9,0c2.8-0.5,5.6-1.5,7.6-3.5
				c1.8-1.8,2.7-4.3,3.1-6.9c0.4-2.5,0.2-5.1,0-7.6c2.2,1.3,4.3,1.8,6.9,1.7c2.6-0.1,5.3-2.2,5-4.8c2.8,2,6.2,3.1,9.6,2.8
				c3.4-0.3,6.7-2.1,8.4-5c1.7-2.9,1.6-6.9-0.6-9.5c4.2,2,9.3,1.7,13.5-0.4c4.1-2.2,7.2-6.1,8.8-10.4c0.7-1.9,1.1-3.8,1.3-5.8
				c1.3,2.2,1.9,4.9,2,7.5c0.4,10.9-7,21.7-17.4,25.2c3.4-1.2,7.6,1.6,7.9,5.2c0.3,3.6-3.8,7.2-7.4,6.6
				C227,373.2,231.7,377.6,234.2,383.3L234.2,383.3z"/>
		</g>
		<path class="st4" d="M238,200.3c0,9-4.8,17.6-11.5,23.7c-6.7,6.1-15,10-23.6,12.9c2.8,1.2,7.1,2.1,9.2,4.3
			c2.1,2.2,3.2,5.7,1.8,8.4c-1.2,2.4-4.7,3.4-6.7,1.9c8.1,7.7,13.7,18.1,15.6,29.1c1.2,7,0.3,15.7-6,19.1c-4.4,2.4-10,1.3-14.2-1.5
			c-4.2-2.8-7.2-7-10.1-11c2.7,4.7-1.9,11.6-7.3,10.9c6.9,8.2,14.1,16.8,16.3,27.3c2.3,10.5-2.2,23.3-12.4,26.6
			c-5.9,2-12.5,0.4-17.9-2.7c-5.4-3.1-9.8-7.7-14.1-12.1c0.6,6.3-4.8,12.5-11.1,12.7c-4,0.1-7.8-2.1-10-5.4
			c0.8,7.6-3.2,15.7-10.2,19c-9.1,4.3-21.3-0.6-24.9-9.9c1.6,5.1-2.4,10.8-7.4,11.9c-0.9,0.2-1.9,0.3-2.8,0.1
			c1.4,2.1,2.4,4.4,3.1,6.7c1.3,4.1,1.6,8.5,1.1,12.8c-0.6,4.6-2.1,9.2-4.6,13.1c-6.1,9.7-17.3,15.8-28.7,16.7
			c-11.5,0.9-23-3.2-32.1-10.3c-9.4,5.9-22.8,4.7-31-2.9c-7.9-7.3-6.5-15.6-10.1-24.6c-2.9-7.3-7.9-12.1-9.2-20.5
			c-2.4-15.5,3.7-32.7,16.8-41.8c-23.9-16.5-40-43.9-42.6-72.8c-2.6-28.9,8.2-58.8,28.8-79.3c-8.8-6.9-11.3-19.8-7.7-30.4
			c3.5-10.6,12.1-18.8,21.9-24.3c8.8-4.9,24.2-6.1,30.8-12.5c7.1-6.8,7-15.9,19.9-16.5c9.1-0.4,18,5.6,21.1,14.1
			c0.6-3.5,4-6.4,7.6-6.3c3.6,0.1,6.9,3,7.3,6.6c10.3-13.6,23.5-25,38.5-33.3c8.5-4.7,19-8.4,27.7-3.9c7.7,3.9,11.3,13.3,10.9,21.9
			c-0.4,8.6-4.1,16.7-7.6,24.6c5.4-3.8,14-2.2,17.6,3.4c3.7,5.6,1.7,14-4,17.5c9.6-2.2,19.9-4.4,29.3-1.4c9.4,3,17.3,13.3,13.9,22.6
			c-2.4,6.6-9.1,10.2-15.6,13.1c4.4-1.5,9.9,0.4,12.2,4.5c2.6,4.6,0.7,11.1-3.9,13.6c7.4-2.9,16.1-2.2,22.9,1.9
			c0.5,0.3,0.9,0.5,1.3,0.8C233.6,183.5,238,191.8,238,200.3z"/>
		<g>
			<path class="st5" d="M220.4,202.8c-6.7,8.9-19,13.3-29.9,10.7c2.3,1.4,3.1,4.7,1.8,7c-1.3,2.3-4.6,3.2-7,2
				c3.1,10.3,3,22.1-2.6,31.2c-5.6,9.2-17.5,14.9-27.7,11.2c-3.1,1.7-7.8,1.4-9.8-1.5c0.6,1.6,1.2,3.2,1.4,4.9
				c0.2,1.7-0.1,3.5-1,4.9c-1.4,1.9-4.1,2.7-6.3,1.9c0.5,2.6,1.4,4.9,2.3,7.3c0.9,2.5,1.2,5.3-0.1,7.6c-3.9-2.6-6.6-7-7.4-11.6
				c0.2,1.3-0.4,2.7-1.4,3.5c-1,0.9-2.7,1.2-4,0.7c2.2,6.5,0.4,13.8-2.8,19.9c-3.2,6-8,11-12.7,16c-6.3,6.5-12.5,13.1-18.8,19.6
				c-0.9,9.2-1.2,18.3-1,27.4c0.1,2.3,0.2,4.6,0.3,6.9c0.3,4.3,0.6,8.5,1.1,12.8c-0.6,4.6-2.1,9.2-4.6,13.1
				c-6.1,9.7-17.3,15.8-28.7,16.7c-11.5,0.9-23-3.2-32.1-10.3c-9.4,5.9-22.8,4.7-31-2.9c-7.9-7.3-6.5-15.6-10.1-24.6
				c-2.9-7.3-7.9-12.1-9.2-20.5c-2.4-15.5,3.7-32.7,16.8-41.8c-23.9-16.5-40-43.9-42.6-72.8c-2.6-28.9,8.2-58.8,28.8-79.3
				c-8.8-6.9-11.3-19.8-7.7-30.4c3.5-10.6,12.1-18.8,21.9-24.3c8.8-4.9,24.2-6.1,30.8-12.5c7.1-6.8,7-15.9,19.9-16.5
				c9.1-0.4,18,5.6,21.1,14.1c0.6-3.5,4-6.4,7.6-6.3c3.6,0.1,6.9,3,7.3,6.6c10.3-13.6,23.5-25,38.5-33.3c8.5-4.7,19-8.4,27.7-3.9
				c7.7,3.9,11.3,13.3,10.9,21.9c-0.4,8.6-4.1,16.7-7.6,24.6c5.4-3.8,14-2.2,17.6,3.4c3.7,5.6,1.7,14-4,17.5
				c9.6-2.2,19.9-4.4,29.3-1.4c9.4,3,17.3,13.3,13.9,22.6c-2.4,6.6-9.1,10.2-15.6,13.1c4.4-1.5,9.9,0.4,12.2,4.5
				c2.6,4.6,0.7,11.1-3.9,13.6c7.4-2.9,16.1-2.2,22.9,1.9C227.4,186.4,225.7,195.8,220.4,202.8z"/>
		</g>
		<path class="st1" d="M139,210.4c-0.3,9.6-0.9,19.2-2.2,28.8c-0.1,0.7-0.2,1.4-0.3,2.1c-0.5,3.3-1,6.6-1.6,9.9
			c-0.1,0.6-0.2,1.2-0.3,1.8c-2.1,11-5,21.9-8.8,32.4c-0.2,0.5-0.3,0.9-0.5,1.4c-0.1,0.1-0.1,0.3-0.1,0.4c-1.1,2.8-2.2,5.6-3.5,8.2
			c-0.2,0.5-0.4,0.9-0.6,1.4c-3.2,6.7-7,12.9-11.2,18.8c-0.6,0.9-1.2,1.7-1.9,2.5c-4.2,5.6-8.8,11-13.8,16.1
			c-0.6,0.6-1.1,1.2-1.7,1.8c0,0.2,0,0.3,0,0.5c-0.1,2-0.2,3.9-0.2,5.9c0,0.8-0.1,1.5-0.1,2.3c-0.1,3.6-0.2,7.2-0.3,10.7
			c0,0.7,0,1.4-0.1,2.1c-0.3,11-0.4,22-0.5,33c0,0.9,0,1.8,0,2.6c0,6.5,0,12.9,0.1,19.4c0,0.8,0,1.6,0,2.3c0.1,7,0.3,14,0.5,21
			c0,0.5,0,1,0.1,1.6c0.2,6,0.4,12,0.7,18c0,0.6,0.1,1.2,0.1,1.8c0.5,11.9,1.2,23.7,2.1,35.4c0.1,0.5,0.1,1,0.1,1.5
			c0.6,7.6,1.2,15.2,1.9,22.7c0.1,0.5,0.1,1,0.1,1.4c0.3,3.1,0.6,6.1,0.9,9.1c0.1,0.5,0.1,1,0.2,1.4c0.4,3.6,0.8,7.2,1.2,10.7
			c0.1,0.5,0.1,1,0.2,1.5c0.7,5.8,1.4,11.4,2.2,17c0.1,0.5,0.2,1,0.2,1.5c0.7,4.8,1.4,9.5,2.1,14.2c-9.9,0-18.4,0.1-26.5,0.2
			c-14.5,0.2-27.9,0.5-45.5,0.5c0.3-6.8,0.6-13.6,0.9-20.5c0-0.5,0.1-1,0.1-1.5c0.3-7.2,0.6-14.4,1-21.7c0.1-1.1,0.1-2.2,0.2-3.3
			c0,0,0,0,0,0c0.3-6.6,0.7-13.2,1-19.8c0-0.8,0.1-1.5,0.1-2.3c0.3-4.8,0.5-9.7,0.8-14.6c0.1-0.8,0.1-1.5,0.1-2.3
			c0.3-5.6,0.7-11.3,1.1-16.9c0-0.7,0.1-1.3,0.1-2c0.4-6.4,0.9-12.9,1.4-19.3c0.1-0.6,0.1-1.3,0.2-1.9c1-13.5,2.2-27,3.5-40.5
			c0.1-0.7,0.1-1.3,0.2-2c0.1-0.8,0.2-1.6,0.2-2.4c0.1-0.9,0.2-1.8,0.3-2.8c-1.9-4.2-3.6-8.5-5.3-12.8c-0.2-0.5-0.4-0.9-0.5-1.4
			c-0.8-2.2-1.6-4.4-2.3-6.6c-0.4-1.3-0.8-2.5-1.3-3.8c-6.9-21.6-10.7-44.1-11.3-66.7c0-1-0.1-2-0.1-3c-0.1-7.2,0.2-14.5,0.7-21.7
			c0.1-0.9,0.2-1.8,0.2-2.7c0.8-8.6,2-17.1,3.7-25.6c0-0.1,0.1-0.3,0.1-0.4l0.2,0l1,0.2l1.9,0.4c0,5.1,0.2,10.2,0.4,15.3
			c0.1,0.8,0.1,1.5,0.1,2.3c0.3,4.5,0.7,9.1,1.1,13.6c0.1,0.9,0.2,1.8,0.3,2.7c0.8,7.3,1.9,14.5,3.2,21.7c0.2,1.2,0.5,2.4,0.7,3.6
			c2.9,14.9,6.9,29.6,11.8,43.9c0.5-4,1.1-8.1,1.6-12.2c0.1-0.5,0.2-1,0.2-1.5c0.5-3.8,1.1-7.6,1.7-11.3c0.1-0.5,0.1-1,0.2-1.4
			c0.6-4.2,1.3-8.4,2-12.6c0.1-0.6,0.2-1.1,0.3-1.7c0.3-1.9,0.6-3.8,1-5.7c0.1-0.8,0.3-1.6,0.4-2.4c1.7-10,3.6-19.9,5.6-29.7V281
			c0.8-3.6,1.5-7.2,2.3-10.8c0,0,0-0.1,0-0.1c0.9-3.9,1.8-7.8,2.7-11.7v-0.2c0.6-2.7,1.3-5.4,2-8.1c0,0,0,0,0-0.1
			c0.6-2.3,1.1-4.5,1.7-6.8c0.2-0.6,0.3-1.3,0.5-1.9c0.9-3.3,1.7-6.5,2.6-9.8c0.2-0.7,0.4-1.3,0.5-2c1.9-6.8,3.8-13.5,5.9-20.2
			c0.2-0.5,0.3-0.9,0.4-1.4c0.7-2.3,1.5-4.6,2.2-7l16.9,2.6l5.6,0.9c-0.2,1.3-0.4,2.5-0.5,3.8c-0.1,0.5-0.1,1-0.2,1.5
			c-0.4,3.1-0.8,6.1-1.2,9.2c-0.1,0.5-0.1,1.1-0.2,1.6c-0.6,5-1.2,10-1.8,15.2c-0.1,0.6-0.2,1.3-0.2,1.9c-0.6,5.5-1.2,11.1-1.7,16.8
			c-0.1,0.8-0.2,1.6-0.2,2.4c-0.3,3-0.6,6-0.8,8.9c-0.1,0.8-0.2,1.7-0.2,2.5c-0.5,5.2-0.9,10.5-1.3,15.8c-0.1,0.8-0.1,1.5-0.2,2.3
			c-0.3,4.1-0.6,8.2-0.8,12.3c0,0.5-0.1,1-0.1,1.6c-0.1,0.6-0.1,1.2-0.1,1.9c0.7-0.9,1.3-1.7,1.9-2.6c0.5-0.7,1-1.4,1.5-2
			c5.1-7.1,9.7-14.4,13.9-22c0.8-1.4,1.6-2.9,2.3-4.3c0-0.1,0-0.1,0.1-0.1c0.4-0.7,0.7-1.4,1.1-2.1c0-0.1,0-0.1,0.1-0.1c1-2,2-4,3-6
			c2-4.3,4-8.6,5.7-13.1c0.3-0.7,0.6-1.4,0.8-2.1c4.7-12.1,8.4-24.6,11-37.4C136.7,210.2,137.9,210.2,139,210.4L139,210.4z"/>
		<g class="st6">
			<path class="st7" d="M91.4,414.8c-1.2,1.6-2.5,3.2-3.7,4.7c-11.2,14-23.5,27.2-36.6,39.4c-4.6,4.3-9.3,8.4-14.1,12.5
				c0-0.7,0.1-1.3,0.1-2c12.1-10.2,23.5-21.1,34.1-32.8c7.1-7.8,13.9-15.8,20.2-24.1C91.4,413.3,91.4,414.1,91.4,414.8L91.4,414.8z"
				/>
			<path class="st7" d="M61.3,462.8c-8.5,9.3-17.1,18.5-25.6,27.8c0.1-0.8,0.1-1.5,0.1-2.3c2.9-3.2,5.9-6.4,8.8-9.6
				c6.8-7.4,13.6-14.9,20.5-22.2c5.9-6.3,12.2-12.4,19.5-17c2.3-1.5,4.7-2.7,7.1-3.8c0,0.5,0,1,0.1,1.6c-0.5,0.2-0.9,0.4-1.4,0.7
				c-3.8,1.9-7.3,4.2-10.7,6.8C73.1,450.1,67.2,456.5,61.3,462.8L61.3,462.8z"/>
			<path class="st7" d="M66,422.8c9.3-10,17.8-20.9,25.2-32.3c0,0.9,0,1.8,0,2.7c-8.5,12.8-18.2,24.8-29,35.8
				c-7.5,7.6-15.4,14.7-23.9,21.2c0.1-0.6,0.1-1.3,0.2-1.9C48.4,440.4,57.6,432,66,422.8L66,422.8z"/>
			<path class="st7" d="M91.8,355.4c0,0.7,0,1.4-0.1,2.1c-0.8,0.7-1.6,1.5-2.4,2.2C74.9,373.6,63,389.9,47.8,403
				c-1.9,1.6-3.8,3.2-5.8,4.6c0.1-0.7,0.1-1.3,0.2-2c5.1-3.9,9.8-8.3,14.3-12.9c7.1-7.2,13.7-14.9,20.5-22.4
				c3.5-3.8,7.1-7.6,10.8-11.2C89.1,357.8,90.4,356.6,91.8,355.4L91.8,355.4z"/>
			<path class="st7" d="M92.2,342.3c0,0.8-0.1,1.5-0.1,2.3c-2.9,3.6-6.2,6.8-9.6,9.8c-7.3,6.3-15.3,11.7-23,17.4l-22,16
				c-0.2-0.5-0.4-0.9-0.5-1.4c3.4-2.5,6.8-4.9,10.2-7.4c8.2-6,16.5-11.9,24.6-17.9c7.4-5.5,14.6-11.3,20.3-18.6
				C92,342.4,92.1,342.4,92.2,342.3L92.2,342.3z"/>
			<path class="st7" d="M35.5,315.6c-2.1,10.1-3,20.4-2.5,30.7c0.5,10.9,2.4,22.4,1.5,33.4c-0.4-1.3-0.8-2.5-1.3-3.8
				c0.1-2,0.1-4,0-6.1c-0.3-9.3-1.8-18.6-1.8-28c-0.1-8.3,0.7-16.6,2.3-24.7c0.3-1.7,0.7-3.5,1.1-5.2
				C35.1,313.2,35.3,314.4,35.5,315.6L35.5,315.6z"/>
			<path class="st7" d="M94.1,334.2c-0.6,0.6-1.1,1.2-1.7,1.8c0,0.2,0,0.3,0,0.5c-8.1,3.2-16.1,6.7-24.3,9.3
				c-5.4,1.7-11.2,3.6-16.9,2.4c-0.7-0.2-1.5-0.4-2.2-0.7c0.1-0.5,0.2-1,0.2-1.5c2.5,1,5.5,1.2,8.1,0.9c3-0.3,5.8-1.2,8.7-2
				c2.8-0.8,5.5-1.8,8.2-2.8C81,339.5,87.5,336.7,94.1,334.2L94.1,334.2z"/>
			<path class="st7" d="M30.3,274.1c-0.2,0.2-0.3,0.4-0.4,0.6c-2.4,3.3-4.8,6.6-7.2,9.9c0.1-0.9,0.2-1.8,0.2-2.7
				c2.4-3.3,4.8-6.7,7.3-10C30.2,272.6,30.2,273.3,30.3,274.1L30.3,274.1z"/>
			<path class="st7" d="M31.7,290.4c-3.1,6.3-6.4,12.6-9.6,18.8c0-1-0.1-2-0.1-3c3.2-6.1,6.4-12.3,9.4-18.5
				C31.5,288.6,31.6,289.5,31.7,290.4z"/>
			<path class="st7" d="M101.8,219c-0.1,0.5-0.1,1.1-0.2,1.6c-0.4,0.1-0.7,0.3-1.1,0.4c-5.4,1.9-10.9,3.8-16.3,5.7
				c-2.5,0.9-5.1,1.7-7.6,2.7c-1.5,0.6-3.1,1.2-4.4,2.2c0.2-0.7,0.4-1.3,0.5-2c0.5-0.3,1.1-0.6,1.7-0.8c2.2-1,4.5-1.7,6.7-2.5
				c2.6-0.9,5.2-1.8,7.8-2.7C93.3,222,97.6,220.6,101.8,219L101.8,219z"/>
			<path class="st7" d="M88.3,276.1c2.9-3.4,5.7-6.9,8.6-10.3c-0.1,0.8-0.2,1.7-0.2,2.5c-1.4,1.7-2.8,3.4-4.3,5.1
				c-5.8,6.9-11.8,15.1-20.8,17.8c-3.7,1.1-8.9,1.5-10.8-2.8c-0.9-2.1-0.7-4.4-0.5-6.5l0.1-0.8v-0.1c0.8-3.6,1.5-7.2,2.3-10.8
				c-0.3,3.4-0.5,6.8-0.8,10.2c-0.2,2.3-0.6,4.8,0.1,7c0.7,2.3,2.9,3.1,5.1,3.1c4.3-0.1,8.5-2.3,11.8-4.8
				C82.4,282.9,85.4,279.5,88.3,276.1z"/>
			<path class="st7" d="M99.8,235.8c-0.1,0.6-0.2,1.3-0.2,1.9c-0.4,0.3-0.7,0.5-1.1,0.8c-4.1,2.9-8.1,6-12.8,7.9
				c-4.1,1.6-9,2-13.1-0.1c-1.4-0.7-2.6-1.8-3.5-3.1c0.2-0.6,0.3-1.3,0.5-1.9c0.4,0.7,0.9,1.4,1.4,2c3.4,3.5,8.9,3.5,13.3,2
				c5-1.7,9.3-5.1,13.5-8.1C98.4,236.8,99.1,236.3,99.8,235.8z"/>
			<path class="st7" d="M103.2,208.3c-0.1,0.5-0.1,1-0.2,1.5c-0.1,0-0.1,0-0.2,0c-8,1-16.2,0.9-24.2-0.5c0.2-0.5,0.3-0.9,0.4-1.4
				C87.1,209.3,95.2,209.4,103.2,208.3z"/>
			<path class="st7" d="M97.9,254.5c-0.1,0.8-0.2,1.6-0.2,2.4c-0.5,0.5-1,1.1-1.5,1.6c-3.4,3.4-7.3,6.4-11.4,9
				c-2.1,1.3-4.3,2.5-6.5,3.6c-2.2,1-4.6,1.8-7.1,1.4c-2.2-0.4-4-1.7-4.9-3.7c-0.9-2.2-0.9-4.8-0.9-7.2c0-1,0-2,0-3v-0.2
				c0.6-2.7,1.3-5.4,2-8.1c-0.5,4.2-0.6,8.3-0.5,12.5c0.1,2.1,0,4.7,1.3,6.5c1.4,1.9,4,2.2,6.1,1.7c2.4-0.5,4.5-1.8,6.7-2.9
				c1.9-1.1,3.8-2.2,5.6-3.5C90.7,261.6,94.5,258.2,97.9,254.5L97.9,254.5z"/>
			<path class="st7" d="M95.3,284.2c-0.1,0.8-0.1,1.5-0.2,2.3c-5.2,5-11.5,8.9-17.8,12.3c-5,2.7-10,5.2-14.8,8.3
				c-2.4,1.5-4.7,3.1-6.8,4.9c-0.5,0.4-1,0.8-1.4,1.4c0.1-0.8,0.3-1.6,0.4-2.4c0.5-0.5,1.1-0.9,1.6-1.3c2.3-1.8,4.7-3.3,7.1-4.8
				c5-3,10.1-5.6,15.1-8.4C84.6,293.1,90.6,289.2,95.3,284.2L95.3,284.2z"/>
			<path class="st7" d="M81.3,306.6c4-3.3,8.4-6,13.1-7.9c0,0.5-0.1,1-0.1,1.6c-1.9,0.8-3.7,1.7-5.5,2.8c-5,3-9.1,7-13.6,10.6
				c-4.2,3.5-9,6.7-14.4,7.7c-2.3,0.4-4.9,0.6-7-0.4c-0.2-0.1-0.5-0.3-0.7-0.4c0.1-0.6,0.2-1.1,0.3-1.7c1.5,1.7,4.5,1.5,6.6,1.2
				c2.7-0.5,5.3-1.5,7.7-2.8C72.7,314.4,76.8,310.3,81.3,306.6L81.3,306.6z"/>
			<path class="st7" d="M121.7,295.3c-0.2,0.5-0.4,0.9-0.6,1.4c-6-0.9-12.2-0.6-18.2,0.7c-2.3,0.5-4.6,1.2-6.8,2.1
				c0.5-0.7,1-1.4,1.5-2c3.5-1.2,7.1-2,10.8-2.4C112.8,294.6,117.2,294.7,121.7,295.3L121.7,295.3z"/>
			<path class="st7" d="M109.8,315.5c-0.6,0.9-1.2,1.7-1.9,2.5c-0.4,0.2-0.7,0.4-1.1,0.6c-9.2,4.4-18.7,8.1-28.5,11
				c-5,1.5-10.1,2.8-15.2,3.8c-4.1,0.8-8.2,1.4-12.3,1.2c0.1-0.5,0.1-1,0.2-1.4c4.9,0.3,9.7-0.7,14.5-1.7
				C81,328.1,95.8,322.7,109.8,315.5L109.8,315.5z"/>
			<path class="st7" d="M116.6,282.4c2.7,2.1,5.9,2.9,9.2,3c-0.2,0.5-0.3,0.9-0.5,1.4c-3.8-0.2-7.4-1.2-10.3-3.8
				c-1.9-1.8-3.3-4.1-3.5-6.8c0-0.2,0-0.5,0-0.7c0.8-1.4,1.6-2.9,2.3-4.3c-0.6,1.5-1,3.1-0.9,4.7C113,278.5,114.6,280.8,116.6,282.4
				L116.6,282.4z"/>
			<path class="st7" d="M135,251.1c-0.1,0.6-0.2,1.2-0.3,1.8c-7,3.7-13.9,7.8-18.7,14.3c-0.4,0.5-0.7,1-1.1,1.6c1-2,2-4,3-6
				c2.8-2.8,6-5.2,9.3-7.3C129.7,254,132.4,252.5,135,251.1L135,251.1z"/>
			<path class="st7" d="M136.8,239.2c-0.1,0.7-0.2,1.4-0.3,2.1c-4.1,3.2-8.4,6.1-12.9,8.5c0.3-0.7,0.6-1.4,0.8-2.1
				c1.1-0.6,2.2-1.3,3.3-2C131,243.7,134,241.5,136.8,239.2L136.8,239.2z"/>
		</g>
		<g class="st6">
			<path class="st7" d="M139,210.4c-0.3,9.6-0.9,19.2-2.2,28.8c-0.1,0.7-0.2,1.4-0.3,2.1c-0.5,3.3-1,6.6-1.6,9.9
				c-0.1,0.6-0.2,1.2-0.3,1.8c-2.1,11-4.9,21.9-8.8,32.4c-0.2,0.5-0.3,0.9-0.5,1.4c-0.1,0.1-0.1,0.3-0.1,0.4
				c-1.1,2.8-2.2,5.6-3.5,8.2c-0.2,0.5-0.4,0.9-0.6,1.4c-3.2,6.7-7,12.9-11.2,18.8c-0.6,0.9-1.2,1.7-1.9,2.5
				c-4.2,5.6-8.8,11-13.8,16.1c-0.6,0.6-1.1,1.2-1.7,1.8c0,0.2,0,0.3,0,0.5c-0.1,2-0.2,3.9-0.2,5.9c0,0.8-0.1,1.5-0.1,2.3
				c-0.1,3.6-0.2,7.2-0.3,10.7c0,0.7,0,1.4-0.1,2.1c-0.3,11-0.4,22-0.5,33c0,0.9,0,1.8,0,2.6c0,6.5,0,12.9,0.1,19.4
				c0,0.8,0,1.6,0,2.3c0.1,7,0.3,14,0.5,21c0,0.5,0,1,0.1,1.6c0.2,6,0.4,12,0.7,18c0,0.6,0.1,1.2,0.1,1.8
				c0.5,11.9,1.2,23.7,2.1,35.4c0.1,0.5,0.1,1,0.1,1.5c0.6,7.6,1.2,15.2,1.9,22.7c0.1,0.5,0.1,1,0.1,1.4c0.3,3.1,0.6,6.1,0.9,9.1
				c0.1,0.5,0.1,1,0.2,1.4c0.4,3.6,0.8,7.2,1.2,10.7c0.1,0.5,0.1,1,0.2,1.5c0.7,5.8,1.4,11.4,2.2,17c0.1,0.5,0.2,1,0.2,1.5
				c0.7,4.8,1.4,9.5,2.1,14.2c-9.9,0-18.4,0.1-26.5,0.2c-6.5-123.7,0.6-248,20.9-370.2l5.6,0.9c-0.2,1.3-0.4,2.5-0.5,3.8
				c-0.1,0.5-0.1,1-0.2,1.5c-0.4,3.1-0.8,6.1-1.2,9.2c-0.1,0.5-0.1,1.1-0.2,1.6c-0.6,5-1.2,10-1.8,15.2c-0.1,0.6-0.2,1.3-0.2,1.9
				c-0.6,5.5-1.2,11.1-1.7,16.8c-0.1,0.8-0.2,1.6-0.2,2.4c-0.3,3-0.6,6-0.8,8.9c-0.1,0.8-0.2,1.7-0.2,2.5
				c-0.5,5.2-0.9,10.5-1.3,15.8c-0.1,0.8-0.1,1.5-0.2,2.3c-0.3,4.1-0.6,8.2-0.8,12.3c0,0.5-0.1,1-0.1,1.6c-0.1,0.6-0.1,1.2-0.1,1.9
				c0.7-0.9,1.3-1.7,1.9-2.6c0.5-0.7,1-1.4,1.5-2c5.1-7.1,9.7-14.4,13.9-22c0.8-1.4,1.6-2.9,2.3-4.3c0-0.1,0-0.1,0.1-0.1
				c0.4-0.7,0.7-1.4,1.1-2.1c0,0,0-0.1,0.1-0.1c1-2,2-4,3-6c2-4.3,4-8.6,5.7-13.1c0.3-0.7,0.6-1.4,0.8-2.1
				c4.7-12.1,8.4-24.6,11-37.4C136.7,210.3,137.9,210.3,139,210.4L139,210.4z"/>
		</g>
		<g class="st6">
			<path class="st7" d="M42.4,403.3c0.1-0.9,0.2-1.8,0.3-2.8c-1.9-4.2-3.6-8.5-5.3-12.8c-0.2-0.5-0.4-0.9-0.5-1.4
				c-0.8-2.2-1.6-4.4-2.3-6.6c-0.4-1.3-0.8-2.5-1.3-3.8c-6.9-21.6-10.7-44.1-11.3-66.7c0-1-0.1-2-0.1-3c-0.1-7.2,0.2-14.5,0.7-21.7
				c0.1-0.9,0.2-1.8,0.2-2.7c0.8-8.6,2-17.1,3.7-25.6c0.1-0.1,0.2-0.3,0.3-0.4c0.4-0.6,0.9-1.2,1.3-1.8c-0.1,0.7-0.3,1.3-0.4,2
				c-7.1,40.5-0.6,83.2,18.2,119.7C44.7,385.3,43.8,393.8,42.4,403.3z"/>
		</g>
		<path class="st8" d="M204.9,205.5c-9.9,4-21,5-31.4,2.6c4.7,0.9,7.5,6.8,5.4,11.1c-2.1,4.2-8.6,5.4-12.1,2.2
			c3.3,5.7,6.2,11.8,6.9,18.4c0.7,6.6-1.2,13.7-6.2,18c-5,4.4-13.3,5-18.1,0.5c-5.6,2.8-13.3-0.2-14.2-6.4c0.1,3.8-3.1,7.2-6.7,8.2
			c-3.7,1-7.7,0-11.1-1.8c-9-4.7-14.7-15.1-13.7-25.2c-2.7,4.5-7.7,7.6-13,7.8c-3.2,0.2-6.4-0.7-9.1-2.3c1.1,1.2,2.2,2.4,3,3.8
			c1.8,3.2,2.4,7.4,0.4,10.5c-2.5,3.9-7.7,4.7-12.3,5.1c-10.4,0.9-20.8,1.9-31.2,2.9c2.3,0.5,3.5,1.1,4.5,3.2c1,2.1,0.7,4.9-1.1,6.5
			c-0.4,0.4-1,0.6-1.5,0.8c6.1,3.1,10.5,9.7,10.4,16.6c0,8.5-6.8,16.6-15.3,18c1.5,2.9,2.3,5.5,0.7,8.3c-1.3,2.3-4.2,3.4-6.9,3.3
			c-2.7-0.1-5.2-1.1-7.7-2.2c1.6,2.7,1.7,6.2,0.3,9.1c-1.4,2.8-4.2,4.9-7.4,5.3c-5.8,0.8-11.2-4-13.1-9.6c-1.9-5.6-1-11.6,0-17.4
			c-8.8-0.4-17.3-6.2-20.7-14.3c-3.4-8.1-1.8-18.1,4-24.7c-10-1.5-21.4-3.9-26-12.9c-4-7.9-0.8-17.5,3.8-25c1.6-2.6,3.4-5.2,5.4-7.5
			c7.5-9.2,17.3-16.6,28.4-21.1c-9.7-9.6-9.7-27.2-0.1-36.8c-9.9-6.4-12.7-21.5-5.8-30.9c6.9-9.5,25.5-13.1,34.6-5.6
			c-2.1-5.7,0.3-12.7,5.5-15.9c5.2-3.2,12.5-2.2,16.7,2.2c-1-2.9,0-6.4,2.5-8.3c2.5-1.9,6.2-2,8.7-0.2c-2.1-9.4-2.1-20.6,5-27.1
			c5.1-4.7,13.2-5.8,19.3-2.5c6.1,3.3,9.7,10.6,8.6,17.4c2-5.4,9.6-7.7,14.3-4.3c5.7-5.1,11.6-10.4,18.9-13
			c7.2-2.6,16.2-1.9,21.4,3.7c4,4.4,4.3,11.9,0.8,16.3c2.1-1.4,4.5-2.5,6.9-3.2c2.6-0.9,5.3-1.3,8.1-1.4c9.6-0.3,20.2,5.8,21.5,15.3
			c0.8,5.8-1.9,11.7-6,16c-4,4.3-9.2,7.3-14.3,10.2c2.5,3,3.1,7.4,1.7,11.1c-0.1,0.2-0.2,0.4-0.3,0.6c-0.8,1.8-2.2,3.3-3.8,4.4
			c2.2-0.1,4.4,0.4,6.4,1.3c2.5,1.2,4.6,3.1,5.7,5.5c2.5,5.4,0.2,12.3-4.7,15.6c2.6-0.5,5.6,0.4,7.2,2.5c2.4,3.1,1.5,8.2-1.8,10.3
			c8.7,1.4,17.5,2.9,26.2,4.3c4.8,0.8,10.6,2.3,12.2,6.9C216.9,197.6,210.7,203.1,204.9,205.5z"/>
		<g>
			<path class="st9" d="M163.8,198.5c2.3,2.1,1.6,6.3-0.9,8.2c-2.5,1.9-6.1,1.7-8.9,0.3c-2.8-1.4-5-3.8-6.9-6.3
				c1.5,4.4-1.3,9.3-5.5,11.4c-1.1-2-2.9-3.9-4-5.9c-5.9,3.3-14.2,1.3-18-4.3c-2.2,3.5-7.6,4.2-10.8,1.8c3,3,3.6,8.1,1.3,11.7
				c-2.5,3.9-8.2,5.3-12.3,3.1c1.2,2,1,4.6-0.4,6.4c-2,7.6-12.4,11.5-18.9,7c-1,10.3-8.9,19.6-18.9,22.3c-10,2.7-21.5-1.5-27.5-9.9
				c-19.1,8.3-43.5,1.4-55.5-15.6c-2.3-3.2-4.1-6.8-5.7-10.4c7.5-9.2,17.3-16.6,28.4-21.1c-9.7-9.6-9.7-27.2-0.1-36.8
				c-9.9-6.4-12.7-21.5-5.8-30.9c6.9-9.5,25.5-13.1,34.6-5.6c-2.1-5.7,0.3-12.7,5.5-15.9c5.2-3.2,12.5-2.2,16.7,2.2
				c-1-2.9,0-6.4,2.5-8.3c2.5-1.9,6.2-2,8.7-0.2c-2.1-9.4-2.1-20.6,5-27.1c5.1-4.7,13.2-5.8,19.3-2.5c6.1,3.3,9.7,10.6,8.6,17.4
				c2-5.4,9.6-7.7,14.3-4.3c5.7-5.1,11.6-10.4,18.9-13c7.2-2.6,16.2-1.9,21.4,3.7c4,4.4,4.3,11.9,0.8,16.3c2.1-1.4,4.5-2.5,6.9-3.2
				c3.6,11.5,0.9,24.9-7,34c1.9,0.4,3.4,2.1,3.6,4.1c0.1,1.9-1.2,3.9-3,4.5c6.8-0.9,13.8,2.9,17.4,8.6c-0.1,0.2-0.2,0.4-0.3,0.6
				c-0.8,1.8-2.2,3.3-3.8,4.4c2.2-0.1,4.4,0.4,6.4,1.3c1.1,8.1-4.1,16.7-11.8,19.3c7,1.4,12.8,7.3,14.1,14.4
				C173.3,187.2,169.9,194.8,163.8,198.5z"/>
		</g>
		<path class="st10" d="M162.1,158.8c-2,2.4-5.1,3.6-8.2,4c-3.1,0.4-6.2,0-9.3-0.4c2.8,2.7,5.6,5.5,8.3,8.2c1.2,1.1,2.4,2.6,2.2,4.2
			c-0.3,2.2-2.8,3-5.1,3.3c4.3-0.2,8.5,2.5,10.1,6.4c1,2.4,0.9,5.4-0.7,7.5c-2.1,2.9-6.3,3.5-9.7,2.5c-3.4-1.1-6.2-3.5-8.9-5.8
			c0.5,3.3-1.2,7.4-3.2,10.1c-2,2.8-5,4.7-8.3,5.3c-2.9-1.2-5.3-3.2-6.7-6c-1.3-2.8-1.6-6.1-0.6-9.1c-3.1,4.6-8,7.7-13.4,8.8
			c-3.7-1.8-6.7-4.7-8.5-8.4c0,2.5-1.3,5-3.3,6.6c-2,1.5-4.8,2-7.2,1.3c3.1,1.6,6.3,3.3,8.5,6c2.2,2.7,3.2,6.7,1.5,9.7
			c-1.4,2.5-4.2,3.8-6.9,4.5c-2.7,0.7-5.6,1-8.2,2.2c2.2,0.8,2.1,4.4,0.5,6.1c-1.5,1.8-4.2,2.1-6.4,1.5c-2.2-0.7-4.1-2.1-5.9-3.6
			c-0.3,6.7-2.1,13.6-6.5,18.8c-4.4,5.2-11.5,8.2-18.1,6.6c-6.6-1.7-11.6-8.7-10-15.3c-2.5,1.5-5.3,3-8.2,2.7
			c-2.4-0.3-4.6-2.5-4.5-4.7c-0.9,2.6-3.2,4.6-5.8,5.5c-3.1,1.1-6.4,1.1-9.7,1.1c-5.7,0-11.7-0.1-16.7-3c-2.5-1.5-4.6-3.6-6.1-6.2
			c-1.6-2.8-2.4-6.1-2.2-9.4c0.3-4,2.2-7.9,5.1-10.7c1.5-1.5,3.4-2.8,5.4-3.6c-2.9,0.3-5.9-1.6-7-4.3c-1-2.7-0.1-6.1,2.2-7.9
			c-2.2,1.4-5.3,1.1-7.5-0.2c-2.3-1.3-3.9-3.6-4.9-6c-2.2-5.5-1.3-12.1,2.3-16.8c3.6-4.7,9.9-7.2,15.7-6.4c-3.7-5.3-3.3-13.1,0.9-18
			c2.5-2.9,6.2-4.6,10-5c0-2,0.1-4,0.5-5.9c1-5.2,3.9-10.3,8.6-12.7c4.7-2.3,11.4-1,13.9,3.7c-0.9-2.6,0.4-5.7,2.8-7
			c2.4-1.3,5.7-0.6,7.4,1.6c-1.4-6.1-1-12.9,2.1-18.4c3.1-5.5,9.3-9.4,15.5-8.8c6.3,0.7,11.8,6.7,11,12.9c0.2-2.2,1.8-4.2,3.9-5
			c2.1-0.8,4.6-0.3,6.2,1.2c2.3-4.2,5.5-8.1,9.8-10.2c4.3-2.1,9.8-2.3,13.7,0.5c3.9,2.8,5.6,8.7,2.9,12.7c6.7-8.6,17.2-14,28-14.7
			c1.8-0.1,3.7-0.1,5.5,0.3c2.6,0.5,5.1,1.5,6.9,3.4c2.9,3,3.6,7.5,3.3,11.6c-0.7,8.6-5.7,16.7-13,21.3c1.2-0.4,2.5-0.4,3.6-0.1
			c1.9,0.7,3.4,2.7,3.1,4.7c-0.2,1.8-1.9,3.2-3.6,3.3c4.3,0.4,8.6,0.8,12.7,2.1c1,0.3,2,0.8,3,1.2c3.1,1.6,5.9,3.8,7.7,6.8
			C164.9,149.9,165,155.3,162.1,158.8z"/>
		<g>
			<path class="st11" d="M140,98.4c-0.8,3.6-3.4,6.8-6.6,8.7c-3.2,1.9-7,2.8-10.7,3c2.1,0.7,2.2,4,0.5,5.6c-1.6,1.5-4.1,1.8-6.3,1.8
				c-2.2,0.1-4.6,0.1-6.5,1.3c3.8,1.3,6.6,5,6.9,9c0.2,4-2.1,8-5.7,9.7c-3.6,1.7-8.2,1.1-11.2-1.6c0,1.5-0.8,3.4-2.2,4
				c-1.4,0.5-3.1,0.1-4.1-1c2,8-0.2,17-5.8,23.2c-2.5-5.4-3.1-12-1.3-17.6c-3.7,4-8.9,6.5-14.3,7c-0.1-4.5,1.8-9.4,5.5-12
				c-3.2,1.4-7.2,0.7-9.8-1.7c0.4,5-3.6,9.6-8.4,11.5c-4.7,1.9-10,1.6-15,1.4c3,1.8,6.1,3.6,8.3,6.3c2.2,2.7,3.5,6.4,2.3,9.7
				c-1.5,4.2-6.3,6.2-10.6,7.3c1.3-0.3,2.6-0.5,3.9-0.3c1.3,0.2,2.6,0.9,3.2,2.1c0.7,1.6-0.2,3.5-1.5,4.6c-0.7,0.6-1.6,1-2.5,1.3
				c1.7-0.2,3.4,0.3,4.8,1.2c2,1.4,3.3,3.9,3.2,6.4c-0.2,3.2-2.5,5.9-4.9,8c-4.2,3.6-9.3,6.2-14.7,7.4c4,1.3,7.7,3.8,10.9,6.6
				c-4.1,3.3-9.7,4.7-14.8,3.2c0.9,3.4,0.3,7.2-1.6,10.1c-2.1-3.2-5.2-6.1-7.3-9.2c-3.4,0.9-7.3-0.9-8.8-4c0.7,7.7-4.6,15.2-11.8,18
				c-5,2-10.6,1.9-15.8,0.4c-1.6-2.8-2.4-6.1-2.2-9.4c0.3-4,2.2-7.9,5.1-10.7c1.5-1.5,3.4-2.8,5.4-3.6c-2.9,0.3-5.9-1.6-7-4.3
				c-1-2.7-0.1-6.1,2.2-7.9c-2.2,1.4-5.3,1.1-7.5-0.2c-2.3-1.3-3.9-3.6-4.9-6c-2.2-5.5-1.3-12.1,2.3-16.8c3.6-4.7,9.9-7.2,15.7-6.4
				c-3.7-5.3-3.3-13.1,0.9-18c2.5-2.9,6.2-4.6,10-5c0-2,0.1-4,0.5-5.9c1-5.2,3.9-10.3,8.6-12.7c4.7-2.3,11.4-1,13.9,3.7
				c-0.9-2.6,0.4-5.7,2.8-7c2.4-1.3,5.7-0.6,7.4,1.6c-1.4-6.1-1-12.9,2.1-18.4c3.1-5.5,9.3-9.4,15.5-8.8c6.3,0.7,11.8,6.7,11,12.9
				c0.2-2.2,1.8-4.2,3.9-5c2.1-0.8,4.6-0.3,6.2,1.2c2.3-4.2,5.5-8.1,9.8-10.2c4.3-2.1,9.8-2.3,13.7,0.5c3.9,2.8,5.6,8.7,2.9,12.7
				c6.7-8.6,17.2-14,28-14.7c1.8-0.1,3.7-0.1,5.5,0.3C140.1,93.6,140.5,96.1,140,98.4z"/>
		</g>
		<path class="st1" d="M609.6,534.2c-14.4-51.2-15.8-104.2-2-155.5c-1.3,0-2.4,0.1-3.7,0.1c-7.1,15.4-11,32-12,48.5
			c-0.5-14.4-1.6-28.8-3.8-43.1c-1.1,0.1-2.3,0.2-3.4,0.4c2.1,49.1,1.1,98.4-3.1,147.4L609.6,534.2L609.6,534.2z"/>
		<path class="st4" d="M660.7,387.4c-0.1,4.3-1.8,9.1-5.7,10.9c-4.1,1.8-8.7-0.2-12.7-2.2c-1,2.1-3.1,3.7-5.4,3.9
			c-2.3,0.3-4.7-0.8-6.2-2.6c3.4,4.5,2.4,11.6-2.1,15c-4.5,3.4-11.6,2.4-15-2c-3.4-4.4-2.9-10.5-2-15.9c-2,1.8-5.3,1.7-7.5,0.2
			c-2.2-1.6-3.4-4.2-3.8-6.9c-0.4-2.7,0-5.4,0.4-8.1c-0.6,3.5-3.5,6.4-6.9,7.5c-0.1,2.5-1.3,4.9-3.4,6.3c-2.6,1.8-6.2,1.9-8.9,0.3
			c1.7,3.5-1.6,8.2-5.5,7.9c4.4,3.2,6.1,9.6,4,14.6c-2.1,5-7.8,8.3-13.2,7.5c-5.4-0.8-9.9-5.5-10.5-10.9c-0.6,2.3-3,3.9-5.4,3.7
			c-2.3-0.2-4.4-2.3-4.6-4.6c-5.3,4.5-14.3,1.3-17.3-4.9c-3-6.2-0.9-13.9,3.4-19.4c4.3-5.4,10.4-9.1,16.3-12.6
			c-2.9-1-4.8-4.3-4.3-7.4c-7.8-4.3-12-14.4-9.5-23c0.5-1.8,1.3-3.4,2.3-5c3.9-5.9,11-9.7,18.1-9.2c-2.6-5-1-11.7,3.5-15.1
			c-2.9-7.2-4.8-14.9-3.9-22.6c0.9-7.7,4.8-15.2,11.5-19.2c6.6-4,16-3.6,21.4,1.9c-3.2-3.8-2.1-10.1,1.6-13.3s9.4-3.6,14-1.8
			c4.6,1.8,8.3,5.5,11,9.6c7.8,11.5,9.1,27.1,3.4,39.8c1.6-2.6,5.5-3.4,8-1.7c2.5,1.7,3.3,5.6,1.5,8c6.7-3,15.1-1.6,20.4,3.3
			c2,1.8,3.5,4.1,4.5,6.6c1.7,4.3,2,9.1,0.4,13.4c-2.4,6.9-9.2,12-16.5,12.4c1.9,1.8,5.1,1.8,7.6,2.3c2.5,0.5,5.4,2.1,5.5,4.7
			c0.1,1.9-1.5,3.6-3.2,4.3c-1.8,0.7-3.8,0.6-5.7,0.5c5.6,0.9,10.8,3.8,14.4,8.1C658.8,376.1,660.8,381.8,660.7,387.4L660.7,387.4z"
			/>
		<g>
			<path class="st5" d="M660.7,387.4c-0.1,4.3-1.8,9.1-5.7,10.9c-4.1,1.8-8.7-0.2-12.7-2.2c-1,2.1-3.1,3.7-5.4,3.9
				c-2.3,0.3-4.7-0.8-6.2-2.6c3.4,4.5,2.4,11.6-2.1,15c-4.5,3.4-11.6,2.4-15-2c-3.4-4.4-2.9-10.5-2-15.9c-2,1.8-5.3,1.7-7.5,0.2
				c-2.2-1.6-3.4-4.2-3.8-6.9c-0.4-2.7,0-5.4,0.4-8.1c-0.6,3.5-3.5,6.4-6.9,7.5c-0.1,2.5-1.3,4.9-3.4,6.3c-2.6,1.8-6.2,1.9-8.9,0.3
				c1.7,3.5-1.6,8.2-5.5,7.9c4.4,3.2,6.1,9.6,4,14.6c-2.1,5-7.8,8.3-13.2,7.5c-5.4-0.8-9.9-5.5-10.5-10.9c-0.6,2.3-3,3.9-5.4,3.7
				c-2.3-0.2-4.4-2.3-4.6-4.6c-5.3,4.5-14.3,1.3-17.3-4.9c-3-6.2-0.9-13.9,3.4-19.4c4.3-5.4,10.4-9.1,16.3-12.6
				c-2.9-1-4.8-4.3-4.3-7.4c-7.8-4.3-12-14.4-9.5-23c0.5-1.8,1.3-3.4,2.3-5c-0.7,3.3-0.2,6.9,1.6,9.8c2.7,4.5,8.3,7.2,13.5,6.5
				c-0.7,1.3-0.5,3.1,0.5,4.2c1,1.1,2.8,1.4,4.1,0.7c-1.4,4.2-0.7,9,1.8,12.6c1.7,2.4,4.5,4.4,7.5,4c2.3-0.3,4.2-2.1,5.3-4.2
				s1.5-4.5,1.9-6.8c-2.5,0-4.7-1.2-6.1-3.2c2.1-1.6,4.9-2.3,7.3-1.3c0.6-3.1,2.3-6.1,4.6-8.3c2,3.4,2.2,8,0.3,11.5
				c0.2,0.6,0.9,1.1,1.5,1.1c0.5-0.4,1.8-0.7,2.3-1.1c1,2.8,3.9,4.3,6.7,5c2.9,0.8,6.1,0,8.4-1.9c2.3-2,3.5-5,3.1-8
				c-2.4-1.3-4.3-3.3-5.5-5.8c3.5-0.3,7.1,1.3,8.9,4.3c-1.1,1-0.6,3.5,0.5,4.4c1.2,0.9,3.2,0.5,3.9-0.8c1.3,1.9,3.6,3.2,5.9,2.9
				c2.6-0.4,4.6-2.6,5.2-5.2c0.6-2.5-0.1-5.2-1.4-7.5c-1.3-2.3-3.1-4.2-4.8-6.1c1.5,1.1,3.7,1.1,5.2,0.1c1.6-1,2.4-3,2-4.8
				c5.4,4.3,12.7,7.4,19.3,5.1c6-2.1,9.8-8.2,11-14.4c0.4-2,0.5-4.1,0.5-6.1c1.7,4.3,2,9.1,0.4,13.4c-2.4,6.9-9.2,12-16.5,12.4
				c1.9,1.8,5.1,1.8,7.6,2.3c2.5,0.5,5.4,2.1,5.5,4.7c0.1,1.9-1.5,3.6-3.2,4.3c-1.8,0.7-3.8,0.6-5.7,0.5c5.6,0.9,10.8,3.8,14.4,8.1
				C658.8,376.2,660.8,381.8,660.7,387.4L660.7,387.4z"/>
		</g>
		<path class="st1" d="M695.9,520.9c-12.8-36.9-14-75.1-1.8-112.1c-1.2,0-2.1,0.1-3.3,0.1c-6.3,11.1-9.8,23.1-10.6,35
			c-0.4-10.4-1.5-20.8-3.4-31.1c-1,0.1-2,0.2-3.1,0.3c1.9,35.4,1,70.9-2.7,106.3L695.9,520.9L695.9,520.9z"/>
		<path class="st10" d="M725.8,402.6c-2-0.4-3.9-1.5-5.7-2.5c0.7,0.4,0.9,1.3,1.4,1.9c0.5,0.6,0.6,1.5,0.2,2.1
			c-0.3,0.4-0.9,0.6-1.4,0.5c2.3,1.6,4.6,3.4,6.4,5.5c2,2.3,3.5,5.1,3.8,8.1c0.3,3-0.8,6.3-3.2,8.1c-2.2,1.7-5.2,2.1-7.9,1.3
			c-2.6-0.8-4.9-2.6-6.4-4.9c-0.2,1.7-2.2,2.6-3.9,2.3c-1.7-0.3-3-1.4-4.3-2.5c0.4,2.9-0.8,5.8-2.9,7.9c-2.1,2-4.8,3.2-7.7,3.8
			c-2.2,0.5-4.5,0.6-6.7,0c-2.8-0.8-5.1-3-6.1-5.7c-0.7-2-0.7-4.2-0.1-6.1c-0.9-0.5-1.6-1.2-1.9-2.2c-0.5,1.9-3.1,3-4.8,1.9
			c0.5,4.7-0.3,9.5-2.2,13.8c-0.8,1.8-2,3.6-3.7,4.7c-1.7,1.1-4.1,1.2-5.6-0.1c-1,1.7-3.5,2.3-5.2,1.2c1,1.8-0.3,4.3-2.3,4.9
			c-2,0.6-4.2-0.2-5.7-1.7c-1.7-1.7-2.6-4.1-2.7-6.5c-0.1-2.4,0.5-4.8,1.5-7c-2.7,1.7-6.9,1.6-9.2-0.6c-0.7-0.6-1.2-1.4-1.3-2.3
			c-0.1-0.9,0.4-1.9,1.3-2.1c-3.5-0.8-6.1-4.2-6.6-7.7s0.8-7.2,2.9-10.1c2.2-2.9,5.1-5.1,8.2-6.9c-7.9-4.2-14-12.2-15.3-21
			c0-0.1,0-0.1,0-0.2c-1.3-8.9,1.9-18.4,8.4-24.7c2.6-2.5,5.8-4.6,9.3-5.1c3.6-0.6,7.4,0.5,10.6,2.3c3.2,1.9,5.9,4.5,8.3,7.2
			c-0.3-1.8,2-3,3.7-2.5c1.7,0.5,2.8,2.1,3.8,3.6c0.1-3.6,3.7-6.7,7.2-6.3s6.4,4.2,5.6,7.7c1.2-1.8,4.1-1.6,5.1,0.3
			c1-4.1,3.8-7.8,7.5-9.8c3.7-2,8.3-2.4,12.3-1c2,0.7,3.9,1.9,5.2,3.5c1.9,2.3,2.5,5.5,2.2,8.5c-0.3,3-1.5,5.8-3,8.5
			c1.9-0.1,3.9-0.2,5.7,0.4c0.5,0.2,0.9,0.4,1.3,0.6c1.2,0.8,2.2,2,2.4,3.4c0.2,1.4-0.4,2.8-1.3,3.8c-0.9,1.1-2.1,1.9-3.2,2.7
			c6.1,0.2,11.8,5.1,12.9,11.1c0.4,2.2,0.2,4.8-1.4,6.4C730.1,402.8,727.8,403.1,725.8,402.6L725.8,402.6z"/>
		<g>
			<path class="st11" d="M725.8,402.6c-2-0.4-3.9-1.5-5.7-2.5c0.7,0.4,0.9,1.3,1.4,1.9c0.5,0.6,0.6,1.5,0.2,2.1
				c-0.3,0.4-0.9,0.6-1.4,0.5c2.3,1.6,4.6,3.4,6.4,5.5c2,2.3,3.5,5.1,3.8,8.1c0.3,3-0.8,6.3-3.2,8.1c-2.2,1.7-5.2,2.1-7.9,1.3
				c-2.6-0.8-4.9-2.6-6.4-4.9c-0.2,1.7-2.2,2.6-3.9,2.3c-1.7-0.3-3-1.4-4.3-2.5c0.4,2.9-0.8,5.8-2.9,7.9c-2.1,2-4.8,3.2-7.7,3.8
				c-2.2,0.5-4.5,0.6-6.7,0c-2.8-0.8-5.1-3-6.1-5.7c-0.7-2-0.7-4.2-0.1-6.1c-0.9-0.5-1.6-1.2-1.9-2.2c-0.5,1.9-3.1,3-4.8,1.9
				c0.5,4.7-0.3,9.5-2.2,13.8c-0.8,1.8-2,3.6-3.7,4.7c-1.7,1.1-4.1,1.2-5.6-0.1c-1,1.7-3.5,2.3-5.2,1.2c1,1.8-0.3,4.3-2.3,4.9
				c-2,0.6-4.2-0.2-5.7-1.7c-1.7-1.7-2.6-4.1-2.7-6.5c-0.1-2.4,0.5-4.8,1.5-7c-2.7,1.7-6.9,1.6-9.2-0.6c-0.7-0.6-1.2-1.4-1.3-2.3
				c-0.1-0.9,0.4-1.9,1.3-2.1c-3.5-0.8-6.1-4.2-6.6-7.7c-0.5-3.6,0.8-7.2,2.9-10.1c2.2-2.9,5.1-5.1,8.2-6.9
				c-7.9-4.2-14-12.2-15.3-21c0.1,0.2,0.2,0.4,0.3,0.6c2,3.9,5.1,7.2,9,9.1c3.9,1.9,8.7,2.1,12.6,0.3c-0.5,0.9-0.4,2.1,0.2,2.9
				c0.6,0.8,1.7,1.2,2.7,0.9c-1.3,1.7-2.6,3.4-3.5,5.2c-0.9,1.9-1.6,4-1.4,6.1c0.2,2.1,1.2,4.2,3,5.3c1.8,1.1,4.3,1.1,5.9-0.4
				c-0.3,1.6,1.4,3.3,3,3.6c1.6,0.3,3.2-0.7,4-2.1c0.8-1.4,0.8-3.2,0.2-4.7c0.7,1,2.4,1.2,3.5,0.5c1.1-0.7,1.7-1.9,1.9-3.2
				c0.2-1.3-0.1-2.5-0.3-3.8c-1,0.3-2.1-0.4-2.9-1.1c-0.8-0.7-1.3-1.7-1.7-2.6c-0.6-1.4-1.1-2.9-1.4-4.4c2.6,0.6,5.1,2.1,6.5,4.4
				c0.4-2.9,2.3-5.5,4.9-6.7c1.4,2.5,1,5.7-0.8,7.9c-0.7,0.8,0.3,2.4,1.3,2.9c1,0.4,2.3-0.1,2.7-1.1c0.1,2.3,1.2,4.5,2.7,6.2
				c1.5,1.7,3.5,3,5.5,4.1c2,1.1,4.3,2,6.6,1.9c2.2-0.1,4.3-1.1,5.7-2.8c1.4-1.7,2.1-4,1.8-6.1c1.2,0.8,3.4,0,4.1-1.2
				c0.7-1.2,0.2-3.1-1.1-3.7c2.1,0.9,4.8-0.4,5.8-2.5c1-2.1,0.7-4.6-0.3-6.7c-1-2.1-2.6-3.8-4.2-5.5c0.8,0.3,1.5,0.5,2.3,0.8
				c0.1-0.9,0.2-1.8,0.2-2.7c1.8,1.9,4.7,2.7,7.3,2.1c2.6-0.6,4.8-2.5,6-4.8c0.8-1.6,1.2-3.4,1.2-5.2c1.2,0.8,2.2,2,2.4,3.4
				c0.2,1.4-0.4,2.8-1.3,3.8c-0.9,1.1-2.1,1.9-3.2,2.7c6.1,0.2,11.8,5.1,12.9,11.1c0.4,2.2,0.2,4.8-1.4,6.4
				C730.2,402.7,727.8,403.1,725.8,402.6L725.8,402.6z"/>
		</g>
		<g>
			<defs>
				<rect id="SVGID_00000129204695611658628670000008353628505015976078_" x="286.2" y="169.3" width="223" height="280"/>
			</defs>
			<clipPath id="SVGID_00000139269691799473163070000000293436940929681083_">
				<use xlink:href="#SVGID_00000129204695611658628670000008353628505015976078_"  style="overflow:visible;"/>
			</clipPath>
			<g style="clip-path:url(#SVGID_00000139269691799473163070000000293436940929681083_);">
				<path class="st1" d="M377.1,449.3c-9.2-40.2-10.1-81.7-1.3-122c-0.9,0-1.5,0.1-2.4,0.1c-4.6,12.1-7.1,25.1-7.6,38.1
					c-0.3-11.3-1.1-22.6-2.4-33.8c-0.7,0.1-1.5,0.2-2.2,0.3c1.4,38.6,0.7,77.2-2,115.7L377.1,449.3z"/>
				<path class="st2" d="M431.7,270.2c5-0.1,10,2.6,12.4,7c2.8,5.1,1.9,11.9-2.2,16.1c-4,4.1-10.9,5.3-16,2.6
					c8.7,7.4,14.3,18.5,15.2,29.9c0.5,6-0.4,12.3-3.9,17.2c-5,6.9-14.3,9.4-22.8,8.5c-8.5-0.9-16.3-4.8-23.9-8.6
					c-0.6,3-3.7,5.3-6.7,4.9c-2.4-0.3-4.5-2.2-5.2-4.5c0.2,4.9-3.7,9.8-8.6,11c-5.5,1.4-11.5-1.3-15.1-5.7s-4.9-10.3-4.8-16
					c-0.6,2.9-3.5,5.2-6.4,5.1c-3-0.1-6.5-2.4-7-5.4c-0.1,6.1-5.4,11.6-11.4,11.9c-6,0.3-11.9-4.5-12.7-10.5c-1.9,1.7-5.1,1.7-7,0
					c-1.9-1.7-2.3-4.9-0.9-7c-6.2,2.5-13.9-1-16.9-7c-3-6-1.5-13.7,2.7-18.9c4.2-5.2,10.9-8.1,17.6-8.7c-2-5.7,1.8-12.7,7.7-14.3
					c-5.9-1.9-12.5-4.5-14.9-10.2c-2.4-5.9,1.1-12.7,6.4-16.4c0.6-0.4,1.1-0.7,1.7-1.1c6.2-3.3,13.6-3.3,20.6-3.3
					c-2.5-4.1-1.4-9.9,2.3-12.8c-8.9-3.8-13.1-15.8-8.5-24.3c4.6-8.5,16.9-11.6,25-6.3c-0.7-2.8,0.7-6,3.3-7.3
					c2.6-1.3,6-0.6,7.8,1.7c-1.8-5.1-2.5-10.7-1.1-16c1.4-5.2,5.2-10,10.2-11.9c3.9-1.5,8.6-0.9,12,1.4c8.9-2.8,19.4-0.2,25.5,6.9
					c7.4,8.5,7.4,22.5,0,31c5.2-0.7,10.8,2.5,12.7,7.4c1.8,4.7,0.3,10.5-3.7,13.7c5.1-3.7,11.7-4.9,17.8-3.7
					c2.7,0.5,5.2,1.6,7.5,3.1c7.7,5.1,11.5,15.4,9.1,24.3C447.4,262.4,440.1,268.8,431.7,270.2L431.7,270.2z"/>
				<g>
					<path class="st3" d="M431.7,270.2c5-0.1,10,2.6,12.4,7c2.8,5.1,1.9,11.9-2.2,16.1c-4,4.1-10.9,5.3-16,2.6
						c8.7,7.4,14.3,18.5,15.2,29.9c0.5,6-0.4,12.3-3.9,17.2c-5,6.9-14.3,9.4-22.8,8.5c-8.5-0.9-16.3-4.8-23.9-8.6
						c-0.6,3-3.7,5.3-6.7,4.9c-2.4-0.3-4.5-2.2-5.2-4.5c0.2,4.9-3.7,9.8-8.6,11c-5.5,1.4-11.5-1.3-15.1-5.7s-4.9-10.3-4.8-16
						c-0.6,2.9-3.5,5.2-6.4,5.1c-3-0.1-6.5-2.4-7-5.4c-0.1,6.1-5.4,11.6-11.4,11.9c-6,0.3-11.9-4.5-12.7-10.5c-1.9,1.7-5.1,1.7-7,0
						c-1.9-1.7-2.3-4.9-0.9-7c-6.2,2.5-13.9-1-16.9-7c-3-6-1.5-13.7,2.7-18.9c4.2-5.2,10.9-8.1,17.6-8.7c-2-5.7,1.8-12.7,7.7-14.3
						c-5.9-1.9-12.5-4.5-14.9-10.2c-2.4-5.9,1.1-12.7,6.4-16.4c-0.5,3.4,0.3,7.1,2.4,9.8c4,5.1,11.7,6.6,17.8,4.3
						c-1.3,1.7-1.6,4.2-0.7,6.2c0.9,2,3,3.4,5.2,3.5c-6.1,2.6-9.2,10.6-6.6,16.7c2.6,6.1,10.5,9.3,16.6,6.7
						c-2.1-2.5-2.6-6.5-1.6-9.6c3.2,1.8,5.7,5.1,6.4,8.7c1.3-4,4.3-7.5,8.1-9.3c0.9,3.7-0.4,7.9-3.2,10.4c1.4,3.7,5.2,6.4,9.2,6.3
						c4-0.1,7.8-2.9,9.1-6.6c1.8,1.8,4.5,3.2,6.9,2.2c1.8-0.7,2.8-2.6,3.5-4.5c1.7-4.6,1.9-9.7,0.6-14.4c3.4,2.2,7.2,3.5,11.2,3.5
						c1.3,0,2.9-0.2,3.7-1.3c0.6-0.8,0.6-1.9,0.4-2.8c-0.3-0.9-0.8-1.8-1.4-2.6c2.3,2.2,6.3,2.2,8.6,0c1.8-1.8,2.4-4.4,2.4-6.9
						c0-5.4-2.2-10.9-6.1-14.7c2,2,5.8,1.4,8.4,0.2s4.2-4.3,3.8-7.1c1.9,4.4,8.2,5.5,12.4,3.1c4.2-2.4,6.4-7.1,7.7-11.8
						c1.2-4.7,1.6-9.7,1.2-14.6c2.7,0.5,5.2,1.6,7.5,3.1c7.7,5.1,11.5,15.4,9.1,24.3C447.4,262.4,440,268.8,431.7,270.2L431.7,270.2
						z"/>
				</g>
				<path class="st1" d="M456.5,436.6c-6.6-28.8-7.2-58.5-0.9-87.3c-0.6,0-1.1,0.1-1.7,0c-3.3,8.7-5.1,18-5.5,27.2
					c-0.2-8.1-0.8-16.2-1.8-24.2c-0.5,0.1-1.1,0.1-1.6,0.2c1,27.6,0.5,55.2-1.4,82.8L456.5,436.6L456.5,436.6z"/>
				<path class="st13" d="M507,321.6c-2.1,2.9-5.7,4.6-9.2,5.1c-3.6,0.6-7.2,0.2-10.8-0.2c1.3,2.9,0.7,6.6-1.5,8.9
					c-2.2,2.3-5.4,3.1-8.4,2c1.3,2.5,2.6,5,3.2,7.7c0.5,2.7,0.2,5.8-1.6,8c-1.7,2.1-4.5,3.1-7.2,2.8c-2.7-0.3-5.2-1.7-7-3.7
					c1,2.1-0.5,4.7-2.7,5.5c-2.2,0.8-4.7,0-6.5-1.3c-1.8-1.4-3.2-3.3-4.5-5.2c1,3.4-1.7,7.2-5.2,8c-3.5,0.8-7.2-0.9-9.5-3.6
					c-2.4-2.7-3.5-6.2-4.2-9.7c-1.2,0.4-2.6-0.1-3.5-1c-0.8-1-1-2.4-0.4-3.6c-2.9,2.2-6.6,3.6-10.3,3.3c-3.7-0.4-7.2-2.7-8.5-6.1
					c-1.3-3.4,0-7.8,3.2-9.6c-1.7,0.2-3.3-2.2-2.5-3.8c-4.3,1.3-9.5-0.5-12.1-4.2c-2.6-3.7-2.5-9.1,0.2-12.8
					c2.7-3.6,7.9-5.3,12.2-3.8c-2.8-2.7-5.3-5.9-6.6-9.6c-1.2-3.7-1.2-8,0.8-11.4c0.2-0.3,0.3-0.6,0.5-0.8c2.1-2.9,5.8-4.7,9.3-4.1
					c-0.7-1.6-0.6-3.5,0.5-4.9c1-1.4,3-2,4.7-1.8c-2.8-2.8-2.8-8,0.1-10.8c2.8-2.8,8-2.7,10.7,0.1c-1.3-1.7,0.2-4.4,2.3-4.9
					c2.1-0.5,4.2,0.7,5.7,2.2c1.2-4.7,2.5-9.4,5.2-13.4c2.7-4,7-7.2,11.8-7.1c4.1,0,8,2.6,9.8,6.2c1.8,3.7,1.2,8.3-1.3,11.5
					c4-2,9.1-3.2,12,0.4c2.8,3.5,2.8,9-0.1,12.5c2.6-1.7,6.1-1.2,8.5,0.7c0,0,0,0,0.1,0.1c2.3,1.9,3.6,4.9,3.8,7.9
					c0.3,3-0.4,6.1-1.3,9c2.6-0.2,5.1,1.6,5.9,4c0.7,2.5-0.6,5.4-2.8,6.5c4.6-0.5,9.4,1,13,4c3.6,3,5.9,7.4,6.2,12
					C509.4,315.9,508.8,319.1,507,321.6L507,321.6z"/>
				<g>
					<path class="st14" d="M507,321.6c-2.1,2.9-5.7,4.6-9.2,5.1c-3.6,0.6-7.2,0.2-10.8-0.2c1.3,2.9,0.7,6.6-1.5,8.9
						c-2.2,2.3-5.4,3.1-8.4,2c1.3,2.5,2.6,5,3.2,7.7c0.5,2.7,0.2,5.8-1.6,8c-1.7,2.1-4.5,3.1-7.2,2.8c-2.7-0.3-5.2-1.7-7-3.7
						c1,2.1-0.5,4.7-2.7,5.5c-2.2,0.8-4.7,0-6.5-1.3c-1.8-1.4-3.2-3.3-4.5-5.2c1,3.4-1.7,7.2-5.2,8c-3.5,0.8-7.2-0.9-9.5-3.6
						c-2.4-2.7-3.5-6.2-4.2-9.7c-1.2,0.4-2.6-0.1-3.5-1c-0.8-1-1-2.4-0.4-3.6c-2.9,2.2-6.6,3.6-10.3,3.3c-3.7-0.4-7.2-2.7-8.5-6.1
						c-1.3-3.4,0-7.8,3.2-9.6c-1.7,0.2-3.3-2.2-2.5-3.8c-4.3,1.3-9.5-0.5-12.1-4.2c-2.6-3.7-2.5-9.1,0.2-12.8
						c2.7-3.6,7.9-5.3,12.2-3.8c-2.8-2.7-5.3-5.9-6.6-9.6c-1.2-3.7-1.2-8,0.8-11.4c0.2-0.3,0.3-0.6,0.5-0.8c-0.3,1.5-0.1,3,0.5,4.4
						c1.3,2.8,4.1,4.6,7.1,5.2c3,0.7,6.1,0.3,9.1-0.3c-1.7,1-2.6,3.3-2.1,5.2c0.5,2,2.4,3.4,4.5,3.5c-2.8,2.8-5.7,5.7-7.2,9.3
						c-1.5,3.6-1.4,8.3,1.3,11.1c2,2.1,5.3,2.9,8.1,2.3c2.9-0.6,5.4-2.5,7.1-5c0.3,1.5,0.6,3.1,0.9,4.6c0.6-0.4,1.2-0.8,1.8-1.2
						c-0.3,2.4,1.6,4.8,3.9,5.5c2.4,0.7,5-0.3,6.7-2c1.7-1.8,2.5-4.2,2.6-6.7c0.1-2.4-0.6-4.9-1.5-7.1c1.2,1.2,3.6,1.1,4.9,0
						c1.3-1.1,1.7-3.2,0.9-4.7c2.9,2.3,7.5,2.3,10.4,0c3-2.3,4-6.7,2.5-10.1c1,1.9,3.5,2.3,5.4,1.3c0.7-0.4,1.3-1,1.5-1.8
						c0.1-0.5-0.1-1.1-0.4-1.5c0.9,0.3,1.9,0.2,2.7-0.3c1-0.7,1.6-1.8,2-3c0.7-2.4,0.4-5-0.8-7.1c-1.1-1.9-2.8-3.4-4.8-4.2
						c1.9,0.5,4.1-0.1,5.9-1c3.6-2,6-5.8,6.5-9.9c2.3,1.9,3.6,4.9,3.8,7.9c0.3,3-0.4,6.1-1.3,9c2.6-0.2,5.1,1.6,5.9,4
						c0.7,2.5-0.6,5.4-2.8,6.5c4.6-0.5,9.4,1,13,4c3.6,3,5.9,7.4,6.2,12C509.4,315.8,508.8,319,507,321.6L507,321.6z"/>
				</g>
			</g>
		</g>
	</g>
</g>
<g>
	<path class="st15" d="M1088.7,433.8c-5.9-2.1-12.8-1.4-18.2,1.8c-5.4,3.2-9.3,8.9-10.3,15.1c-4.5-4.8-12.1-6.5-18.2-4.2
		c-6.2,2.2-10.7,8.4-11.1,14.9c6.4,7.2,15.1,11.8,24.6,13.3c9.4,1.6,19.1,1,28.7,0.4c4.1-0.3,8.5-0.6,11.9-2.9
		c4.2-2.9,6-8.2,6.3-13.3C1102.9,448.3,1098.7,437.4,1088.7,433.8L1088.7,433.8z"/>
	<g>
		<path class="st16" d="M1088.7,443.8c-5.9-2.1-12.8-1.4-18.2,1.8c-5.4,3.2-9.3,8.9-10.3,15.1c-4.5-4.8-12.1-6.5-18.2-4.2
			c-6.2,2.2-10.7,8.4-11.1,14.9c6.4,7.2,15.1,11.8,24.6,13.3c9.4,1.6,19.1,1,28.7,0.4c4.1-0.3,8.5-0.6,11.9-2.9
			c4.2-2.9,6-8.2,6.3-13.3C1102.9,458.2,1098.7,447.3,1088.7,443.8L1088.7,443.8z"/>
	</g>
	<path class="st17" d="M1393.2,411.2c0,0-49.8-36.9-32.9-106.8C1360.3,304.4,1414.3,345.6,1393.2,411.2z"/>
	<path class="st18" d="M1391.3,381.7c0.5-4.6,1-9.3,1.3-13.9c-1,4.6-1.7,9.2-2.5,13.8c-0.6,3.9-1.2,7.8-1.7,11.8
		c-1.1-4-2.3-7.9-3.4-11.9l-1.1-3.5v-0.1c0.3-2.4,0.5-4.8,0.8-7.2l0.7-7.2c0.4-4.8,0.8-9.6,1.1-14.4c-0.8,4.8-1.5,9.5-2.2,14.3
		l-0.9,7.2c-0.2,1.4-0.3,2.8-0.5,4.2l-4.5-15l-1-3.1c0.3-3.8,0.6-7.6,0.8-11.4c0.2-3.8,0.4-7.6,0.4-11.5c-0.6,3.8-1,7.6-1.5,11.4
		c-0.3,2.7-0.5,5.4-0.8,8.1l-4.7-14.7v-0.4c0-2.6,0-5.1,0-7.7c-0.1-2.6-0.2-5.1-0.4-7.7c-0.3,2.6-0.5,5.1-0.7,7.7
		c-0.1,1.4-0.1,2.8-0.2,4.2c-2-6.1-4-12.2-6.1-18.2c1.8,6.5,3.6,12.9,5.5,19.4c-1.2-1.3-2.4-2.6-3.7-3.9c-1.9-1.9-3.7-3.7-5.7-5.5
		c1.6,2.1,3.2,4.2,4.9,6.2c1.7,2,3.4,4,5.2,5.9l0.2,0.2l4.7,15.5c-1.8-1.9-3.7-3.8-5.6-5.6c-2.5-2.5-5.1-5-7.8-7.3
		c2.3,2.7,4.6,5.4,7,8c2.3,2.6,4.8,5.2,7.2,7.7l0.9,3.1l4.9,15.5c-2.5-2.3-4.9-4.7-7.5-7c-3.1-2.8-6.2-5.7-9.4-8.4
		c2.8,3.1,5.8,6.1,8.7,9.1c2.9,3,6,5.9,9,8.9l0.1,0.1l1.1,3.5c1.3,4,2.6,8,4,12c-1.9-1.9-3.8-3.7-5.7-5.5c-1.2-1.1-2.3-2.3-3.6-3.3
		c-1.2-1.1-2.4-2.2-3.6-3.3c1.1,1.2,2.2,2.4,3.2,3.7c1.1,1.2,2.2,2.4,3.3,3.6c2.2,2.4,4.5,4.7,6.8,7l0.5,0.6
		c0.8,2.3,1.5,4.5,2.3,6.8c-0.6-2.3-1.3-4.6-1.9-6.9l0.1-0.8C1390.2,390.9,1390.7,386.3,1391.3,381.7L1391.3,381.7z"/>
	<path class="st19" d="M1391.4,429.8c0,0-59.6-17.2-68.1-88.6C1323.3,341.1,1388.3,360.9,1391.4,429.8z"/>
	<path class="st20" d="M1386.8,423c-1.4-1.9-2.8-3.9-4.2-5.8l-0.2-0.8c-0.9-4.6-2.1-9.1-3.1-13.6c-1.1-4.5-2.3-9-3.6-13.5
		c0.7,4.6,1.6,9.2,2.5,13.8c0.8,3.9,1.6,7.8,2.5,11.6c-2.4-3.3-4.9-6.6-7.4-10l-2.2-2.9l0-0.1c-0.5-2.3-1.2-4.7-1.8-7l-1.8-7
		c-1.3-4.6-2.6-9.3-4-13.9c0.9,4.7,1.9,9.4,3,14.1l1.7,7c0.3,1.4,0.7,2.8,1,4.2l-9.5-12.5l-2-2.5c-1-3.7-2.1-7.3-3.2-10.9
		c-1.2-3.6-2.3-7.3-3.7-10.9c0.8,3.8,1.7,7.5,2.6,11.2c0.7,2.6,1.4,5.2,2.1,7.8l-9.5-12.2l-0.1-0.4c-0.9-2.4-1.7-4.8-2.7-7.2
		c-1-2.4-1.9-4.8-3-7.1c0.6,2.5,1.3,5,2.1,7.4c0.4,1.4,0.8,2.7,1.3,4c-4-5-8-10-12.1-14.9c3.9,5.5,7.9,10.9,11.9,16.3
		c-1.6-0.8-3.2-1.6-4.8-2.3c-2.4-1.1-4.8-2.2-7.3-3.1c2.2,1.5,4.5,2.8,6.8,4.1c2.3,1.3,4.6,2.5,6.9,3.7l0.2,0.1l9.8,12.9
		c-2.4-1.1-4.8-2.2-7.2-3.3c-3.2-1.4-6.5-2.9-9.8-4.2c3.1,1.8,6.2,3.4,9.4,5.1c3.1,1.6,6.3,3.2,9.4,4.7l1.9,2.5l10,12.9
		c-3.2-1.3-6.3-2.7-9.5-4c-3.9-1.6-7.8-3.1-11.8-4.6c3.7,1.9,7.5,3.7,11.4,5.5c3.8,1.8,7.7,3.5,11.5,5.2l0.1,0l2.3,2.9
		c2.6,3.3,5.3,6.6,7.9,9.9c-2.4-1.1-4.8-2.2-7.3-3.2c-1.5-0.6-3-1.3-4.5-1.9c-1.5-0.6-3-1.2-4.6-1.8c1.4,0.8,2.9,1.5,4.3,2.3
		c1.4,0.8,2.9,1.5,4.4,2.2c2.9,1.5,5.8,2.9,8.8,4.2l0.7,0.3C1383.8,419.3,1385.3,421.2,1386.8,423L1386.8,423z"/>
	<path class="st15" d="M1407.2,402.7c-18-9.2-39.3-13.2-58.7-7.3c-19.3,5.9-35.8,22.9-37.7,43c-5.6-6.1-15.8-7.9-23.3-4.4
		c-7.5,3.5-12.1,12.2-11,20.4c-5.5-7.9-13.5-14-22.3-18.1c-8.8-4.1-19.2-4.9-28.1-1.2c-8.9,3.8-15.8,12.5-16.2,22.2
		c-3.9-10.3-16.2-16.7-27.1-18.3c-10.9-1.6-22.2,2.1-31,8.8c-8.8,6.7-15.1,16.3-19.1,26.5c23.2,22.5,56.4,26.4,88.7,28.8
		c51.8,3.8,103.7,7.6,155.5,11.4c8.9,0.7,18.7,1,25.6-4.6c6-5,8.1-13.2,9.6-20.8c3.1-15.4,5.8-31,8-46.6c0.9-6.7,1.8-13.6,0.4-20.2
		C1419.2,415.8,1413.2,405.8,1407.2,402.7L1407.2,402.7z"/>
	<g>
		<path class="st16" d="M1407.8,427.3c-18-9.2-39.4-13.2-58.7-7.3c-19.3,5.9-35.8,22.9-37.7,43c-5.6-6.1-15.8-7.9-23.3-4.4
			c-7.5,3.5-12.1,12.2-11,20.4c-5.5-7.9-13.5-14-22.3-18.1c-8.8-4.1-19.2-4.9-28.1-1.2c-8.9,3.8-15.8,12.5-16.1,22.2
			c-3.9-10.3-16.2-16.7-27.1-18.3c-10.9-1.6-22.2,2.1-31,8.8c-8.8,6.7-15.1,16.3-19.1,26.5c23.2,22.5,56.5,26.4,88.7,28.8
			c51.8,3.8,103.7,7.6,155.6,11.4c8.9,0.7,18.7,1,25.6-4.6c6-5,8.1-13.2,9.6-20.8c3.2-15.4,5.8-31,8-46.6c0.9-6.7,1.8-13.6,0.4-20.2
			C1419.8,440.4,1413.8,430.4,1407.8,427.3L1407.8,427.3z"/>
	</g>
	<path class="st21" d="M741.7,434.9c0,0,15.2-34.6-4.7-60.6c0,0,26.8,19.5,12.4,62.5L741.7,434.9L741.7,434.9z"/>
	<path class="st21" d="M746,440.9c0,0,4.9-41.2,35-74.1c0,0-25.2,42.4-27.5,76L746,440.9L746,440.9z"/>
	<path class="st21" d="M755,436.6c0,0,6.3-52.1,48-47.8c0,0-34.5-0.3-42.7,49.1L755,436.6z"/>
	<path class="st21" d="M166.6,416.8c0,0-13.2-35.4-45.6-40.1c0,0,32.8-4.8,52.5,36.1L166.6,416.8L166.6,416.8z"/>
	<path class="st21" d="M173.9,418.1c0,0-25.2-33-26.6-77.5c0,0,11.5,47.9,33.3,73.6L173.9,418.1L173.9,418.1z"/>
	<path class="st21" d="M177.3,408.7c0,0-31.8-41.7,1.1-67.8c0,0-24.9,23.9,3.7,65L177.3,408.7z"/>
	<path class="st21" d="M244.4,416.2c0-0.1-0.9-15.2,5.1-34.9c5.5-18.2,18.1-44.3,46.9-65l-0.4-0.6c-28.9,20.9-41.6,47.1-47.1,65.4
		c-6,19.9-5.1,35-5.1,35.1L244.4,416.2L244.4,416.2z"/>
	<path class="st21" d="M288.3,322.1c0,0,2.9-11.5,18.9-14C307.2,308.2,305.2,322.4,288.3,322.1z M276.3,333.6c0,0,11.8,1.8,22.7-5
		C299,328.6,288.5,325.7,276.3,333.6z M276.3,333.6c0,0,9.4-10.8,8.7-22.3C285,311.3,273.7,320.3,276.3,333.6z M266.1,346.3
		c0,0,13.1,0.1,20.9-8.2C287,338,275.6,336.9,266.1,346.3z M266.1,346.3c0,0,7.4-9.6,6.9-20C273.1,326.2,262.8,336.5,266.1,346.3z
		 M258.1,359.5c0,0,16.4-1.3,24.1-9.6C282.2,350,269.5,348.4,258.1,359.5z M258.1,359.5c0,0,5.5-10.2,4.8-21
		C262.8,338.6,254.3,345.5,258.1,359.5z M252,372.9c0,0,12.4-1.9,21.9-11C274,361.9,260.7,361.5,252,372.9z M252,372.9
		c0,0,3.9-10.9-1.3-20.3C250.8,352.7,247.8,364.6,252,372.9z M247.9,386.1c0,0,10.7-3.6,17.8-13.4
		C265.7,372.7,254.5,372.9,247.9,386.1z M247.9,386.1c0,0,3.5-9-2.1-18.5C245.7,367.6,242.5,377.5,247.9,386.1z M245.2,398.9
		c0,0,12.4-4.2,14.6-14.2C259.9,384.8,250.1,387,245.2,398.9z M245.2,398.9c0,0,2.4-11.7-4.2-19.2
		C241,379.7,238.7,392.4,245.2,398.9z"/>
	<path class="st15" d="M814.1,443.4c-0.2-6.2,3.5-12.4,9.1-15.1c5.6-2.7,12.7-1.8,17.5,2.2c4-9.2,12.8-16.1,22.8-17.5
		c9.9-1.4,20.5,2.8,26.8,10.6c7.6-9.2,20.4-14.6,32.1-12.4c11.7,2.2,22,11.1,25.8,22.4c4.9-3.8,12.3-5.6,18.3-3.9
		c6,1.7,11.1,6.3,13.4,12.1c5.9-4.4,15.3-2.7,21.1,1.8c5.7,4.6,9,11.5,11.1,18.5c-59.6,7.2-120.9,5.6-179.9-5.4
		C824.7,455.4,814.4,450.9,814.1,443.4L814.1,443.4z"/>
	<g>
		<path class="st16" d="M813.8,457.5c-0.2-6.2,3.5-12.4,9.1-15.1c5.6-2.7,12.7-1.8,17.5,2.2c4-9.2,12.8-16.1,22.8-17.5
			c9.9-1.4,20.5,2.8,26.8,10.6c7.6-9.2,20.4-14.6,32.1-12.4c11.7,2.2,22,11.1,25.8,22.4c4.9-3.8,12.3-5.6,18.3-3.9
			c6,1.7,11.1,6.3,13.4,12.1c5.9-4.3,15.3-2.7,21.1,1.8c5.7,4.6,9,11.5,11.1,18.5c-59.6,7.2-120.9,5.6-179.9-5.4
			C824.3,469.5,814,465,813.8,457.5L813.8,457.5z"/>
	</g>
	<path class="st15" d="M679.1,384.5c10.4-3,22-1.4,31.2,4.4c9.2,5.8,15.7,15.5,17.6,26.2c4.5-3.3,10.3-4.6,15.5-2.6
		c5.2,1.9,9.3,6.7,10.6,12.1c5-4.9,12.8-7.2,19.7-5.8c6.9,1.4,13,5.8,17.2,11.3c4.3,5.6,6.8,12.3,8.1,19.3c-9.9,4.5-21.2,5-32.1,5.1
		c-23.4,0.2-46.9,0.3-70.3-1.2c-9-0.6-18.8-1.8-25-8.3c-6.5-6.8-7-17.3-7.1-26.7c-0.1-6.2-0.1-12.6,1.6-18.6
		C667.7,393.8,673.1,386.2,679.1,384.5L679.1,384.5z"/>
	<g class="st22">
		<path class="st16" d="M672.6,396.5c10.4-3,22-1.4,31.2,4.4c9.2,5.8,15.7,15.5,17.6,26.2c4.5-3.3,10.3-4.6,15.5-2.6
			c5.2,1.9,9.3,6.7,10.6,12.1c5-4.9,12.8-7.2,19.7-5.8c6.9,1.4,13,5.8,17.2,11.3c4.3,5.6,6.8,12.3,8.1,19.2
			c-9.9,4.5-21.2,5-32.1,5.1c-23.4,0.2-46.9,0.3-70.3-1.2c-9-0.6-18.8-1.8-25-8.3c-6.5-6.8-7-17.2-7.1-26.7
			c-0.1-6.2-0.1-12.6,1.6-18.6C661.2,405.7,666.6,398.2,672.6,396.5L672.6,396.5z"/>
	</g>
	<path class="st19" d="M498.4,427.5c0,0-10.5-61.1,50-100C548.4,327.6,559,394.7,498.4,427.5z"/>
	<path class="st20" d="M526.3,374l6.8-13.9l0.3-0.3c1.8-1.8,3.6-3.7,5.3-5.6c1.7-1.9,3.4-3.8,5-5.8c-2,1.6-3.9,3.4-5.8,5.1
		c-1,1-2.1,1.9-3.1,2.9c2.8-5.8,5.5-11.6,8.2-17.4c-3.2,5.9-6.3,11.8-9.4,17.8c0-1.8,0-3.6,0-5.4c-0.1-2.6-0.1-5.3-0.3-7.9
		c-0.3,2.6-0.5,5.2-0.7,7.9c-0.2,2.6-0.3,5.3-0.3,7.9v0.2l-7.3,14.4c0-2.6-0.1-5.3-0.2-7.9c-0.1-3.5-0.3-7.1-0.5-10.6
		c-0.3,3.5-0.4,7.1-0.5,10.6c-0.1,3.5-0.1,7-0.1,10.5l-1.5,2.9l-7.2,14.7c-0.2-3.4-0.3-6.8-0.6-10.2c-0.3-4.2-0.6-8.4-1-12.6
		c-0.1,4.2-0.1,8.4,0,12.6c0,4.2,0.2,8.4,0.3,12.6v0.1l-1.6,3.3c-1.8,3.8-3.7,7.6-5.4,11.4c-0.1-2.7-0.2-5.3-0.3-8
		c-0.1-1.6-0.1-3.3-0.3-4.9c-0.1-1.6-0.2-3.2-0.4-4.9c-0.1,1.6-0.1,3.3-0.2,4.9c-0.1,1.6-0.1,3.3-0.1,4.9c-0.1,3.3,0,6.5,0,9.8v0.8
		c-1,2.2-2,4.4-3,6.5c1.1-2.1,2.3-4.2,3.4-6.3l0.7-0.5c3.7-2.8,7.3-5.8,10.9-8.7c3.6-3,7.1-6,10.6-9.1c-3.9,2.6-7.6,5.4-11.3,8.2
		c-3.1,2.4-6.3,4.9-9.3,7.4c1.9-3.7,3.8-7.3,5.7-11l1.7-3.3l0.1-0.1c1.9-1.5,3.7-3.1,5.5-4.7l5.5-4.7c3.6-3.2,7.2-6.4,10.7-9.7
		c-3.9,2.9-7.7,5.8-11.4,8.8l-5.6,4.6c-1.1,0.9-2.2,1.8-3.3,2.7l7.1-14l1.4-2.9c2.8-2.5,5.6-5.1,8.4-7.7c2.8-2.6,5.5-5.3,8.2-8
		c-3.1,2.3-6,4.8-8.9,7.2C530.4,370.4,528.3,372.2,526.3,374L526.3,374z"/>
	<path class="st19" d="M458.4,435.6c0,0-57.4-23.4-58.4-95.3C400.1,340.3,462.6,366.8,458.4,435.6z"/>
	<path class="st20" d="M454.6,428.4c-1.2-2.1-2.4-4.1-3.6-6.2l-0.1-0.8c-0.4-4.6-1.1-9.2-1.7-13.9c-0.7-4.6-1.3-9.2-2.2-13.8
		c0.2,4.7,0.6,9.3,1,13.9c0.4,3.9,0.8,7.9,1.3,11.8c-2.1-3.6-4.2-7.1-6.3-10.7l-1.9-3.1v-0.1c-0.3-2.4-0.7-4.8-1.1-7.1l-1.1-7.1
		c-0.8-4.8-1.6-9.5-2.5-14.2c0.4,4.8,0.9,9.6,1.5,14.4l0.9,7.2c0.2,1.4,0.4,2.8,0.5,4.2l-8.1-13.4l-1.7-2.7
		c-0.6-3.7-1.3-7.5-2.1-11.2c-0.8-3.8-1.5-7.5-2.5-11.2c0.4,3.8,0.9,7.6,1.4,11.4c0.4,2.7,0.8,5.3,1.3,8l-8.2-13.1l-0.1-0.4
		c-0.6-2.5-1.2-5-1.9-7.5c-0.7-2.5-1.4-4.9-2.3-7.4c0.3,2.6,0.8,5.1,1.3,7.6c0.3,1.4,0.6,2.8,0.9,4.1c-3.4-5.4-6.9-10.8-10.5-16.1
		c3.3,5.9,6.7,11.6,10.1,17.4c-1.5-1-3-1.9-4.5-2.8c-2.3-1.3-4.5-2.7-6.9-3.9c2,1.7,4.2,3.2,6.3,4.8c2.1,1.5,4.3,3,6.5,4.5l0.2,0.1
		l8.4,13.9c-2.3-1.4-4.5-2.7-6.8-4c-3.1-1.8-6.2-3.5-9.3-5.2c2.9,2.1,5.8,4.1,8.8,6c2.9,1.9,5.9,3.8,8.9,5.7l1.7,2.7l8.6,13.8
		c-3-1.7-6-3.3-9-4.9c-3.7-2-7.4-4-11.2-5.8c3.5,2.3,7.1,4.5,10.7,6.7c3.6,2.2,7.3,4.2,10.9,6.4l0.1,0l1.9,3.1
		c2.3,3.6,4.5,7.1,6.8,10.7c-2.3-1.3-4.6-2.7-6.9-3.9c-1.4-0.8-2.8-1.6-4.3-2.3c-1.4-0.7-2.9-1.5-4.3-2.3c1.3,0.9,2.7,1.8,4.1,2.7
		c1.3,0.9,2.7,1.8,4.1,2.6c2.7,1.8,5.5,3.5,8.3,5.1l0.7,0.4C451.8,424.4,453.2,426.4,454.6,428.4L454.6,428.4z"/>
	<path class="st15" d="M400.1,428.4c6.7-15.6,21.2-27.7,37.7-31.4c16.6-3.8,34.8,0.9,47.6,12.1c5.5-10.4,16.4-16.3,28.1-15.7
		c11.7,0.6,22.8,8.4,27.2,19.3c7.6-7.2,20.5-7.4,29.5-2.1c9,5.4,14.7,15,17.7,25c-31.4,3.6-64.7,7.2-96.3,7.8
		C460.5,444.1,429.3,439.1,400.1,428.4L400.1,428.4z"/>
	<g class="st22">
		<path class="st16" d="M398.8,442.4c6.7-15.6,21.2-27.7,37.7-31.4c16.6-3.7,34.8,0.9,47.6,12.1c5.5-10.4,16.4-16.3,28.1-15.7
			c11.7,0.6,22.8,8.4,27.2,19.3c7.6-7.2,20.5-7.4,29.5-2.1c9,5.3,14.7,15,17.7,25c-31.4,3.6-64.7,7.2-96.3,7.8
			C459.2,458.1,428,453.2,398.8,442.4L398.8,442.4z"/>
	</g>
	<path class="st15" d="M133.8,432.5c-0.7-12.8,6.8-25.7,18.4-31.3c11.5-5.6,26.3-3.6,35.9,4.9c8.5-10.8,21.9-18.1,35.6-18.2
		c13.7-0.1,27.4,6.4,36.1,17.1c4.7-7.2,13.7-12.1,22.2-12.9c8.5-0.8,17.3,2.4,23.3,8.5c10.4-3.3,22.4-2.3,31.8,3.3
		c9.4,5.5,16.2,15.2,18.4,25.9C281.2,431.6,208.1,430.7,133.8,432.5z"/>
	<g>
		<path class="st16" d="M133.8,449.8c-0.7-12.8,6.8-25.7,18.4-31.3c11.5-5.6,26.3-3.6,35.9,4.9c8.5-10.8,21.9-18.1,35.6-18.2
			c13.7-0.1,27.4,6.4,36.1,17.1c4.7-7.2,13.7-12.1,22.2-12.9c8.5-0.8,17.3,2.4,23.3,8.5c10.4-3.3,22.4-2.3,31.8,3.3
			c9.4,5.5,16.2,15.2,18.4,25.9C281.2,448.9,208.1,448,133.8,449.8z"/>
	</g>
	<path class="st23" d="M-46.4,431.8C465.8,407,981.5,430.9,1487,502.9c-8.5,51.4,6,110.8,6.3,162.7c0.3,51.8-16.2,108.7-67.7,139
		c-44.7,26.3-104.1,26.4-159.2,25.4C868.3,823.1,470,816.1,73.7,785.8c-36.5-2.8-76.9-7.3-100.5-30.2c-20.7-20-22.5-48.4-23-74.6
		C-51.2,600.3-51.8,512.3-46.4,431.8L-46.4,431.8z"/>
	<path class="st24" d="M1061.3,572.9l5.8,0.4"/>
	<path class="st24" d="M1000.7,569l52.6,3.3"/>
	<path class="st24" d="M1032.8,582.4l56.3,3"/>
	<g class="st22">
		<path class="st15" d="M369,468.4l11.7,0.3c-1.3-0.8-2.9-1.4-4.4-1.5C373.8,466.8,371.2,467.2,369,468.4z"/>
		<path class="st15" d="M343.5,461c-5.5,1-9.2,3.5-11.7,6.5l32.3,0.8C360.3,463.1,353.6,459.2,343.5,461L343.5,461z"/>
	</g>
	<path class="st17" d="M547.5,581.9c0,0,15.8-47.7-13.9-79.6c0,0,38,22.5,24.4,81.2L547.5,581.9L547.5,581.9z"/>
	<path class="st17" d="M553.3,575.8c0,0,60.1-35.3,89.3,12.4c0,0-27.5-36.8-86.4-5.7L553.3,575.8z"/>
	<path class="st19" d="M543.5,584.1c0,0,34.9-42.8,92-58.4c0,0-58.4,29.7-84.9,65.9L543.5,584.1z"/>
	<path class="st21" d="M480.9,524.1c33.3,3.2,64.3,25,78.5,55.3c5.3-3.9,11.8-6.2,18-4.1c6.2,2,11.3,7.1,13.3,13.3
		c11.9-6,28.6,2.5,37.3,12.5c8.7,10,11.3,24.4,9.3,37.5c10.1-0.7,19.8,4.6,24.6,13.5c4.8,8.9,3.9,20.6-2.2,28.6
		c-37.8-0.3-75.3-2.5-112.7-8.4c-13.6-2.1-27.5-4.8-39.1-12.2c-12.4-7.9-21.2-20.5-27.7-33.7c-11.6-23.5-17.1-49.8-16.1-76
		C464.5,540.8,472.5,528.8,480.9,524.1L480.9,524.1z"/>
	<path class="st21" d="M-10.2,406.9c25.7-9.5,54.4-10.5,80.6-2.7c26.2,7.8,49.8,24.3,66.1,46.4c6.4-7.5,17.2-10.4,26.7-7.9
		c9.5,2.5,17.3,10.7,19.3,20.3c14.2-10.7,33.8-14.6,50.6-8.9s30.5,20.1,35.3,37.2c21.6-11.5,48.4-12.9,71.7-5.4
		c23.4,7.4,43.4,24.6,54.5,46.5c21.6-14.2,52.8-6.2,71.1,12.1c18.3,18.3,25.3,45.7,24,71.5c-16.2,16.9-41.9,18.4-65.3,18.5
		c-103,0.4-206.2,0.7-308.8-9.3C83,622,48.5,617,23,596.3c-27.3-22.1-39-57.8-48.6-91.6c-4.5-15.9-8.9-32.2-8.2-48.7
		C-33.1,439.5-25.7,412.7-10.2,406.9L-10.2,406.9z"/>
	<path class="st15" d="M1126,616.3c-5.4-9.6-19-10.5-29.3-14.6c-11.4-4.5-23.9-5.8-36-3.9c-1.8-4.6-2.3-9.8-0.9-14.2
		c-2.6,4.5-3.6,9.8-3.1,14.9c-0.1,0-0.3,0.1-0.4,0.1c-1.3-1-2.7-1.9-4.2-2.5c-3.1-1.2-7.2-1.1-10.5-1.5c3.7,0.7,7.1,2.7,9.7,5.4
		c-2.4,0.7-4.8,1.6-7.1,2.6c-16.5,7.2-30,21-36.6,37.8c-9.9-6.6-22.1-7.1-33.2-2.5c-11,4.6-19.4,15-21.7,26.7
		c-16.6-19.3-44.5-28-69.1-21.1c-24.5,6.9-44.1,28.9-48.2,54.1c-11.1-3.8-22.4,1.4-30.6,9.8c-14.1,14.4-18.1,37.9-9.5,56.1
		c5.8,12.4,24.6,10.8,38.2,11.3c51.8,2,103.7,4,155.5,6c20.5,0.8,41.6,1.5,60.7-5.7c19.9-7.5,35.8-22.9,48.9-39.7
		c19.7-25.1,34.7-55.3,34.6-87.2C1133.4,637.2,1131.5,625.9,1126,616.3L1126,616.3z"/>
	<path class="st15" d="M1162.6,600.4c17.9-10.4,39.5-14.2,59.9-10.6s39.4,14.6,52.6,30.5c18.2-6,39.5-1.7,52.5,12.3
		c13,14,17,35.8,9.7,53.5c-5.5,13.3-16.6,23.8-29.3,30.5c-12.8,6.7-27.1,9.8-41.4,11.2c-23,2.3-46.8,0.3-68.1-8.8
		c-21.2-9.1-39.7-25.9-48.1-47.5C1142,650,1142.6,612,1162.6,600.4L1162.6,600.4z"/>
	<path class="st15" d="M601.1,623.5c2.6-12.1,7.2-23.9,13.9-34.3c-11.3,6.4-20.3,16.6-25.3,28.5c-0.8-0.4-1.6-0.8-2.4-1.2
		c-3-11.7-11.2-21.8-22-27.5c4.2,4.2,8.4,8.4,11.4,13.5c1.9,3.2,3.2,6.9,3.6,10.6C528.2,588,472.3,567.9,415,552.7
		c-11.5-3-23-5.9-34.5-8.6c1.8-12.8,6.1-25.5,13.4-36.1c-11.2,8.3-19.5,20.4-23.2,33.9c-0.5-0.1-1.1-0.2-1.7-0.4
		c-2.9-9.2-8.6-17.9-15.1-24.6c4.2,7.1,6.9,14.9,8.2,23.1c-42.6-9.2-85.8-16.2-129.4-21.5c0.5-1.9,1.3-3.7,2.4-5.3
		c4-5.7,10.6-8.4,17.2-10.5c-6.8-1.7-14.2-0.4-20.1,3.4c-4.1,2.7-7.4,6.7-9.4,11.3c-1.9-0.2-3.9-0.5-5.8-0.7
		c-2.2-4.4-5.6-8.3-9.8-11c-5.6-3.6-12.5-4.7-19.1-3.7c7.8,2.6,14.9,7.4,20.1,13.7c-26.9-2.9-54-5.2-81.1-7
		c0.6-10.2,2.4-20.6,5.7-30.2c-7.7,8-12.3,18.7-13.1,29.7c-1.7-0.1-3.3-0.2-4.9-0.3c-3.4-8.6-11.1-15.4-20.1-17.5
		c5.4,5,11.1,10.4,13.8,17.1c-40.4-2.4-80.9-3.8-121.3-4.6v246.9h783C724.1,699.1,665.9,657.2,601.1,623.5L601.1,623.5z"/>
	<g>
		<path class="st25" d="M496.8,626.2c-92.7-29.4-189.2-45.7-281.4-76.5c128.5,8.8,255.7,37,376.1,83.1
			c-90-49.1-190.2-77.4-291.5-93.2C198.7,523.7,96,520.1-6.5,518.3c-2.1,0-4.1,0.1-6.1,0.3v231.3h731.2
			C658.6,689.8,578.2,652.1,496.8,626.2L496.8,626.2z"/>
	</g>
	<path class="st17" d="M1290,681.8c0,0-54.1-133.7,64.4-251.9C1354.4,429.9,1411.4,577.3,1290,681.8z"/>
	<path class="st18" d="M1331.1,576.2l-10.4,13.2c-2.6,3.4-5.3,6.8-7.9,10.1l9.9-38.2l1.9-7.4l7.7-10.7c2.6-3.6,5.2-7.2,7.8-10.8
		l7.6-10.9c2.5-3.7,5-7.3,7.5-11c-2.8,3.5-5.5,7-8.2,10.5l-8.1,10.6c-2.7,3.5-5.3,7.2-7.9,10.7l-5.2,7.1l9.7-38.6l0.3-0.4
		c3.2-5.1,6.4-10.1,9.4-15.2c3.1-5.1,6.1-10.3,9-15.5c-3.5,4.8-6.9,9.8-10.2,14.8c-2.4,3.6-4.8,7.3-7.2,11l5.1-20.9l6.1-25.8
		l-6.9,25.5l-5.9,22.1c-1-4.9-1.9-9.7-3-14.6l-2-9c-0.7-3-1.4-6-2.2-8.9c0.4,3,0.9,6.1,1.3,9.1l1.5,9c1,6,2.1,12,3.3,18.1l0.1,0.3
		l-10.2,39.5c-1.6-6.9-3.1-13.7-4.7-20.6c-1.9-8-3.9-16.1-6-24c1.4,8.1,3,16.3,4.7,24.4c1.6,8,3.4,16.1,5.1,24.1l-1.9,7.4l-9.8,39.1
		c-2.3-8.4-4.4-16.9-6.8-25.3c-2.6-9.4-5.2-18.9-8-28.2c2.1,9.6,4.4,19.1,6.8,28.6c2.3,9.5,4.8,19,7.2,28.5v0.1l-2.2,8.7
		c-2.5,10.2-5,20.3-7.4,30.5l-2.1-8.7c-0.9-3.7-1.9-7.3-2.8-11c-1-3.7-1.8-7.3-2.9-11l-3-11l2.3,11.1c0.8,3.7,1.6,7.4,2.4,11.1
		c0.8,3.7,1.6,7.4,2.5,11.1l2.6,11l0.2,1c-1.4,5.8-2.8,11.5-4.1,17.3c1.6-5.7,3.1-11.4,4.6-17.1l0.7-0.9c3.5-4.2,6.9-8.3,10.3-12.6
		l10.2-12.6c6.7-8.5,13.5-17,20-25.6c-7.2,8.1-14.2,16.4-21.2,24.7l-10.4,12.5c-2.9,3.5-5.7,7-8.6,10.5c2.7-10,5.3-20,8-30l2.2-8.6
		l0.1-0.1c3.5-4.4,6.8-8.8,10.3-13.3l10.2-13.3l10.1-13.4c3.3-4.5,6.7-9,9.9-13.5c-3.6,4.3-7.1,8.6-10.7,13l-10.5,13.1L1331.1,576.2
		z"/>
	<path class="st19" d="M1289.1,708.1c0,0-106.1-97.7-49.6-255.3C1239.5,452.8,1354.2,561.6,1289.1,708.1z"/>
	<path class="st20" d="M1290,638.8l-4,15.7c-1.1,4.4-2.2,8.8-3.2,13.1c-1.9-10.2-3.7-20.3-5.6-30.5l-1.7-8.8l0-0.2
		c1.3-5.4,2.4-10.9,3.6-16.4l3.5-16.4l3.4-16.4c1.1-5.5,2.2-11,3.2-16.5c-1.4,5.4-2.7,10.8-4.1,16.3l-3.9,16.3l-3.8,16.4
		c-0.9,4.2-1.9,8.4-2.8,12.6l-7.4-38.8l-1.5-7.5l2.4-13c0.8-4.4,1.6-8.7,2.3-13.1l2.2-13.2c0.7-4.4,1.4-8.8,2-13.2
		c-1,4.3-1.9,8.7-2.9,13l-2.7,13.1c-0.9,4.3-1.7,8.7-2.6,13.1l-1.7,8.7l-7.8-39l0-0.5c0.7-5.9,1.4-11.9,2-17.8
		c0.6-6,1.1-11.9,1.5-17.9c-1.1,5.9-2,11.8-2.9,17.7c-0.7,4.3-1.2,8.7-1.8,13l-4.3-21.1l-5.5-25.9l4.6,26l4.2,22.5
		c-2.9-4-5.9-8-9-11.9l-5.6-7.2c-1.9-2.4-3.8-4.8-5.8-7.1c1.6,2.6,3.4,5.1,5.1,7.7l5.2,7.5c3.5,5,7.1,10,10.7,14.9l0.2,0.2l7.7,40.1
		c-4.3-5.5-8.7-11.1-13.1-16.6c-5.2-6.4-10.4-12.9-15.7-19.2c4.8,6.8,9.7,13.4,14.6,20c4.9,6.6,10,13,14.9,19.6l1.4,7.5l7.9,39.5
		c-5.6-6.7-11.2-13.4-17-20c-6.4-7.4-12.8-14.8-19.3-22.1c6,7.7,12.2,15.3,18.3,22.9c6.1,7.6,12.4,15.1,18.7,22.6l0.1,0.1l1.8,8.8
		c2.1,10.2,4.2,20.5,6.4,30.7l-5.7-7c-2.4-2.9-4.8-5.8-7.2-8.7c-2.4-2.9-4.8-5.8-7.3-8.7l-7.4-8.6l6.8,9.1c2.3,3,4.6,6,6.9,9
		c2.3,3,4.6,6,7,9l7.1,8.9l0.6,0.8c1.2,5.8,2.4,11.6,3.7,17.4c-1-5.8-2.1-11.6-3.1-17.4l0.3-1.1c1.3-5.2,2.7-10.5,3.9-15.8l3.8-15.8
		c2.4-10.6,4.9-21.1,7.1-31.7C1295.4,617.8,1292.7,628.3,1290,638.8L1290,638.8z"/>
	<path class="st17" d="M344.6,742.3c0,0-16.2-143.4,129.7-225.4C474.3,516.9,489.7,674.3,344.6,742.3z"/>
	<path class="st18" d="M432.1,610.6c-3.5,2.7-7,5.5-10.5,8.2l-6.9,5.4l19.7-34.6l0.4-0.3c4.4-4,8.8-8,13.2-12.1
		c4.3-4.1,8.7-8.2,12.8-12.5c-4.7,3.7-9.2,7.6-13.8,11.5c-3.3,2.8-6.6,5.7-9.9,8.6l10.5-18.8l12.8-23.2l-13.5,22.7l-11.6,19.7
		c0.4-5,0.7-9.9,1-14.9l0.5-9.2c0.1-3.1,0.3-6.1,0.3-9.2c-0.5,3-0.8,6.1-1.2,9.1l-1,9.1c-0.7,6.1-1.2,12.2-1.7,18.3v0.3l-20.5,35.3
		c0.3-7,0.7-14.1,1-21.1c0.3-8.3,0.6-16.5,0.7-24.8c-0.8,8.2-1.4,16.5-2,24.7c-0.6,8.2-1,16.4-1.6,24.6l-3.8,6.6l-19.9,35
		c0.1-8.7,0.3-17.5,0.3-26.2c0-9.8,0-19.6-0.1-29.4c-0.5,9.8-0.9,19.5-1.2,29.3c-0.4,9.8-0.5,19.6-0.7,29.3v0.1l-4.4,7.8
		c-5.1,9.1-10.2,18.2-15.3,27.4l0.3-9c0.1-3.8,0.2-7.6,0.3-11.3c0.1-3.8,0.2-7.6,0.2-11.4l0.1-11.4l-0.8,11.3
		c-0.3,3.8-0.4,7.6-0.7,11.3c-0.2,3.8-0.5,7.6-0.6,11.3l-0.5,11.3l0,1c-2.9,5.2-5.7,10.4-8.6,15.6c3-5.1,6.1-10.1,9.1-15.2l0.9-0.6
		c4.5-3.1,8.9-6.2,13.3-9.3l13.2-9.4c8.8-6.4,17.5-12.7,26.1-19.3c-9.1,5.9-18.1,12-27,18.1l-13.3,9.3c-3.7,2.5-7.4,5.2-11.1,7.8
		c5.3-8.9,10.5-17.8,15.7-26.7l4.5-7.7l0.2-0.1c4.5-3.3,9-6.7,13.5-10l13.4-10.1l13.3-10.2c4.4-3.4,8.8-6.9,13.2-10.4
		c-4.6,3.1-9.2,6.4-13.7,9.6l-13.6,9.8l-13.5,9.9c-3.5,2.5-6.9,5.1-10.4,7.6l19.8-34.2l3.8-6.7l10.3-8.2c3.5-2.8,6.9-5.5,10.4-8.4
		l10.3-8.5c3.4-2.9,6.8-5.7,10.2-8.6c-3.6,2.6-7.1,5.3-10.7,7.9L432.1,610.6L432.1,610.6z"/>
	<path class="st19" d="M367.9,741.7c0,0-121.4-77.8-93-242.8C274.9,498.9,406.6,586.2,367.9,741.7z"/>
	<path class="st20" d="M362.1,723.6c-2-5.6-4-11.1-6.1-16.6l0.1-1.1c0.4-5.4,0.8-10.8,1.1-16.2l1-16.2c0.6-10.8,1.2-21.6,1.5-32.5
		c-1.2,10.8-2.1,21.6-3,32.4l-1.2,16.2c-0.4,4.5-0.7,9-0.9,13.5c-3.6-9.7-7.2-19.4-10.8-29.1l-3.2-8.4v-0.2
		c0.3-5.6,0.5-11.2,0.7-16.8l0.6-16.8l0.5-16.8c0.1-5.6,0.3-11.2,0.3-16.8c-0.5,5.6-0.8,11.2-1.2,16.7l-1,16.8l-0.9,16.8
		c-0.2,4.3-0.4,8.6-0.6,12.9l-14-36.9l-2.8-7.2l0.1-13.2c0-4.4,0.1-8.9,0-13.3l-0.1-13.3c-0.1-4.4-0.1-8.9-0.3-13.3
		c-0.3,4.4-0.4,8.9-0.6,13.3l-0.4,13.3c-0.1,4.4-0.2,8.9-0.3,13.3l-0.1,8.8l-14.4-37.1l0-0.5c-0.3-6-0.7-11.9-1.1-17.9
		c-0.4-6-0.9-11.9-1.6-17.9c-0.1,6,0.1,12,0.2,17.9c0.1,4.4,0.3,8.8,0.5,13.1l-7.9-20l-9.9-24.5l9.1,24.8l8,21.4
		c-3.6-3.4-7.2-6.8-10.9-10.2l-6.8-6.2c-2.3-2-4.6-4.1-6.9-6c2.1,2.3,4.2,4.4,6.3,6.7l6.4,6.5c4.3,4.3,8.7,8.6,13.1,12.8l0.2,0.2
		l14.5,38.2c-5.2-4.7-10.5-9.4-15.8-14.1c-6.2-5.4-12.4-10.9-18.8-16.1c5.9,5.8,11.9,11.5,17.9,17.2c5.9,5.6,12,11.1,18.1,16.7
		l2.7,7.2l14.6,37.5c-6.7-5.6-13.4-11.2-20.2-16.7c-7.6-6.2-15.1-12.4-22.9-18.4c7.3,6.6,14.6,13,22,19.4
		c7.3,6.4,14.9,12.7,22.3,19.1l0.1,0.1l3.3,8.4c3.8,9.7,7.7,19.5,11.6,29.2l-6.8-5.9c-2.9-2.5-5.8-4.9-8.6-7.4
		c-2.9-2.4-5.7-4.9-8.7-7.3l-8.8-7.2l8.3,7.8c2.7,2.6,5.6,5.1,8.4,7.7c2.8,2.5,5.6,5.1,8.4,7.6l8.5,7.5l0.7,0.7
		C357.7,712.6,359.9,718.1,362.1,723.6L362.1,723.6z"/>
	<path class="st26" d="M1230.2,715c-0.1-0.4-6.3-38.8-32.4-85.3c-24-42.9-70.4-101.7-154.5-138l0.7-1.7
		c84.7,36.6,131.3,95.7,155.4,138.9c26.2,46.8,32.5,85.5,32.5,85.9L1230.2,715L1230.2,715z"/>
	<path class="st26" d="M1011.5,477.1c41.7-2.6,55.5,24.8,55.5,24.8C1024.3,511.9,1011.5,477.1,1011.5,477.1z M1043.6,524.2
		c31.4,11.1,60.2,0,60.2,0C1068.4,511,1043.6,524.2,1043.6,524.2z M1069.3,472.7c4.7,29.5,34.5,51.5,34.5,51.5
		C1102.9,489.1,1069.3,472.7,1069.3,472.7z M1079.2,541.3c24.4,16.7,57.3,9.1,57.3,9.1C1107.3,532.1,1079.2,541.3,1079.2,541.3z
		 M1107.8,503.7c4.7,26.6,28.7,46.7,28.7,46.7C1139.4,524,1107.8,503.7,1107.8,503.7z M1098,568.8c24.2,16.7,66.3,10.7,66.3,10.7
		C1129.1,557.6,1098,568.8,1098,568.8z M1140.6,529.2c4.1,27.6,23.7,50.3,23.7,50.3C1165.9,541.8,1140.6,529.2,1140.6,529.2z
		 M1125.4,594.3c29.1,17.8,61.6,15.7,61.6,15.7C1158.7,586,1125.4,594.3,1125.4,594.3z M1178.9,558.1c-7.7,26.6,8.1,51.9,8.1,51.9
		C1192.9,586.4,1178.9,558.1,1178.9,558.1z M1152.3,616.9c23.6,20.7,52.5,23.9,52.5,23.9C1180.7,611.3,1152.3,616.9,1152.3,616.9z
		 M1199.8,592.9c-9,27.1,5,47.9,5,47.9C1213.7,616,1199.8,592.9,1199.8,592.9z M1173.7,644.2c11.1,24,44.8,27.6,44.8,27.6
		C1199.7,644.3,1173.7,644.2,1173.7,644.2z M1218.6,621c-12.5,22.7,0,50.8,0,50.8C1231.4,651.6,1218.6,621,1218.6,621z"/>
	<path class="st19" d="M943.5,726.8c-18.9-18.2-35.5-39-47.6-62.3c-12-23.3-19.5-49.2-19.9-75.5c-0.1-6.3,0.3-13.1,4.1-18.1
		c3.8-5.1,10.5-7.4,16.8-7.3c7.9,0.1,15.6,3.6,21.8,8.6c6.2,5,11.1,11.4,15.4,18.1c16,24.1,26.2,51.9,29.8,80.6
		c-0.6-25.5,0.2-51.5,7.2-76c1.8-6.3,4.1-12.4,7.8-17.8s9-9.8,15.2-11.5c12.3-3.4,25.6,4.6,31.9,15.7c6.3,11.1,7.1,24.5,6.5,37.3
		c-0.8,18-3.9,36.1-8.9,53.4c-5.1,17.7-9.4,36.2-17.4,52.8c-6.8,14.1-19.5,20.1-35,16.7C961.3,739.3,950.9,733.9,943.5,726.8
		L943.5,726.8z"/>
	<path class="st20" d="M991.7,676.3c0.9-3.2,1.8-6.4,2.6-9.7l0.2-0.2c4.1-5,8.3-9.8,12.3-14.8c4-5,8.1-10,12-15.1
		c-4.4,4.7-8.7,9.4-12.9,14.3c-3.6,4-7,8-10.5,12c0.3-1.5,0.7-2.9,1-4.4l1-4.5c0.3-1.5,0.6-3,0.9-4.5c0.6-3,1.2-6,1.7-9
		c0.3-1.8,0.5-3.7,0.8-5.5l0.6-1.2c3-6,6-12.1,8.9-18.2c2.9-6.1,5.8-12.2,8.5-18.4c-3.4,5.9-6.5,11.8-9.7,17.8
		c-2.5,4.8-5,9.6-7.4,14.4c0.3-2.3,0.6-4.7,0.8-7.1c1.4-12.2,1.5-24.5,1.4-36.8c-0.1,12.3-0.5,24.5-2.2,36.7c-0.3,2.7-0.6,5.3-1,8
		c-1.7-5.6-3.5-11.1-5.4-16.7l-3.3-9.8c-1.2-3.2-2.3-6.5-3.5-9.7c0.8,3.3,1.8,6.6,2.6,10l2.8,9.9c1.9,6.6,3.9,13.2,5.9,19.7l0.2,0.5
		c-0.3,2.1-0.7,4.1-1,6.2c-0.6,3-1.2,6-1.8,9c-0.3,1.5-0.6,3-0.9,4.5l-1.1,4.5c-0.4,1.6-0.8,3.3-1.3,4.9c-1-2.8-2-5.6-3.1-8.4
		l-4-10.9c-2.8-7.3-5.6-14.5-8.6-21.7c2.2,7.5,4.7,14.8,7.2,22.2l3.8,11c1.3,3.6,2.5,7.3,3.9,10.9c-2.4,9-5.1,17.8-8.3,26.6
		c-1.3-5.2-2.6-10.4-4.1-15.5c-1.6-6.1-3.3-12.1-5.2-18.2c1.2,6.2,2.5,12.3,3.9,18.5c1.3,6.1,2.8,12.1,4.3,18.2
		c-3.8,10.3-8,20.4-13,30.1c-2.6-3.1-5.1-6.3-7.5-9.6c0-5-0.1-9.9-0.2-14.8c-0.1-5.1-0.3-10.1-0.7-15.2c-0.4,5.1-0.5,10.1-0.7,15.2
		c-0.1,4.1-0.2,8.2-0.2,12.3c-4.5-6.6-8.7-13.6-12.6-20.6c-1.3-2.3-2.6-4.7-3.9-7.1c0.1-7.3,0-14.6-0.1-22
		c-0.2-7.4-0.3-14.8-0.8-22.2c-0.4,7.4-0.6,14.8-0.8,22.2c-0.1,6.2-0.1,12.5-0.1,18.7c-4.6-8.6-8.9-17.3-13.1-26c-1-2-1.9-4-2.8-6
		c0.8-7.2,1.5-14.4,2.2-21.5c0.6-7.2,1.2-14.4,1.6-21.6c-1.2,7.1-2.1,14.3-3.1,21.4c-0.8,6.2-1.5,12.4-2.2,18.6
		c-4.1-8.8-8.2-17.7-12-26.6l0-0.7c0.3-5.3,0.6-10.6,0.7-15.9l0.2-8c0-2.7,0.1-5.3,0-8c-0.4,2.6-0.6,5.3-0.9,7.9l-0.7,8
		c-0.4,4.4-0.7,8.8-1,13.1c-5.1-11.8-10.2-23.7-14.9-35.7c4.6,12.3,9.4,24.5,14.3,36.6c-3.7-2.5-7.5-5-11.3-7.4
		c-4.4-2.8-8.8-5.6-13.3-8.2c4.1,3.2,8.3,6.3,12.6,9.4c4.2,3.1,8.5,6,12.8,9l0.5,0.3c3.9,9.2,7.9,18.3,12,27.4
		c-4.2-2.5-8.4-4.9-12.7-7.2c-4.9-2.7-9.9-5.5-14.9-8c4.7,3.1,9.4,6.2,14.2,9.1c4.8,3,9.6,5.9,14.4,8.8l0.2,0.1c0.9,2,1.8,4,2.7,5.9
		c4.2,9.1,8.7,18.1,13.4,27c-4.2-2.2-8.5-4.3-12.7-6.4c-5-2.5-10.1-4.9-15.2-7.2c4.8,2.9,9.7,5.6,14.7,8.4c4.9,2.7,9.8,5.4,14.8,8
		c1.2,2.3,2.5,4.6,3.7,6.9c3.8,6.8,7.8,13.7,12.2,20.2c-3.5-1.8-7.1-3.6-10.6-5.4l-7-3.4c-2.3-1.1-4.7-2.2-7.1-3.2
		c2.2,1.4,4.4,2.7,6.6,4l6.7,3.8c4.4,2.5,8.9,4.9,13.5,7.3c2.6,3.7,5.4,7.3,8.5,10.8l0.9,1l0.6-1.1c5.3-10.2,9.7-20.7,13.5-31.4h0
		c5.1-4.5,10.1-9,15-13.7l7.4-6.9c2.4-2.4,4.9-4.7,7.3-7.1c-2.7,2.1-5.2,4.3-7.9,6.4l-7.7,6.6c-4.3,3.7-8.6,7.4-12.8,11.2
		c0.9-2.5,1.8-5.1,2.6-7.7L991.7,676.3L991.7,676.3z"/>
	<path class="st17" d="M120.1,701.3c0,0,13.7-79.7-41.1-123.4c0,0,65.9,26.7,58.2,123.4H120.1z"/>
	<path class="st19" d="M132,711.5c0,0-11.1-88.2,34.2-172.2c0,0-30.3,101.1-17.7,172.2H132z"/>
	<path class="st17" d="M148.5,697.9c0,0-13.9-111.4,75.1-124.3c0,0-71.9,17.3-63.3,124.3H148.5z"/>
	<path class="st21" d="M-13.3,635.1c26.6-12,57.9-13.3,85.3-3.4c27.5,9.9,50.8,30.8,63.6,57c4.6-10.3,17.4-16.7,28.5-14.9
		c11.1,1.8,20.4,11.6,21.5,22.8c24.1-24.1,61.1-36.2,95.1-34.1c34,2.1,66.8,19.3,87.8,46.2c22.6-22.6,58.1-27.8,86.3-12.7
		c28.2,15.1,44.5,49.7,38.3,81.1H-12.6L-13.3,635.1L-13.3,635.1z"/>
	<g class="st27">
		<path class="st21" d="M67,669.6c-25.7-9.3-54.8-8.8-80.2,1.2l0.5,106.3h498.2c-6.1-18.1-18.7-34.1-35.6-43.1
			c-28.2-15.1-63.7-10-86.3,12.7c-21-26.9-53.8-44.1-87.8-46.2c-34-2.1-71,10-95.1,34.1c-1.1-11.2-10.4-21-21.5-22.8
			c-11.1-1.8-23.9,4.6-28.5,14.9C117.8,700.4,94.5,679.5,67,669.6L67,669.6z"/>
	</g>
	<path class="st21" d="M1441.4,643.8c-0.1-16.5-0.3-33.2-4.8-49.1c-4.6-15.9-19.1-36.4-35.4-38.3c-27.1-3.1-55.3,5.1-76.4,22.3
		c-21.1,17.2-34.9,43.2-37.4,70.3c-7.3-6.6-16-10.7-25.5-12.9c-9.6-2.2-20.1-1.1-28.4,4.1c-8.3,5.2-14.2,14.7-13.9,24.5
		c-14.4-21.6-41-34.8-66.8-32c-10.6,1.2-20.9,5-29.9,10.7c-5.1-6.4-8.9-13.7-11.6-21.4c-0.6,8.6,1.7,17.3,6.3,24.5
		c-7.2-3-15.2-3.6-23.1-2.3c6.8,0.3,13.6,2.3,19.5,5.7c-8.8,7.5-15.8,17.1-20,27.9c-12-9.9-26.5-17.2-41.7-20.4
		c1.6-5.1,4.5-10.2,7.9-14c-5.5,2.5-9.9,7.2-12.3,12.7c-1.3-5.3-4.8-10.3-9.1-13.6c3.5,3.6,5.4,8.6,5.5,13.7
		c-9.4-1-18.9-0.4-28.1,2.3c-26.7,7.8-48.9,29.5-57.3,56.1c-16.9-15.7-42.7-21.8-64.9-15.7c-3.4-5.8-4.7-12.9-3.4-19.4
		c-4.3,5.9-5.5,13.9-3.5,21c-5.9-3-13.1-4.4-19.3-3.7c5,1,9.7,3.6,13.4,7.2c-23,12.6-37.4,39.7-34.7,65.8
		c35.4,28.7,79.6,39.7,124.8,45.9c100.6,13.8,202.1,21.8,303.6,24c36.9,0.8,76.2,0.2,107.2-19.8c27.2-17.5,44.1-48,51.9-79.4
		C1441.7,709,1441.6,676.2,1441.4,643.8L1441.4,643.8z"/>
	<g>
		<path class="st28" d="M1441.4,643.8c-0.1-10.9-0.2-21.9-1.5-32.7c-2.8-1.5-5.8-2.5-8.8-2.8c-27.1-3.1-55.3,5.1-76.4,22.3
			c-21.1,17.2-34.9,43.2-37.4,70.3c-7.3-6.6-16-10.7-25.6-12.9c-9.6-2.2-20.1-1.1-28.4,4.1c-8.3,5.2-14.2,14.7-13.9,24.5
			c-14.4-21.6-41-34.8-66.8-32c-10.6,1.2-20.9,5-29.9,10.7c-5.1-6.4-8.9-13.7-11.6-21.4c-0.6,8.6,1.7,17.3,6.3,24.5
			c-7.2-3-15.2-3.6-23.1-2.3c6.8,0.3,13.6,2.3,19.5,5.7c-8.8,7.5-15.8,17.1-20,27.9c-12-9.9-26.5-17.2-41.7-20.4
			c1.6-5.1,4.5-10.2,7.9-14c-5.5,2.5-9.9,7.2-12.3,12.7c-1.3-5.3-4.8-10.3-9.1-13.6c3.5,3.6,5.4,8.6,5.5,13.7
			c-9.4-1-18.9-0.4-28.1,2.3c-26.7,7.8-48.9,29.5-57.3,56.1c-16.9-15.7-42.7-21.8-64.9-15.7c-3.4-5.8-4.7-12.9-3.4-19.4
			c-4.3,5.9-5.5,13.9-3.5,21c-5.9-3-13.1-4.4-19.3-3.7c5,1,9.7,3.6,13.4,7.2c-13.9,7.6-24.7,20.5-30.4,35.4
			c28,13.4,59,20.1,90.6,24.4c100.6,13.8,202.1,21.8,303.6,24c36.9,0.8,76.1,0.2,107.2-19.8c27.2-17.5,44.1-48,51.9-79.4
			C1441.7,709,1441.6,676.2,1441.4,643.8L1441.4,643.8z"/>
	</g>
	<path class="st24" d="M652.8,423.9l7.4,0.2"/>
	<path class="st24" d="M581.6,422.1l57.1,1.4"/>
	<path class="st24" d="M610.1,439.4L687,441"/>
	<path class="st24" d="M680.1,468.2l11.2,0.4"/>
	<path class="st24" d="M591.8,464.9l79.3,2.9"/>
	<path class="st24" d="M643.5,476.8l97.6,3.5"/>
	<g>
		<defs>
			<rect id="SVGID_00000062885072225209946530000010540617650591093893_" x="609.2" y="232.3" width="228" height="322"/>
		</defs>
		<clipPath id="SVGID_00000144296825213653095910000013281600596960918448_">
			<use xlink:href="#SVGID_00000062885072225209946530000010540617650591093893_"  style="overflow:visible;"/>
		</clipPath>
		<g style="clip-path:url(#SVGID_00000144296825213653095910000013281600596960918448_);">
			<path class="st30" d="M635.5,532.2c-3.3,2.5-6.7,5.4-7.6,9.4c-0.6,2.9,0.5,6.4,3.2,7.5c0,2.1,1.8,3.9,3.8,4.7
				c4.7,1.8,9.8-1.2,14-4.1c5.7-4,11.4-8,17.1-12c2.7-1.9,5.7-4.4,5.6-7.7c-0.1-1.7-1-3.2-2.1-4.5c-3.5-4.1-10.8-7.5-16.1-5.3
				C647.2,522.8,640.9,528.1,635.5,532.2L635.5,532.2z"/>
			<path class="st31" d="M631.1,549.1c0,0-0.4-1.7,1-4.1c1.5-2.4,4.4-4.1,4.4-4.1s-3.4,0.8-5,2c-1.6,1.3-2.4,4.6-2.4,4.6
				s0.2,0.7,0.8,1.2C630.5,549.2,631.1,549.1,631.1,549.1L631.1,549.1z"/>
			<path class="st32" d="M761.3,393.4c0,0-0.3-2.7-1.4-5.5c-1.5-4-7.5-4-7.5-4l-2.6,19.3l4.4,4.5l5.4-4.5L761.3,393.4z"/>
			<path class="st32" d="M656.4,383.3c0,0,0.1-2.5,3.5-5c3.4-2.6,6.5-2,6.5-2l-1.5,21.3h-5.8L656.4,383.3L656.4,383.3z"/>
			<path class="st31" d="M799.5,499.5c8.2-4.3,15.6-10.2,22.6-16.3c3.2-2.9,6.5-5.9,8.4-9.7c1.4-2.7,3.1-6.3,6-5.6
				c1.4,1.5,0.5,3.9-0.5,5.7c-11.3,20.5-29.4,37.3-50.7,46.9c-4.4,2-9.1,3.7-13.9,3.7c-1,0-2-0.1-2.9-0.6c-1.7-0.9-2.5-2.8-2.8-4.7
				c-1.1-7,3.3-12.7,9.9-12.7C783.9,506.2,792.2,503.3,799.5,499.5z"/>
			<path class="st30" d="M784.7,443.1c2.5-0.4,5.3-0.5,7.6,0.5c5,2.2,6.8,8.5,6.9,14c0.2,10.6-3.2,20.9-7,30.7
				c-4,10.5-8.4,20.8-13.2,30.9c-1.6,3.4-3.7,7.2-7.2,8.4c-3.7,1.3-8-0.6-10.5-3.7c-2.5-3.1-3.5-7.1-4.2-11
				C752.8,489.1,754.8,448.1,784.7,443.1L784.7,443.1z"/>
			<path class="st30" d="M627.6,450.4c-2.6,0.2-5.2,0.8-7.3,2.4c-4.3,3.4-4.5,9.9-3.2,15.2c2.4,10.3,8.3,19.4,14.4,28.1
				c6.5,9.2,13.3,18.1,20.5,26.7c2.4,2.9,5.3,6,9.1,6.4c3.9,0.3,7.6-2.6,9.2-6.2c1.6-3.6,1.6-7.7,1.3-11.7
				C669.9,487.1,657.9,447.8,627.6,450.4z"/>
			<path class="st30" d="M641.5,473.7c-1.3,10.5-2.1,21.2,0.5,31.6c2.7,10.3,9.2,20.3,19.7,25.7c6,3.1,12.9,4.5,19.8,5.4
				c12.9,1.7,26,1.6,39,1.1c15-0.7,30.2-2,44-7.1c3.5-1.3,7-2.9,9.6-5.3c3.6-3.4,4.9-8.1,5.8-12.7c2.9-15.7,0.9-31.9-2.9-47.5
				c-5.9-24.5-16.3-48.4-32.7-69c-5.8-7.3-12.7-14.4-22-17.8c-6-2.2-12.6-2.8-19.1-2.7c-13.1,0.2-32,3.7-38.8,14.7
				c-9.4,15-13.1,34.7-16.9,51.2C644.8,451.9,642.9,462.8,641.5,473.7L641.5,473.7z"/>
			<path class="st30" d="M662.7,376.4c-0.4,8.8-0.7,17.7,0.7,26.4c2.6,16.7,11.7,31.9,24.1,40.2c12.4,8.3,27.8,9.6,40.9,3.5
				c6.1-2.9,11.7-7.3,16.1-13.2c12.3-16.6,12.9-41.5,9.7-63.6c-1.2-8.1-2.7-16.1-5.7-23.5c-9.2-22.9-30.7-35.8-51.7-38.3
				c-6.2-0.7-12.7-0.7-18.4,2.5C660.3,320.3,663.5,357.1,662.7,376.4z"/>
			<path class="st31" d="M678.7,402.6c13.2,12.3,31.4,21.4,48.9,17.2c18.9-4.6,32-26,27.3-44.9c-3.2-12.7-13.1-23-24.8-28.8
				c-11.7-5.8-25.2-7.4-38.2-7c-8.3,0.3-17,1.4-23.9,6.2C648.2,358.9,665.7,390.5,678.7,402.6z"/>
			<path class="st33" d="M623.4,278.4c-1.4,0.5-2.9,1.1-3.8,2.3c-0.7,1-0.9,2.3-1.1,3.5c-0.7,5.8-0.8,11.6-0.3,17.4
				c0,0.5,0.1,1,0.4,1.4c0.5,0.8,1.6,1,2.6,1.2c11.5,1.6,22.6,6.6,31.4,14.2c2.2,1.9,4.9,4.1,7.7,3.3c1.5-0.4,2.7-1.7,3.7-2.9
				c3.9-4.6,7.7-9.3,10.2-14.8c2.5-5.5,3.5-11.8,1.8-17.6c-1.2-4.1-4-7.8-7.7-9.9c-3.6-2.1-8.8-1.6-12.9-1.9
				C644.6,273.6,633.7,274.9,623.4,278.4L623.4,278.4z"/>
			<path class="st33" d="M719.9,239.6c4.2-3,9.4-5.4,14.5-4.4c6.2,1.2,10.5,6.9,16.5,8.9c-6.1,13.8-7.4,29.2-8.3,44.2
				c-0.3,4.3-0.6,8.9-3.3,12.3c-3.4,4.4-9.7,5.6-15,4.2c-5.3-1.5-9.8-5.1-13.6-9.1c-3.9-4-7.4-8.5-9.2-13.7
				c-2.8-7.8,0.1-15.8,3.2-23.1C707.9,251.2,713.2,244.5,719.9,239.6L719.9,239.6z"/>
			<path class="st30" d="M765.6,329.6c-3.7-10.1-9.1-19.3-14.8-28.3c-5.6-8.8-11.6-17.4-17.8-25.7c-3.2-4.3-6.5-8.5-10.6-11.7
				c-8.5-6.7-20-9.1-29.9-6.1c-13.3,4.1-41.7,8-42.3,59c-0.3,24.7,2.4,51.5,19,69.3c14.3,15.4,36,21.7,55.6,18.2
				c10.7-1.9,20.9-6.5,29-14c8.1-7.4,14-17.8,15.7-29.2C771.1,350.7,769.3,339.7,765.6,329.6L765.6,329.6z"/>
			<path class="st33" d="M691.6,279.1c-2.8-1.8-6-2.7-9.3-3.1c-6.8-0.8-13.8,0.7-19.9,3.6c-1.6,0.8-4,2-5.6,2.6
				c-4.2,8.1-6.8,19-7,34.7c-0.2,15.9,1.4,32.6,6.6,47.3c2.8-1.4,5.5-3.3,7.9-5.2c9.8-7.7,19.4-16.9,22.7-28.9
				c0.8-2.9,1.2-5.9,2.2-8.8c2.1-6.2,6.7-11.3,9-17.5C701.5,295.2,699.3,284.1,691.6,279.1L691.6,279.1z"/>
			<path class="st34" d="M744.8,264.8c2.3,1.9,4.6,3.9,7.4,4.9c2.7,1,5.8-0.8,6.8-2.4c3.9-6.1,4.6-13.4,1.8-20.1
				c-1.4-3.4-4.1-6.1-7.1-8.3c-4.1-3-8.9-5.1-13.9-6.1c-4.6-0.9-9.5-0.9-13.8,1c-2.8,1.2-9.3,5.9-10.1,8.9
				c-0.1,0.3,5.7-3.9,13.1,2.2C737.8,252,738,259.3,744.8,264.8L744.8,264.8z"/>
			<path class="st34" d="M626.6,275.6c-6.2,2.5-19.6,8.1-17.1,27.7c0.7,5.5,2.3,10.8,4.9,15.7c2,3.8,4.4,7.4,8,9.7
				c3.5,2.3,8.4,3.1,12.1,0.9c6-5.7-9.6-16.4-5.8-32.3c1.8-7.4,6.6-17.7,12.4-22.7C641.1,274.6,634.9,272.3,626.6,275.6L626.6,275.6
				z"/>
			<path class="st31" d="M717.2,389.4c-1,1.6-2.3,3.1-3.9,4.1c-2.4,1.4-5.2,1.6-7.9,1.8c3.1,0.4,6.4,0.4,9.4-0.6
				c3-1,5.5-3.3,6.9-6.1c1.7-3.5,2.3-8.3,1.7-12.9c-0.2-1.3-1.4-2.2-2-3.3c-0.3-0.6-0.9-1.1-1.5-1.3c-2.3-0.4-0.9,2.5-0.6,3.4
				c0.5,1.7,0.8,3.4,0.8,5.2C719.9,383.1,719,386.5,717.2,389.4z"/>
			<path class="st31" d="M732,385.4c1.7,0.8,3.6,1.4,5.5,1.3c2.7-0.1,5.3-1.4,7.7-2.7c-2.4,2.1-5.2,3.8-8.2,4.5
				c-3.1,0.7-6.4,0.2-9.1-1.5c-3.3-2-6.4-5.8-8.4-9.9c-0.6-1.2,0-2.6-0.1-3.9c0-0.7,0.1-1.4,0.6-1.9c1.8-1.6,2.1,1.6,2.4,2.5
				c0.5,1.7,1.2,3.3,2.1,4.8C726.3,381.6,728.9,384,732,385.4L732,385.4z"/>
			<path class="st35" d="M689.9,356.8c-4.8,3.8-6.2,8.2-2.7,11.7c2.7,2.8,10.8,1.7,14.7,2.5c4.4,0.9,8.2,3.8,12.5,5.3
				c4.3,1.5,10,1,12.1-3c0.6-1.2,0.8-2.5,1.3-3.7c1.7-4.2,6-6.5,9.5-9.2c3.6-2.7,6.9-7.1,5.5-11.3c-1.5-4.5-7.3-5.7-12-5.5
				C719.2,344.2,695.1,352.7,689.9,356.8L689.9,356.8z"/>
			<path class="st36" d="M691.8,365.8c1.1,0.2,2.2-0.2,3-0.9c0.9-0.7,1.5-1.5,2.2-2.4c3.1-3.7,7.1-6.6,11.6-8.3
				c0.8-0.3,1.6-0.6,2.2-1.1c0.6-0.6,1.1-1.4,0.8-2.2c-0.5-1.5-14.4,5.2-15.6,6C694.3,357.9,685.3,364.4,691.8,365.8z"/>
			<path class="st31" d="M659.8,473c2,6.8,3.6,13.7,5.2,20.6c2.5,10.9,4.2,28.1,6.8,39c0.7,2.9,2.3-0.3,4.2,1.9
				c1.9,2.2,5.5,3.4,7.9,1.6c2.3-1.6,2.6-4.9,2.6-7.7c-0.2-27.9-10-55-23.4-79.4c-0.8-1.4-3.3-6.5-5.5-6.3c-2.2,0.2-2.3,6.9-2.3,8.7
				C655.2,458.9,657.7,466.1,659.8,473L659.8,473z"/>
			<path class="st31" d="M706.8,537.8c0,0-6.4,0.1-8.9-0.1c-2.5-0.1-0.9-1.4-1.2-4c-3.6-23.5-6.4-47.1-8.5-70.8
				c-0.3-3-1.7-12.6,2.8-7.9c3.1,3.2,5.1,9.8,6.8,14c3.9,9.7,6.6,20,7.9,30.5C707,511,708.1,526.8,706.8,537.8z"/>
			<path class="st30" d="M658.8,432.7c-2.4,3.9-2.7,8.7-2.2,13.2c0.8,8.2,3.4,16,6,23.8c6.8,20.9,12.6,42,17.5,63.4
				c0.4,1.6,0.8,3.2,1.8,4.5c1,1.1,2.5,1.7,3.9,2.2c2.4,0.8,4.8,1.3,7.3,1.5c0.5,0,0.9,0.1,1.3-0.1c0.8-0.4,6.5-2.9,6.5-3.8
				c0.2-15.8-0.5-29-0.1-44.5c0.4-15.5-1.4-31.2-7.2-45.5c-2-5-4.6-9.9-8.9-13.1c-3.8-2.8-9.2-4.2-13.6-5.9
				C666.5,426.5,661.5,428.5,658.8,432.7L658.8,432.7z"/>
			<path class="st30" d="M673.5,531.5c-2.1,1.3-4.2,2.8-5.3,5c-1.2,2.5-0.9,5.7,0.9,7.9c1.7,2.2,4.7,3.2,7.5,2.6
				c-0.5,2.5,1.7,4.8,4.1,5.5c3.5,1.1,7.7-0.3,9.8-3.3c1.3,1.8,3.9,2.2,5.9,1.3c2-0.9,3.3-2.9,3.9-4.9c0.6-2.1,0.7-4.3,0.6-6.4
				c0-3.6-0.5-7.8-3.4-10c-1.4-1.1-3.2-1.5-5-1.7C686.1,526.8,679.1,528.2,673.5,531.5L673.5,531.5z"/>
			<path class="st31" d="M676.6,547.1c0,0-0.3-1,0.5-3.2c0.8-2.2,3.6-5.4,3.6-5.4s-3.4,1.1-4.9,3.4c-1.7,2.8-2.1,5.2-2.1,5.2
				s0.3,0.3,1.3,0.4C676.1,547.6,676.6,547.1,676.6,547.1z"/>
			<path class="st31" d="M690.5,549.4c0,0-0.5-0.9-0.2-3.2c0.3-2.3,2.4-6.1,2.4-6.1s-2.3,1.2-3.6,4.5c-1.2,3.1-1.2,7.1-1.2,7.1
				s0.6-0.3,1.4-1C690.3,549.8,690.5,549.4,690.5,549.4L690.5,549.4z"/>
			<path class="st31" d="M762.7,470.5c-1.7,6.9-2.8,13.9-4.2,20.9c-3.6,18.9-3.6,28.1-3.6,40.2c0,3-3.4-1-5.3,1.3
				c-1.8,2.3-5.3,3.6-7.8,2c-2.4-1.5-2.8-4.7-3-7.5c-1.2-27.9,7.2-55.4,19.3-80.5c0.7-1.5,3-6.6,5.2-6.5c2.2,0.1,2.7,6.8,2.8,8.6
				C766.6,456.2,764.4,463.5,762.7,470.5L762.7,470.5z"/>
			<path class="st31" d="M719.1,537.6c0,0,6.4-0.3,8.9-0.5c2.5-0.3,0.8-1.5,1-4c2.4-23.7,4-47.4,4.9-71.1c0.1-3,1.1-12.7-3.2-7.7
				c-2.9,3.4-4.6,10.1-6.1,14.3c-3.4,9.9-5.6,20.3-6.3,30.9C717.5,510.8,717.2,526.7,719.1,537.6L719.1,537.6z"/>
			<path class="st30" d="M761.6,430.2c2.6,3.7,3.1,8.5,2.9,13.1c-0.3,8.2-2.6,16.1-4.7,24c-5.7,21.2-10.5,42.6-14.3,64.2
				c-0.3,1.6-0.6,3.3-1.6,4.5c-0.9,1.2-2.4,1.8-3.8,2.4c-2.3,0.9-4.8,1.5-7.2,1.9c-0.5,0.1-0.9,0.1-1.4-0.1
				c-0.8-0.3-6.6-2.6-6.7-3.4c-1-15.7-1-29-2.1-44.5c-1.1-15.4-0.2-31.2,4.9-45.8c1.7-5.1,4.1-10.1,8.3-13.5c3.7-3,8.9-4.7,13.2-6.6
				C753.6,424.4,758.7,426.1,761.6,430.2L761.6,430.2z"/>
			<path class="st30" d="M752,529.6c2.2,1.2,4.3,2.6,5.5,4.8c1.3,2.4,1.2,5.6-0.5,7.9c-1.6,2.3-4.6,3.5-7.3,3
				c0.7,2.4-1.4,4.9-3.8,5.7c-3.5,1.3-7.7,0.1-10-2.8c-1.2,1.8-3.8,2.4-5.8,1.6c-2-0.8-3.4-2.7-4.2-4.7c-0.7-2-0.9-4.2-1-6.4
				c-0.1-3.6,0.1-7.8,2.8-10.1c1.4-1.2,3.1-1.7,4.9-2C739.1,525.5,746.3,526.5,752,529.6L752,529.6z"/>
			<path class="st31" d="M735.9,548.3c0,0,0.4-0.9,0.1-3.2c-0.4-2.3-2.7-6-2.7-6s2.4,1.1,3.8,4.3c1.3,3,1.5,7.1,1.5,7.1
				s-0.6-0.3-1.4-0.9C736.2,548.7,736,548.3,735.9,548.3L735.9,548.3z"/>
			<path class="st31" d="M749.7,545.3c0,0,0.2-1.9-0.6-4.1c-0.9-2.2-3.4-4.4-3.4-4.4s3.9,1.7,5,3.1c1.8,2.3,2.2,5.2,2.2,5.2
				s-0.1,0.2-1.4,0.3C750.1,545.5,749.7,545.3,749.7,545.3L749.7,545.3z"/>
			<path class="st33" d="M643.5,474.9c-4.7-2.8-11.6-1.2-15-5.4c-4.1-5.2-0.5-12.1-5.5-17.3c-0.1-0.1-0.3-0.3-0.4-0.4
				c-0.8,0.3-1.6,0.8-2.3,1.3c-4.3,3.4-4.5,9.9-3.2,15.2c2.4,10.3,8.3,19.4,14.4,28.1c2,2.9,4.1,5.8,6.2,8.6
				c1.4-1.6,2.7-3.4,3.9-5.1c2.8-3.8,5.5-7.8,6.4-12.5C649,482.7,647.6,477.3,643.5,474.9L643.5,474.9z"/>
			<path class="st30" d="M791,531.5c3.2,2.5,6.6,5.5,7.4,9.5c0.6,2.9-0.6,6.4-3.4,7.5c-0.1,2.1-1.9,3.9-3.9,4.6
				c-4.8,1.7-9.8-1.4-13.9-4.4c-5.6-4.1-11.3-8.2-16.9-12.3c-2.7-1.9-5.7-4.5-5.4-7.8c0.1-1.7,1.1-3.2,2.2-4.4
				c3.5-4,10.9-7.3,16.2-5C779.5,521.8,785.7,527.3,791,531.5L791,531.5z"/>
			<path class="st31" d="M795,548.4c0,0,0.5-1.7-1-4.1c-1.4-2.4-4.3-4.2-4.3-4.2s3.4,0.8,5,2.1c1.6,1.3,2.3,4.7,2.3,4.7
				s-0.2,0.7-0.8,1.2C795.6,548.5,795,548.4,795,548.4L795,548.4z"/>
			<path class="st35" d="M663.9,325.4c0,0-0.3-9,7.7-11.9c8.4-3.1,12.8,2.7,12.8,2.7s-7.6-10.9-15.7-8.8
				C657.3,310.4,663.9,325.4,663.9,325.4z"/>
			<path class="st35" d="M738.5,300.2c0,0-6.9-5.7-14.1-1.1c-7.6,4.8-5.7,11.8-5.7,11.8s-4-12.6,2.6-17.8
				C730.6,285.7,738.5,300.2,738.5,300.2L738.5,300.2z"/>
			<path class="st37" d="M719.6,423.3c0,0-0.9,0-0.9,1.1c-0.1,1.1,0.6,14,0.6,14.8c0.1,1.8,1.2,1.5,1.2,1.5l2.3-1l1.4-6.3l-1-9.4
				l-2.2-0.8L719.6,423.3L719.6,423.3z"/>
			<path class="st38" d="M656.4,383.3c0,0,5,40.4,54.3,41.1c45.1,0.6,50.6-31,50.6-31v15.9c0,0-5.5,29.3-47,30.9
				c-49.1,1.9-59.1-39.8-59.1-39.8L656.4,383.3L656.4,383.3z"/>
			<path class="st39" d="M741.6,453.9c1.5-0.7,2.7-2,3.1-3.6c0.4-1.6-0.1-3.4-1.5-4.3c-1.1-0.7-2.5-0.8-3.8-0.4
				c-1.2,0.4-2.7,1.2-4.1,2.2h-23.7c-1.7-1.3-3.5-2.4-4.9-2.8c-1.3-0.4-2.7-0.3-3.8,0.4c-1.4,0.9-1.9,2.8-1.5,4.3
				c0.4,1.6,1.7,2.8,3.1,3.6c-2.4,0.7-3.6,3.3-3.6,5.8c0,1.9,0.8,4.1,2.5,4.9c2.1,1,4.5-0.4,6.3-1.9c0.3-0.3,0.7-0.6,1-0.9h23.9
				c0.5,0.5,1.1,1,1.7,1.5c1.8,1.5,4.2,2.8,6.3,1.9c1.8-0.8,2.5-2.9,2.5-4.9C745.3,457.2,744,454.6,741.6,453.9L741.6,453.9z"/>
			<path class="st37" d="M704.5,453.3c0.3-0.2,0.6-0.5,0.1-0.9c-1.5-0.7-2.7-2-3.1-3.6c-0.1-0.2-0.1-0.4-0.1-0.6
				c-0.1,0.5,0,1.1,0.1,1.6C701.8,451,703,452.7,704.5,453.3z"/>
			<path class="st37" d="M741.6,453c-0.6,0.5-0.5,0.9,0,0.9c1.9-0.8,2.8-2.3,3.1-3.6c0.1-0.5,0.2-1,0.1-1.6c0,0.2-0.1,0.4-0.1,0.6
				C744.3,451,743.1,452.2,741.6,453z"/>
			<path class="st37" d="M742.7,463.6c-2.1,1-4.5-0.4-6.3-1.9c-0.6-0.5-1.1-1-1.7-1.5h-23.9c-0.3,0.3-0.7,0.6-1,0.9
				c-1.8,1.5-4.2,2.8-6.3,1.9c-1.6-0.7-2.4-2.6-2.5-4.4c0,0.2,0,0.3,0,0.5c0,1.9,0.8,4.1,2.5,4.9c2.1,1,4.5-0.4,6.3-1.9
				c0.3-0.3,0.7-0.6,1-0.9h23.9c0.5,0.5,1.1,1,1.7,1.5c1.8,1.5,4.2,2.8,6.3,1.9c1.8-0.8,2.5-2.9,2.5-4.9c0-0.1,0-0.3,0-0.5
				C745.1,461,744.3,462.9,742.7,463.6L742.7,463.6z"/>
			<path class="st40" d="M702,457.8c-0.4,1.4,0,3,1.2,3.8c0.3,0.2,0.6,0.3,0.9,0.3c0.3-0.1,0.5-0.4,0.6-0.7c0.1-0.3,0.1-0.6,0-1
				c-0.1-0.6-0.2-1.1-0.1-1.7c0-0.6,0.3-1.2,0.7-1.5c0.5-0.4,1.3-0.6,1.5-1.2c0.1-0.5-0.3-1-0.8-1.1
				C704.2,454.1,702.4,456.2,702,457.8L702,457.8z"/>
			<path class="st40" d="M702.8,447.6c0.2,0.1,0.5,0.1,0.8,0c0.2-0.1,0.5-0.3,0.7-0.4c0.9-0.5,2-0.5,2.9-0.1c0.3,0.1,0.6,0.2,0.8,0
				c0.1-0.1,0.2-0.4,0.1-0.5c-0.1-0.2-0.2-0.3-0.4-0.4c-0.7-0.5-1.7-0.6-2.6-0.5C704.6,445.7,701.3,446.8,702.8,447.6z"/>
			<path class="st40" d="M738.3,447c-0.2,0.2-0.5,0.4-0.7,0.6c-0.2,0.3-0.2,0.6,0,0.9c0.2,0.3,0.7,0.3,1.1,0.1
				c0.4-0.2,0.6-0.5,1-0.7c0.5-0.3,1.2-0.3,1.8-0.2c0.3,0,0.5,0.1,0.8,0.1c0.3,0,0.5-0.1,0.7-0.3c0.2-0.3,0.1-0.8-0.2-1.1
				c-0.3-0.2-0.7-0.3-1.1-0.3C740.2,445.9,739.3,446.3,738.3,447L738.3,447z"/>
			<path class="st39" d="M719.6,423.3c0,0,2.5-0.5,2.6,4c0.2,4.5,0.4,10.7,0,11.6c-0.8,1.7-1.7,1.8-1.7,1.8l5.1-0.5
				c0,0,0.9-0.7,1-2.7c0.2-2.6-0.5-11.3-0.6-12.4c-0.2-2.1-1.5-2.4-1.5-2.4L719.6,423.3L719.6,423.3z"/>
			<path class="st40" d="M722.1,423.6c-0.1,0.2,0,0.5,0.1,0.7c0.1,0.2,0.3,0.4,0.5,0.6c0.3,0.5,0.4,1,0.5,1.6
				c0.1,0.6,0.2,1.2,0.3,1.8c0,0.1,0.1,0.3,0.2,0.3c0.2-0.6,0.2-1.2,0.1-1.9c-0.1-0.7-0.2-1.4-0.2-2.1c0-0.3-0.1-0.5-0.2-0.8
				C723.2,423.5,722.3,423,722.1,423.6L722.1,423.6z"/>
			<path class="st39" d="M719.5,442c-0.3,1.2,0.1,1.9,0.5,2.4c1.1,1.1,3.9,1.4,5.2,0.8c1.2-0.6,1.7-2,1.7-3.1c0-0.7-0.4-1.4-0.9-1.9
				c-0.5-0.5-1.2-0.7-1.9-0.7c-0.3,0-0.7,0.1-0.7,0.4c-0.1,0.4,0.3,0.6,0.7,0.7c0.4,0.2,0.9,0.4,1.1,0.7c0.4,0.6,0.2,1.5-0.3,2
				c-0.6,0.5-1.4,0.5-2.1,0.4c-1.5-0.2-1.7-1.5-1.4-2c0.3-0.5,0.7-1,1.1-1.4c0.1-0.1,0.2-0.2,0.1-0.4c-0.1-0.3-0.5-0.2-0.7,0
				C721.1,440.5,719.5,440.9,719.5,442L719.5,442z"/>
			<path class="st39" d="M722.1,442.8c-0.2,0.4-0.2,0.8-0.2,1.2c0.1,1.1,0.2,2.2,0.4,3.2c0.1,0.6,0.3,1.3,0.8,1.6
				c0.5,0.4,1.3,0.2,1.7-0.3c0.3-0.4,0.3-1,0.3-1.5c0-1-0.1-2-0.1-3c0-0.4,0-0.8-0.2-1.1C724.3,442.4,722.6,442,722.1,442.8
				L722.1,442.8z"/>
			<path class="st37" d="M725,445.2c0.5-0.2,0.8-0.5,1.2-0.8c-0.2,0-0.3-0.1-0.4-0.2c-0.3-0.2-0.7-0.6-0.8-1c0,0-0.1,0.1-0.1,0.1
				c0,0.1,0,0.2,0,0.2c0,0.2,0,0.4,0.1,0.5C724.9,444.5,725,444.9,725,445.2L725,445.2z"/>
			<path class="st40" d="M722.5,443.3c-0.1,0.3-0.1,0.6,0,0.9c0.1,0.6,0.2,1.3,0.3,1.9c0,0.3,0.1,0.6,0.3,0.9
				c0.1,0.1,0.3,0.2,0.4,0.1c0,0,0.1-0.1,0.1-0.1c0.1-0.4,0-0.8,0-1.2c-0.1-0.4-0.1-0.9-0.1-1.3c0-0.3,0-0.8,0.3-0.9
				c0.1-0.1,0.3-0.1,0.3-0.2c0-0.1-0.1-0.1-0.2-0.2C723.2,442.9,722.8,442.6,722.5,443.3L722.5,443.3z"/>
		</g>
	</g>
</g>
</svg>
