<?xml version="1.0" encoding="utf-8"?>
<!-- Generator: Adobe Illustrator 28.2.0, SVG Export Plug-In . SVG Version: 6.00 Build 0)  -->
<svg version="1.1" id="Layer_1" xmlns="http://www.w3.org/2000/svg" xmlns:xlink="http://www.w3.org/1999/xlink" x="0px" y="0px"
	 viewBox="0 0 1440 624" style="enable-background:new 0 0 1440 624;" xml:space="preserve">
<style type="text/css">
	.st0{fill:#404A2C;}
	.st1{fill:#36401C;}
	.st2{fill:#2E351D;}
	.st3{fill:#B73734;}
	.st4{fill:#D84D4E;}
	.st5{fill:#A4AD76;}
	.st6{fill:#414A2B;}
	.st7{fill:#768451;}
	.st8{fill:#83925C;}
	.st9{fill:#909E68;}
	.st10{fill:#637236;}
</style>
<path class="st0" d="M380.3,418.2c5.4-10.7,2.1-25-7.4-32.3c-9.6-7.3-24.2-6.6-33.1,1.5c15.1-18.9,21.8-45.4,13.4-68.1
	c-8.5-22.7-34.1-38.8-57.5-33c-22.2,5.6-36.1,26.9-47.4,46.8c1.6-6.3-2.9-13.4-9.3-14.8c-6.3-1.3-13.3,3.4-14.4,9.8
	c4.6-21.4-12.7-44.8-34.6-46.8c-21.8-2-43,18-42.3,39.9c-14.1-16.3-39.1-22.1-58.9-13.5c-19.8,8.6-32.7,30.8-30.4,52.2
	c-2.1-9.9-13.8-16-23.7-13.8c-9.9,2.2-17.4,11.2-20.1,21c-2.6,9.8-1.1,20.4,2.1,30c123.4,8.1,248.3,16.2,371.7,24.3L380.3,418.2
	L380.3,418.2z"/>
<g>
	<path class="st1" d="M321.1,419.3c3.6-7.2,1.4-16.8-5-21.6c-6.4-4.8-16.3-4.4-22.2,1c10.1-12.7,14.6-30.4,9-45.6
		c-5.7-15.2-22.8-26.1-38.5-22.1c-14.9,3.7-24.2,18-31.8,31.3c1-4.2-2-9-6.2-9.9c-4.2-0.9-8.9,2.3-9.7,6.6
		c3.1-14.4-8.5-30-23.1-31.3c-14.6-1.3-28.8,12-28.3,26.7c-9.4-10.9-26.2-14.8-39.5-9c-13.3,5.8-21.9,20.6-20.4,35
		c-1.4-6.7-9.2-10.8-15.9-9.2c-6.7,1.5-11.7,7.5-13.4,14.1c-1.8,6.6-0.7,13.6,1.4,20.1c82.7,5.4,166.4,10.9,249.1,16.3L321.1,419.3
		L321.1,419.3z"/>
</g>
<path class="st2" d="M239.7,128.8c-34.9,25.8-66,56.7-91.9,91.5c-7.4,9.9-14.4,20.2-21,30.8c-1.2,1.9,1.9,3.7,3.1,1.8
	c22.7-36.5,50.7-69.5,83-97.9c9.2-8.1,18.8-15.8,28.6-23.1C243.3,130.5,241.5,127.5,239.7,128.8L239.7,128.8z"/>
<path class="st2" d="M281.8,169.1c-24.5,21.4-56.4,33.8-88.9,34.9c-9.2,0.3-18.5-0.2-27.6-1.7c-2.2-0.4-3.2,3-0.9,3.4
	c33.2,5.5,67.9-1,97-17.7c8.2-4.7,15.9-10.2,22.9-16.4C286,170.1,283.5,167.6,281.8,169.1z"/>
<path class="st2" d="M203.6,104.7c-13.4,23-21.4,48.8-23.6,75.3c-0.2,2.3,3.4,2.2,3.5,0c2.1-25.9,10.1-51.1,23.1-73.6
	C207.9,104.5,204.8,102.8,203.6,104.7z"/>
<path class="st2" d="M256.8,147.9c-13.7,15.2-24.4,32.8-31.8,51.9c-0.8,2.1,2.6,3,3.4,0.9c7.1-18.5,17.6-35.6,30.8-50.3
	C260.8,148.7,258.3,146.2,256.8,147.9z"/>
<path class="st2" d="M267.5,206.6c-16.7,4-34.6,2.5-50.3-4.4c-2.1-0.9-3.9,2.1-1.8,3.1c16.7,7.3,35.3,9,53,4.8
	C270.6,209.5,269.7,206.1,267.5,206.6z"/>
<path class="st2" d="M183.9,90.4c-1.7,15.5-0.1,31.2,4.5,46.1c0.7,2.2,4.1,1.2,3.4-0.9c-4.5-14.6-6-29.9-4.3-45.2
	C187.7,88.1,184.2,88.1,183.9,90.4L183.9,90.4z"/>
<path class="st3" d="M173.1,82c-2.9,5.5-0.1,12.5,6.2,15.8c6.2,3.2,13.6,1.5,16.4-4c2.9-5.5,0.1-12.5-6.2-15.8
	C183.2,74.7,175.9,76.5,173.1,82z"/>
<path class="st3" d="M231.8,119.5c-2.9,5.5-0.1,12.5,6.2,15.8c6.2,3.2,13.6,1.5,16.4-4c2.9-5.5,0.1-12.5-6.2-15.8
	C242,112.3,234.7,114.1,231.8,119.5z"/>
<path class="st3" d="M259.6,201.2c-2.9,5.5-0.1,12.5,6.2,15.8c6.2,3.2,13.6,1.5,16.4-4c2.9-5.5,0.1-12.5-6.2-15.8
	C269.8,193.9,262.4,195.7,259.6,201.2z"/>
<path class="st4" d="M284.2,153.5c-6.6,3.6-8.6,12.7-4.5,20.2c4.1,7.6,12.8,10.7,19.4,7.1c6.6-3.6,8.6-12.7,4.5-20.2
	C299.5,153,290.8,149.9,284.2,153.5z"/>
<path class="st4" d="M248,140.5c-6.6,3.6-8.6,12.7-4.5,20.2c4.1,7.6,12.8,10.7,19.4,7.1c6.6-3.6,8.6-12.7,4.5-20.2
	C263.3,140.1,254.6,136.9,248,140.5z"/>
<path class="st4" d="M198,93.8c-3.9,6.5-1.1,15.3,6.3,19.7c7.4,4.5,16.5,2.8,20.4-3.6c3.9-6.5,1.1-15.3-6.3-19.7
	C211,85.8,201.9,87.4,198,93.8z"/>
<path class="st5" d="M207.1,201.2c-13.4-10.9-33.4-6.7-49.1,0.6C112.1,223,79.5,264.2,49.7,305.5c28.5-41.1,49.3-87.5,60.9-136.1
	c3-12.5,5.4-25.6,3.4-38.3c-2-12.8-9.2-25.3-20.9-30.8c-13.3-6.2-29.3-2.1-42.1,5.3C25.6,120.4,8.5,146.8-1,174.7
	c-9.4,27.9-12.1,57.7-14.6,87c-1.6,19-3.3,37.9-4.9,56.8c-1.5,16.9-3.4,33.9-4.4,50.8c-0.5,9.3-0.2,21.6,8.8,26.9
	c10.8,6.3,29-1.5,39.7-5c15.9-5.1,31.3-12,46.1-19.9c29.6-15.9,56.6-36.1,83.5-56.1c24.9-18.5,51-38.7,61.5-67.9
	C220.5,231.8,220,211.7,207.1,201.2L207.1,201.2z"/>
<path class="st2" d="M76.4,124c-21.5,29.5-39.5,61.4-53.9,95S-2.4,287.4-8.9,323.3c-3.7,20.1-6.1,40.3-7.2,60.7
	c-0.1,2.3,3.4,2.3,3.5,0c2-36.1,8.2-72,18.2-106.8c10.1-34.8,23.9-68.5,41.4-100.2c9.8-17.7,20.6-34.8,32.5-51.2
	C80.8,123.9,77.8,122.1,76.4,124z"/>
<path class="st2" d="M177.4,216.6c-24.9,21.6-49.7,43.3-74.5,64.9S52.9,325,28,346.7c-14,12.2-28,24.4-42,36.6
	c-1.7,1.5,0.8,4,2.5,2.5c24.9-21.6,49.7-43.3,74.5-64.9c24.9-21.6,49.9-43.5,74.8-65.2c14-12.2,28-24.4,42-36.6
	C181.6,217.5,179.1,215.1,177.4,216.6z"/>
<path class="st6" d="M1561,584.2c-6.9,61.2-87,106.1-87,106.1l-1595,3.2L1561,584.2L1561,584.2z"/>
<path class="st7" d="M1561,584.2c-28.4,10.5-56.9,20.3-85.7,29.5c-13.6,4.3-27.2,8.6-40.9,12.6c-16.1,4.8-32.3,9.4-48.4,13.7
	c-133.6,36-183.4,46.6-321,51.4c-5.5,0-100.8,2.1-106.3,2.1H-121l33.9-145.3l10.9-46.7l10.6-45.3l4.2-17.8l13.3-56.9
	c460.2,19.6,919.4,71.7,1373.9,156.1C1404.3,552.1,1482.7,567.7,1561,584.2z"/>
<g>
	<path class="st8" d="M1561,584.2c-28.4,10.5-56.9,20.3-85.7,29.5c-13.6,4.3-27.2,8.6-40.9,12.6C951.4,461.8,427.4,418.3-76.2,501.5
		l10.6-45.3l4.2-17.8l13.3-56.9c460.2,19.6,919.4,71.7,1373.9,156.1C1404.3,552.1,1482.7,567.7,1561,584.2z"/>
</g>
<g>
	<path class="st9" d="M1561,584.2c-28.4,10.5-56.9,20.3-85.6,29.5C976.1,471.9,452,418.4-65.6,456.2l4.2-17.8l13.3-56.9
		c460.2,19.6,919.4,71.7,1373.9,156.1C1404.3,552.1,1482.7,567.7,1561,584.2z"/>
</g>
<g>
	<path class="st10" d="M1325.8,537.6c-76.2,32.3-156.5,53.8-238.5,68.1c-1.6-8-4.5-16.3-9.9-22c-6.5-6.7-15.4-11.3-24.6-13
		c1,9.4,5,18.5,11.3,25.5c4.1,4.6,9.2,8.3,14.9,10.9c-95.1,16.1-192.4,22.6-288.6,25c-197.7,4.9-395.7-6.2-591.6-33.2
		c12.7-9.9,21.5-24.8,24-40.9c-16.2,3.4-30.2,14.3-37.7,29c-3.1-13.9-12.3-26.5-24.1-34.5c-4.9,13.6-2.8,29.3,4.7,41.6
		C80.7,581.8-3.5,566.4-87.1,548.1L-121,693.5H958.7c5.5,0,161.3-2.6,166.8-2.6c137.6-4.7,127-14.8,260.5-50.9
		c58.9-15.9,117.2-34.5,175-55.8C1482.7,567.7,1404.3,552.1,1325.8,537.6z"/>
</g>
<g>
	<path class="st8" d="M427.5,483c0,5.8-11,10.5-24.6,10.5c-13.5,0-24.6-4.7-24.6-10.5c0-5.8,11-10.5,24.6-10.5
		C416.5,472.5,427.5,477.1,427.5,483z"/>
	<path class="st8" d="M465.5,479.3c0,1.4-2.6,2.5-5.8,2.5s-5.8-1.1-5.8-2.5c0-1.4,2.6-2.5,5.8-2.5S465.5,477.9,465.5,479.3z"/>
	<path class="st8" d="M804.5,560.5c3.2,0,5.8-1.1,5.8-2.5c0-1.4-2.6-2.5-5.8-2.5s-5.8,1.1-5.8,2.5
		C798.6,559.4,801.2,560.5,804.5,560.5z"/>
	<path class="st8" d="M651.9,533c3.2,0,5.8-1.1,5.8-2.5c0-1.4-2.6-2.5-5.8-2.5c-3.2,0-5.8,1.1-5.8,2.5
		C646.1,531.8,648.7,533,651.9,533z"/>
	<path class="st8" d="M280.8,513c3.2,0,5.8-1.1,5.8-2.5s-2.6-2.5-5.8-2.5c-3.2,0-5.8,1.1-5.8,2.5S277.5,513,280.8,513z"/>
	<path class="st8" d="M450.7,510.5c0,3.7-7,6.7-15.6,6.7s-15.6-3-15.6-6.7c0-3.7,7-6.7,15.6-6.7S450.7,506.8,450.7,510.5z"/>
	<path class="st8" d="M704.4,530.5c8.6,0,15.6-3,15.6-6.7c0-3.7-7-6.7-15.6-6.7s-15.6,3-15.6,6.7
		C688.8,527.5,695.7,530.5,704.4,530.5z"/>
</g>
</svg>
