<?xml version="1.0" encoding="utf-8"?>
<!-- Generator: Adobe Illustrator 28.2.0, SVG Export Plug-In . SVG Version: 6.00 Build 0)  -->
<svg version="1.1" id="Layer_1" xmlns="http://www.w3.org/2000/svg" xmlns:xlink="http://www.w3.org/1999/xlink" x="0px" y="0px"
	 viewBox="0 0 1440 624" style="enable-background:new 0 0 1440 624;" xml:space="preserve">
<style type="text/css">
	.st0{fill:#52734D;}
	.st1{fill:#41603D;}
	.st2{fill:#B4D494;}
	.st3{fill:#505C43;}
	.st4{fill:#DDFFBC;}
	.st5{fill:#687858;}
	.st6{fill:#354A32;}
	.st7{opacity:0.3;}
	.st8{fill:#80B079;}
	.st9{fill:none;stroke:#68807C;stroke-miterlimit:10;}
	.st10{clip-path:url(#SVGID_00000061471644070428820270000012356248381301747384_);}
	.st11{fill-rule:evenodd;clip-rule:evenodd;fill:#FFC3A2;}
	.st12{fill-rule:evenodd;clip-rule:evenodd;fill:#903140;}
	.st13{fill-rule:evenodd;clip-rule:evenodd;fill:#DF555C;}
	.st14{fill-rule:evenodd;clip-rule:evenodd;fill:#6D040F;}
	.st15{fill:#FFC3A2;}
	.st16{fill-rule:evenodd;clip-rule:evenodd;fill:#FFE6D5;}
	.st17{fill:#903140;}
	.st18{fill:#6D040F;}
</style>
<g>
	<path class="st0" d="M1066.1,463.9c-5.9-2.1-12.8-1.4-18.2,1.8c-5.4,3.2-9.3,8.9-10.3,15.1c-4.5-4.8-12.1-6.5-18.2-4.2
		c-6.2,2.2-10.7,8.4-11.1,14.9c6.4,7.2,15.1,11.8,24.5,13.3c9.4,1.6,19.1,1,28.7,0.4c4.1-0.3,8.5-0.6,11.9-2.9
		c4.2-2.9,6-8.2,6.3-13.3C1080.3,478.3,1076.1,467.4,1066.1,463.9L1066.1,463.9z"/>
	<g>
		<path class="st1" d="M1066.1,473.8c-5.9-2.1-12.8-1.4-18.2,1.8c-5.4,3.2-9.3,8.9-10.3,15.1c-4.5-4.8-12.1-6.5-18.2-4.2
			c-6.2,2.2-10.7,8.4-11.1,14.9c6.4,7.2,15.1,11.8,24.5,13.3c9.4,1.6,19.1,1,28.7,0.4c4.1-0.3,8.5-0.6,11.9-2.9
			c4.2-2.9,6-8.2,6.3-13.3C1080.3,488.3,1076.1,477.4,1066.1,473.8L1066.1,473.8z"/>
	</g>
	<path class="st2" d="M1370.5,441.3c0,0-49.8-36.9-32.9-106.8C1337.7,334.4,1391.7,375.7,1370.5,441.3z"/>
	<path class="st3" d="M1368.7,411.7c0.5-4.6,1-9.3,1.3-13.9c-1,4.6-1.7,9.2-2.5,13.8c-0.6,3.9-1.2,7.8-1.7,11.8
		c-1.1-4-2.3-7.9-3.4-11.9l-1.1-3.5v-0.1c0.3-2.4,0.5-4.8,0.8-7.2l0.7-7.2c0.4-4.8,0.8-9.6,1.1-14.4c-0.8,4.8-1.5,9.5-2.2,14.3
		l-0.9,7.2c-0.2,1.4-0.3,2.8-0.5,4.2l-4.5-15l-1-3.1c0.3-3.8,0.6-7.6,0.8-11.4c0.2-3.8,0.4-7.6,0.4-11.5c-0.6,3.8-1,7.6-1.5,11.4
		c-0.3,2.7-0.5,5.4-0.8,8.1l-4.7-14.7v-0.4c0-2.6,0-5.1,0-7.7c-0.1-2.6-0.2-5.1-0.4-7.7c-0.3,2.6-0.5,5.1-0.7,7.7
		c-0.1,1.4-0.1,2.8-0.2,4.2c-2-6.1-4-12.2-6.1-18.2c1.8,6.5,3.6,12.9,5.5,19.4c-1.2-1.3-2.4-2.6-3.7-3.9c-1.9-1.9-3.7-3.7-5.7-5.5
		c1.6,2.1,3.2,4.2,4.9,6.2c1.7,2,3.4,4,5.2,5.9l0.2,0.2l4.7,15.5c-1.8-1.9-3.7-3.8-5.6-5.6c-2.5-2.5-5.1-5-7.8-7.3
		c2.3,2.7,4.6,5.4,7,8c2.3,2.6,4.8,5.2,7.2,7.7l0.9,3.1l4.9,15.5c-2.5-2.3-4.9-4.7-7.5-7c-3.1-2.8-6.2-5.7-9.4-8.4
		c2.8,3.1,5.8,6.1,8.7,9.1c2.9,3,6,5.9,9,8.9l0.1,0.1l1.1,3.5c1.3,4,2.6,8,4,12c-1.9-1.9-3.8-3.7-5.7-5.5c-1.2-1.1-2.3-2.3-3.6-3.3
		c-1.2-1.1-2.4-2.2-3.6-3.3c1.1,1.2,2.2,2.4,3.2,3.7c1.1,1.2,2.2,2.4,3.3,3.6c2.2,2.4,4.5,4.7,6.8,7l0.5,0.6
		c0.8,2.3,1.5,4.5,2.3,6.8c-0.6-2.3-1.3-4.6-1.9-6.9l0.1-0.8C1367.6,421,1368.1,416.4,1368.7,411.7L1368.7,411.7z"/>
	<path class="st4" d="M1368.8,459.8c0,0-59.6-17.2-68.1-88.6C1300.7,371.2,1365.7,391,1368.8,459.8z"/>
	<path class="st5" d="M1364.2,453c-1.4-1.9-2.8-3.9-4.2-5.8l-0.2-0.8c-0.9-4.6-2.1-9.1-3.1-13.6c-1.1-4.5-2.3-9-3.6-13.5
		c0.7,4.6,1.6,9.2,2.5,13.8c0.8,3.9,1.6,7.8,2.5,11.6c-2.4-3.3-4.9-6.6-7.4-10l-2.2-2.9l0-0.1c-0.5-2.3-1.2-4.7-1.8-7l-1.8-7
		c-1.3-4.6-2.6-9.3-4-13.9c0.9,4.7,1.9,9.4,3,14.1l1.7,7c0.3,1.4,0.7,2.8,1,4.2l-9.5-12.5l-2-2.5c-1-3.7-2.1-7.3-3.2-10.9
		c-1.2-3.6-2.3-7.3-3.7-10.9c0.8,3.8,1.7,7.5,2.6,11.2c0.7,2.6,1.4,5.2,2.1,7.8l-9.5-12.2l-0.1-0.4c-0.9-2.4-1.7-4.8-2.7-7.2
		c-1-2.4-1.9-4.8-3-7.1c0.6,2.5,1.3,5,2.1,7.4c0.4,1.4,0.8,2.7,1.3,4c-4-5-8-10-12.1-14.9c3.9,5.5,7.9,10.9,11.9,16.3
		c-1.6-0.8-3.2-1.6-4.8-2.3c-2.4-1.1-4.8-2.2-7.3-3.1c2.2,1.5,4.5,2.8,6.8,4.1c2.3,1.3,4.6,2.5,6.9,3.7l0.2,0.1l9.8,12.9
		c-2.4-1.1-4.8-2.2-7.2-3.3c-3.2-1.4-6.5-2.9-9.8-4.2c3.1,1.8,6.2,3.4,9.4,5.1c3.1,1.6,6.3,3.2,9.4,4.7l1.9,2.5l10,12.9
		c-3.2-1.3-6.3-2.7-9.5-4c-3.9-1.6-7.8-3.1-11.8-4.6c3.7,1.9,7.5,3.7,11.4,5.5c3.8,1.8,7.7,3.5,11.5,5.2l0.1,0l2.3,2.9
		c2.6,3.3,5.3,6.6,7.9,9.9c-2.4-1.1-4.8-2.2-7.3-3.2c-1.5-0.6-3-1.3-4.5-1.9c-1.5-0.6-3-1.2-4.6-1.8c1.4,0.8,2.9,1.5,4.3,2.3
		c1.4,0.8,2.9,1.5,4.4,2.2c2.9,1.5,5.8,2.9,8.8,4.2l0.7,0.3C1361.2,449.4,1362.7,451.3,1364.2,453L1364.2,453z"/>
	<path class="st0" d="M1384.6,432.7c-18-9.2-39.3-13.2-58.7-7.3c-19.3,5.9-35.8,22.9-37.7,43c-5.6-6.1-15.8-7.9-23.3-4.4
		c-7.5,3.5-12.1,12.2-11,20.4c-5.5-7.9-13.5-14-22.3-18.1c-8.8-4.1-19.2-4.9-28.1-1.2c-8.9,3.8-15.8,12.5-16.2,22.2
		c-3.9-10.3-16.2-16.7-27.1-18.3c-10.9-1.6-22.2,2.1-31,8.8c-8.8,6.7-15.1,16.3-19.1,26.5c23.2,22.5,56.4,26.4,88.7,28.8
		c51.8,3.8,103.7,7.6,155.5,11.4c8.9,0.7,18.7,1,25.6-4.6c6-5,8.1-13.2,9.6-20.8c3.1-15.4,5.8-31,8-46.6c0.9-6.7,1.8-13.6,0.4-20.2
		C1396.6,445.8,1390.6,435.9,1384.6,432.7L1384.6,432.7z"/>
	<g>
		<path class="st1" d="M1385.1,457.4c-18-9.2-39.4-13.2-58.7-7.3c-19.3,5.9-35.8,22.9-37.7,43c-5.6-6.1-15.8-7.9-23.3-4.4
			c-7.5,3.5-12.1,12.2-11,20.4c-5.5-7.9-13.5-14-22.3-18.1c-8.8-4.1-19.2-4.9-28.1-1.2c-8.9,3.8-15.8,12.5-16.1,22.2
			c-3.9-10.3-16.2-16.7-27.1-18.3c-10.9-1.6-22.2,2.1-31,8.8c-8.8,6.7-15.1,16.3-19.1,26.5c23.2,22.5,56.5,26.4,88.7,28.8
			c51.8,3.8,103.7,7.6,155.6,11.4c8.9,0.7,18.7,1,25.6-4.6c6-5,8.1-13.2,9.6-20.8c3.2-15.4,5.8-31,8-46.6c0.9-6.7,1.8-13.6,0.4-20.2
			C1397.1,470.5,1391.2,460.5,1385.1,457.4L1385.1,457.4z"/>
	</g>
	<path class="st6" d="M719.1,465c0,0,15.2-34.6-4.7-60.6c0,0,26.8,19.5,12.4,62.5L719.1,465L719.1,465z"/>
	<path class="st6" d="M723.4,471c0,0,4.9-41.2,35-74.1c0,0-25.2,42.4-27.5,76L723.4,471L723.4,471z"/>
	<path class="st6" d="M732.4,466.7c0,0,6.3-52.1,48-47.8c0,0-34.5-0.3-42.7,49.1L732.4,466.7z"/>
	<path class="st6" d="M144,446.9c0,0-13.2-35.4-45.6-40.1c0,0,32.8-4.8,52.5,36.1L144,446.9L144,446.9z"/>
	<path class="st6" d="M151.2,448.2c0,0-25.2-33-26.6-77.5c0,0,11.5,47.9,33.3,73.6L151.2,448.2L151.2,448.2z"/>
	<path class="st6" d="M154.7,438.8c0,0-31.8-41.7,1.1-67.8c0,0-24.9,23.9,3.7,65L154.7,438.8z"/>
	<path class="st6" d="M221.8,446.2c0-0.1-0.9-15.2,5.1-34.9c5.5-18.2,18.1-44.3,46.9-65l-0.4-0.6c-28.9,20.9-41.6,47.1-47.1,65.4
		c-6,19.9-5.1,35-5.1,35.1L221.8,446.2L221.8,446.2z"/>
	<path class="st6" d="M265.7,352.2c0,0,2.9-11.5,18.9-14C284.6,338.2,282.6,352.4,265.7,352.2z M253.6,363.7c0,0,11.8,1.8,22.7-5
		C276.4,358.7,265.9,355.7,253.6,363.7z M253.6,363.7c0,0,9.4-10.8,8.7-22.3C262.4,341.4,251.1,350.3,253.6,363.7z M243.5,376.3
		c0,0,13.1,0.1,20.9-8.2C264.4,368.1,253,367,243.5,376.3z M243.5,376.3c0,0,7.4-9.6,6.9-20C250.4,356.3,240.2,366.6,243.5,376.3z
		 M235.4,389.6c0,0,16.4-1.3,24.1-9.6C259.6,380,246.9,378.4,235.4,389.6z M235.4,389.6c0,0,5.5-10.2,4.8-21
		C240.2,368.6,231.7,375.5,235.4,389.6z M229.4,403c0,0,12.4-1.9,21.9-11C251.4,391.9,238.1,391.6,229.4,403z M229.4,403
		c0,0,3.9-10.9-1.3-20.3C228.1,382.7,225.2,394.6,229.4,403z M225.2,416.1c0,0,10.7-3.6,17.8-13.4
		C243.1,402.7,231.9,403,225.2,416.1z M225.2,416.1c0,0,3.5-9-2.1-18.5C223.1,397.6,219.8,407.5,225.2,416.1z M222.6,429
		c0,0,12.4-4.2,14.6-14.2C237.3,414.8,227.5,417,222.6,429z M222.6,429c0,0,2.4-11.7-4.2-19.2C218.4,409.8,216.1,422.4,222.6,429z"
		/>
	<path class="st0" d="M791.5,473.5c-0.2-6.2,3.5-12.4,9.1-15.1c5.6-2.7,12.7-1.8,17.5,2.2c4-9.2,12.8-16.1,22.8-17.5
		c9.9-1.4,20.5,2.8,26.8,10.6c7.6-9.2,20.4-14.6,32.1-12.4c11.7,2.2,22,11.1,25.8,22.4c4.9-3.8,12.3-5.6,18.3-3.9
		c6,1.7,11.1,6.3,13.4,12.1c5.9-4.4,15.3-2.7,21.1,1.8c5.7,4.5,9,11.5,11.1,18.5c-59.6,7.2-120.9,5.6-179.9-5.4
		C802.1,485.4,791.8,480.9,791.5,473.5L791.5,473.5z"/>
	<g>
		<path class="st1" d="M791.1,487.6c-0.2-6.2,3.5-12.4,9.1-15.1c5.6-2.7,12.7-1.8,17.5,2.2c4-9.2,12.8-16.1,22.8-17.5
			c9.9-1.4,20.5,2.8,26.8,10.6c7.6-9.2,20.4-14.6,32.1-12.4c11.7,2.2,22,11.1,25.8,22.4c4.9-3.8,12.3-5.6,18.3-3.9
			c6,1.7,11.1,6.3,13.4,12.1c5.9-4.4,15.3-2.7,21.1,1.8c5.7,4.6,9,11.5,11.1,18.5c-59.6,7.2-120.9,5.6-179.9-5.4
			C801.7,499.5,791.4,495.1,791.1,487.6L791.1,487.6z"/>
	</g>
	<path class="st0" d="M656.5,414.5c10.4-3,22-1.4,31.2,4.4c9.2,5.8,15.7,15.5,17.6,26.2c4.5-3.3,10.3-4.6,15.5-2.6
		c5.2,1.9,9.3,6.7,10.6,12.1c5-4.9,12.8-7.2,19.7-5.8c6.9,1.4,13,5.8,17.2,11.3c4.3,5.6,6.8,12.3,8.1,19.3c-9.9,4.5-21.2,5-32.1,5.1
		c-23.4,0.2-46.9,0.3-70.3-1.2c-9-0.6-18.8-1.8-25-8.3c-6.5-6.8-7-17.3-7.1-26.7c-0.1-6.2-0.1-12.6,1.6-18.6
		C645.1,423.8,650.4,416.3,656.5,414.5L656.5,414.5z"/>
	<g class="st7">
		<path class="st0" d="M650,426.5c10.4-3,22-1.4,31.2,4.4c9.2,5.8,15.7,15.5,17.6,26.2c4.5-3.3,10.3-4.6,15.5-2.6
			c5.2,1.9,9.3,6.7,10.6,12.1c5-4.9,12.8-7.2,19.7-5.8c6.9,1.4,13,5.8,17.2,11.3c4.3,5.6,6.8,12.3,8.1,19.2
			c-9.9,4.5-21.2,5-32.1,5.1c-23.4,0.2-46.9,0.3-70.3-1.2c-9-0.6-18.8-1.8-25-8.3c-6.5-6.8-7-17.2-7.1-26.7
			c-0.1-6.2-0.1-12.6,1.6-18.6C638.6,435.8,643.9,428.2,650,426.5L650,426.5z"/>
	</g>
	<path class="st4" d="M475.8,457.6c0,0-10.5-61.1,50-100C525.8,357.6,536.3,424.8,475.8,457.6z"/>
	<path class="st5" d="M503.7,404l6.8-13.9l0.3-0.3c1.8-1.8,3.6-3.7,5.3-5.6c1.7-1.9,3.4-3.8,5-5.8c-2,1.6-3.9,3.4-5.8,5.1
		c-1,1-2.1,1.9-3.1,2.9c2.8-5.8,5.5-11.6,8.2-17.4c-3.2,5.9-6.3,11.8-9.4,17.8c0-1.8,0-3.6,0-5.4c-0.1-2.6-0.1-5.3-0.3-7.9
		c-0.3,2.6-0.5,5.2-0.7,7.9c-0.2,2.6-0.3,5.3-0.3,7.9v0.2l-7.3,14.4c0-2.6-0.1-5.3-0.2-7.9c-0.1-3.5-0.3-7.1-0.5-10.6
		c-0.3,3.5-0.4,7.1-0.5,10.6c-0.1,3.5-0.1,7-0.1,10.5l-1.5,2.9l-7.2,14.7c-0.2-3.4-0.3-6.8-0.6-10.2c-0.3-4.2-0.6-8.4-1-12.6
		c-0.1,4.2-0.1,8.4,0,12.6c0,4.2,0.2,8.4,0.3,12.6v0.1l-1.6,3.3c-1.8,3.8-3.7,7.6-5.4,11.4c-0.1-2.7-0.2-5.3-0.3-8
		c-0.1-1.6-0.1-3.3-0.3-4.9c-0.1-1.6-0.2-3.2-0.4-4.9c-0.1,1.6-0.1,3.3-0.2,4.9c-0.1,1.6-0.1,3.3-0.1,4.9c-0.1,3.3,0,6.5,0,9.8v0.8
		c-1,2.2-2,4.4-3,6.5c1.1-2.1,2.3-4.2,3.4-6.3l0.7-0.5c3.7-2.8,7.3-5.8,10.9-8.7c3.6-3,7.1-6,10.6-9.1c-3.9,2.6-7.6,5.4-11.3,8.2
		c-3.1,2.4-6.3,4.9-9.3,7.4c1.9-3.7,3.8-7.3,5.7-11l1.7-3.3l0.1-0.1c1.9-1.5,3.7-3.1,5.5-4.7l5.5-4.7c3.6-3.2,7.2-6.4,10.7-9.7
		c-3.9,2.9-7.7,5.8-11.4,8.8l-5.6,4.6c-1.1,0.9-2.2,1.8-3.3,2.7l7.1-14l1.4-2.9c2.8-2.5,5.6-5.1,8.4-7.7c2.8-2.6,5.5-5.3,8.2-8
		c-3.1,2.3-6,4.8-8.9,7.2C507.7,400.5,505.7,402.3,503.7,404L503.7,404z"/>
	<path class="st4" d="M435.8,465.6c0,0-57.4-23.4-58.4-95.3C377.4,370.3,440,396.9,435.8,465.6z"/>
	<path class="st5" d="M431.9,458.4c-1.2-2.1-2.4-4.1-3.6-6.2l-0.1-0.8c-0.4-4.6-1.1-9.2-1.7-13.9c-0.7-4.6-1.3-9.2-2.2-13.8
		c0.2,4.7,0.6,9.3,1,13.9c0.4,3.9,0.8,7.9,1.3,11.8c-2.1-3.6-4.2-7.1-6.3-10.7l-1.9-3.1v-0.1c-0.3-2.4-0.7-4.8-1.1-7.1l-1.1-7.1
		c-0.8-4.8-1.6-9.5-2.5-14.2c0.4,4.8,0.9,9.6,1.5,14.4l0.9,7.2c0.2,1.4,0.4,2.8,0.5,4.2l-8.1-13.4l-1.7-2.7
		c-0.6-3.7-1.3-7.5-2.1-11.2c-0.8-3.8-1.5-7.5-2.5-11.2c0.4,3.8,0.9,7.6,1.4,11.4c0.4,2.7,0.8,5.3,1.3,8l-8.2-13.1l-0.1-0.4
		c-0.6-2.5-1.2-5-1.9-7.5c-0.7-2.5-1.4-4.9-2.3-7.4c0.3,2.6,0.8,5.1,1.3,7.6c0.3,1.4,0.6,2.8,0.9,4.1c-3.4-5.4-6.9-10.8-10.5-16.1
		c3.3,5.9,6.7,11.6,10.1,17.4c-1.5-1-3-1.9-4.5-2.8c-2.3-1.3-4.5-2.7-6.9-3.9c2,1.7,4.2,3.2,6.3,4.8c2.1,1.5,4.3,3,6.5,4.5l0.2,0.1
		l8.4,13.9c-2.3-1.4-4.5-2.7-6.8-4c-3.1-1.8-6.2-3.5-9.3-5.2c2.9,2.1,5.8,4.1,8.8,6c2.9,1.9,5.9,3.8,8.9,5.7l1.7,2.7l8.6,13.8
		c-3-1.7-6-3.3-9-4.9c-3.7-2-7.4-4-11.2-5.8c3.5,2.3,7.1,4.5,10.7,6.7c3.6,2.2,7.3,4.2,10.9,6.4l0.1,0l1.9,3.1
		c2.3,3.6,4.5,7.1,6.8,10.7c-2.3-1.3-4.6-2.7-6.9-3.9c-1.4-0.8-2.8-1.6-4.3-2.3c-1.4-0.7-2.9-1.5-4.3-2.3c1.3,0.9,2.7,1.8,4.1,2.7
		c1.3,0.9,2.7,1.8,4.1,2.6c2.7,1.8,5.5,3.5,8.3,5.1l0.7,0.4C429.2,454.4,430.5,456.4,431.9,458.4L431.9,458.4z"/>
	<path class="st0" d="M377.4,458.5c6.7-15.6,21.2-27.7,37.7-31.4c16.6-3.8,34.8,0.9,47.6,12.1c5.5-10.4,16.4-16.3,28.1-15.7
		c11.7,0.6,22.8,8.4,27.2,19.3c7.6-7.2,20.5-7.4,29.5-2.1c9,5.4,14.7,15,17.7,25c-31.4,3.6-64.7,7.2-96.3,7.8
		C437.9,474.1,406.6,469.2,377.4,458.5L377.4,458.5z"/>
	<g class="st7">
		<path class="st0" d="M376.2,472.5c6.7-15.6,21.2-27.7,37.7-31.4c16.6-3.7,34.8,0.9,47.6,12.1c5.5-10.4,16.4-16.3,28.1-15.7
			c11.7,0.6,22.8,8.4,27.2,19.3c7.6-7.2,20.5-7.4,29.5-2.1c9,5.3,14.7,15,17.7,25c-31.4,3.6-64.7,7.2-96.3,7.8
			C436.6,488.1,405.4,483.2,376.2,472.5L376.2,472.5z"/>
	</g>
	<path class="st0" d="M111.2,462.5c-0.7-12.8,6.8-25.7,18.4-31.3c11.5-5.6,26.3-3.6,35.9,4.9c8.5-10.8,21.9-18.1,35.6-18.2
		c13.7-0.1,27.4,6.4,36.1,17.1c4.7-7.2,13.7-12.1,22.2-12.9c8.5-0.8,17.3,2.4,23.3,8.5c10.4-3.3,22.4-2.3,31.8,3.3
		c9.4,5.5,16.2,15.2,18.4,25.9C258.6,461.7,185.4,460.7,111.2,462.5z"/>
	<g class="st7">
		<path class="st0" d="M111.2,479.8c-0.7-12.8,6.8-25.7,18.4-31.3c11.5-5.6,26.3-3.6,35.9,4.9c8.5-10.8,21.9-18.1,35.6-18.2
			c13.7-0.1,27.4,6.4,36.1,17.1c4.7-7.2,13.7-12.1,22.2-12.9c8.5-0.8,17.3,2.4,23.3,8.5c10.4-3.3,22.4-2.3,31.8,3.3
			c9.4,5.5,16.2,15.2,18.4,25.9C258.6,479,185.4,478,111.2,479.8z"/>
	</g>
	<path class="st8" d="M-69,461.8C443.2,437,958.9,461,1464.3,533c-8.5,51.4,6,110.8,6.3,162.7c0.3,51.8-16.2,108.7-67.7,139
		c-44.7,26.3-104.1,26.4-159.2,25.4c-397.9-6.9-796.3-13.9-1192.5-44.2c-36.5-2.8-76.9-7.3-100.5-30.2c-20.7-20-22.5-48.4-23-74.6
		C-73.8,630.3-74.4,542.4-69,461.8L-69,461.8z"/>
	<g class="st7">
		<path class="st0" d="M346.4,498.4l11.7,0.3c-1.3-0.8-2.9-1.4-4.4-1.5C351.2,496.8,348.6,497.3,346.4,498.4z"/>
		<path class="st0" d="M320.8,491.1c-5.5,1-9.2,3.5-11.7,6.5l32.3,0.8C337.6,493.2,331,489.2,320.8,491.1L320.8,491.1z"/>
	</g>
	<path class="st9" d="M630.2,453.9l7.4,0.2"/>
	<path class="st9" d="M559,452.1l57.1,1.4"/>
	<path class="st9" d="M587.5,469.5l76.9,1.6"/>
	<path class="st9" d="M657.5,498.2l11.2,0.4"/>
	<path class="st9" d="M569.2,495l79.3,2.9"/>
	<path class="st9" d="M620.9,506.8l97.6,3.5"/>
</g>
<g>
	<defs>
		<rect id="SVGID_1_" x="88.5" y="132.1" width="659" height="436.5"/>
	</defs>
	<clipPath id="SVGID_00000115480089265179861710000011776996905076230315_">
		<use xlink:href="#SVGID_1_"  style="overflow:visible;"/>
	</clipPath>
	<g style="clip-path:url(#SVGID_00000115480089265179861710000011776996905076230315_);">
		<path class="st11" d="M714.8,364.7v203.9H263.7L257,338.8L714.8,364.7z"/>
		<path class="st12" d="M190.3,152.4l-79.5,227.5l17,188.7h135.9l3.7-201.7L190.3,152.4z"/>
		<path class="st13" d="M641.3,143.5l106.3,235.4h-472l-94.5-246.8C359.8,147.7,464.3,148.8,641.3,143.5L641.3,143.5z"/>
		<path class="st14" d="M98.7,378.9l-10.1-5.7l92.5-241.1l94.5,246.8l-8.2,4.8l-87-234.9L98.7,378.9z"/>
		<path class="st14" d="M98.7,378.9l12.1,1l75.6-215l-6-16.1L98.7,378.9z"/>
		<path class="st14" d="M267.3,383.7H745l2.6-4.8h-472L267.3,383.7z"/>
		<path class="st12" d="M275.6,383.7v177.9h434.1l-4.3-177.9h9.4v184.9H263.7l3.7-184.9H275.6z"/>
		<path class="st12" d="M110.8,379.9l17,188.7h135.9l3.7-184.9l-3.7-9.9l-3.9,189.6H133.1l-20.1-189.6L110.8,379.9z"/>
		<path class="st15" d="M705.7,400.1H275.6v0.9h430.2V400.1z"/>
		<path class="st15" d="M705.7,428.7l-430.2-4.5l0-0.9l430.2,4.5L705.7,428.7z"/>
		<path class="st15" d="M275.6,448.7l0,0.9l431.7,11.9l0-0.9L275.6,448.7z"/>
		<path class="st15" d="M275.6,502l0-0.9l432.5-5.5l0,0.9L275.6,502z"/>
		<path class="st15" d="M275.6,515.6l0,0.9l433.3,13.6l0-0.9L275.6,515.6z"/>
		<path class="st15" d="M708.9,550.7H275.6v2.6h433.4V550.7z"/>
		<path class="st15" d="M331.6,451.3l-0.8,0.1l7,48.9l0.8-0.1L331.6,451.3z"/>
		<path class="st15" d="M676.9,398h-0.9v30h0.9V398z"/>
		<path class="st16" d="M382.4,568.6l-5.3-152.9h260.6l-10.9,152.9h-3.5l6.5-145.1H385.6l3.9,145.1H382.4z"/>
		<path class="st12" d="M389.5,568.6l-3.9-145.1h244.2l-6.5,145.1H389.5z"/>
		<path class="st13" d="M377.2,415.7L374,420l3.2,148.5h5.3L377.2,415.7z"/>
		<path class="st12" d="M625.6,423.5l-5.7,145.1h3.5l6.5-145.1H625.6z"/>
		<path class="st17" d="M624.9,441.1H386.1v0.9h238.8V441.1z"/>
		<path class="st17" d="M624.1,460.6H386.6v0.9h237.5V460.6z"/>
		<path class="st17" d="M623.4,480H387.1v0.9h236.2V480z"/>
		<path class="st17" d="M623.3,499.7l-235.6,2.8l0,0.9l235.6-2.8L623.3,499.7z"/>
		<path class="st17" d="M622,515.6H388.1v0.9H622V515.6z"/>
		<path class="st17" d="M388.8,540.8l0-0.9l232.4-3.8l0,0.9L388.8,540.8z"/>
		<path class="st17" d="M389.1,552.3l0,0.9l231.3,3.8l0-0.9L389.1,552.3z"/>
		<path class="st13" d="M391.3,249l35.1,74.4l164.8,4.1l-19-80.5L391.3,249z"/>
		<path class="st13" d="M534.2,359.3l-8.5-33.5l140.6,3.5l12.9,30H534.2z"/>
		<path class="st13" d="M322.8,195.1l15.4,28.6l109.2,1.2l-6.8-29.7H322.8z"/>
		<path class="st18" d="M650.8,162.6H193.1v2.3h457.8V162.6z"/>
		<path class="st18" d="M666.2,192.9H205.1v3.6h461.1V192.9z"/>
		<path class="st18" d="M215.6,221.5l0,1.7l463.5,4.9l0-1.7L215.6,221.5z"/>
		<path class="st18" d="M687.6,248.7H226v0L687.6,248.7L687.6,248.7z"/>
		<path class="st18" d="M252.7,318.1l0,1.7l473.2,11.8l0-1.7L252.7,318.1z"/>
		<path class="st18" d="M738.3,360.4H268.8v1.7h469.5V360.4z"/>
		<path class="st18" d="M337.4,321.5l-30.8-72.2l1.6-0.7l30.8,72.2L337.4,321.5z"/>
		<path class="st18" d="M551.1,196.2l-1.6,0.6l11.1,29.6l1.6-0.6L551.1,196.2z"/>
		<path class="st18" d="M600.4,197L574.4,164l1.4-1.1l26,33.1L600.4,197z"/>
	</g>
</g>
</svg>
