<?xml version="1.0" encoding="utf-8"?>
<!-- Generator: Adobe Illustrator 28.2.0, SVG Export Plug-In . SVG Version: 6.00 Build 0)  -->
<svg version="1.1" id="Layer_1" xmlns="http://www.w3.org/2000/svg" xmlns:xlink="http://www.w3.org/1999/xlink" x="0px" y="0px"
	 viewBox="0 0 1920 1000.9" style="enable-background:new 0 0 1920 1000.9;" xml:space="preserve">
<style type="text/css">
	.st0{clip-path:url(#SVGID_00000078754540578365837820000017129248889988473239_);}
	.st1{fill:#486E32;}
	.st2{fill:#548039;}
	.st3{fill:#609141;}
</style>
<g>
	<defs>
		<rect id="SVGID_1_" x="-50.4" y="0.2" width="1190.4" height="1396.8"/>
	</defs>
	<clipPath id="SVGID_00000079448149090936787830000002456261949639315370_">
		<use xlink:href="#SVGID_1_"  style="overflow:visible;"/>
	</clipPath>
	<g style="clip-path:url(#SVGID_00000079448149090936787830000002456261949639315370_);">
		<path class="st1" d="M1075.7,1396.9H197.6c-25.1-40.9-47.9-81.5-68.4-121.9c-3.5-6.9-6.9-13.8-10.3-20.6
			c-34.2-69.4-62.2-137.9-84.7-204.8c-1.2-3.4-2.3-6.9-3.4-10.3c-1.2-3.4-2.2-6.8-3.3-10.2c-1-3.3-2.1-6.5-3.1-9.8
			c-4.8-15.1-9.2-30.1-13.4-44.9c-1.1-3.9-2.2-7.7-3.2-11.5c-0.2-0.7-0.4-1.3-0.6-2c-1.9-7-3.8-14-5.6-21
			c-5-19.3-9.6-38.5-13.8-57.5c6.9-2.9,14.1-6.2,21.6-10.1c1.4-0.7,2.9-1.5,4.5-2.4c4.5-2.4,9-5,13.6-7.9c3.6-2.2,7.3-4.6,10.9-7.1
			c1.8-1.2,3.5-2.4,5.2-3.7c2.6-1.9,5.2-3.9,7.9-6c2.2-1.7,4.4-3.5,6.5-5.3c4.3-3.6,8.6-7.4,13-11.5c4.3-4.1,8.4-8.4,12.6-12.9
			c2-2.2,4.1-4.6,6.2-6.9c0.7-0.7,1.2-1.3,1.7-2c1.2-1.4,2.4-2.8,3.5-4.3c1.4-1.8,2.8-3.5,4.2-5.4c0.9-1,1.6-2.1,2.4-3.1
			c1.3-1.7,2.6-3.5,3.8-5.2c1.6-2.3,3.3-4.6,4.8-7c2.4-3.5,4.6-7.2,6.8-10.9c1.5-2.4,2.9-4.8,4.3-7.3c1.6-3,3.3-6,4.9-9.2
			c0,0-86.2,26.8-158.8,18.1c-3.2-21.4-5.9-42.5-8.2-63.3c-1-9.9-2-19.7-2.9-29.5c-0.5-4.5-0.9-9-1.2-13.4
			c-0.5-5.6-0.9-11.1-1.2-16.6c-0.5-5.8-0.8-11.5-1.2-17.2c-0.5-8.8-1-17.7-1.4-26.4v-0.9c-0.8-17.5-1.2-34.7-1.4-51.7v-0.3
			c-0.1-6.2-0.1-12.4-0.1-18.6v-1.4c0-5.1,0.1-10.1,0.1-15.1l0.2-11.6c0.2-11.1,0.5-22.1,0.9-32.9c0.5-13,1.1-25.7,1.9-38.2
			c0.3-6.2,0.8-12.4,1.2-18.6c0.9-12.3,1.9-24.4,3-36.1c0.7-6.8,1.3-13.5,2-20.2c0.7-5.9,1.3-11.7,2-17.3c0.5-4.2,1-8.3,1.5-12.4
			c0.3-1.6,0.5-3.1,0.6-4.6c1-7.7,2-15.3,3.1-22.7c0.5-3.7,1.1-7.5,1.6-11.1c3.2-21,6.7-40.9,10.3-59.6c0.4-2,0.7-3.9,1.1-5.9
			c0.5-2.4,0.9-4.8,1.4-7.1c0.5-2.3,0.9-4.6,1.4-6.8c6.1-29.6,12.4-56.1,18.6-79.2c1.3-4.9,2.6-9.6,3.9-14.2
			c1.8-6.4,3.5-12.3,5.2-18c1.4-4.8,2.8-9.5,4.2-13.9c2.1-6.7,4.1-13,6-18.7c0.7-1.9,1.2-3.7,1.8-5.5c0.3-0.8,0.5-1.5,0.7-2.2
			c0.7-2,1.4-4,2-5.8c0.4-1.2,0.9-2.5,1.2-3.7c0.6-1.6,1.1-3.2,1.7-4.7c1.2-3.4,2.3-6.4,3.3-9c0.4-1,0.7-2,1.1-2.9
			c0-0.1,0.1-0.3,0.1-0.4c0.5-1.2,0.9-2.2,1.2-3.2c0.3-0.9,0.6-1.6,0.9-2.3c1-2.6,1.6-3.9,1.6-3.9c8.5,1.3,17,2.7,25.4,4.5
			C64.9,30.3,69,31.1,73,32c2.2,0.5,4.4,0.9,6.6,1.4c1.6,0.4,3.3,0.8,5,1.2c49.5,11.8,97.3,29.9,143.4,53.2c0,0,0.1,0,0.2,0.1
			c2.6,1.2,5,2.5,7.5,3.9c2.7,1.4,5.5,2.8,8.2,4.3c0.7,0.3,1.4,0.7,2,1c68.1,36.8,132.3,85,192.6,141.6
			c-17.6,46.3-48.4,104.6-94.5,120.2c0,0,32.3,1.9,75.9-8.1c2.2-0.5,4.3-1,6.5-1.6c2.2-0.5,4.5-1.1,6.7-1.8c2.2-0.5,4.4-1.2,6.7-1.8
			c2.4-0.7,4.8-1.4,7.2-2.2c18.5-6,38.2-14.1,57.7-25.4c2.4-1.4,4.8-2.8,7.3-4.3c0.5,0.5,0.9,1,1.2,1.4
			c37.7,41.6,73.6,86.5,107.7,133.3h0.1c2.2,2.9,4.5,6,6.6,9c2.2,3.1,4.4,6.2,6.5,9.2c56.3,78.9,107.8,163.4,154.5,249.1
			c3.6,6.6,7.2,13.3,10.8,19.9c22.9,42.8,44.6,85.8,65.1,128.5c3.7,7.6,7.3,15.3,10.9,22.9c37,78.5,70,155.7,98.8,228.4
			c1.3,3.3,2.6,6.7,4,10l0.6,1.6c19.2,48.6,36.5,95.1,52,138.5c1.3,3.7,2.7,7.5,4,11.3C1050.4,1320.6,1063.9,1360.9,1075.7,1396.9
			L1075.7,1396.9z"/>
		<path class="st2" d="M228.1,87.9c-61.2-31-125.4-52.6-192.7-62.8c0,0-132.6,315.9-68.3,747.4c72.6,8.7,158.8-18,158.8-18
			c-37.2,72.7-94.1,109.6-138.5,128c9.9,44.7,22,90.4,36.7,136.9C354,822.6,267.9,272.9,228.1,87.9z"/>
		<path class="st3" d="M671.9,1281.5c16.2,38.9,31.7,77.5,46.4,115.4h-21.6c-13-33.2-26.5-66.8-40.5-100.6l-456.1-18.4l-71-2.9
			c-3.5-6.9-6.9-13.8-10.3-20.6l70.4,2.8l458.4,18.5c-28.8-69.1-59.4-139.1-91-208.9l-456.7-15.1l-65.8-2.2
			c-1.2-3.4-2.3-6.9-3.4-10.3c-1.2-3.4-2.2-6.8-3.3-10.2l65.3,2.2l454.6,15.1c-35.9-78.6-72.7-156.7-109.4-232.3l-234.3-3.5h-0.1
			l-82.5-1.3l-31.5-0.5h-0.1c5.4-6.2,10.6-12.9,15.6-20h0.1l36,0.5l71,1.1l215.9,3.3c-39.3-80.6-78.2-158.2-115.2-230.5l-49.2-1.3
			l-257.1-7l-56.9-1.6v-0.1c-0.1-6.2-0.1-12.4-0.1-18.6v-1.4l56.6,1.5l259.2,7.1l37,1c-11.6-22.6-22.9-44.6-34-65.9
			c-12.4-23.9-24.5-47-36.2-69.3L10.7,386l-53.7-5.2c0.7-6.8,1.3-13.5,2-20.2l53.4,5.2l208.5,20.3c-23.1-43.9-44.6-84.1-63.8-119.7
			L28.2,242.1l-50.1-9.4c0.4-2,0.7-3.9,1.1-5.9c0.5-2.4,0.9-4.8,1.4-7.1c0.5-2.3,0.9-4.6,1.4-6.8l49.8,9.4l112.9,21.3
			c-45.5-84-76.2-138.8-83.3-151.2c-0.8-1.5-1.3-2.4-1.4-2.6c-2.8-4.8-1-11,3.8-13.7c0.9-0.5,1.8-0.9,2.7-1.1
			c4.3-1,8.8,0.9,11.1,4.9c1.2,2.2,33.9,60,85.2,154.8l65.1-146.8c0,0,0.1,0.1,0.2,0.1c2.5,1.2,5,2.5,7.5,3.8
			c2.7,1.4,5.5,2.8,8.2,4.3c0.7,0.3,1.4,0.7,2,1l-10.9,24.6L175,257.1c19.3,35.9,41,76.4,64.3,120.5l23.8-55l73.1-168.5
			c5.6,4,11.2,8.1,16.7,12.3l-86.7,200l-14.9,34.2c5.6,10.7,11.4,21.7,17.2,32.8c16.5,31.5,33.6,64.4,51.1,98.7l100.4-181.2
			c2.2-0.5,4.3-1,6.5-1.6c2.2-0.5,4.5-1.1,6.7-1.8c2.2-0.6,4.5-1.2,6.7-1.8c2.4-0.7,4.8-1.4,7.2-2.2L330.6,553.7
			c36.7,71.7,75.2,148.6,114.1,228.4L621,448.4h0.1c2.2,2.9,4.5,6,6.6,9c2.2,3.1,4.4,6.2,6.5,9.2l-178.6,338
			c36.7,75.6,73.6,153.7,109.4,232.3l223.7-321.1c3.6,6.6,7.2,13.3,10.8,19.9l-224.7,322.6c30,66.3,59.2,133,86.9,198.8l202.9-393
			c3.7,7.6,7.3,15.3,10.9,22.9L671.9,1281.5L671.9,1281.5z"/>
	</g>
</g>
</svg>
