<?xml version="1.0" encoding="utf-8"?>
<!-- Generator: Adobe Illustrator 28.2.0, SVG Export Plug-In . SVG Version: 6.00 Build 0)  -->
<svg version="1.1" id="Layer_1" xmlns="http://www.w3.org/2000/svg" xmlns:xlink="http://www.w3.org/1999/xlink" x="0px" y="0px"
	 viewBox="0 0 1440 624" style="enable-background:new 0 0 1440 624;" xml:space="preserve">
<style type="text/css">
	.st0{clip-path:url(#SVGID_00000177448317298585946020000014576116655800487855_);}
	.st1{fill:#414A2B;}
	.st2{fill:#4E5736;}
	.st3{fill:#5C6344;}
	.st4{fill:#4C562C;}
	.st5{opacity:0.2;}
	.st6{fill:#FFFFFF;}
	.st7{fill:#677446;}
	.st8{fill:#737F53;}
	.st9{fill:#7E8A60;}
	.st10{fill:#56652C;}
	.st11{clip-path:url(#SVGID_00000009572624959011961040000011933898192648617866_);}
	.st12{fill:#632424;}
	.st13{fill:#2E351D;}
	.st14{fill:#272E12;}
	.st15{fill:#36401B;}
	.st16{fill:#622424;}
	.st17{fill:#531414;}
	.st18{opacity:0.5;}
	.st19{fill:#B73835;}
	.st20{fill:#57623B;}
	.st21{fill:#495524;}
	.st22{clip-path:url(#SVGID_00000170966862494692293030000004767399545869058713_);}
	.st23{fill:#A5AE76;}
	.st24{fill:#8B974C;}
</style>
<g>
	<defs>
		<rect id="SVGID_1_" x="-95" y="251" width="1582" height="460"/>
	</defs>
	<clipPath id="SVGID_00000153680377201754076880000012824799813650402446_">
		<use xlink:href="#SVGID_1_"  style="overflow:visible;"/>
	</clipPath>
	<g style="clip-path:url(#SVGID_00000153680377201754076880000012824799813650402446_);">
		<path class="st1" d="M990.1,578.6c-5.2,2.1-10.3,4.1-15.5,6.1c-36.4,14.2-72.9,27.5-109.6,40.1c-32.8,11.2-65.6,21.9-98.5,31.8
			c-283.6,86-572.7,124-861.5,109.1l19.4-236.7l10.5-128.5l1.6-19.3l4.6-55.8c281.6-17.7,564.9,32.9,837.1,148.5
			c67.9,28.9,135.1,61.7,201.5,98.7C983.1,574.6,986.6,576.6,990.1,578.6z"/>
		<g>
			<path class="st2" d="M990.1,578.6c-5.2,2.1-10.3,4.1-15.5,6.1c-36.4,14.2-72.9,27.5-109.6,40.1c-32.8,11.2-65.6,21.9-98.5,31.8
				C650.6,510,512,409,366.3,365.2c-142.9-42.9-292.1-30.6-431.5,35.3l1.6-19.3l4.6-55.8c281.6-17.7,564.9,32.9,837.1,148.5
				c67.9,28.9,135.1,61.7,201.5,98.7C983.1,574.6,986.6,576.6,990.1,578.6z"/>
		</g>
		<g>
			<path class="st3" d="M979.5,572.7c-1.4,4.2-3.1,8.2-4.9,12c0,0,0,0,0,0c-6.5,13.2-15.4,23.9-25,30.8
				c-18.1,13.1-39.7,30.6-59.5,32.8c-8.3-8-16.6-15.9-25-23.6C587.6,369.6,250.8,281.3-63.6,381.2l4.6-55.8
				c281.6-17.7,564.9,32.9,837.1,148.5C846,502.8,913.2,535.7,979.5,572.7z"/>
		</g>
		<g>
			<path class="st4" d="M778.1,474c-46.6,38.2-95,70.5-144.8,96.8c0.9-9.5-0.9-19.4-4.5-27.2c-2.7,5.5-3.7,13.1-2.4,19.7
				c-6.3-2.9-13.6-1.8-19.6,2.3c3.9,6.7,9.6,10.6,15.4,11c-84.2,42.8-171.8,68.2-260.1,74.9c-53.7,4.1-107.6,1.1-161-8.5
				c3.1-3.1,5.8-7.5,7.6-12.5c2.3-6.7,3.2-14.6,2.4-22.2c-4.8,6.1-8.9,13.9-11.7,22.6c-1-11.8-6.8-22-14-25.5
				c-0.7,13.5,2.9,27.3,9.2,36.3c-92.8-17.7-184-55.7-270.3-112.8L-95,765.7c365.2,18.9,730.6-46.9,1085.1-187.1
				C920.4,539.3,849.6,504.4,778.1,474z"/>
		</g>
		<g class="st5">
			<path class="st6" d="M252.4,350.3c0,2.7-3.1,5-7,5c-3.9,0-7-2.2-7-5c0-2.8,3.1-5,7-5C249.3,345.3,252.4,347.5,252.4,350.3z"/>
			<path class="st6" d="M367.6,397c0,2.7-3.1,5-7,5s-7-2.2-7-5c0-2.8,3.1-5,7-5S367.6,394.3,367.6,397z"/>
			<path class="st6" d="M250.3,365.8c0,0.9-1.1,1.7-2.4,1.7s-2.4-0.7-2.4-1.7s1.1-1.7,2.4-1.7S250.3,364.9,250.3,365.8z"/>
			<path class="st6" d="M311.3,397c0,0.9-1.1,1.7-2.4,1.7s-2.4-0.7-2.4-1.7c0-0.9,1.1-1.7,2.4-1.7S311.3,396.1,311.3,397z"/>
			<path class="st6" d="M157.4,397c0,0.9-1.1,1.7-2.4,1.7c-1.3,0-2.4-0.7-2.4-1.7c0-0.9,1.1-1.7,2.4-1.7
				C156.4,395.4,157.4,396.1,157.4,397z"/>
			<path class="st6" d="M373,433.7c1.3,0,2.4-0.8,2.4-1.7c0-0.9-1.1-1.7-2.4-1.7c-1.3,0-2.4,0.8-2.4,1.7
				C370.6,433,371.6,433.7,373,433.7z"/>
			<path class="st6" d="M69.4,433.7c0,0.9-1.1,1.7-2.4,1.7c-1.3,0-2.4-0.7-2.4-1.7c0-0.9,1.1-1.7,2.4-1.7
				C68.3,432,69.4,432.8,69.4,433.7z"/>
			<path class="st6" d="M271.8,365.8c0,1.4-1.6,2.5-3.5,2.5c-1.9,0-3.5-1.1-3.5-2.5s1.6-2.5,3.5-2.5
				C270.3,363.3,271.8,364.4,271.8,365.8z"/>
			<path class="st6" d="M70.5,395.4c0,1.4-1.6,2.5-3.5,2.5c-1.9,0-3.5-1.1-3.5-2.5s1.6-2.5,3.5-2.5C68.9,392.9,70.5,394,70.5,395.4z
				"/>
			<path class="st6" d="M126.5,372.8c0,1.4-1.6,2.5-3.5,2.5c-1.9,0-3.5-1.1-3.5-2.5c0-1.4,1.6-2.5,3.5-2.5
				C124.9,370.3,126.5,371.4,126.5,372.8z"/>
		</g>
		<path class="st7" d="M1487,429l-0.3,18.3l-2.1,138.3l-1.9,125.5H-34.7c-4.6,0-7.7-2.3-12.3-2.3V596.5c0-0.8,4.8,5.1,4.8,4.3
			c270.3,29.5,543.3-1.4,808-91.4c119.5-40.7,237.6-93.3,358.7-119.7c103.1-22.5,209.8-25,310.3,14.5
			C1452.4,411.1,1469.8,419.3,1487,429z"/>
		<g>
			<path class="st8" d="M1487,429l-0.3,18.3c-155.3-62.1-320-48.1-476.8,4.8c-160.5,54.1-314.4,147.6-467.7,240.7
				c-11.3,6.9-22.7,12.9-34.3,18.2H-34.7c-4.6,0-7.7-2.3-12.3-2.3V596.5c0-0.8,4.8,5.1,4.8,4.3c270.3,29.5,543.3-1.4,808-91.4
				c119.5-40.7,237.6-93.3,358.7-119.7c103.1-22.5,209.8-25,310.3,14.5C1452.4,411.1,1469.8,419.3,1487,429z"/>
		</g>
		<g>
			<path class="st9" d="M1434.8,404.1c-110-25.5-222.9-15.3-332.7,14.1C976.4,451.8,854,509.9,731.9,567.9
				C631.5,615.6,531.1,663.3,430.6,711H-34.7c-4.6,0-7.7-2.3-12.3-2.3V596.5c0-0.8,4.8,5.1,4.8,4.3c270.3,29.5,543.3-1.4,808-91.4
				c119.5-40.7,237.6-93.3,358.7-119.7C1227.6,367.1,1334.4,364.6,1434.8,404.1z"/>
		</g>
		<g>
			<path class="st10" d="M1358.7,601.6c0.7-7.8,0.9-16.3-1.4-22.6c-3-8-7.6-14.1-13.2-17.2c-0.1,14.8,3.7,29.5,10.1,40.3
				c-124.8,14.7-249.7,25.9-374.7,33.6c1.7-2.4,3.1-5.1,4-8.1c2.2-7.7,2.8-16.5,1.2-24.5c-6,4.7-10.3,14.6-11.2,25.2
				c-4.2-10.7-12-17.3-20-17.6c1.7,9.9,5.2,18.9,9.9,26C626.6,656.6,289.4,651-46.9,619.8v88.9c4.6,0,7.7,2.3,12.3,2.3h1517.3
				l2-125.5C1442.6,591.3,1400.7,596.6,1358.7,601.6L1358.7,601.6z"/>
		</g>
		<g class="st5">
			<path class="st6" d="M1090.5,440.4c0,3.4-3.9,6.2-8.6,6.2s-8.6-2.8-8.6-6.2c0-3.4,3.9-6.2,8.6-6.2S1090.5,437,1090.5,440.4z"/>
			<path class="st6" d="M1102,450.3c0,2.1-2.4,3.8-5.4,3.8c-3,0-5.4-1.7-5.4-3.8c0-2.1,2.4-3.8,5.4-3.8
				C1099.6,446.5,1102,448.2,1102,450.3z"/>
			<path class="st6" d="M1328.8,462.9c0,2.1-2.4,3.8-5.4,3.8c-3,0-5.4-1.7-5.4-3.8c0-2.1,2.4-3.8,5.4-3.8
				C1326.4,459,1328.8,460.7,1328.8,462.9z"/>
			<path class="st6" d="M923.3,561.9c0,2.1-2.4,3.8-5.4,3.8s-5.4-1.7-5.4-3.8c0-2.1,2.4-3.8,5.4-3.8S923.3,559.7,923.3,561.9z"/>
			<path class="st6" d="M1101,440.4c1.8,0,3.3-1,3.3-2.3c0-1.3-1.5-2.3-3.3-2.3c-1.8,0-3.3,1-3.3,2.3
				C1097.8,439.3,1099.2,440.4,1101,440.4z"/>
			<path class="st6" d="M891.6,542.2c0,1.3-1.5,2.3-3.3,2.3c-1.8,0-3.3-1-3.3-2.3c0-1.3,1.5-2.3,3.3-2.3
				C890.2,539.9,891.6,540.9,891.6,542.2z"/>
			<path class="st6" d="M1314.8,452.7c1.8,0,3.3-1,3.3-2.3c0-1.3-1.5-2.3-3.3-2.3c-1.8,0-3.3,1-3.3,2.3
				C1311.6,451.6,1313,452.7,1314.8,452.7z"/>
			<path class="st6" d="M1258.3,500.8c0,1.3-1.5,2.3-3.3,2.3c-1.8,0-3.3-1-3.3-2.3c0-1.3,1.4-2.3,3.3-2.3
				C1256.8,498.5,1258.3,499.5,1258.3,500.8z"/>
		</g>
	</g>
</g>
<g>
	<defs>
		<rect id="SVGID_00000161633574798943366100000011626229523850646945_" x="-52" y="87" width="780" height="520"/>
	</defs>
	<clipPath id="SVGID_00000054986798925581890760000002444838780937450170_">
		<use xlink:href="#SVGID_00000161633574798943366100000011626229523850646945_"  style="overflow:visible;"/>
	</clipPath>
	<g style="clip-path:url(#SVGID_00000054986798925581890760000002444838780937450170_);">
		<path class="st12" d="M168.6,586.9c-12.1-52.7-13.3-107.2-1.7-159.9c-1.1,0-2,0.1-3.1,0.1c-6,15.9-9.3,32.9-10,49.9
			c-0.4-14.8-1.4-29.6-3.2-44.4c-0.9,0.1-1.9,0.2-2.9,0.4c1.8,50.6,0.9,101.2-2.6,151.6L168.6,586.9L168.6,586.9z"/>
		<path class="st13" d="M228.9,416c2.5,5.7,2.4,12.6-1.1,17.7c-3,4.3-8.2,6.8-13.4,7.6c-5.2,0.9-10.6,0.3-15.8-0.2
			c2.2,3.4,0.8,8.5-2.8,10.3c-3.6,1.8-8.5,0-10.1-3.7c-0.4,4.8-5.4,8.6-10.3,8.2c-4.9-0.3-9.1-4-10.9-8.5c-1.9-4.5-1.6-9.7-0.3-14.3
			c-1,2.3-3.7,3.7-6.1,3.3c-2.1-0.3-4-1.9-4.7-3.9c0.8,4-0.7,8.4-3.7,11.1c-3.3,3-8.4,3.8-12.5,2.1c1.1,2.4,0.1,5.7-2.3,6.9
			c-2.4,1.2-5.7,0.3-7-2.1c-1.6,7.6-10.5,12.8-17.9,10.4c-7.4-2.4-11.6-11.8-8.4-18.9c-1.4,1.6-2.9,3.4-5.1,3.6
			c-2.1,0.2-4.7-3.2-3.4-4.9c-2,2.6-4,5.2-6.7,6.9c-2.7,1.7-6.4,2.3-9.2,0.7c-3.6-2.1-4.5-7.1-3.1-11s4.4-6.9,7.3-9.8
			c-3.5-2.3-3.6-8.3-0.1-10.6c-4.3,1-9.3,1.6-12.5-1.4c-3.4-3.3-2.4-9.2,0.8-12.7c0.1-0.1,0.2-0.2,0.2-0.3c3.3-3.4,8.1-4.8,12.7-6.1
			c-2,0.5-4.1-1.7-3.7-3.7c0.4-2.1,3.1-4.5,5.2-3.9c-6-1.4-12.2-2.9-17-6.8c-4.7-3.9-7.4-11-4.4-16.4c2-3.6,6.2-5.5,10.2-6
			c4.1-0.5,8.2,0.3,12.2,1.1c-3.2-2.9-3.4-8.5-0.4-11.7c2.9-3.2,8.5-3.3,11.7-0.4c-1.9-3.8-2.1-8.6-0.5-12.6c1.6-4,5-7.3,9.1-8.7
			c5.1-1.8,10.8-0.8,15.7,1.7c4.8,2.4,8.9,6.1,12.8,9.8c2.2-1.2,5.3-0.9,7.2,0.8c1.9,1.7,2.7,4.6,1.8,7c3.7-3,9-4,13.5-2.3
			c2.1,0.7,3.9,2,5.4,3.6c1-0.9,2.1-1.7,3.3-2.3c3.6-1.6,8.9,0,9.5,3.9c0.9-5.4,2.7-10.7,5.8-15.2c3.2-4.4,8-7.9,13.4-8.6
			c5.4-0.7,11.4,1.6,14.1,6.4c2.8,4.9,1.9,11,0.5,16.4c4.6,0.9,7,7.2,4.3,11c2.1-2,4.5-3.9,7.3-5c2.8-1.1,6-1.2,8.6,0.2
			c1.5,0.8,2.6,2,3.5,3.4c1.3,2.2,1.9,4.9,2,7.5c0.4,10.9-7,21.7-17.4,25.2c3.4-1.2,7.6,1.6,7.9,5.2c0.3,3.6-3.8,7.2-7.3,6.6
			C221.7,405.9,226.5,410.4,228.9,416L228.9,416z"/>
		<g>
			<path class="st14" d="M228.9,416c2.5,5.7,2.4,12.6-1.1,17.7c-3,4.3-8.2,6.8-13.4,7.6c-5.2,0.9-10.6,0.3-15.8-0.2
				c2.2,3.4,0.8,8.5-2.8,10.3c-3.6,1.8-8.5,0-10.1-3.7c-0.4,4.8-5.4,8.6-10.3,8.2c-4.9-0.3-9.1-4-10.9-8.5
				c-1.9-4.5-1.6-9.7-0.3-14.3c-1,2.3-3.7,3.7-6.1,3.3c-2.1-0.3-4-1.9-4.7-3.9c0.8,4-0.7,8.4-3.7,11.1c-3.3,3-8.4,3.8-12.5,2.1
				c1.1,2.4,0.1,5.7-2.3,6.9c-2.4,1.2-5.7,0.3-7-2.1c-1.6,7.6-10.5,12.8-17.9,10.4c-7.4-2.4-11.6-11.8-8.4-18.9
				c-1.4,1.6-2.9,3.4-5.1,3.6c-2.1,0.2-4.7-3.2-3.4-4.9c-2,2.6-4,5.2-6.7,6.9c-2.7,1.7-6.4,2.3-9.2,0.7c-3.6-2.1-4.5-7.1-3.1-11
				s4.4-6.9,7.3-9.8c-3.5-2.3-3.6-8.3-0.1-10.6c-4.3,1-9.3,1.6-12.5-1.4c-3.4-3.3-2.4-9.2,0.8-12.7c0.2,0.6,0.4,1.2,0.8,1.7
				c1.4,2.1,4,3.3,6.6,3.4c2.6,0.1,5.1-0.7,7.3-1.9c4.9-2.5,9-6.7,11.3-11.7c0.5,1.7,1.8,3.1,3.4,3.7c1.6,0.6,3.5,0.4,5-0.4
				c-3.9,3.1-5.4,8.7-4,13.5c1.4,4.8,5.3,8.6,10,10.4c4.7,1.7,9.9,1.5,14.6-0.2c5.3-1.9,10.1-5.8,12.1-11.1
				c-4.4-1.2-8.4-4.5-10.2-8.7c4-1.3,8.7-0.5,11.7,2.5c-0.6-4,0.8-8.4,3.6-11.4c2.3,1.9,3.7,4.8,3.9,7.8c0.1,1.9-0.2,4,1.1,5.3
				c0.9,1,2.6,1.2,3.8,0.5c1.2-0.7,1.7-2.3,1.2-3.6c1.6,2.5,4.4,4.3,7.3,5c2.9,0.7,6,0.6,9,0c2.8-0.5,5.6-1.5,7.6-3.5
				c1.8-1.8,2.7-4.3,3.1-6.9c0.4-2.5,0.2-5.1,0-7.6c2.2,1.3,4.3,1.8,6.9,1.7c2.6-0.1,5.3-2.2,4.9-4.8c2.8,2,6.2,3.1,9.6,2.8
				c3.4-0.3,6.7-2.1,8.4-5c1.7-2.9,1.6-6.9-0.6-9.6c4.2,2,9.3,1.7,13.5-0.4c4.1-2.2,7.2-6.1,8.8-10.4c0.7-1.9,1.1-3.8,1.3-5.8
				c1.3,2.2,1.9,4.9,2,7.5c0.4,10.9-7,21.7-17.4,25.2c3.4-1.2,7.6,1.6,7.9,5.2c0.3,3.6-3.8,7.2-7.3,6.6
				C221.8,405.9,226.5,410.3,228.9,416L228.9,416z"/>
		</g>
		<path class="st1" d="M232.7,233c0,9-4.8,17.6-11.5,23.7c-6.7,6.1-15,10-23.6,12.9c2.8,1.2,7.1,2.1,9.2,4.3
			c2.1,2.2,3.2,5.7,1.8,8.4c-1.2,2.4-4.7,3.4-6.7,1.9c8.1,7.7,13.7,18.1,15.6,29.1c1.2,7,0.3,15.7-6,19.1c-4.4,2.4-10,1.3-14.2-1.5
			c-4.2-2.8-7.2-7-10.1-11c2.7,4.7-1.9,11.6-7.3,10.9c6.9,8.2,14.1,16.8,16.3,27.3c2.3,10.5-2.2,23.3-12.4,26.6
			c-5.9,2-12.5,0.4-17.9-2.7c-5.4-3.1-9.8-7.7-14.1-12.1c0.6,6.3-4.8,12.5-11.1,12.7c-4,0.1-7.8-2.1-10-5.4
			c0.8,7.6-3.2,15.7-10.2,19c-9.1,4.3-21.3-0.6-24.9-9.9c1.6,5.1-2.4,10.8-7.4,11.9c-0.9,0.2-1.9,0.3-2.8,0.1
			c1.4,2.1,2.4,4.4,3.1,6.7c1.3,4.1,1.6,8.5,1.1,12.8c-0.6,4.6-2.1,9.2-4.6,13.1c-6.1,9.7-17.3,15.8-28.7,16.7
			c-11.5,0.9-23-3.2-32.1-10.3c-9.4,5.9-22.8,4.7-31-2.9c-7.9-7.3-6.5-15.6-10.1-24.6c-2.9-7.3-7.9-12.1-9.2-20.5
			c-2.4-15.5,3.7-32.7,16.8-41.8C-33,331-49,303.6-51.6,274.7c-2.6-28.9,8.2-58.8,28.8-79.3c-8.8-6.9-11.3-19.8-7.7-30.4
			c3.5-10.6,12.1-18.8,21.9-24.3c8.8-4.9,24.2-6.1,30.8-12.5c7.1-6.8,7-15.9,19.9-16.5c9.1-0.4,18,5.6,21.1,14.1
			c0.6-3.5,4-6.4,7.6-6.3c3.6,0.1,6.9,3,7.3,6.6c10.3-13.6,23.5-25,38.5-33.3c8.5-4.7,19-8.4,27.7-3.9c7.7,3.9,11.3,13.3,10.9,21.9
			c-0.4,8.6-4.1,16.7-7.6,24.6c5.4-3.8,14-2.2,17.6,3.4c3.6,5.6,1.7,14-4,17.5c9.6-2.2,19.9-4.4,29.3-1.4c9.4,3,17.3,13.3,13.9,22.6
			c-2.4,6.6-9.1,10.2-15.6,13.1c4.4-1.5,9.9,0.4,12.2,4.5c2.6,4.6,0.7,11.1-3.9,13.6c7.4-2.9,16.1-2.2,22.9,1.9
			c0.5,0.3,0.9,0.5,1.3,0.8C228.4,216.2,232.8,224.5,232.7,233z"/>
		<g>
			<path class="st15" d="M215.2,235.5c-6.7,8.9-19,13.3-29.9,10.7c2.3,1.4,3.1,4.7,1.8,7c-1.3,2.3-4.6,3.2-7,2
				c3.1,10.3,3,22.1-2.6,31.3c-5.6,9.2-17.5,14.9-27.7,11.2c-3.1,1.7-7.8,1.4-9.8-1.5c0.6,1.6,1.2,3.2,1.4,4.9
				c0.2,1.7-0.1,3.5-1,4.9c-1.4,1.9-4.1,2.7-6.3,1.9c0.5,2.6,1.4,4.9,2.3,7.3c0.9,2.5,1.2,5.3-0.1,7.6c-3.9-2.6-6.6-7-7.4-11.6
				c0.2,1.3-0.4,2.7-1.4,3.5c-1,0.9-2.7,1.2-4,0.7c2.2,6.5,0.4,13.8-2.8,19.9c-3.2,6-8,11-12.7,16c-6.3,6.5-12.5,13.1-18.8,19.6
				c-0.9,9.2-1.2,18.3-1,27.4c0.1,2.3,0.2,4.6,0.3,6.9c0.3,4.3,0.6,8.5,1.1,12.8c-0.6,4.6-2.1,9.2-4.6,13.1
				c-6.1,9.7-17.3,15.8-28.7,16.7c-11.5,0.9-23-3.2-32.1-10.3c-9.4,5.9-22.8,4.7-31-2.9c-7.9-7.3-6.5-15.6-10.1-24.6
				c-2.9-7.3-7.9-12.1-9.2-20.5c-2.4-15.5,3.7-32.7,16.8-41.8C-33,331-49,303.6-51.6,274.7c-2.6-28.9,8.2-58.8,28.8-79.3
				c-8.8-6.9-11.3-19.8-7.7-30.4c3.5-10.6,12.1-18.8,21.9-24.3c8.8-4.9,24.2-6.1,30.8-12.5c7.1-6.8,7-15.9,19.9-16.5
				c9.1-0.4,18,5.6,21.1,14.1c0.6-3.5,4-6.4,7.6-6.3c3.6,0.1,6.9,3,7.3,6.6c10.3-13.6,23.5-25,38.5-33.3c8.5-4.7,19-8.4,27.7-3.9
				c7.7,3.9,11.3,13.3,10.9,21.9c-0.4,8.6-4.1,16.7-7.6,24.6c5.4-3.8,14-2.2,17.6,3.4c3.6,5.6,1.7,14-4,17.5
				c9.6-2.2,19.9-4.4,29.3-1.4c9.4,3,17.3,13.3,13.9,22.6c-2.4,6.6-9.1,10.2-15.6,13.1c4.4-1.5,9.9,0.4,12.2,4.5
				c2.6,4.6,0.7,11.1-3.9,13.6c7.4-2.9,16.1-2.2,22.9,1.9C222.2,219.1,220.5,228.5,215.2,235.5z"/>
		</g>
		<path class="st16" d="M133.8,243.1c-0.3,9.6-0.9,19.2-2.2,28.8c-0.1,0.7-0.2,1.4-0.3,2.1c-0.5,3.3-1,6.6-1.6,9.9
			c-0.1,0.6-0.2,1.2-0.3,1.8c-2.1,11-5,21.9-8.8,32.4c-0.2,0.5-0.3,0.9-0.5,1.4c-0.1,0.1-0.1,0.3-0.1,0.4c-1.1,2.8-2.2,5.6-3.5,8.2
			c-0.2,0.5-0.4,0.9-0.6,1.4c-3.2,6.7-7,12.9-11.2,18.8c-0.6,0.9-1.2,1.7-1.9,2.5c-4.2,5.6-8.8,11-13.8,16.1
			c-0.6,0.6-1.1,1.2-1.7,1.8c0,0.2,0,0.3,0,0.5c-0.1,2-0.2,3.9-0.2,5.9c0,0.8-0.1,1.5-0.1,2.3c-0.1,3.6-0.2,7.2-0.3,10.7
			c0,0.7,0,1.4-0.1,2.1c-0.3,11-0.4,22-0.5,33c0,0.9,0,1.8,0,2.6c0,6.5,0,12.9,0.1,19.4c0,0.8,0,1.6,0,2.3c0.1,7,0.3,14,0.5,21
			c0,0.5,0,1,0.1,1.6c0.2,6,0.4,12,0.7,18c0,0.6,0.1,1.2,0.1,1.8c0.5,11.9,1.2,23.7,2.1,35.4c0.1,0.5,0.1,1,0.1,1.5
			c0.6,7.6,1.2,15.2,1.9,22.7c0.1,0.5,0.1,1,0.1,1.4c0.3,3.1,0.6,6.1,0.9,9.1c0.1,0.5,0.1,1,0.2,1.4c0.4,3.6,0.8,7.2,1.2,10.7
			c0.1,0.5,0.1,1,0.2,1.5c0.7,5.8,1.4,11.4,2.2,17c0.1,0.5,0.2,1,0.2,1.5c0.7,4.8,1.4,9.5,2.1,14.2c-9.9,0-18.4,0.1-26.5,0.2
			c-14.5,0.2-27.9,0.5-45.5,0.5c0.3-6.8,0.6-13.6,0.9-20.5c0-0.5,0.1-1,0.1-1.5c0.3-7.2,0.6-14.4,1-21.7c0.1-1.1,0.1-2.2,0.2-3.3
			c0,0,0,0,0,0c0.3-6.6,0.7-13.2,1-19.8c0-0.8,0.1-1.5,0.1-2.3c0.3-4.8,0.5-9.7,0.8-14.6c0.1-0.8,0.1-1.5,0.1-2.3
			c0.3-5.6,0.7-11.3,1.1-16.9c0-0.7,0.1-1.3,0.1-2c0.4-6.4,0.9-12.9,1.4-19.3c0.1-0.6,0.1-1.3,0.2-1.9c1-13.5,2.2-27,3.5-40.5
			c0.1-0.7,0.1-1.3,0.2-2c0.1-0.8,0.2-1.6,0.2-2.4c0.1-0.9,0.2-1.8,0.3-2.8c-1.9-4.2-3.6-8.5-5.3-12.8c-0.2-0.5-0.4-0.9-0.5-1.4
			c-0.8-2.2-1.6-4.4-2.3-6.6c-0.4-1.3-0.8-2.5-1.3-3.8c-6.9-21.6-10.7-44.1-11.3-66.7c0-1-0.1-2-0.1-3c-0.1-7.2,0.2-14.5,0.7-21.7
			c0.1-0.9,0.2-1.8,0.2-2.7c0.8-8.6,2-17.1,3.7-25.6c0-0.1,0.1-0.3,0.1-0.4l0.2,0l1,0.2l1.9,0.4c0,5.1,0.2,10.2,0.4,15.3
			c0.1,0.8,0.1,1.5,0.1,2.3c0.3,4.5,0.7,9.1,1.1,13.6c0.1,0.9,0.2,1.8,0.3,2.7c0.8,7.3,1.9,14.5,3.2,21.7c0.2,1.2,0.5,2.4,0.7,3.6
			c2.9,14.9,6.9,29.6,11.8,43.9c0.5-4,1.1-8.1,1.6-12.2c0.1-0.5,0.2-1,0.2-1.5c0.5-3.8,1.1-7.6,1.7-11.3c0.1-0.5,0.1-1,0.2-1.4
			c0.6-4.2,1.3-8.4,2-12.6c0.1-0.6,0.2-1.1,0.3-1.7c0.3-1.9,0.6-3.8,1-5.7c0.1-0.8,0.3-1.6,0.4-2.4c1.7-10,3.6-19.9,5.6-29.7v-0.1
			c0.8-3.6,1.5-7.2,2.3-10.8c0,0,0-0.1,0-0.1c0.9-3.9,1.8-7.8,2.7-11.7v-0.2c0.6-2.7,1.3-5.4,2-8.1c0,0,0-0.1,0-0.1
			c0.6-2.3,1.1-4.5,1.7-6.8c0.2-0.6,0.3-1.3,0.5-1.9c0.9-3.3,1.7-6.5,2.6-9.8c0.2-0.7,0.4-1.3,0.5-2c1.9-6.8,3.8-13.5,5.9-20.2
			c0.2-0.5,0.3-0.9,0.4-1.4c0.7-2.3,1.5-4.6,2.2-7l16.9,2.6l5.6,0.9c-0.2,1.3-0.4,2.5-0.5,3.8c-0.1,0.5-0.1,1-0.2,1.5
			c-0.4,3.1-0.8,6.1-1.2,9.2c-0.1,0.5-0.1,1.1-0.2,1.6c-0.6,5-1.2,10-1.8,15.2c-0.1,0.6-0.2,1.3-0.2,1.9c-0.6,5.5-1.2,11.1-1.7,16.8
			c-0.1,0.8-0.2,1.6-0.2,2.4c-0.3,3-0.6,6-0.8,8.9c-0.1,0.8-0.2,1.7-0.2,2.5c-0.5,5.2-0.9,10.5-1.3,15.8c-0.1,0.8-0.1,1.5-0.2,2.3
			c-0.3,4.1-0.6,8.2-0.8,12.3c0,0.5-0.1,1-0.1,1.6c-0.1,0.6-0.1,1.2-0.1,1.9c0.7-0.9,1.3-1.7,1.9-2.6c0.5-0.7,1-1.4,1.5-2
			c5.1-7.1,9.7-14.4,13.9-22c0.8-1.4,1.6-2.9,2.3-4.3c0-0.1,0-0.1,0.1-0.1c0.4-0.7,0.7-1.4,1.1-2.1c0-0.1,0-0.1,0.1-0.1c1-2,2-4,3-6
			c2-4.3,4-8.6,5.7-13.1c0.3-0.7,0.6-1.4,0.8-2.1c4.7-12.1,8.4-24.6,11-37.4C131.4,242.9,132.7,242.9,133.8,243.1L133.8,243.1z"/>
		<g>
			<path class="st17" d="M133.8,243.1c-0.3,9.6-0.9,19.2-2.2,28.8c-0.1,0.7-0.2,1.4-0.3,2.1c-0.5,3.3-1,6.6-1.6,9.9
				c-0.1,0.6-0.2,1.2-0.3,1.8c-2.1,11-4.9,21.9-8.8,32.4c-0.2,0.5-0.3,0.9-0.5,1.4c-0.1,0.1-0.1,0.3-0.1,0.4
				c-1.1,2.8-2.2,5.6-3.5,8.2c-0.2,0.5-0.4,0.9-0.6,1.4c-3.2,6.7-7,12.9-11.2,18.8c-0.6,0.9-1.2,1.7-1.9,2.5
				c-4.2,5.6-8.8,11-13.8,16.1c-0.6,0.6-1.1,1.2-1.7,1.8c0,0.2,0,0.3,0,0.5c-0.1,2-0.2,3.9-0.2,5.9c0,0.8-0.1,1.5-0.1,2.3
				c-0.1,3.6-0.2,7.2-0.3,10.7c0,0.7,0,1.4-0.1,2.1c-0.3,11-0.4,22-0.5,33c0,0.9,0,1.8,0,2.6c0,6.5,0,12.9,0.1,19.4
				c0,0.8,0,1.6,0,2.3c0.1,7,0.3,14,0.5,21c0,0.5,0,1,0.1,1.6c0.2,6,0.4,12,0.7,18c0,0.6,0.1,1.2,0.1,1.8
				c0.5,11.9,1.2,23.7,2.1,35.4c0.1,0.5,0.1,1,0.1,1.5c0.6,7.6,1.2,15.2,1.9,22.7c0.1,0.5,0.1,1,0.1,1.4c0.3,3.1,0.6,6.1,0.9,9.1
				c0.1,0.5,0.1,1,0.2,1.4c0.4,3.6,0.8,7.2,1.2,10.7c0.1,0.5,0.1,1,0.2,1.5c0.7,5.8,1.4,11.4,2.2,17c0.1,0.5,0.2,1,0.2,1.5
				c0.7,4.8,1.4,9.5,2.1,14.2c-9.9,0-18.4,0.1-26.5,0.2c-6.5-123.7,0.6-248,20.9-370.2l5.6,0.9c-0.2,1.3-0.4,2.5-0.5,3.8
				c-0.1,0.5-0.1,1-0.2,1.5c-0.4,3.1-0.8,6.1-1.2,9.2c-0.1,0.5-0.1,1.1-0.2,1.6c-0.6,5-1.2,10-1.8,15.2c-0.1,0.6-0.2,1.3-0.2,1.9
				c-0.6,5.5-1.2,11.1-1.7,16.8c-0.1,0.8-0.2,1.6-0.2,2.4c-0.3,3-0.6,6-0.8,8.9c-0.1,0.8-0.2,1.7-0.2,2.5
				c-0.5,5.2-0.9,10.5-1.3,15.8c-0.1,0.8-0.1,1.5-0.2,2.3c-0.3,4.1-0.6,8.2-0.8,12.3c0,0.5-0.1,1-0.1,1.6c-0.1,0.6-0.1,1.2-0.1,1.9
				c0.7-0.9,1.3-1.7,1.9-2.6c0.5-0.7,1-1.4,1.5-2c5.1-7.1,9.7-14.4,13.9-22c0.8-1.4,1.6-2.9,2.3-4.3c0-0.1,0-0.1,0.1-0.1
				c0.4-0.7,0.7-1.4,1.1-2.1c0-0.1,0-0.1,0.1-0.1c1-2,2-4,3-6c2-4.3,4-8.6,5.7-13.1c0.3-0.7,0.6-1.4,0.8-2.1
				c4.7-12.1,8.4-24.6,11-37.4C131.4,242.9,132.7,242.9,133.8,243.1L133.8,243.1z"/>
		</g>
		<g class="st18">
			<path class="st19" d="M86.1,447.5c-1.2,1.6-2.5,3.2-3.7,4.7c-11.2,14-23.5,27.2-36.6,39.4c-4.6,4.3-9.3,8.4-14.1,12.5
				c0-0.7,0.1-1.3,0.1-2c12.1-10.2,23.5-21.1,34.1-32.8c7.1-7.8,13.9-15.8,20.2-24.1C86.1,446,86.2,446.7,86.1,447.5L86.1,447.5z"/>
			<path class="st19" d="M56.1,495.5c-8.5,9.3-17.1,18.5-25.6,27.8c0.1-0.8,0.1-1.5,0.1-2.3c2.9-3.2,5.9-6.4,8.8-9.6
				c6.8-7.4,13.6-14.9,20.5-22.2c5.9-6.3,12.2-12.4,19.5-17c2.3-1.5,4.7-2.7,7.1-3.8c0,0.5,0,1,0.1,1.6c-0.5,0.2-0.9,0.4-1.4,0.7
				c-3.8,1.9-7.3,4.2-10.7,6.8C67.9,482.8,62,489.2,56.1,495.5L56.1,495.5z"/>
			<path class="st19" d="M87.4,489.8c-7,5.6-14.2,11-21.2,16.6c-13,10.3-25.7,21.2-36.6,33.7c0-0.8,0.1-1.5,0.1-2.3
				c11.1-12.4,23.8-23.2,36.8-33.5c6.9-5.4,13.9-10.8,20.8-16.3C87.3,488.7,87.3,489.2,87.4,489.8L87.4,489.8z"/>
			<path class="st19" d="M94,573.7c-4.9,0-9.8-0.1-14.6-0.2c-6.9-0.1-13.8-0.2-20.6-0.3c-3.4-0.1-6.8-0.1-10.1-0.1
				c-3.1-0.1-6.3,0-9.3-0.6c-4.9-0.8-10.1-3.9-10.9-9.2c0-0.1-0.1-0.2-0.1-0.3c-0.1-1.1-0.1-2.1,0.2-3c0,0,0,0,0,0
				c1-3.6,4.4-6.3,7.5-8.3c5.3-3.3,10.8-6.4,16.3-9.3c5.6-3,11.2-5.8,16.9-8.5c6.7-3.1,13.4-6,20.2-8.6c0.1,0.5,0.1,1,0.1,1.5
				c-7.8,3-15.4,6.4-22.9,10c-5.5,2.6-11,5.5-16.4,8.4c-2.6,1.5-5.3,2.9-7.9,4.4c-2.4,1.4-4.9,2.8-7.2,4.4c-2,1.4-3.9,3.1-4.9,5.3
				c-1,2.3-0.6,4.9,0.8,7c3.4,4.9,9.9,5.2,15.4,5.3c13.2,0.2,26.4,0.4,39.6,0.5c2.6,0,5.2,0.1,7.8,0.1
				C93.9,572.7,93.9,573.2,94,573.7L94,573.7z"/>
			<path class="st19" d="M92.6,561.5c-2.7,0.1-5.3,0.2-8,0.3c-4.5,0-9.2-0.1-13.6-0.9c-1.8-0.4-3.6-1.1-4.8-2.6
				c-1-1.3-1.5-3-0.8-4.5c1.3-3,5.2-3.3,8-3.4l17.9-0.8c0.1,0.5,0.1,1,0.1,1.4c-1.7,0.1-3.3,0.2-5,0.2l-7.7,0.4
				c-2.3,0.1-4.7,0.1-7,0.4c-1.5,0.1-3.2,0.4-4.3,1.5c-1.4,1.2-1,3.2,0.2,4.4c1.5,1.5,3.8,1.8,5.7,2c2.2,0.3,4.4,0.5,6.7,0.5
				c4.1,0.2,8.3,0,12.4-0.2C92.6,560.5,92.6,561,92.6,561.5L92.6,561.5z"/>
			<path class="st19" d="M96.4,592.1c-2.1-0.2-4.2-0.4-6.4-0.7c-11.6-1.5-22.9-4.2-34.5-5.6c-9.4-1.1-19-1.4-28.3,0.6
				c0-0.5,0.1-1,0.1-1.5c4.3-0.9,8.7-1.4,13.1-1.5c11.5-0.2,22.7,1.9,34,3.9c7.2,1.3,14.5,2.6,21.8,3.2
				C96.2,591.1,96.3,591.6,96.4,592.1L96.4,592.1z"/>
			<path class="st19" d="M60.8,455.5c9.3-10,17.8-20.9,25.2-32.3c0,0.9,0,1.8,0,2.6c-8.5,12.8-18.2,24.8-29,35.8
				c-7.5,7.6-15.4,14.7-23.9,21.2c0.1-0.6,0.1-1.3,0.2-1.9C43.1,473.1,52.3,464.7,60.8,455.5L60.8,455.5z"/>
			<path class="st19" d="M86.5,388c0,0.7,0,1.4-0.1,2.1c-0.8,0.7-1.6,1.5-2.4,2.2c-14.4,13.9-26.3,30.3-41.6,43.3
				c-1.9,1.6-3.8,3.2-5.8,4.6c0.1-0.7,0.1-1.3,0.2-2c5.1-3.9,9.8-8.3,14.3-12.9c7.1-7.2,13.7-14.9,20.5-22.4
				c3.5-3.8,7.1-7.6,10.8-11.2C83.9,390.5,85.2,389.3,86.5,388L86.5,388z"/>
			<path class="st19" d="M86.9,375c0,0.8-0.1,1.5-0.1,2.3c-2.9,3.6-6.2,6.8-9.6,9.8c-7.3,6.3-15.3,11.7-23,17.4l-22,16
				c-0.2-0.5-0.4-0.9-0.5-1.4c3.4-2.5,6.8-4.9,10.2-7.4c8.2-6,16.5-11.9,24.6-17.9c7.4-5.5,14.6-11.3,20.3-18.6
				C86.7,375.1,86.8,375.1,86.9,375L86.9,375z"/>
			<path class="st19" d="M30.3,348.3c-2.1,10.1-3,20.4-2.5,30.7c0.5,10.9,2.4,22.4,1.5,33.4c-0.4-1.3-0.8-2.5-1.3-3.8
				c0.1-2,0.1-4,0-6.1c-0.3-9.3-1.8-18.6-1.8-28c-0.1-8.3,0.7-16.6,2.3-24.7c0.3-1.7,0.7-3.5,1.1-5.2
				C29.9,345.9,30.1,347.1,30.3,348.3L30.3,348.3z"/>
			<path class="st19" d="M88.9,366.9c-0.6,0.6-1.1,1.2-1.7,1.8c0,0.2,0,0.3,0,0.5c-8.1,3.2-16.1,6.7-24.3,9.3
				c-5.4,1.7-11.2,3.6-16.9,2.4c-0.7-0.2-1.5-0.4-2.2-0.7c0.1-0.5,0.2-1,0.2-1.5c2.5,1,5.5,1.2,8.1,0.9c3-0.3,5.8-1.2,8.7-2
				c2.8-0.8,5.5-1.8,8.2-2.8C75.7,372.2,82.3,369.4,88.9,366.9L88.9,366.9z"/>
			<path class="st19" d="M25,306.8c-0.2,0.2-0.3,0.4-0.4,0.6c-2.4,3.3-4.8,6.6-7.2,9.9c0.1-0.9,0.2-1.8,0.2-2.7
				c2.4-3.3,4.8-6.7,7.3-10C24.9,305.2,25,306,25,306.8L25,306.8z"/>
			<path class="st19" d="M26.4,323c-3.1,6.3-6.4,12.6-9.6,18.8c0-1-0.1-2-0.1-3c3.2-6.1,6.4-12.3,9.4-18.5
				C26.2,321.3,26.3,322.2,26.4,323z"/>
			<path class="st19" d="M96.6,251.7c-0.1,0.5-0.1,1.1-0.2,1.6c-0.4,0.1-0.7,0.3-1.1,0.4c-5.4,1.9-10.9,3.8-16.3,5.7
				c-2.5,0.9-5.1,1.7-7.6,2.7c-1.5,0.6-3.1,1.2-4.4,2.2c0.2-0.7,0.4-1.3,0.5-2c0.5-0.3,1.1-0.6,1.7-0.8c2.2-1,4.5-1.7,6.7-2.5
				c2.6-0.9,5.2-1.8,7.8-2.7C88,254.7,92.3,253.3,96.6,251.7L96.6,251.7z"/>
			<path class="st19" d="M83,308.8c2.9-3.4,5.7-6.9,8.6-10.3c-0.1,0.8-0.2,1.7-0.2,2.5c-1.4,1.7-2.8,3.4-4.3,5.1
				c-5.8,6.9-11.8,15.1-20.8,17.8c-3.7,1.1-8.9,1.5-10.8-2.8c-0.9-2.1-0.7-4.4-0.5-6.5l0.1-0.8v-0.1c0.8-3.6,1.5-7.2,2.3-10.8
				c-0.3,3.4-0.5,6.8-0.8,10.2c-0.2,2.3-0.6,4.8,0.1,7c0.7,2.3,2.9,3.1,5.1,3.1c4.3-0.1,8.5-2.3,11.8-4.8
				C77.1,315.6,80.1,312.2,83,308.8z"/>
			<path class="st19" d="M94.6,268.5c-0.1,0.6-0.2,1.3-0.2,1.9c-0.4,0.3-0.7,0.5-1.1,0.8c-4.1,2.9-8.1,6-12.8,7.9
				c-4.1,1.6-9,2-13.1-0.1c-1.4-0.7-2.6-1.8-3.5-3.1c0.2-0.6,0.3-1.3,0.5-1.9c0.4,0.7,0.9,1.4,1.4,2c3.4,3.5,8.9,3.5,13.3,2
				c5-1.7,9.3-5.1,13.5-8.1C93.2,269.5,93.9,269,94.6,268.5z"/>
			<path class="st19" d="M98,241c-0.1,0.5-0.1,1-0.2,1.5c-0.1,0-0.1,0-0.2,0c-8,1-16.2,0.9-24.2-0.5c0.2-0.5,0.3-0.9,0.4-1.4
				C81.8,242,90,242.1,98,241z"/>
			<path class="st19" d="M92.6,287.2c-0.1,0.8-0.2,1.6-0.2,2.4c-0.5,0.5-1,1.1-1.5,1.6c-3.4,3.4-7.3,6.4-11.4,9
				c-2.1,1.3-4.3,2.5-6.5,3.6c-2.2,1-4.6,1.8-7.1,1.4c-2.2-0.4-4-1.7-4.9-3.7c-0.9-2.2-0.9-4.8-0.9-7.2c0-1,0-2,0-3V291
				c0.6-2.7,1.3-5.4,2-8.1c-0.5,4.2-0.6,8.3-0.5,12.5c0.1,2.1,0,4.7,1.3,6.5c1.4,1.9,4,2.2,6.1,1.7c2.4-0.5,4.5-1.8,6.7-2.9
				c1.9-1.1,3.8-2.2,5.6-3.5C85.5,294.3,89.3,290.9,92.6,287.2L92.6,287.2z"/>
			<path class="st19" d="M90.1,316.9c-0.1,0.8-0.1,1.5-0.2,2.3c-5.2,5-11.5,8.9-17.8,12.3c-5,2.7-10,5.2-14.8,8.3
				c-2.4,1.5-4.7,3.1-6.8,4.9c-0.5,0.4-1,0.8-1.4,1.4c0.1-0.8,0.3-1.6,0.4-2.4c0.5-0.5,1.1-0.9,1.6-1.3c2.3-1.8,4.7-3.3,7.1-4.8
				c5-3,10.1-5.6,15.1-8.4C79.4,325.8,85.4,321.9,90.1,316.9L90.1,316.9z"/>
			<path class="st19" d="M76,339.3c4-3.3,8.4-6,13.1-7.9c0,0.5-0.1,1-0.1,1.6c-1.9,0.8-3.7,1.7-5.5,2.8c-5,3-9.1,7-13.6,10.6
				c-4.2,3.5-9,6.7-14.4,7.7c-2.3,0.4-4.9,0.6-7-0.4c-0.2-0.1-0.5-0.3-0.7-0.4c0.1-0.6,0.2-1.1,0.3-1.7c1.5,1.7,4.5,1.5,6.6,1.2
				c2.7-0.5,5.3-1.5,7.7-2.8C67.5,347.1,71.6,343,76,339.3L76,339.3z"/>
			<path class="st19" d="M116.4,328c-0.2,0.5-0.4,0.9-0.6,1.4c-6-0.9-12.2-0.6-18.2,0.7c-2.3,0.5-4.6,1.2-6.8,2.1
				c0.5-0.7,1-1.4,1.5-2c3.5-1.2,7.1-2,10.8-2.4C107.5,327.3,112,327.4,116.4,328L116.4,328z"/>
			<path class="st19" d="M104.6,348.2c-0.6,0.9-1.2,1.7-1.9,2.5c-0.4,0.2-0.7,0.4-1.1,0.6c-9.2,4.4-18.7,8.1-28.5,11
				c-5,1.5-10.1,2.8-15.2,3.8c-4.1,0.8-8.2,1.4-12.3,1.2c0.1-0.5,0.1-1,0.2-1.4c4.9,0.3,9.7-0.7,14.5-1.7
				C75.7,360.8,90.6,355.4,104.6,348.2L104.6,348.2z"/>
			<path class="st19" d="M111.3,315.1c2.7,2.1,5.9,2.9,9.2,3c-0.2,0.5-0.3,0.9-0.5,1.4c-3.8-0.2-7.4-1.2-10.3-3.8
				c-1.9-1.8-3.3-4.1-3.5-6.7c0-0.2,0-0.5,0-0.7c0.8-1.4,1.6-2.9,2.3-4.3c-0.6,1.5-1,3.1-0.9,4.7
				C107.8,311.2,109.3,313.5,111.3,315.1L111.3,315.1z"/>
			<path class="st19" d="M129.8,283.8c-0.1,0.6-0.2,1.2-0.3,1.8c-7,3.7-13.9,7.8-18.7,14.3c-0.4,0.5-0.7,1-1.1,1.6c1-2,2-4,3-6
				c2.8-2.8,6-5.2,9.3-7.3C124.5,286.7,127.1,285.2,129.8,283.8L129.8,283.8z"/>
			<path class="st19" d="M131.6,271.9c-0.1,0.7-0.2,1.4-0.3,2.1c-4.1,3.2-8.4,6.1-12.9,8.5c0.3-0.7,0.6-1.4,0.8-2.1
				c1.1-0.6,2.2-1.3,3.3-2C125.7,276.4,128.7,274.2,131.6,271.9L131.6,271.9z"/>
		</g>
		<g>
			<path class="st17" d="M37.2,436c0.1-0.9,0.2-1.8,0.3-2.8c-1.9-4.2-3.6-8.5-5.3-12.8c-0.2-0.5-0.4-0.9-0.5-1.4
				c-0.8-2.2-1.6-4.4-2.3-6.6c-0.4-1.3-0.8-2.5-1.3-3.8c-6.9-21.6-10.7-44.1-11.3-66.7c0-1-0.1-2-0.1-3c-0.1-7.2,0.2-14.5,0.7-21.7
				c0.1-0.9,0.2-1.8,0.2-2.7c0.8-8.6,2-17.1,3.7-25.6c0.1-0.1,0.2-0.3,0.3-0.4c0.4-0.6,0.9-1.2,1.3-1.8c-0.1,0.7-0.3,1.3-0.4,2
				C15.5,329.2,22,372,40.8,408.5C39.4,418,38.5,426.5,37.2,436z"/>
		</g>
		<path class="st20" d="M199.7,238.2c-9.9,4-21,5-31.4,2.6c4.7,0.9,7.5,6.8,5.4,11.1c-2.1,4.2-8.6,5.4-12.1,2.2
			c3.3,5.7,6.2,11.8,6.9,18.4c0.7,6.6-1.2,13.7-6.2,18c-5,4.4-13.3,5-18.1,0.5c-5.6,2.8-13.3-0.2-14.2-6.4c0.1,3.8-3.1,7.2-6.7,8.2
			c-3.7,1-7.7,0-11.1-1.8c-9-4.7-14.7-15.1-13.7-25.2c-2.7,4.5-7.7,7.6-13,7.8c-3.2,0.2-6.4-0.7-9.1-2.3c1.1,1.2,2.2,2.4,3,3.8
			c1.8,3.2,2.4,7.4,0.4,10.5c-2.5,3.9-7.7,4.7-12.3,5.1c-10.4,0.9-20.8,1.9-31.2,2.9c2.3,0.5,3.5,1.1,4.5,3.2c1,2.1,0.7,4.9-1.1,6.5
			c-0.4,0.4-1,0.6-1.5,0.8c6.1,3.1,10.5,9.7,10.4,16.6c0,8.5-6.8,16.6-15.3,18c1.5,2.9,2.3,5.5,0.7,8.3c-1.3,2.3-4.2,3.4-6.9,3.3
			c-2.7-0.1-5.2-1.1-7.7-2.2c1.6,2.7,1.7,6.2,0.3,9.1c-1.4,2.8-4.2,4.9-7.4,5.3c-5.8,0.8-11.2-4-13.1-9.6c-1.9-5.6-1-11.6,0-17.4
			c-8.8-0.4-17.3-6.2-20.7-14.3c-3.4-8.1-1.8-18.1,4-24.7c-10-1.5-21.4-3.9-26-12.9c-4-7.9-0.8-17.5,3.8-25c1.6-2.6,3.4-5.2,5.4-7.5
			c7.5-9.2,17.3-16.6,28.4-21.1c-9.7-9.6-9.7-27.2-0.1-36.8c-9.9-6.4-12.7-21.5-5.8-30.9c6.9-9.5,25.5-13.1,34.6-5.6
			c-2.1-5.7,0.3-12.7,5.5-15.9c5.2-3.2,12.5-2.2,16.7,2.2c-1-2.9,0-6.4,2.5-8.3c2.5-1.9,6.2-2,8.7-0.2c-2.1-9.4-2.1-20.6,5-27.1
			c5.1-4.7,13.2-5.8,19.3-2.5c6.1,3.3,9.7,10.6,8.6,17.4c2-5.4,9.6-7.7,14.3-4.3c5.7-5.1,11.6-10.4,18.9-13
			c7.2-2.6,16.2-1.9,21.4,3.7c4,4.4,4.3,11.9,0.8,16.3c2.1-1.4,4.5-2.5,6.9-3.2c2.6-0.9,5.3-1.3,8.1-1.4c9.6-0.3,20.2,5.8,21.5,15.3
			c0.8,5.8-1.9,11.7-6,16c-4,4.3-9.2,7.3-14.3,10.2c2.5,3,3.1,7.4,1.7,11.1c-0.1,0.2-0.2,0.4-0.3,0.6c-0.8,1.8-2.2,3.3-3.8,4.4
			c2.2-0.1,4.4,0.4,6.4,1.3c2.5,1.2,4.6,3.1,5.7,5.5c2.5,5.4,0.2,12.3-4.7,15.6c2.6-0.5,5.6,0.4,7.2,2.5c2.4,3.1,1.5,8.2-1.8,10.3
			c8.7,1.4,17.5,2.9,26.2,4.3c4.8,0.8,10.6,2.3,12.2,6.9C211.7,230.3,205.5,235.8,199.7,238.2z"/>
		<g>
			<path class="st21" d="M158.6,231.2c2.3,2.1,1.6,6.3-0.9,8.2c-2.5,1.9-6.1,1.7-8.9,0.3c-2.8-1.4-5-3.8-6.9-6.3
				c1.5,4.4-1.3,9.3-5.5,11.4c-1.1-2-2.9-3.9-4-5.9c-5.9,3.3-14.2,1.3-18-4.3c-2.2,3.5-7.6,4.2-10.8,1.8c3,3,3.6,8.1,1.3,11.7
				c-2.5,3.9-8.2,5.3-12.3,3.1c1.2,2,1,4.6-0.4,6.4c-2,7.6-12.4,11.5-18.9,7c-1,10.3-8.9,19.6-18.9,22.3c-10,2.7-21.5-1.5-27.5-9.9
				c-19.1,8.3-43.5,1.4-55.5-15.6c-2.3-3.2-4.1-6.7-5.7-10.4c7.5-9.2,17.3-16.6,28.4-21.1c-9.7-9.6-9.7-27.2-0.1-36.8
				c-9.9-6.4-12.7-21.5-5.8-30.9c6.9-9.5,25.5-13.1,34.6-5.6c-2.1-5.7,0.3-12.7,5.5-15.9c5.2-3.2,12.5-2.2,16.7,2.2
				c-1-2.9,0-6.4,2.5-8.3c2.5-1.9,6.2-2,8.7-0.2c-2.1-9.4-2.1-20.6,5-27.1c5.1-4.7,13.2-5.8,19.3-2.5c6.1,3.3,9.7,10.6,8.6,17.4
				c2-5.4,9.6-7.7,14.3-4.3c5.7-5.1,11.6-10.4,18.9-13c7.2-2.6,16.2-1.9,21.4,3.7c4,4.4,4.3,11.9,0.8,16.3c2.1-1.4,4.5-2.5,6.9-3.2
				c3.6,11.5,0.9,24.9-7,34c1.9,0.4,3.4,2.1,3.6,4.1c0.1,1.9-1.2,3.9-3,4.5c6.8-0.9,13.8,2.9,17.4,8.6c-0.1,0.2-0.2,0.4-0.3,0.6
				c-0.8,1.8-2.2,3.3-3.8,4.4c2.2-0.1,4.4,0.4,6.4,1.3c1.1,8.1-4.1,16.7-11.8,19.3c7,1.4,12.8,7.3,14.1,14.4
				C168.1,219.9,164.6,227.5,158.6,231.2z"/>
		</g>
		<path class="st7" d="M156.8,191.5c-2,2.4-5.1,3.6-8.2,4c-3.1,0.4-6.2,0-9.3-0.4c2.8,2.7,5.6,5.5,8.3,8.2c1.2,1.1,2.4,2.6,2.2,4.2
			c-0.3,2.2-2.8,3-5.1,3.3c4.3-0.2,8.5,2.5,10.1,6.4c1,2.4,0.9,5.4-0.7,7.5c-2.1,2.9-6.3,3.5-9.7,2.5c-3.4-1.1-6.2-3.5-8.9-5.8
			c0.5,3.3-1.2,7.4-3.2,10.1c-2,2.8-5,4.7-8.3,5.3c-2.9-1.2-5.3-3.2-6.7-6c-1.3-2.8-1.6-6.1-0.6-9.1c-3.1,4.6-8,7.7-13.4,8.8
			c-3.7-1.8-6.7-4.7-8.5-8.4c0,2.5-1.3,5-3.3,6.6c-2,1.5-4.8,2-7.2,1.3c3.1,1.6,6.3,3.3,8.5,6c2.2,2.7,3.2,6.7,1.5,9.7
			c-1.4,2.5-4.2,3.8-6.9,4.5c-2.7,0.7-5.6,1-8.2,2.2c2.2,0.8,2.1,4.4,0.5,6.1c-1.5,1.8-4.2,2.1-6.4,1.5c-2.2-0.7-4.1-2.1-5.9-3.6
			c-0.3,6.7-2.1,13.6-6.5,18.8c-4.4,5.2-11.5,8.2-18.1,6.6c-6.6-1.7-11.6-8.7-10-15.3c-2.5,1.5-5.3,3-8.2,2.7
			c-2.4-0.3-4.6-2.5-4.5-4.7c-0.9,2.6-3.2,4.6-5.8,5.5c-3.1,1.1-6.4,1.1-9.7,1.1c-5.7,0-11.7-0.1-16.7-3c-2.5-1.5-4.6-3.6-6.1-6.2
			c-1.6-2.8-2.4-6.1-2.2-9.4c0.3-4,2.2-7.9,5.1-10.7c1.5-1.5,3.4-2.8,5.4-3.6c-2.9,0.3-5.9-1.6-7-4.3c-1-2.7-0.1-6.1,2.2-7.9
			c-2.2,1.4-5.3,1.1-7.5-0.2c-2.3-1.3-3.9-3.6-4.9-6c-2.2-5.5-1.3-12.1,2.3-16.8c3.6-4.7,9.9-7.2,15.7-6.4c-3.7-5.3-3.3-13.1,0.9-18
			c2.5-2.9,6.2-4.6,10-5c0-2,0.1-4,0.5-5.9c1-5.2,3.9-10.3,8.6-12.7c4.7-2.3,11.4-1,13.9,3.7c-0.9-2.6,0.4-5.7,2.8-7
			c2.4-1.3,5.7-0.6,7.4,1.6c-1.4-6.1-1-12.9,2.1-18.4c3.1-5.5,9.3-9.4,15.5-8.8s11.8,6.7,11,12.9c0.2-2.2,1.8-4.2,3.9-5
			s4.6-0.3,6.2,1.2c2.3-4.2,5.5-8.1,9.8-10.2c4.3-2.1,9.8-2.3,13.7,0.5c3.9,2.8,5.6,8.7,2.9,12.7c6.7-8.6,17.2-14,28-14.7
			c1.8-0.1,3.7-0.1,5.5,0.3c2.6,0.5,5.1,1.5,6.9,3.4c2.9,3,3.6,7.5,3.3,11.6c-0.7,8.6-5.7,16.7-13,21.3c1.2-0.4,2.5-0.4,3.6-0.1
			c1.9,0.7,3.4,2.7,3.1,4.7c-0.2,1.8-1.9,3.2-3.6,3.3c4.3,0.4,8.6,0.8,12.7,2.1c1,0.3,2,0.8,3,1.2c3.1,1.6,5.9,3.8,7.7,6.8
			C159.7,182.6,159.8,188,156.8,191.5z"/>
		<g>
			<path class="st10" d="M134.7,131.1c-0.8,3.6-3.4,6.7-6.6,8.7c-3.2,1.9-7,2.8-10.7,3c2.1,0.7,2.2,4,0.5,5.6
				c-1.6,1.5-4.1,1.8-6.3,1.8c-2.2,0.1-4.6,0.1-6.5,1.3c3.8,1.3,6.6,5,6.9,9c0.2,4-2.1,8-5.7,9.7c-3.6,1.7-8.2,1.1-11.2-1.6
				c0,1.5-0.8,3.4-2.2,4c-1.4,0.5-3.1,0.1-4.1-1c2,8-0.2,17-5.8,23.2c-2.5-5.4-3.1-12-1.3-17.7c-3.7,4-8.9,6.5-14.3,7
				c-0.1-4.5,1.8-9.4,5.5-12c-3.2,1.4-7.2,0.7-9.8-1.7c0.4,5-3.6,9.6-8.4,11.5c-4.7,1.9-10,1.6-15,1.4c3,1.8,6.1,3.6,8.3,6.3
				c2.2,2.7,3.5,6.4,2.3,9.7c-1.5,4.2-6.3,6.2-10.6,7.3c1.3-0.3,2.6-0.5,3.9-0.3c1.3,0.2,2.6,0.9,3.2,2.1c0.7,1.6-0.2,3.5-1.5,4.6
				c-0.7,0.6-1.6,1-2.5,1.3c1.7-0.2,3.4,0.3,4.8,1.2c2,1.4,3.3,3.9,3.2,6.4c-0.2,3.2-2.5,5.9-4.9,8c-4.2,3.6-9.3,6.2-14.7,7.4
				c4,1.3,7.7,3.8,10.9,6.6c-4.1,3.3-9.7,4.7-14.8,3.2c0.9,3.4,0.3,7.2-1.6,10.1c-2.1-3.2-5.2-6.1-7.3-9.2c-3.4,0.9-7.3-0.9-8.8-4
				c0.7,7.7-4.6,15.2-11.8,18c-5,2-10.6,1.9-15.8,0.4c-1.6-2.8-2.4-6.1-2.2-9.4c0.3-4,2.2-7.9,5.1-10.7c1.5-1.5,3.4-2.8,5.4-3.6
				c-2.9,0.3-5.9-1.6-7-4.3c-1-2.7-0.1-6.1,2.2-7.9c-2.2,1.4-5.3,1.1-7.5-0.2c-2.3-1.3-3.9-3.6-4.9-6c-2.2-5.5-1.3-12.1,2.3-16.8
				c3.6-4.7,9.9-7.2,15.7-6.4c-3.7-5.3-3.3-13.1,0.9-18c2.5-2.9,6.2-4.6,10-5c0-2,0.1-4,0.5-5.9c1-5.2,3.9-10.3,8.6-12.7
				c4.7-2.3,11.4-1,13.9,3.7c-0.9-2.6,0.4-5.7,2.8-7c2.4-1.3,5.7-0.6,7.4,1.6c-1.4-6.1-1-12.9,2.1-18.4c3.1-5.5,9.3-9.4,15.5-8.8
				s11.8,6.7,11,12.9c0.2-2.2,1.8-4.2,3.9-5s4.6-0.3,6.2,1.2c2.3-4.2,5.5-8.1,9.8-10.2c4.3-2.1,9.8-2.3,13.7,0.5
				c3.9,2.8,5.6,8.7,2.9,12.7c6.7-8.6,17.2-14,28-14.7c1.8-0.1,3.7-0.1,5.5,0.3C134.9,126.3,135.2,128.8,134.7,131.1z"/>
		</g>
		<path class="st12" d="M604.4,566.9c-14.4-51.2-15.8-104.2-2-155.5c-1.3,0-2.4,0.1-3.7,0.1c-7.1,15.4-11,32-12,48.5
			c-0.5-14.4-1.6-28.8-3.8-43.1c-1.1,0.1-2.3,0.2-3.4,0.4c2.1,49.1,1.1,98.4-3.1,147.4L604.4,566.9L604.4,566.9z"/>
		<path class="st1" d="M655.5,420.1c-0.1,4.3-1.8,9.1-5.7,10.9c-4.1,1.8-8.7-0.2-12.7-2.2c-1,2.1-3.1,3.7-5.4,3.9
			c-2.3,0.3-4.7-0.8-6.2-2.6c3.4,4.5,2.4,11.6-2.1,15c-4.5,3.4-11.6,2.4-15-2c-3.4-4.4-2.9-10.5-2-15.9c-2,1.8-5.3,1.7-7.5,0.2
			c-2.2-1.6-3.4-4.2-3.8-6.9c-0.4-2.7,0-5.4,0.4-8.1c-0.6,3.5-3.5,6.4-6.9,7.5c-0.1,2.5-1.3,4.9-3.4,6.3c-2.6,1.8-6.2,1.9-8.9,0.3
			c1.7,3.5-1.6,8.2-5.5,7.9c4.4,3.2,6.1,9.6,4,14.6c-2.1,5-7.8,8.3-13.2,7.5c-5.4-0.8-9.9-5.5-10.5-10.9c-0.6,2.3-3,3.9-5.4,3.7
			c-2.3-0.2-4.4-2.3-4.6-4.6c-5.3,4.5-14.3,1.3-17.3-4.9c-3-6.2-0.9-13.9,3.4-19.4c4.3-5.4,10.4-9.1,16.3-12.6
			c-2.9-1-4.8-4.3-4.3-7.4c-7.8-4.3-12-14.4-9.5-23c0.5-1.8,1.3-3.4,2.3-5c3.9-5.9,11-9.7,18.1-9.2c-2.6-5-1-11.7,3.5-15.1
			c-2.9-7.2-4.8-14.9-3.9-22.6c0.9-7.7,4.8-15.2,11.5-19.2c6.6-4,16-3.6,21.4,1.9c-3.2-3.8-2.1-10.1,1.6-13.3
			c3.8-3.2,9.4-3.6,14-1.8c4.6,1.8,8.3,5.5,11,9.6c7.8,11.5,9.1,27.1,3.4,39.8c1.6-2.6,5.5-3.4,8-1.7c2.5,1.7,3.3,5.6,1.5,8
			c6.7-3,15.1-1.6,20.4,3.3c2,1.8,3.5,4.1,4.5,6.6c1.7,4.3,2,9.1,0.4,13.4c-2.4,6.9-9.2,12-16.5,12.4c1.9,1.8,5.1,1.8,7.6,2.3
			c2.5,0.5,5.4,2.1,5.5,4.7c0.1,1.9-1.5,3.6-3.2,4.3c-1.8,0.7-3.8,0.6-5.7,0.5c5.6,0.9,10.8,3.8,14.4,8.1S655.6,414.5,655.5,420.1
			L655.5,420.1z"/>
		<g>
			<path class="st15" d="M655.5,420.1c-0.1,4.3-1.8,9.1-5.7,10.9c-4.1,1.8-8.7-0.2-12.7-2.2c-1,2.1-3.1,3.7-5.4,3.9
				c-2.3,0.3-4.7-0.8-6.2-2.6c3.4,4.5,2.4,11.6-2.1,15c-4.5,3.4-11.6,2.4-15-2c-3.4-4.4-2.9-10.5-2-15.9c-2,1.8-5.3,1.7-7.5,0.2
				c-2.2-1.6-3.4-4.2-3.8-6.9c-0.4-2.7,0-5.4,0.4-8.1c-0.6,3.5-3.5,6.4-6.9,7.5c-0.1,2.5-1.3,4.9-3.4,6.3c-2.6,1.8-6.2,1.9-8.9,0.3
				c1.7,3.5-1.6,8.2-5.5,7.9c4.4,3.2,6.1,9.6,4,14.6c-2.1,5-7.8,8.3-13.2,7.5c-5.4-0.8-9.9-5.5-10.5-10.9c-0.6,2.3-3,3.9-5.4,3.7
				c-2.3-0.2-4.4-2.3-4.6-4.6c-5.3,4.5-14.3,1.3-17.3-4.9c-3-6.2-0.9-13.9,3.4-19.4c4.3-5.4,10.4-9.1,16.3-12.6
				c-2.9-1-4.8-4.3-4.3-7.4c-7.8-4.3-12-14.4-9.5-23c0.5-1.8,1.3-3.4,2.3-5c-0.7,3.3-0.2,6.9,1.6,9.8c2.7,4.5,8.3,7.2,13.5,6.5
				c-0.7,1.3-0.5,3.1,0.5,4.2c1,1.1,2.8,1.3,4.1,0.7c-1.4,4.2-0.7,9,1.8,12.6c1.7,2.4,4.5,4.4,7.5,4c2.3-0.3,4.2-2.1,5.3-4.2
				c1.1-2.1,1.5-4.5,1.9-6.8c-2.5,0-4.7-1.2-6.1-3.2c2.1-1.6,4.9-2.3,7.3-1.3c0.6-3.1,2.3-6.1,4.6-8.3c2,3.4,2.2,8,0.3,11.5
				c0.2,0.6,0.9,1.1,1.5,1.1c0.5-0.4,1.8-0.7,2.3-1.1c1,2.8,3.9,4.3,6.7,5c2.9,0.8,6.1,0,8.4-1.9c2.3-2,3.5-5,3.1-8
				c-2.4-1.3-4.3-3.3-5.5-5.8c3.5-0.3,7.1,1.3,8.9,4.3c-1.1,1-0.6,3.5,0.5,4.4c1.2,0.9,3.2,0.5,3.9-0.8c1.3,1.9,3.6,3.2,5.9,2.9
				c2.6-0.4,4.6-2.6,5.2-5.2c0.6-2.5-0.1-5.2-1.4-7.5c-1.3-2.3-3.1-4.2-4.8-6.1c1.5,1.1,3.7,1.1,5.2,0.1c1.6-1,2.4-3,2-4.8
				c5.4,4.3,12.7,7.4,19.3,5.1c6-2.1,9.8-8.2,11-14.4c0.4-2,0.5-4.1,0.5-6.1c1.7,4.3,2,9.1,0.4,13.4c-2.4,6.9-9.2,12-16.5,12.4
				c1.9,1.8,5.1,1.8,7.6,2.3c2.5,0.5,5.4,2.1,5.5,4.7c0.1,1.9-1.5,3.6-3.2,4.3c-1.8,0.7-3.8,0.6-5.7,0.5c5.6,0.9,10.8,3.8,14.4,8.1
				C653.5,408.9,655.5,414.5,655.5,420.1L655.5,420.1z"/>
		</g>
		<path class="st12" d="M690.7,553.5c-12.8-36.9-14-75.1-1.8-112.1c-1.2,0-2.1,0.1-3.3,0.1c-6.3,11.1-9.8,23.1-10.6,35
			c-0.4-10.4-1.5-20.8-3.4-31.1c-1,0.1-2,0.2-3.1,0.3c1.9,35.4,1,70.9-2.7,106.3L690.7,553.5L690.7,553.5z"/>
		<path class="st7" d="M720.6,435.3c-2-0.4-3.9-1.5-5.7-2.5c0.7,0.4,0.9,1.3,1.4,1.9c0.5,0.6,0.6,1.5,0.2,2.1
			c-0.3,0.4-0.9,0.6-1.4,0.5c2.3,1.6,4.6,3.4,6.4,5.5c2,2.3,3.5,5.1,3.8,8.1c0.3,3-0.8,6.3-3.2,8.2c-2.2,1.7-5.2,2.1-7.9,1.3
			s-4.9-2.6-6.4-4.9c-0.2,1.7-2.2,2.6-3.9,2.3c-1.7-0.3-3-1.4-4.3-2.5c0.4,2.9-0.8,5.8-2.9,7.9c-2.1,2-4.8,3.2-7.7,3.8
			c-2.2,0.5-4.5,0.6-6.7,0c-2.8-0.8-5.1-3-6.1-5.7c-0.7-2-0.7-4.2-0.1-6.1c-0.9-0.5-1.6-1.2-1.9-2.2c-0.5,1.9-3.1,3-4.8,1.9
			c0.5,4.7-0.3,9.5-2.2,13.8c-0.8,1.8-2,3.6-3.7,4.7c-1.7,1.1-4.1,1.2-5.6-0.1c-1,1.7-3.5,2.3-5.2,1.2c1,1.8-0.3,4.3-2.3,4.9
			c-2,0.6-4.2-0.2-5.7-1.7c-1.7-1.7-2.6-4.1-2.7-6.5c-0.1-2.4,0.5-4.8,1.5-7c-2.7,1.7-6.9,1.6-9.2-0.6c-0.7-0.6-1.2-1.4-1.3-2.3
			c-0.1-0.9,0.4-1.9,1.3-2.1c-3.5-0.8-6.1-4.2-6.6-7.7c-0.5-3.6,0.8-7.2,2.9-10.1c2.2-2.9,5.1-5.1,8.2-6.9c-7.9-4.2-14-12.2-15.3-21
			c0-0.1,0-0.1,0-0.2c-1.3-8.9,1.9-18.4,8.4-24.7c2.6-2.5,5.8-4.6,9.3-5.1c3.6-0.6,7.4,0.5,10.6,2.3c3.2,1.9,5.9,4.5,8.3,7.2
			c-0.3-1.8,2-3,3.7-2.5c1.7,0.5,2.8,2.1,3.8,3.6c0.1-3.6,3.7-6.7,7.2-6.3s6.4,4.2,5.6,7.7c1.2-1.8,4.1-1.6,5.1,0.3
			c1-4.1,3.8-7.8,7.5-9.8c3.7-2,8.3-2.4,12.3-1c2,0.7,3.9,1.9,5.2,3.5c1.9,2.3,2.5,5.5,2.2,8.5c-0.3,3-1.5,5.8-3,8.5
			c1.9-0.1,3.9-0.2,5.7,0.4c0.5,0.2,0.9,0.4,1.3,0.6c1.2,0.8,2.2,2,2.4,3.4c0.2,1.4-0.4,2.8-1.3,3.8c-0.9,1.1-2.1,1.9-3.2,2.7
			c6.1,0.2,11.8,5.1,12.9,11.1c0.4,2.2,0.2,4.8-1.4,6.4C724.9,435.4,722.6,435.8,720.6,435.3L720.6,435.3z"/>
		<g>
			<path class="st10" d="M720.6,435.3c-2-0.4-3.9-1.5-5.7-2.5c0.7,0.4,0.9,1.3,1.4,1.9c0.5,0.6,0.6,1.5,0.2,2.1
				c-0.3,0.4-0.9,0.6-1.4,0.5c2.3,1.6,4.6,3.4,6.4,5.5c2,2.3,3.5,5.1,3.8,8.1c0.3,3-0.8,6.3-3.2,8.2c-2.2,1.7-5.2,2.1-7.9,1.3
				s-4.9-2.6-6.4-4.9c-0.2,1.7-2.2,2.6-3.9,2.3c-1.7-0.3-3-1.4-4.3-2.5c0.4,2.9-0.8,5.8-2.9,7.9c-2.1,2-4.8,3.2-7.7,3.8
				c-2.2,0.5-4.5,0.6-6.7,0c-2.8-0.8-5.1-3-6.1-5.7c-0.7-2-0.7-4.2-0.1-6.1c-0.9-0.5-1.6-1.2-1.9-2.2c-0.5,1.9-3.1,3-4.8,1.9
				c0.5,4.7-0.3,9.5-2.2,13.8c-0.8,1.8-2,3.6-3.7,4.7c-1.7,1.1-4.1,1.2-5.6-0.1c-1,1.7-3.5,2.3-5.2,1.2c1,1.8-0.3,4.3-2.3,4.9
				c-2,0.6-4.2-0.2-5.7-1.7c-1.7-1.7-2.6-4.1-2.7-6.5c-0.1-2.4,0.5-4.8,1.5-7c-2.7,1.7-6.9,1.6-9.2-0.6c-0.7-0.6-1.2-1.4-1.3-2.3
				c-0.1-0.9,0.4-1.9,1.3-2.1c-3.5-0.8-6.1-4.2-6.6-7.7c-0.5-3.6,0.8-7.2,2.9-10.1c2.2-2.9,5.1-5.1,8.2-6.9
				c-7.9-4.2-14-12.2-15.3-21c0.1,0.2,0.2,0.4,0.3,0.6c2,3.9,5.1,7.2,9,9.1c3.9,1.9,8.7,2.1,12.6,0.3c-0.5,0.9-0.4,2.1,0.2,2.9
				c0.6,0.8,1.7,1.2,2.7,0.9c-1.3,1.7-2.6,3.4-3.5,5.2c-0.9,1.9-1.6,4-1.4,6.1c0.2,2.1,1.2,4.2,3,5.3c1.8,1.1,4.3,1.1,5.9-0.4
				c-0.3,1.6,1.4,3.3,3,3.6c1.6,0.3,3.2-0.7,4-2.1c0.8-1.4,0.8-3.2,0.2-4.7c0.7,1,2.4,1.2,3.5,0.5c1.1-0.7,1.7-1.9,1.9-3.2
				c0.2-1.3-0.1-2.5-0.3-3.8c-1,0.3-2.1-0.4-2.9-1.1c-0.8-0.7-1.3-1.7-1.7-2.6c-0.6-1.4-1.1-2.9-1.4-4.4c2.6,0.6,5.1,2.1,6.5,4.4
				c0.4-2.9,2.3-5.4,4.9-6.7c1.4,2.5,1,5.7-0.8,7.9c-0.7,0.8,0.3,2.4,1.3,2.9c1,0.4,2.3-0.1,2.7-1.1c0.1,2.3,1.2,4.5,2.7,6.2
				c1.5,1.7,3.5,3,5.5,4.1c2,1.1,4.3,2,6.6,1.9c2.2-0.1,4.3-1.1,5.7-2.8c1.4-1.7,2.1-4,1.8-6.1c1.2,0.8,3.4,0,4.1-1.2
				c0.7-1.2,0.2-3.1-1.1-3.7c2.1,0.9,4.8-0.4,5.8-2.5c1-2.1,0.7-4.6-0.3-6.7c-1-2.1-2.6-3.8-4.2-5.5c0.8,0.3,1.5,0.5,2.3,0.8
				c0.1-0.9,0.2-1.8,0.2-2.7c1.8,1.9,4.7,2.7,7.3,2.1c2.6-0.6,4.8-2.5,6-4.8c0.8-1.6,1.2-3.4,1.2-5.2c1.2,0.8,2.2,2,2.4,3.4
				c0.2,1.4-0.4,2.8-1.3,3.8c-0.9,1.1-2.1,1.9-3.2,2.7c6.1,0.2,11.8,5.1,12.9,11.1c0.4,2.2,0.2,4.8-1.4,6.4
				C724.9,435.4,722.6,435.7,720.6,435.3L720.6,435.3z"/>
		</g>
		<g>
			<defs>
				<rect id="SVGID_00000158710104693392286420000015599177639903925160_" x="281" y="340" width="223" height="280"/>
			</defs>
			<clipPath id="SVGID_00000176016116943384125330000018144930495498079646_">
				<use xlink:href="#SVGID_00000158710104693392286420000015599177639903925160_"  style="overflow:visible;"/>
			</clipPath>
			<g style="clip-path:url(#SVGID_00000176016116943384125330000018144930495498079646_);">
				<path class="st12" d="M371.8,620c-9.2-40.2-10.1-81.7-1.3-122c-0.9,0-1.5,0.1-2.4,0.1c-4.6,12.1-7.1,25.1-7.6,38.1
					c-0.3-11.3-1.1-22.6-2.4-33.8c-0.7,0.1-1.5,0.2-2.2,0.3c1.4,38.6,0.7,77.2-2,115.7L371.8,620z"/>
				<path class="st13" d="M426.5,440.9c5-0.1,10,2.6,12.4,7c2.8,5.1,1.9,11.9-2.2,16.1c-4,4.1-10.9,5.3-16,2.6
					c8.7,7.4,14.3,18.5,15.2,29.9c0.5,6-0.4,12.3-3.9,17.2c-5,6.9-14.3,9.4-22.8,8.5c-8.5-0.9-16.3-4.8-23.9-8.6
					c-0.6,3-3.7,5.3-6.7,4.9c-2.4-0.3-4.5-2.2-5.2-4.5c0.2,4.9-3.7,9.8-8.6,11c-5.5,1.4-11.5-1.3-15.1-5.7s-4.9-10.3-4.8-16
					c-0.6,2.9-3.5,5.2-6.4,5.1c-3-0.1-6.5-2.4-7-5.4c-0.1,6.1-5.4,11.6-11.4,11.9c-6,0.3-11.9-4.5-12.7-10.5c-1.9,1.7-5.1,1.7-7,0
					c-1.9-1.7-2.3-4.9-0.9-7c-6.2,2.5-13.9-1-16.9-7c-3-6-1.5-13.7,2.7-18.9c4.2-5.2,10.9-8.1,17.6-8.7c-2-5.7,1.8-12.7,7.7-14.3
					c-5.9-1.9-12.5-4.5-14.9-10.2c-2.4-5.9,1.1-12.7,6.4-16.4c0.6-0.4,1.1-0.7,1.7-1.1c6.2-3.3,13.6-3.3,20.6-3.3
					c-2.5-4.1-1.4-9.9,2.3-12.8c-8.9-3.8-13.1-15.8-8.5-24.3c4.6-8.5,16.9-11.6,25-6.3c-0.7-2.8,0.7-6,3.3-7.3
					c2.6-1.3,6-0.6,7.8,1.7c-1.8-5.1-2.5-10.7-1.1-16c1.4-5.2,5.2-10,10.2-11.9c3.9-1.5,8.6-0.9,12,1.4c8.9-2.8,19.4-0.2,25.5,6.9
					c7.4,8.5,7.4,22.5,0,31c5.2-0.7,10.8,2.5,12.7,7.4c1.8,4.7,0.3,10.5-3.7,13.7c5.1-3.7,11.7-4.9,17.8-3.7
					c2.7,0.5,5.2,1.6,7.5,3.1c7.7,5.1,11.5,15.4,9.1,24.3C442.2,433.1,434.8,439.5,426.5,440.9L426.5,440.9z"/>
				<g>
					<path class="st14" d="M426.5,440.9c5-0.1,10,2.6,12.4,7c2.8,5.1,1.9,11.9-2.2,16.1c-4,4.1-10.9,5.3-16,2.6
						c8.7,7.4,14.3,18.5,15.2,29.9c0.5,6-0.4,12.3-3.9,17.2c-5,6.9-14.3,9.4-22.8,8.5c-8.5-0.9-16.3-4.8-23.9-8.6
						c-0.6,3-3.7,5.3-6.7,4.9c-2.4-0.3-4.5-2.2-5.2-4.5c0.2,4.9-3.7,9.8-8.6,11c-5.5,1.4-11.5-1.3-15.1-5.7s-4.9-10.3-4.8-16
						c-0.6,2.9-3.5,5.2-6.4,5.1c-3-0.1-6.5-2.4-7-5.4c-0.1,6.1-5.4,11.6-11.4,11.9c-6,0.3-11.9-4.5-12.7-10.5c-1.9,1.7-5.1,1.7-7,0
						c-1.9-1.7-2.3-4.9-0.9-7c-6.2,2.5-13.9-1-16.9-7c-3-6-1.5-13.7,2.7-18.9c4.2-5.2,10.9-8.1,17.6-8.7c-2-5.7,1.8-12.7,7.7-14.3
						c-5.9-1.9-12.5-4.5-14.9-10.2c-2.4-5.9,1.1-12.7,6.4-16.4c-0.5,3.4,0.3,7.1,2.4,9.8c4,5.1,11.7,6.6,17.8,4.3
						c-1.3,1.7-1.6,4.2-0.7,6.2c0.9,2,3,3.4,5.2,3.5c-6.1,2.6-9.2,10.6-6.6,16.7c2.6,6.1,10.5,9.3,16.6,6.7
						c-2.1-2.5-2.6-6.5-1.6-9.6c3.2,1.8,5.7,5.1,6.4,8.7c1.3-4,4.3-7.5,8.1-9.3c0.9,3.7-0.4,7.9-3.2,10.4c1.4,3.7,5.2,6.4,9.2,6.3
						c4-0.1,7.8-2.9,9.1-6.6c1.8,1.8,4.5,3.2,6.9,2.2c1.8-0.7,2.8-2.6,3.5-4.5c1.7-4.6,1.9-9.7,0.6-14.4c3.4,2.2,7.2,3.5,11.2,3.5
						c1.3,0,2.9-0.2,3.7-1.3c0.6-0.8,0.6-1.9,0.4-2.8c-0.3-0.9-0.8-1.8-1.4-2.6c2.3,2.2,6.3,2.2,8.6,0c1.8-1.8,2.4-4.4,2.4-6.9
						c0-5.4-2.2-10.9-6.1-14.7c2,2,5.8,1.4,8.4,0.2s4.2-4.3,3.8-7.1c1.9,4.4,8.2,5.5,12.4,3.1c4.2-2.4,6.4-7.1,7.7-11.8
						c1.2-4.7,1.6-9.7,1.2-14.6c2.7,0.5,5.2,1.6,7.5,3.1c7.7,5.1,11.5,15.4,9.1,24.3C442.1,433.1,434.8,439.5,426.5,440.9
						L426.5,440.9z"/>
				</g>
				<path class="st12" d="M451.2,607.3c-6.6-28.8-7.2-58.5-0.9-87.3c-0.6,0-1.1,0.1-1.7,0c-3.3,8.7-5.1,18-5.5,27.2
					c-0.2-8.1-0.8-16.2-1.8-24.2c-0.5,0.1-1.1,0.1-1.6,0.2c1,27.6,0.5,55.2-1.4,82.8L451.2,607.3L451.2,607.3z"/>
				<path class="st23" d="M501.8,492.3c-2.1,2.9-5.7,4.6-9.2,5.1c-3.6,0.6-7.2,0.2-10.8-0.2c1.3,2.9,0.7,6.6-1.5,8.9
					c-2.2,2.3-5.4,3.1-8.4,2c1.3,2.5,2.6,5,3.2,7.7c0.5,2.7,0.2,5.8-1.6,8c-1.7,2.1-4.5,3.1-7.2,2.8c-2.7-0.3-5.2-1.7-7-3.7
					c1,2.1-0.5,4.7-2.7,5.5c-2.2,0.8-4.7,0-6.5-1.3c-1.8-1.4-3.2-3.3-4.5-5.2c1,3.4-1.7,7.2-5.2,8c-3.5,0.8-7.2-0.9-9.5-3.6
					c-2.4-2.7-3.5-6.2-4.2-9.7c-1.2,0.4-2.6-0.1-3.5-1c-0.8-1-1-2.4-0.4-3.6c-2.9,2.2-6.6,3.6-10.3,3.3c-3.7-0.4-7.2-2.7-8.5-6.1
					c-1.3-3.4,0-7.8,3.2-9.6c-1.7,0.2-3.3-2.2-2.5-3.8c-4.3,1.3-9.5-0.5-12.1-4.2c-2.6-3.7-2.5-9.1,0.2-12.8
					c2.7-3.6,7.9-5.3,12.2-3.8c-2.8-2.7-5.3-5.9-6.6-9.6c-1.2-3.7-1.2-8,0.8-11.4c0.2-0.3,0.3-0.6,0.5-0.8c2.1-2.9,5.8-4.7,9.3-4.1
					c-0.7-1.6-0.6-3.5,0.5-4.9c1-1.4,3-2,4.7-1.8c-2.8-2.8-2.8-8,0.1-10.8c2.8-2.8,8-2.7,10.7,0.1c-1.3-1.7,0.2-4.4,2.3-4.9
					c2.1-0.5,4.2,0.7,5.7,2.2c1.2-4.7,2.5-9.4,5.2-13.4c2.7-4,7-7.2,11.8-7.1c4.1,0,8,2.6,9.8,6.2c1.8,3.7,1.2,8.3-1.3,11.5
					c4-2,9.1-3.2,12,0.4c2.8,3.5,2.8,9-0.1,12.5c2.6-1.7,6.1-1.2,8.5,0.7c0,0,0,0,0.1,0.1c2.3,1.9,3.6,4.9,3.8,7.9
					c0.3,3-0.4,6.1-1.3,9c2.6-0.2,5.1,1.6,5.9,4c0.7,2.5-0.6,5.4-2.8,6.5c4.6-0.5,9.4,1,13,4c3.6,3,5.9,7.4,6.2,12
					C504.2,486.6,503.6,489.8,501.8,492.3L501.8,492.3z"/>
				<g>
					<path class="st24" d="M501.8,492.3c-2.1,2.9-5.7,4.6-9.2,5.1c-3.6,0.6-7.2,0.2-10.8-0.2c1.3,2.9,0.7,6.6-1.5,8.9
						c-2.2,2.3-5.4,3.1-8.4,2c1.3,2.5,2.6,5,3.2,7.7c0.5,2.7,0.2,5.8-1.6,8c-1.7,2.1-4.5,3.1-7.2,2.8c-2.7-0.3-5.2-1.7-7-3.7
						c1,2.1-0.5,4.7-2.7,5.5c-2.2,0.8-4.7,0-6.5-1.3c-1.8-1.4-3.2-3.3-4.5-5.2c1,3.4-1.7,7.2-5.2,8c-3.5,0.8-7.2-0.9-9.5-3.6
						c-2.4-2.7-3.5-6.2-4.2-9.7c-1.2,0.4-2.6-0.1-3.5-1c-0.8-1-1-2.4-0.4-3.6c-2.9,2.2-6.6,3.6-10.3,3.3c-3.7-0.4-7.2-2.7-8.5-6.1
						c-1.3-3.4,0-7.8,3.2-9.6c-1.7,0.2-3.3-2.2-2.5-3.8c-4.3,1.3-9.5-0.5-12.1-4.2c-2.6-3.7-2.5-9.1,0.2-12.8
						c2.7-3.6,7.9-5.3,12.2-3.8c-2.8-2.7-5.3-5.9-6.6-9.6c-1.2-3.7-1.2-8,0.8-11.4c0.2-0.3,0.3-0.6,0.5-0.8c-0.3,1.5-0.1,3,0.5,4.4
						c1.3,2.8,4.1,4.6,7.1,5.2c3,0.7,6.1,0.3,9.1-0.3c-1.7,1-2.6,3.3-2.1,5.2c0.5,2,2.4,3.4,4.5,3.5c-2.8,2.8-5.7,5.7-7.2,9.3
						c-1.5,3.6-1.4,8.3,1.3,11.1c2,2.1,5.3,2.9,8.1,2.3c2.9-0.6,5.4-2.5,7.1-5c0.3,1.5,0.6,3.1,0.9,4.6c0.6-0.4,1.2-0.8,1.8-1.2
						c-0.3,2.4,1.6,4.8,3.9,5.5c2.4,0.7,5-0.3,6.7-2c1.7-1.8,2.5-4.2,2.6-6.7c0.1-2.4-0.6-4.9-1.5-7.1c1.2,1.2,3.6,1.1,4.9,0
						c1.3-1.1,1.7-3.2,0.9-4.7c2.9,2.3,7.5,2.3,10.4,0c3-2.3,4-6.7,2.5-10.1c1,1.9,3.5,2.3,5.4,1.3c0.7-0.4,1.3-1,1.5-1.8
						c0.1-0.5-0.1-1.1-0.4-1.5c0.9,0.3,1.9,0.2,2.7-0.3c1-0.7,1.6-1.8,2-3c0.7-2.4,0.4-5-0.8-7.1c-1.1-1.9-2.8-3.4-4.8-4.2
						c1.9,0.5,4.1-0.1,5.9-1c3.6-2,6-5.8,6.5-9.9c2.3,1.9,3.6,4.9,3.8,7.9c0.3,3-0.4,6.1-1.3,9c2.6-0.2,5.1,1.6,5.9,4
						c0.7,2.5-0.6,5.4-2.8,6.5c4.6-0.5,9.4,1,13,4c3.6,3,5.9,7.4,6.2,12C504.1,486.5,503.5,489.7,501.8,492.3L501.8,492.3z"/>
				</g>
			</g>
		</g>
	</g>
</g>
</svg>
