<?xml version="1.0" encoding="utf-8"?>
<!-- Generator: Adobe Illustrator 28.2.0, SVG Export Plug-In . SVG Version: 6.00 Build 0)  -->
<svg version="1.1" id="Layer_1" xmlns="http://www.w3.org/2000/svg" xmlns:xlink="http://www.w3.org/1999/xlink" x="0px" y="0px"
	 viewBox="0 0 1920 1000.9" style="enable-background:new 0 0 1920 1000.9;" xml:space="preserve">
<style type="text/css">
	.st0{fill:#253819;}
	.st1{fill:#BCBF32;}
	.st2{fill:#C9CC35;}
	.st3{fill:#688214;}
	.st4{clip-path:url(#SVGID_00000091707337071696320580000004642973361080110472_);}
	.st5{fill:#486E32;}
	.st6{fill:#548039;}
	.st7{fill:#609141;}
</style>
<g>
	<path class="st0" d="M759.6,86.4c-41-15.7-79.7-23.3-116.6-23.9c-0.1,0-0.1-0.1-0.2-0.1c-51-0.9-98.3,11.5-141.9,34.3
		c-12,6.3-23.7,13.3-35.1,21.1c-6.1,4.1-12.1,8.4-18,13C408.3,161,372.1,200,339,245c-4.5,6.1-8.9,12.3-13.3,18.7
		c-33.3,48.1-63.3,102.2-90.3,159.5c-3.5,7.4-7,15-10.3,22.5c-26.3,58.3-49.6,119.4-70,180.3c-2.7,8-5.3,16.1-8,24.1
		c-19.7,60.8-36.7,121.1-51.1,177.7c-2.2,9-4.5,17.9-6.6,26.7c-18.1,74-31.8,140.9-41.5,193.5c-1.7,9.1-3.2,17.8-4.7,26
		c-1.8,10.3-3.5,19.8-4.9,28.5h534.5C734.7,897,1195.9,253.4,759.6,86.4z M445.9,245.8c24.4,14,28.1,53.2,8.2,87.5
		c-6.4,11.1-14.4,20.3-23.2,27.2c-6.2,4.9-12.7,8.7-19.4,11.1c-13.1,4.9-26.4,4.8-37.4-1.6c-1.6-0.9-3-1.9-4.4-3
		c-20.4-16-22.4-52.5-3.9-84.6c10.5-18.2,25.5-31.3,40.9-37.5C420.5,239.3,434.5,239.2,445.9,245.8z"/>
</g>
<path class="st1" d="M898.7,341.4c0-0.3,0-0.6,0-1c0-3.2-0.1-6.3-0.2-9.5c0-0.8-0.1-1.6-0.1-2.4c-2.6-69-24.3-130.6-73.3-178.9
	c-2.5-2.5-5-4.9-7.6-7.3l-4-3.5c-4.1-3.5-8.3-6.9-12.7-10.3c-4.4-3.3-8.9-6.6-13.6-9.8c-3.2-2.1-6.4-4.2-9.7-6.3
	c-3.3-2-6.7-4.1-10.1-6c-3.5-2-7-3.9-10.6-5.8c-1.8-0.9-3.6-1.9-5.5-2.8c-3.7-1.9-7.4-3.7-11.3-5.5c-3.8-1.8-7.8-3.5-11.8-5.1
	c-4-1.7-8.1-3.3-12.2-4.9c-2.7-1-5.3-2-8-3c-8-2.9-15.9-5.5-23.7-7.7c-13.1-3.8-25.9-6.7-38.5-8.9c-0.9-0.2-1.8-0.3-2.8-0.4
	c-0.1,0-0.1-0.1-0.2-0.1c-18.5-3-36.5-4.3-54-3.9h-1.4l-5,0.2c-1.9,0.1-3.8,0.2-5.7,0.3c-1.9,0.1-3.8,0.2-5.7,0.4
	c-3.8,0.3-7.5,0.7-11.3,1.1c-5.6,0.6-11.2,1.5-16.6,2.5h-0.2l-4.8,1l-6.1,1.3c-1.8,0.4-3.6,0.8-5.5,1.3c-3.6,0.9-7.2,1.8-10.8,2.8
	c-3.5,1-7,2-10.4,3.2c-0.1,0-0.2,0-0.3,0.1c-18.2,5.9-35.8,13.7-52.9,23.1c-3.2,1.7-6.4,3.5-9.6,5.3
	c-52.3,30.7-99.3,76.6-141.2,132.2c-34.6,45.8-65.9,98.3-94,154.4c-32.2,64.1-60.4,133.1-84.7,202.4c-2.4,6.6-4.7,13.3-7,20
	c-0.4,1.2-0.9,2.5-1.3,3.8c-19.9,58.5-37.2,116.9-52,172.6c-2.4,8.9-4.7,17.6-6.9,26.4C36.3,887,21.5,955.6,10.6,1011.9
	c-0.4,2.2-0.9,4.4-1.3,6.6c-1.3,6.6-2.5,13-3.7,19.2c-4.6,24.7-8.4,46.5-11.4,64.6h531.9c9.7-12.3,20.6-26.2,32.3-41.6
	c5.5-7.2,11.2-14.7,17.1-22.6c34.3-45.9,74.3-102.1,114.2-164.2c4.8-7.5,9.6-15,14.4-22.7c3.4-5.4,6.8-10.9,10.2-16.4
	c6-9.7,12-19.6,17.9-29.5c1.5-2.5,3-5,4.4-7.5c9.8-16.6,19.5-33.5,28.9-50.6c1.6-2.8,3-5.6,4.6-8.4c0.4-0.6,0.7-1.3,1.1-2l8-14.9
	c2.5-4.7,4.9-9.3,7.3-14c0.4-0.7,0.7-1.5,1.2-2.2c1.8-3.5,3.6-7,5.3-10.4c1.2-2.5,2.5-5,3.7-7.5l1-1.9c2.6-5.1,5.1-10.2,7.5-15.2
	c2-4.1,3.9-8.1,5.8-12.1c2.1-4.5,4.2-8.9,6.3-13.4c1.7-3.7,3.4-7.4,5-11.1l6.4-14.4c6.4-14.7,12.6-29.5,18.3-44.1
	c1.1-2.9,2.2-5.8,3.3-8.7c5.5-14.4,10.6-28.8,15.2-43c0.4-1.2,0.9-2.5,1.2-3.7c1.4-4.5,2.8-9,4.2-13.5c1.8-5.7,3.4-11.4,5-17.1
	c0.6-2,1.1-4,1.7-6c0.3-0.8,0.5-1.6,0.7-2.4c0.7-2.8,1.5-5.7,2.2-8.5c0-0.1,0.1-0.2,0.1-0.3c0.6-2.2,1.2-4.5,1.7-6.8
	c2.2-8.9,4.2-17.7,5.9-26.5c0.6-2.7,1.1-5.5,1.6-8.2c1.4-7.6,2.7-15.2,3.8-22.7c0.4-2.5,0.7-5,1-7.5c0.2-1.5,0.4-3.1,0.6-4.6
	c0.3-1.9,0.5-3.8,0.7-5.7c0.6-5.6,1.1-11.1,1.5-16.6c0.2-2.3,0.3-4.5,0.5-6.8C898.6,358.4,898.8,349.8,898.7,341.4L898.7,341.4z
	 M322.4,278.5c2.1-3.6,4.4-7.1,6.8-10.3c2.2-3,4.7-5.9,7.3-8.6c0.2-0.1,0.2-0.2,0.3-0.3c1.2-1.3,2.5-2.5,3.7-3.6
	c1.3-1.3,2.7-2.5,4.1-3.5c18.7-15.2,40.9-20,57.7-10.3c1.6,0.9,3,1.9,4.4,3c20.4,16,22.4,52.4,3.8,84.5c-0.6,1.1-1.3,2.2-1.9,3.2
	c-4.2,6.7-9,12.6-14.1,17.6c-7.6,7.5-16.1,13.2-24.8,16.7c-13.6,5.6-27.6,5.7-39.1-1C306.3,352.1,302.6,312.8,322.4,278.5z"/>
<path class="st2" d="M716,82.4c-77.6-29.7-147.7-30.5-211-9.8c-34.2,189.8-91.6,681.2,209.2,762.3C882,562.8,1027.1,201.5,716,82.4z
	"/>
<path class="st3" d="M315.3,215.4c-4.7,5.8-9.4,11.8-14,17.9l27.9,35.1c4.7-6.2,9.8-11.6,15.3-16.1L315.3,215.4L315.3,215.4z"/>
<path class="st3" d="M546.6,489.2l334.1-16.6c0,0-0.1,0.2-0.1,0.3c-0.9,3.6-1.9,7.3-2.9,10.9c-1,3.7-2,7.4-3.2,11.2L536,511.8
	l-35,75.2l-46.1,99.1h342.8l-1,1.9c-3,6-6,12-9.1,17.9c-0.4,0.7-0.8,1.5-1.2,2.2H444.7l-72.9,156.7l332.4-13.6
	c-4.8,7.6-9.6,15.2-14.4,22.7l-327.9,13.4l-0.4-0.4l-74.3,159.6l288.3-8.4c-5.9,7.9-11.5,15.3-17.1,22.6l-281.6,8.2l-15.6,33.5H237
	l19.8-42.6L89.4,854.4l-34-41.7c2.2-8.7,4.5-17.5,6.9-26.4l33.7,41.4l171.1,209.8l78.3-168.3L147.1,650l-32.8-36.2
	c0.4-1.3,0.9-2.6,1.3-3.8c2.3-6.7,4.6-13.4,7-20l32.5,35.9l200.4,221.6l69.3-148.9l-199.7-253l-28.5-36.1c3.5-7.4,7.1-14.7,10.7-22
	l28.1,35.5l199.8,253.1l57.9-124.4l22.9-49.2L480.4,458l-68.8-86.3l-16.9-21.3h-0.1c0.6-0.6,1.1-1.2,1.7-1.8c1.4-1.4,2.8-3,4.1-4.5
	c1.1-1.2,2.1-2.6,3.1-3.8c1.3-1.7,2.5-3.4,3.7-5.2c0.5-0.7,1-1.4,1.4-2.2h0.1l22.2,27.9l47.1,59.2l48.3,60.7l59-126.9l-98.2-159
	l-39.3-63.7l-14.8-23.9c3.2-2,6.3-3.9,9.5-5.8c3.2-1.9,6.4-3.7,9.6-5.4l13.7,22.1l25.7,41.7l104.9,170.1l70.6-151.8
	c2.6-5.5,9.1-7.9,14.6-5.3c5.5,2.6,7.9,9.1,5.3,14.6l-71.3,153.3L898,319.4c0.4,7.3,0.6,14.6,0.7,22l-293.6,21.9L546.6,489.2
	L546.6,489.2z"/>
<g>
	<defs>
		<rect id="SVGID_1_" x="114.2" y="202.4" width="752" height="883"/>
	</defs>
	<clipPath id="SVGID_00000036228059031789359720000002351140086908340646_">
		<use xlink:href="#SVGID_1_"  style="overflow:visible;"/>
	</clipPath>
	<g style="clip-path:url(#SVGID_00000036228059031789359720000002351140086908340646_);">
		<g>
			<path class="st0" d="M866.2,1085.4H316.3c-16-25.2-30.6-50.3-43.9-75.2c-2.4-4.3-4.7-8.7-6.9-13.1c-22.7-44-41.3-87.4-56.4-129.9
				c-1.6-4.3-3.1-8.6-4.5-13c-3.6-10.4-6.9-20.7-10-31c-8.2-26.8-15.1-53.1-20.8-78.9c15-6.2,32.3-15.9,48.8-30.5
				c4.3-3.8,8.6-8,12.7-12.6c9.5-10.5,18.4-23,26-37.8c0,0-54.5,16.9-100.3,11.4c-6.3-42.5-9.6-83.3-10.7-121.8
				c-0.1-4.3-0.2-8.6-0.3-12.8c-0.5-33.2,0.6-64.7,2.9-94c0.3-4.3,0.7-8.5,1.1-12.7c2.5-28.2,6-54.4,10-78.2
				c0.7-4.3,1.4-8.5,2.2-12.6c5.9-32.5,12.6-60.2,18.7-82.1c1.1-3.8,2.2-7.5,3.2-11.1c3.1-10.3,5.9-19.1,8.3-26.1
				c4.7-13.8,7.7-21.1,7.7-21.1c94.4,14.2,179.3,64.3,254.6,135c-11.1,29.2-30.6,66.1-59.6,76c0,0,29.8,1.7,65.9-10.1
				c1.8-0.6,3.6-1.2,5.4-1.8c11.3-4.1,23.2-9.5,34.8-16.7C693.9,593.3,814.8,923.1,866.2,1085.4z"/>
		</g>
		<path class="st5" d="M825.6,1085.4H270.8c-15.8-25.8-30.2-51.5-43.2-77.1c-2.2-4.3-4.4-8.7-6.5-13
			c-21.6-43.9-39.3-87.2-53.5-129.5c-0.7-2.2-1.4-4.3-2.2-6.5c-0.7-2.2-1.4-4.3-2.1-6.5c-0.7-2.1-1.3-4.1-2-6.2
			c-3-9.5-5.8-19-8.5-28.4c-0.7-2.4-1.4-4.8-2-7.2c-0.1-0.4-0.2-0.8-0.4-1.3c-1.2-4.4-2.4-8.9-3.6-13.3c-3.2-12.2-6.1-24.3-8.7-36.3
			c4.4-1.8,8.9-3.9,13.6-6.4c0.9-0.5,1.9-1,2.8-1.5c2.8-1.5,5.7-3.2,8.6-5c2.3-1.4,4.6-2.9,6.9-4.5c1.1-0.7,2.2-1.5,3.3-2.3
			c1.7-1.2,3.3-2.4,5-3.8c1.4-1.1,2.8-2.2,4.1-3.4c2.7-2.3,5.5-4.7,8.2-7.2c2.7-2.6,5.3-5.3,8-8.2c1.3-1.4,2.6-2.9,3.9-4.4
			c0.4-0.4,0.7-0.8,1.1-1.2c0.7-0.9,1.5-1.8,2.2-2.7c0.9-1.1,1.8-2.2,2.6-3.4c0.5-0.7,1-1.3,1.5-2c0.8-1.1,1.6-2.2,2.4-3.3
			c1-1.4,2.1-2.9,3.1-4.4c1.5-2.2,2.9-4.6,4.3-6.9c1-1.5,1.8-3,2.7-4.6c1-1.9,2.1-3.8,3.1-5.8c0,0-54.5,16.9-100.3,11.4
			c-2-13.5-3.7-26.9-5.2-40c-0.7-6.2-1.3-12.5-1.8-18.6c-0.3-2.9-0.5-5.7-0.7-8.5c-0.3-3.5-0.5-7-0.8-10.5
			c-0.3-3.6-0.5-7.3-0.7-10.9c-0.3-5.6-0.6-11.2-0.9-16.7v-0.6c-0.5-11.1-0.8-21.9-0.9-32.7V552c0-3.9-0.1-7.9-0.1-11.8v-0.9
			c0-3.2,0-6.4,0-9.6l0.1-7.3c0.1-7,0.3-13.9,0.6-20.8c0.3-8.2,0.7-16.2,1.2-24.1c0.2-3.9,0.5-7.9,0.8-11.8
			c0.5-7.8,1.2-15.4,1.9-22.8c0.4-4.3,0.8-8.5,1.3-12.7c0.4-3.7,0.8-7.4,1.2-11c0.3-2.6,0.6-5.3,1-7.8c0.2-1,0.3-2,0.4-2.9
			c0.6-4.8,1.3-9.6,2-14.4c0.3-2.4,0.7-4.7,1-7c2-13.2,4.2-25.8,6.5-37.7c0.2-1.2,0.5-2.5,0.7-3.7c0.3-1.5,0.6-3,0.9-4.5
			c0.3-1.4,0.6-2.9,0.9-4.3c3.8-18.7,7.9-35.5,11.7-50.1c0.8-3.1,1.7-6.1,2.4-9c1.1-4,2.2-7.8,3.3-11.4c0.9-3.1,1.8-6,2.6-8.8
			c1.3-4.3,2.6-8.2,3.8-11.8c0.4-1.2,0.8-2.4,1.2-3.5c0.2-0.5,0.3-1,0.5-1.4c0.5-1.3,0.9-2.5,1.3-3.7c0.2-0.8,0.5-1.6,0.8-2.3
			c0.4-1,0.7-2,1.1-3c0.7-2.2,1.4-4.1,2.1-5.7c0.2-0.7,0.5-1.3,0.7-1.9c0-0.1,0-0.2,0.1-0.2c0.3-0.7,0.5-1.4,0.8-2
			c0.2-0.5,0.4-1,0.5-1.4c0.7-1.6,1-2.4,1-2.4c5.4,0.8,10.8,1.7,16,2.8c2.6,0.5,5.1,1,7.7,1.6c1.4,0.3,2.8,0.6,4.2,0.9
			c1,0.2,2.1,0.5,3.1,0.7c31.3,7.4,61.5,18.9,90.6,33.6c0,0,0.1,0,0.1,0c1.6,0.8,3.2,1.6,4.8,2.4c1.7,0.9,3.5,1.8,5.2,2.7
			c0.4,0.2,0.9,0.4,1.3,0.7c43,23.3,83.6,53.7,121.7,89.5c-11.1,29.3-30.6,66.1-59.7,76c0,0,20.4,1.2,47.9-5.1
			c1.4-0.3,2.7-0.7,4.1-1c1.4-0.3,2.8-0.7,4.3-1.1c1.4-0.3,2.8-0.7,4.2-1.2c1.5-0.5,3-0.9,4.5-1.4c11.7-3.8,24.1-8.9,36.4-16.1
			c1.5-0.9,3.1-1.8,4.6-2.7c0.3,0.3,0.5,0.6,0.8,0.9c23.8,26.3,46.5,54.7,68.1,84.3h0c1.4,1.9,2.8,3.8,4.2,5.7
			c1.4,1.9,2.8,3.9,4.1,5.8c35.6,49.9,68.1,103.3,97.6,157.5c2.3,4.2,4.5,8.4,6.8,12.6c14.5,27,28.2,54.2,41.1,81.2
			c2.3,4.8,4.6,9.6,6.9,14.5c23.4,49.6,44.2,98.4,62.4,144.4c0.8,2.1,1.7,4.2,2.5,6.3l0.4,1c12.1,30.7,23.1,60.1,32.8,87.5
			c0.8,2.4,1.7,4.8,2.5,7.1C809.6,1037.1,818.2,1062.6,825.6,1085.4L825.6,1085.4z"/>
		<path class="st6" d="M290.2,257.8c-38.7-19.6-79.2-33.3-121.7-39.7c0,0-83.7,199.7-43.1,472.5c45.9,5.5,100.3-11.4,100.3-11.4
			c-23.5,46-59.5,69.3-87.5,80.9c6.2,28.3,13.9,57.2,23.2,86.5C369.7,722.3,315.3,374.8,290.2,257.8z"/>
		<path class="st7" d="M570.5,1012.4c10.2,24.6,20,49,29.3,73h-13.6c-8.2-21-16.7-42.2-25.6-63.6l-288.1-11.6l-44.8-1.8
			c-2.2-4.3-4.4-8.7-6.5-13l44.5,1.8l289.6,11.7c-18.2-43.7-37.5-88-57.5-132l-288.5-9.6l-41.6-1.4c-0.7-2.2-1.4-4.3-2.2-6.5
			c-0.7-2.2-1.4-4.3-2.1-6.5l41.3,1.4l287.2,9.6c-22.7-49.7-45.9-99-69.1-146.8l-148-2.2h0l-52.1-0.8l-19.9-0.3h0
			c3.4-3.9,6.7-8.2,9.8-12.6h0l22.7,0.3l44.8,0.7l136.4,2.1c-24.8-51-49.4-100-72.8-145.7l-31.1-0.8L150.2,553l-35.9-1V552
			c0-3.9-0.1-7.9-0.1-11.8v-0.9l35.7,1l163.8,4.5l23.4,0.6c-7.3-14.3-14.5-28.2-21.5-41.7c-7.8-15.1-15.5-29.7-22.9-43.8
			l-139.9-13.6l-34-3.3c0.4-4.3,0.8-8.5,1.3-12.7l33.7,3.3l131.7,12.8c-14.6-27.7-28.2-53.1-40.3-75.7l-81.4-15.4l-31.7-6
			c0.2-1.2,0.5-2.5,0.7-3.7c0.3-1.5,0.6-3,0.9-4.5c0.3-1.4,0.6-2.9,0.9-4.3l31.4,5.9l71.3,13.5c-28.7-53.1-48.1-87.7-52.6-95.6
			c-0.5-1-0.8-1.5-0.9-1.7c-1.7-3.1-0.7-7,2.4-8.7c0.5-0.3,1.1-0.5,1.7-0.7c2.7-0.6,5.6,0.5,7,3.1c0.8,1.4,21.4,38,53.8,97.9
			l41.1-92.8c0,0,0.1,0,0.1,0.1c1.6,0.8,3.2,1.6,4.8,2.4c1.7,0.9,3.5,1.8,5.2,2.7c0.4,0.2,0.9,0.4,1.3,0.7l-6.9,15.5l-38,85.6
			c12.2,22.7,25.9,48.3,40.6,76.2l15.1-34.8l46.2-106.5c3.6,2.5,7.1,5.1,10.5,7.8l-54.8,126.4l-9.4,21.6c3.6,6.8,7.2,13.7,10.8,20.7
			c10.4,19.9,21.2,40.7,32.3,62.4L411.3,424c1.4-0.3,2.7-0.7,4.1-1c1.4-0.3,2.8-0.7,4.3-1.1c1.4-0.4,2.8-0.7,4.2-1.2
			c1.5-0.5,3-0.9,4.5-1.4l-73.6,132.9c23.2,45.3,47.5,93.9,72.1,144.4l111.4-210.9h0c1.4,1.9,2.8,3.8,4.2,5.7
			c1.4,1.9,2.8,3.9,4.1,5.8L433.9,710.9c23.2,47.8,46.5,97.1,69.1,146.8l141.3-203c2.3,4.2,4.5,8.4,6.8,12.6l-142,204
			c19,41.9,37.4,84.1,54.9,125.7l128.2-248.4c2.3,4.8,4.6,9.6,6.9,14.5L570.5,1012.4L570.5,1012.4z"/>
		<path class="st7" d="M764.5,914.8l-135.7,170.6h-16.3L759,901.1c0.9,2.1,1.7,4.3,2.6,6.4c0.8,2.1,1.7,4.2,2.5,6.3L764.5,914.8z"/>
		<path class="st7" d="M802.3,1016.5l-54.8,68.8h-16.3l66.2-83c0.8,2.4,1.7,4.8,2.5,7.1C800.7,1011.8,801.5,1014.2,802.3,1016.5z"/>
	</g>
</g>
</svg>
