<svg width="1440" height="632" viewBox="0 0 1440 632" fill="none" xmlns="http://www.w3.org/2000/svg">
<g clip-path="url(#clip0_210_1392)">
<path d="M1209.32 493.281C1232.68 388.714 1166.84 285.014 1062.27 261.659C957.706 238.305 854.005 304.141 830.651 408.708C807.297 513.275 873.133 616.975 977.699 640.33C1082.27 663.684 1185.97 597.848 1209.32 493.281Z" fill="#FFE600"/>
</g>
<g style="mix-blend-mode:multiply" clip-path="url(#clip1_210_1392)">
<path d="M1186.97 488.289C1207.56 396.069 1149.5 304.613 1057.28 284.017C965.062 263.42 873.606 321.482 853.009 413.702C832.413 505.921 890.475 597.377 982.694 617.973C1074.91 638.57 1166.37 580.508 1186.97 488.289Z" fill="#FFC67B"/>
</g>
<path d="M1225.22 334.544C1214.18 286.548 1213.12 236.885 1223.7 188.781C1222.68 188.737 1221.86 188.889 1220.85 188.846C1215.39 203.307 1212.4 218.873 1211.71 234.309C1211.34 220.778 1210.46 207.291 1208.79 193.868C1207.92 193.976 1207.02 194.085 1206.15 194.193C1207.79 240.262 1207.02 286.418 1203.79 332.401L1225.22 334.544Z" fill="#632424"/>
<path d="M1290.49 120.564C1296.42 120.413 1302.42 123.66 1305.32 128.877C1308.67 134.939 1307.57 143.122 1302.74 148.08C1297.91 153.038 1289.75 154.358 1283.63 151.176C1294.08 160.074 1300.77 173.258 1301.83 186.94C1302.37 194.106 1301.31 201.683 1297.11 207.507C1291.16 215.755 1279.97 218.786 1269.87 217.66C1259.76 216.535 1250.43 211.923 1241.34 207.377C1240.67 210.949 1236.97 213.699 1233.35 213.287C1230.48 212.963 1227.99 210.711 1227.14 207.962C1227.38 213.85 1222.73 219.652 1216.88 221.103C1210.31 222.726 1203.14 219.544 1198.9 214.262C1194.66 208.979 1193.06 201.965 1193.16 195.189C1192.43 198.653 1189.03 201.359 1185.5 201.315C1181.95 201.25 1177.71 198.393 1177.08 194.907C1177 202.16 1170.68 208.763 1163.45 209.174C1156.22 209.585 1149.19 203.74 1148.28 196.574C1146.01 198.609 1142.17 198.631 1139.88 196.617C1137.59 194.604 1137.09 190.816 1138.8 188.304C1131.37 191.335 1122.16 187.157 1118.58 179.969C1115.01 172.782 1116.74 163.646 1121.81 157.433C1126.87 151.219 1134.82 147.755 1142.8 146.998C1140.46 140.157 1144.94 131.8 1151.96 129.96C1144.88 127.665 1136.98 124.634 1134.17 117.75C1131.29 110.714 1135.44 102.552 1141.76 98.1572C1142.43 97.681 1143.13 97.2696 1143.84 96.8799C1151.29 92.9614 1160.07 92.9181 1168.49 92.9831C1165.53 88.1337 1166.78 81.141 1171.24 77.6339C1160.64 73.0659 1155.64 58.7342 1161.09 48.5591C1166.57 38.4056 1181.28 34.6603 1190.94 40.9819C1190.05 37.6696 1191.76 33.816 1194.83 32.2573C1197.9 30.6985 1201.99 31.5862 1204.16 34.2706C1201.95 28.1656 1201.13 21.4327 1202.84 15.1761C1204.55 8.91951 1209.01 3.24744 1215.07 0.99593C1219.76 -0.757649 1225.39 -0.108175 1229.46 2.68456C1240.04 -0.606106 1252.62 2.48972 1259.93 10.9545C1268.72 21.1296 1268.74 37.7995 1259.97 47.9962C1266.23 47.1086 1272.85 50.9621 1275.17 56.8507C1277.38 62.4578 1275.47 69.4072 1270.8 73.1741C1276.83 68.7577 1284.8 67.2639 1292.11 68.7577C1295.32 69.4072 1298.37 70.6412 1301.1 72.4597C1310.29 78.5864 1314.88 90.8831 1311.96 101.535C1309.28 111.277 1300.47 118.94 1290.56 120.607L1290.49 120.564Z" fill="#83A532"/>
<g style="mix-blend-mode:multiply">
<path d="M1290.49 120.564C1296.42 120.413 1302.42 123.66 1305.32 128.877C1308.67 134.939 1307.57 143.123 1302.74 148.08C1297.91 153.038 1289.75 154.358 1283.63 151.176C1294.08 160.074 1300.77 173.258 1301.83 186.94C1302.37 194.106 1301.31 201.683 1297.11 207.507C1291.16 215.755 1279.97 218.786 1269.87 217.66C1259.76 216.535 1250.43 211.923 1241.34 207.377C1240.67 210.949 1236.97 213.699 1233.35 213.287C1230.48 212.963 1227.99 210.711 1227.14 207.962C1227.38 213.85 1222.73 219.652 1216.88 221.103C1210.31 222.726 1203.14 219.544 1198.9 214.262C1194.66 208.979 1193.06 201.965 1193.16 195.189C1192.43 198.653 1189.03 201.359 1185.5 201.315C1181.95 201.25 1177.71 198.393 1177.08 194.907C1177 202.16 1170.68 208.763 1163.45 209.174C1156.22 209.585 1149.19 203.74 1148.28 196.574C1146.01 198.609 1142.17 198.631 1139.88 196.618C1137.59 194.604 1137.09 190.816 1138.8 188.304C1131.37 191.335 1122.16 187.157 1118.58 179.969C1115.01 172.782 1116.74 163.646 1121.81 157.433C1126.87 151.219 1134.82 147.755 1142.8 146.998C1140.46 140.157 1144.94 131.8 1151.96 129.96C1144.88 127.665 1136.98 124.634 1134.17 117.75C1131.29 110.714 1135.44 102.552 1141.76 98.1573C1141.11 102.227 1142.07 106.644 1144.64 109.891C1149.47 115.996 1158.58 117.771 1165.85 115C1164.27 117.079 1163.95 120.066 1165.05 122.426C1166.15 124.807 1168.62 126.474 1171.24 126.626C1163.97 129.787 1160.22 139.247 1163.34 146.543C1166.48 153.839 1175.94 157.627 1183.23 154.51C1180.72 151.522 1180.09 146.738 1181.3 143.014C1185.11 145.222 1188.1 149.141 1188.97 153.449C1190.48 148.643 1194.12 144.508 1198.66 142.365C1199.77 146.803 1198.23 151.782 1194.81 154.835C1196.52 159.273 1201.06 162.477 1205.83 162.39C1210.59 162.282 1215.13 158.97 1216.67 154.467C1218.88 156.588 1222.1 158.255 1224.91 157.086C1227.06 156.199 1228.31 153.947 1229.09 151.76C1231.08 146.262 1231.34 140.157 1229.8 134.528C1233.81 137.147 1238.44 138.728 1243.22 138.749C1244.82 138.749 1246.64 138.511 1247.59 137.212C1248.31 136.26 1248.35 134.961 1248.03 133.835C1247.7 132.709 1247.05 131.692 1246.38 130.718C1249.09 133.359 1253.94 133.359 1256.64 130.718C1258.78 128.618 1259.46 125.435 1259.48 122.426C1259.48 115.931 1256.79 109.458 1252.14 104.89C1254.54 107.336 1259.11 106.622 1262.18 105.107C1265.26 103.591 1267.16 99.9974 1266.68 96.5985C1268.93 101.903 1276.53 103.18 1281.51 100.301C1286.51 97.4212 1289.21 91.7708 1290.69 86.1853C1292.18 80.5132 1292.61 74.5813 1292.07 68.7361C1295.27 69.3856 1298.32 70.6196 1301.05 72.4381C1310.25 78.5648 1314.84 90.8615 1311.92 101.513C1309.23 111.255 1300.42 118.919 1290.51 120.586L1290.49 120.564Z" fill="#D6DDAB"/>
</g>
<path d="M1186.52 322.247C1184.7 323.503 1181.87 322.247 1181.2 320.126C1180.53 318.004 1181.76 315.601 1183.64 314.454C1185.55 313.306 1187.93 313.241 1190.09 313.761C1186.82 311.444 1185.18 307.093 1186.07 303.196C1186.98 299.299 1190.37 296.117 1194.31 295.467C1198.25 294.818 1202.49 296.745 1204.59 300.165C1204.68 296.377 1204.74 292.566 1205.61 288.864C1206.47 285.184 1208.16 281.569 1211.02 279.079C1213.88 276.589 1217.97 275.355 1221.58 276.546C1225.13 277.715 1227.66 280.984 1228.87 284.534C1230.09 288.063 1230.2 291.874 1230.28 295.597C1231.3 294.32 1233.68 293.952 1235.22 294.515C1236.75 295.078 1237.81 296.701 1237.73 298.347C1239.33 296.615 1240.99 294.883 1243.01 293.649C1245.02 292.415 1247.47 291.744 1249.78 292.242C1253.48 293.043 1255.99 296.766 1256.6 300.512C1257.2 304.257 1256.27 308.067 1255.37 311.747C1230.43 314.843 1207.15 307.937 1186.5 322.247H1186.52Z" fill="#677446"/>
<path d="M1320.1 319.346C1312.2 284.989 1311.44 249.441 1319.02 214.998C1318.3 214.976 1317.69 215.063 1316.98 215.041C1313.09 225.389 1310.94 236.539 1310.44 247.58C1310.19 237.902 1309.54 228.225 1308.35 218.635C1307.72 218.721 1307.09 218.786 1306.46 218.873C1307.63 251.844 1307.07 284.881 1304.77 317.809L1320.12 319.346H1320.1Z" fill="#632424"/>
<path d="M1380.52 181.918C1377.99 185.425 1373.77 187.373 1369.51 188.066C1365.24 188.737 1360.89 188.304 1356.61 187.85C1358.17 191.314 1357.45 195.708 1354.86 198.501C1352.26 201.294 1348.43 202.16 1344.83 200.861C1346.41 203.805 1347.99 206.793 1348.64 210.083C1349.29 213.352 1348.88 216.989 1346.78 219.587C1344.75 222.077 1341.35 223.268 1338.15 222.921C1334.94 222.575 1331.98 220.865 1329.79 218.505C1330.94 220.995 1329.17 224.155 1326.57 225.108C1323.99 226.039 1321.01 225.151 1318.82 223.506C1316.61 221.86 1315.03 219.522 1313.5 217.249C1314.71 221.341 1311.44 225.866 1307.29 226.84C1303.13 227.814 1298.69 225.779 1295.88 222.575C1293.07 219.371 1291.66 215.171 1290.84 210.993C1289.37 211.426 1287.68 210.928 1286.7 209.759C1285.73 208.59 1285.51 206.836 1286.18 205.472C1282.7 208.157 1278.28 209.802 1273.91 209.369C1269.54 208.936 1265.32 206.165 1263.74 202.073C1262.16 197.981 1263.74 192.721 1267.59 190.642C1265.56 190.924 1263.61 187.958 1264.58 186.161C1259.39 187.72 1253.29 185.598 1250.17 181.138C1247.05 176.679 1247.16 170.227 1250.39 165.876C1253.63 161.524 1259.78 159.576 1264.93 161.286C1261.53 158.082 1258.59 154.272 1257.07 149.834C1255.58 145.417 1255.67 140.308 1258.03 136.26C1258.22 135.913 1258.44 135.589 1258.68 135.286C1261.21 131.822 1265.62 129.657 1269.82 130.436C1268.93 128.574 1269.15 126.215 1270.38 124.569C1271.62 122.924 1274.02 122.123 1276.06 122.469C1272.72 119.092 1272.77 112.944 1276.16 109.61C1279.56 106.276 1285.69 106.341 1289 109.74C1287.46 107.705 1289.24 104.479 1291.72 103.916C1294.19 103.353 1296.77 104.717 1298.54 106.514C1300.01 100.95 1301.53 95.2997 1304.73 90.5152C1307.93 85.7307 1313.15 81.9205 1318.89 81.9854C1323.76 82.0287 1328.47 85.038 1330.55 89.4327C1332.65 93.8275 1332 99.3913 1328.97 103.18C1333.78 100.734 1339.9 99.413 1343.28 103.635C1346.65 107.856 1346.63 114.437 1343.21 118.616C1346.26 116.624 1350.55 117.187 1353.41 119.46C1353.43 119.46 1353.45 119.503 1353.47 119.525C1356.26 121.798 1357.76 125.414 1358.04 129.007C1358.34 132.644 1357.54 136.281 1356.48 139.745C1359.53 139.486 1362.62 141.629 1363.47 144.573C1364.31 147.539 1362.8 150.981 1360.07 152.367C1365.59 151.826 1371.3 153.557 1375.57 157.108C1379.83 160.658 1382.58 165.962 1383.03 171.483C1383.34 175.12 1382.62 178.952 1380.48 181.918H1380.52Z" fill="#83A532"/>
<g style="mix-blend-mode:multiply">
<path d="M1380.52 181.918C1377.99 185.425 1373.77 187.373 1369.51 188.066C1365.24 188.737 1360.89 188.304 1356.61 187.85C1358.17 191.314 1357.45 195.708 1354.86 198.501C1352.26 201.294 1348.43 202.16 1344.83 200.861C1346.41 203.805 1347.99 206.793 1348.64 210.083C1349.29 213.352 1348.88 216.989 1346.78 219.587C1344.75 222.077 1341.35 223.268 1338.15 222.921C1334.94 222.575 1331.98 220.865 1329.79 218.505C1330.94 220.994 1329.17 224.155 1326.57 225.108C1323.99 226.039 1321.01 225.151 1318.82 223.506C1316.61 221.86 1315.03 219.522 1313.5 217.249C1314.71 221.341 1311.44 225.866 1307.29 226.84C1303.13 227.814 1298.69 225.779 1295.88 222.575C1293.07 219.371 1291.66 215.171 1290.84 210.993C1289.37 211.426 1287.68 210.928 1286.7 209.759C1285.73 208.59 1285.51 206.836 1286.18 205.472C1282.7 208.157 1278.28 209.802 1273.91 209.369C1269.54 208.936 1265.32 206.165 1263.74 202.073C1262.16 197.981 1263.74 192.721 1267.59 190.642C1265.56 190.924 1263.61 187.958 1264.58 186.161C1259.39 187.72 1253.29 185.598 1250.17 181.138C1247.05 176.679 1247.16 170.227 1250.39 165.876C1253.63 161.524 1259.78 159.576 1264.93 161.286C1261.53 158.082 1258.59 154.272 1257.07 149.834C1255.58 145.417 1255.67 140.308 1258.03 136.26C1258.22 135.913 1258.44 135.589 1258.68 135.286C1258.33 137.039 1258.52 138.923 1259.28 140.546C1260.82 143.837 1264.2 146.024 1267.77 146.803C1271.32 147.604 1275.04 147.193 1278.59 146.457C1276.51 147.691 1275.43 150.397 1276.06 152.713C1276.68 155.051 1278.98 156.826 1281.38 156.87C1278.05 160.204 1274.63 163.668 1272.79 168.019C1270.97 172.371 1271.08 177.891 1274.32 181.312C1276.75 183.866 1280.6 184.819 1284.06 184.083C1287.5 183.347 1290.51 181.052 1292.5 178.151C1292.87 179.991 1293.24 181.81 1293.61 183.65C1294.34 183.195 1295.08 182.74 1295.81 182.264C1295.51 185.165 1297.72 188.001 1300.53 188.781C1303.35 189.56 1306.48 188.477 1308.5 186.399C1310.53 184.299 1311.51 181.355 1311.59 178.432C1311.66 175.531 1310.88 172.63 1309.77 169.946C1311.27 171.375 1314.08 171.266 1315.68 169.967C1317.28 168.669 1317.76 166.157 1316.7 164.382C1320.21 167.153 1325.62 167.175 1329.12 164.425C1332.65 161.676 1333.95 156.437 1332.11 152.345C1333.3 154.597 1336.33 155.051 1338.56 153.861C1339.4 153.406 1340.14 152.627 1340.31 151.674C1340.42 151.046 1340.23 150.375 1339.81 149.899C1340.83 150.31 1342.11 150.115 1343.02 149.509C1344.23 148.708 1344.96 147.322 1345.35 145.937C1346.16 143.123 1345.81 140.005 1344.38 137.472C1343.13 135.221 1341.05 133.424 1338.65 132.493C1340.96 133.077 1343.51 132.428 1345.64 131.259C1349.92 128.877 1352.84 124.309 1353.45 119.482C1356.24 121.755 1357.73 125.37 1358.02 128.964C1358.32 132.601 1357.52 136.238 1356.46 139.702C1359.51 139.442 1362.6 141.585 1363.45 144.53C1364.29 147.496 1362.78 150.938 1360.05 152.323C1365.57 151.782 1371.28 153.514 1375.55 157.065C1379.81 160.615 1382.56 165.919 1383.01 171.44C1383.32 175.077 1382.6 178.909 1380.46 181.874L1380.52 181.918Z" fill="#D6DDAB"/>
</g>
<path d="M1684.28 322.659L1683.95 335.388L1681.59 431.467L1679.45 518.648H6.59441C1.53008 518.648 -1.84615 517.068 -6.93213 517.068V439.066C-6.93213 438.503 -1.62972 442.595 -1.62972 442.032C296.365 462.555 597.326 441.079 889.174 378.513C1020.93 350.261 1151.09 313.653 1284.65 295.316C1398.29 279.707 1516 277.91 1626.73 305.404C1646.14 310.232 1665.36 315.947 1684.28 322.659Z" fill="#83A532"/>
<g style="mix-blend-mode:soft-light" opacity="0.2">
<path d="M1684.28 322.659L1683.95 335.388C1512.67 292.263 1331.16 301.984 1158.21 338.722C981.284 376.284 811.521 441.274 642.602 506.005C630.157 510.768 617.561 514.968 604.835 518.648H6.59441C1.53008 518.648 -1.84615 517.068 -6.93213 517.068V439.066C-6.93213 438.503 -1.62972 442.595 -1.62972 442.032C296.365 462.555 597.326 441.079 889.174 378.513C1020.93 350.261 1151.09 313.653 1284.65 295.316C1398.29 279.707 1516 277.91 1626.73 305.404C1646.14 310.232 1665.36 315.947 1684.28 322.659Z" fill="white"/>
</g>
<g style="mix-blend-mode:soft-light" opacity="0.2">
<path d="M1626.73 305.404C1505.46 287.695 1380.98 294.796 1259.89 315.19C1121.33 338.506 986.327 378.903 851.754 419.192C741.031 452.337 630.309 485.503 519.586 518.648H6.59441C1.53008 518.648 -1.84615 517.068 -6.93213 517.068V439.066C-6.93213 438.503 -1.62972 442.595 -1.62972 442.032C296.365 462.555 597.326 441.079 889.174 378.513C1020.93 350.261 1151.09 313.653 1284.65 295.316C1398.29 279.707 1516 277.91 1626.73 305.404Z" fill="white"/>
</g>
<g style="mix-blend-mode:multiply">
<path d="M1542.8 442.638C1543.53 437.204 1543.84 431.337 1541.24 426.964C1537.93 421.379 1532.84 417.179 1526.72 415.014C1526.65 425.319 1530.81 435.516 1537.84 443.006C1400.28 453.225 1262.53 460.997 1124.69 466.344C1126.55 464.655 1128.11 462.772 1129.06 460.715C1131.5 455.39 1132.18 449.284 1130.36 443.699C1123.69 446.99 1119 453.809 1118.02 461.192C1113.37 453.723 1104.8 449.155 1095.99 448.981C1097.83 455.866 1101.72 462.144 1106.92 467.015C735.708 480.827 363.868 476.93 -6.95361 455.281V517.046C-1.86763 517.046 1.50859 518.627 6.57293 518.627H1679.43L1681.57 431.446C1635.34 435.451 1589.07 439.153 1542.8 442.617V442.638Z" fill="#D6DDAB"/>
</g>
<g style="mix-blend-mode:soft-light" opacity="0.2">
<path d="M1247.14 330.582C1247.14 332.942 1242.88 334.869 1237.62 334.869C1232.36 334.869 1228.09 332.942 1228.09 330.582C1228.09 328.222 1232.36 326.296 1237.62 326.296C1242.88 326.296 1247.14 328.222 1247.14 330.582Z" fill="white"/>
<path d="M1259.84 337.488C1259.84 338.96 1257.18 340.151 1253.91 340.151C1250.65 340.151 1247.98 338.96 1247.98 337.488C1247.98 336.016 1250.65 334.825 1253.91 334.825C1257.18 334.825 1259.84 336.016 1259.84 337.488Z" fill="white"/>
<path d="M1062.73 415.014C1062.73 416.486 1060.06 417.677 1056.8 417.677C1053.53 417.677 1050.87 416.486 1050.87 415.014C1050.87 413.542 1053.53 412.351 1056.8 412.351C1060.06 412.351 1062.73 413.542 1062.73 415.014Z" fill="white"/>
<path d="M1258.74 330.604C1260.73 330.604 1262.33 329.877 1262.33 328.98C1262.33 328.083 1260.73 327.356 1258.74 327.356C1256.76 327.356 1255.15 328.083 1255.15 328.98C1255.15 329.877 1256.76 330.604 1258.74 330.604Z" fill="white"/>
<path d="M1027.86 401.353C1027.86 402.241 1026.26 402.977 1024.27 402.977C1022.28 402.977 1020.67 402.262 1020.67 401.353C1020.67 400.444 1022.28 399.729 1024.27 399.729C1026.26 399.729 1027.86 400.444 1027.86 401.353Z" fill="white"/>
<path d="M1432.07 372.581C1432.07 373.469 1430.47 374.205 1428.48 374.205C1426.49 374.205 1424.89 373.491 1424.89 372.581C1424.89 371.672 1426.49 370.958 1428.48 370.958C1430.47 370.958 1432.07 371.672 1432.07 372.581Z" fill="white"/>
</g>
<path d="M1667.94 477.753H-22.9473V889H1667.94V477.753Z" fill="#98D3C5"/>
<g style="mix-blend-mode:soft-light" opacity="0.2">
<path d="M1669.04 477.753V656.38C1616.84 649.258 1565.11 631.31 1516.07 611.285C1434.35 577.902 1353.12 537.851 1265.19 530.036C1069.02 512.63 883.396 658.35 688.203 632.22C600.248 620.443 521.101 574.72 437.691 544.454C291.15 491.284 127.555 486.651 -21.8433 530.945V477.753H1669.04Z" fill="white"/>
</g>
<g style="mix-blend-mode:soft-light" opacity="0.2">
<path d="M1669.04 477.753V566.212C1546.98 562.596 1421.56 515.228 1296.98 507.088C1063.09 491.847 827.017 615.983 600.399 556.08C562.655 546.121 526.404 531.205 489.027 519.904C324.479 470.111 148.678 492.236 -21.8433 520.315V477.753H1669.04Z" fill="white"/>
</g>
<g style="mix-blend-mode:multiply">
<path d="M1669.04 684.308V889H-21.8433V627.63C540.579 671.21 1104.95 690.131 1669.04 684.308Z" fill="#DDEDE8"/>
</g>
<g style="mix-blend-mode:soft-light" opacity="0.2">
<path d="M1250.45 544.367C1250.45 547.42 1243.29 549.888 1234.44 549.888C1225.59 549.888 1218.42 547.42 1218.42 544.367C1218.42 541.315 1225.59 538.847 1234.44 538.847C1243.29 538.847 1250.45 541.315 1250.45 544.367Z" fill="white"/>
<path d="M1068.2 635.099C1077.05 635.099 1084.22 632.627 1084.22 629.578C1084.22 626.529 1077.05 624.058 1068.2 624.058C1059.36 624.058 1052.19 626.529 1052.19 629.578C1052.19 632.627 1059.36 635.099 1068.2 635.099Z" fill="white"/>
<path d="M1270.99 552.356C1270.99 553.698 1267.85 554.781 1264 554.781C1260.15 554.781 1257.01 553.698 1257.01 552.356C1257.01 551.014 1260.15 549.931 1264 549.931C1267.85 549.931 1270.99 551.014 1270.99 552.356Z" fill="white"/>
<path d="M1109.08 590.805C1109.08 592.147 1105.95 593.23 1102.09 593.23C1098.24 593.23 1095.1 592.147 1095.1 590.805C1095.1 589.463 1098.24 588.38 1102.09 588.38C1105.95 588.38 1109.08 589.463 1109.08 590.805Z" fill="white"/>
<path d="M386.702 562.444C386.702 563.787 383.564 564.869 379.711 564.869C375.859 564.869 372.721 563.787 372.721 562.444C372.721 561.102 375.859 560.02 379.711 560.02C383.564 560.02 386.702 561.102 386.702 562.444Z" fill="white"/>
<path d="M433.882 598.036C433.882 599.378 430.744 600.46 426.892 600.46C423.04 600.46 419.901 599.378 419.901 598.036C419.901 596.693 423.04 595.611 426.892 595.611C430.744 595.611 433.882 596.693 433.882 598.036Z" fill="white"/>
<path d="M1264 604.292C1264 605.635 1260.86 606.717 1257.01 606.717C1253.16 606.717 1250.02 605.635 1250.02 604.292C1250.02 602.95 1253.16 601.868 1257.01 601.868C1260.86 601.868 1264 602.95 1264 604.292Z" fill="white"/>
<path d="M1237.9 558.461C1237.9 559.327 1235.87 560.041 1233.33 560.041C1230.8 560.041 1228.77 559.327 1228.77 558.461C1228.77 557.595 1230.8 556.881 1233.33 556.881C1235.87 556.881 1237.9 557.595 1237.9 558.461Z" fill="white"/>
<path d="M1316.92 572.533C1316.92 573.399 1314.88 574.113 1312.35 574.113C1309.82 574.113 1307.78 573.399 1307.78 572.533C1307.78 571.667 1309.82 570.953 1312.35 570.953C1314.88 570.953 1316.92 571.667 1316.92 572.533Z" fill="white"/>
<path d="M1275.56 613.017C1278.08 613.017 1280.12 612.309 1280.12 611.437C1280.12 610.564 1278.08 609.856 1275.56 609.856C1273.04 609.856 1270.99 610.564 1270.99 611.437C1270.99 612.309 1273.04 613.017 1275.56 613.017Z" fill="white"/>
<path d="M1131.89 588.38C1131.89 589.246 1129.86 589.961 1127.33 589.961C1124.8 589.961 1122.76 589.246 1122.76 588.38C1122.76 587.514 1124.8 586.8 1127.33 586.8C1129.86 586.8 1131.89 587.514 1131.89 588.38Z" fill="white"/>
<path d="M418.71 583.726C418.71 584.592 416.676 585.306 414.144 585.306C411.612 585.306 409.577 584.592 409.577 583.726C409.577 582.86 411.612 582.145 414.144 582.145C416.676 582.145 418.71 582.86 418.71 583.726Z" fill="white"/>
<path d="M277.623 544.714C277.623 545.58 275.589 546.294 273.057 546.294C270.525 546.294 268.49 545.58 268.49 544.714C268.49 543.848 270.525 543.134 273.057 543.134C275.589 543.134 277.623 543.848 277.623 544.714Z" fill="white"/>
<path d="M336.383 593.208C336.383 594.074 334.349 594.788 331.817 594.788C329.284 594.788 327.25 594.074 327.25 593.208C327.25 592.342 329.284 591.627 331.817 591.627C334.349 591.627 336.383 592.342 336.383 593.208Z" fill="white"/>
</g>
<path d="M1428.87 482.971L1424.15 499.294L1423.42 501.849L1421.88 507.088L1417.7 521.549L1417.01 523.952L1408.81 552.291L1408.14 554.651L1394.44 602.062H962.043C947.305 587.731 935.445 573.247 925.879 559.414C925.186 558.396 924.494 557.444 923.866 556.448C917.027 546.316 911.422 536.509 906.898 527.438C906.401 526.442 905.903 525.468 905.448 524.515C902.57 518.627 900.168 513.041 898.09 507.889C897.679 506.958 897.333 506.027 896.986 505.096C894.627 498.991 892.852 493.514 891.489 488.902C890.277 484.767 889.39 481.325 888.784 478.641C888.502 477.493 888.308 476.562 888.156 475.718C887.68 473.445 887.507 472.233 887.507 472.233H887.615C1088.26 502.931 1334.53 463.01 1334.53 463.01L1428.87 482.971Z" fill="#632424"/>
<g style="mix-blend-mode:soft-light" opacity="0.5">
<path d="M887.594 472.254C893.091 474.138 1099.6 550.776 1428.87 482.971L1334.53 463.01C1334.53 463.01 1088.26 502.953 887.594 472.254Z" fill="white"/>
</g>
<path d="M1332.84 468.184L1402.12 482.516C1144.36 529.083 966.242 486.954 966.242 486.954C966.242 486.954 1126.85 501.502 1332.87 468.184H1332.84Z" fill="#4A1818"/>
<path d="M1207.43 533.11C1224.91 532.59 1242.38 531.594 1259.82 530.122C1290.73 527.503 1321.55 523.368 1352.06 517.782C1376.04 513.388 1399.83 508.062 1423.42 501.827L1424.15 499.294C1413.42 502.152 1402.62 504.814 1391.78 507.304C1361.43 514.232 1330.77 519.666 1299.9 523.606C1269.19 527.524 1238.33 529.927 1207.45 530.858C1206.02 530.902 1206.02 533.153 1207.45 533.11H1207.43Z" fill="#4A1818"/>
<path d="M896.986 505.096C897.333 506.027 897.7 506.936 898.09 507.889C927.459 518.497 957.563 526.94 988.058 533.391C1023.68 540.968 1059.85 545.883 1096.14 548.524C1133.5 551.252 1170.96 551.555 1208.36 549.931C1246.92 548.264 1285.36 544.562 1323.6 539.345C1354.88 535.102 1386.02 529.862 1417.01 523.931L1417.73 521.506C1381.21 528.52 1344.53 534.582 1307.65 539.15C1269.91 543.869 1231.97 547.052 1193.96 548.199C1156.98 549.303 1119.9 548.481 1083.02 545.19C1046.62 541.986 1010.39 536.422 974.769 528.109C948.452 521.961 922.438 514.318 896.986 505.074V505.096Z" fill="#4A1818"/>
<path d="M888.156 475.718C888.308 476.562 888.524 477.493 888.784 478.619C892.853 480.87 896.987 482.992 901.164 485.005C928.087 497.887 957.131 505.897 986.716 508.646C988.123 508.776 988.123 506.525 986.716 506.395C978.362 505.637 970.03 504.425 961.784 502.779C936.051 497.692 911.162 488.556 888.135 475.696L888.156 475.718Z" fill="#4A1818"/>
<path d="M905.427 524.515C905.881 525.489 906.379 526.464 906.877 527.438C909.366 528.347 911.876 529.213 914.387 530.079C933.627 536.704 953.214 542.354 972.995 546.987C992.733 551.598 1012.67 555.17 1032.75 557.747C1034.16 557.92 1034.13 555.668 1032.75 555.495C1021.37 554.023 1010 552.248 998.728 550.104C978.925 546.381 959.295 541.64 939.947 535.903C928.303 532.46 916.811 528.65 905.405 524.515H905.427Z" fill="#4A1818"/>
<path d="M1265.84 567.142C1278.46 566.796 1291.1 566.255 1303.69 565.519C1326.05 564.198 1348.34 562.25 1370.61 559.652C1383.14 558.18 1395.67 556.513 1408.14 554.672L1408.81 552.313C1405.56 552.811 1402.29 553.287 1399.05 553.742C1376.97 556.881 1354.81 559.37 1332.61 561.211C1310.4 563.094 1288.13 564.306 1265.86 564.913C1264.43 564.956 1264.43 567.207 1265.86 567.164L1265.84 567.142Z" fill="#4A1818"/>
<path d="M923.866 556.469C924.494 557.443 925.165 558.418 925.857 559.413C951.374 567.056 977.366 572.944 1003.6 577.426C1032.21 582.297 1061.1 585.479 1090.04 587.341C1120.01 589.289 1150.03 589.809 1180.07 589.376C1210.63 588.921 1241.14 587.536 1271.66 585.609C1302.33 583.682 1332.95 581.279 1363.58 578.854C1364.98 578.746 1365 576.495 1363.58 576.603C1359.81 576.906 1356.02 577.187 1352.28 577.491C1321.78 579.915 1291.31 582.232 1260.77 584.007C1230.28 585.782 1199.74 587.038 1169.18 587.233C1139.6 587.406 1110.01 586.648 1080.51 584.44C1051.21 582.253 1022.01 578.681 993.079 573.291C969.748 568.939 946.612 563.375 923.866 556.491V556.469Z" fill="#4A1818"/>
<path d="M1017.08 518.778C1044.91 524.255 1073.16 527.568 1101.49 528.607C1109.47 528.91 1117.46 529.018 1125.44 528.953C1126.85 528.953 1126.85 531.205 1125.44 531.205C1096.98 531.4 1068.52 529.365 1040.39 525.1C1032.4 523.887 1024.44 522.502 1016.52 520.943C1015.13 520.662 1015.72 518.497 1017.1 518.756L1017.08 518.778Z" fill="#4A1818"/>
<path d="M1126.85 568.333C1146.24 570.455 1165.74 571.256 1185.24 570.671C1190.76 570.498 1196.3 570.238 1201.82 569.848C1203.23 569.74 1203.23 572.013 1201.82 572.1C1182.36 573.442 1162.84 573.442 1143.39 572.1C1137.87 571.71 1132.37 571.212 1126.85 570.606C1125.47 570.455 1125.44 568.203 1126.85 568.355V568.333Z" fill="#4A1818"/>
<g style="mix-blend-mode:multiply" opacity="0.5">
<path d="M1421.9 507.066L1417.73 521.528L1417.03 523.931L1408.83 552.27L1408.16 554.629L1394.46 602.041H962.065C947.327 587.709 935.467 573.226 925.901 559.392C925.208 558.375 924.516 557.422 923.888 556.426C917.049 546.294 911.443 536.487 906.92 527.416C906.422 526.42 905.925 525.446 905.47 524.494C902.592 518.605 900.189 513.02 898.112 507.867C897.7 506.936 897.354 506.005 897.008 505.074C894.649 498.969 892.874 493.492 891.511 488.881C920.468 517.155 956.655 536.509 994.183 548.394C1040.67 563.159 1089.43 567.207 1137.8 569.351C1192.02 571.732 1246.75 571.797 1300.03 560.496C1343.3 551.339 1385.82 534.322 1421.92 507.044L1421.9 507.066Z" fill="#B73835"/>
</g>
<path d="M249.293 680.259C252.583 673.764 250.592 665.061 244.792 660.645C238.991 656.229 230.075 656.661 224.707 661.576C233.862 650.08 237.953 633.973 232.823 620.204C227.672 606.436 212.155 596.607 197.914 600.157C184.452 603.535 176.012 616.524 169.13 628.561C170.082 624.729 167.355 620.421 163.503 619.598C159.65 618.797 155.43 621.655 154.737 625.53C157.508 612.519 147.011 598.317 133.766 597.126C120.521 595.936 107.687 608.059 108.076 621.352C99.5274 611.436 84.3344 607.951 72.3228 613.168C60.3113 618.386 52.4767 631.852 53.8618 644.863C52.6065 638.823 45.5078 635.121 39.4912 636.484C33.4746 637.848 28.908 643.261 27.3065 649.236C25.705 655.211 26.6572 661.597 28.605 667.464C103.51 672.357 179.302 677.315 254.206 682.207L249.272 680.259H249.293Z" fill="#414A2B"/>
<g style="mix-blend-mode:multiply">
<path d="M213.367 680.908C215.575 676.557 214.233 670.712 210.359 667.767C206.485 664.823 200.49 665.105 196.897 668.395C203.022 660.688 205.77 649.907 202.329 640.684C198.888 631.462 188.478 624.859 178.934 627.262C169.909 629.513 164.26 638.216 159.65 646.292C160.278 643.737 158.46 640.836 155.885 640.295C153.309 639.754 150.474 641.68 150.019 644.278C151.881 635.554 144.847 626.028 135.974 625.249C127.1 624.448 118.486 632.566 118.768 641.485C113.032 634.839 102.861 632.501 94.8095 636.008C86.7585 639.515 81.4994 648.521 82.4517 657.246C81.6076 653.198 76.8463 650.708 72.8208 651.639C68.7736 652.548 65.7437 656.185 64.6616 660.19C63.5795 664.195 64.2287 668.482 65.5273 672.4C115.716 675.669 166.533 679.003 216.722 682.272L213.41 680.952L213.367 680.908Z" fill="#D6DDAB"/>
</g>
<path d="M163.913 504.468C142.704 520.164 123.875 538.912 108.119 560.041C103.617 566.082 99.3538 572.338 95.3716 578.725C94.6358 579.894 96.497 580.976 97.2329 579.807C111.019 557.66 128.03 537.57 147.617 520.337C153.2 515.423 159.022 510.725 164.995 506.308C166.099 505.486 165.017 503.624 163.913 504.446V504.468Z" fill="#2E351D"/>
<path d="M189.473 528.91C174.627 541.921 155.213 549.433 135.519 550.126C129.913 550.321 124.308 549.975 118.767 549.065C117.426 548.849 116.841 550.906 118.205 551.144C138.332 554.478 159.39 550.559 177.072 540.406C182.028 537.548 186.703 534.192 190.988 530.425C192.027 529.516 190.512 528.001 189.473 528.91Z" fill="#2E351D"/>
<path d="M142.054 489.833C133.938 503.819 129.047 519.493 127.749 535.599C127.64 536.985 129.783 536.963 129.891 535.599C131.168 519.882 135.994 504.555 143.916 490.916C144.608 489.725 142.747 488.642 142.054 489.833Z" fill="#2E351D"/>
<path d="M174.323 516.05C166.034 525.294 159.52 535.968 155.04 547.55C154.542 548.849 156.62 549.39 157.117 548.113C161.446 536.898 167.809 526.507 175.838 517.566C176.769 516.548 175.254 515.011 174.323 516.05Z" fill="#2E351D"/>
<path d="M180.816 551.75C170.666 554.174 159.845 553.244 150.279 549.065C149.023 548.524 147.92 550.364 149.197 550.927C159.325 555.365 170.623 556.404 181.379 553.828C182.721 553.503 182.158 551.425 180.816 551.75Z" fill="#2E351D"/>
<path d="M130.086 481.087C129.069 490.504 129.999 500.052 132.791 509.101C133.203 510.422 135.28 509.859 134.869 508.538C132.142 499.662 131.255 490.353 132.25 481.109C132.402 479.745 130.259 479.745 130.108 481.109L130.086 481.087Z" fill="#2E351D"/>
<path d="M123.485 475.999C121.754 479.312 123.442 483.598 127.229 485.568C131.017 487.538 135.497 486.456 137.207 483.144C138.938 479.831 137.25 475.545 133.463 473.575C129.675 471.605 125.195 472.687 123.485 475.999Z" fill="#B73835"/>
<path d="M159.174 498.796C157.442 502.108 159.131 506.395 162.918 508.365C166.705 510.335 171.185 509.253 172.895 505.94C174.627 502.628 172.938 498.341 169.151 496.371C165.364 494.401 160.884 495.484 159.174 498.796Z" fill="#B73835"/>
<path d="M176.033 548.394C174.302 551.707 175.99 555.993 179.777 557.963C183.565 559.933 188.045 558.851 189.755 555.538C191.486 552.226 189.798 547.94 186.01 545.97C182.223 543.999 177.743 545.082 176.033 548.394Z" fill="#B73835"/>
<path d="M190.966 519.449C186.962 521.636 185.729 527.135 188.239 531.724C190.75 536.314 196.031 538.241 200.034 536.054C204.038 533.868 205.272 528.369 202.761 523.779C200.251 519.189 194.97 517.263 190.966 519.449Z" fill="#D84E4E"/>
<path d="M168.956 511.569C164.952 513.756 163.718 519.255 166.229 523.844C168.739 528.434 174.02 530.361 178.024 528.174C182.028 525.987 183.261 520.489 180.751 515.899C178.24 511.309 172.959 509.383 168.956 511.569Z" fill="#D84E4E"/>
<path d="M138.613 483.209C136.254 487.127 137.964 492.496 142.444 495.181C146.924 497.887 152.464 496.891 154.823 492.972C157.182 489.054 155.473 483.685 150.993 481C146.513 478.294 140.972 479.29 138.613 483.209Z" fill="#D84E4E"/>
<path d="M144.176 548.394C136.038 541.77 123.875 544.303 114.352 548.741C86.4984 561.687 66.7172 586.692 48.6241 611.805C65.9381 586.865 78.5773 558.656 85.6111 529.105C87.4291 521.484 88.8791 513.582 87.6671 505.832C86.4551 498.082 82.105 490.439 75.0063 487.127C66.912 483.339 57.1945 485.872 49.4682 490.353C33.9722 499.337 23.5838 515.379 17.8485 532.352C12.1133 549.325 10.5334 567.381 8.99676 585.219C8.00121 596.737 7.00565 608.232 6.03174 619.75C5.1444 630.011 3.97571 640.316 3.36972 650.6C3.04508 656.229 3.21822 663.697 8.73705 666.945C15.3164 670.798 26.354 666.014 32.8468 663.914C42.5209 660.797 51.8705 656.64 60.8088 651.834C78.7504 642.178 95.1554 629.925 111.495 617.736C126.58 606.479 142.444 594.204 148.85 576.516C152.313 566.991 152.01 554.802 144.154 548.416L144.176 548.394Z" fill="#A5AE76"/>
<path d="M64.8345 501.502C51.8057 519.428 40.833 538.825 32.1327 559.219C23.4324 579.612 17.0046 600.807 13.0224 622.564C10.7932 634.753 9.32155 647.049 8.62899 659.411C8.54242 660.797 10.7067 660.797 10.7716 659.411C12.0052 637.459 15.7277 615.658 21.8309 594.529C27.9341 573.399 36.353 552.941 46.9578 533.673C52.8878 522.913 59.4888 512.522 66.6957 502.585C67.5182 501.459 65.6569 500.398 64.8345 501.502Z" fill="#2E351D"/>
<path d="M126.104 557.747C111.019 570.888 95.9562 584.05 80.8714 597.191C65.7866 610.332 50.572 623.603 35.4439 636.809C26.96 644.213 18.4762 651.617 9.97069 659.021C8.93185 659.931 10.4468 661.446 11.4857 660.537C26.5705 647.396 41.6336 634.233 56.7184 621.092C71.8032 607.951 87.0179 594.68 102.146 581.474C110.63 574.07 119.114 566.666 127.619 559.262C128.658 558.353 127.143 556.837 126.104 557.747Z" fill="#2E351D"/>
<path d="M1246.21 325.744C1244.48 323.882 1239.52 324.813 1239.52 324.813C1239.52 324.813 1238.51 321.761 1240.26 320.094C1243.03 318.622 1247.21 310.092 1245.99 304.528C1244.78 298.964 1229.61 292.123 1227.38 292.773C1225.15 293.422 1220.91 300.371 1220.91 300.371L1207.45 302.666L1218.55 308.338C1218.55 308.338 1216.39 323.406 1218.98 324.835L1215.89 330.139L1205.52 329.576L1202 336.244L1201.37 314.508L1199.72 314.205C1198.94 304.615 1198.14 295.024 1197.36 285.434C1196.48 274.674 1195.85 263.849 1194.33 253.155C1192.95 243.391 1190.63 233.692 1186.26 224.816C1182.26 216.719 1176.5 209.358 1168.88 204.401C1161.39 199.508 1152.3 197.018 1143.39 198.361L1143.21 198.144L758 501.059L758.325 501.492L1142.89 199.118C1142.95 199.486 1143.3 199.855 1143.78 199.79C1153.69 198.296 1163.88 201.933 1171.57 208.168C1186.63 220.421 1191.54 240.533 1193.6 258.935C1194.77 269.435 1195.46 279.978 1196.32 290.499C1196.97 298.315 1197.6 306.13 1198.25 313.945L1195.83 313.491L1192.99 315.656L1189.9 322.389L1190.63 312.69L1183.97 309.919L1181.13 313.383L1177.5 312.82L1174.1 319.249L1177.43 322.389L1175.7 325.419L1183.9 330.55L1186.61 326.35L1190.01 328.256L1183.4 338.69C1183.4 338.69 1173.1 327.195 1172.04 327.758C1171 328.32 1162.78 332.261 1162.35 333.192C1161.91 334.122 1162.11 337.63 1163.58 339.253C1165.05 340.855 1168.58 340.249 1169.81 340.79C1171.05 341.332 1184.81 358.261 1184.81 358.261L1182.58 367.527C1182.58 367.527 1172.71 381.729 1173.58 384.435C1174.44 387.141 1178.02 389.999 1178.02 389.999C1178.02 389.999 1165.05 439.64 1165.55 443.342C1166.05 447.044 1193.94 486.879 1193.14 489.715C1192.34 492.551 1174.31 503.484 1174.31 503.484H1205.72C1205.31 503.895 1205.03 504.285 1204.94 504.588H1241.6C1241.84 500.258 1237.9 496.556 1230.87 491.382C1223.83 486.186 1201.84 446.806 1194.57 445.312L1199.38 444.316L1217.4 396.407C1217.4 396.407 1225.43 393.571 1224.44 390.735C1240.74 380.365 1242.62 350.316 1242.06 338.279C1246.32 335.4 1247.9 327.628 1246.17 325.766L1246.21 325.744ZM1219.24 493.135C1219.09 494.326 1214.18 497.314 1210.15 500.063C1210.5 499.067 1210.72 497.963 1210.54 496.902C1210.05 493.871 1195.68 473.435 1193.25 469.17C1193.25 469.17 1219.48 491.144 1219.24 493.135Z" fill="#2E351D"/>
<defs>
<clipPath id="clip0_210_1392">
<rect width="388" height="388" fill="white" transform="translate(826 257)"/>
</clipPath>
<clipPath id="clip1_210_1392">
<rect width="342.185" height="342.185" fill="white" transform="translate(848.908 279.908)"/>
</clipPath>
</defs>
</svg>
