<svg width="48" height="48" viewBox="0 0 48 48" fill="none" xmlns="http://www.w3.org/2000/svg">
<path d="M20.208 22.08H10.512C9.4752 22.08 8.64 22.9248 8.64 23.952V33.648C8.64 34.6848 9.4848 35.52 10.512 35.52H20.208C21.2448 35.52 22.08 34.6752 22.08 33.648V23.952C22.08 22.9152 21.2352 22.08 20.208 22.08ZM20.16 33.6L10.56 33.648L10.512 24L20.16 23.952V33.6Z" fill="white"/>
<path d="M41.9136 27.888C41.9136 27.888 41.9232 27.8592 41.9232 27.84V18.4416C43.2576 17.5872 44.16 16.0992 44.16 14.4V6.72L41.28 0H3.1872L0 6.72V14.4C0 16.416 1.248 18.1344 3.0048 18.8448V39.36H0.96C0.432 39.36 0 39.792 0 40.32C0 40.848 0.432 41.28 0.96 41.28H27.6096C29.1456 45.2064 32.9664 48 37.44 48C43.2672 48 48 43.2672 48 37.44C48 33.216 45.504 29.5776 41.9136 27.888ZM42.24 14.4C42.24 15.984 40.944 17.28 39.36 17.28C37.776 17.28 36.48 15.984 36.48 14.4V8.64H42.24V14.4ZM17.28 8.64V14.4C17.28 15.984 15.984 17.28 14.4 17.28C12.816 17.28 11.52 15.984 11.52 14.4V8.64H17.28ZM20.16 8.64H25.92V14.4C25.92 15.984 24.624 17.28 23.04 17.28C21.456 17.28 20.16 15.984 20.16 14.4V8.64ZM27.84 8.64H33.6V14.4C33.6 15.984 32.304 17.28 30.72 17.28C29.136 17.28 27.84 15.984 27.84 14.4V8.64ZM4.4928 1.92H40.5408L41.7504 4.8H3.3408L4.4928 1.92ZM1.92 14.4V8.64H7.68V14.4C7.68 15.984 6.384 17.28 4.8 17.28C3.216 17.28 1.92 15.984 1.92 14.4ZM4.9248 39.36V19.1904C7.5168 19.1232 9.6 17.0112 9.6 14.4C9.6 17.0496 11.7504 19.2 14.4 19.2C16.3104 19.2 17.9424 18.0672 18.72 16.4544C19.4976 18.0672 21.1296 19.2 23.04 19.2C24.6144 19.2 26.0064 18.4224 26.88 17.2512C27.7536 18.432 29.1456 19.2 30.72 19.2C32.6304 19.2 34.2624 18.0672 35.04 16.4544C35.8176 18.0672 37.4496 19.2 39.36 19.2C39.5808 19.2 39.792 19.1616 40.0032 19.1328V27.2064C39.1776 26.9952 38.3232 26.88 37.44 26.88C31.6128 26.88 26.88 31.6128 26.88 37.44C26.88 38.0928 26.9472 38.736 27.0624 39.36H4.9248ZM37.9968 46.0512C37.9968 45.8016 37.9968 45.504 38.0064 45.1872C38.016 44.2848 38.0352 43.0464 38.064 42.7968C38.16 41.952 38.4 41.1648 38.7552 40.464C38.7744 40.4256 38.7936 40.3872 38.8224 40.3392C38.8512 40.3584 38.88 40.3776 38.9184 40.3968C39.5904 40.7424 40.3296 40.8384 41.1264 40.6848C41.7504 40.56 42.2496 40.2432 42.6048 39.7536C42.912 39.3312 43.1328 38.832 43.2768 38.1984C43.488 37.3056 43.5168 36.4032 43.5168 35.6352C43.5168 35.4048 43.4208 35.2608 43.344 35.1744C43.2672 35.088 43.104 34.9632 42.8736 34.992C42.3072 34.992 41.5584 35.0112 40.8 35.136C40.32 35.2128 39.6192 35.3664 38.976 35.7696C38.4672 36.0864 38.1408 36.4704 37.9584 36.96C37.6704 37.7376 37.6896 38.544 37.9968 39.3408C37.824 39.6192 37.6608 39.9072 37.5264 40.2144C37.392 39.696 37.2192 39.216 37.0176 38.7744C37.0272 38.7552 37.0464 38.7264 37.056 38.7072C37.1232 38.6016 37.1904 38.4864 37.2384 38.3712C37.4592 37.8624 37.536 37.296 37.4688 36.6912C37.3728 35.8272 36.9696 35.1744 36.2592 34.752C35.808 34.4832 35.3088 34.3008 34.6752 34.176C33.8688 34.0128 33.0528 33.9936 32.3616 33.984C32.064 33.984 31.8432 34.1472 31.7376 34.4256L31.7184 35.2224L31.776 35.7888C31.8048 36.1152 31.8336 36.4416 31.8816 36.7584C31.9872 37.4496 32.1888 38.0352 32.5056 38.5536C32.8128 39.0432 33.1872 39.3696 33.6576 39.552C34.3392 39.8112 35.0592 39.8304 35.7984 39.6192C35.8752 39.6 35.9424 39.5712 36.0096 39.5424C36.2688 40.176 36.4512 40.8672 36.576 41.6448C36.6816 42.2976 36.7296 44.7264 36.7488 46.0416C32.304 45.6864 28.8 41.9712 28.8 37.44C28.8 32.6784 32.6784 28.8 37.44 28.8C42.2016 28.8 46.08 32.6784 46.08 37.44C46.08 42.2016 42.4992 45.7632 37.9968 46.0512ZM41.472 37.536C41.4336 37.3536 41.328 37.1904 41.1648 37.104C41.0112 37.0176 40.8192 37.008 40.6464 37.0752C40.4832 37.1328 40.3296 37.2192 40.1664 37.3056C39.7344 37.5456 39.3408 37.824 38.9856 38.16C38.9664 37.7664 39.0432 37.4496 39.2256 37.152C39.3504 36.9504 39.5712 36.816 39.792 36.7008C40.1664 36.5088 40.608 36.384 41.088 36.3264C41.4432 36.288 41.808 36.2592 42.1632 36.24H42.2784C42.2784 36.24 42.2784 36.24 42.2784 36.2496C42.2592 36.8544 42.2112 37.488 42.0288 38.1024C41.952 38.352 41.8464 38.6112 41.7024 38.8704C41.52 39.216 41.232 39.4176 40.8096 39.4848C40.32 39.5616 39.8976 39.5136 39.5328 39.3312C39.696 39.1488 39.888 38.976 40.0896 38.8128C40.3776 38.5824 40.704 38.3808 41.1072 38.1888C41.5104 37.9968 41.4912 37.6608 41.472 37.5264V37.536ZM33.9936 37.1232C34.0896 37.2 34.1856 37.2672 34.2912 37.344C34.4064 37.4208 34.512 37.5072 34.6272 37.5936C34.9248 37.8336 35.184 38.1216 35.424 38.4576C35.3184 38.4864 35.1936 38.5056 35.0688 38.5248C34.704 38.5632 34.3776 38.5248 34.08 38.4C33.8208 38.2944 33.6288 38.0928 33.4368 37.7376C33.264 37.4016 33.1488 37.0272 33.072 36.4992C32.9952 36.0576 32.9664 35.6256 32.9568 35.2224C33.6192 35.2416 34.1568 35.3088 34.656 35.424C35.088 35.52 35.424 35.664 35.712 35.856C35.9808 36.0384 36.144 36.2688 36.2112 36.5856C36.2784 36.8928 36.288 37.1808 36.24 37.4784C35.904 37.056 35.5104 36.6912 35.0496 36.3744L34.752 36.1632C34.4544 35.952 34.0896 35.9904 33.8784 36.2592C33.7728 36.4032 33.7248 36.5664 33.7536 36.7392C33.7824 36.8928 33.8688 37.0368 34.0128 37.1424L33.9936 37.1232Z" fill="white"/>
</svg>
