<?xml version="1.0" encoding="utf-8"?>
<!-- Generator: Adobe Illustrator 28.2.0, SVG Export Plug-In . SVG Version: 6.00 Build 0)  -->
<svg version="1.1" id="Layer_1" xmlns="http://www.w3.org/2000/svg" xmlns:xlink="http://www.w3.org/1999/xlink" x="0px" y="0px"
	 viewBox="0 0 1920 1000.9" style="enable-background:new 0 0 1920 1000.9;" xml:space="preserve">
<style type="text/css">
	.st0{clip-path:url(#SVGID_00000047776562564283144700000004868111871423078536_);}
	.st1{fill:#57623B;}
	.st2{clip-path:url(#SVGID_00000037653163791714460080000000695004173817469059_);}
	.st3{fill:#FFFFFF;}
	.st4{clip-path:url(#SVGID_00000127030806971423943970000013188185102852596893_);}
</style>
<g>
	<defs>
		<rect id="SVGID_1_" x="528" y="674.4" width="946" height="349"/>
	</defs>
	<clipPath id="SVGID_00000178202770890240836430000002271847899554027688_">
		<use xlink:href="#SVGID_1_"  style="overflow:visible;"/>
	</clipPath>
	<g style="clip-path:url(#SVGID_00000178202770890240836430000002271847899554027688_);">
		<path class="st1" d="M650,974.9c1.3-8.7,6.2-16.9,13-23c6.8-6.1,15.8-10.2,25.4-10.9c9.6-0.7,19.2,2.3,27.2,7.5
			c7.9,5.4,14.4,13.1,17.6,22.4l-7.9-1.7c5.6-5.7,11.4-11.7,18.5-16.4c7-4.7,15.1-8.4,23.7-9.4c8.5-1.2,17.8,0.4,24.9,5.5
			c7,4.9,11.9,13,11.5,21.2c-1.6-7.9-7.3-14-13.8-17.4c-6.6-3.4-14.2-3.7-21.3-2.2c-7.1,1.6-13.8,5-19.8,9.5
			c-6,4.5-11.4,9.9-16.8,15.7l-5.3,5.7l-2.6-7.4c-2.6-7.1-7.5-13.5-13.8-18c-6.3-4.6-14-7.3-21.8-7.4c-7.8-0.1-15.8,2.4-22.6,7
			C659,960.2,653.4,966.8,650,974.9L650,974.9z"/>
		<path class="st1" d="M749.3,1018.3c1-6.7,4.8-13,10-17.7c5.3-4.7,12.1-7.9,19.5-8.4c7.4-0.5,14.8,1.8,20.9,5.8
			c6.1,4.1,11.1,10.1,13.6,17.3l-6.1-1.3c4.3-4.4,8.8-9,14.3-12.6c5.4-3.6,11.6-6.4,18.2-7.2c6.5-0.9,13.7,0.3,19.1,4.2
			c5.4,3.8,9.2,10,8.8,16.3c-1.2-6.1-5.6-10.8-10.7-13.3c-5-2.6-10.9-2.9-16.4-1.7c-5.5,1.2-10.6,3.8-15.2,7.3
			c-4.6,3.4-8.8,7.6-12.9,12.1l-4.1,4.4l-2-5.7c-1.9-5.5-5.7-10.4-10.7-13.9c-4.8-3.5-10.7-5.6-16.7-5.7c-6-0.1-12.2,1.9-17.4,5.4
			C756.3,1007,751.9,1012.1,749.3,1018.3L749.3,1018.3z"/>
		<path class="st1" d="M738.9,894.1c0.7-4.6,3.3-8.9,6.8-12.1c3.6-3.2,8.3-5.4,13.3-5.7c5-0.4,10.1,1.2,14.3,3.9
			c4.1,2.8,7.6,6.9,9.2,11.7l-4.1-0.9c2.9-3,6-6.2,9.7-8.6c3.7-2.5,7.9-4.4,12.4-4.9c4.5-0.6,9.3,0.2,13,2.9c3.6,2.6,6.2,6.8,6,11.1
			c-0.9-4.2-3.8-7.4-7.3-9.1c-3.4-1.8-7.4-1.9-11.2-1.1c-3.8,0.9-7.2,2.6-10.4,5c-3.1,2.4-6,5.2-8.8,8.2l-2.8,3l-1.4-3.9
			c-1.3-3.7-3.9-7.1-7.3-9.4c-3.3-2.4-7.3-3.8-11.4-3.9c-4.1-0.1-8.3,1.3-11.9,3.7C743.7,886.4,740.8,889.9,738.9,894.1L738.9,894.1
			z"/>
		<path class="st1" d="M528,884.8c0.4-2.9,2.1-5.7,4.4-7.8c2.3-2,5.3-3.4,8.5-3.7c3.2-0.2,6.5,0.8,9.2,2.5c2.6,1.8,4.9,4.4,5.9,7.6
			l-2.7-0.6c1.9-1.9,3.9-4,6.3-5.6c2.4-1.6,5.1-2.8,8-3.2c2.9-0.4,6,0.2,8.4,1.9c2.3,1.7,4,4.4,3.9,7.2c-0.5-2.7-2.5-4.7-4.7-5.8
			c-2.2-1.1-4.8-1.2-7.2-0.7c-2.4,0.5-4.7,1.7-6.7,3.2c-2,1.5-3.9,3.4-5.6,5.3l-1.8,1.9l-0.9-2.5c-0.9-2.4-2.5-4.6-4.7-6.1
			c-2.1-1.6-4.7-2.5-7.3-2.5c-2.6,0-5.3,0.8-7.6,2.4C531,879.8,529.1,882.1,528,884.8L528,884.8z"/>
		<path class="st1" d="M593.9,850.8c0.7-4.5,3.2-8.7,6.6-11.8c3.5-3.1,8.1-5.2,12.9-5.6c4.9-0.4,9.8,1.2,13.9,3.8
			c4,2.7,7.4,6.7,9,11.5l-4-0.9c2.9-2.9,5.8-6,9.5-8.4c3.6-2.4,7.7-4.3,12.1-4.8c4.3-0.6,9.1,0.2,12.7,2.8c3.5,2.5,6.1,6.7,5.9,10.9
			c-0.8-4.1-3.7-7.2-7.1-8.9c-3.3-1.8-7.2-1.9-10.9-1.1c-3.7,0.8-7,2.6-10.1,4.9c-3.1,2.3-5.8,5-8.6,8l-2.7,2.9l-1.3-3.8
			c-1.3-3.6-3.8-6.9-7.1-9.2c-3.2-2.4-7.1-3.7-11.1-3.8c-4-0.1-8.1,1.2-11.5,3.6C598.5,843.3,595.6,846.7,593.9,850.8L593.9,850.8z"
			/>
		<path class="st1" d="M1266.8,770.5c1-6.9,4.9-13.4,10.3-18.2c5.4-4.8,12.5-8.1,20.1-8.6c7.6-0.5,15.2,1.8,21.5,5.9
			c6.2,4.2,11.4,10.4,14,17.7l-6.3-1.3c4.4-4.5,9.1-9.3,14.7-13c5.5-3.7,12-6.6,18.8-7.4c6.7-0.9,14.1,0.4,19.7,4.4
			c5.5,3.9,9.4,10.3,9.1,16.8c-1.3-6.3-5.8-11.1-11-13.7c-5.2-2.7-11.2-2.9-16.8-1.7c-5.7,1.3-10.9,4-15.7,7.5
			c-4.7,3.6-9,7.9-13.3,12.4l-4.2,4.5l-2.1-5.9c-2-5.7-5.9-10.7-11-14.2c-5-3.6-11.1-5.8-17.2-5.9c-6.2-0.1-12.5,1.9-17.9,5.6
			C1274,758.9,1269.6,764.2,1266.8,770.5L1266.8,770.5z"/>
		<path class="st1" d="M1284.1,695.1c0.8-5.3,3.8-10.3,7.9-14c4.2-3.7,9.6-6.2,15.5-6.6c5.8-0.4,11.7,1.4,16.6,4.6
			c4.8,3.3,8.8,8,10.8,13.7l-4.8-1.1c3.4-3.5,7-7.2,11.3-10c4.3-2.9,9.2-5.1,14.5-5.7c5.2-0.7,10.8,0.3,15.1,3.4
			c4.2,3,7.3,7.9,7,12.9c-1-4.8-4.4-8.6-8.5-10.6c-4-2.1-8.7-2.3-13-1.3c-4.4,1-8.4,3-12.1,5.8c-3.6,2.7-7,6-10.2,9.6l-3.2,3.5
			l-1.6-4.5c-1.5-4.3-4.6-8.3-8.4-10.9c-3.8-2.8-8.5-4.4-13.3-4.5c-4.8-0.1-9.6,1.5-13.8,4.3
			C1289.6,686.1,1286.2,690.1,1284.1,695.1L1284.1,695.1z"/>
		<path class="st1" d="M1410.1,751.7c0.5-3.6,2.6-7,5.4-9.6c2.8-2.5,6.5-4.2,10.5-4.5c4-0.3,8,1,11.3,3.1c3.3,2.2,6,5.5,7.3,9.3
			l-3.3-0.7c2.3-2.4,4.8-4.9,7.7-6.8c2.9-1.9,6.2-3.5,9.8-3.9c3.5-0.5,7.4,0.2,10.3,2.3c2.9,2,4.9,5.4,4.8,8.8
			c-0.7-3.3-3-5.8-5.7-7.2c-2.7-1.4-5.9-1.5-8.8-0.9c-3,0.7-5.7,2.1-8.2,4c-2.5,1.9-4.8,4.1-7,6.5l-2.2,2.4l-1.1-3.1
			c-1.1-3-3.1-5.6-5.7-7.5c-2.6-1.9-5.8-3-9-3.1c-3.2,0-6.6,1-9.4,2.9C1413.9,745.6,1411.6,748.3,1410.1,751.7L1410.1,751.7z"/>
		<g>
			<defs>
				<rect id="SVGID_00000151535078855544313980000011872932992882460557_" x="360" y="668.4" width="808" height="131"/>
			</defs>
			<clipPath id="SVGID_00000182506529683610270250000007021533802874683789_">
				<use xlink:href="#SVGID_00000151535078855544313980000011872932992882460557_"  style="overflow:visible;"/>
			</clipPath>
			<g style="clip-path:url(#SVGID_00000182506529683610270250000007021533802874683789_);">
				<path class="st3" d="M596.4,779.4c-1.3-4.1,0.4-9,4.8-11.4c2.8-1.5,7.4-2.4,10.9-1.9c-6.6-3.8-12.9-8-16.7-13.7
					c-4.7-7-4.5-16.7,3.2-21.7c6.5-4.2,15.8-3.8,23.9-2.2c20.3,3.9,37.7,14.2,49.9,27.8c-1.2-5,4.1-10.4,10.5-10.6
					c5.4-0.2,12.2,2.5,13.7,6.5c-1.4-9.5-2.4-19.2,1.5-28.1c4.2-9.6,16-18,28.7-16.5c7.2,0.8,13.3,4.6,18.3,8.8
					c10.7,9.3,17.6,23.2,18.3,35.8c-0.1-4.6,5.7-8.7,11.4-8c5.7,0.7,10,6.1,8.1,10.4c8-12.1,17.7-23.7,30.5-32.8
					c12.8-9.1,28.9-15.7,46.1-16.6c6.9-0.4,14.1,0.2,20.2,2.7c6.2,2.5,11.2,7.1,12.3,12.6c1.2,6.2-2.8,12.2-7.1,17.3
					c-5.5,6.5-11.6,12.6-18.5,17.9c7.3-3.2,15.7-4.9,24-4.6c3.5,0.1,7.1,0.5,10.1,1.9s5.4,3.9,5.4,6.7c0.1,4.7-5.8,7.8-11,9.9
					c-10.4,4.1-21.2,8.1-32.2,11c14.6,1.1,28.7,4.2,42.4,8.3c-106.5-6.2-213.8-2.7-319.3,10.3c5.6-3.9,13.1-7.9,20.1-9.9
					C601.4,787,597.7,783.5,596.4,779.4L596.4,779.4z"/>
				<path class="st3" d="M997.2,707.9c-1-3.6-1.6-8,0.9-10.8c1.5-1.7,3.8-2.4,6.1-2.4c2.2,0.1,4.4,0.9,6.4,1.8
					c7.8,3.6,14.2,9.7,18.2,17.3c-1.4-3-0.2-7.2,2.8-8.7c3.2-1.7,8.1-0.1,9.4,3.4c-2.2-8.1-4.3-16.9-1.5-24.8
					c1.1-3.1,3.1-6.1,6.1-7.4c3.9-1.7,8.3-0.2,12,1.9c9.4,5.5,16.8,15.4,18.2,26.3c-0.7-2.7,1.3-5.7,4-6.5c2.7-0.8,5.7,0.4,7.6,2.5
					c1.9,2.1,3,4.8,3.4,7.6c1.4-7.4,2.9-14.9,6.5-21.6c3.6-6.6,9.7-12.3,17-13.4c5-0.7,10.2,0.7,14.6,3.2c3.3,1.9,6.5,4.6,7.3,8.4
					c0.7,3.5-0.9,7-2.5,10.1c-3.2,6.2-6.8,12.2-10.9,17.8c2.3-2.7,4.8-5.3,7.7-7.4c5-3.7,11.5-5.9,17.5-4.5
					c6.1,1.4,11.3,7.2,10.8,13.5c-0.5,6.4-6.3,11-12.1,13.5c-5.8,2.5-12.4,3.5-17.7,7c13.1,2.7,26.4,6.9,39,11.5
					c-62-7.2-124.6-9.3-186.9-6.4c7.7-5,18.6-8.9,27.7-9.9C1003.5,723.4,999.5,715.9,997.2,707.9L997.2,707.9z"/>
				<path class="st3" d="M388.4,741.1c-1.1-2-2.2-4-2.7-6.3c-0.5-2.2-0.2-4.7,1.3-6.5c1.9-2.3,5.3-2.7,8.1-1.9
					c2.8,0.8,5,2.5,7.3,4.3c-4.3-5.6-8.8-11.6-9.8-18.7c-1.1-7,2.6-15.4,9.4-16.9c4.4-0.9,8.9,1.1,12.6,3.6
					c7.6,5.2,13.2,12.8,16.2,21.5c0.4-4.6,4.3-8.5,8.8-9c4.5-0.5,10.4,2.2,11.8,6.6c-1-9.1-1-18.5,1.8-27.1
					c2.8-8.7,8.7-16.7,16.9-20.4s18.9-2.4,25,4.4c5.2,5.8,6.4,14.4,4.9,22c-0.9,4.5-2.5,8.8-4.6,13c6.2-8.5,15.9-14.4,26.4-15.5
					c6.1-0.6,13,0.7,16.7,5.6c3.4,4.6,3.1,11.3,0.1,16.2c-3,4.9-8.1,8.1-13.5,9.8c-5.4,1.7-11.4,3.2-17,3.6
					c14.3,1.3,27.8,5,41.6,9.3c-55.6-3.6-134.7,2.4-189.7,11.7C368.3,745.5,378.7,741.3,388.4,741.1L388.4,741.1z"/>
			</g>
		</g>
	</g>
</g>
<g>
	<defs>
		<rect id="SVGID_00000116915823851047971490000014781241183762044349_" x="-394" y="812.4" width="1956" height="315"/>
	</defs>
	<clipPath id="SVGID_00000163031453103672132860000005397958384316082577_">
		<use xlink:href="#SVGID_00000116915823851047971490000014781241183762044349_"  style="overflow:visible;"/>
	</clipPath>
	<g style="clip-path:url(#SVGID_00000163031453103672132860000005397958384316082577_);">
		<path class="st3" d="M989.6,1079.3c3.1-9.9-0.8-21.6-11.6-27.3c-6.8-3.6-17.8-5.7-26.3-4.5c16-9.2,31.2-19.3,40.5-32.9
			c11.5-16.7,10.9-40.2-7.7-52.2c-15.6-10-38.2-9-57.8-5.3c-49.1,9.4-91.3,34.2-120.7,66.8c2.8-12.1-10-24.9-25.5-25.5
			c-13.2-0.5-29.5,6.1-33.3,15.6c3.4-22.7,5.9-46.1-3.6-67.6c-10.2-23.1-38.8-43.2-69.4-39.7c-17.4,2-32.3,11-44.2,21.2
			c-26,22.3-42.6,55.9-44.3,86.2c0.3-11-13.8-20.9-27.6-19.2c-13.8,1.7-24.2,14.6-19.7,25.1c-19.5-29.1-42.9-56.9-73.9-78.9
			c-31-22-70-37.7-111.5-39.9c-16.7-0.9-34.1,0.5-49,6.5c-14.9,6-27.2,17.2-29.7,30.3c-2.8,14.8,6.7,29.3,17.3,41.7
			c13.4,15.7,28.1,30.2,44.9,43.1c-17.7-7.6-37.9-11.7-58.1-11.2c-8.4,0.2-17.1,1.2-24.4,4.6c-7.3,3.4-13.1,9.4-13.2,16.1
			c-0.2,11.2,14,18.7,26.7,23.7c25.3,9.9,51.3,19.5,78,26.5c-35.4,2.7-69.4,10.1-102.7,20c257.7-14.8,517.5-6.5,772.9,24.9
			c-13.6-9.3-31.7-19-48.7-23.8C977.5,1097.5,986.4,1089.2,989.6,1079.3L989.6,1079.3z"/>
		<path class="st3" d="M1493.1,987.1c2.7-4.8,5.4-9.7,6.5-15.1c1.1-5.4,0.4-11.4-3.1-15.6c-4.5-5.5-12.7-6.6-19.5-4.6
			c-6.8,2-12.1,6-17.7,10.5c10.4-13.6,21.2-27.9,23.8-44.8c2.6-16.9-6.2-37-22.9-40.5c-10.7-2.3-21.6,2.6-30.6,8.7
			c-18.3,12.5-32,30.8-39.3,51.8c-1-11-10.5-20.5-21.3-21.6c-10.9-1.1-25.2,5.3-28.5,15.8c2.5-21.8,2.4-44.4-4.3-65.3s-21-40-41-49
			c-19.9-8.9-45.7-5.7-60.4,10.5c-12.6,13.8-15.5,34.5-11.8,52.9c2.2,10.9,6.2,21.3,11,31.3c-15-20.5-38.6-34.7-63.8-37.2
			c-14.7-1.5-31.4,1.7-40.3,13.6c-8.2,11-7.4,27.2-0.2,38.9c7.2,11.7,19.6,19.4,32.7,23.5c13.1,4.1,27.5,7.7,41.2,8.5
			c-34.7,3.1-67.4,12.1-100.8,22.3c134.7-8.6,326.1,5.7,459.2,28.2C1541.9,997.8,1516.5,987.6,1493.1,987.1L1493.1,987.1z"/>
	</g>
</g>
</svg>
