<?xml version="1.0" encoding="utf-8"?>
<!-- Generator: Adobe Illustrator 28.2.0, SVG Export Plug-In . SVG Version: 6.00 Build 0)  -->
<svg version="1.1" id="Layer_1" xmlns="http://www.w3.org/2000/svg" xmlns:xlink="http://www.w3.org/1999/xlink" x="0px" y="0px"
	 viewBox="0 0 1920 1000.9" style="enable-background:new 0 0 1920 1000.9;" xml:space="preserve">
<style type="text/css">
	.st0{fill:#5E7C12;}
	.st1{fill:#516E0E;}
	.st2{fill:#83A532;}
	.st3{fill:#719913;}
	.st4{fill:#632424;}
	.st5{fill:#D4DDBA;}
</style>
<g>
	<g>
		<path class="st0" d="M1923.3,955.8v124.1H-4.2c0-38.2,2-81.3,2.8-121.7c0.2-11,0.4-21.8,0.4-32.3c637.2-71.8,1289-66.3,1924,16.2
			C1923,947.2,1923.3,950.7,1923.3,955.8z"/>
		<g>
			<path class="st1" d="M1923.3,955.8v6.2c-1,0.5-2.1,0.9-3.2,1.3c-42.7,14.6-92.3,12.6-137.6,3.9c-45.3-8.8-88.2-23.9-132.5-35.2
				c-44.4-11.3-97.7-29.4-140.7-15.1c-105.3,34.9-153.9,26.8-231.5,13.9c-77.6-13-155.5-32.9-234.5-26.6c-95,7.6-178.9,52-273,64.6
				c-98.3,13.1-197.9-9.5-294.5-28.9s-200.3-35.6-294.5-10.3c-33.2,8.9-64.1,22.8-97.9,30.3c-27.6,6.1-59,7.4-84.8-1.5
				c0.2-11,0.4-21.8,0.4-32.3c637.2-71.8,1289-66.3,1924,16.2C1923,947.2,1923.3,950.7,1923.3,955.8z"/>
		</g>
	</g>
</g>
<g>
	<path class="st2" d="M948.7,552c-6.9,21.2-24.6,35.8-45.2,38.9c14.2,10.6,22.3,30.2,19.9,48.6c-2.4,18.5-14.7,38-31.1,44
		c1.4,19.9-6.3,40.3-20.2,53.4c-13.9,13.1-33.6,18.6-51.7,14.5c-6.9-1.6-13.6-4.6-18.6-9.8c-5-5.3-7.6-12.8-6.4-20.3
		c-11.3,17.5-32.2,26.9-51.6,23.2h-0.1c-19.3-3.6-37.8-25.2-42.9-45.6c-2.1,28.3-22.6,53.9-48.3,60.2c-9.2,2.3-19.2,2.1-28.6-0.2
		c-16.9-4-32.5-14.7-40.9-30.4c6,17.1,0.1,37.7-12.7,49.4c-3,2.6-6.3,4.9-9.9,6.4c-19.3,8.4-42.5-2.5-50.8-23.1
		c-1.1,0.9-2.3,1.8-3.5,2.5c-19.1,12.8-46.4,8.3-62.8-8.6c-9.7-10-15.8-23.3-18.3-37.5c-2-11.4-1.8-23.4,0.8-34.7
		c5.7-25.3,21.4-47.1,40.5-63c14.2-93.7,93.6-185.5,176.1-218.3s167,14.7,250.1,45.3c19.7,7.3,37.5,21.2,48.5,40.3
		c2.5,4.3,4.7,9,6.4,13.8C953.1,517.5,953.9,535.7,948.7,552z"/>
	<g>
		<path class="st3" d="M947.4,501.3c-13.7,25.6-37.6,45-64.7,50.7c-36.6,7.7-74-12.4-94.8-45.8c-10.8,12.4-31.4,12.3-42.3,0
			c-1.2,13.4-8,26-18.1,33.7c-10.2,7.7-24.4,10.9-36.4,7.6c30.9,60.4,48.6,128.1,52.8,197c-19.3-3.6-37.8-25.2-42.9-45.6
			c-2.1,28.3-22.6,53.9-48.3,60.2c-9.2,2.3-19.2,2.1-28.6-0.2c-0.8-64.1-2.6-128.1-3.2-192.2c-11.9,1.5-23.5-4-31.6-13.4
			c3.7,17.6,5.8,35.9,3.7,53.9c-2.1,18-9.1,35.8-21.4,48.1c-12.3,12.3-31.2,19.4-47.2,14.1c8.4,39,23.9,76.4,46.1,108.5
			c-3,2.6-6.3,4.9-9.9,6.4c-19.3,8.4-42.5-2.5-50.8-23.1c-1.1,0.9-2.3,1.8-3.5,2.5c-9.3-19.6-16.9-40.3-22.4-61.8
			c-11.9,11.9-28.3,18.6-44.5,18c-4.8-0.2-9.6-1-14.2-2.4c-2-11.4-1.8-23.4,0.8-34.7c5.7-25.3,21.4-47.1,40.5-63
			c14.1-93.6,93.6-185.4,176-218.2s167,14.7,250.1,45.3c19.7,7.3,37.5,21.2,48.5,40.3C943.5,491.8,945.6,496.4,947.4,501.3z"/>
	</g>
	<path class="st4" d="M662.3,491.5c-13.2,4.1-26.4,8.1-39.6,12.1c25.8,122.9,31.1,250.5,17.7,376.1
		c-69.4-68.8-117.3-162.2-135.1-262.3c-6.3-1-12.9,0.3-18.6,3.3C506,740.2,556,857.4,631.3,947.5c-17.4,107.5-48.4,212.5-92,310.4
		c60.8,5.4,119.6,8.3,180.3,13.6C768.4,1018.9,745.2,733.8,662.3,491.5L662.3,491.5z"/>
	<path class="st2" d="M906.1,468.4c-11.9,20.2-36,29.2-57.9,26c-21.9-3.2-41.4-17-56.9-34.1c-12.8,11-28.5,14-43.8,7.9
		c-15.3-6.1-27.2-21.3-30.3-38.6c-0.6,9-6.3,17.6-13.9,21.4c-7.7,3.6-17.2,2.3-23.8-3.3c7.2,9.1,11.9,20.8,12.2,32.8
		c0.3,11.9-5.1,24.4-14.8,30c-9.7,5.6-23.6,2.5-29.1-7.9c-11.7,9.2-29.1,10.3-39.9,0.1c-10.8-10.3-16.6-22.2-9.7-35.8
		c-12.3,22.5-41.2,32.3-63.2,21.4c14.3,22.4,22.4,48.2,25.2,75.3c1.7,16.6,1,33.8-4.4,49.5c-5.4,15.6-16.1,29.7-30.3,36.3
		c-14.2,6.6-32.1,4.8-43.6-6.4c-2.3,12.1-10.9,24.2-21.2,29.6c-10.3,5.5-22.2,6.5-33.5,4.7c-19.1-3.2-36.8-14.9-48.1-31.9
		c-11.3-16.9-16.1-38.7-13-59.2c-15.3,5.2-33.9,0.3-47.4-9.1c-13.5-9.4-23.4-24-30-39.7c-5.5-13.1-8.8-27.5-9.2-41.9
		c-0.3-9.2,0.6-18.5,2.9-27.4c5.8-22.8,21.1-43.2,41.6-51.5c20.5-8.4,45.8-3.4,60.6,14.1c-10.1-13.1-9.2-35.4-1.4-50.2
		c-27.2-31.1-48.6-67.9-54.3-110.3c-5.8-42.5,4.1-88.1,30.3-120.2c26.2-32,69.4-48.4,107.5-36.4c-8.4-25.3-2.5-56.6,12.9-77.8
		c15.4-21.2,41.2-33.1,65.9-30.3s47.9,19.8,59,43.9c1.4-24.1,27.6-43.7,49.9-42.5s41.9,19.5,50.2,41.9s6.5,48-0.6,70.8
		c14.7-15.1,39.2-20.1,57-9.6s28,34,24.1,55.5c14.1-12.2,38.1-11.2,52.5,0.5c14.5,11.6,20.4,34.2,13.6,52.4
		c12.6,0.8,24.8,4.7,35.9,11.3c23,13.5,41.1,37.5,47.7,64.6c9.9,40.3-6.7,86.5-39.2,109.1C914.8,415,917.8,448.2,906.1,468.4z"/>
	<g>
		<path class="st5" d="M454.8,589.6c-0.2-2.1-0.2-4.2,0.1-6.4C455,585.3,455,587.5,454.8,589.6z"/>
	</g>
	<g>
		<path class="st3" d="M906.1,468.4c-11.9,20.2-36,29.2-57.9,26c-21.9-3.2-41.4-17-56.9-34.1c-12.8,11-28.5,14-43.8,7.9
			c-15.3-6.1-27.2-21.3-30.3-38.6c-0.6,9-6.3,17.6-13.9,21.4c-7.7,3.6-17.2,2.3-23.8-3.3c7.2,9.1,11.9,20.8,12.2,32.8
			c0.3,11.9-5.1,24.4-14.8,30c-9.7,5.6-23.6,2.5-29.1-7.9c-11.7,9.2-29.1,10.3-39.9,0.1c-10.8-10.3-16.6-22.2-9.7-35.8
			c-12.3,22.5-41.2,32.3-63.2,21.4c14.3,22.4,22.4,48.2,25.2,75.3c1.7,16.6,1,33.8-4.4,49.5c-5.4,15.6-16.1,29.7-30.3,36.3
			c-14.2,6.6-32.1,4.8-43.6-6.4c-2.3,12.1-10.9,24.2-21.2,29.6c-10.3,5.5-22.2,6.5-33.5,4.7c-19.1-3.2-36.8-14.9-48.1-31.9
			c-11.3-16.9-16.1-38.7-13-59.2c-15.3,5.2-33.9,0.3-47.4-9.1c-13.5-9.4-23.4-24-30-39.7c-5.5-13.1-8.8-27.5-9.2-41.9
			c5.2,10.9,12.5,20.8,21.4,28.6c17.8,15.4,41.9,22.3,64.3,18.1c-8.3-13.3-2.1-33.1,11.2-40.2c2.5,11.3,2.1,26.2,1.1,37.7
			c7.7-15.3,21.5-26.9,37.3-30.9c-2.3,16.4-13.7,31-28.6,35.1c-2.5,12-2.9,25.7,0.2,37.5c3.1,11.9,9.8,22.9,19.6,29.3
			c9.7,6.5,22.5,8.1,32.8,2.8c8.6-4.3,15-13.6,16.2-23.6c0.7,8.1,4.4,15.9,10.3,21c2.9-8.5,2.5-18.1-0.6-26.5
			c8.4,7.5,21.4,2.5,27.8-7c6.4-9.6,6.9-22.3,5.3-33.9c-3.8-28.5-18.6-55-40.3-71.9c11,2,20.3,2.3,31.4,1.9
			c11.1-0.3,22.5-3.3,31.5-10.4c9-7.1,15.3-18.8,14.7-30.8c-10.4-5.6-15.4-19.2-12.4-31.4c9.1,4,16.2,11.9,19.4,21.9
			c2-10.9,7.4-20.3,15-27.9c4.4,10.3,2.5,23.3-4.7,31.7c8.6,8.3,20.3,13.5,31.8,12.1c11.5-1.4,22.5-8.1,29.3-18.2
			c-0.8,9.4,4.1,18.3,12.3,21.7c8.1,3.4,17.8,1.4,24.9-4.2c7-5.5,11.8-14.2,13.9-23.3c2.1-9.2,1.9-18.8,0.6-28.1
			c4.2,3.1,8.9,4.6,14,4.6c19.7,0.2,39.2-9,52.5-24.7c-8.3,10.2-8.6,26.8-0.6,37.2c5.1-11.2,8.8-23.7,9.7-36.2
			c1.6,10.7,9.3,19.9,19,23c0.6-9.7-2.6-19.7-8.8-26.6c8.1-5.6,14.8-13.6,19.2-22.7c2.7,13.3,5.7,26.5,11,38.8
			c5.3,12.3,13.6,23.6,24.7,29.9c11.1,6.3,25.5,6.8,35.9-0.8c10.3-7.7,15-24.2,8.5-35.8c-9.7,1.4-19.1-7.3-22.2-17.3
			c7.3-1.9,15.9-0.4,21.6,5c20.1-0.7,38.7-14.4,48.8-33.1c10.1-18.7,11.7-42.1,6.1-62.9c-3.5-12.9-9.6-24.7-17.5-35.1
			c23,13.5,41.1,37.5,47.7,64.6c9.9,40.3-6.7,86.5-39.2,109.1C914.8,415,917.8,448.2,906.1,468.4z"/>
	</g>
	<g>
		<path class="st3" d="M472.1,232.6c-4.5,6.2-11.3,10.3-18.5,10.9c-7.2,0.8-14.7-1.8-20.1-6.9c8.7-6.5,20-8.9,30.6-8.3
			c-8.8-3.6-15.2-12.9-15.8-23.1C458.3,210.7,466.6,222.1,472.1,232.6L472.1,232.6z"/>
	</g>
	<g>
		<path class="st3" d="M454.9,388.5c-3.1,4.3-8,7.2-13.1,7.7c-5.1,0.5-10.3-1.3-14.2-4.8c6.2-4.6,14.2-6.3,21.6-5.8
			c-6.3-2.5-10.7-9.2-11.1-16.3C445.4,373,451.2,381,454.9,388.5L454.9,388.5z"/>
	</g>
	<g>
		<path class="st3" d="M494.9,175.5c-9.7,1.2-19.7-2-27.2-8.6c7.4-3.1,16-3.1,23.2,0.6c-4.2-3-6.8-7.4-8.6-12.4
			c-1.8-5-2.7-10.3-3.5-15.6c8.6,5.3,14.8,14.7,16.9,25.1c0.7-7.6,4.1-14.9,9.4-19.9C507.6,155.7,502.2,167.4,494.9,175.5
			L494.9,175.5z"/>
	</g>
	<g>
		<path class="st3" d="M816.7,285.3c-4.8-7.4-6.7-16.9-5.2-25.7c5.3,4.7,8.7,11.8,9.2,19.2c0.3-4.6,2.4-8.6,5.1-12.1
			c2.7-3.6,6.1-6.4,9.4-9.3c-0.2,9.2-4.2,18.1-10.5,24.1c5.6-2.6,12.1-2.9,17.8-0.6C835.9,287.2,825.5,287.7,816.7,285.3
			L816.7,285.3z"/>
	</g>
	<g>
		<path class="st3" d="M617.8,139.5c-4.3-5.1-6.7-11.9-6.4-18.8c0.2-6.9,2.9-13.6,7.5-18.4C622.3,114,619.2,127.3,617.8,139.5
			L617.8,139.5z"/>
	</g>
	<g>
		<path class="st3" d="M768.2,225c-1.9-6.5-1.4-13.9,1.4-20c2.8-6.2,7.9-11,13.8-13.4C782.1,203.8,774,214.6,768.2,225z"/>
	</g>
</g>
</svg>
