<?xml version="1.0" encoding="utf-8"?>
<!-- Generator: Adobe Illustrator 28.2.0, SVG Export Plug-In . SVG Version: 6.00 Build 0)  -->
<svg version="1.1" id="Layer_1" xmlns="http://www.w3.org/2000/svg" xmlns:xlink="http://www.w3.org/1999/xlink" x="0px" y="0px"
	 viewBox="0 0 1920 1000.9" style="enable-background:new 0 0 1920 1000.9;" xml:space="preserve">
<style type="text/css">
	.st0{opacity:0.3;}
	.st1{fill:#86975C;}
	.st2{fill:#83A532;}
	.st3{fill:#719913;}
	.st4{fill:#632424;}
	.st5{fill:#D4DDBA;}
	.st6{fill:#87B11A;}
	.st7{fill:#5E7C12;}
	.st8{fill:#516E0E;}
	.st9{fill:#193441;}
	.st10{fill:#B56B1F;}
	.st11{fill:#91BAEE;}
	.st12{fill:#FB523A;}
	.st13{fill:#EB3434;}
	.st14{fill:#885017;}
	.st15{fill:#D18015;}
	.st16{fill:#FFFFFF;}
	.st17{fill:#FFC366;}
	.st18{fill:#E89A49;}
	.st19{fill:#E88620;}
	.st20{fill:#FFDB82;}
	.st21{fill:#FFC0A9;}
	.st22{fill:#1D262D;}
	.st23{fill:#25506B;}
	.st24{fill:#FFAF96;}
	.st25{fill:#FFAF8A;}
	.st26{fill:#AB661F;}
	.st27{fill:#385ABF;}
	.st28{fill:#4B78FF;}
	.st29{fill:#FFE79F;}
</style>
<g class="st0">
	<path class="st1" d="M-211.2,642.9c-1.1,18.4,5.6,37.6,19.7,49.6c6.4,5.4,14.1,8.9,22.2,10.2c-1.5,10.6-0.5,21.5,3.4,31.5
		c1,2.5,2.1,4.8,3.3,7.1c8.4,14.9,23.2,25.5,40.1,29.6c0.9,16.2,10.9,31.6,25.3,39c14.4,7.4,33.1,7.7,46.9-0.9
		c6.1,10.1,21.2,15.4,32.3,11.3c-1.2,15.4,7.7,30.5,20.6,38.9c10.4,6.8,22.9,9.6,35.4,9.4c3-0.1,6.1-0.3,9.1-0.7
		c2.3-0.3,4.6-0.7,6.8-1.3c-0.9,50.6-6.2,101.1-15.7,150.9c16.6,1.7,33.4,4.2,49.9,6c9.9-52.5,11.2-106.3,6-159.9
		c10,3.6,21.1,4.2,31.4,1.6c17.3-4.4,31.6-18.3,37.4-35.1c7.3,1.8,15.4-0.7,20.4-6.3c5-5.6,7.2-14.4,4.5-21.4
		c14.7-6.5,26.1-19.8,30.7-35.1c1.3-4.2,2.1-8.6,2.3-13c0.4-9.5-1.8-19.1-6.2-27.5c3.6-4.2,6.4-9.2,8.3-14.7
		c24.2-8.2,42.1-32.5,42.7-58c0.2-10-2.2-20.2-6.6-29.6c-6.9-14.7-18.9-27.2-33.5-32.9c16.7-7.4,26.6-27.4,22.5-45.2
		c-4.1-17.8-21-31.6-39.2-30.9c10.7-25.5,2.3-57.7-19.5-74.7c-21.8-17-55.5-18.1-77.6-1.4c-11.9-7.2-29.4-3.2-36.6,8.7
		c-7-9.3-17.8-15.6-29.3-17.2c-11.6-1.5-22.2,1-31.4,8.1C2.3,408-28.9,385.6-62.1,383.8c-33.2-1.8-66.7,17.2-82.1,46.6
		c-15.5,29.4-14.2,69.6,6.2,95.9c-11.9,0.4-23.9,2.3-34.6,7.6c-3.4,1.7-6.6,3.7-9.6,6.1c-6.4,5.1-11.4,11.8-13.9,19.5
		c-3.7,11.3-3.3,25,5.5,33C-202.1,607.1-210.2,624.5-211.2,642.9L-211.2,642.9z M147,668.5c2.5-0.7,4.8-1.5,6.8-2.6
		c-0.6,2.5-1,5-1.5,7.5C150.6,671.7,148.8,670.1,147,668.5L147,668.5z"/>
	<path class="st1" d="M280.4,603.8c-9.1-6.2-13.6-18.3-10.9-28.9c2.7-10.6,12.2-22.9,23.1-23.9c-33.5,2-65.9-17.1-85.5-44.3
		c-19.5-27.2-27.3-61.4-27.8-94.9c-0.5-28.4,4.6-58.3,22.7-80.3c8.2-10,18.8-17.8,30.6-23.1c10.9-5,22.8-8,34.8-8.8
		c24.9-1.7,48.3,5,70.1,17.2c3.6-15.2,12.6-29.8,26.7-36.4c14.1-6.6,32.6-2.6,40.3,10.9c-5-22.3-7.8-45.4-4.8-68
		c3-22.6,12.3-44.9,28.6-60.9c16.4-16,40.3-24.8,62.8-20.3c22.4,4.5,43.6,23.6,45.6,46.4c9.6-10,22.1-17.6,35.8-19.4
		c13.7-1.9,28.6,2.7,37.6,13.2c6.9,8.1,9.9,18.9,10.3,29.5c0.4,10.6-2,18.7-4.1,29.1c11.5-2.2,24,5.5,27.3,16.8
		c1.7,5.9,0.8,12.6-2,18.4c10.8-9.8,22.8-18.1,36.4-23.2c18.8-7,40.9-7.1,58.1,3.3c17.2,10.4,26.2,31.9,20.1,51
		c11.3-6.6,27.2-3.6,35.3,6.6c8.2,10.2,6.7,25.3-2.2,34.8c24.2-1.6,49.3,3.3,69.5,16.7c7.7,5.1,14.7,11.5,20.5,18.8
		c9.3,11.8,15.4,26,16.5,40.9c1.8,24.2-11.3,48.2-32.8,59.4c13.7,8,20.2,26.3,14.6,41.1c-5.6,14.8-19.9,23.6-35.4,20.5
		c7.8,34.5-7.7,73-37.1,92.6c-0.8,0.6-1.7,1-2.5,1.5c1.2,10.8,0.2,21.9-3.4,32.3c-2.1,6.2-5.2,12.1-9,17.4
		c-10.5,14.7-26.7,25.6-44.3,30.1c6.3,21.7-2.2,46.9-20.4,60.2c-18.2,13.4-44.7,15.1-63.6,2.7c-0.5,10.3-8.6,19.6-18.7,21.6
		c-9.6,1.9-19.6-2.3-24.3-10.8c-0.2-0.4-0.4-0.8-0.6-1.2c-2.5,5.9-5.9,11.5-10,16.4c10.7,96.7,7.4,195.2-9.3,289
		c-37.5-13.5-75.7-25.6-114.4-35.1c26.4-75,42.1-153.8,46.9-233.2c-15.3-5.8-28.7-16.8-36.6-31c-5.5,6.2-12.9,10.7-21,12.9
		c-7.2,2-14.9,2.2-22.1,0.4c-15.4-3.9-28.1-18.6-31.7-34.1c-12.6,14.9-36.7,16.6-53.5,6.5c-16.7-10.1-26.2-29.5-28.3-48.9
		c-0.1-0.7-0.1-1.3-0.1-2c-1.9-0.5-3.7-1.1-5.5-1.8c-12.5-4.9-23.1-15.6-31.5-26.1c-21.7,7.8-47.8,3.7-64.9-11.8
		c-17.1-15.5-23.5-42.3-13.8-63.2C232.5,609.6,258.6,596.4,280.4,603.8L280.4,603.8z"/>
</g>
<g>
	<path class="st2" d="M340,712.2c3,23.8-9.9,48.7-30,58.8c-0.9,0.4-1.7,0.8-2.6,1.2c-4.3,1.8-9.1,3-13.6,1.6
		c-4.5-1.4-9.2-6.3-8.5-11.3c-3.8,9.6-12.3,16.8-21.8,18.4c-7.9,1.4-15.9-1.3-22-6.6c-1.2-1.1-2.4-2.3-3.5-3.6
		c-7.4,20-25.5,35-45.3,37.6c-3.3,0.4-6.5,0.5-9.7,0.2c-16.4-1.4-31.6-11.4-41.2-26.1c-1.4,9-7,17.1-14.5,21.3
		c-1.4,0.8-2.9,1.5-4.4,2c-9.7,3.1-21-1.7-27.8-9.8c-3.5,5.2-8.8,8.9-14.6,10.4c-4,1-8.3,1.1-12.3-0.1c-9.8-2.9-16.1-13.9-16.9-24.7
		c-9.3,2.8-19.6-0.8-26.9-7.8c-0.9-0.9-1.9-1.8-2.7-2.8c-7.3-8.8-10.7-20.8-11.3-32.6c-0.6-11.8,1.5-23.6,3.8-35.2
		c2-10.1,4.3-20.3,9.4-28.9c5.1-8.7,13.6-15.7,23.1-15.9c-2.9-41.3-12.9-104.7,16.2-131.4c0.4-0.4,0.7-0.7,1.1-1
		c30.4-26.2,108.8-25.3,147.3-19.2c33.6,5.3,65.2,22.6,90.5,47.1c3.7,3.5,7.2,7.2,10.6,11.1c5,5.7,9.8,11.7,14.1,18
		c7.6,11.1,14.1,23.1,18.7,35.9c1.8,5,3.3,10.1,4.5,15.3C355.7,660.1,353.6,689.5,340,712.2z"/>
	<g>
		<path class="st3" d="M340,712.2c3,23.8-9.9,48.7-30,58.8c-0.3-0.2-0.5-0.4-0.8-0.7c-13.5-11.6-17.9-33.4-10.8-50.4
			c-10.6,1.5-22.3-1.1-29.4-9.7c-5.9-7.2-7.8-17.4-7-26.9c0.8-9.5,3.7-18.7,6.9-27.6c-8.8,1.8-19.6-6.8-19.7-16.4
			c-10.8,43.4-14.2,90.3-7.8,135c-1.2-1.1-2.4-2.3-3.5-3.6c-7.4,20-25.5,35-45.3,37.6c-3.3,0.4-6.5,0.5-9.7,0.2
			c-5.8-38.9-4.9-78.4,1.6-117.3c-10.7,6.2-23.5,8.2-35.4,5.4s-22.7-9.6-30.1-20.1c-2.6,8.6-10.6,14.6-19.1,14.2
			c2.3,9.4,4.1,19.3,2.2,28.8c-1.9,9.5-8.5,19.1-17.4,20.9c7.6,24.9,22.7,48.1,42.6,63.3c-1.4,0.8-2.9,1.5-4.4,2
			c-9.7,3.1-21-1.7-27.8-9.8c-3.5,5.2-8.8,8.9-14.6,10.4c-12-14.4-20.3-32.2-23.8-51.3c-8.1,10.3-20,17-32.4,18.6
			c-0.9-0.9-1.9-1.8-2.7-2.8c-7.3-8.8-10.7-20.8-11.3-32.6c-0.6-11.8,1.5-23.6,3.8-35.2c2-10.1,4.3-20.3,9.4-28.9
			c5.1-8.7,13.6-15.7,23.1-15.9c-2.9-41.3-12.9-104.7,16.2-131.4c80.1,2.9,160.1,11.9,239,26.9c3.6,0.7,7.2,1.3,10.8,2.1
			c4.6,9,9.3,18,13.9,27c6.2,12,12.4,24,18.7,35.9c1.8,5,3.3,10.1,4.5,15.3C355.7,660.1,353.6,689.5,340,712.2z"/>
	</g>
	<path class="st4" d="M347.1,1056.4c-37.4-65.7-73.5-132.9-96.5-205.8c-11.3-35.9-19.4-73.6-22.7-111.6
		c41.1-17.3,76.7-64.4,81.3-111.3c-2.5-0.3-5.3-0.4-7.8-0.7c-6.7,41-37.6,75.4-74.9,85.6c-0.7-30.4,1.7-60.7,8.4-90.1
		c-9.4-1-18.8-2-28.2-3.1c-14,72.1-16.6,148.7-9.8,224.5c-35.9-4-107.4-34.9-124.2-114.1c-2.7,0-6-1.1-8.7-1.1
		c13.9,72.5,70.4,127.6,136.4,148c8.5,67.4,24.3,133.6,46.2,195C280.9,1069.7,313.6,1065.5,347.1,1056.4L347.1,1056.4z"/>
	<path class="st2" d="M425.9,559.7c-0.6,10.5-10.8,19-20.4,17c6.7,6.5,8.2,18.7,4.9,27.8c-3.3,9-12.1,15.4-21.1,15.2
		c18.1,20.6,34.2,45.6,33.7,74s-20.1,57.3-46.3,59.2c-18.9,1.3-36.3-10.8-50-24.9c-33-34-52.7-82.5-53.4-131.8
		c-2.7,5.9-9.4,10.3-15.5,10.4c-6.1,0.2-12.1-3.5-15-9.2c3.4,9.5,1.9,20.9-3.2,29.4c-5.1,8.5-15.2,13.7-24.3,11.2
		c-9.1-2.5-16-13.2-13.8-23c-4.5,14.5-11.8,30.2-21.7,41.2c-9.8,11-26.3,16.6-38.5,8.8c-7.6-4.9-12.1-13.9-15.3-22.9
		c-7.8-22-9.9-46.3-6-69.5c-21.8,8.3-47.8,3-64.9-13.7c17.2,18,30.2,40.8,37.7,65.5c3.1,10.1,5.3,21,3.1,31.4
		c-2.2,10.4-12,25.7-21.8,27c9.8,6,15.3,19,13.3,31c-2,11.9-11.5,22-22.6,23.9c-11.1,1.9-23-4.4-28.4-15
		c-9.2,20.5-25.5,38.4-45.4,46.1c-19.9,7.6-43.3,5.2-60.6-7.9c-12.6-9.5-21.4-24.6-24-40.7c-1-6.2-1.1-12.5-0.2-18.7
		c3.4-22.5,21.1-42.1,42.1-44.7c-12.4-6.8-19.2-21.3-19.4-36.3c-0.2-15,7.9-29.8,20.2-37c12.2-7.1,28.2-6.3,39.7,2.1
		c-3.1-5.4-3.3-12.1-0.1-17.5c3.1-5.4,9.3-8.4,15-7.7c-18.3-20.8-36.5-41.9-45.3-69c-8.8-27.1-10.3-57.5-0.8-84.4
		c9.5-26.8,30.6-49.4,56.5-55.9c25.9-6.6,55.7,4.9,69.5,29.4c-3.6-18.4,10.3-40.8,27-46.4c16.7-5.6,36.5,4.5,43.1,21.8
		c5.9-14,23-25,37.3-24.5c14.3,0.5,27.7,9.9,35.1,23.1c7.3,13.2,8.8,29.8,5,44.6c4.8-8.2,17.9-9.2,25.3-3.6
		c7.4,5.6,10.6,16,10.5,25.7c-0.1,9.8-3.2,19.1-6.2,28.3c5.8-5,15.6-2.3,21.1,3.1c5.6,5.4,8.3,13.3,10.3,21.1
		c7.5-20.8,14.2-41.6,27.2-58.9c13-17.3,32.3-30.6,52.9-29.8c8.3,0.3,16.2,2.9,23.3,7.3c17.7,10.9,30.6,32.4,33.8,54.7
		c4.5,31.3-6,62.9-20,90.6C419.2,536.6,426.5,549.2,425.9,559.7z"/>
	<g>
		<path class="st3" d="M425.9,559.7c-0.6,10.5-10.8,19-20.4,17c6.7,6.5,8.2,18.7,4.9,27.8c-3.3,9-12.1,15.4-21.1,15.2
			c18.1,20.6,34.2,45.6,33.7,74s-20.1,57.3-46.3,59.2c-18.9,1.3-36.3-10.8-50-24.9c-33-34-52.7-82.5-53.4-131.8
			c-2.7,5.9-9.4,10.3-15.5,10.4c-6.1,0.2-12.1-3.5-15-9.2c3.4,9.5,1.9,20.9-3.2,29.4c-5.1,8.5-15.2,13.7-24.3,11.2
			c-9.1-2.5-16-13.2-13.8-23c-4.5,14.5-11.8,30.2-21.7,41.2c-9.8,11-26.3,16.6-38.5,8.8c-7.6-4.9-12.1-13.9-15.3-22.9
			c-7.8-22-9.9-46.3-6-69.5c-21.8,8.3-47.8,3-64.9-13.7c17.2,18,30.2,40.8,37.7,65.5c3.1,10.1,5.3,21,3.1,31.4
			c-2.2,10.4-12,25.7-21.8,27c9.8,6,15.3,19,13.3,31c-2,11.9-11.5,22-22.6,23.9c-11.1,1.9-23-4.4-28.4-15
			c-9.2,20.5-25.5,38.4-45.4,46.1c-19.9,7.6-43.3,5.2-60.6-7.9c-12.6-9.5-21.4-24.6-24-40.7c1.6,3.2,3.6,6.2,6,8.6
			c8.4,8.4,20.4,11.6,31.8,11.3c9.7-0.2,19.5-2.8,27.7-8.4c8.2-5.6,14.7-14.4,17-24.6c-10-2.8-17.2-14.5-15.5-25.6
			c9.2,1.4,17.2,8.6,19.9,18.3c0.1-10.9,4.4-21.7,11.8-29.2c1.7,9.2,0.9,18.1-2,27c3.4,4.1,9.9,4.8,14.6,2.5
			c4.7-2.3,7.8-7.4,8.7-12.8c0.9-5.4-0.3-11.1-2.7-15.9c6.5,2.5,14.4,1,19.3-4.2c4.9-5.2,6.8-13.5,4.7-20.6
			c-2-6.6-7.4-11.8-13.7-13.4c6.8,0.7,14-4.4,17-11.1c-5.5-2.7-12.6-1.4-17,3.1c6.7-7.8,8.1-20.5,7.9-31.1
			c-0.6-25.5-10.5-50.6-27.1-68.8c9.7,7.4,20.1,13.7,30.8,19.4c10.7,5.7,22.4,9.5,34.3,9.3c11.9-0.2,24-4.7,32.3-13.9
			c-5.6-2.4-9.5-10-8-16.2c4,3.1,7.3,7.2,9.6,11.9c0.5-6.6,2.9-12.6,6.9-17.5c0.9,6.2,0,12.5-2.4,18.2c8.1-4.3,15.3-10.4,20.1-18.6
			c-2.5,9.2-4.8,20.1-4.7,29.7c0.1,9.6,3,19.6,9.5,26.1c5.9,6,14.6,8.6,22.5,6.8c7.9-1.8,14.9-8,18-16c0.5,5.7,4.9,11.1,10,12.8
			c1.1-5.2-1.3-11-5.6-13.6c3.5,1.6,7.6,1,11.1-0.6c-2.7-1.9-6-3.1-9.2-2.9c6.1-6,9.2-15,8.8-23.9c0.2,5.1,3,9.6,6.5,13.1
			c3.5,3.5,8,5.6,12.6,6.4c2.8,0.4,5.7,0.4,8.4-0.5c2.7-0.9,5.1-2.9,6.4-5.6c-3.6-1.6-6.7-4.8-7.9-8.8c-1.2-4-0.6-8.6,1.4-12.2
			c4.3,5.3,7.2,11.6,8.3,18.5c1.4-6.4,4.5-12.2,9.1-16.5c0.8,5.8-1,11.8-4.7,16.1c7-5,12.3-12.7,14.7-21.4
			c-0.3,5.7,1.9,11.2,5.5,15.4c3.6,4.2,8.7,6.8,14,7c-4.5,1.2-8.3,4.4-9.8,9.2c4.5-0.7,8.9-2.9,12.2-6.3c-0.9,2.7-1.2,5.6-0.7,8.4
			c1.8-1.8,3.8-3.5,5.6-5.2c-2.4,18.8,1.4,38.4,9.6,55.2c4.1,8.5,9.7,16.4,17.2,21.7c7.5,5.2,17,7.4,25.5,4.3
			c8.4-3.1,15.1-12.1,14.6-21.7c-4.5,0.7-9.9-1.3-12.9-5.1c3.9-2.5,9-2.7,13.1-0.5c-3-3.3-4.8-7.8-4.7-12.4c4,1.8,7.3,5.3,8.5,9.9
			c4.2,1.6,8.9,2.8,13.4,3c4.5,0.2,9.3-1.3,12.2-4.9c2.1-2.6,3-6.1,3.1-9.5c0.2-8.1-4.7-16.1-11.8-19c6.8-1.1,14.3-2.9,18.6-8.7
			c3.8-5.1,4.1-12.6,1.9-18.8c-2.2-6.1-6.5-11.1-11.1-15.5c13.2-5.7,21.2-21,27-35.1c6.1-15,10.1-31.1,10.3-47.4
			c0.2-16.3-3.5-32.9-11.7-46.6c-2.2-3.7-4.8-7.2-7.7-10.4c17.7,10.9,30.6,32.4,33.8,54.7c4.5,31.3-6,62.9-20,90.6
			C419.2,536.6,426.5,549.2,425.9,559.7z"/>
	</g>
	<g>
		<path class="st3" d="M362.3,483c-3.8-5.9-5.3-13.4-4.1-20.4c4.2,3.7,7,9.4,7.3,15.2c0.2-3.7,1.9-6.8,4.1-9.6
			c2.2-2.8,4.9-5.1,7.5-7.4c-0.1,7.3-3.3,14.4-8.4,19.2c4.5-2.1,9.6-2.3,14.2-0.4C377.5,484.6,369.2,485,362.3,483L362.3,483z"/>
	</g>
	<g>
		<path class="st3" d="M348.6,441c-1.6-5.2-1.2-11,1.1-15.9c2.2-4.9,6.3-8.8,11-10.7C359.7,424.2,353.3,432.7,348.6,441z"/>
	</g>
	<path class="st2" d="M930.8,542.9c-5.5,16.9-19.6,28.5-35.9,31c11.3,8.4,17.7,24,15.9,38.7c-1.9,14.7-11.7,30.2-24.7,35
		c1.1,15.8-5,32.1-16.1,42.5c-11.1,10.4-26.8,14.9-41.2,11.5c-5.5-1.3-10.8-3.7-14.8-7.8c-4-4.2-6.1-10.2-5.1-16.1
		c-9,13.9-25.7,21.4-41.1,18.5c0,0-0.1,0-0.1,0c-15.4-2.9-30.1-20-34.1-36.3c-1.7,22.5-18,42.9-38.5,47.9
		c-7.4,1.8-15.2,1.7-22.8-0.1c-13.4-3.2-25.8-11.8-32.6-24.2c4.8,13.6,0.1,30-10.1,39.3c-2.4,2.1-5,3.9-7.9,5.1
		c-15.4,6.7-33.9-2-40.4-18.4c-0.9,0.7-1.8,1.4-2.8,2c-15.2,10.2-36.9,6.6-50-6.9c-7.7-8-12.6-18.6-14.5-29.9
		c-1.6-9.1-1.4-18.6,0.6-27.6c4.5-20.2,17-37.5,32.3-50.1c11.2-74.6,74.5-147.6,140.2-173.7c65.7-26.1,132.9,11.6,199.1,36.1
		c15.7,5.8,29.9,16.9,38.6,32.1c2,3.5,3.7,7.2,5,11C934.3,515.4,935,529.9,930.8,542.9z"/>
	<g>
		<path class="st3" d="M929.8,502.5c-10.9,20.4-30,35.8-51.5,40.4c-29.2,6.1-58.9-9.8-75.5-36.4c-8.5,9.9-25,9.8-33.7,0
			c-0.9,10.7-6.3,20.7-14.4,26.9c-8.1,6.2-19.4,8.7-29,6.1c24.6,48.1,38.7,102,42,156.9c-15.4-2.9-30.1-20-34.1-36.3
			c-1.7,22.5-18,42.9-38.5,47.9c-7.4,1.8-15.2,1.7-22.8-0.1c-0.7-51-2.1-102-2.6-153c-9.4,1.2-18.7-3.2-25.2-10.7
			c2.9,14.1,4.7,28.6,3,42.9c-1.7,14.3-7.2,28.5-17,38.2c-9.8,9.8-24.8,15.5-37.6,11.2c6.7,31,19,60.9,36.7,86.4
			c-2.4,2.1-5,3.9-7.9,5.1c-15.4,6.7-33.9-2-40.4-18.4c-0.9,0.7-1.8,1.4-2.8,2c-7.5-15.6-13.5-32.1-17.8-49.2
			c-9.5,9.5-22.5,14.7-35.4,14.3c-3.8-0.1-7.6-0.8-11.3-1.9c-1.6-9.1-1.4-18.6,0.6-27.6c4.5-20.2,17-37.5,32.3-50.1
			c11.2-74.6,74.5-147.6,140.2-173.7c65.7-26.1,132.9,11.6,199.1,36.1c15.7,5.8,29.9,16.9,38.6,32.1
			C926.7,494.9,928.4,498.6,929.8,502.5z"/>
	</g>
	<path class="st4" d="M702.9,494.7c-10.5,3.2-21,6.4-31.5,9.7c20.6,97.8,24.7,199.5,14.1,299.4C630.2,749,592,674.7,577.9,595
		c-5-0.8-10.3,0.2-14.8,2.7c15.3,95.1,55.1,188.4,115.1,260.2c-13.8,85.6-38.5,169.1-73.3,247.1c48.4,4.3,95.2,6.6,143.6,10.9
		C787.3,914.6,768.8,687.6,702.9,494.7L702.9,494.7z"/>
	<path class="st2" d="M896.9,476.3c-9.4,16-28.7,23.3-46.1,20.7c-17.4-2.6-33-13.6-45.3-27.1c-10.2,8.8-22.7,11.1-34.9,6.3
		c-12.2-4.8-21.7-16.9-24.1-30.7c-0.4,7.2-5,14.1-11.1,17c-6.1,2.9-13.7,1.9-18.9-2.6c5.7,7.2,9.5,16.6,9.7,26.1
		c0.2,9.5-4,19.4-11.8,23.9c-7.8,4.5-18.8,2-23.1-6.3c-9.3,7.3-23.1,8.3-31.8,0.1c-8.6-8.2-13.2-17.7-7.8-28.5
		c-9.8,17.9-32.8,25.7-50.3,17c11.4,17.8,17.8,38.4,20,59.9c1.4,13.3,0.8,26.9-3.5,39.4c-4.4,12.4-12.8,23.6-24.1,28.9
		c-11.3,5.3-25.6,3.8-34.7-5.1c-1.8,9.6-8.7,19.2-16.9,23.5c-8.1,4.4-17.7,5.2-26.6,3.7c-15.2-2.6-29.3-11.9-38.3-25.3
		c-9-13.4-12.8-30.8-10.3-47.2c-12.2,4.1-27,0.3-37.7-7.2c-10.7-7.5-18.6-19.1-23.9-31.7c-4.4-10.4-7-21.9-7.4-33.4
		c-0.2-7.4,0.5-14.7,2.3-21.8c4.6-18.2,16.8-34.4,33.1-41c16.3-6.7,36.4-2.7,48.2,11.2c-8-10.4-7.3-28.2-1.1-40
		c-21.6-24.8-38.6-54.1-43.3-87.7c-4.6-33.7,3.2-69.9,24.1-95.5c20.9-25.5,55.2-38.5,85.5-29c-6.7-20.2-2-45.1,10.3-61.9
		c12.2-16.9,32.8-26.3,52.5-24.2c19.7,2.2,38.1,15.8,47,35c1.1-19.2,22-34.8,39.7-33.8c17.8,1,33.3,15.5,39.9,33.4
		c6.6,17.8,5.2,38.2-0.5,56.4c11.7-12,31.2-16,45.3-7.6c14.1,8.3,22.3,27.1,19.1,44.2c11.2-9.7,30.3-8.9,41.8,0.4
		c11.6,9.3,16.2,27.3,10.9,41.7c10,0.6,19.8,3.8,28.6,9c18.3,10.7,32.7,29.8,38,51.4c7.9,32.1-5.3,68.9-31.2,86.9
		C903.8,433.8,906.3,460.3,896.9,476.3z"/>
	<g>
		<path class="st5" d="M537.6,572.8c-0.2-1.7-0.1-3.4,0.1-5C537.8,569.4,537.8,571.1,537.6,572.8z"/>
	</g>
	<g>
		<path class="st3" d="M896.9,476.3c-9.4,16-28.7,23.3-46.1,20.7c-17.4-2.6-33-13.6-45.3-27.1c-10.2,8.8-22.7,11.1-34.9,6.3
			c-12.2-4.8-21.7-16.9-24.1-30.7c-0.4,7.2-5,14.1-11.1,17c-6.1,2.9-13.7,1.9-18.9-2.6c5.7,7.2,9.5,16.6,9.7,26.1
			c0.2,9.5-4,19.4-11.8,23.9c-7.8,4.5-18.8,2-23.1-6.3c-9.3,7.3-23.1,8.3-31.8,0.1c-8.6-8.2-13.2-17.7-7.8-28.5
			c-9.8,18-32.8,25.7-50.3,17c11.4,17.8,17.8,38.4,20,59.9c1.4,13.3,0.8,26.9-3.5,39.4c-4.4,12.4-12.8,23.6-24.1,28.9
			c-11.3,5.3-25.6,3.8-34.7-5.1c-1.8,9.6-8.7,19.2-16.9,23.5c-8.1,4.4-17.7,5.2-26.6,3.7c-15.2-2.6-29.3-11.9-38.3-25.3
			c-9-13.4-12.8-30.8-10.3-47.2c-12.2,4.1-27,0.3-37.7-7.2c-10.7-7.5-18.6-19.1-23.9-31.7c-4.4-10.4-7-21.9-7.4-33.4
			c4.1,8.7,9.9,16.5,17,22.7c14.2,12.3,33.3,17.7,51.2,14.4c-6.6-10.6-1.7-26.3,8.9-32c2,8.9,1.7,20.9,0.9,30
			c6.2-12.2,17.1-21.5,29.7-24.7c-1.8,13.1-10.9,24.7-22.8,27.9c-2,9.6-2.3,20.5,0.2,29.9c2.4,9.5,7.8,18.2,15.6,23.3
			c7.7,5.2,17.8,6.4,26.1,2.2c6.8-3.5,11.9-10.8,12.9-18.8c0.6,6.4,3.5,12.7,8.2,16.7c2.3-6.8,2.1-14.5-0.4-21.1
			c6.7,6,17,2,22.1-5.6c5.1-7.6,5.5-17.7,4.2-27c-3-22.6-14.9-43.8-32-57.2c8.8,1.6,16.2,1.8,25,1.5c8.9-0.3,17.9-2.6,25.1-8.3
			c7.2-5.7,12.2-15,11.6-24.5c-8.3-4.4-12.3-15.3-9.8-25c7.2,3.1,12.9,9.5,15.4,17.5c1.6-8.7,5.9-16.2,12-22.2
			c3.5,8.2,1.9,18.6-3.7,25.2c6.9,6.6,16.1,10.7,25.3,9.7c9.2-1,17.9-6.4,23.3-14.5c-0.6,7.5,3.3,14.6,9.8,17.3
			c6.5,2.7,14.2,1.1,19.8-3.3c5.6-4.4,9.4-11.3,11.1-18.5c1.7-7.3,1.6-15,0.5-22.4c3.3,2.4,7.1,3.6,11.1,3.6
			c15.7,0.1,31.2-7.2,41.8-19.6c-6.6,8.1-6.9,21.3-0.5,29.6c4-8.9,7-18.9,7.8-28.8c1.3,8.5,7.5,15.9,15.1,18.3
			c0.5-7.7-2.1-15.6-7-21.2c6.4-4.5,11.8-10.8,15.3-18.1c2.2,10.6,4.5,21.1,8.8,30.9c4.3,9.8,10.8,18.8,19.6,23.8
			c8.9,5,20.3,5.4,28.6-0.7c8.3-6.1,11.9-19.3,6.7-28.5c-7.7,1-15.2-5.8-17.7-13.8c5.8-1.5,12.7-0.3,17.2,3.9
			c16-0.6,30.8-11.5,38.9-26.4c8-14.9,9.3-33.5,4.9-50.1c-2.8-10.2-7.6-19.7-13.9-27.9c18.3,10.7,32.7,29.8,38,51.4
			c7.9,32.1-5.3,68.9-31.2,86.9C903.8,433.8,906.3,460.3,896.9,476.3z"/>
	</g>
	<g>
		<path class="st3" d="M551.4,288.6c-3.5,4.9-9,8.1-14.7,8.7c-5.7,0.6-11.6-1.4-16-5.4c7-5.2,15.9-7.1,24.4-6.6
			c-7-2.8-12.1-10.3-12.5-18.3C540.5,271.1,547.1,280.2,551.4,288.6L551.4,288.6z"/>
	</g>
	<g>
		<path class="st3" d="M537.8,412.7c-2.5,3.4-6.3,5.7-10.4,6.1c-4,0.4-8.2-1-11.3-3.9c4.9-3.7,11.3-5,17.2-4.6c-5-2-8.5-7.3-8.8-13
			C530.1,400.3,534.8,406.7,537.8,412.7L537.8,412.7z"/>
	</g>
	<g>
		<path class="st3" d="M569.6,243.1c-7.7,1-15.7-1.6-21.6-6.9c5.9-2.5,12.7-2.5,18.5,0.4c-3.3-2.3-5.4-5.9-6.9-9.9
			c-1.4-3.9-2.1-8.2-2.8-12.4c6.9,4.2,11.8,11.7,13.5,20c0.5-6.1,3.2-11.9,7.5-15.9C579.6,227.3,575.4,236.7,569.6,243.1
			L569.6,243.1z"/>
	</g>
	<g>
		<path class="st3" d="M825.8,330.5c-3.8-5.9-5.3-13.4-4.1-20.4c4.2,3.7,7,9.4,7.3,15.2c0.2-3.6,1.9-6.8,4.1-9.6
			c2.2-2.8,4.8-5.1,7.5-7.4c-0.1,7.3-3.3,14.4-8.4,19.2c4.5-2.1,9.6-2.3,14.2-0.4C841,332.1,832.7,332.5,825.8,330.5L825.8,330.5z"
			/>
	</g>
	<g>
		<path class="st3" d="M667.4,214.5c-3.4-4-5.3-9.5-5.2-15c0.1-5.4,2.3-10.8,5.9-14.6C671,194.2,668.5,204.8,667.4,214.5
			L667.4,214.5z"/>
	</g>
	<g>
		<path class="st3" d="M787.1,282.6c-1.6-5.2-1.2-11,1.1-15.9c2.2-4.9,6.3-8.8,11-10.7C798.2,265.7,791.8,274.2,787.1,282.6z"/>
	</g>
</g>
<g>
	<g>
		<g>
			<path class="st6" d="M494.6,863.9c-5.9,12.3-18,23.7-28.7,32.1c-5.3-0.1-10.6-0.2-15.9-0.2c-47.5-0.3-95,2.6-142.2,8.5
				c-3,0.4-5.9,0.7-8.9,1.1c-11-8.6-24.8-15.4-37.9-20.2c-7-2.5-14.3-4.5-20.4-8.7c-6.1-4.2-10.9-11.3-10-18.7
				c0.9-6.9,6.7-12.4,13.3-14.6c6.6-2.2,13.8-1.7,20.6-0.4c19.6,3.7,38,13.4,52.3,27.4c-11.7-12-22.7-24.7-34.5-36.6
				c-4-4.1-8.1-8.2-10.8-13.3c-2.7-5.1-3.7-11.4-1.4-16.6c3.2-7.3,11.9-10.7,19.9-11c16-0.7,31.2,7.8,42.4,19.2
				c11.2,11.5,18.9,25.8,26.5,40c-2.3-11.4-0.1-23.5,6.4-33.1c2.5-3.7,6-7.2,10.5-7.8c5.3-0.7,10.2,3.1,13.6,7.2
				c7.1,8.6,10.9,20,10.2,31.2c2.6-21.2,12.8-41.3,27.8-56.5c3.5-3.6,7.4-6.9,12.1-8.9c4.6-1.9,10.1-2.3,14.6,0.1
				c6.8,3.6,9.2,12.2,10,19.8c2.2,18.9-0.7,38.4-8.3,55.9c7.4-8,17.7-13,28.5-14.5c3.3-0.5,7-0.5,9.6,1.5
				C498.8,850.7,497.2,858.4,494.6,863.9z"/>
			<g>
				<path class="st3" d="M470.1,870.2c-0.5,1.8-1.8,3.4-3,4.9c-5.7,6.9-11.4,13.8-17.2,20.8c-47.5-0.3-95,2.6-142.2,8.5
					c-6.7-6.9-13.3-13.9-20-20.8c-2.4-2.5-4.9-5.8-3.6-8.9c1.2-3,5.2-3.7,8.4-3.7c13.8,0.2,27.4,5.3,37.9,14.3
					c-6.5-14.7-11.4-29.7-18-44.4c-0.9-2-1.8-4.2-1.3-6.4c0.7-3.1,4.1-4.9,7.2-4.7c3.1,0.1,6,1.8,8.6,3.4
					c16.1,10.4,29.3,25.3,37.6,42.6c1.3-6.4,3.9-12.2,5.2-18.6c0.6-3,1.4-6.2,3.9-8c2.1-1.5,4.9-1.6,7.3-0.7
					c2.4,0.9,4.4,2.6,6.1,4.5c5.8,6.4,9,15.1,8.7,23.8c4.2-13.7,10.9-26.8,19-38.6c2-3,4.2-5.9,7.1-8c2.9-2.1,6.7-3.2,10.2-2.2
					c4.5,1.3,7.3,5.7,9.1,10c5.3,12.3,6,26.5,2,39.3c5.4-5.5,12-9.4,19.2-12.1c2-0.8,4.4-1.4,6.2-0.1
					C470.3,866.1,470.7,868.4,470.1,870.2z"/>
			</g>
		</g>
		<g>
			<path class="st6" d="M1228.2,871.4c-7.3,11.3-20.6,21-32.1,27.9c-5.2-0.8-10.4-1.5-15.5-2.2c-46.6-6.2-93.5-9.4-140.4-9.5
				c-2.9,0-5.9,0-8.8,0c-9.8-9.8-22.4-18.2-34.6-24.6c-6.5-3.3-13.4-6.2-18.9-11.1c-5.5-4.9-9.3-12.5-7.4-19.6
				c1.7-6.7,8.1-11.3,14.9-12.7c6.7-1.4,13.7,0.1,20.2,2.2c18.8,6.1,35.6,17.9,47.9,33.4c-9.9-13.2-19.2-27-29.2-40.2
				c-3.4-4.5-6.9-9.1-8.9-14.4c-2-5.3-2.2-11.6,0.7-16.5c4.1-6.8,13-9,20.8-8.3c15.7,1.3,29.7,11.5,39.2,24.2
				c9.5,12.7,15.3,27.7,21,42.5c-0.9-11.5,2.8-23.1,10.4-31.7c3-3.3,6.8-6.3,11.2-6.3c5.3,0,9.6,4.3,12.4,8.8
				c5.9,9.4,8.1,21,6.1,31.9c5.2-20.4,17.7-38.9,34.2-51.9c3.9-3.1,8.2-5.9,13-7.2c4.8-1.3,10.2-1,14.3,1.9
				c6.2,4.4,7.5,13.1,7.4,20.7c-0.2,18.8-5.5,37.6-15.1,53.7c8.3-6.9,19-10.5,29.7-10.6c3.3-0.1,6.9,0.4,9.2,2.7
				C1234,859,1231.5,866.4,1228.2,871.4L1228.2,871.4z"/>
			<g>
				<path class="st3" d="M1203.4,874.5c-0.8,1.8-2.2,3.1-3.5,4.4c-6.5,6.1-12.9,12.1-19.4,18.2c-46.6-6.2-93.5-9.4-140.4-9.5
					c-5.7-7.6-11.3-15.3-17-22.9c-2-2.7-4.1-6.3-2.4-9.2c1.6-2.8,5.5-3,8.7-2.5c13.5,1.9,26.2,8.7,35.3,18.8
					c-4.6-15.2-7.5-30.6-12.1-45.8c-0.6-2.1-1.2-4.3-0.5-6.4c1-2.9,4.6-4.3,7.7-3.7c3,0.5,5.6,2.5,8,4.5
					c14.5,12.2,25.6,28.5,31.6,46.5c2.1-6.1,5.3-11.5,7.4-17.6c1-2.9,2.2-5.9,4.8-7.4c2.2-1.2,5-1,7.3,0.2c2.3,1.2,4,3.1,5.4,5.2
					c4.9,7,6.9,16,5.5,24.4c5.8-12.9,14-24.9,23.4-35.4c2.3-2.7,4.9-5.3,8-7c3.1-1.7,7-2.3,10.2-0.9c4.2,1.8,6.4,6.5,7.7,11
					c3.7,12.7,2.6,26.8-2.9,38.8c6-4.7,12.9-7.7,20.3-9.5c2.1-0.5,4.5-0.8,6.1,0.7C1204,870.5,1204.1,872.8,1203.4,874.5
					L1203.4,874.5z"/>
			</g>
		</g>
		<g>
			<path class="st6" d="M1962.1,920.6c-7.3,11.3-20.6,21-32.1,27.9c-5.2-0.8-10.4-1.5-15.5-2.2c-46.6-6.2-93.5-9.4-140.4-9.5
				c-2.9,0-5.9,0-8.8,0c-9.8-9.8-22.4-18.2-34.6-24.6c-6.5-3.3-13.4-6.2-18.9-11.1c-5.5-4.9-9.3-12.5-7.4-19.6
				c1.7-6.7,8.1-11.3,14.9-12.7c6.7-1.4,13.7,0.1,20.2,2.2c18.8,6.1,35.6,17.9,47.9,33.4c-9.9-13.2-19.2-27-29.2-40.2
				c-3.4-4.5-6.9-9.1-8.9-14.4c-2-5.3-2.2-11.6,0.7-16.5c4.1-6.8,13-9,20.8-8.3c15.7,1.3,29.7,11.5,39.2,24.2
				c9.5,12.7,15.3,27.7,21,42.5c-0.9-11.5,2.8-23.1,10.4-31.7c3-3.3,6.8-6.3,11.2-6.3c5.3,0,9.6,4.3,12.4,8.8
				c5.9,9.4,8.1,21,6.1,31.9c5.2-20.4,17.7-38.9,34.2-51.9c3.9-3.1,8.2-5.9,13-7.2c4.8-1.3,10.2-1,14.3,1.9
				c6.2,4.4,7.5,13.1,7.4,20.7c-0.2,18.8-5.5,37.6-15.1,53.7c8.3-6.9,19-10.5,29.7-10.6c3.3-0.1,6.9,0.4,9.2,2.7
				C1967.9,908.1,1965.4,915.5,1962.1,920.6L1962.1,920.6z"/>
			<g>
				<path class="st3" d="M1937.4,923.7c-0.8,1.8-2.2,3.1-3.5,4.4c-6.5,6.1-12.9,12.1-19.4,18.2c-46.6-6.2-93.5-9.4-140.4-9.5
					c-5.7-7.6-11.3-15.3-17-22.9c-2-2.7-4.1-6.3-2.4-9.2c1.6-2.8,5.5-3,8.7-2.5c13.5,1.9,26.2,8.7,35.3,18.8
					c-4.6-15.2-7.5-30.6-12.1-45.8c-0.6-2.1-1.2-4.3-0.5-6.4c1-2.9,4.6-4.3,7.7-3.7c3,0.5,5.6,2.5,8,4.5
					c14.5,12.2,25.6,28.5,31.6,46.5c2.1-6.1,5.3-11.5,7.4-17.6c1-2.9,2.2-5.9,4.8-7.4c2.2-1.2,5-1,7.3,0.2c2.3,1.2,4,3.1,5.4,5.2
					c4.9,7,6.9,16,5.5,24.4c5.8-12.9,14-24.9,23.4-35.4c2.3-2.7,4.9-5.3,8-7c3.1-1.7,7-2.3,10.2-0.9c4.2,1.8,6.4,6.5,7.7,11
					c3.7,12.7,2.6,26.8-2.9,38.8c6-4.7,12.9-7.7,20.3-9.5c2.1-0.5,4.5-0.8,6.1,0.7C1938,919.7,1938.1,921.9,1937.4,923.7
					L1937.4,923.7z"/>
			</g>
		</g>
		<g>
			<path class="st6" d="M667.6,849.3c-0.1,4.5-2.4,8.8-5,12.5c-5.2,7.6-14.4,12.8-21.6,18.5c-3.1,0-6.3,0.1-9.4,0.3
				c-9.7,0.4-19.5,1.2-29.1,2.4c-2.9,0.4-5.8,0.8-8.8,1.2c-12.2-4.5-24.9-9.8-37.1-14.3c-2.2-0.8-4.4-1.6-6.2-3
				c-1.8-1.4-3.3-3.6-3.2-5.9c0-4.1,4.3-6.9,8.2-8.1c11.4-3.7,24.5-1.4,34,6c-9.3-7.4-16.8-16.4-23.1-26.5
				c-2.3-3.6-4.3-7.4-5.1-11.6c-0.8-4.2-0.1-8.8,2.7-12c4.9-5.7,14.1-5,20.8-1.7c13.7,6.6,22.1,20.6,29.6,33.8
				c-0.5-14.3,0.3-29.5,7.9-41.6c3.4-5.3,8.8-10.2,15-9.6c3.9,0.4,7.5,2.9,9.7,6.2c2.3,3.3,3.4,7.2,4.3,11.1
				c2.9,13.8,1.7,28.4-3.5,41.5c1.4-2.4,3-4.8,5.1-6.6c2.1-1.8,4.9-2.9,7.6-2.5C664.8,839.9,667.7,844.8,667.6,849.3z"/>
			<g>
				<path class="st5" d="M652.6,859.2c-0.1,1.7-1.4,3-2.6,4.1l-18.4,17.2c-9.7,0.4-19.5,1.2-29.1,2.4c-9.3-4.3-18.6-8.6-27.8-12.9
					c-1.9-0.9-4-2.2-3.9-4.2c0-1.2,0.9-2.3,2-2.8c1.1-0.6,2.3-0.7,3.5-0.8c9.8-0.6,19.7,2.4,27.6,8.2c-6.6-10.1-12.7-20.3-19.3-30.3
					c-1.5-2.3-3.1-5.2-1.9-7.7c0.9-1.9,3-2.8,5.1-3c4.4-0.3,8.4,2.2,11.9,4.9c9.5,7.3,17.6,16.4,23.7,26.7
					c0.5-11.2,2.5-22.7,5.2-33.5c0.5-2.1,1.1-4.2,2.3-5.9c1.2-1.7,3.3-3,5.4-2.8c3.6,0.4,5.4,4.7,5.9,8.3
					c1.8,12.2-1.6,24.5-4.9,36.4c1.9-1.3,3.2-3.4,4.8-5c1.6-1.6,3.6-3.1,5.9-3.2C650.2,855.2,652.7,857,652.6,859.2z"/>
			</g>
		</g>
		<g>
			<path class="st6" d="M140,891.8c-0.1,4.5-2.4,8.8-5,12.5c-5.2,7.6-14.4,12.8-21.6,18.5c-3.1,0-6.3,0.1-9.4,0.3
				c-9.7,0.4-19.5,1.2-29.1,2.4c-2.9,0.4-5.8,0.8-8.8,1.2c-12.2-4.5-24.9-9.8-37.1-14.3c-2.2-0.8-4.4-1.6-6.2-3
				c-1.8-1.4-3.3-3.6-3.2-5.9c0-4.1,4.3-6.9,8.2-8.1c11.4-3.7,24.5-1.4,34,6c-9.3-7.4-16.8-16.4-23.1-26.5
				c-2.3-3.6-4.3-7.4-5.1-11.6c-0.8-4.2-0.1-8.8,2.7-12c4.9-5.7,14.1-5,20.8-1.7C70.6,856,79,870,86.6,883.3
				c-0.5-14.3,0.3-29.5,7.9-41.6c3.4-5.3,8.8-10.2,15-9.6c3.9,0.4,7.5,2.9,9.7,6.2c2.3,3.3,3.4,7.2,4.3,11.1
				c2.9,13.8,1.7,28.4-3.5,41.5c1.4-2.4,3-4.8,5.1-6.6c2.1-1.8,4.9-2.9,7.6-2.5C137.2,882.3,140.1,887.2,140,891.8z"/>
			<g>
				<path class="st3" d="M125,901.7c-0.1,1.7-1.4,3-2.6,4.1L104,923c-9.7,0.4-19.5,1.2-29.1,2.4c-9.3-4.3-18.6-8.6-27.8-12.9
					c-1.9-0.9-4-2.2-3.9-4.2c0-1.2,0.9-2.3,2-2.8c1.1-0.6,2.3-0.7,3.5-0.8c9.8-0.6,19.7,2.4,27.6,8.2c-6.6-10.1-12.7-20.3-19.3-30.3
					c-1.5-2.3-3.1-5.2-1.9-7.7c0.9-1.9,3-2.8,5.1-3c4.4-0.3,8.4,2.2,11.9,4.9c9.5,7.3,17.6,16.4,23.7,26.7
					c0.5-11.2,2.5-22.7,5.2-33.5c0.5-2.1,1.1-4.2,2.3-5.9c1.2-1.7,3.3-3,5.4-2.8c3.6,0.4,5.4,4.7,5.9,8.3
					c1.8,12.2-1.6,24.5-4.9,36.4c1.9-1.3,3.2-3.4,4.8-5c1.6-1.6,3.6-3.1,5.9-3.2C122.6,897.6,125.1,899.4,125,901.7z"/>
			</g>
		</g>
		<g>
			<path class="st6" d="M1654,888.9c-0.8,4.5-3.8,8.2-6.9,11.5c-6.4,6.7-16.3,10.3-24.4,14.6c-3.1-0.5-6.2-0.9-9.3-1.3
				c-9.7-1.3-19.4-2.1-29.1-2.5c-2.9-0.1-5.9-0.2-8.8-0.3c-11.2-6.5-23-13.8-34.2-20.3c-2-1.2-4.1-2.3-5.6-4
				c-1.6-1.7-2.6-4.1-2.2-6.4c0.7-4.1,5.3-6.1,9.4-6.7c11.9-1.7,24.4,2.7,32.6,11.6c-8-8.8-13.9-19-18.4-30c-1.6-3.9-3-8-3.1-12.3
				c-0.1-4.3,1.4-8.7,4.6-11.4c5.8-4.8,14.7-2.6,20.8,1.8c12.4,8.8,18.4,24,23.6,38.3c1.9-14.2,5.2-29.1,14.7-39.7
				c4.2-4.7,10.4-8.6,16.4-7c3.8,1,6.9,4.1,8.6,7.7c1.7,3.6,2.2,7.6,2.4,11.6c0.6,14.1-3,28.3-10.3,40.3c1.7-2.1,3.7-4.3,6.1-5.7
				c2.3-1.4,5.3-2.1,7.9-1.2C1652.9,879.1,1654.9,884.3,1654,888.9L1654,888.9z"/>
			<g>
				<path class="st3" d="M1637.6,896.1c-0.3,1.6-1.8,2.7-3.2,3.6c-7,4.6-14,9.3-21,13.9c-9.7-1.3-19.4-2.1-29.1-2.5
					c-8.4-5.8-16.9-11.5-25.3-17.3c-1.7-1.2-3.6-2.8-3.2-4.8c0.2-1.2,1.3-2.1,2.5-2.4c1.2-0.4,2.4-0.3,3.6-0.2
					c9.7,1.1,19,5.6,25.8,12.7c-4.8-11-9.2-22.1-14.1-33.1c-1.1-2.5-2.2-5.6-0.6-7.9c1.2-1.7,3.4-2.3,5.5-2.1
					c4.4,0.4,7.9,3.6,10.9,6.8c8.2,8.8,14.6,19.1,19,30.2c2.3-11,6.2-21.9,10.7-32.2c0.9-2,1.8-3.9,3.3-5.4c1.5-1.5,3.8-2.4,5.8-1.8
					c3.5,1,4.5,5.5,4.4,9.2c-0.3,12.3-5.6,23.9-10.8,35.1c2.1-1,3.7-2.8,5.5-4.1c1.8-1.3,4.1-2.4,6.3-2.2
					C1635.9,891.8,1638,893.9,1637.6,896.1L1637.6,896.1z"/>
			</g>
		</g>
		<g>
			<path class="st6" d="M955.4,844.3c-4.1,13.1-25.1,20.1-31.3,32.4h-8.7c-41.7,0-83.3,0-125,0h-7.8c-4.1-3.1-10.6-5.8-14.7-8.9
				c-2.8-2.1-6-5.3-4.8-8.7c0.9-2.7,4.2-3.7,7-3.9c5.9-0.3,11.9,1.6,16.5,5.4c-8-7.9-14.4-16.6-20.6-26c-3.2-4.8-6.2-10.2-5.2-15.9
				c1.3-7.9,10.1-12.4,18-13c11.5-0.8,22.9,4.1,31.7,11.5c8.9,7.4,15.6,17.1,21.4,27.1c-1.2-6.1,3.7-12,9.9-12.3
				c6.2-0.2,11.9,5.9,11.2,12.1c2.8-16.4,13.9-31.3,28.2-39.7c2.8-1.6,5.7-3,8.9-3.4c3.2-0.3,6.6,0.6,8.8,3
				c2.4,2.7,2.7,6.6,2.6,10.3c-0.3,11.3-3.2,22.5-8.6,32.4c2.4-2.9,7-4.2,10.6-2.6c4.4,1.9,6.4,8,4,12.2c7.9-10,19.2-17.5,30.5-23.4
				c4.4-2.3,9.8-4.2,14-1.6C955.9,833.9,956.8,839.7,955.4,844.3z"/>
			<g>
				<path class="st3" d="M934.9,854.9c-0.9,2-2.6,3.6-4.2,5c-5.6,5.1-10.7,10.7-15.3,16.8c-41.7,0-83.3,0-125,0
					c-1.5-1.8-2.9-3.5-4.4-5.3c-0.8-0.9-1.6-2-1.5-3.2c0.1-1.9,2.4-2.9,4.3-3.2c5.2-0.7,10.7,0.7,14.9,3.9
					c-5.9-7.8-11.9-15.8-14.7-25.2c-1-3.4-1.3-7.6,1.4-10c3.1-2.7,7.9-0.9,11.4,1.2c12.2,7.3,22.4,18,29.1,30.6
					c-1.5-5.2,0.6-10.7,5.1-13.8c4.4-3,10.8-2.9,15,0.4c3.5,2.7,5.4,7.2,5,11.6c2.4-10.5,8.2-21.3,15.8-28.7
					c1.4-1.4,2.9-2.7,4.8-3.4c1.8-0.7,4-0.8,5.7,0.3c2.5,1.6,2.9,5,2.9,8c0.1,9.5-1.8,19.1-5.4,27.9c2.4-3.4,5-6,8.4-8.4
					c2.3-1.6,5.2-2.9,7.7-1.7c2,1,3,3.4,3,5.7c0,2.3-0.9,4.4-1.8,6.5c9.4-7.6,19.1-14,29.7-19.8c2.1-1.2,4.8-2.3,6.8-1
					C935.4,850.1,935.8,852.9,934.9,854.9z"/>
			</g>
		</g>
		<g>
			<path class="st6" d="M1487.4,873.3c-5.2,12.7-26.8,17.8-34.1,29.4l-8.7-0.8c-41.5-3.8-83-7.7-124.4-11.5l-7.8-0.7
				c-3.8-3.5-10-6.7-13.8-10.2c-2.6-2.4-5.5-5.8-4-9.1c1.2-2.6,4.5-3.3,7.3-3.2c5.9,0.2,11.7,2.7,15.9,6.8
				c-7.2-8.6-12.8-17.9-18.2-27.7c-2.7-5-5.2-10.8-3.8-16.3c2.1-7.8,11.2-11.5,19.2-11.3c11.5,0.2,22.4,6.2,30.6,14.4
				c8.2,8.2,13.9,18.4,18.8,28.9c-0.6-6.2,4.8-11.6,11-11.3c6.2,0.3,11.3,7,10,13.1c4.3-16.1,16.7-29.9,31.7-36.9
				c2.9-1.4,6-2.5,9.2-2.5c3.2,0,6.6,1.2,8.5,3.8c2.1,2.9,2.1,6.9,1.7,10.4c-1.3,11.2-5.3,22.1-11.5,31.5c2.7-2.7,7.4-3.5,10.7-1.7
				c4.2,2.3,5.7,8.6,2.9,12.5c8.8-9.3,20.7-15.7,32.5-20.5c4.6-1.9,10.1-3.3,14.1-0.3C1488.9,863,1489.2,868.9,1487.4,873.3z"/>
			<g>
				<path class="st3" d="M1466.1,882c-1,1.9-2.9,3.3-4.6,4.6c-6,4.6-11.7,9.7-16.8,15.3c-41.5-3.8-83-7.7-124.4-11.5
					c-1.3-1.9-2.6-3.8-3.9-5.7c-0.7-1-1.4-2.1-1.2-3.3c0.3-1.9,2.7-2.7,4.6-2.8c5.2-0.2,10.6,1.7,14.4,5.3
					c-5.2-8.3-10.4-16.9-12.3-26.5c-0.7-3.5-0.6-7.7,2.3-9.8c3.3-2.4,7.9-0.2,11.2,2.2c11.5,8.4,20.6,20,26.2,33.1
					c-1-5.3,1.6-10.7,6.3-13.2c4.7-2.6,11-1.9,14.9,1.8c3.2,3,4.7,7.7,3.9,12c3.4-10.2,10.2-20.5,18.3-27.1c1.5-1.2,3.2-2.4,5.1-3
					c1.9-0.6,4.1-0.4,5.6,0.8c2.3,1.8,2.4,5.3,2.2,8.2c-0.8,9.5-3.5,18.8-7.9,27.3c2.7-3.2,5.5-5.6,9.2-7.6c2.4-1.4,5.5-2.4,7.9-1
					c1.9,1.2,2.7,3.7,2.5,5.9c-0.2,2.2-1.3,4.3-2.4,6.3c10-6.8,20.3-12.2,31.4-17c2.2-1,5-1.8,6.9-0.3
					C1466.9,877.3,1467,880.1,1466.1,882L1466.1,882z"/>
			</g>
		</g>
		<path class="st7" d="M1923.3,955.8v124.1H-4.2c0-38.2,2-81.3,2.8-121.7c0.2-11,0.4-21.8,0.4-32.3c637.2-71.8,1289-66.3,1924,16.2
			C1923,947.2,1923.3,950.7,1923.3,955.8z"/>
		<g>
			<path class="st8" d="M1923.3,955.8v6.2c-1,0.5-2.1,0.9-3.2,1.3c-42.7,14.6-92.3,12.6-137.6,3.9c-45.3-8.8-88.2-23.9-132.5-35.2
				c-44.4-11.3-97.7-29.4-140.7-15.1c-105.3,34.9-153.9,26.8-231.5,13.9c-77.6-13-155.5-32.9-234.5-26.6c-95,7.6-178.9,52-273,64.6
				c-98.3,13.1-197.9-9.5-294.5-28.9c-96.6-19.4-200.3-35.6-294.5-10.3c-33.2,8.9-64.1,22.8-97.9,30.3c-27.6,6.1-59,7.4-84.8-1.5
				c0.2-11,0.4-21.8,0.4-32.3c637.2-71.8,1289-66.3,1924,16.2C1923,947.2,1923.3,950.7,1923.3,955.8z"/>
		</g>
	</g>
</g>
<g>
	<path class="st9" d="M901.7,549c-1.6-1.7-3.5-3.2-4.6-5.2c-1.6-2.9-1.4-6.3-1.8-9.6c-0.8-8.4-5.1-16-9.3-23.4
		c-2.4-4.3-5.3-8.9-10-10.6c-3-1.1-6.4-0.7-9.5-1.4c-4.6-1.1-8.4-4.6-12.8-6.3c-8.5-3.3-16.3-0.9-21.5,0.8
		c-5.2,1.6-8.7,6.3-10.2,10.3c-1.5,4-2.5,8.5-5.6,11.4c-3.8,3.5-10.1,4-13,8.3c-2.1,3.1-1.7,7.2-1.5,10.9s0.2,7.9-2.4,10.6
		c-2.1,2.2-5.6,2.9-7.4,5.3c-2.7,3.5-0.3,9.1,3.7,11.1c4,1.9,8.8,1.1,13-0.4c4.3-1.6,9.1-4,13.2-2c2.5,1.2,4.1,3.7,6.5,5
		c3.4,1.9,7.7,0.9,11.4-0.6c3.6-1.5,7.2-3.5,11.1-3.5c7.7-0.1,14.4,7,22,5.7c4-0.7,7.3-3.8,11.4-4.6c3.8-0.8,7.6,0.4,11.5,0.3
		c3.9,0,8.3-2.1,8.7-5.9C904.7,552.8,903.3,550.7,901.7,549L901.7,549z"/>
	<path class="st10" d="M837.3,593.6c-1.8-6.5-8.5-10.2-15-8.4l-0.6,0.2c-0.6,0.2-1.2,0.4-1.8,0.6c-0.7,0.3-0.9,0.4-1.2,0.5l-0.9,0.4
		c-1,0.5-1.9,0.9-2.7,1.4c-1.6,0.9-3.1,1.8-4.6,2.7c-2.9,1.8-5.7,3.6-8.5,5.3c-5.5,3.6-10.8,7.3-16.1,11
		c-10.3,7.1-20.4,14.4-30.5,21.5c-4.7,1.3-9.3,2.7-13.9,4.3c-2.7,0.9-5.4,1.8-8.1,2.8l-8.1,2.8c-5.4,1.9-10.7,3.8-16.2,5.4
		c-1.4,0.4-2.7,0.9-4.1,1.2c-1.4,0.3-2.8,0.4-4.3,0.4c-1.4,0.1-2.9,0.2-4.2,0.6c-1.4,0.5-2.7,1.1-3.8,2.3c-2.1,2.2-2,5.7,0.2,7.7
		c0.5,0.5,1.1,0.9,1.8,1.1c1.6,0.6,3,0.6,4.4,0.4c1.4-0.2,2.7-0.7,4.1-1.2c1.3-0.6,2.6-1.2,4-1.5c1.4-0.3,2.8-0.4,4.2-0.6
		c5.6-0.8,11.3-1.4,16.9-2l8.5-0.9c2.8-0.3,5.7-0.6,8.5-0.9c5.6-0.7,11.2-1.6,16.8-2.5c0.9-0.1,1.7-0.4,2.4-0.9l0.9-0.5
		c5.6-3.3,11.2-6.6,16.7-10c5.5-3.4,11-6.8,16.4-10.2l16.3-10.1c2.7-1.7,5.4-3.3,8-4.8l3.8-2.1c0.6-0.3,1.1-0.6,1.6-0.8l0.2-0.1
		c0,0,0,0,0.1,0h0.1C835.3,606.8,839.1,600.1,837.3,593.6L837.3,593.6z M828.6,608.6c-0.2,0.1-0.5,0.1-0.6,0.2L828.6,608.6
		L828.6,608.6C828.7,608.6,828.6,608.6,828.6,608.6L828.6,608.6z"/>
	<path class="st10" d="M880.9,582.1c-14.6-0.2-19.2-9.7-20.7-17.4H851l-0.1,0.1l-12.7,0.4c0,0,2.3,16.8-16.7,17.4
		c-2.9,0.1-9.1,19.4-9.1,19.4h87.2C899.5,602,887.9,582.2,880.9,582.1L880.9,582.1z"/>
	<path class="st9" d="M838.3,932.4l1.3,15.9c0,4.6-3.8,8.2-8.3,8.2l-27.4-0.2c-2.4,0-4-2.4-3.2-4.6c0.5-1.3,1.7-2.2,3.1-2.2l2.5,0
		c8.6-0.1,17.3-6,19.1-14.4L838.3,932.4z"/>
	<path class="st10" d="M849.4,695.7c-11.1-3.9-23-0.5-30.6,7.6c-3.3,14.1-5,28.3-4.8,42.9c0,1.3-0.4,2.2-1.2,2.9
		c0.2,3.1,0.3,6.4,0.5,9.9c0.2,5,0.5,10.4,0.6,16.1c0.2,5.7,0.4,11.8,0.5,18c0.1,6.2,0.3,12.7,0.4,19.3c0.1,3.3,0.1,6.7,0.2,10
		l0.1,5.6c0,1,0.1,1.7,0.2,2.5l0,0.6v0.1c0,0,0,0.8,0,0.5v0.2l0.1,0.4l0.2,1.6c0.5,4.1,1.1,7.5,1.6,10.9c0.5,3.4,0.9,6.6,1.3,9.8
		c0.7,6.4,1.1,12.5,1.7,18c0.1,1.3,0.3,2.6,0.4,3.9c0.1,1.4,0.2,2.8,0.3,4.2c0.2,2.8,0.4,5.7,0.5,8.4c0.2,5.5,0.6,10.9,0.8,15.8
		c0.3,4.9,0.6,9.4,0.9,13.4c0.3,4,0.6,7.5,0.9,10.4c0.6,5.8,1,9.1,1,9.1c0.5,3.6,3.8,6.1,7.4,5.6c2.7-0.4,4.8-2.4,5.5-4.9
		c0,0,0.8-3.3,2-9c0.5-2.9,1.2-6.3,1.9-10.3c0.7-4,1.3-8.5,2-13.5c0.6-4.9,1.3-10.3,1.8-16.1c0.2-2.9,0.5-5.8,0.7-8.9l0.1-1.2l0-1.4
		l0.1-2.3c0-1.6,0-3.7-0.2-5.3c-0.4-6.7-1.7-13.2-2.9-19.7c-0.6-3.2-1.1-6.4-1.5-9.5c-0.4-3.1-0.6-6.2-0.4-8.7l0.1-0.8v-0.2l0-0.1
		c0-0.4,0,0.4,0,0.3v-0.1l0.1-0.6c0.1-0.8,0.2-1.7,0.4-2.4l0.9-4.2c0.6-3.2,1.3-6.3,1.9-9.4c1.3-6.3,2.8-12.5,4.2-18.5
		c1.4-6,2.9-11.8,4.3-17.3c1.4-5.5,2.8-10.7,4.1-15.5c2.6-9.6,5-17.6,6.8-23.1c0.9-2.8,1.6-4.9,2.1-6.4c0.5-1.4,0.8-2.2,0.8-2.2
		C872.2,717.3,864.3,701,849.4,695.7L849.4,695.7z"/>
	<path class="st9" d="M893.4,933.1l1.3,14.6c0.1,4.6-3.6,8.3-8.2,8.3l-27.4,0.3c-2.4,0-4.1-2.3-3.3-4.6c0.5-1.3,1.7-2.2,3.1-2.2
		l2.5-0.1c8.6-0.3,16.8-6.4,18.4-14.8L893.4,933.1L893.4,933.1z"/>
	<path class="st10" d="M896.4,879.1l-0.1-1.2l-0.3-3.6c-0.2-1.6-0.4-3.5-0.7-5.1c-1-6.5-2.9-12.7-4.5-19c-0.9-3.1-1.6-6.2-2.2-9.3
		c-0.6-3.1-1.1-6.2-1.1-8.8c0.1-6.4,0.2-12.8,0.4-19.1c0.1-6.5,0.4-12.9,0.6-19c0.2-6.2,0.6-12.1,0.9-17.8c0.1-1.4,0.2-2.8,0.2-4.2
		h-41.3c0.6,2.4,1.1,4.9,1.7,7.4c1.3,5.6,2.6,11.4,3.9,17.5c1.3,6.1,2.7,12.3,3.9,18.7c1.3,6.5,2.6,13.2,4,19.9
		c0.8,3.9,1.7,7.2,2.4,10.5c0.7,3.3,1.4,6.5,2,9.7c1.2,6.3,2.2,12.5,3.4,18.1c0.3,1.3,0.6,2.6,0.8,3.9c0.3,1.4,0.5,2.7,0.8,4.1
		c0.5,2.7,0.9,5.5,1.3,8.1c0.8,5.5,1.6,10.7,2.3,15.4c1.4,9.6,2.8,17.7,3.8,23.4c1,5.7,1.8,8.9,1.8,8.9c1.6,3.6,4.1,5.8,7.7,5.1
		c2.7-0.6,4.6-2.7,5-5.2c0,0,0.6-3.3,1.3-9.1c0.3-2.9,0.7-6.4,1.1-10.5c0.4-4,0.6-8.6,0.9-13.6c0.2-5,0.4-10.4,0.3-16.3
		C896.6,885.3,896.6,882.2,896.4,879.1z"/>
	<path class="st11" d="M897.5,587.6c-9-6.7-21.1-6-21.1-6s-5.4,15-24.9,15.2c-19.5-0.2-24.9-15.2-24.9-15.2s-9.9-1.1-17.9,6.8
		c-8,7.9-15.5,13.6-15.5,13.6l13.4,20l12.2-7.5c0,0-2.6,8.4-0.7,14.2c1.9,5.8,6.7,35.9,4.9,48.5c0,0,7.3,8.7,28.6,8.7
		c21.2,0,34.9-7.3,34.9-7.3c-1.8-12.6,4.1-61.9,4.1-61.9l7.6,3.7l10.8-24.5C908.9,596,901.5,590.7,897.5,587.6L897.5,587.6z"/>
	<path class="st12" d="M822.5,677.7c-1.6-0.6-11,37.3-11.1,82.4c-0.1,44.4,0,65,3.2,78.7S822,916,822,916s15.9,4.2,23.4,0.5
		c0,0,4.2-58.1-1.6-79.8l7.4-46l23.9,123.6c0,0,17,4.8,23.4,0.5c0,0,0.5-35.9-4.8-65c-5.3-29.1-4.2-46.5-1.6-77.7
		c2.6-31.2,16.4-60-5.6-93.7C886.4,678.7,857.6,690.4,822.5,677.7z"/>
	<path class="st10" d="M947.1,633.6c-0.7-2.1-1.6-3.9-2.5-5.5c-1.9-3.1-3.8-5.6-5.8-7.9c-3.9-4.5-8-8.1-12-11.4
		c-4-3.3-16.2-10.8-18.1-12.1c-3.6,7.9-6.9,14.7-10,22.8c4.1,2.5,8.9,5.7,13.1,8.6c3.6,2.5,7.1,5.3,10.1,8c1.5,1.4,2.7,2.8,3.6,3.9
		c0.4,0.6,0.7,1.1,0.9,1.3c0.2,0.3,0.1,0.2,0.2-0.2c0.2,0.2,0,2.1-0.6,3.9c-0.5,1.9-1.2,4-2.1,6c-1.7,4.2-3.6,8.5-5.7,12.6
		c-2.1,4.1-4.3,8.1-6.4,11.8c-2.1,3.7-4.3,7.2-6.4,10.4c-1.1,1.6-2.1,3.1-3,4.5c-0.9,1.4-1.9,2.8-3,3.9c-2.2,2.2-4.4,3.9-5.7,5.6
		c-1.4,1.7-2.2,3.2-2.7,4.4c-0.5,1.1-0.5,1.9-0.5,1.9l0,0.3c-0.1,0.8,0,1.5,0.3,2.3c1,3.1,4.3,4.8,7.4,3.8c0,0,0.8-0.2,1.8-0.9
		c1.1-0.7,2.5-1.8,3.9-3.6c1.5-1.7,2.7-4.2,4.4-6.9c0.9-1.3,1.9-2.6,3.1-3.9c1.2-1.3,2.4-2.7,3.7-4.2c2.6-2.9,5.3-6.1,8.3-9.5
		c2.9-3.4,6-7,9.1-10.9c3.1-3.9,6.2-8.1,9.1-12.8c1.4-2.4,2.8-4.9,4.1-7.7c0.6-1.4,1.2-3,1.7-4.7c0.3-0.9,0.5-1.8,0.7-2.8l0.1-1
		l0.1-0.8l0.1-0.5l0-0.2c0,0.3,0-0.4,0-0.4v-0.4C948.4,638.3,947.8,635.7,947.1,633.6L947.1,633.6z"/>
	<path class="st13" d="M851.2,790.8c0,0-3-16.8-4.4-35c-1.2-15.8-2.2-31.7-6.9-35.7c0,0,9.2,75.8,8,90.9L851.2,790.8z"/>
	<path class="st14" d="M838.3,567.5c-0.4,1.5-0.7,5.6-1.6,7.2c7.3,8.6,19,7.5,25.9-2.7c-0.6-0.9-0.7-5.4-0.7-5.4L838.3,567.5
		L838.3,567.5z"/>
	<path class="st10" d="M822.4,525.9c1.6-16.9,14-26.7,26.3-26.5c12.2,0.2,24.4,10.3,25.6,27.3c0.7,10-1.5,20.7-3.1,26.8
		c-0.9,3.7-2.7,7-5.1,9.6c-5.5,6-12.7,10.8-18.4,10.7c-5.7-0.1-12.7-5.1-18.1-11.3c-2.4-2.7-4-6.1-4.9-9.8
		C823.4,546.6,821.4,535.8,822.4,525.9L822.4,525.9z"/>
	<path class="st9" d="M836.2,539.6c0,1.3-1,2.3-2.3,2.3c-1.3,0-2.3-1-2.3-2.3c0-1.3,1-2.3,2.3-2.3
		C835.2,537.3,836.2,538.3,836.2,539.6z"/>
	<path class="st15" d="M839,549.4c0,2.1-2.2,3.8-4.9,3.8c-2.7,0-4.9-1.7-4.9-3.8s2.2-3.8,4.9-3.8C836.8,545.6,839,547.3,839,549.4z"
		/>
	<path class="st9" d="M857.9,539.6c0,1.3,1,2.3,2.3,2.3c1.3,0,2.3-1,2.3-2.3c0-1.3-1-2.3-2.3-2.3C859,537.3,857.9,538.3,857.9,539.6
		z"/>
	<path class="st15" d="M855.1,549.4c0,2.1,2.2,3.8,4.9,3.8s4.9-1.7,4.9-3.8s-2.2-3.8-4.9-3.8S855.1,547.3,855.1,549.4z"/>
	<path class="st16" d="M853.8,556.2c0.9,0,1.6,1.1,1,1.8c-1.6,2.2-4.2,3.7-7.1,3.7c-3,0-5.5-1.4-7.1-3.6c-0.6-0.8-0.1-2,1-2H853.8z"
		/>
	<path class="st9" d="M866.9,528.3c0.7,0.2,1.5,0.1,2.2,0.4c1.8,0.7,2.2,3,2.2,4.9c-0.1,1.9-0.3,4,0.9,5.5c1.5,1.8,4.4,1.5,6.1-0.1
		c1.7-1.5,2.3-3.9,2.6-6.2c1.3-10.2-3.6-21-12.2-26.8c-2.3-1.5-8.7-4.1-10.4-0.2c-0.8,1.9,1.2,3.3,2.4,4.6c2,2.3,3.2,4.2,3.1,7.4
		C863.6,521,862.2,527.2,866.9,528.3L866.9,528.3z"/>
	<path class="st9" d="M851.8,518c-1.6,0.1-3.3,0-4.8,0.6c-2.1,0.9-3.3,3.2-4.6,5.1c-1.3,1.9-3.3,3.9-5.6,3.5c-1-0.2-1.9-0.7-2.9-0.8
		c-1.4-0.1-2.6,0.9-3.3,2c-0.7,1.1-1.1,2.4-1.7,3.6c-0.9,2-2.4,3.8-4.4,4.7c-2,0.9-4.5,0.8-6.3-0.6c-1.7-1.3-2.3-3.6-2.2-5.8
		c0.1-2.1,1-4.1,1.9-6.1c1.9-4.4,4.1-8.6,6.4-12.8c2.7-4.8,5.8-9.6,10.6-12.2c5.2-2.9,11.5-2.7,17.5-2.4c4.9,0.2,15.3,2.3,12.4,9.7
		c-0.9,2.2-3.4,5.1-4.9,7C857.9,515.9,855,517.7,851.8,518L851.8,518z"/>
	<path class="st17" d="M416.3,489.8c-6.5,7.1-4.4,18-5.4,27.5c-1.2,12.4-8.5,24-19.1,30.6c-4.7,2.9-10.1,5-13.6,9.2
		c-3.2,3.9-4.3,9.4-2.8,14.2c1.5,4.8,5.4,8.8,10.2,10.2c2.8,0.8,6,1,8.1,3c2.2,2.1,2.5,5.4,3.9,8.1c3.4,6.5,12.9,7.6,19.3,4
		c6.4-3.5,10.4-10.2,13.6-16.8c8.6-17.6,14-28.3,17-47.7c2.1-14,5.8-35-7.4-43.7C433.1,483.9,422.4,483.1,416.3,489.8L416.3,489.8z"
		/>
	<path class="st18" d="M414.5,498.5c10.4,0.1,20.6-2,30.8-1.6c-9.1-6.3-22.8-9.4-30,0.6c-0.3,0.4-0.6,0.7-1,1
		C414.4,498.5,414.5,498.5,414.5,498.5L414.5,498.5z"/>
	<path class="st18" d="M403,934.6l-0.4,12c-0.1,4.5,3.4,8.3,8,8.5l27.3,0.9c2.4,0.1,4.1-2.2,3.4-4.5c-0.4-1.3-1.6-2.2-3-2.3
		l-2.5-0.1c-8.5-0.4-15.6-6.7-17-15.1L403,934.6L403,934.6z"/>
	<path class="st18" d="M404.8,946.7c0,0-0.8-3.4-1.9-9.4c-0.5-3-1.2-6.6-1.9-10.8c-0.3-2.1-0.7-4.3-1-6.7c-0.3-2.4-0.6-4.8-1-7.4
		c-0.7-5.2-1.3-10.8-1.8-16.8c-0.5-6-0.9-12.3-0.8-19.4c-0.1-3.1,0.2-6.9,0.5-10.3c0.4-3.4,0.9-6.9,1.5-10.3
		c1.2-6.8,2.6-13.7,2.9-19.9c0-1.5,0.1-3-0.1-4.3l-0.1-0.9v-0.1c0-0.6,0-0.2,0-0.4v-0.2l0-0.3l0-0.7l0-3.3c-0.1-3.7,0-7.2,0-10.6
		c0-6.8,0-13.6,0-20.1c-0.1-13-0.3-25-0.8-35.3c-0.2-5.1-0.5-9.8-0.9-13.8c-0.3-4.1-0.7-7.5-1.1-10.2c-0.4-2.7-0.8-4.5-1.1-5
		c-0.1-0.1-0.1-0.2-0.2-0.2c0-0.1-0.1,0.1-0.1,0.2c0,0.1,0,0.2-0.1,0.3c-0.1,0.4-0.1,0.6-0.1,0.6c-1.9-15.3,9-29.3,24.3-31.2
		c15.4-1.9,29.4,8.9,31.3,24.2c0,0,0,0.6,0,1.8c0,0.3,0,0.6,0,1c0,0.3,0,0.9,0,1.1c-0.1,0.6-0.1,1.2-0.2,1.9
		c-0.3,2.7-0.9,5.6-1.7,8.9c-0.8,3.3-1.8,7.1-2.9,11.4c-1.1,4.2-2.4,8.9-3.8,14c-2.8,10.2-5.9,21.9-9.1,34.5
		c-1.6,6.3-3.1,12.8-4.6,19.3c-0.7,3.2-1.5,6.6-2.1,9.6l-0.2,1.1l-0.2,0.8l-0.1,0.6l0,0.3v0.2c0-0.1,0,0.4,0-0.2v0.1l-0.2,1.6
		c-0.2,2.2-0.5,4.1-0.8,6c-0.6,3.7-1.1,7.2-1.5,10.6c-0.4,3.4-0.7,6.7-1,10c-0.3,3.2-0.6,6.4-0.8,9.6c-0.3,3.2-0.6,5.9-1,9.2
		c-0.3,2.8-0.6,5.8-0.7,8.8c-0.2,3-0.4,5.9-0.5,8.8c-0.3,5.8-0.6,11.3-0.8,16.4c-0.1,2.5-0.2,5-0.4,7.3c-0.1,2.3-0.3,4.6-0.4,6.6
		c-0.2,4.2,0.3,7.8,0.1,10.8c-0.4,6,0,9.4,0,9.4c-1.9,3.6-4.4,6.2-7.9,5.8C408.6,951.5,405.5,949.4,404.8,946.7L404.8,946.7z"/>
	<path class="st9" d="M441.3,951.4c-0.4-1.3-1.6-2.2-3-2.3l-2.5-0.1c-6.8-0.4-12.7-4.4-15.5-10.3c-1.7,3.8-5.2,6.7-10.5,6.7
		c-3.1,0-5.4-1-7.1-2.6l-0.1,3.8c-0.1,4.5,3.4,8.3,8,8.5l27.3,0.9C440.3,956,442.1,953.7,441.3,951.4z"/>
	<path class="st18" d="M400.4,581.5c19-0.6,17.2-16.6,17.2-16.6l12.7-0.4l12.7,0.4c0,0-1.7,16,17.2,16.6
		c6.2,0.2,18.5,20.1,18.5,20.1h-86.9C391.8,601.6,397.6,581.6,400.4,581.5z"/>
	<path class="st19" d="M443.6,569.9c0.4,1.5,0.9,3.2,1.9,4.8c-5.9,12.8-22.4,14.5-29.8-0.9c0.6-0.9,1-2.4,1.3-3.9H443.6L443.6,569.9
		z"/>
	<path class="st18" d="M457.5,526c-1.6-17.1-14.2-26.9-26.5-26.7c-12.4,0.2-24.7,10.4-25.9,27.5c-0.7,10,1.5,20.9,3.1,27.1
		c0.9,3.7,2.7,7.1,5.1,9.7c5.6,6.1,12.9,10.9,18.6,10.8c5.7-0.1,12.9-5.2,18.3-11.4c2.4-2.7,4.1-6.1,4.9-9.9
		C456.5,546.9,458.5,536,457.5,526L457.5,526z"/>
	<path class="st18" d="M480,598.3c0,0,0.7,2.1,1.9,5.7c1.2,3.6,2.9,8.7,5,14.8c2.1,6,4.6,13.1,7.7,20.2c1.5,3.5,3.2,7.1,4.9,10.1
		c0.9,1.5,1.8,2.9,2.5,3.8c0.3,0.4,0.6,0.7,0.5,0.7c0,0-0.2-0.1-0.6-0.2l-0.2-0.1h-0.1l0,0c-1.1-0.3-0.3-0.1-0.5-0.1l0.4,0.1
		c0,0-1.1-0.2-1-0.1c-0.5,0.1-0.2,0.2,0.2,0.1c0.5,0,1.1-0.2,1.9-0.4c1.5-0.4,3.2-1.1,4.9-1.9c3.4-1.5,6.9-3.4,10.2-5.4
		c3.3-2,6.5-4.1,9.3-6.2c1.4-1.1,2.8-2.2,4.1-3.2c1.3-1.1,2.5-2.2,3.6-3.3c2.2-2.2,4.1-4.3,5.6-6.3c1.3-2.1,1.6-4.3,2.2-5.8
		c0.6-1.5,1.2-2.5,1.8-3.1c0.6-0.7,1-1,1-1l1.2-0.8c2.3-1.6,5.5-1.1,7.1,1.2c0.3,0.4,0.5,0.8,0.6,1.2c0,0,0.1,0.2,0.1,0.5
		s0.2,0.9,0.2,1.5c0.1,1.3-0.2,3.2-1.2,5.3c-1,2.1-2.9,4-4.6,6.4c-1.5,2.5-3.2,5.3-5.3,8.1c-1,1.4-2.1,2.9-3.3,4.4
		c-1.1,1.5-2.4,3.1-3.7,4.6c-2.6,3.1-5.5,6.2-8.7,9.3c-3.2,3.1-6.8,6.1-10.9,8.9c-2.1,1.4-4.3,2.7-6.9,3.9c-1.3,0.6-2.7,1.1-4.4,1.6
		c-1.7,0.5-3.6,0.9-6.4,0.8c-0.4,0-2.1-0.2-2.6-0.3l-0.4-0.1c-0.3-0.1,0.5,0.1-0.6-0.2l-0.1,0l-0.8-0.3c-1.4-0.5-2.6-1.1-3.6-1.7
		c-2-1.2-3.3-2.5-4.5-3.6c-2.3-2.3-3.9-4.5-5.4-6.7c-2.9-4.3-5.1-8.3-7.1-12.3c-4-7.9-7-15.2-9.5-21.6c-2.4-6.3-4.3-11.6-5.6-15.3
		c-1.2-3.7-1.9-5.8-1.9-5.8c-2.1-6.3,1.4-13.2,7.7-15.3C471.1,588.5,477.9,591.9,480,598.3L480,598.3z"/>
	<path class="st18" d="M437.9,934.6l-0.4,12c-0.1,4.5,3.4,8.3,8,8.5l27.3,0.9c2.4,0.1,4.1-2.2,3.4-4.5c-0.4-1.3-1.6-2.2-3-2.3
		l-2.5-0.1c-8.5-0.4-15.6-6.7-17-15.1L437.9,934.6L437.9,934.6z"/>
	<path class="st18" d="M439.7,946.7c0,0-0.8-3.4-1.9-9.4c-0.5-3-1.2-6.6-1.9-10.8c-0.3-2.1-0.7-4.3-1-6.7c-0.3-2.4-0.6-4.8-1-7.4
		c-0.7-5.2-1.3-10.8-1.8-16.8c-0.5-6-0.9-12.3-0.8-19.4c-0.1-3.1,0.2-6.9,0.5-10.3c0.4-3.4,0.9-6.9,1.5-10.3
		c1.2-6.8,2.6-13.7,2.9-19.9l0-2.2c0-0.7,0-1.4-0.1-2l-0.1-0.9v-0.1c0,0.6,0,0.1,0,0.2v-0.1l-0.1-0.3l-0.1-0.6
		c-0.1-0.8-0.2-1.7-0.4-2.4c-0.6-3.2-1.2-6.4-1.7-9.5c-1.2-6.6-2.6-13.1-3.9-19.4c-2.7-12.6-5.5-24.3-8.1-34.4
		c-0.6-2.5-1.3-4.9-1.9-7.2c-0.6-2.3-1.2-4.4-1.8-6.5c-1.1-4.1-2.1-7.6-3-10.4c-0.4-1.4-0.8-2.7-1.2-3.8c-0.4-1.1-0.6-2.1-0.9-2.7
		c-0.5-1.3-0.8-2-0.8-2c-5.6-14.8,1.9-31.4,16.9-36.9c14.9-5.6,31.5,1.9,37.1,16.8c1.5,3.9,2,8,1.8,11.9l-0.1,1.3c0,0-0.1,1-0.2,2.9
		c-0.1,1.7-0.4,4.2-0.6,7.3c-0.3,3.1-0.6,6.8-0.9,11.1c-0.3,4.3-0.7,9-1,14.3c-0.7,10.4-1.3,22.5-1.8,35.5
		c-0.2,6.5-0.5,13.2-0.7,20.1c-0.1,3.6-0.2,7.2-0.4,10.8c0,1-0.1,1.8-0.2,2.7l-0.1,0.6v0.3l0,0.1c0,0.2,0-0.3,0,0.4v0.2l-0.2,1.6
		c-0.2,2.2-0.5,4.1-0.8,6c-0.6,3.7-1.1,7.2-1.5,10.6c-0.4,3.4-0.7,6.7-1,10c-0.3,3.2-0.6,6.4-0.8,9.6c-0.3,3.2-0.6,5.9-1,9.2
		c-0.3,2.8-0.5,5.8-0.7,8.8c-0.2,3-0.4,5.9-0.5,8.8c-0.3,5.8-0.6,11.3-0.8,16.4c-0.1,2.5-0.2,5-0.4,7.3c-0.1,2.3-0.3,4.6-0.4,6.6
		c-0.2,4.2,0.5,7.8,0.3,10.8c-0.4,6,0.2,9.4,0.2,9.4c0,3.6-4.5,6.2-8.1,5.8C443.6,951.4,440.3,949.3,439.7,946.7L439.7,946.7z"/>
	<path class="st12" d="M487.9,623.4c-4.9-17.6-3-27.8-11-35.6c-8-7.8-21.7-7.2-21.7-7.2s-4.8,15.5-24.3,15.8
		c-19.5-0.2-24.5-15.8-24.5-15.8s-13.5-0.7-21.5,7.1c-8,7.8-7.1,19.6-11.9,37.2l22.8,4.4c0,0,6.8,32.9,5,45.5c0,0,9,7.2,30.1,7.2
		s35.4-4.6,35.4-4.6c-1.8-12.6,2.7-47.1,2.7-47.1L487.9,623.4L487.9,623.4z"/>
	<path class="st9" d="M476.2,951.4c-0.4-1.3-1.6-2.2-3-2.3l-2.5-0.1c-6.8-0.4-12.7-4.4-15.5-10.3c-1.7,3.8-5.2,6.7-10.5,6.7
		c-3.1,0-5.4-1-7.1-2.6l-0.1,3.8c-0.1,4.5,3.4,8.3,8,8.5l27.3,0.9C475.2,956,477,953.7,476.2,951.4z"/>
	<path class="st16" d="M377.7,861.1c13.6,7.5,30.6,8.7,45.1,3.1c5.4-2.1,11.2-5.1,16.8-3.5c4,1.2,6.9,4.6,10.7,6.4
		c12.5,6,27.5-7.5,40.7-3.1c-12.6-61.3-22.1-124.8-24-187.4l-65.9-1.4c0,0-18.5,52.3-14.6,96.5C390.5,815.9,377.7,861.1,377.7,861.1
		L377.7,861.1z"/>
	<path class="st18" d="M409.3,730.9c-0.3-0.9-0.7-1.9-1.2-2.9c-0.5-1-1.2-2-1.7-3.2c-0.6-1.2-1-2.4-1.4-3.8
		c-0.4-1.4-0.9-2.8-1.4-4.3c-1-2.9-2-6.2-3.1-9.6c-1.1-3.4-2.2-7-3.5-10.6c-1.2-3.7-2.5-7.5-3.9-11.3c-0.7-1.9-1.4-3.8-2.1-5.8
		l-1.1-2.9l-0.6-1.4l-0.1-0.4l-0.1-0.2c0-0.1-0.1-0.2-0.1-0.4c-0.2-1-0.4-1.9-0.3-2.8c0-0.5,0.1-0.9,0.2-1.3c0,0.1,0.3-1.3,0.5-2.2
		c0.9-3.9,5.9-38.8,5.9-38.8l-21.7-4.2c0,0-0.2,4.5-0.6,7.1c-0.9,6-1.9,13.1-2.9,20.7c-0.5,3.8-1,7.7-1.5,11.7
		c-0.1,1.1-0.2,1.7-0.4,3.8c-0.1,1.6-0.1,3.1,0.1,4.7c0.3,3.1,1.1,6.2,2.5,9c0.2,0.4,0.3,0.7,0.5,1l0.3,0.5l0.2,0.3l0.8,1.3l1.5,2.6
		c1,1.7,2.1,3.5,3.1,5.2c2.1,3.4,4.1,6.8,6.1,10c3.9,6.5,7.5,12.6,10.2,18c0.7,1.3,1.3,2.6,1.9,3.9c0.6,1.2,1.1,2.4,1.4,3.6
		c0.5,2.4,0.7,4.5,1.2,6c0.4,1.5,1.1,2.7,1.6,3.3c0.5,0.7,1,1.1,1,1.1l0.9,0.7c0.4,0.3,0.8,0.5,1.3,0.7c2.7,1.1,5.7-0.2,6.8-2.9
		c0,0,0.3-0.6,0.4-1.8C410,734.3,409.8,732.8,409.3,730.9L409.3,730.9z"/>
	<path class="st17" d="M427.1,521c-4.9,2.7-10.3,4.8-13.9,9.1c-5,6-5,14.5-5.7,22.2c-0.1,1.3-0.4,2.7-1.5,3.3
		c-1.5,0.8-3.4-0.9-3.6-2.6c-0.2-1.7-0.6-13.7-3-20.1c-2.8-7.3-2.4-19.4,2.1-25.8c4.5-6.4,9.8-11,17.4-12.7c5.4-1.2,11.4-1.1,15.9,2
		C446.7,504.4,435.4,516.3,427.1,521z"/>
	<path class="st17" d="M434,505.5c5.9,5.6,11.9,11.3,16.2,18.2c4.3,7,6.6,15.4,4.7,23.3c-0.4,1.4-0.8,2.9-0.5,4.3
		c0.4,1.4,2,2.6,3.3,1.9c1-0.5,1.2-1.8,1.4-2.9c0.9-6.6,1.8-13.1,2.6-19.7c0.8-6.3,1.6-12.8-0.4-18.8c-2.1-6.2-7.3-11.3-13.6-13.3
		c-6.3-2-13.5-0.8-18.8,3"/>
	<path class="st9" d="M420.8,539.4c0,1.3-1,2.3-2.3,2.3c-1.3,0-2.3-1-2.3-2.3c0-1.3,1-2.3,2.3-2.3
		C419.8,537.1,420.8,538.1,420.8,539.4z"/>
	<path class="st19" d="M423.7,549.1c0,2.1-2.2,3.8-4.9,3.8c-2.7,0-4.9-1.7-4.9-3.8s2.2-3.8,4.9-3.8
		C421.5,545.3,423.7,547,423.7,549.1z"/>
	<path class="st9" d="M442.6,539.4c0,1.3,1,2.3,2.3,2.3c1.3,0,2.3-1,2.3-2.3c0-1.3-1-2.3-2.3-2.3
		C443.6,537.1,442.6,538.1,442.6,539.4z"/>
	<path class="st19" d="M439.8,549.1c0,2.1,2.2,3.8,4.9,3.8c2.7,0,4.9-1.7,4.9-3.8s-2.2-3.8-4.9-3.8C442,545.3,439.8,547,439.8,549.1
		z"/>
	<path class="st16" d="M438.4,555.9c0.9,0,1.6,1.1,1,1.8c-1.6,2.2-4.2,3.7-7.1,3.7c-3,0-5.5-1.4-7.1-3.6c-0.6-0.8-0.1-2,1-2H438.4z"
		/>
	<path class="st18" d="M744.4,935.3l0.4,11.9c0.1,4.5-3.4,8.3-7.9,8.4l-27.1,0.9c-2.4,0.1-4.1-2.2-3.3-4.5c0.4-1.3,1.6-2.2,3-2.3
		l2.5-0.1c8.5-0.4,15.5-6.7,16.9-15L744.4,935.3L744.4,935.3z"/>
	<path class="st18" d="M755.3,787.2c-1,4.2-1.9,8.6-2.9,13.1c-1.3,6.2-2.7,12.7-3.9,19.2c-0.6,3.1-1.1,6.3-1.7,9.4
		c-0.1,0.7-0.3,1.5-0.4,2.4l-0.1,0.6l0,0.3v0.1c0-0.1,0,0.4,0-0.2v0.1l-0.1,0.9c-0.1,0.6-0.1,1.3-0.1,2l0,2.2
		c0.3,6.2,1.7,13,2.9,19.7c0.6,3.4,1.1,6.8,1.5,10.3c0.3,3.3,0.6,7.2,0.5,10.2c0.1,7.1-0.4,13.3-0.8,19.2c-0.5,6-1.1,11.5-1.7,16.6
		c-0.3,2.6-0.6,5-1,7.3c-0.4,2.3-0.7,4.5-1,6.6c-0.6,4.1-1.3,7.7-1.8,10.7c-1.1,5.9-1.9,9.3-1.9,9.3c-0.6,2.6-3.1,4.6-5.9,4.9
		c-3.6,0.4-5.8-2.2-7.3-5.8c0,0-0.1-3.4-0.5-9.3c-0.2-3-0.2-6.6-0.4-10.7c-0.1-2.1-0.2-4.3-0.4-6.6c-0.1-2.3-0.2-4.7-0.4-7.3
		c-0.3-5-0.5-10.5-0.8-16.2c-0.2-2.8-0.3-5.7-0.5-8.7c-0.2-2.9-0.4-5.9-0.7-8.7c-0.4-3.3-0.7-6-1-9.1c-0.3-3.1-0.6-6.3-0.8-9.5
		c-0.3-3.2-0.6-6.5-1-9.9c-0.4-3.4-1-6.8-1.5-10.5c-0.3-1.9-0.6-3.8-0.8-5.9l-0.1-1.6v-0.2c0-0.7,0-0.2,0-0.4v-0.1l0-0.3l-0.1-0.6
		c-0.1-0.8-0.1-1.7-0.2-2.7c-0.1-3.6-0.2-7.2-0.4-10.7c-0.2-6.8-0.5-13.5-0.7-19.9c-0.3-7.2-0.6-14.1-0.9-20.6
		C729.1,783.1,742.4,786.4,755.3,787.2L755.3,787.2z"/>
	<path class="st19" d="M749.1,816.3c-6-10.8-11.3-21.9-16.3-33.1c7.3,2.3,14.9,3.6,22.4,4.1c-1,4.2-1.9,8.6-2.9,13.1
		C751.3,805.5,750.2,810.9,749.1,816.3L749.1,816.3z"/>
	<path class="st9" d="M706.5,952c0.4-1.3,1.6-2.2,3-2.3l2.5-0.1c6.8-0.4,12.6-4.4,15.4-10.3c1.7,3.7,5.2,6.7,10.4,6.7
		c3.1,0,5.4-1,7-2.6l0.1,3.8c0.1,4.5-3.4,8.3-7.9,8.4l-27.1,0.9C707.4,956.5,705.7,954.2,706.5,952z"/>
	<path class="st18" d="M779,935.3l0.4,11.9c0.1,4.5-3.4,8.3-7.9,8.4l-27.1,0.9c-2.4,0.1-4.1-2.2-3.3-4.5c0.4-1.3,1.6-2.2,3-2.3
		l2.5-0.1c8.5-0.4,15.5-6.7,16.9-15L779,935.3L779,935.3z"/>
	<path class="st18" d="M780,782.7c0.4-0.1,0.7-0.1,1.1-0.2c-0.1,4.6-0.1,9.5-0.1,14.4c0,6.5,0,13.1,0,19.9c0,3.4,0.1,6.8,0,10.5
		l0,3.3l0,0.6v0.3l0,0.2c0,0.2,0-0.3,0,0.4v0.1l-0.1,0.9c-0.1,1.3-0.1,2.7-0.1,4.2c0.3,6.2,1.7,13,2.9,19.7
		c0.6,3.4,1.1,6.8,1.5,10.3c0.3,3.3,0.6,7.2,0.5,10.2c0.1,7.1-0.4,13.3-0.8,19.3c-0.5,6-1.1,11.5-1.7,16.7c-0.3,2.6-0.6,5-1,7.3
		c-0.4,2.3-0.7,4.5-1,6.6c-0.6,4.1-1.3,7.7-1.8,10.7c-1.1,5.9-1.9,9.3-1.9,9.3c-0.6,2.6-3.1,4.6-5.9,4.9c-3.6,0.3-5.8-2.2-7.3-5.8
		c0,0-0.1-3.4-0.5-9.3c-0.2-3-0.2-6.6-0.4-10.7c-0.1-2.1-0.2-4.3-0.4-6.6c-0.1-2.3-0.2-4.7-0.4-7.3c-0.3-5-0.5-10.5-0.8-16.2
		c-0.2-2.8-0.3-5.8-0.5-8.7c-0.2-2.9-0.4-5.9-0.7-8.7c-0.4-3.3-0.7-6-1-9.1c-0.3-3.1-0.6-6.3-0.8-9.5c-0.3-3.2-0.6-6.5-1-9.9
		c-0.4-3.4-1-6.8-1.5-10.5c-0.3-1.9-0.6-3.8-0.8-5.9l-0.1-1.6v-0.1c0,0.6,0,0.1,0,0.2v-0.2l-0.1-0.3l-0.1-0.6l-0.2-0.7l-0.2-1.1
		c-0.6-3-1.3-6.3-2.1-9.5c-1.5-6.5-3-12.9-4.6-19.1c-1.9-7.7-3.9-15.1-5.7-22.1C754.1,783.6,767.8,785,780,782.7L780,782.7z"/>
	<path class="st9" d="M741,952c0.4-1.3,1.6-2.2,3-2.3l2.5-0.1c6.8-0.4,12.6-4.4,15.4-10.3c1.7,3.7,5.2,6.7,10.4,6.7
		c3.1,0,5.4-1,7-2.6l0.1,3.8c0.1,4.5-3.4,8.3-7.9,8.4l-27.1,0.9C742,956.5,740.3,954.2,741,952z"/>
	<path class="st16" d="M794.7,785.7c-8.6,8.1-66.8,13.6-88.2-4.2c-2.6-35,10-101.5,10-101.5l64.4-1.8c0,0,18.4,51.9,14.5,95.6
		C795.1,777.8,794.8,781.8,794.7,785.7L794.7,785.7z"/>
	<path class="st20" d="M714.5,553.9c2.4-10.7,10.2-20.2,20.5-24.1c9-3.4,19.2-2.6,28,1.3c8.8,3.8,27.6,35.8,22.8,47.9
		c-4.9,12.1-17.1,20.7-30.2,21.8c-13,1.1-26.3-5.3-34.2-15.7C714.9,576.2,712.1,564.6,714.5,553.9L714.5,553.9z"/>
	<path class="st18" d="M781.6,585.3c-18.8-0.6-17.1-16.5-17.1-16.5l-12.6-0.4l-12.6,0.4c0,0,1.7,15.9-17.1,16.5
		c-6.1,0.2-18.4,19.9-18.4,19.9h86.2C790.1,605.2,784.4,585.4,781.6,585.3z"/>
	<path class="st19" d="M738.8,573.7c-0.4,1.5-0.9,3.1-1.9,4.7c5.9,12.7,22.2,14.3,29.5-0.9c-0.6-0.9-1.6-5.3-1.9-6.7L738.8,573.7
		L738.8,573.7z"/>
	<path class="st18" d="M725,530.3c1.6-16.9,14-26.7,26.3-26.5c12.2,0.2,24.4,10.3,25.6,27.3c0.7,10-1.5,20.7-3.1,26.8
		c-0.9,3.7-2.7,7-5.1,9.6c-5.5,6-12.7,10.8-18.4,10.7c-5.7-0.1-12.7-5.1-18.1-11.3c-2.4-2.7-4-6.1-4.9-9.8
		C726,551,724,540.2,725,530.3L725,530.3z"/>
	<path class="st18" d="M708,592.8c0,0-1.6,1.5-4.4,4c-2.8,2.6-6.7,6.2-11.5,10.4c-4.8,4.2-10.4,9.1-16.4,13.8
		c-3,2.3-6.2,4.6-9.2,6.4c-1.5,0.9-3,1.6-4,2.1c-0.5,0.2-0.9,0.3-0.8,0.4c0,0,0.3,0,0.6,0.1l0.2,0h0.1l0,0c1.1,0.3,0.3,0.1,0.5,0.1
		l-0.4-0.1c0,0,1.1,0.4,0.9,0.4c0.4,0.3,0.1,0.3-0.2,0c-0.4-0.3-0.9-0.7-1.4-1.3c-1.1-1.1-2.2-2.5-3.3-3.9c-2.2-3-4.3-6.3-6.2-9.6
		c-1.9-3.3-3.6-6.7-5.1-9.9c-0.7-1.6-1.4-3.2-2-4.8c-0.6-1.6-1.1-3.1-1.5-4.6c-0.9-2.9-1.5-5.7-1.8-8.1c-0.1-2.4,0.7-4.5,0.9-6
		c0.2-1.6,0.1-2.7,0-3.6c-0.2-0.8-0.4-1.4-0.4-1.4l-0.6-1.3c-1.2-2.5-4.2-3.6-6.8-2.4c-0.4,0.2-0.8,0.5-1.1,0.7c0,0-0.1,0.1-0.4,0.4
		c-0.2,0.3-0.6,0.7-0.9,1.3c-0.7,1.1-1.4,2.9-1.5,5.2c-0.1,2.2,0.6,4.9,0.9,7.7c0.1,2.9,0.2,6.1,0.6,9.6c0.2,1.7,0.4,3.5,0.7,5.4
		c0.3,1.9,0.6,3.8,1,5.8c0.8,3.9,1.8,8,3.1,12.3c1.3,4.2,2.9,8.6,5.2,13c1.2,2.2,2.4,4.4,4.1,6.7c0.9,1.1,1.8,2.3,3.1,3.5
		c1.2,1.2,2.7,2.5,5.1,3.7c0.4,0.2,1.9,0.8,2.4,1l0.4,0.1c0.3,0.1-0.5-0.1,0.6,0.1l0.1,0l0.3,0.1l0.6,0.1c1.5,0.2,2.8,0.3,3.9,0.2
		c2.3-0.1,4-0.6,5.6-1c3.1-0.9,5.6-2,7.9-3.2c4.6-2.3,8.5-4.7,12.1-7.2c7.3-4.9,13.4-9.8,18.7-14.1c5.2-4.3,9.4-8,12.3-10.6
		c2.9-2.6,4.5-4.1,4.5-4.1c4.9-4.5,5.2-12.1,0.7-16.9C720.6,588.6,713,588.3,708,592.8L708,592.8L708,592.8z"/>
	<path class="st9" d="M687,611.3c0,0,10.8-12,18.8-19.8c7.9-7.8,21.6-7.1,21.6-7.1s4.8,15.4,24.1,15.7c19.3-0.2,24.3-15.6,24.3-15.6
		s13.4-0.7,21.3,7.1c7.9,7.8,7,19.4,11.8,36.9l-22.6,4.4c0,0-7,33.3-5.2,45.8c0,0-8.6,6.5-29.6,6.5c-21,0-35.1-4.5-35.1-4.5
		c1.8-12.5-4.6-56-4.6-56l-8.9,4.5L687,611.3z"/>
	<path class="st18" d="M772.8,733.4c0.3-0.9,0.7-1.9,1.2-2.9c0.5-1,1.2-2,1.7-3.2c0.6-1.1,1-2.4,1.4-3.8c0.4-1.4,0.9-2.7,1.4-4.2
		c0.9-2.9,2-6.1,3.1-9.5c1.1-3.4,2.2-6.9,3.4-10.5c1.2-3.6,2.5-7.4,3.9-11.2c0.7-1.9,1.4-3.8,2.1-5.7l1.1-2.8l0.6-1.4l0.1-0.4
		l0.1-0.2c0-0.1,0.1-0.2,0.1-0.3c0.2-0.9,0.4-1.9,0.3-2.8c0-0.5-0.1-0.9-0.2-1.3c0,0.1-0.3-1.3-0.5-2.2c-0.9-3.9-5.8-38.5-5.8-38.5
		l21.5-4.2c0,0,0.2,4.5,0.6,7c0.9,6,1.9,13,2.9,20.5c0.5,3.8,1,7.6,1.4,11.6c0.1,1.1,0.2,1.7,0.4,3.7c0.1,1.6,0.1,3.1-0.1,4.7
		c-0.3,3.1-1.1,6.1-2.4,8.9c-0.2,0.4-0.3,0.7-0.5,1l-0.3,0.5l-0.2,0.3l-0.8,1.3l-1.5,2.6c-1,1.7-2,3.4-3,5.1c-2.1,3.4-4.1,6.7-6,10
		c-3.9,6.5-7.4,12.5-10.1,17.9c-0.6,1.3-1.3,2.6-1.9,3.8c-0.6,1.2-1.1,2.4-1.4,3.6c-0.5,2.4-0.6,4.4-1.2,6c-0.4,1.5-1.1,2.7-1.6,3.3
		c-0.5,0.7-1,1-1,1l-0.9,0.7c-0.4,0.3-0.8,0.5-1.3,0.7c-2.6,1.1-5.6-0.2-6.7-2.9c0,0-0.3-0.6-0.4-1.8
		C772.1,736.8,772.3,735.3,772.8,733.4L772.8,733.4z"/>
	<path class="st20" d="M749.8,526.1c3.6,1.8,7.6,2.8,11.3,4.6s7,4.8,7.9,8.7c1,4.6-1.6,9.7,0.7,13.8c2.5,4.5,9.5,4.9,12.1,9.3
		c2.6,4.2-0.3,9.8-4,13.1c-3.8,3.2-8.6,5.4-11.5,9.4c-3.3,4.4-3.8,10.6-1.2,15.4c2.6,4.8,8,7.9,13.5,7.7c7.6-0.3,13.9-6.6,16.5-13.8
		c2.6-7.1,2.3-14.9,1.9-22.5c-0.5-8.5-1-17.1-1.6-25.6c-0.9-13.3-2.2-27.2-9.8-38.2c-5.6-8.1-14.6-14-24.3-15.8
		c-7.8-1.5-26.3-1.3-27.4,8.7C732.6,510.9,741.3,522,749.8,526.1L749.8,526.1z"/>
	<path class="st20" d="M732.6,526.8c-4.5,8.1-10.2,16.1-10.3,25.4c-0.1,6.7,2.9,12.9,5.5,19c2.6,6.1,5.1,12.7,4.1,19.3
		c-1,6.6-6.9,12.9-13.5,12c-4.5-0.6-8.2-4.3-9.9-8.6c-1.7-4.2-1.9-8.9-1.9-13.5c-0.1-19.5,1.8-39,5.4-58.1
		c1.8-9.2,7.3-24.3,19.8-21.3C743.1,503.9,736.1,520.4,732.6,526.8z"/>
	<path class="st9" d="M738.8,544c0,1.3-1,2.3-2.3,2.3c-1.3,0-2.3-1-2.3-2.3s1-2.3,2.3-2.3C737.8,541.7,738.8,542.7,738.8,544z"/>
	<path class="st19" d="M741.6,553.7c0,2.1-2.2,3.8-4.9,3.8c-2.7,0-4.9-1.7-4.9-3.8s2.2-3.8,4.9-3.8
		C739.4,549.9,741.6,551.6,741.6,553.7z"/>
	<path class="st9" d="M760.6,544c0,1.3,1,2.3,2.3,2.3c1.3,0,2.3-1,2.3-2.3s-1-2.3-2.3-2.3C761.6,541.7,760.6,542.7,760.6,544z"/>
	<path class="st19" d="M757.7,553.7c0,2.1,2.2,3.8,4.9,3.8c2.7,0,4.9-1.7,4.9-3.8s-2.2-3.8-4.9-3.8
		C759.9,549.9,757.7,551.6,757.7,553.7z"/>
	<path class="st16" d="M756.4,560.5c0.9,0,1.6,1.1,1,1.8c-1.6,2.2-4.2,3.7-7.1,3.7s-5.5-1.4-7.1-3.6c-0.6-0.8-0.1-2,1-2H756.4z"/>
	<path class="st10" d="M658.7,596.8c-0.9-0.6-1.7-1.1-2.6-1.6l-4.2-2.6l-1.1-0.6l-2.4-0.1l-4.8,0c-3.2,0-6.4,0.1-9.5,0.1
		c-6.3,0.2-24.6,0.6-30.6,1.2c-4.2,0.5-12.3,1.8-12.3,1.8l-27.8-20.9c0,0,3.6-1.7,4.7-2.1c2-0.7,3.9-1.4,5.9-2
		c1.9-0.6,3.8-1,5.7-1.4c7.5-1.6,14.8-2.2,21.9-2.5c7.1-0.3,26.1-0.1,33.1,0.3c3.5,0.2,6.9,0.5,10.4,0.9l5.2,0.6l5.3,0.7l0.8,0.1
		c1.6,0.2,11.7-0.2,26,24.2C685.1,597.8,658.8,596.8,658.7,596.8L658.7,596.8z"/>
	<path class="st21" d="M581,636.3v45.8c0,0,0.1,0,0.2-0.1c1.8-0.7,3.4-2.2,4-4.1l0.3-0.8c2.7-7.8,5.2-15.6,7.6-23.4
		c1.2-3.9,2.4-7.9,3.5-11.9c0.1-0.5,0.3-1.1,0.4-1.6C591.7,639,586.4,637.7,581,636.3z"/>
	<path class="st22" d="M628.1,934.1l0.4,12.2c0.1,4.6-3.5,8.5-8.2,8.7l-32.5,0.9c-2.4,0.1-4.2-2.3-3.4-4.6c0.4-1.3,1.7-2.3,3.1-2.4
		l7.1-0.1c8.7-0.5,16-6.9,17.4-15.5L628.1,934.1L628.1,934.1z"/>
	<path class="st22" d="M608.7,913.7c-0.3-2.8-0.6-5.7-0.9-8.5c-0.4-4.8-0.9-9.5-1.2-14.3l24.7-5.4l-0.2,2.6l-1.3,16.9
		c-0.2,2.8-0.5,5.6-0.7,8.5c-0.2,2.8-0.1,5.7-0.4,8.5c-0.4,4.6-1.2,12.8-1.4,15.8c-0.1,0.8-0.4,1.7-0.8,2.4
		c-1.9,3.2-4.3,5.4-7.8,4.9c-3.2-0.4-6-2.9-6.5-5.9c-1-5.7-1.8-11.3-2.5-17C609.3,919.3,609,916.5,608.7,913.7z"/>
	<path class="st9" d="M628.1,934.1l0.4,12.2c0.1,4.6-3.5,8.5-8.2,8.7l-32.5,0.9c-2.4,0.1-4.2-2.3-3.4-4.6c0.4-1.3,1.7-2.3,3.1-2.4
		l7.1-0.1c8.7-0.5,16-6.9,17.4-15.5L628.1,934.1L628.1,934.1z"/>
	<path class="st21" d="M608.7,913.7c-0.3-2.8-0.6-5.7-0.9-8.5c-0.4-4.8-0.9-9.5-1.2-14.3l24.7-5.4l-0.2,2.6l-1.3,16.9
		c-0.2,2.8-0.5,5.6-0.7,8.5c-0.2,2.8-0.1,5.7-0.4,8.5c-0.4,4.6-1.2,12.8-1.4,15.8c-0.1,0.8-0.4,1.7-0.8,2.4
		c-1.9,3.2-4.3,5.4-7.8,4.9c-3.2-0.4-6-2.9-6.5-5.9c-1-5.7-1.8-11.3-2.5-17C609.3,919.3,609,916.5,608.7,913.7z"/>
	<path class="st9" d="M645.3,723.8l-51.2-15c0,0-1,27-0.7,35.6c0.6,17.1,1.3,53.4,2.4,83.4c1.1,30,8,107.7,8,107.7s17,2.9,27.3,0.8
		c0,0,4.8-75,2.5-97.3c-2.3-22.3,2-48.8,7.3-82.3C642.7,745.5,645.1,734.2,645.3,723.8z"/>
	<path class="st9" d="M676,934.4l0.2,12.3c0.1,4.6-3.6,8.5-8.3,8.6l-32.5,0.5c-2.4,0.1-4.2-2.4-3.4-4.7c0.5-1.3,1.7-2.2,3.1-2.3
		l7.1-0.1c8.7-0.3,16.1-6.7,17.6-15.3L676,934.4L676,934.4z"/>
	<path class="st21" d="M656.6,914.1c-0.4-2.8-0.9-5.6-1.2-8.5c-0.6-4.7-1.3-9.5-1.8-14.3L678,885l-0.1,2.6l-0.6,17
		c-0.1,2.8-0.3,5.7-0.4,8.5c-0.1,2.8,0.1,5.7-0.1,8.5c-0.3,5.7-0.6,11.4-0.9,17.1c-1.9,3.9-4.2,6.8-8.2,6.5
		c-3.2-0.3-6.1-2.7-6.7-5.6c-1.2-5.6-2.2-11.2-3.2-16.9C657.5,919.8,657,917,656.6,914.1L656.6,914.1z"/>
	<path class="st23" d="M631.6,723.8c1.3,6.2,2.6,13.2,3.4,23c1.4,17.1,3.6,53.6,6.1,83.7c2.4,30.1,11.8,107.9,11.8,107.9
		s17.2,2.2,27.5-0.2c0,0,2.5-75.5-0.8-97.8c-3.3-22.3-0.1-49.2,3.7-83.1c1.3-11.4,4.4-29.6-5.2-54.6L631.6,723.8L631.6,723.8z"/>
	<path class="st21" d="M671.3,591.4c-19.4-0.6-17.7-17-17.7-17l-13-0.4l-13,0.4c0,0,1.7,16.4-17.7,17c-6.3,0.2-19,20.6-19,20.6H680
		C680,612,674.2,591.5,671.3,591.4L671.3,591.4z"/>
	<path class="st24" d="M627,579.5c-0.4,1.5-1,3.2-1.9,4.9c6.1,13.1,22.9,14.8,30.5-0.9c-0.6-1-1-2.5-1.3-4H627z"/>
	<path class="st21" d="M610.4,533.6c1.8-19,15.8-29.9,29.5-29.7c13.8,0.2,27.5,11.6,28.8,30.6c0.8,11.2-1.7,23.2-3.4,30.1
		c-1.1,4.1-3,7.9-5.7,10.8c-6.2,6.8-14.3,12.2-20.7,12.1c-6.4-0.1-14.3-5.8-20.4-12.7c-2.6-3-4.5-6.8-5.4-11
		C611.5,556.8,609.3,544.7,610.4,533.6L610.4,533.6z"/>
	<path class="st18" d="M687.7,645.2l20.7-9.2c-5-18.1-7.1-30.1-15.3-38.1c-8.2-8-27.8-6.7-27.8-6.7s-4.6,15-24.9,15
		c-20.3,0-24.5-15.1-24.5-15.1s-20-1.2-28.2,6.8c-8.2,8-12.9,20.1-17.9,38.1l23.4,9.2l-4.1,100c0,0,17.5,7.2,46.6,7.2
		c37.2,0,52.2-6,52.2-6L687.7,645.2z"/>
	<path class="st9" d="M626.2,549.1c0,1.3-1,2.3-2.3,2.3c-1.3,0-2.3-1-2.3-2.3s1-2.3,2.3-2.3C625.2,546.9,626.2,547.9,626.2,549.1z"
		/>
	<path class="st9" d="M652.7,549.1c0,1.3,1,2.3,2.3,2.3c1.3,0,2.3-1,2.3-2.3s-1-2.3-2.3-2.3C653.8,546.9,652.7,547.9,652.7,549.1z"
		/>
	<path class="st16" d="M632,566.5c-1.1,0-1.9,1.3-1.3,2.2c1.9,2.7,5.1,4.6,8.7,4.6c3.6,0,6.7-1.8,8.6-4.4c0.7-1,0.1-2.4-1.2-2.4H632
		z"/>
	<path class="st25" d="M629,558.6c0,2-2.1,3.7-4.8,3.7c-2.6,0-4.8-1.7-4.8-3.7s2.1-3.7,4.8-3.7C626.9,554.9,629,556.6,629,558.6z"/>
	<path class="st25" d="M650,558.6c0,2,2.1,3.7,4.8,3.7c2.6,0,4.8-1.7,4.8-3.7s-2.1-3.7-4.8-3.7C652.1,554.9,650,556.6,650,558.6z"/>
	<path class="st26" d="M669.5,506.2c-5.7-2.7-11.4-8.4-17.7-9.6c-4.4-0.8-8.2,0.9-12.5,1.5c-5,0.8-10.8,0.4-15.7,1.8
		c-7.8,2.3-13.8,9.2-11.2,16.4c-1.9,3.6-3,7.5-3.4,11.6c-1.3,13.5,1.6,22,2.6,21.6c1.6-0.7,3.5-3.8,3.5-9.9c0-8.4,3.1-12.9,6.5-14.4
		c11.2,7.5,24.9,5,37.1,0.7c2.9,2,5.3,6.3,5.3,13.7c0,7.4,1.8,9.3,3.5,9.9c1,0.4,3.9-8.1,2.6-21.6c-0.2-2.1-0.6-4.3-1.3-6.3
		C675.8,517.4,679.6,510.9,669.5,506.2L669.5,506.2z"/>
	<path class="st21" d="M712,680.3c0-1.4-0.1-2.4-0.2-3.6c-0.1-2.2-0.3-4.3-0.5-6.3c-0.9-8-2-15-3.1-21.1c-0.6-3-1.1-5.8-1.6-8.2
		c-0.3-1.3-0.6-3.1-0.8-4.2c-8.8,3.7-17.7,7.6-27.1,9.8c0.7,2.5,1.4,5.4,2.3,8.7c0.8,2.9,1.6,6,2.5,9.3c0.9,3.3,1.9,6.7,2.8,10.2
		c0.5,1.8,0.9,3.4,1.3,5.1c0.2,0.7,0.3,1.5,0.5,2.2l0.2,0.8v0.1l0,0c0-1.2,0-0.3,0-0.6v1c0,0,0,0.1,0,0.1c0,0,0,0,0,0.3l-0.1,1.2
		c-0.1,0.8-0.2,1.7-0.3,2.6c-0.3,1.9-0.6,3.8-0.8,5.7c-0.6,3.9-1.2,7.8-1.8,11.7c-0.7,3.9-1.3,7.7-1.9,11.5c-0.7,3.7-1.3,7.3-2,10.7
		c-0.7,3.4-1.4,6.6-2.1,9.5c-0.4,1.5-0.6,2.9-1,4.2c-0.4,1.3-1,2.5-1.6,3.6c-1.2,2.2-2.1,4.2-2.5,5.9c-0.9,3.4-0.1,5.8-0.1,5.8v0.1
		c0.2,0.6,0.6,1.3,1,1.8c2.2,2.9,6.3,3.5,9.3,1.3c0,0,2-1.5,3.3-4.8c0.6-1.7,1.1-3.8,1.3-6.3c0.1-1.2,0.4-2.6,0.8-3.9
		c0.4-1.3,1-2.7,1.5-4.1c1.1-2.8,2.3-5.9,3.6-9.1c1.3-3.2,2.8-6.6,4.3-10.2c1.5-3.6,3-7.2,4.5-11c1.5-3.8,3.1-7.6,4.4-11.6
		c0.7-2,1.4-4,2-6.1c0.3-1,0.6-2.1,0.9-3.3l0.4-1.8c0.1-0.2,0.2-0.7,0.3-1.2l0.3-1.4L712,680.3L712,680.3z"/>
	<path class="st10" d="M674.8,581.9c6.6,7.9,10.1,15.9,10.9,18.9c0.8,3.1,1.5,6,2.2,8.7c0.3,1.4,0.6,2.7,0.9,3.9
		c0.2,1.3,0.5,2.5,0.9,3.6c0.4,1.1,1,2.1,1.3,3.2c0.4,1.1,0.6,2,0.7,3c0.1,2-0.2,3.5-0.8,4.7c-0.5,1.1-1,1.6-1,1.6
		c-2.2,2.1-5.8,2.3-8.1,0.2l-2.4-2.1c0,0-0.4-0.4-0.8-0.9c-0.3-0.4-0.8-1.3-0.8-2.3c-0.2-1.1,0.2-2.7,0.2-4.6
		c-0.1-1.9-1.3-3.9-2.2-6.1c-1.1-2.2-2.4-4.6-3.8-7c-1.5-2.5-3.2-5-5-7.6c-1.8-2.6-3.7-5.3-5.7-8c-1-1.4-1.9-2.7-2.9-4.1l-2-2.9
		C656.1,584,674.3,581.4,674.8,581.9L674.8,581.9z"/>
	<path class="st9" d="M520.8,483.1c0,7.3,5.9,13.1,13.2,13.1c7.3,0,13.2-5.9,13.2-13.1c0-7.3-5.9-13.1-13.2-13.1
		C526.7,470,520.8,475.9,520.8,483.1z"/>
	<path class="st22" d="M546.1,933.2l-0.4,12.6c-0.1,4.8,3.6,8.7,8.4,8.9l33.3,0.9c2.5,0.1,4.3-2.4,3.5-4.7c-0.5-1.4-1.7-2.3-3.1-2.4
		l-7.3-0.1c-9-0.5-16.4-7.1-17.9-15.9L546.1,933.2L546.1,933.2z"/>
	<path class="st22" d="M566,912c0.3-2.9,0.7-5.8,0.9-8.7c0.4-4.9,0.9-9.8,1.3-14.7l-25.4-5.5l0.2,2.7l1.3,17.3
		c0.2,2.9,0.5,5.8,0.7,8.7c0.3,2.9,0.1,5.8,0.4,8.7c0.6,5.8,1.6,17.5,1.6,17.5c2.1,3.9,4.6,6.8,8.7,6.3c3.3-0.4,6.1-3,6.7-6.1
		c1-5.8,1.8-11.6,2.5-17.4C565.3,917.8,565.7,915,566,912L566,912z"/>
	<path class="st12" d="M546.1,933.2l-0.4,12.6c-0.1,4.8,3.6,8.7,8.4,8.9l33.3,0.9c2.5,0.1,4.3-2.4,3.5-4.7c-0.5-1.4-1.7-2.3-3.1-2.4
		l-7.3-0.1c-9-0.5-16.4-7.1-17.9-15.9L546.1,933.2L546.1,933.2z"/>
	<path class="st10" d="M566,912c0.3-2.9,0.7-5.8,0.9-8.7c0.4-4.9,0.9-9.8,1.3-14.7l-25.4-5.5l0.2,2.7l1.3,17.3
		c0.2,2.9,0.5,5.8,0.7,8.7c0.3,2.9,0.1,5.8,0.4,8.7c0.6,5.8,1.6,17.5,1.6,17.5c2.1,3.9,4.6,6.8,8.7,6.3c3.3-0.4,6.1-3,6.7-6.1
		c1-5.8,1.8-11.6,2.5-17.4C565.3,917.8,565.7,915,566,912L566,912z"/>
	<path class="st27" d="M528.4,707.6l52.4-15.4c0,0,1,27.7,0.7,36.5c-0.6,17.5-1.3,54.7-2.4,85.5c-1.1,30.7-8.2,120.5-8.2,120.5
		s-17.4,2.9-27.9,0.8c0,0-4.9-86.9-2.6-109.8c2.3-22.9-2.1-50-7.5-84.4C531.1,729.9,528.7,718.3,528.4,707.6L528.4,707.6z"/>
	<path class="st12" d="M497,933.5l-0.2,12.6c-0.1,4.8,3.7,8.7,8.5,8.8l33.4,0.6c2.5,0.1,4.3-2.4,3.5-4.8c-0.5-1.4-1.7-2.3-3.2-2.4
		l-7.3-0.1c-9-0.4-16.5-6.8-18.1-15.6L497,933.5L497,933.5z"/>
	<path class="st10" d="M516.9,912.7c0.4-2.9,0.9-5.8,1.3-8.7c0.6-4.9,1.3-9.7,1.9-14.6l-25.1-6.5l0.1,2.7l0.6,17.4
		c0.1,2.9,0.3,5.8,0.4,8.7c0.1,2.9-0.1,5.8,0.1,8.7c0.3,5.8,0.6,11.7,0.9,17.5c2,4,4.4,7,8.4,6.6c3.3-0.3,6.3-2.7,6.9-5.8
		c1.2-5.8,2.3-11.5,3.2-17.3C516,918.5,516.4,915.7,516.9,912.7L516.9,912.7z"/>
	<path class="st28" d="M542.5,707.6c-1.4,6.3-2.7,13.5-3.5,23.6c-1.4,17.6-3.7,55-6.2,85.8c-2.5,30.8-12.1,120.6-12.1,120.6
		s-17.6,2.3-28.1-0.2c0,0-2.6-87.4,0.8-110.3c3.3-22.9,0.1-50.4-3.8-85.1c-1.3-11.7-4.5-30.3,5.3-55.9L542.5,707.6L542.5,707.6z"/>
	<path class="st10" d="M501.9,571.9c19.9-0.6,18.1-17.4,18.1-17.4l13.3-0.4l13.3,0.4c0,0-1.8,16.9,18.1,17.4
		c6.5,0.2,19.4,21.1,19.4,21.1h-91.3C492.9,593.1,498.9,572,501.9,571.9L501.9,571.9z"/>
	<path class="st14" d="M547.2,559.7c0.4,1.6,1,3.3,2,5c-6.2,13.5-23.5,15.2-31.3-0.9c0.6-1,1-2.5,1.3-4.1H547.2z"/>
	<path class="st10" d="M564.2,512.7c-1.8-19.5-16.2-30.7-30.2-30.4c-14.1,0.2-28.1,11.9-29.5,31.4c-0.8,11.4,1.7,23.8,3.5,30.9
		c1.1,4.2,3.1,8.1,5.9,11.1c6.4,6.9,14.7,12.5,21.2,12.4c6.5-0.1,14.6-5.9,20.9-13c2.7-3.1,4.6-7,5.6-11.3
		C563.1,536.5,565.3,524.1,564.2,512.7L564.2,512.7z"/>
	<path class="st16" d="M485,627l-21.2-9.4c5.1-18.5,7.2-30.8,15.6-39c8.4-8.2,28.2-7.9,28.2-7.9s5,16.4,25.9,16.4
		c20.9,0,24.8-17.1,24.8-17.1s30.9-5.8,41.8-4c2.1,14.8,4.5,25.2,4.5,25.2l-20.4,14.7l1.9,123.6c0,0-17.9,7.4-47.8,7.4
		c-38.2,0-53.5-6.1-53.5-6.1L485,627L485,627z"/>
	<path class="st9" d="M548,528.7c0,1.3,1,2.3,2.3,2.3c1.3,0,2.3-1,2.3-2.3c0-1.3-1-2.3-2.3-2.3C549,526.3,548,527.4,548,528.7z"/>
	<path class="st9" d="M504.4,514.8c1.9,12.8,4.7,24.8,15.5,31.7c1.1-1.8,6.5-6.4,14.9-6.4s13.1,4.5,14.4,6.4
		c6.6-4.4,10.3-10.7,12.1-18.7c0.4-1.9,0.3-3.6-0.2-5c1.5-2.9,2.6-6.1,3.2-9.5c0.9,11.2-1.2,23.4-2.8,30.4c-1,4.3-2.9,8.1-5.6,11.3
		c-6.2,7.1-14.4,12.9-20.9,13c-6.5,0.1-14.8-5.4-21.2-12.4c-2.8-3-4.8-6.9-5.9-11.1C506.3,537.7,503.9,525.9,504.4,514.8
		L504.4,514.8z"/>
	<path class="st9" d="M520.8,528.7c0,1.3-1,2.3-2.3,2.3c-1.3,0-2.3-1-2.3-2.3c0-1.3,1-2.3,2.3-2.3
		C519.8,526.3,520.8,527.4,520.8,528.7z"/>
	<path class="st16" d="M542,547.8c1.2,0,2,1.3,1.3,2.3c-2,2.8-5.2,4.7-8.9,4.7s-6.9-1.8-8.8-4.5c-0.7-1-0.1-2.4,1.2-2.4L542,547.8
		L542,547.8z"/>
	<path class="st15" d="M545.2,538.4c0,2.1,2.2,3.8,4.9,3.8s4.9-1.7,4.9-3.8s-2.2-3.8-4.9-3.8S545.2,536.3,545.2,538.4z"/>
	<path class="st15" d="M523.7,538.4c0,2.1-2.2,3.8-4.9,3.8s-4.9-1.7-4.9-3.8s2.2-3.8,4.9-3.8S523.7,536.3,523.7,538.4z"/>
	<path class="st9" d="M503.1,506.9c1.4-13.8,10.9-27,31.3-27c20.4,0,29.9,13.2,31.3,27c1.4,13.8-1.6,22.6-2.6,22.1
		c-1.7-0.7-3.6-3.9-3.6-10.2c0-11.9-6.2-16.2-10.6-15.2c-4.2,0.9-7.3,4.1-14.4,4.1c-7.2,0-10.3-3.2-14.4-4.1
		c-4.4-0.9-10.6,3.2-10.6,15.2c0,7.5-1.9,9.5-3.6,10.2C504.7,529.5,501.8,520.7,503.1,506.9z"/>
	<path class="st10" d="M458.4,665v-2.2c0-1.5,0.1-2.5,0.2-3.7c0.1-2.2,0.3-4.4,0.5-6.4c0.9-8.1,2.1-15.4,3.1-21.6
		c0.6-3.1,1.1-5.9,1.6-8.4c0.3-1.3,1-3.2,1.2-4.4c9,3.8,17.7,7.9,27.4,10.1c-0.7,2.6-1.5,5.6-2.4,8.9c-0.8,2.9-1.7,6.1-2.6,9.5
		c-0.9,3.3-1.9,6.9-2.8,10.4c-0.5,1.8-0.9,3.5-1.3,5.2c-0.2,0.8-0.3,1.5-0.5,2.3l-0.2,0.8v0.1l0,0c0-1.2,0-0.3,0-0.6v1.1
		c0,0,0,0.1,0,0.1c0,0,0,0,0,0.3l0.1,1.2c0.1,0.9,0.2,1.8,0.3,2.7c0.3,1.9,0.6,3.9,0.9,5.8c0.6,4,1.3,8,1.9,12c0.7,4,1.3,7.9,2,11.7
		c0.7,3.8,1.3,7.5,2,11c0.7,3.5,1.4,6.8,2.1,9.8c0.4,1.5,0.6,3,1.1,4.3c0.4,1.3,1,2.6,1.6,3.7c1.2,2.2,2.1,4.3,2.6,6
		c0.9,3.5,0.1,5.9,0.1,5.9v0.1c-0.2,0.6-0.6,1.3-1,1.9c-2.2,3-6.5,3.6-9.5,1.4c0,0-2.1-1.5-3.4-4.9c-0.7-1.7-1.1-3.9-1.4-6.4
		c-0.2-1.3-0.4-2.6-0.8-4c-0.4-1.4-1-2.7-1.6-4.2c-1.1-2.9-2.4-6.1-3.7-9.4c-1.3-3.3-2.9-6.8-4.4-10.4c-1.5-3.7-3.1-7.4-4.6-11.2
		c-1.5-3.9-3.1-7.8-4.5-11.9c-0.7-2-1.4-4.1-2-6.2c-0.3-1.1-0.6-2.2-0.9-3.3L459,670c-0.1-0.2-0.2-0.7-0.3-1.2l-0.4-1.4L458.4,665
		L458.4,665z"/>
	<path class="st29" d="M529.2,832.2h86.4v-68.1h-86.4V832.2z"/>
	<path class="st17" d="M566,832.2h49.6v-68.1H566V832.2z"/>
	<path class="st16" d="M581,814.6h21.9v-11.4H581V814.6z"/>
	<path class="st17" d="M743.3,871.6h94.4v-42.8h-94.4V871.6z"/>
	<path class="st18" d="M788.1,871.6h49.6v-42.8h-49.6V871.6z"/>
	<path class="st16" d="M803.1,854h21.9v-11.4h-21.9V854z"/>
	<path class="st29" d="M632,872.8h121v-95.4H632V872.8z"/>
	<path class="st17" d="M683.5,872.8h69.4v-95.4h-69.4V872.8z"/>
	<path class="st16" d="M707.2,855.1h21.9v-11.4h-21.9V855.1z"/>
	<path class="st17" d="M467.6,872.8h168.5v-42.8H467.6V872.8z"/>
	<path class="st18" d="M586.5,872.8h49.6v-42.8h-49.6V872.8z"/>
	<path class="st16" d="M601.5,855.1h21.9v-11.4h-21.9V855.1z"/>
	<path class="st9" d="M471.2,974.8v29.5h50v-14.7h27.8v14.7h51.9v-14.7h25.9v14.7h51.9v-14.7h27.8v14.7h50v-14.7h27.8v14.7h50v-29.5
		H471.2z"/>
	<path class="st29" d="M481.1,976.6h175.9V871.4H481.1V976.6z"/>
	<path class="st17" d="M607.5,976.6h49.6V871.4h-49.6V976.6z"/>
	<path class="st16" d="M622.5,959h21.9v-11.4h-21.9V959z"/>
	<path class="st29" d="M655.6,976.6h168.5V871.4H655.6V976.6z"/>
	<path class="st17" d="M774.5,976.6h49.6V871.4h-49.6V976.6z"/>
	<path class="st16" d="M789.5,959h21.9v-11.4h-21.9V959z"/>
</g>
</svg>
