<?xml version="1.0" encoding="utf-8"?>
<!-- Generator: Adobe Illustrator 28.2.0, SVG Export Plug-In . SVG Version: 6.00 Build 0)  -->
<svg version="1.1" id="Layer_1" xmlns="http://www.w3.org/2000/svg" xmlns:xlink="http://www.w3.org/1999/xlink" x="0px" y="0px"
	 viewBox="0 0 1920 1000.9" style="enable-background:new 0 0 1920 1000.9;" xml:space="preserve">
<style type="text/css">
	.st0{opacity:0.3;}
	.st1{fill:#86975C;}
	.st2{fill:#83A532;}
	.st3{fill:#719913;}
	.st4{fill:#632424;}
	.st5{fill:#D4DDBA;}
	.st6{fill:#87B11A;}
	.st7{fill:#5E7C12;}
	.st8{fill:#516E0E;}
	.st9{fill:#0A4975;}
	.st10{fill:#23649A;}
	.st11{fill:#30282B;}
	.st12{fill:#312827;}
	.st13{fill:#473B3A;}
	.st14{fill:#012F49;}
	.st15{fill:#339AD3;}
	.st16{fill:#FFFFFF;}
	.st17{fill:#5B5B5B;}
	.st18{fill:#737373;}
	.st19{fill:#333333;}
	.st20{fill:#9B9B9B;}
	.st21{fill:#F2F2F2;}
	.st22{fill:#C6C6C6;}
</style>
<g class="st0">
	<path class="st1" d="M-211.2,553.4c-1.1,18.4,5.6,37.6,19.7,49.6c6.3,5.4,14.1,8.9,22.2,10.2c-1.5,10.6-0.5,21.5,3.4,31.5
		c1,2.5,2.1,4.8,3.3,7.1c8.4,14.9,23.2,25.5,40.1,29.6c0.9,16.2,10.9,31.6,25.3,39s33.1,7.7,46.9-0.9c6.1,10.1,21.2,15.4,32.3,11.3
		c-1.2,15.4,7.7,30.5,20.6,38.9c10.4,6.8,22.9,9.6,35.4,9.4c3-0.1,6.1-0.3,9.1-0.7c2.3-0.3,4.6-0.7,6.8-1.3
		c-0.9,50.6-6.2,101.1-15.7,150.8c16.6,1.7,33.4,4.2,49.9,6c9.9-52.5,11.2-106.3,6-159.9c10,3.6,21.1,4.2,31.4,1.6
		c17.3-4.4,31.6-18.3,37.4-35.1c7.3,1.8,15.4-0.7,20.4-6.3s7.2-14.4,4.5-21.4c14.7-6.5,26.1-19.8,30.7-35.1c1.3-4.2,2.1-8.6,2.3-13
		c0.4-9.5-1.8-19-6.2-27.5c3.6-4.2,6.4-9.2,8.3-14.7c24.2-8.2,42.1-32.5,42.7-58c0.2-10-2.2-20.2-6.6-29.6
		c-6.9-14.7-18.9-27.2-33.5-32.9c16.7-7.4,26.6-27.4,22.5-45.1s-21-31.6-39.2-30.9c10.7-25.5,2.3-57.7-19.5-74.7
		c-21.8-17-55.5-18.1-77.6-1.4c-11.9-7.2-29.4-3.2-36.6,8.7c-7-9.3-17.8-15.6-29.3-17.2c-11.6-1.5-22.2,1-31.4,8.1
		c-12.2-30.9-43.5-53.3-76.7-55.1c-33.2-1.8-66.7,17.2-82.1,46.6c-15.5,29.4-14.2,69.5,6.2,95.9c-11.9,0.4-23.9,2.3-34.6,7.6
		c-3.4,1.7-6.6,3.7-9.6,6.1c-6.3,5.1-11.4,11.8-13.9,19.5c-3.7,11.3-3.3,25,5.5,33C-202,517.5-210.1,535-211.2,553.4L-211.2,553.4z
		 M147,578.9c2.5-0.7,4.8-1.5,6.8-2.6c-0.6,2.5-1,5-1.5,7.5C150.6,582.2,148.8,580.6,147,578.9L147,578.9z"/>
	<path class="st1" d="M280.4,514.3c-9.1-6.2-13.6-18.3-10.9-28.9s12.2-22.9,23.1-23.9c-33.5,2-65.9-17.1-85.5-44.3
		c-19.5-27.2-27.3-61.4-27.8-94.8c-0.5-28.4,4.6-58.3,22.7-80.2c8.2-10,18.8-17.8,30.6-23.1c10.9-5,22.8-8,34.8-8.8
		c24.9-1.7,48.3,5,70.1,17.2c3.6-15.2,12.6-29.8,26.7-36.4s32.6-2.6,40.3,10.9c-5-22.3-7.8-45.4-4.8-68s12.3-44.9,28.6-60.9
		c16.4-16,40.3-24.8,62.8-20.3c22.4,4.5,43.6,23.6,45.6,46.4c9.6-10,22.1-17.6,35.8-19.4c13.7-1.9,28.6,2.7,37.6,13.2
		c6.9,8.1,9.9,18.9,10.3,29.5c0.4,10.6-2,18.7-4.1,29.1c11.5-2.2,24,5.5,27.3,16.8c1.7,5.9,0.8,12.6-2,18.4
		c10.8-9.8,22.8-18.1,36.4-23.2c18.8-7,40.9-7.1,58.1,3.3c17.2,10.4,26.2,31.9,20.1,51c11.3-6.6,27.2-3.6,35.3,6.6
		c8.2,10.2,6.7,25.3-2.2,34.8c24.2-1.6,49.3,3.3,69.5,16.7c7.7,5.1,14.7,11.5,20.5,18.8c9.3,11.8,15.4,26,16.5,40.9
		c1.8,24.2-11.3,48.2-32.8,59.4c13.7,8,20.2,26.3,14.6,41.1c-5.6,14.8-19.9,23.6-35.4,20.5c7.8,34.4-7.6,72.9-37.1,92.6
		c-0.8,0.6-1.7,1-2.5,1.5c1.2,10.8,0.2,21.9-3.4,32.3c-2.1,6.2-5.2,12.1-9,17.4c-10.5,14.7-26.7,25.6-44.3,30.1
		c6.3,21.7-2.2,46.8-20.4,60.2s-44.7,15.1-63.6,2.7c-0.5,10.3-8.6,19.6-18.7,21.6c-9.6,1.9-19.6-2.3-24.3-10.8
		c-0.2-0.4-0.4-0.8-0.6-1.2c-2.5,5.9-5.9,11.5-10,16.4c10.7,96.7,7.4,195.2-9.3,289c-37.4-13.5-75.7-25.6-114.4-35.1
		c26.4-75,42.1-153.8,46.9-233.2c-15.3-5.8-28.7-16.8-36.6-31c-5.5,6.2-12.9,10.7-21,12.9c-7.2,2-14.9,2.2-22.1,0.4
		c-15.4-3.9-28.1-18.6-31.7-34c-12.6,14.9-36.7,16.6-53.5,6.5c-16.7-10.1-26.2-29.5-28.3-48.9c-0.1-0.7-0.1-1.3-0.1-2
		c-1.9-0.5-3.7-1.1-5.5-1.8c-12.5-4.9-23.1-15.6-31.5-26.1c-21.7,7.8-47.8,3.7-64.9-11.8s-23.5-42.3-13.8-63.1
		C232.5,520,258.6,506.9,280.4,514.3L280.4,514.3z"/>
</g>
<g>
	<path class="st2" d="M340,622.7c3,23.8-9.9,48.7-30,58.8c-0.9,0.4-1.7,0.8-2.6,1.2c-4.3,1.8-9.1,3-13.6,1.6s-9.2-6.3-8.5-11.3
		c-3.8,9.6-12.3,16.8-21.8,18.4c-7.9,1.4-15.9-1.3-22-6.6c-1.2-1.1-2.4-2.3-3.5-3.6c-7.4,20-25.5,35-45.3,37.6
		c-3.3,0.4-6.5,0.5-9.7,0.2c-16.3-1.4-31.6-11.4-41.2-26.1c-1.4,9-7,17.1-14.5,21.3c-1.4,0.8-2.9,1.5-4.4,2
		c-9.7,3.1-20.9-1.7-27.8-9.8c-3.5,5.2-8.8,8.9-14.6,10.4c-4,1-8.3,1.1-12.3-0.1c-9.8-2.9-16.1-13.9-16.9-24.7
		c-9.3,2.8-19.6-0.8-26.9-7.8c-0.9-0.9-1.9-1.8-2.7-2.8c-7.3-8.8-10.7-20.8-11.3-32.6s1.5-23.6,3.8-35.1c2-10.1,4.3-20.3,9.4-28.9
		c5.1-8.7,13.6-15.7,23.1-15.9c-2.9-41.3-12.9-104.7,16.2-131.4c0.4-0.4,0.7-0.7,1.1-1c30.4-26.2,108.8-25.3,147.3-19.2
		c33.6,5.3,65.1,22.6,90.5,47.1c3.7,3.5,7.2,7.2,10.6,11.1c5,5.7,9.8,11.7,14.1,18c7.6,11.1,14.1,23.1,18.7,35.9
		c1.8,5,3.3,10.1,4.5,15.3C355.7,570.5,353.6,600,340,622.7z"/>
	<g>
		<path class="st3" d="M340,622.7c3,23.8-9.9,48.7-30,58.8c-0.3-0.2-0.5-0.4-0.8-0.7c-13.5-11.6-17.9-33.4-10.8-50.3
			c-10.6,1.5-22.3-1.1-29.4-9.7c-5.9-7.1-7.8-17.4-7-26.9s3.7-18.7,6.9-27.6c-8.8,1.8-19.6-6.8-19.7-16.4
			c-10.8,43.4-14.2,90.3-7.8,135c-1.2-1.1-2.4-2.3-3.5-3.6c-7.4,20-25.5,35-45.3,37.6c-3.3,0.4-6.5,0.5-9.7,0.2
			c-5.8-38.9-4.9-78.4,1.6-117.3c-10.7,6.2-23.5,8.2-35.4,5.4s-22.7-9.6-30.1-20.1c-2.6,8.6-10.6,14.6-19.1,14.1
			c2.3,9.4,4.1,19.3,2.2,28.8s-8.5,19.1-17.4,20.8c7.6,24.9,22.7,48.1,42.6,63.3c-1.4,0.8-2.9,1.5-4.4,2c-9.7,3.1-20.9-1.7-27.8-9.8
			c-3.5,5.2-8.8,8.9-14.6,10.4c-12-14.4-20.3-32.2-23.8-51.3c-8.1,10.3-20,17-32.4,18.6c-0.9-0.9-1.9-1.8-2.7-2.8
			c-7.3-8.8-10.7-20.8-11.3-32.6s1.5-23.6,3.8-35.1c2-10.1,4.3-20.3,9.4-28.9c5.1-8.7,13.6-15.7,23.1-15.9
			C43.7,527.4,33.7,464,62.8,437.3c80.1,2.9,160.1,11.9,239,26.9c3.6,0.7,7.2,1.3,10.8,2.1c4.6,9,9.3,18,13.9,27
			c6.2,12,12.4,24,18.7,35.9c1.8,5,3.3,10.1,4.5,15.3C355.7,570.5,353.6,600,340,622.7z"/>
	</g>
	<path class="st4" d="M347.1,966.8c-37.4-65.7-73.5-132.9-96.5-205.8c-11.3-35.9-19.4-73.6-22.7-111.6
		c41.1-17.3,76.7-64.4,81.3-111.3c-2.5-0.3-5.3-0.4-7.8-0.7c-6.7,41-37.6,75.4-74.9,85.6c-0.7-30.4,1.7-60.7,8.4-90.1
		c-9.4-1-18.8-2-28.2-3.1c-14,72.1-16.6,148.6-9.8,224.5c-35.9-4-107.4-34.9-124.2-114.1c-2.7,0-6-1.1-8.7-1.1
		c13.9,72.5,70.4,127.6,136.4,148c8.5,67.4,24.3,133.6,46.2,195C280.9,980.1,313.6,975.9,347.1,966.8L347.1,966.8z"/>
	<path class="st2" d="M425.9,470.1c-0.6,10.5-10.8,19-20.4,17c6.7,6.5,8.2,18.7,4.9,27.8c-3.3,9-12.1,15.4-21.1,15.2
		c18.1,20.6,34.2,45.6,33.7,73.9c-0.5,28.4-20.1,57.3-46.3,59.2c-18.9,1.3-36.3-10.8-50-24.9c-33-34-52.7-82.5-53.4-131.8
		c-2.7,5.9-9.4,10.3-15.5,10.4c-6.1,0.2-12.1-3.5-15-9.2c3.4,9.5,1.9,20.9-3.2,29.4c-5.1,8.5-15.2,13.7-24.3,11.2s-16-13.2-13.8-23
		c-4.5,14.5-11.8,30.2-21.7,41.2c-9.8,11-26.3,16.6-38.5,8.8c-7.6-4.9-12.1-13.9-15.3-22.9c-7.8-22-9.9-46.3-6-69.5
		c-21.8,8.3-47.8,3-64.9-13.7c17.2,18,30.2,40.8,37.7,65.5c3.1,10.1,5.3,21,3.1,31.4c-2.2,10.4-12,25.7-21.8,27
		c9.8,6,15.3,19,13.3,31c-2,11.9-11.5,22-22.6,23.9s-23-4.4-28.4-15c-9.2,20.5-25.5,38.4-45.4,46.1c-19.9,7.6-43.3,5.2-60.6-7.9
		c-12.6-9.5-21.4-24.6-24-40.7c-1-6.2-1.1-12.5-0.2-18.7c3.4-22.5,21.1-42.1,42.1-44.7c-12.4-6.8-19.2-21.3-19.4-36.3
		s7.9-29.8,20.2-37c12.2-7.1,28.2-6.3,39.7,2.1c-3.1-5.4-3.3-12.1-0.1-17.5c3.1-5.4,9.3-8.4,15-7.7c-18.3-20.8-36.5-41.8-45.3-69
		c-8.8-27.1-10.3-57.5-0.8-84.4c9.4-26.8,30.6-49.4,56.5-55.9c25.9-6.6,55.7,4.9,69.5,29.4c-3.6-18.4,10.3-40.8,27-46.4
		c16.7-5.6,36.5,4.5,43.1,21.8c5.9-14,23-25,37.3-24.5s27.7,9.9,35.1,23.1c7.3,13.2,8.8,29.8,5,44.6c4.8-8.2,17.9-9.2,25.3-3.6
		s10.6,16,10.5,25.7c-0.1,9.8-3.2,19.1-6.2,28.3c5.8-5,15.6-2.3,21.1,3.1c5.6,5.4,8.3,13.3,10.3,21.1c7.5-20.8,14.2-41.6,27.2-58.9
		s32.3-30.6,52.9-29.8c8.3,0.3,16.2,2.9,23.3,7.3c17.7,10.9,30.6,32.4,33.8,54.7c4.5,31.3-6,62.8-20,90.6
		C419.2,447.1,426.4,459.7,425.9,470.1z"/>
	<g>
		<path class="st3" d="M425.9,470.1c-0.6,10.5-10.8,19-20.4,17c6.7,6.5,8.2,18.7,4.9,27.8c-3.3,9-12.1,15.4-21.1,15.2
			c18.1,20.6,34.2,45.6,33.7,73.9c-0.5,28.4-20.1,57.3-46.3,59.2c-18.9,1.3-36.3-10.8-50-24.9c-33-34-52.7-82.5-53.4-131.8
			c-2.7,5.9-9.4,10.3-15.5,10.4c-6.1,0.2-12.1-3.5-15-9.2c3.4,9.5,1.9,20.9-3.2,29.4c-5.1,8.5-15.2,13.7-24.3,11.2s-16-13.2-13.8-23
			c-4.5,14.5-11.8,30.2-21.7,41.2c-9.8,11-26.3,16.6-38.5,8.8c-7.6-4.9-12.1-13.9-15.3-22.9c-7.8-22-9.9-46.3-6-69.5
			c-21.8,8.3-47.8,3-64.9-13.7c17.2,18,30.2,40.8,37.7,65.5c3.1,10.1,5.3,21,3.1,31.4c-2.2,10.4-12,25.7-21.8,27
			c9.8,6,15.3,19,13.3,31c-2,11.9-11.5,22-22.6,23.9s-23-4.4-28.4-15c-9.2,20.5-25.5,38.4-45.4,46.1c-19.9,7.6-43.3,5.2-60.6-7.9
			c-12.6-9.5-21.4-24.6-24-40.7c1.6,3.2,3.6,6.2,6,8.6c8.4,8.4,20.4,11.6,31.8,11.3c9.7-0.2,19.5-2.8,27.7-8.4
			c8.2-5.6,14.7-14.4,17-24.6c-10-2.8-17.2-14.5-15.5-25.5c9.2,1.4,17.2,8.6,19.9,18.3C-6.6,599.3-2.3,588.5,5,581
			c1.7,9.2,0.9,18.1-2,27c3.4,4.1,9.9,4.8,14.6,2.5s7.8-7.4,8.7-12.8c0.9-5.4-0.3-11.1-2.7-15.9c6.5,2.5,14.4,1,19.3-4.2
			s6.8-13.5,4.7-20.6c-2-6.6-7.4-11.8-13.7-13.4c6.8,0.7,14-4.4,17-11.1c-5.5-2.7-12.6-1.4-17,3.1c6.7-7.8,8.1-20.5,7.9-31.1
			c-0.6-25.5-10.5-50.6-27.1-68.8c9.7,7.4,20.1,13.7,30.8,19.4c10.7,5.7,22.4,9.5,34.2,9.3c11.9-0.2,24-4.7,32.3-13.9
			c-5.6-2.4-9.5-10-8-16.2c4,3.1,7.3,7.2,9.6,11.9c0.5-6.6,2.9-12.6,6.9-17.5c0.9,6.2,0,12.5-2.4,18.2c8.1-4.3,15.3-10.4,20.1-18.6
			c-2.5,9.2-4.8,20.1-4.7,29.7s3,19.6,9.5,26.1c5.9,6,14.6,8.6,22.5,6.8c7.9-1.8,14.9-8,18-16c0.5,5.7,4.9,11.1,10,12.8
			c1.1-5.2-1.3-10.9-5.6-13.6c3.5,1.6,7.6,1,11.1-0.6c-2.7-1.9-6-3.1-9.2-2.9c6.1-6,9.2-15,8.8-23.9c0.2,5.1,3,9.6,6.5,13.1
			s8,5.6,12.6,6.4c2.8,0.4,5.7,0.4,8.4-0.5s5.1-2.9,6.4-5.6c-3.6-1.6-6.7-4.8-7.9-8.8s-0.6-8.6,1.4-12.2c4.3,5.3,7.2,11.6,8.3,18.5
			c1.4-6.4,4.5-12.2,9.1-16.5c0.8,5.8-1,11.8-4.7,16.1c7-5,12.3-12.7,14.7-21.4c-0.3,5.7,1.9,11.2,5.5,15.4c3.6,4.2,8.7,6.8,14,7
			c-4.5,1.2-8.3,4.4-9.8,9.2c4.5-0.7,8.9-2.9,12.2-6.3c-0.9,2.7-1.2,5.6-0.7,8.4c1.8-1.8,3.8-3.5,5.6-5.2
			c-2.4,18.8,1.4,38.4,9.6,55.2c4.1,8.5,9.7,16.4,17.2,21.7c7.5,5.2,17,7.4,25.5,4.3c8.4-3.1,15.1-12.1,14.6-21.7
			c-4.5,0.7-9.9-1.3-12.9-5.1c3.9-2.5,9-2.7,13.1-0.5c-3-3.3-4.8-7.8-4.7-12.4c4,1.8,7.3,5.3,8.5,9.9c4.2,1.6,8.9,2.8,13.4,3
			s9.3-1.3,12.2-4.9c2.1-2.6,3-6.1,3.1-9.5c0.2-8.1-4.7-16.1-11.8-19c6.8-1.1,14.3-2.9,18.6-8.7c3.8-5.1,4.1-12.6,1.9-18.8
			c-2.2-6.1-6.5-11.1-11.1-15.5c13.2-5.7,21.2-21,27-35.1c6.1-15,10.1-31.1,10.3-47.4c0.2-16.3-3.5-32.9-11.7-46.6
			c-2.2-3.7-4.8-7.2-7.7-10.4c17.7,10.9,30.6,32.4,33.8,54.7c4.5,31.3-6,62.8-20,90.6C419.2,447.1,426.4,459.7,425.9,470.1z"/>
	</g>
	<g>
		<path class="st3" d="M362.3,393.5c-3.8-5.9-5.3-13.4-4.1-20.4c4.2,3.7,7,9.4,7.3,15.2c0.2-3.7,1.9-6.8,4.1-9.6
			c2.2-2.8,4.8-5.1,7.5-7.4c-0.1,7.3-3.3,14.4-8.4,19.2c4.5-2.1,9.6-2.3,14.2-0.4C377.5,395.1,369.2,395.5,362.3,393.5L362.3,393.5z
			"/>
	</g>
	<g>
		<path class="st3" d="M348.6,351.5c-1.6-5.2-1.2-11,1.1-15.9c2.2-4.9,6.3-8.8,11-10.7C359.7,334.7,353.3,343.2,348.6,351.5z"/>
	</g>
	<path class="st2" d="M930.7,453.4c-5.5,16.9-19.6,28.5-35.9,31c11.3,8.4,17.7,24,15.8,38.7c-1.9,14.7-11.7,30.2-24.7,35
		c1.1,15.8-5,32.1-16.1,42.5s-26.8,14.9-41.1,11.5c-5.5-1.3-10.8-3.7-14.8-7.8c-4-4.2-6.1-10.2-5.1-16.1
		c-9,13.9-25.7,21.4-41.1,18.5h-0.1c-15.4-2.9-30.1-20-34.1-36.3c-1.7,22.5-18,42.9-38.5,47.9c-7.4,1.8-15.2,1.7-22.8-0.1
		c-13.4-3.2-25.8-11.8-32.6-24.2c4.8,13.6,0.1,30-10.1,39.3c-2.4,2.1-5,3.9-7.9,5.1c-15.4,6.7-33.9-2-40.4-18.4
		c-0.9,0.7-1.8,1.4-2.8,2c-15.2,10.2-36.9,6.6-50-6.9c-7.7-8-12.6-18.6-14.5-29.9c-1.6-9.1-1.4-18.6,0.6-27.6
		c4.5-20.2,17-37.5,32.3-50.1C558,433,621.3,359.9,687,333.8c65.6-26.1,132.9,11.6,199.1,36.1c15.7,5.8,29.9,16.9,38.6,32.1
		c2,3.5,3.7,7.2,5,11C934.2,425.9,934.9,440.3,930.7,453.4z"/>
	<g>
		<path class="st3" d="M929.7,412.9c-10.9,20.4-30,35.8-51.5,40.4c-29.2,6.1-58.9-9.8-75.5-36.4c-8.5,9.9-25,9.8-33.7,0
			c-0.9,10.7-6.3,20.7-14.4,26.9c-8.1,6.2-19.4,8.7-29,6.1c24.6,48.1,38.7,102,42,156.8c-15.4-2.9-30.1-20-34.1-36.3
			c-1.7,22.5-18,42.9-38.5,47.9c-7.4,1.8-15.2,1.7-22.8-0.1c-0.7-51-2.1-102-2.6-153c-9.4,1.2-18.7-3.2-25.2-10.6
			c2.9,14.1,4.7,28.6,3,42.9s-7.2,28.4-17,38.2s-24.8,15.5-37.6,11.2c6.7,31,19,60.9,36.7,86.4c-2.4,2.1-5,3.9-7.9,5.1
			c-15.4,6.7-33.9-2-40.4-18.4c-0.9,0.7-1.8,1.4-2.8,2c-7.5-15.6-13.5-32.1-17.8-49.2c-9.5,9.5-22.5,14.7-35.4,14.3
			c-3.8-0.1-7.6-0.8-11.3-1.9c-1.6-9.1-1.4-18.6,0.6-27.6c4.5-20.2,17-37.5,32.3-50.1C558,433,621.3,359.9,687,333.8
			c65.6-26.1,132.9,11.6,199.1,36.1c15.7,5.8,29.9,16.9,38.6,32.1C926.7,405.4,928.3,409.1,929.7,412.9z"/>
	</g>
	<path class="st4" d="M702.8,405.2c-10.5,3.2-21,6.4-31.5,9.7c20.6,97.8,24.7,199.4,14.1,299.4c-55.2-54.7-93.4-129.1-107.5-208.8
		c-5-0.8-10.3,0.2-14.8,2.7c15.3,95.1,55.1,188.3,115,260.1c-13.8,85.6-38.5,169.1-73.3,247.1c48.4,4.3,95.2,6.6,143.6,10.9
		C787.2,825,768.7,598.1,702.8,405.2L702.8,405.2z"/>
	<path class="st2" d="M896.8,386.8c-9.4,16-28.7,23.3-46.1,20.7c-17.4-2.6-33-13.6-45.3-27.1c-10.2,8.8-22.7,11.1-34.9,6.3
		c-12.2-4.8-21.7-16.9-24.1-30.7c-0.4,7.2-5,14.1-11.1,17s-13.7,1.9-18.9-2.6c5.7,7.2,9.4,16.6,9.7,26.1c0.2,9.5-4,19.4-11.8,23.9
		s-18.8,2-23.1-6.3c-9.3,7.3-23.1,8.3-31.8,0.1c-8.6-8.2-13.2-17.6-7.8-28.5c-9.8,17.9-32.8,25.7-50.3,17
		c11.4,17.8,17.8,38.4,20,59.9c1.4,13.3,0.8,26.9-3.5,39.4c-4.3,12.4-12.8,23.6-24.1,28.9s-25.5,3.8-34.7-5.1
		c-1.8,9.6-8.7,19.2-16.9,23.5c-8.1,4.4-17.7,5.2-26.6,3.7c-15.2-2.6-29.3-11.9-38.3-25.3c-9-13.4-12.8-30.8-10.3-47.2
		c-12.2,4.1-27,0.3-37.7-7.2s-18.6-19.1-23.9-31.6c-4.4-10.4-7-21.9-7.4-33.4c-0.2-7.4,0.5-14.7,2.3-21.8
		c4.6-18.2,16.8-34.4,33.1-41c16.3-6.7,36.4-2.7,48.2,11.2c-8-10.4-7.3-28.2-1.1-40c-21.6-24.8-38.6-54.1-43.3-87.7
		c-4.6-33.7,3.2-69.9,24.1-95.5c20.9-25.5,55.2-38.5,85.5-29c-6.7-20.2-2-45.1,10.3-61.9c12.5-17.1,33-26.6,52.8-24.4
		c19.7,2.2,38.1,15.8,47,35c1.1-19.2,22-34.8,39.7-33.8c17.8,1,33.3,15.5,39.9,33.4c6.6,17.8,5.2,38.2-0.5,56.4
		c11.7-12,31.2-16,45.3-7.6c14.1,8.3,22.3,27.1,19.1,44.2c11.2-9.7,30.3-8.9,41.8,0.4c11.6,9.3,16.2,27.3,10.9,41.7
		c10,0.6,19.8,3.8,28.6,9c18.3,10.7,32.7,29.8,38,51.4c7.9,32.1-5.3,68.9-31.2,86.8C903.8,344.3,906.2,370.8,896.8,386.8z"/>
	<g>
		<path class="st5" d="M537.6,483.2c-0.2-1.7-0.1-3.4,0.1-5C537.8,479.9,537.8,481.6,537.6,483.2z"/>
	</g>
	<g>
		<path class="st3" d="M896.8,386.8c-9.4,16-28.7,23.3-46.1,20.7c-17.4-2.6-33-13.6-45.3-27.1c-10.2,8.8-22.7,11.1-34.9,6.3
			c-12.2-4.8-21.7-16.9-24.1-30.7c-0.4,7.2-5,14.1-11.1,17s-13.7,1.9-18.9-2.6c5.7,7.2,9.4,16.6,9.7,26.1c0.2,9.5-4,19.4-11.8,23.9
			s-18.8,2-23.1-6.3c-9.3,7.3-23.1,8.3-31.8,0.1c-8.6-8.2-13.2-17.6-7.8-28.5c-9.8,17.9-32.8,25.7-50.3,17
			c11.4,17.8,17.8,38.4,20,59.9c1.4,13.3,0.8,26.9-3.5,39.4c-4.3,12.4-12.8,23.6-24.1,28.9s-25.5,3.8-34.7-5.1
			c-1.8,9.6-8.7,19.2-16.9,23.5c-8.1,4.4-17.7,5.2-26.6,3.7c-15.2-2.6-29.3-11.9-38.3-25.3c-9-13.4-12.8-30.8-10.3-47.2
			c-12.2,4.1-27,0.3-37.7-7.2s-18.6-19.1-23.9-31.6c-4.4-10.4-7-21.9-7.4-33.4c4.1,8.7,9.9,16.5,17,22.7
			c14.2,12.3,33.3,17.7,51.2,14.4c-6.6-10.6-1.7-26.3,8.9-32c2,8.9,1.7,20.9,0.9,30c6.2-12.2,17.1-21.5,29.7-24.6
			c-1.8,13.1-10.9,24.7-22.8,27.9c-2,9.6-2.3,20.5,0.2,29.9c2.4,9.5,7.8,18.2,15.6,23.3c7.7,5.2,17.8,6.4,26.1,2.2
			c6.8-3.5,11.9-10.8,12.9-18.8c0.6,6.4,3.5,12.7,8.2,16.7c2.3-6.8,2-14.4-0.4-21.1c6.7,6,17,2,22.1-5.6s5.5-17.7,4.2-27
			c-3-22.6-14.9-43.8-32-57.2c8.8,1.6,16.2,1.8,25,1.5c8.9-0.3,17.9-2.6,25.1-8.3c7.2-5.7,12.2-15,11.6-24.5
			c-8.3-4.4-12.3-15.3-9.8-25c7.2,3.1,12.9,9.5,15.4,17.5c1.6-8.7,5.9-16.2,12-22.2c3.5,8.2,1.9,18.6-3.7,25.2
			c6.9,6.6,16.1,10.7,25.3,9.7s17.9-6.4,23.3-14.5c-0.6,7.5,3.3,14.6,9.8,17.3c6.5,2.7,14.2,1.1,19.8-3.3s9.4-11.3,11.1-18.5
			c1.7-7.3,1.6-15,0.5-22.4c3.3,2.4,7.1,3.6,11.1,3.6c15.7,0.1,31.2-7.2,41.8-19.6c-6.6,8.1-6.9,21.3-0.5,29.6
			c4-8.9,7-18.9,7.8-28.8c1.3,8.5,7.5,15.9,15.1,18.3c0.5-7.7-2.1-15.6-7-21.2c6.4-4.5,11.8-10.8,15.3-18.1
			c2.2,10.6,4.5,21.1,8.8,30.9s10.8,18.8,19.6,23.8c8.9,5,20.3,5.4,28.6-0.7s11.9-19.3,6.7-28.5c-7.7,1-15.2-5.8-17.7-13.8
			c5.8-1.5,12.7-0.3,17.2,3.9c16-0.6,30.8-11.5,38.9-26.4c8-14.9,9.3-33.5,4.8-50.1c-2.8-10.2-7.6-19.7-13.9-27.9
			c18.3,10.7,32.7,29.8,38,51.4c7.9,32.1-5.3,68.9-31.2,86.8C903.8,344.3,906.2,370.8,896.8,386.8z"/>
	</g>
	<g>
		<path class="st3" d="M551.4,199.1c-3.5,4.9-9,8.1-14.7,8.7c-5.7,0.6-11.6-1.4-16-5.4c7-5.2,15.9-7.1,24.4-6.6
			c-7-2.8-12.1-10.3-12.5-18.3C540.4,181.6,547.1,190.7,551.4,199.1L551.4,199.1z"/>
	</g>
	<g>
		<path class="st3" d="M537.8,323.2c-2.5,3.4-6.3,5.7-10.4,6.1c-4,0.4-8.2-1-11.3-3.9c4.9-3.7,11.3-5,17.2-4.6c-5-2-8.5-7.3-8.8-13
			C530.1,310.8,534.7,317.3,537.8,323.2L537.8,323.2z"/>
	</g>
	<g>
		<path class="st3" d="M569.6,153.7c-7.7,1-15.7-1.6-21.6-6.9c5.9-2.5,12.7-2.5,18.5,0.4c-3.3-2.3-5.4-5.9-6.9-9.9
			c-1.4-3.9-2.1-8.2-2.8-12.4c6.9,4.2,11.8,11.7,13.5,20c0.5-6.1,3.2-11.9,7.5-15.9C579.6,137.9,575.3,147.2,569.6,153.7
			L569.6,153.7z"/>
	</g>
	<g>
		<path class="st3" d="M825.7,241c-3.8-5.9-5.3-13.4-4.1-20.4c4.2,3.7,7,9.4,7.3,15.2c0.2-3.6,1.9-6.8,4.1-9.6
			c2.2-2.8,4.8-5.1,7.5-7.4c-0.1,7.3-3.3,14.4-8.4,19.2c4.5-2.1,9.6-2.3,14.2-0.4C840.9,242.6,832.7,243,825.7,241L825.7,241z"/>
	</g>
	<g>
		<path class="st3" d="M667.3,125c-3.4-4-5.3-9.5-5.2-15c0.1-5.4,2.3-10.8,5.9-14.6C671,104.7,668.4,115.3,667.3,125L667.3,125z"/>
	</g>
	<g>
		<path class="st3" d="M787,193.1c-1.6-5.2-1.2-11,1.1-15.9s6.3-8.8,11-10.6C798.1,176.2,791.7,184.7,787,193.1z"/>
	</g>
</g>
<g>
	<g>
		<g>
			<path class="st6" d="M494.6,863.9c-5.9,12.3-18,23.7-28.7,32.1c-5.3-0.1-10.6-0.2-15.9-0.2c-47.5-0.3-95,2.6-142.2,8.5
				c-3,0.4-5.9,0.7-8.9,1.1c-11-8.6-24.8-15.4-37.9-20.2c-7-2.5-14.3-4.5-20.4-8.7c-6.1-4.2-10.9-11.3-10-18.7
				c0.9-6.9,6.7-12.4,13.3-14.6c6.6-2.2,13.8-1.7,20.6-0.4c19.6,3.7,38,13.4,52.3,27.4c-11.7-12-22.7-24.7-34.5-36.6
				c-4-4.1-8.1-8.2-10.8-13.3c-2.7-5.1-3.7-11.4-1.4-16.6c3.2-7.3,11.9-10.7,19.9-11c16-0.7,31.2,7.8,42.4,19.2
				c11.2,11.5,18.9,25.8,26.5,40c-2.3-11.4-0.1-23.5,6.4-33.1c2.5-3.7,6-7.2,10.5-7.8c5.3-0.7,10.2,3.1,13.6,7.2
				c7.1,8.6,10.9,20,10.2,31.2c2.6-21.2,12.8-41.3,27.8-56.5c3.5-3.6,7.4-6.9,12.1-8.9c4.6-1.9,10.1-2.3,14.6,0.1
				c6.8,3.6,9.2,12.2,10,19.8c2.2,18.9-0.7,38.4-8.3,55.9c7.4-8,17.7-13,28.5-14.5c3.3-0.5,7-0.5,9.6,1.5
				C498.8,850.7,497.2,858.4,494.6,863.9z"/>
			<g>
				<path class="st3" d="M470.1,870.2c-0.5,1.8-1.8,3.4-3,4.9c-5.7,6.9-11.4,13.8-17.2,20.8c-47.5-0.3-95,2.6-142.2,8.5
					c-6.7-6.9-13.3-13.9-20-20.8c-2.4-2.5-4.9-5.8-3.6-8.9c1.2-3,5.2-3.7,8.4-3.7c13.8,0.2,27.4,5.3,37.9,14.3
					c-6.5-14.7-11.4-29.7-18-44.4c-0.9-2-1.8-4.2-1.3-6.4c0.7-3.1,4.1-4.9,7.2-4.7c3.1,0.1,6,1.8,8.6,3.4
					c16.1,10.4,29.3,25.3,37.6,42.6c1.3-6.4,3.9-12.2,5.2-18.6c0.6-3,1.4-6.2,3.9-8c2.1-1.5,4.9-1.6,7.3-0.7
					c2.4,0.9,4.4,2.6,6.1,4.5c5.8,6.4,9,15.1,8.7,23.8c4.2-13.7,10.9-26.8,19-38.6c2-3,4.2-5.9,7.1-8s6.7-3.2,10.2-2.2
					c4.5,1.3,7.3,5.7,9.1,10c5.3,12.3,6,26.5,2,39.3c5.4-5.5,12-9.4,19.2-12.1c2-0.8,4.4-1.4,6.2-0.1
					C470.3,866.1,470.7,868.4,470.1,870.2z"/>
			</g>
		</g>
		<g>
			<path class="st6" d="M1228.2,871.4c-7.3,11.3-20.6,21-32.1,27.9c-5.2-0.8-10.4-1.5-15.5-2.2c-46.6-6.2-93.5-9.4-140.4-9.5
				c-2.9,0-5.9,0-8.8,0c-9.8-9.8-22.4-18.2-34.6-24.6c-6.5-3.3-13.4-6.2-18.9-11.1c-5.5-4.9-9.3-12.5-7.4-19.6
				c1.7-6.7,8.1-11.3,14.9-12.7c6.7-1.4,13.7,0.1,20.2,2.2c18.8,6.1,35.6,17.9,47.9,33.4c-9.9-13.2-19.2-27-29.2-40.2
				c-3.4-4.5-6.9-9.1-8.9-14.4c-2-5.3-2.2-11.6,0.7-16.5c4.1-6.8,13-9,20.8-8.3c15.7,1.3,29.7,11.5,39.2,24.2s15.3,27.7,21,42.5
				c-0.9-11.5,2.8-23.1,10.4-31.7c3-3.3,6.8-6.3,11.2-6.3c5.3,0,9.6,4.3,12.4,8.8c5.9,9.4,8.1,21,6.1,31.9
				c5.2-20.4,17.7-38.9,34.2-51.9c3.9-3.1,8.2-5.9,13-7.2s10.2-1,14.3,1.9c6.2,4.4,7.5,13.1,7.4,20.7c-0.2,18.8-5.5,37.6-15.1,53.7
				c8.3-6.9,19-10.5,29.7-10.6c3.3-0.1,6.9,0.4,9.2,2.7C1234,859,1231.5,866.4,1228.2,871.4L1228.2,871.4z"/>
			<g>
				<path class="st3" d="M1203.4,874.5c-0.8,1.8-2.2,3.1-3.5,4.4c-6.5,6.1-12.9,12.1-19.4,18.2c-46.6-6.2-93.5-9.4-140.4-9.5
					c-5.7-7.6-11.3-15.3-17-22.9c-2-2.7-4.1-6.3-2.4-9.2c1.6-2.8,5.5-3,8.7-2.5c13.5,1.9,26.2,8.7,35.3,18.8
					c-4.6-15.2-7.5-30.6-12.1-45.8c-0.6-2.1-1.2-4.3-0.5-6.4c1-2.9,4.6-4.3,7.7-3.7c3,0.5,5.6,2.5,8,4.5
					c14.5,12.2,25.6,28.5,31.6,46.5c2.1-6.1,5.3-11.5,7.4-17.6c1-2.9,2.2-5.9,4.8-7.4c2.2-1.2,5-1,7.3,0.2s4,3.1,5.4,5.2
					c4.9,7,6.9,16,5.5,24.4c5.8-12.9,14-24.9,23.4-35.4c2.3-2.7,4.9-5.3,8-7s7-2.3,10.2-0.9c4.2,1.8,6.4,6.5,7.7,11
					c3.7,12.7,2.6,26.8-2.9,38.8c6-4.7,12.9-7.7,20.3-9.5c2.1-0.5,4.5-0.8,6.1,0.7C1204,870.5,1204.1,872.8,1203.4,874.5
					L1203.4,874.5z"/>
			</g>
		</g>
		<g>
			<path class="st6" d="M1962.1,920.6c-7.3,11.3-20.6,21-32.1,27.9c-5.2-0.8-10.4-1.5-15.5-2.2c-46.6-6.2-93.5-9.4-140.4-9.5
				c-2.9,0-5.9,0-8.8,0c-9.8-9.8-22.4-18.2-34.6-24.6c-6.5-3.3-13.4-6.2-18.9-11.1c-5.5-4.9-9.3-12.5-7.4-19.6
				c1.7-6.7,8.1-11.3,14.9-12.7c6.7-1.4,13.7,0.1,20.2,2.2c18.8,6.1,35.6,17.9,47.9,33.4c-9.9-13.2-19.2-27-29.2-40.2
				c-3.4-4.5-6.9-9.1-8.9-14.4c-2-5.3-2.2-11.6,0.7-16.5c4.1-6.8,13-9,20.8-8.3c15.7,1.3,29.7,11.5,39.2,24.2s15.3,27.7,21,42.5
				c-0.9-11.5,2.8-23.1,10.4-31.7c3-3.3,6.8-6.3,11.2-6.3c5.3,0,9.6,4.3,12.4,8.8c5.9,9.4,8.1,21,6.1,31.9
				c5.2-20.4,17.7-38.9,34.2-51.9c3.9-3.1,8.2-5.9,13-7.2s10.2-1,14.3,1.9c6.2,4.4,7.5,13.1,7.4,20.7c-0.2,18.8-5.5,37.6-15.1,53.7
				c8.3-6.9,19-10.5,29.7-10.6c3.3-0.1,6.9,0.4,9.2,2.7C1967.9,908.1,1965.4,915.5,1962.1,920.6L1962.1,920.6z"/>
			<g>
				<path class="st3" d="M1937.4,923.7c-0.8,1.8-2.2,3.1-3.5,4.4c-6.5,6.1-12.9,12.1-19.4,18.2c-46.6-6.2-93.5-9.4-140.4-9.5
					c-5.7-7.6-11.3-15.3-17-22.9c-2-2.7-4.1-6.3-2.4-9.2c1.6-2.8,5.5-3,8.7-2.5c13.5,1.9,26.2,8.7,35.3,18.8
					c-4.6-15.2-7.5-30.6-12.1-45.8c-0.6-2.1-1.2-4.3-0.5-6.4c1-2.9,4.6-4.3,7.7-3.7c3,0.5,5.6,2.5,8,4.5
					c14.5,12.2,25.6,28.5,31.6,46.5c2.1-6.1,5.3-11.5,7.4-17.6c1-2.9,2.2-5.9,4.8-7.4c2.2-1.2,5-1,7.3,0.2s4,3.1,5.4,5.2
					c4.9,7,6.9,16,5.5,24.4c5.8-12.9,14-24.9,23.4-35.4c2.3-2.7,4.9-5.3,8-7s7-2.3,10.2-0.9c4.2,1.8,6.4,6.5,7.7,11
					c3.7,12.7,2.6,26.8-2.9,38.8c6-4.7,12.9-7.7,20.3-9.5c2.1-0.5,4.5-0.8,6.1,0.7C1938,919.7,1938.1,921.9,1937.4,923.7
					L1937.4,923.7z"/>
			</g>
		</g>
		<g>
			<path class="st6" d="M667.6,849.3c-0.1,4.5-2.4,8.8-5,12.5c-5.2,7.6-14.4,12.8-21.6,18.5c-3.1,0-6.3,0.1-9.4,0.3
				c-9.7,0.4-19.5,1.2-29.1,2.4c-2.9,0.4-5.8,0.8-8.8,1.2c-12.2-4.5-24.9-9.8-37.1-14.3c-2.2-0.8-4.4-1.6-6.2-3s-3.3-3.6-3.2-5.9
				c0-4.1,4.3-6.9,8.2-8.1c11.4-3.7,24.5-1.4,34,6c-9.3-7.4-16.8-16.4-23.1-26.5c-2.3-3.6-4.3-7.4-5.1-11.6c-0.8-4.2-0.1-8.8,2.7-12
				c4.9-5.7,14.1-5,20.8-1.7c13.7,6.6,22.1,20.6,29.6,33.8c-0.5-14.3,0.3-29.5,7.9-41.6c3.4-5.3,8.8-10.2,15-9.6
				c3.9,0.4,7.5,2.9,9.7,6.2c2.3,3.3,3.4,7.2,4.3,11.1c2.9,13.8,1.7,28.4-3.5,41.5c1.4-2.4,3-4.8,5.1-6.6s4.9-2.9,7.6-2.5
				C664.8,839.9,667.7,844.8,667.6,849.3z"/>
			<g>
				<path class="st5" d="M652.6,859.2c-0.1,1.7-1.4,3-2.6,4.1l-18.4,17.2c-9.7,0.4-19.5,1.2-29.1,2.4c-9.3-4.3-18.6-8.6-27.8-12.9
					c-1.9-0.9-4-2.2-3.9-4.2c0-1.2,0.9-2.3,2-2.8c1.1-0.6,2.3-0.7,3.5-0.8c9.8-0.6,19.7,2.4,27.6,8.2c-6.6-10.1-12.7-20.3-19.3-30.3
					c-1.5-2.3-3.1-5.2-1.9-7.7c0.9-1.9,3-2.8,5.1-3c4.4-0.3,8.4,2.2,11.9,4.9c9.5,7.3,17.6,16.4,23.7,26.7
					c0.5-11.2,2.5-22.7,5.2-33.5c0.5-2.1,1.1-4.2,2.3-5.9s3.3-3,5.4-2.8c3.6,0.4,5.4,4.7,5.9,8.3c1.8,12.2-1.6,24.5-4.9,36.4
					c1.9-1.3,3.2-3.4,4.8-5s3.6-3.1,5.9-3.2C650.2,855.2,652.7,857,652.6,859.2z"/>
			</g>
		</g>
		<g>
			<path class="st6" d="M140,891.8c-0.1,4.5-2.4,8.8-5,12.5c-5.2,7.6-14.4,12.8-21.6,18.5c-3.1,0-6.3,0.1-9.4,0.3
				c-9.7,0.4-19.5,1.2-29.1,2.4c-2.9,0.4-5.8,0.8-8.8,1.2c-12.2-4.5-24.9-9.8-37.1-14.3c-2.2-0.8-4.4-1.6-6.2-3
				c-1.8-1.4-3.3-3.6-3.2-5.9c0-4.1,4.3-6.9,8.2-8.1c11.4-3.7,24.5-1.4,34,6C52.5,894,45,885,38.7,874.9c-2.3-3.6-4.3-7.4-5.1-11.6
				c-0.8-4.2-0.1-8.8,2.7-12c4.9-5.7,14.1-5,20.8-1.7C70.6,856,79,870,86.6,883.3c-0.5-14.3,0.3-29.5,7.9-41.6
				c3.4-5.3,8.8-10.2,15-9.6c3.9,0.4,7.5,2.9,9.7,6.2c2.3,3.3,3.4,7.2,4.3,11.1c2.9,13.8,1.7,28.4-3.5,41.5c1.4-2.4,3-4.8,5.1-6.6
				s4.9-2.9,7.6-2.5C137.2,882.3,140.1,887.2,140,891.8z"/>
			<g>
				<path class="st3" d="M125,901.7c-0.1,1.7-1.4,3-2.6,4.1L104,923c-9.7,0.4-19.5,1.2-29.1,2.4c-9.3-4.3-18.6-8.6-27.8-12.9
					c-1.9-0.9-4-2.2-3.9-4.2c0-1.2,0.9-2.3,2-2.8c1.1-0.6,2.3-0.7,3.5-0.8c9.8-0.6,19.7,2.4,27.6,8.2c-6.6-10.1-12.7-20.3-19.3-30.3
					c-1.5-2.3-3.1-5.2-1.9-7.7c0.9-1.9,3-2.8,5.1-3c4.4-0.3,8.4,2.2,11.9,4.9c9.5,7.3,17.6,16.4,23.7,26.7
					c0.5-11.2,2.5-22.7,5.2-33.5c0.5-2.1,1.1-4.2,2.3-5.9c1.2-1.7,3.3-3,5.4-2.8c3.6,0.4,5.4,4.7,5.9,8.3
					c1.8,12.2-1.6,24.5-4.9,36.4c1.9-1.3,3.2-3.4,4.8-5c1.6-1.6,3.6-3.1,5.9-3.2C122.6,897.6,125.1,899.4,125,901.7z"/>
			</g>
		</g>
		<g>
			<path class="st6" d="M1654,888.9c-0.8,4.5-3.8,8.2-6.9,11.5c-6.4,6.7-16.3,10.3-24.4,14.6c-3.1-0.5-6.2-0.9-9.3-1.3
				c-9.7-1.3-19.4-2.1-29.1-2.5c-2.9-0.1-5.9-0.2-8.8-0.3c-11.2-6.5-23-13.8-34.2-20.3c-2-1.2-4.1-2.3-5.6-4
				c-1.6-1.7-2.6-4.1-2.2-6.4c0.7-4.1,5.3-6.1,9.4-6.7c11.9-1.7,24.4,2.7,32.6,11.6c-8-8.8-13.9-19-18.4-30c-1.6-3.9-3-8-3.1-12.3
				s1.4-8.7,4.6-11.4c5.8-4.8,14.7-2.6,20.8,1.8c12.4,8.8,18.4,24,23.6,38.3c1.9-14.2,5.2-29.1,14.7-39.7c4.2-4.7,10.4-8.6,16.4-7
				c3.8,1,6.9,4.1,8.6,7.7c1.7,3.6,2.2,7.6,2.4,11.6c0.6,14.1-3,28.3-10.3,40.3c1.7-2.1,3.7-4.3,6.1-5.7c2.3-1.4,5.3-2.1,7.9-1.2
				C1652.9,879.1,1654.9,884.3,1654,888.9L1654,888.9z"/>
			<g>
				<path class="st3" d="M1637.6,896.1c-0.3,1.6-1.8,2.7-3.2,3.6c-7,4.6-14,9.3-21,13.9c-9.7-1.3-19.4-2.1-29.1-2.5
					c-8.4-5.8-16.9-11.5-25.3-17.3c-1.7-1.2-3.6-2.8-3.2-4.8c0.2-1.2,1.3-2.1,2.5-2.4c1.2-0.4,2.4-0.3,3.6-0.2
					c9.7,1.1,19,5.6,25.8,12.7c-4.8-11-9.2-22.1-14.1-33.1c-1.1-2.5-2.2-5.6-0.6-7.9c1.2-1.7,3.4-2.3,5.5-2.1
					c4.4,0.4,7.9,3.6,10.9,6.8c8.2,8.8,14.6,19.1,19,30.2c2.3-11,6.2-21.9,10.7-32.2c0.9-2,1.8-3.9,3.3-5.4s3.8-2.4,5.8-1.8
					c3.5,1,4.5,5.5,4.4,9.2c-0.3,12.3-5.6,23.9-10.8,35.1c2.1-1,3.7-2.8,5.5-4.1s4.1-2.4,6.3-2.2
					C1635.9,891.8,1638,893.9,1637.6,896.1L1637.6,896.1z"/>
			</g>
		</g>
		<g>
			<path class="st6" d="M955.4,844.3c-4.1,13.1-25.1,20.1-31.3,32.4h-8.7c-41.7,0-83.3,0-125,0h-7.8c-4.1-3.1-10.6-5.8-14.7-8.9
				c-2.8-2.1-6-5.3-4.8-8.7c0.9-2.7,4.2-3.7,7-3.9c5.9-0.3,11.9,1.6,16.5,5.4c-8-7.9-14.4-16.6-20.6-26c-3.2-4.8-6.2-10.2-5.2-15.9
				c1.3-7.9,10.1-12.4,18-13c11.5-0.8,22.9,4.1,31.7,11.5c8.9,7.4,15.6,17.1,21.4,27.1c-1.2-6.1,3.7-12,9.9-12.3
				c6.2-0.2,11.9,5.9,11.2,12.1c2.8-16.4,13.9-31.3,28.2-39.7c2.8-1.6,5.7-3,8.9-3.4c3.2-0.3,6.6,0.6,8.8,3
				c2.4,2.7,2.7,6.6,2.6,10.3c-0.3,11.3-3.2,22.5-8.6,32.4c2.4-2.9,7-4.2,10.6-2.6c4.4,1.9,6.4,8,4,12.2c7.9-10,19.2-17.5,30.5-23.4
				c4.4-2.3,9.8-4.2,14-1.6C955.9,833.9,956.8,839.7,955.4,844.3z"/>
			<g>
				<path class="st3" d="M934.9,854.9c-0.9,2-2.6,3.6-4.2,5c-5.6,5.1-10.7,10.7-15.3,16.8c-41.7,0-83.3,0-125,0
					c-1.5-1.8-2.9-3.5-4.4-5.3c-0.8-0.9-1.6-2-1.5-3.2c0.1-1.9,2.4-2.9,4.3-3.2c5.2-0.7,10.7,0.7,14.9,3.9
					c-5.9-7.8-11.9-15.8-14.7-25.2c-1-3.4-1.3-7.6,1.4-10c3.1-2.7,7.9-0.9,11.4,1.2c12.2,7.3,22.4,18,29.1,30.6
					c-1.5-5.2,0.6-10.7,5.1-13.8c4.4-3,10.8-2.9,15,0.4c3.5,2.7,5.4,7.2,5,11.6c2.4-10.5,8.2-21.3,15.8-28.7
					c1.4-1.4,2.9-2.7,4.8-3.4c1.8-0.7,4-0.8,5.7,0.3c2.5,1.6,2.9,5,2.9,8c0.1,9.5-1.8,19.1-5.4,27.9c2.4-3.4,5-6,8.4-8.4
					c2.3-1.6,5.2-2.9,7.7-1.7c2,1,3,3.4,3,5.7s-0.9,4.4-1.8,6.5c9.4-7.6,19.1-14,29.7-19.8c2.1-1.2,4.8-2.3,6.8-1
					C935.4,850.1,935.8,852.9,934.9,854.9z"/>
			</g>
		</g>
		<g>
			<path class="st6" d="M1487.4,873.3c-5.2,12.7-26.8,17.8-34.1,29.4l-8.7-0.8c-41.5-3.8-83-7.7-124.4-11.5l-7.8-0.7
				c-3.8-3.5-10-6.7-13.8-10.2c-2.6-2.4-5.5-5.8-4-9.1c1.2-2.6,4.5-3.3,7.3-3.2c5.9,0.2,11.7,2.7,15.9,6.8
				c-7.2-8.6-12.8-17.9-18.2-27.7c-2.7-5-5.2-10.8-3.8-16.3c2.1-7.8,11.2-11.5,19.2-11.3c11.5,0.2,22.4,6.2,30.6,14.4
				s13.9,18.4,18.8,28.9c-0.6-6.2,4.8-11.6,11-11.3s11.3,7,10,13.1c4.3-16.1,16.7-29.9,31.7-36.9c2.9-1.4,6-2.5,9.2-2.5
				s6.6,1.2,8.5,3.8c2.1,2.9,2.1,6.9,1.7,10.4c-1.3,11.2-5.3,22.1-11.5,31.5c2.7-2.7,7.4-3.5,10.7-1.7c4.2,2.3,5.7,8.6,2.9,12.5
				c8.8-9.3,20.7-15.7,32.5-20.5c4.6-1.9,10.1-3.3,14.1-0.3C1488.9,863,1489.2,868.9,1487.4,873.3z"/>
			<g>
				<path class="st3" d="M1466.1,882c-1,1.9-2.9,3.3-4.6,4.6c-6,4.6-11.7,9.7-16.8,15.3c-41.5-3.8-83-7.7-124.4-11.5
					c-1.3-1.9-2.6-3.8-3.9-5.7c-0.7-1-1.4-2.1-1.2-3.3c0.3-1.9,2.7-2.7,4.6-2.8c5.2-0.2,10.6,1.7,14.4,5.3
					c-5.2-8.3-10.4-16.9-12.3-26.5c-0.7-3.5-0.6-7.7,2.3-9.8c3.3-2.4,7.9-0.2,11.2,2.2c11.5,8.4,20.6,20,26.2,33.1
					c-1-5.3,1.6-10.7,6.3-13.2c4.7-2.6,11-1.9,14.9,1.8c3.2,3,4.7,7.7,3.9,12c3.4-10.2,10.2-20.5,18.3-27.1c1.5-1.2,3.2-2.4,5.1-3
					s4.1-0.4,5.6,0.8c2.3,1.8,2.4,5.3,2.2,8.2c-0.8,9.5-3.5,18.8-7.9,27.3c2.7-3.2,5.5-5.6,9.2-7.6c2.4-1.4,5.5-2.4,7.9-1
					c1.9,1.2,2.7,3.7,2.5,5.9s-1.3,4.3-2.4,6.3c10-6.8,20.3-12.2,31.4-17c2.2-1,5-1.8,6.9-0.3C1466.9,877.3,1467,880.1,1466.1,882
					L1466.1,882z"/>
			</g>
		</g>
		<path class="st7" d="M1923.3,955.8v124.1H-4.2c0-38.2,2-81.3,2.8-121.7c0.2-11,0.4-21.8,0.4-32.3c637.2-71.8,1289-66.3,1924,16.2
			C1923,947.2,1923.3,950.7,1923.3,955.8z"/>
		<g>
			<path class="st8" d="M1923.3,955.8v6.2c-1,0.5-2.1,0.9-3.2,1.3c-42.7,14.6-92.3,12.6-137.6,3.9c-45.3-8.8-88.2-23.9-132.5-35.2
				c-44.4-11.3-97.7-29.4-140.7-15.1c-105.3,34.9-153.9,26.8-231.5,13.9c-77.6-13-155.5-32.9-234.5-26.6c-95,7.6-178.9,52-273,64.6
				c-98.3,13.1-197.9-9.5-294.5-28.9s-200.3-35.6-294.5-10.3c-33.2,8.9-64.1,22.8-97.9,30.3c-27.6,6.1-59,7.4-84.8-1.5
				c0.2-11,0.4-21.8,0.4-32.3c637.2-71.8,1289-66.3,1924,16.2C1923,947.2,1923.3,950.7,1923.3,955.8z"/>
		</g>
	</g>
</g>
<g>
	<path class="st9" d="M526,737.4c0,0,4.5,3.1,7.5,18.8s8.8-9.4,8.8-9.4l-4.2-13L526,737.4L526,737.4z"/>
	<path class="st9" d="M682.9,737.4c0,0-4.5,3.1-7.5,18.8s-8.8-9.4-8.8-9.4l4.2-13L682.9,737.4L682.9,737.4z"/>
	<path class="st9" d="M603.5,731.1l-70.7,0.4l9.2,196.2c0,0,1.8,16.8,17.6,16.8H649c15.8,0,17.6-16.8,17.6-16.8l9.2-196.2l-70.7-0.4
		H603.5z"/>
	<path class="st10" d="M527.8,905.4l-4.5,4.5V932l4,4L527.8,905.4z"/>
	<path class="st11" d="M550.1,910.4h-13.9v21.2h13.9V910.4z"/>
	<path class="st12" d="M539.8,897.7h-13.6v47h13.6V897.7z"/>
	<path class="st10" d="M680.6,905.4l4.5,4.5V932l-4,4L680.6,905.4z"/>
	<path class="st11" d="M658.3,931.6h13.9v-21.2h-13.9V931.6z"/>
	<path class="st10" d="M605,738.9h-1.5l-70.7,0.4l9.2,189c0,0,1.8,16.2,17.6,16.2H649c15.8,0,17.6-16.2,17.6-16.2l9.2-189L605,738.9
		L605,738.9z"/>
	<path class="st12" d="M668.7,944.7h13.6v-47h-13.6V944.7z"/>
	<path class="st13" d="M539.8,897.7h-13.6v8.4h13.6V897.7z"/>
	<path class="st13" d="M668.7,906h13.6v-8.4h-13.6V906z"/>
	<path class="st9" d="M545.8,737.6c0,0,0.4,19.5,6,19.5s6.5-19.2,6.5-19.2L545.8,737.6L545.8,737.6z"/>
	<path class="st14" d="M549.2,737.8c0,0-0.7,18.6,3,18.6s3.1-18.4,3.1-18.4L549.2,737.8z"/>
	<path class="st9" d="M580.7,737.6c0,0,0.4,19.5,6,19.5s6.5-19.2,6.5-19.2L580.7,737.6L580.7,737.6z"/>
	<path class="st14" d="M584.2,737.8c0,0-0.7,18.6,3,18.6s3.1-18.4,3.1-18.4L584.2,737.8z"/>
	<path class="st9" d="M615.7,737.6c0,0,0.4,19.5,6,19.5s6.5-19.2,6.5-19.2L615.7,737.6L615.7,737.6z"/>
	<path class="st14" d="M619.1,737.8c0,0-0.7,18.6,3,18.6c3.8,0,3.1-18.4,3.1-18.4L619.1,737.8z"/>
	<path class="st9" d="M650.6,737.6c0,0,0.4,19.5,6,19.5s6.5-19.2,6.5-19.2L650.6,737.6L650.6,737.6z"/>
	<path class="st14" d="M654.1,737.8c0,0-0.7,18.6,3,18.6c3.8,0,3.1-18.4,3.1-18.4L654.1,737.8z"/>
	<path class="st10" d="M679,722.8l-5.2-3.5c0,0-6.8-37.1-11-50.8c-4.2-13.6-15.3-13.9-15.3-13.9h-86.6c0,0-11,0.2-15.3,13.9
		c-4.2,13.6-11,50.8-11,50.8l-5.2,3.5c0,0-3.8,1.2-3.8,5.6s0.2,8.9,0.2,8.9h156.6c0,0,0.2-4.5,0.2-8.9S679,722.8,679,722.8z"/>
	<path class="st9" d="M662.8,668.5c-2.1-6.9-6-10.4-9.3-12.1c1.4,2,3.3,5.7,5.1,12c3.5,12.3,4.6,36-2.5,40.9s-28.9,6.3-56.4,6.3
		h-64.4c-0.4,1.9-0.6,3.2-0.7,3.5h139.1C673.4,716.9,666.9,681.7,662.8,668.5L662.8,668.5z"/>
	<path class="st15" d="M605.7,726.9c41.8,0,75.7-0.6,75.7-1.2c0-0.7-33.9-1.2-75.7-1.2s-75.7,0.6-75.7,1.2
		C529.9,726.3,563.9,726.9,605.7,726.9z"/>
	<path class="st15" d="M653.1,658.7c0,0.7-21.6,1.2-48.2,1.2c-26.6,0-48.2-0.5-48.2-1.2s21.6-1.2,48.2-1.2
		C631.5,657.4,653.1,658,653.1,658.7z"/>
	<path class="st9" d="M603.5,944.5H649c15.8,0,17.6-16.2,17.6-16.2l2.5-51.7c-6.3,14.1-23.5,39.7-64.4,39.7s-58.6-23.6-65.1-36.4
		l2.4,48.4c0,0,1.8,16.2,17.6,16.2H603.5L603.5,944.5z"/>
	<path class="st16" d="M591.5,810.1c0,0,8.7-16.6,10.8-20c2.1-3.5,5.3-9.5,9.5-10.3l-16.2-0.4c0,0-3.8-1.1-9.4,8.7
		c-4.7,8.2-7.7,14.1-7.7,14.1L591.5,810.1z"/>
	<path class="st16" d="M604,790.3c0,0,3.5-7.9,9.4-9.7c0,0,2.9-0.4,6.3,5.5c3.6,6.3,4,7.5,4,7.5l4.6-2.4l-5.6,14.4l-16.5-1.3l5-3.1
		L604,790.3L604,790.3z"/>
	<path class="st16" d="M616.3,810.7c0,0,9.7,16,11.6,19.6c1.9,3.6,5.4,9.4,3.9,13.5l8.7-13.7c0,0,2.9-2.6-2.6-12.5
		c-4.6-8.2-8.1-13.9-8.1-13.9L616.3,810.7L616.3,810.7z"/>
	<path class="st16" d="M626.9,831.7c0,0,5,7,3.5,13c0,0-1.2,2.7-7.9,2.6c-7.2-0.2-8.5-0.4-8.5-0.4l-0.3,5.1l-9.4-12.2l9.6-13.5
		l0.1,5.9L626.9,831.7L626.9,831.7z"/>
	<path class="st16" d="M603.4,832.3c0,0-18.7,0.3-22.7,0.1c-4.1-0.2-10.8-0.1-13.6-3.4l7.4,14.5c0,0,0.8,3.9,12.2,4
		c9.4,0.2,16.1,0,16.1,0L603.4,832.3z"/>
	<path class="st16" d="M580,830.9c0,0-8.6,0.8-13-3.6c0,0-1.8-2.4,1.8-8.2c3.8-6.2,4.6-7.1,4.6-7.1l-4.3-2.9l15.3-2l6.8,15.1
		l-5.2-2.9L580,830.9L580,830.9z"/>
	<path class="st17" d="M741.6,737.4c0,0,4.5,3.1,7.5,18.8s8.8-9.4,8.8-9.4l-4.2-13L741.6,737.4L741.6,737.4z"/>
	<path class="st17" d="M898.5,737.4c0,0-4.5,3.1-7.5,18.8s-8.8-9.4-8.8-9.4l4.2-13L898.5,737.4L898.5,737.4z"/>
	<path class="st17" d="M819.1,731.1l-70.7,0.4l9.2,196.2c0,0,1.8,16.8,17.6,16.8h89.4c15.8,0,17.6-16.8,17.6-16.8l9.2-196.2
		l-70.7-0.4H819.1z"/>
	<path class="st18" d="M743.5,905.4l-4.5,4.5V932l4,4L743.5,905.4z"/>
	<path class="st11" d="M765.8,910.4h-13.9v21.2h13.9V910.4z"/>
	<path class="st12" d="M755.4,897.7h-13.6v47h13.6V897.7z"/>
	<path class="st18" d="M896.3,905.4l4.5,4.5V932l-4,4L896.3,905.4z"/>
	<path class="st11" d="M874,931.6h13.9v-21.2H874V931.6z"/>
	<path class="st18" d="M820.6,738.9h-1.5l-70.7,0.4l9.2,189c0,0,1.8,16.2,17.6,16.2h89.4c15.8,0,17.6-16.2,17.6-16.2l9.2-189
		L820.6,738.9L820.6,738.9z"/>
	<path class="st12" d="M884.3,944.7h13.6v-47h-13.6V944.7z"/>
	<path class="st13" d="M755.4,897.7h-13.6v8.4h13.6V897.7z"/>
	<path class="st13" d="M884.3,906h13.6v-8.4h-13.6V906z"/>
	<path class="st17" d="M761.4,737.6c0,0,0.4,19.5,6,19.5s6.5-19.2,6.5-19.2L761.4,737.6L761.4,737.6z"/>
	<path class="st19" d="M764.9,737.8c0,0-0.7,18.6,3,18.6S771,738,771,738L764.9,737.8z"/>
	<path class="st17" d="M796.4,737.6c0,0,0.4,19.5,6,19.5s6.5-19.2,6.5-19.2L796.4,737.6L796.4,737.6z"/>
	<path class="st19" d="M799.8,737.8c0,0-0.7,18.6,3,18.6s3.1-18.4,3.1-18.4L799.8,737.8z"/>
	<path class="st17" d="M831.3,737.6c0,0,0.4,19.5,6,19.5s6.5-19.2,6.5-19.2L831.3,737.6L831.3,737.6z"/>
	<path class="st19" d="M834.7,737.8c0,0-0.7,18.6,3,18.6c3.8,0,3.1-18.4,3.1-18.4L834.7,737.8z"/>
	<path class="st17" d="M866.3,737.6c0,0,0.4,19.5,6,19.5s6.5-19.2,6.5-19.2L866.3,737.6L866.3,737.6z"/>
	<path class="st19" d="M869.7,737.8c0,0-0.7,18.6,3,18.6c3.8,0,3.1-18.4,3.1-18.4L869.7,737.8z"/>
	<path class="st18" d="M894.6,722.8l-5.2-3.5c0,0-6.8-37.1-11-50.8c-4.2-13.6-15.3-13.9-15.3-13.9h-86.6c0,0-11,0.2-15.3,13.9
		c-4.2,13.6-11,50.8-11,50.8l-5.2,3.5c0,0-3.8,1.2-3.8,5.6s0.2,8.9,0.2,8.9H898c0,0,0.2-4.5,0.2-8.9S894.6,722.8,894.6,722.8z"/>
	<path class="st17" d="M878.4,668.5c-2.1-6.9-6-10.4-9.3-12.1c1.4,2,3.3,5.7,5.1,12c3.5,12.3,4.6,36-2.5,40.9s-28.9,6.3-56.4,6.3
		h-64.4c-0.4,1.9-0.6,3.2-0.7,3.5h139.1C889,716.9,882.5,681.7,878.4,668.5L878.4,668.5z"/>
	<path class="st20" d="M821.3,726.9c41.8,0,75.7-0.6,75.7-1.2c0-0.7-33.9-1.2-75.7-1.2s-75.7,0.6-75.7,1.2
		C745.6,726.3,779.5,726.9,821.3,726.9z"/>
	<path class="st20" d="M868.7,658.7c0,0.7-21.6,1.2-48.2,1.2c-26.6,0-48.2-0.5-48.2-1.2s21.6-1.2,48.2-1.2
		C847.1,657.4,868.7,658,868.7,658.7z"/>
	<path class="st17" d="M819.1,944.5h45.5c15.8,0,17.6-16.2,17.6-16.2l2.5-51.7c-6.3,14.1-23.5,39.7-64.4,39.7s-58.6-23.6-65.1-36.4
		l2.4,48.4c0,0,1.8,16.2,17.6,16.2H819.1L819.1,944.5z"/>
	<path class="st16" d="M807.2,810.1c0,0,8.7-16.6,10.8-20c2.1-3.5,5.3-9.5,9.5-10.3l-16.2-0.4c0,0-3.8-1.1-9.4,8.7
		c-4.7,8.2-7.7,14.1-7.7,14.1L807.2,810.1z"/>
	<path class="st16" d="M819.6,790.3c0,0,3.5-7.9,9.4-9.7c0,0,2.9-0.4,6.3,5.5c3.6,6.3,4,7.5,4,7.5l4.6-2.4l-5.6,14.4l-16.5-1.3
		l5-3.1L819.6,790.3L819.6,790.3z"/>
	<path class="st16" d="M831.9,810.7c0,0,9.7,16,11.6,19.6c1.9,3.6,5.4,9.4,3.9,13.5l8.7-13.7c0,0,2.9-2.6-2.6-12.5
		c-4.6-8.2-8.1-13.9-8.1-13.9L831.9,810.7L831.9,810.7z"/>
	<path class="st16" d="M842.5,831.7c0,0,5,7,3.5,13c0,0-1.2,2.7-7.9,2.6c-7.2-0.2-8.5-0.4-8.5-0.4l-0.3,5.1l-9.4-12.2l9.6-13.5
		l0.1,5.9L842.5,831.7L842.5,831.7z"/>
	<path class="st16" d="M819,832.3c0,0-18.7,0.3-22.7,0.1c-4.1-0.2-10.8-0.1-13.6-3.4l7.4,14.5c0,0,0.8,3.9,12.2,4
		c9.4,0.2,16.1,0,16.1,0L819,832.3z"/>
	<path class="st16" d="M795.6,830.9c0,0-8.6,0.8-13-3.6c0,0-1.8-2.4,1.8-8.2c3.8-6.2,4.6-7.1,4.6-7.1l-4.3-2.9l15.3-2l6.8,15.1
		l-5.2-2.9L795.6,830.9L795.6,830.9z"/>
	<path class="st13" d="M308.9,737.4c0,0,4.5,3.1,7.5,18.8s8.8-9.4,8.8-9.4l-4.2-13L308.9,737.4L308.9,737.4z"/>
	<path class="st13" d="M465.8,737.4c0,0-4.5,3.1-7.5,18.8s-8.8-9.4-8.8-9.4l4.2-13L465.8,737.4L465.8,737.4z"/>
	<path class="st13" d="M386.4,731.1l-70.7,0.4l9.2,196.2c0,0,1.8,16.8,17.6,16.8h89.4c15.8,0,17.6-16.8,17.6-16.8l9.2-196.2
		l-70.7-0.4H386.4z"/>
	<path class="st21" d="M310.8,905.4l-4.5,4.5V932l4,4L310.8,905.4z"/>
	<path class="st11" d="M333.1,910.4h-13.9v21.2h13.9V910.4z"/>
	<path class="st12" d="M322.8,897.7h-13.6v47h13.6V897.7z"/>
	<path class="st21" d="M463.6,905.4l4.5,4.5V932l-4,4L463.6,905.4z"/>
	<path class="st11" d="M441.3,931.6h13.9v-21.2h-13.9V931.6z"/>
	<path class="st21" d="M388,738.9h-1.5l-70.7,0.4l9.2,189c0,0,1.8,16.2,17.6,16.2H432c15.8,0,17.6-16.2,17.6-16.2l9.2-189L388,738.9
		L388,738.9z"/>
	<path class="st12" d="M451.6,944.7h13.6v-47h-13.6V944.7z"/>
	<path class="st13" d="M322.8,897.7h-13.6v8.4h13.6V897.7z"/>
	<path class="st13" d="M451.6,906h13.6v-8.4h-13.6V906z"/>
	<path class="st22" d="M328.8,737.6c0,0,0.4,19.5,6,19.5s6.5-19.2,6.5-19.2L328.8,737.6L328.8,737.6z"/>
	<path class="st13" d="M332.2,737.8c0,0-0.7,18.6,3,18.6c3.8,0,3.1-18.4,3.1-18.4L332.2,737.8z"/>
	<path class="st22" d="M363.7,737.6c0,0,0.4,19.5,6,19.5s6.5-19.2,6.5-19.2L363.7,737.6L363.7,737.6z"/>
	<path class="st13" d="M367.1,737.8c0,0-0.7,18.6,3,18.6c3.8,0,3.1-18.4,3.1-18.4L367.1,737.8z"/>
	<path class="st22" d="M398.7,737.6c0,0,0.4,19.5,6,19.5s6.5-19.2,6.5-19.2L398.7,737.6L398.7,737.6z"/>
	<path class="st13" d="M402.1,737.8c0,0-0.7,18.6,3,18.6c3.8,0,3.1-18.4,3.1-18.4L402.1,737.8z"/>
	<path class="st22" d="M433.6,737.6c0,0,0.4,19.5,6,19.5s6.5-19.2,6.5-19.2L433.6,737.6L433.6,737.6z"/>
	<path class="st13" d="M437,737.8c0,0-0.7,18.6,3,18.6s3.1-18.4,3.1-18.4L437,737.8z"/>
	<path class="st21" d="M462,722.8l-5.2-3.5c0,0-6.8-37.1-11-50.8c-4.2-13.6-15.3-13.9-15.3-13.9H344c0,0-11,0.2-15.3,13.9
		c-4.2,13.6-11,50.8-11,50.8l-5.2,3.5c0,0-3.8,1.2-3.8,5.6s0.2,8.9,0.2,8.9h156.6c0,0,0.2-4.5,0.2-8.9S462,722.8,462,722.8
		L462,722.8z"/>
	<path class="st22" d="M445.7,668.5c-2.1-6.9-6-10.4-9.3-12.1c1.4,2,3.3,5.7,5.1,12c3.5,12.3,4.6,36-2.5,40.9s-28.9,6.3-56.4,6.3
		h-64.4c-0.4,1.9-0.6,3.2-0.7,3.5h139.1C456.4,716.9,449.8,681.7,445.7,668.5L445.7,668.5z"/>
	<path class="st16" d="M388.7,726.9c41.8,0,75.7-0.6,75.7-1.2c0-0.7-33.9-1.2-75.7-1.2s-75.7,0.6-75.7,1.2
		C312.9,726.3,346.8,726.9,388.7,726.9z"/>
	<path class="st16" d="M436.1,658.7c0,0.7-21.6,1.2-48.2,1.2s-48.2-0.5-48.2-1.2s21.6-1.2,48.2-1.2
		C414.5,657.4,436.1,658,436.1,658.7z"/>
	<path class="st22" d="M386.4,944.5h45.5c15.8,0,17.6-16.2,17.6-16.2l2.5-51.7c-6.3,14.1-23.5,39.7-64.4,39.7s-58.6-23.6-65.1-36.4
		l2.4,48.4c0,0,1.8,16.2,17.6,16.2H386.4L386.4,944.5z"/>
	<path class="st18" d="M374.5,810.1c0,0,8.7-16.6,10.8-20c2.1-3.5,5.3-9.5,9.5-10.3l-16.2-0.4c0,0-3.8-1.1-9.4,8.7
		c-4.7,8.2-7.7,14.1-7.7,14.1L374.5,810.1z"/>
	<path class="st18" d="M387,790.3c0,0,3.5-7.9,9.4-9.7c0,0,2.9-0.4,6.3,5.5c3.6,6.3,4,7.5,4,7.5l4.6-2.4l-5.6,14.4l-16.5-1.3l5-3.1
		L387,790.3L387,790.3z"/>
	<path class="st18" d="M399.3,810.7c0,0,9.7,16,11.6,19.6s5.4,9.4,3.9,13.5l8.7-13.7c0,0,2.9-2.6-2.6-12.5
		c-4.6-8.2-8.1-13.9-8.1-13.9L399.3,810.7L399.3,810.7z"/>
	<path class="st18" d="M409.9,831.7c0,0,5,7,3.5,13c0,0-1.2,2.7-7.9,2.6c-7.2-0.2-8.5-0.4-8.5-0.4l-0.3,5.1l-9.4-12.2l9.6-13.5
		l0.1,5.9L409.9,831.7L409.9,831.7z"/>
	<path class="st18" d="M386.3,832.3c0,0-18.7,0.3-22.7,0.1c-4.1-0.2-10.8-0.1-13.6-3.4l7.4,14.5c0,0,0.8,3.9,12.2,4
		c9.4,0.2,16.1,0,16.1,0L386.3,832.3z"/>
	<path class="st18" d="M362.9,830.9c0,0-8.6,0.8-13-3.6c0,0-1.8-2.4,1.8-8.2c3.8-6.2,4.6-7.1,4.6-7.1l-4.3-2.9l15.3-2l6.8,15.1
		l-5.2-2.9L362.9,830.9L362.9,830.9z"/>
</g>
</svg>
