<?xml version="1.0" encoding="utf-8"?>
<!-- Generator: Adobe Illustrator 28.2.0, SVG Export Plug-In . SVG Version: 6.00 Build 0)  -->
<svg version="1.1" id="Layer_1" xmlns="http://www.w3.org/2000/svg" xmlns:xlink="http://www.w3.org/1999/xlink" x="0px" y="0px"
	 viewBox="0 0 1920 1000.9" style="enable-background:new 0 0 1920 1000.9;" xml:space="preserve">
<style type="text/css">
	.st0{fill:#83A532;}
	.st1{fill:#719913;}
	.st2{fill:#632424;}
	.st3{fill:#D4DDBA;}
</style>
<g>
	<path class="st0" d="M908.6,662.5c-8.1,25-29,42.2-53.3,45.9c16.8,12.5,26.3,35.6,23.5,57.4c-2.8,21.8-17.4,44.8-36.7,51.9
		c1.7,23.5-7.4,47.5-23.8,63c-16.4,15.5-39.7,22-61,17.1c-8.1-1.9-16-5.4-21.9-11.6c-5.9-6.2-9-15.1-7.5-23.9
		c-13.3,20.6-38,31.7-60.9,27.4h-0.1c-22.8-4.3-44.6-29.7-50.6-53.8c-2.5,33.4-26.7,63.6-57,71c-10.9,2.7-22.6,2.5-33.8-0.2
		c-19.9-4.7-38.3-17.4-48.3-35.9c7.1,20.2,0.1,44.5-15,58.3c-3.5,3.1-7.4,5.8-11.7,7.6c-22.8,9.9-50.2-3-59.9-27.3
		c-1.3,1.1-2.7,2.1-4.1,3c-22.5,15.1-54.7,9.8-74.1-10.2c-11.5-11.8-18.6-27.5-21.6-44.3c-2.4-13.5-2.1-27.6,0.9-40.9
		c6.7-29.9,25.2-55.6,47.8-74.3C356.2,632.1,450,523.8,547.3,485.1s197,17.3,295.1,53.5c23.2,8.6,44.3,25,57.2,47.6
		c3,5.1,5.5,10.6,7.5,16.3C913.8,621.7,914.8,643.2,908.6,662.5z"/>
	<g>
		<path class="st1" d="M907.1,602.6c-16.2,30.2-44.4,53.1-76.3,59.8c-43.2,9.1-87.3-14.6-111.9-54c-12.7,14.6-37.1,14.5-49.9,0
			c-1.4,15.8-9.4,30.7-21.4,39.8s-28.8,12.9-43,9c36.5,71.3,57.3,151.2,62.3,232.5c-22.8-4.3-44.6-29.7-50.6-53.8
			c-2.5,33.4-26.7,63.6-57,71c-10.9,2.7-22.6,2.5-33.8-0.2c-1-75.6-3.1-151.2-3.8-226.8c-14,1.8-27.7-4.7-37.3-15.8
			c4.4,20.8,6.9,42.4,4.4,63.6c-2.5,21.2-10.7,42.2-25.3,56.7c-14.5,14.5-36.8,22.9-55.7,16.6c9.9,46,28.2,90.2,54.4,128
			c-3.5,3.1-7.4,5.8-11.7,7.6c-22.8,9.9-50.2-3-59.9-27.3c-1.3,1.1-2.7,2.1-4.1,3c-11-23.1-20-47.5-26.4-72.9
			c-14,14.1-33.4,21.9-52.5,21.2c-5.7-0.2-11.3-1.2-16.7-2.8c-2.4-13.5-2.1-27.6,0.9-40.9c6.7-29.9,25.2-55.6,47.8-74.3
			C356.2,632.1,450,523.8,547.3,485.1s197,17.3,295.1,53.5c23.2,8.6,44.3,25,57.2,47.6C902.5,591.4,905,596.9,907.1,602.6z"/>
	</g>
	<path class="st2" d="M570.7,591.1c-15.6,4.8-31.1,9.5-46.7,14.3c30.5,145,36.7,295.6,20.9,443.8C463,968,406.5,857.8,385.5,739.7
		c-7.4-1.2-15.2,0.3-21.9,3.9c22.6,140.9,81.6,279.2,170.5,385.6c-20.5,126.8-57.1,250.7-108.6,366.3c71.7,6.4,141.1,9.8,212.8,16.1
		C695.9,1213.4,668.5,877,570.7,591.1L570.7,591.1z"/>
	<path class="st0" d="M858.3,563.8c-14,23.8-42.5,34.5-68.3,30.7s-48.9-20.1-67.1-40.2c-15.1,13-33.6,16.5-51.7,9.3
		c-18.1-7.2-32.1-25.1-35.8-45.5c-0.7,10.6-7.4,20.8-16.4,25.2c-9.1,4.3-20.3,2.7-28.1-3.9c8.5,10.7,14,24.6,14.4,38.7
		c0.4,14.1-6,28.8-17.5,35.4c-11.5,6.6-27.9,3-34.3-9.3c-13.8,10.8-34.3,12.2-47.1,0.1c-12.8-12.1-19.6-26.2-11.5-42.3
		c-14.5,26.6-48.6,38.1-74.6,25.2c16.9,26.4,26.4,56.9,29.7,88.8c2,19.6,1.2,39.9-5.2,58.4c-6.4,18.4-19,35-35.7,42.8
		c-16.8,7.8-37.9,5.7-51.5-7.5c-2.7,14.3-12.9,28.5-25,34.9c-12.1,6.5-26.2,7.7-39.5,5.5c-22.5-3.8-43.4-17.6-56.7-37.6
		c-13.3-19.9-19-45.7-15.3-69.9c-18.1,6.1-40,0.4-55.9-10.7c-15.9-11.1-27.6-28.3-35.4-46.9c-6.5-15.5-10.4-32.5-10.9-49.4
		c-0.3-10.9,0.7-21.8,3.4-32.3c6.8-26.9,24.9-51,49.1-60.8c24.2-9.9,54-4,71.5,16.6c-11.9-15.4-10.8-41.8-1.6-59.2
		c-32.1-36.7-57.3-80.1-64.1-130.1C170.4,279.6,182,225.9,213,188c30.9-37.8,81.9-57.1,126.8-43c-9.9-29.9-2.9-66.8,15.2-91.8
		c18.2-25,48.6-39,77.8-35.8s56.5,23.4,69.6,51.8c1.6-28.4,32.6-51.6,58.9-50.1c26.3,1.5,49.4,23,59.2,49.4s7.7,56.6-0.7,83.6
		c17.3-17.8,46.3-23.7,67.2-11.3s33,40.1,28.4,65.5c16.6-14.4,44.9-13.2,62,0.6c17.1,13.7,24.1,40.4,16.1,61.8
		c14.9,0.9,29.3,5.6,42.4,13.3c27.1,15.9,48.5,44.2,56.3,76.2c11.7,47.6-7.9,102.1-46.3,128.7C868.6,500.8,872.2,540,858.3,563.8z"
		/>
	<g>
		<path class="st3" d="M325.8,706.8c-0.2-2.5-0.2-5,0.1-7.5C326.1,701.8,326.1,704.3,325.8,706.8z"/>
	</g>
	<g>
		<path class="st1" d="M858.3,563.8c-14,23.8-42.5,34.5-68.3,30.7s-48.9-20.1-67.1-40.2c-15.1,13-33.6,16.5-51.7,9.3
			c-18.1-7.2-32.1-25.1-35.8-45.5c-0.7,10.6-7.4,20.8-16.4,25.2c-9.1,4.3-20.3,2.7-28.1-3.9c8.5,10.7,14,24.6,14.4,38.7
			c0.4,14.1-6,28.8-17.5,35.4c-11.5,6.6-27.9,3-34.3-9.3c-13.8,10.8-34.3,12.2-47.1,0.1c-12.8-12.1-19.6-26.2-11.5-42.3
			c-14.5,26.6-48.6,38.1-74.6,25.2c16.9,26.4,26.4,56.9,29.7,88.8c2,19.6,1.2,39.9-5.2,58.4c-6.4,18.4-19,35-35.7,42.8
			c-16.8,7.8-37.9,5.7-51.5-7.5c-2.7,14.3-12.9,28.5-25,34.9c-12.1,6.5-26.2,7.7-39.5,5.5c-22.5-3.8-43.4-17.6-56.7-37.6
			c-13.3-19.9-19-45.7-15.3-69.9c-18.1,6.1-40,0.4-55.9-10.7c-15.9-11.1-27.6-28.3-35.4-46.9c-6.5-15.5-10.4-32.5-10.9-49.4
			c6.1,12.9,14.7,24.5,25.2,33.7c21,18.2,49.4,26.3,75.9,21.4c-9.8-15.7-2.5-39,13.2-47.4c3,13.3,2.5,30.9,1.3,44.5
			c9.1-18.1,25.4-31.8,44-36.5c-2.7,19.4-16.2,36.6-33.8,41.4c-3,14.2-3.4,30.3,0.2,44.3s11.6,27,23.1,34.6
			c11.5,7.7,26.5,9.5,38.7,3.3c10.1-5.1,17.7-16,19.1-27.8c0.8,9.5,5.2,18.8,12.1,24.8c3.4-10,3-21.4-0.7-31.3
			c9.9,8.9,25.3,2.9,32.8-8.3c7.5-11.3,8.1-26.3,6.3-40c-4.5-33.6-22-64.9-47.5-84.8c13,2.4,23.9,2.7,37.1,2.2
			c13.1-0.4,26.6-3.9,37.2-12.3c10.6-8.4,18.1-22.2,17.3-36.4c-12.3-6.6-18.2-22.7-14.6-37c10.7,4.7,19.1,14.1,22.9,25.9
			c2.4-12.9,8.7-24,17.7-32.9c5.2,12.1,2.9,27.5-5.5,37.4c10.2,9.8,23.9,15.9,37.5,14.3c13.6-1.6,26.5-9.5,34.6-21.5
			c-0.9,11.1,4.8,21.6,14.5,25.6c9.6,4,21,1.6,29.4-4.9c8.3-6.5,13.9-16.7,16.4-27.5s2.3-22.2,0.7-33.2c4.9,3.6,10.5,5.4,16.5,5.4
			c23.2,0.2,46.3-10.6,62-29.1c-9.8,12-10.2,31.6-0.7,43.9c6-13.2,10.4-28,11.5-42.7c1.9,12.6,11,23.5,22.4,27.1
			c0.7-11.4-3.1-23.2-10.4-31.4c9.5-6.6,17.5-16,22.7-26.8c3.2,15.7,6.7,31.3,13,45.8s16,27.8,29.1,35.3c13.1,7.4,30.1,8,42.4-1
			c12.2-9.1,17.7-28.6,10-42.3c-11.4,1.6-22.5-8.6-26.2-20.4c8.6-2.2,18.8-0.5,25.5,5.9c23.7-0.8,45.7-17,57.6-39.1
			c11.9-22.1,13.8-49.7,7.2-74.2c-4.1-15.2-11.3-29.1-20.6-41.4c27.1,15.9,48.5,44.2,56.3,76.2C904,406,884.4,460.5,846,487.1
			C868.6,500.8,872.2,540,858.3,563.8z"/>
	</g>
	<g>
		<path class="st1" d="M346.2,285.6c-5.3,7.3-13.3,12.1-21.8,12.9c-8.5,0.9-17.3-2.1-23.7-8.1c10.3-7.7,23.6-10.5,36.1-9.8
			c-10.4-4.2-17.9-15.2-18.6-27.2C330,259.7,339.8,273.2,346.2,285.6L346.2,285.6z"/>
	</g>
	<g>
		<path class="st1" d="M326,469.5c-3.7,5.1-9.4,8.5-15.4,9.1s-12.2-1.5-16.8-5.7c7.3-5.4,16.7-7.4,25.5-6.8
			c-7.4-3-12.6-10.8-13.1-19.2C314.7,451.2,321.6,460.7,326,469.5L326,469.5z"/>
	</g>
	<g>
		<path class="st1" d="M373.2,218.2c-11.4,1.4-23.2-2.4-32.1-10.2c8.7-3.7,18.9-3.7,27.4,0.7c-4.9-3.5-8-8.7-10.2-14.6
			c-2.1-5.9-3.2-12.1-4.1-18.4c10.2,6.3,17.5,17.3,20,29.6c0.8-9,4.8-17.6,11.1-23.5C388.1,194.8,381.7,208.6,373.2,218.2
			L373.2,218.2z"/>
	</g>
	<g>
		<path class="st1" d="M752.9,347.7c-5.7-8.7-7.9-19.9-6.1-30.3c6.2,5.5,10.3,13.9,10.8,22.6c0.4-5.4,2.8-10.1,6-14.3
			c3.2-4.2,7.2-7.6,11.1-11c-0.2,10.8-4.9,21.3-12.4,28.4c6.6-3.1,14.3-3.4,21-0.7C775.5,350,763.2,350.6,752.9,347.7L752.9,347.7z"
			/>
	</g>
	<g>
		<path class="st1" d="M518.2,175.7c-5.1-6-7.9-14.1-7.6-22.2c0.2-8.1,3.4-16.1,8.8-21.7C523.5,145.6,519.8,161.3,518.2,175.7
			L518.2,175.7z"/>
	</g>
	<g>
		<path class="st1" d="M695.6,276.6c-2.3-7.7-1.7-16.4,1.6-23.6c3.3-7.3,9.3-13,16.3-15.8C712,251.6,702.5,264.3,695.6,276.6z"/>
	</g>
</g>
</svg>
