<?xml version="1.0" encoding="utf-8"?>
<!-- Generator: Adobe Illustrator 28.2.0, SVG Export Plug-In . SVG Version: 6.00 Build 0)  -->
<svg version="1.1" id="Layer_1" xmlns="http://www.w3.org/2000/svg" xmlns:xlink="http://www.w3.org/1999/xlink" x="0px" y="0px"
	 viewBox="0 0 1920 1000.9" style="enable-background:new 0 0 1920 1000.9;" xml:space="preserve">
<style type="text/css">
	.st0{opacity:0.3;}
	.st1{fill:#86975C;}
	.st2{fill:#83A532;}
	.st3{fill:#719913;}
	.st4{fill:#632424;}
	.st5{fill:#D4DDBA;}
	.st6{fill:#87B11A;}
	.st7{fill:#5E7C12;}
	.st8{fill:#516E0E;}
	.st9{fill:#193441;}
	.st10{fill:#B56B1F;}
	.st11{fill:#91BAEE;}
	.st12{fill:#FB523A;}
	.st13{fill:#EB3434;}
	.st14{fill:#885017;}
	.st15{fill:#D18015;}
	.st16{fill:#FFFFFF;}
	.st17{fill:#FFC366;}
	.st18{fill:#E89A49;}
	.st19{fill:#E88620;}
	.st20{fill:#FFDB82;}
	.st21{fill:#FFC0A9;}
	.st22{fill:#1D262D;}
	.st23{fill:#25506B;}
	.st24{fill:#FFAF96;}
	.st25{fill:#FFAF8A;}
	.st26{fill:#AB661F;}
	.st27{fill:#385ABF;}
	.st28{fill:#4B78FF;}
	.st29{fill:#FFE79F;}
</style>
<g class="st0">
	<path class="st1" d="M-211.2,642.9c-1.1,18.4,5.6,37.6,19.7,49.6c6.4,5.4,14.1,8.9,22.2,10.2c-1.5,10.6-0.5,21.5,3.4,31.5
		c1,2.5,2.1,4.8,3.3,7.1c8.4,14.9,23.2,25.5,40.1,29.6c0.9,16.2,10.9,31.6,25.3,39s33.1,7.7,46.9-0.9c6.1,10.1,21.2,15.4,32.3,11.3
		c-1.2,15.4,7.7,30.5,20.6,38.9c10.4,6.8,22.9,9.6,35.4,9.4c3-0.1,6.1-0.3,9.1-0.7c2.3-0.3,4.6-0.7,6.8-1.3
		c-0.9,50.6-6.2,101.1-15.7,150.9c16.6,1.7,33.4,4.2,49.9,6c9.9-52.5,11.2-106.3,6-159.9c10,3.6,21.1,4.2,31.4,1.6
		c17.3-4.4,31.6-18.3,37.4-35.1c7.3,1.8,15.4-0.7,20.4-6.3s7.2-14.4,4.5-21.4c14.7-6.5,26.1-19.8,30.7-35.1c1.3-4.2,2.1-8.6,2.3-13
		c0.4-9.5-1.8-19.1-6.2-27.5c3.6-4.2,6.4-9.2,8.3-14.7c24.2-8.2,42.1-32.5,42.7-58c0.2-10-2.2-20.2-6.6-29.6
		c-6.9-14.7-18.9-27.2-33.5-32.9c16.7-7.4,26.6-27.4,22.5-45.2s-21-31.6-39.2-30.9c10.7-25.5,2.3-57.7-19.5-74.7
		s-55.5-18.1-77.6-1.4c-11.9-7.2-29.4-3.2-36.6,8.7c-7-9.3-17.8-15.6-29.3-17.2c-11.6-1.5-22.2,1-31.4,8.1
		c-12.1-31-43.3-53.4-76.5-55.2c-33.2-1.8-66.7,17.2-82.1,46.6c-15.5,29.4-14.2,69.6,6.2,95.9c-11.9,0.4-23.9,2.3-34.6,7.6
		c-3.4,1.7-6.6,3.7-9.6,6.1c-6.4,5.1-11.4,11.8-13.9,19.5c-3.7,11.3-3.3,25,5.5,33C-202.1,607.1-210.2,624.5-211.2,642.9
		L-211.2,642.9z M147,668.5c2.5-0.7,4.8-1.5,6.8-2.6c-0.6,2.5-1,5-1.5,7.5C150.6,671.7,148.8,670.1,147,668.5L147,668.5z"/>
	<path class="st1" d="M280.4,603.8c-9.1-6.2-13.6-18.3-10.9-28.9c2.7-10.6,12.2-22.9,23.1-23.9c-33.5,2-65.9-17.1-85.5-44.3
		c-19.5-27.2-27.3-61.4-27.8-94.9c-0.5-28.4,4.6-58.3,22.7-80.3c8.2-10,18.8-17.8,30.6-23.1c10.9-5,22.8-8,34.8-8.8
		c24.9-1.7,48.3,5,70.1,17.2c3.6-15.2,12.6-29.8,26.7-36.4s32.6-2.6,40.3,10.9c-5-22.3-7.8-45.4-4.8-68s12.3-44.9,28.6-60.9
		c16.4-16,40.3-24.8,62.8-20.3c22.4,4.5,43.6,23.6,45.6,46.4c9.6-10,22.1-17.6,35.8-19.4c13.7-1.9,28.6,2.7,37.6,13.2
		c6.9,8.1,9.9,18.9,10.3,29.5c0.4,10.6-2,18.7-4.1,29.1c11.5-2.2,24,5.5,27.3,16.8c1.7,5.9,0.8,12.6-2,18.4
		c10.8-9.8,22.8-18.1,36.4-23.2c18.8-7,40.9-7.1,58.1,3.3c17.2,10.4,26.2,31.9,20.1,51c11.3-6.6,27.2-3.6,35.3,6.6
		c8.2,10.2,6.7,25.3-2.2,34.8c24.2-1.6,49.3,3.3,69.5,16.7c7.7,5.1,14.7,11.5,20.5,18.8c9.3,11.8,15.4,26,16.5,40.9
		c1.8,24.2-11.3,48.2-32.8,59.4c13.7,8,20.2,26.3,14.6,41.1c-5.6,14.8-19.9,23.6-35.4,20.5c7.8,34.5-7.7,73-37.1,92.6
		c-0.8,0.6-1.7,1-2.5,1.5c1.2,10.8,0.2,21.9-3.4,32.3c-2.1,6.2-5.2,12.1-9,17.4c-10.5,14.7-26.7,25.6-44.3,30.1
		c6.3,21.7-2.2,46.9-20.4,60.2c-18.2,13.4-44.7,15.1-63.6,2.7c-0.5,10.3-8.6,19.6-18.7,21.6c-9.6,1.9-19.6-2.3-24.3-10.8
		c-0.2-0.4-0.4-0.8-0.6-1.2c-2.5,5.9-5.9,11.5-10,16.4c10.7,96.7,7.4,195.2-9.3,289c-37.5-13.5-75.7-25.6-114.4-35.1
		c26.4-75,42.1-153.8,46.9-233.2c-15.3-5.8-28.7-16.8-36.6-31c-5.5,6.2-12.9,10.7-21,12.9c-7.2,2-14.9,2.2-22.1,0.4
		c-15.4-3.9-28.1-18.6-31.7-34.1c-12.6,14.9-36.7,16.6-53.5,6.5c-16.7-10.1-26.2-29.5-28.3-48.9c-0.1-0.7-0.1-1.3-0.1-2
		c-1.9-0.5-3.7-1.1-5.5-1.8c-12.5-4.9-23.1-15.6-31.5-26.1c-21.7,7.8-47.8,3.7-64.9-11.8s-23.5-42.3-13.8-63.2
		C232.5,609.6,258.6,596.4,280.4,603.8L280.4,603.8z"/>
</g>
<g>
	<path class="st2" d="M340,712.2c3,23.8-9.9,48.7-30,58.8c-0.9,0.4-1.7,0.8-2.6,1.2c-4.3,1.8-9.1,3-13.6,1.6s-9.2-6.3-8.5-11.3
		c-3.8,9.6-12.3,16.8-21.8,18.4c-7.9,1.4-15.9-1.3-22-6.6c-1.2-1.1-2.4-2.3-3.5-3.6c-7.4,20-25.5,35-45.3,37.6
		c-3.3,0.4-6.5,0.5-9.7,0.2c-16.4-1.4-31.6-11.4-41.2-26.1c-1.4,9-7,17.1-14.5,21.3c-1.4,0.8-2.9,1.5-4.4,2
		c-9.7,3.1-21-1.7-27.8-9.8c-3.5,5.2-8.8,8.9-14.6,10.4c-4,1-8.3,1.1-12.3-0.1c-9.8-2.9-16.1-13.9-16.9-24.7
		c-9.3,2.8-19.6-0.8-26.9-7.8c-0.9-0.9-1.9-1.8-2.7-2.8c-7.3-8.8-10.7-20.8-11.3-32.6s1.5-23.6,3.8-35.2c2-10.1,4.3-20.3,9.4-28.9
		c5.1-8.7,13.6-15.7,23.1-15.9C43.8,617,33.8,553.6,62.9,526.9c0.4-0.4,0.7-0.7,1.1-1c30.4-26.2,108.8-25.3,147.3-19.2
		c33.6,5.3,65.2,22.6,90.5,47.1c3.7,3.5,7.2,7.2,10.6,11.1c5,5.7,9.8,11.7,14.1,18c7.6,11.1,14.1,23.1,18.7,35.9
		c1.8,5,3.3,10.1,4.5,15.3C355.7,660.1,353.6,689.5,340,712.2z"/>
	<g>
		<path class="st3" d="M340,712.2c3,23.8-9.9,48.7-30,58.8c-0.3-0.2-0.5-0.4-0.8-0.7c-13.5-11.6-17.9-33.4-10.8-50.4
			c-10.6,1.5-22.3-1.1-29.4-9.7c-5.9-7.2-7.8-17.4-7-26.9s3.7-18.7,6.9-27.6c-8.8,1.8-19.6-6.8-19.7-16.4
			c-10.8,43.4-14.2,90.3-7.8,135c-1.2-1.1-2.4-2.3-3.5-3.6c-7.4,20-25.5,35-45.3,37.6c-3.3,0.4-6.5,0.5-9.7,0.2
			c-5.8-38.9-4.9-78.4,1.6-117.3c-10.7,6.2-23.5,8.2-35.4,5.4s-22.7-9.6-30.1-20.1c-2.6,8.6-10.6,14.6-19.1,14.2
			c2.3,9.4,4.1,19.3,2.2,28.8s-8.5,19.1-17.4,20.9c7.6,24.9,22.7,48.1,42.6,63.3c-1.4,0.8-2.9,1.5-4.4,2c-9.7,3.1-21-1.7-27.8-9.8
			c-3.5,5.2-8.8,8.9-14.6,10.4c-12-14.4-20.3-32.2-23.8-51.3c-8.1,10.3-20,17-32.4,18.6c-0.9-0.9-1.9-1.8-2.7-2.8
			c-7.3-8.8-10.7-20.8-11.3-32.6s1.5-23.6,3.8-35.2c2-10.1,4.3-20.3,9.4-28.9c5.1-8.7,13.6-15.7,23.1-15.9
			c-2.9-41.3-12.9-104.7,16.2-131.4c80.1,2.9,160.1,11.9,239,26.9c3.6,0.7,7.2,1.3,10.8,2.1c4.6,9,9.3,18,13.9,27
			c6.2,12,12.4,24,18.7,35.9c1.8,5,3.3,10.1,4.5,15.3C355.7,660.1,353.6,689.5,340,712.2z"/>
	</g>
	<path class="st4" d="M347.1,1056.4c-37.4-65.7-73.5-132.9-96.5-205.8c-11.3-35.9-19.4-73.6-22.7-111.6
		c41.1-17.3,76.7-64.4,81.3-111.3c-2.5-0.3-5.3-0.4-7.8-0.7c-6.7,41-37.6,75.4-74.9,85.6c-0.7-30.4,1.7-60.7,8.4-90.1
		c-9.4-1-18.8-2-28.2-3.1c-14,72.1-16.6,148.7-9.8,224.5C161,839.9,89.5,809,72.7,729.8c-2.7,0-6-1.1-8.7-1.1
		c13.9,72.5,70.4,127.6,136.4,148c8.5,67.4,24.3,133.6,46.2,195C280.9,1069.7,313.6,1065.5,347.1,1056.4L347.1,1056.4z"/>
	<path class="st2" d="M425.9,559.7c-0.6,10.5-10.8,19-20.4,17c6.7,6.5,8.2,18.7,4.9,27.8c-3.3,9-12.1,15.4-21.1,15.2
		c18.1,20.6,34.2,45.6,33.7,74s-20.1,57.3-46.3,59.2c-18.9,1.3-36.3-10.8-50-24.9c-33-34-52.7-82.5-53.4-131.8
		c-2.7,5.9-9.4,10.3-15.5,10.4c-6.1,0.2-12.1-3.5-15-9.2c3.4,9.5,1.9,20.9-3.2,29.4c-5.1,8.5-15.2,13.7-24.3,11.2s-16-13.2-13.8-23
		c-4.5,14.5-11.8,30.2-21.7,41.2c-9.8,11-26.3,16.6-38.5,8.8c-7.6-4.9-12.1-13.9-15.3-22.9c-7.8-22-9.9-46.3-6-69.5
		c-21.8,8.3-47.8,3-64.9-13.7c17.2,18,30.2,40.8,37.7,65.5c3.1,10.1,5.3,21,3.1,31.4c-2.2,10.4-12,25.7-21.8,27
		c9.8,6,15.3,19,13.3,31c-2,11.9-11.5,22-22.6,23.9s-23-4.4-28.4-15c-9.2,20.5-25.5,38.4-45.4,46.1c-19.9,7.6-43.3,5.2-60.6-7.9
		c-12.6-9.5-21.4-24.6-24-40.7c-1-6.2-1.1-12.5-0.2-18.7c3.4-22.5,21.1-42.1,42.1-44.7c-12.4-6.8-19.2-21.3-19.4-36.3
		s7.9-29.8,20.2-37c12.2-7.1,28.2-6.3,39.7,2.1c-3.1-5.4-3.3-12.1-0.1-17.5c3.1-5.4,9.3-8.4,15-7.7c-18.3-20.8-36.5-41.9-45.3-69
		c-8.8-27.1-10.3-57.5-0.8-84.4c9.5-26.8,30.6-49.4,56.5-55.9c25.9-6.6,55.7,4.9,69.5,29.4c-3.6-18.4,10.3-40.8,27-46.4
		s36.5,4.5,43.1,21.8c5.9-14,23-25,37.3-24.5s27.7,9.9,35.1,23.1c7.3,13.2,8.8,29.8,5,44.6c4.8-8.2,17.9-9.2,25.3-3.6
		s10.6,16,10.5,25.7c-0.1,9.8-3.2,19.1-6.2,28.3c5.8-5,15.6-2.3,21.1,3.1c5.6,5.4,8.3,13.3,10.3,21.1c7.5-20.8,14.2-41.6,27.2-58.9
		s32.3-30.6,52.9-29.8c8.3,0.3,16.2,2.9,23.3,7.3c17.7,10.9,30.6,32.4,33.8,54.7c4.5,31.3-6,62.9-20,90.6
		C419.2,536.6,426.5,549.2,425.9,559.7z"/>
	<g>
		<path class="st3" d="M425.9,559.7c-0.6,10.5-10.8,19-20.4,17c6.7,6.5,8.2,18.7,4.9,27.8c-3.3,9-12.1,15.4-21.1,15.2
			c18.1,20.6,34.2,45.6,33.7,74s-20.1,57.3-46.3,59.2c-18.9,1.3-36.3-10.8-50-24.9c-33-34-52.7-82.5-53.4-131.8
			c-2.7,5.9-9.4,10.3-15.5,10.4c-6.1,0.2-12.1-3.5-15-9.2c3.4,9.5,1.9,20.9-3.2,29.4c-5.1,8.5-15.2,13.7-24.3,11.2s-16-13.2-13.8-23
			c-4.5,14.5-11.8,30.2-21.7,41.2c-9.8,11-26.3,16.6-38.5,8.8c-7.6-4.9-12.1-13.9-15.3-22.9c-7.8-22-9.9-46.3-6-69.5
			c-21.8,8.3-47.8,3-64.9-13.7c17.2,18,30.2,40.8,37.7,65.5c3.1,10.1,5.3,21,3.1,31.4c-2.2,10.4-12,25.7-21.8,27
			c9.8,6,15.3,19,13.3,31c-2,11.9-11.5,22-22.6,23.9s-23-4.4-28.4-15c-9.2,20.5-25.5,38.4-45.4,46.1c-19.9,7.6-43.3,5.2-60.6-7.9
			c-12.6-9.5-21.4-24.6-24-40.7c1.6,3.2,3.6,6.2,6,8.6c8.4,8.4,20.4,11.6,31.8,11.3c9.7-0.2,19.5-2.8,27.7-8.4
			c8.2-5.6,14.7-14.4,17-24.6c-10-2.8-17.2-14.5-15.5-25.6c9.2,1.4,17.2,8.6,19.9,18.3c0.1-10.9,4.4-21.7,11.8-29.2
			c1.7,9.2,0.9,18.1-2,27c3.4,4.1,9.9,4.8,14.6,2.5s7.8-7.4,8.7-12.8c0.9-5.4-0.3-11.1-2.7-15.9c6.5,2.5,14.4,1,19.3-4.2
			s6.8-13.5,4.7-20.6c-2-6.6-7.4-11.8-13.7-13.4c6.8,0.7,14-4.4,17-11.1c-5.5-2.7-12.6-1.4-17,3.1c6.7-7.8,8.1-20.5,7.9-31.1
			c-0.6-25.5-10.5-50.6-27.1-68.8c9.7,7.4,20.1,13.7,30.8,19.4s22.4,9.5,34.3,9.3s24-4.7,32.3-13.9c-5.6-2.4-9.5-10-8-16.2
			c4,3.1,7.3,7.2,9.6,11.9c0.5-6.6,2.9-12.6,6.9-17.5c0.9,6.2,0,12.5-2.4,18.2c8.1-4.3,15.3-10.4,20.1-18.6
			c-2.5,9.2-4.8,20.1-4.7,29.7c0.1,9.6,3,19.6,9.5,26.1c5.9,6,14.6,8.6,22.5,6.8s14.9-8,18-16c0.5,5.7,4.9,11.1,10,12.8
			c1.1-5.2-1.3-11-5.6-13.6c3.5,1.6,7.6,1,11.1-0.6c-2.7-1.9-6-3.1-9.2-2.9c6.1-6,9.2-15,8.8-23.9c0.2,5.1,3,9.6,6.5,13.1
			s8,5.6,12.6,6.4c2.8,0.4,5.7,0.4,8.4-0.5s5.1-2.9,6.4-5.6c-3.6-1.6-6.7-4.8-7.9-8.8s-0.6-8.6,1.4-12.2c4.3,5.3,7.2,11.6,8.3,18.5
			c1.4-6.4,4.5-12.2,9.1-16.5c0.8,5.8-1,11.8-4.7,16.1c7-5,12.3-12.7,14.7-21.4c-0.3,5.7,1.9,11.2,5.5,15.4s8.7,6.8,14,7
			c-4.5,1.2-8.3,4.4-9.8,9.2c4.5-0.7,8.9-2.9,12.2-6.3c-0.9,2.7-1.2,5.6-0.7,8.4c1.8-1.8,3.8-3.5,5.6-5.2
			c-2.4,18.8,1.4,38.4,9.6,55.2c4.1,8.5,9.7,16.4,17.2,21.7c7.5,5.2,17,7.4,25.5,4.3c8.4-3.1,15.1-12.1,14.6-21.7
			c-4.5,0.7-9.9-1.3-12.9-5.1c3.9-2.5,9-2.7,13.1-0.5c-3-3.3-4.8-7.8-4.7-12.4c4,1.8,7.3,5.3,8.5,9.9c4.2,1.6,8.9,2.8,13.4,3
			s9.3-1.3,12.2-4.9c2.1-2.6,3-6.1,3.1-9.5c0.2-8.1-4.7-16.1-11.8-19c6.8-1.1,14.3-2.9,18.6-8.7c3.8-5.1,4.1-12.6,1.9-18.8
			c-2.2-6.1-6.5-11.1-11.1-15.5c13.2-5.7,21.2-21,27-35.1c6.1-15,10.1-31.1,10.3-47.4c0.2-16.3-3.5-32.9-11.7-46.6
			c-2.2-3.7-4.8-7.2-7.7-10.4c17.7,10.9,30.6,32.4,33.8,54.7c4.5,31.3-6,62.9-20,90.6C419.2,536.6,426.5,549.2,425.9,559.7z"/>
	</g>
	<g>
		<path class="st3" d="M362.3,483c-3.8-5.9-5.3-13.4-4.1-20.4c4.2,3.7,7,9.4,7.3,15.2c0.2-3.7,1.9-6.8,4.1-9.6
			c2.2-2.8,4.9-5.1,7.5-7.4c-0.1,7.3-3.3,14.4-8.4,19.2c4.5-2.1,9.6-2.3,14.2-0.4C377.5,484.6,369.2,485,362.3,483L362.3,483z"/>
	</g>
	<g>
		<path class="st3" d="M348.6,441c-1.6-5.2-1.2-11,1.1-15.9c2.2-4.9,6.3-8.8,11-10.7C359.7,424.2,353.3,432.7,348.6,441z"/>
	</g>
	<path class="st2" d="M930.8,542.9c-5.5,16.9-19.6,28.5-35.9,31c11.3,8.4,17.7,24,15.9,38.7c-1.9,14.7-11.7,30.2-24.7,35
		c1.1,15.8-5,32.1-16.1,42.5s-26.8,14.9-41.2,11.5c-5.5-1.3-10.8-3.7-14.8-7.8c-4-4.2-6.1-10.2-5.1-16.1
		c-9,13.9-25.7,21.4-41.1,18.5h-0.1c-15.4-2.9-30.1-20-34.1-36.3c-1.7,22.5-18,42.9-38.5,47.9c-7.4,1.8-15.2,1.7-22.8-0.1
		c-13.4-3.2-25.8-11.8-32.6-24.2c4.8,13.6,0.1,30-10.1,39.3c-2.4,2.1-5,3.9-7.9,5.1c-15.4,6.7-33.9-2-40.4-18.4
		c-0.9,0.7-1.8,1.4-2.8,2c-15.2,10.2-36.9,6.6-50-6.9c-7.7-8-12.6-18.6-14.5-29.9c-1.6-9.1-1.4-18.6,0.6-27.6
		c4.5-20.2,17-37.5,32.3-50.1c11.2-74.6,74.5-147.6,140.2-173.7s132.9,11.6,199.1,36.1c15.7,5.8,29.9,16.9,38.6,32.1
		c2,3.5,3.7,7.2,5,11C934.3,515.4,935,529.9,930.8,542.9z"/>
	<g>
		<path class="st3" d="M929.8,502.5c-10.9,20.4-30,35.8-51.5,40.4c-29.2,6.1-58.9-9.8-75.5-36.4c-8.5,9.9-25,9.8-33.7,0
			c-0.9,10.7-6.3,20.7-14.4,26.9c-8.1,6.2-19.4,8.7-29,6.1c24.6,48.1,38.7,102,42,156.9c-15.4-2.9-30.1-20-34.1-36.3
			c-1.7,22.5-18,42.9-38.5,47.9c-7.4,1.8-15.2,1.7-22.8-0.1c-0.7-51-2.1-102-2.6-153c-9.4,1.2-18.7-3.2-25.2-10.7
			c2.9,14.1,4.7,28.6,3,42.9c-1.7,14.3-7.2,28.5-17,38.2c-9.8,9.8-24.8,15.5-37.6,11.2c6.7,31,19,60.9,36.7,86.4
			c-2.4,2.1-5,3.9-7.9,5.1c-15.4,6.7-33.9-2-40.4-18.4c-0.9,0.7-1.8,1.4-2.8,2c-7.5-15.6-13.5-32.1-17.8-49.2
			c-9.5,9.5-22.5,14.7-35.4,14.3c-3.8-0.1-7.6-0.8-11.3-1.9c-1.6-9.1-1.4-18.6,0.6-27.6c4.5-20.2,17-37.5,32.3-50.1
			c11.2-74.6,74.5-147.6,140.2-173.7S820,435,886.2,459.5c15.7,5.8,29.9,16.9,38.6,32.1C926.7,494.9,928.4,498.6,929.8,502.5z"/>
	</g>
	<path class="st4" d="M702.9,494.7c-10.5,3.2-21,6.4-31.5,9.7c20.6,97.8,24.7,199.5,14.1,299.4C630.2,749,592,674.7,577.9,595
		c-5-0.8-10.3,0.2-14.8,2.7c15.3,95.1,55.1,188.4,115.1,260.2c-13.8,85.6-38.5,169.1-73.3,247.1c48.4,4.3,95.2,6.6,143.6,10.9
		C787.3,914.6,768.8,687.6,702.9,494.7L702.9,494.7z"/>
	<path class="st2" d="M896.9,476.3c-9.4,16-28.7,23.3-46.1,20.7c-17.4-2.6-33-13.6-45.3-27.1c-10.2,8.8-22.7,11.1-34.9,6.3
		c-12.2-4.8-21.7-16.9-24.1-30.7c-0.4,7.2-5,14.1-11.1,17s-13.7,1.9-18.9-2.6c5.7,7.2,9.5,16.6,9.7,26.1s-4,19.4-11.8,23.9
		s-18.8,2-23.1-6.3c-9.3,7.3-23.1,8.3-31.8,0.1c-8.6-8.2-13.2-17.7-7.8-28.5c-9.8,17.9-32.8,25.7-50.3,17
		c11.4,17.8,17.8,38.4,20,59.9c1.4,13.3,0.8,26.9-3.5,39.4c-4.4,12.4-12.8,23.6-24.1,28.9c-11.3,5.3-25.6,3.8-34.7-5.1
		c-1.8,9.6-8.7,19.2-16.9,23.5c-8.1,4.4-17.7,5.2-26.6,3.7c-15.2-2.6-29.3-11.9-38.3-25.3c-9-13.4-12.8-30.8-10.3-47.2
		c-12.2,4.1-27,0.3-37.7-7.2s-18.6-19.1-23.9-31.7c-4.4-10.4-7-21.9-7.4-33.4c-0.2-7.4,0.5-14.7,2.3-21.8
		c4.6-18.2,16.8-34.4,33.1-41c16.3-6.7,36.4-2.7,48.2,11.2c-8-10.4-7.3-28.2-1.1-40c-21.6-24.8-38.6-54.1-43.3-87.7
		c-4.6-33.7,3.2-69.9,24.1-95.5c20.9-25.5,55.2-38.5,85.5-29c-6.7-20.2-2-45.1,10.3-61.9c12.2-16.9,32.8-26.3,52.5-24.2
		c19.7,2.2,38.1,15.8,47,35c1.1-19.2,22-34.8,39.7-33.8c17.8,1,33.3,15.5,39.9,33.4c6.6,17.8,5.2,38.2-0.5,56.4
		c11.7-12,31.2-16,45.3-7.6c14.1,8.3,22.3,27.1,19.1,44.2c11.2-9.7,30.3-8.9,41.8,0.4c11.6,9.3,16.2,27.3,10.9,41.7
		c10,0.6,19.8,3.8,28.6,9c18.3,10.7,32.7,29.8,38,51.4c7.9,32.1-5.3,68.9-31.2,86.9C903.8,433.8,906.3,460.3,896.9,476.3z"/>
	<g>
		<path class="st5" d="M537.6,572.8c-0.2-1.7-0.1-3.4,0.1-5C537.8,569.4,537.8,571.1,537.6,572.8z"/>
	</g>
	<g>
		<path class="st3" d="M896.9,476.3c-9.4,16-28.7,23.3-46.1,20.7c-17.4-2.6-33-13.6-45.3-27.1c-10.2,8.8-22.7,11.1-34.9,6.3
			c-12.2-4.8-21.7-16.9-24.1-30.7c-0.4,7.2-5,14.1-11.1,17s-13.7,1.9-18.9-2.6c5.7,7.2,9.5,16.6,9.7,26.1s-4,19.4-11.8,23.9
			s-18.8,2-23.1-6.3c-9.3,7.3-23.1,8.3-31.8,0.1c-8.6-8.2-13.2-17.7-7.8-28.5c-9.8,18-32.8,25.7-50.3,17
			c11.4,17.8,17.8,38.4,20,59.9c1.4,13.3,0.8,26.9-3.5,39.4c-4.4,12.4-12.8,23.6-24.1,28.9c-11.3,5.3-25.6,3.8-34.7-5.1
			c-1.8,9.6-8.7,19.2-16.9,23.5c-8.1,4.4-17.7,5.2-26.6,3.7c-15.2-2.6-29.3-11.9-38.3-25.3c-9-13.4-12.8-30.8-10.3-47.2
			c-12.2,4.1-27,0.3-37.7-7.2s-18.6-19.1-23.9-31.7c-4.4-10.4-7-21.9-7.4-33.4c4.1,8.7,9.9,16.5,17,22.7
			c14.2,12.3,33.3,17.7,51.2,14.4c-6.6-10.6-1.7-26.3,8.9-32c2,8.9,1.7,20.9,0.9,30c6.2-12.2,17.1-21.5,29.7-24.7
			c-1.8,13.1-10.9,24.7-22.8,27.9c-2,9.6-2.3,20.5,0.2,29.9c2.4,9.5,7.8,18.2,15.6,23.3c7.7,5.2,17.8,6.4,26.1,2.2
			c6.8-3.5,11.9-10.8,12.9-18.8c0.6,6.4,3.5,12.7,8.2,16.7c2.3-6.8,2.1-14.5-0.4-21.1c6.7,6,17,2,22.1-5.6s5.5-17.7,4.2-27
			c-3-22.6-14.9-43.8-32-57.2c8.8,1.6,16.2,1.8,25,1.5c8.9-0.3,17.9-2.6,25.1-8.3c7.2-5.7,12.2-15,11.6-24.5
			c-8.3-4.4-12.3-15.3-9.8-25c7.2,3.1,12.9,9.5,15.4,17.5c1.6-8.7,5.9-16.2,12-22.2c3.5,8.2,1.9,18.6-3.7,25.2
			c6.9,6.6,16.1,10.7,25.3,9.7s17.9-6.4,23.3-14.5c-0.6,7.5,3.3,14.6,9.8,17.3c6.5,2.7,14.2,1.1,19.8-3.3s9.4-11.3,11.1-18.5
			c1.7-7.3,1.6-15,0.5-22.4c3.3,2.4,7.1,3.6,11.1,3.6c15.7,0.1,31.2-7.2,41.8-19.6c-6.6,8.1-6.9,21.3-0.5,29.6
			c4-8.9,7-18.9,7.8-28.8c1.3,8.5,7.5,15.9,15.1,18.3c0.5-7.7-2.1-15.6-7-21.2c6.4-4.5,11.8-10.8,15.3-18.1
			c2.2,10.6,4.5,21.1,8.8,30.9s10.8,18.8,19.6,23.8c8.9,5,20.3,5.4,28.6-0.7s11.9-19.3,6.7-28.5c-7.7,1-15.2-5.8-17.7-13.8
			c5.8-1.5,12.7-0.3,17.2,3.9c16-0.6,30.8-11.5,38.9-26.4c8-14.9,9.3-33.5,4.9-50.1c-2.8-10.2-7.6-19.7-13.9-27.9
			c18.3,10.7,32.7,29.8,38,51.4c7.9,32.1-5.3,68.9-31.2,86.9C903.8,433.8,906.3,460.3,896.9,476.3z"/>
	</g>
	<g>
		<path class="st3" d="M551.4,288.6c-3.5,4.9-9,8.1-14.7,8.7s-11.6-1.4-16-5.4c7-5.2,15.9-7.1,24.4-6.6c-7-2.8-12.1-10.3-12.5-18.3
			C540.5,271.1,547.1,280.2,551.4,288.6L551.4,288.6z"/>
	</g>
	<g>
		<path class="st3" d="M537.8,412.7c-2.5,3.4-6.3,5.7-10.4,6.1c-4,0.4-8.2-1-11.3-3.9c4.9-3.7,11.3-5,17.2-4.6c-5-2-8.5-7.3-8.8-13
			C530.1,400.3,534.8,406.7,537.8,412.7L537.8,412.7z"/>
	</g>
	<g>
		<path class="st3" d="M569.6,243.1c-7.7,1-15.7-1.6-21.6-6.9c5.9-2.5,12.7-2.5,18.5,0.4c-3.3-2.3-5.4-5.9-6.9-9.9
			c-1.4-3.9-2.1-8.2-2.8-12.4c6.9,4.2,11.8,11.7,13.5,20c0.5-6.1,3.2-11.9,7.5-15.9C579.6,227.3,575.4,236.7,569.6,243.1
			L569.6,243.1z"/>
	</g>
	<g>
		<path class="st3" d="M825.8,330.5c-3.8-5.9-5.3-13.4-4.1-20.4c4.2,3.7,7,9.4,7.3,15.2c0.2-3.6,1.9-6.8,4.1-9.6
			c2.2-2.8,4.8-5.1,7.5-7.4c-0.1,7.3-3.3,14.4-8.4,19.2c4.5-2.1,9.6-2.3,14.2-0.4C841,332.1,832.7,332.5,825.8,330.5L825.8,330.5z"
			/>
	</g>
	<g>
		<path class="st3" d="M667.4,214.5c-3.4-4-5.3-9.5-5.2-15c0.1-5.4,2.3-10.8,5.9-14.6C671,194.2,668.5,204.8,667.4,214.5
			L667.4,214.5z"/>
	</g>
	<g>
		<path class="st3" d="M787.1,282.6c-1.6-5.2-1.2-11,1.1-15.9c2.2-4.9,6.3-8.8,11-10.7C798.2,265.7,791.8,274.2,787.1,282.6z"/>
	</g>
</g>
<g>
	<g>
		<g>
			<path class="st6" d="M494.6,863.9c-5.9,12.3-18,23.7-28.7,32.1c-5.3-0.1-10.6-0.2-15.9-0.2c-47.5-0.3-95,2.6-142.2,8.5
				c-3,0.4-5.9,0.7-8.9,1.1c-11-8.6-24.8-15.4-37.9-20.2c-7-2.5-14.3-4.5-20.4-8.7c-6.1-4.2-10.9-11.3-10-18.7
				c0.9-6.9,6.7-12.4,13.3-14.6c6.6-2.2,13.8-1.7,20.6-0.4c19.6,3.7,38,13.4,52.3,27.4c-11.7-12-22.7-24.7-34.5-36.6
				c-4-4.1-8.1-8.2-10.8-13.3c-2.7-5.1-3.7-11.4-1.4-16.6c3.2-7.3,11.9-10.7,19.9-11c16-0.7,31.2,7.8,42.4,19.2
				c11.2,11.5,18.9,25.8,26.5,40c-2.3-11.4-0.1-23.5,6.4-33.1c2.5-3.7,6-7.2,10.5-7.8c5.3-0.7,10.2,3.1,13.6,7.2
				c7.1,8.6,10.9,20,10.2,31.2c2.6-21.2,12.8-41.3,27.8-56.5c3.5-3.6,7.4-6.9,12.1-8.9c4.6-1.9,10.1-2.3,14.6,0.1
				c6.8,3.6,9.2,12.2,10,19.8c2.2,18.9-0.7,38.4-8.3,55.9c7.4-8,17.7-13,28.5-14.5c3.3-0.5,7-0.5,9.6,1.5
				C498.8,850.7,497.2,858.4,494.6,863.9z"/>
			<g>
				<path class="st3" d="M470.1,870.2c-0.5,1.8-1.8,3.4-3,4.9c-5.7,6.9-11.4,13.8-17.2,20.8c-47.5-0.3-95,2.6-142.2,8.5
					c-6.7-6.9-13.3-13.9-20-20.8c-2.4-2.5-4.9-5.8-3.6-8.9c1.2-3,5.2-3.7,8.4-3.7c13.8,0.2,27.4,5.3,37.9,14.3
					c-6.5-14.7-11.4-29.7-18-44.4c-0.9-2-1.8-4.2-1.3-6.4c0.7-3.1,4.1-4.9,7.2-4.7c3.1,0.1,6,1.8,8.6,3.4
					c16.1,10.4,29.3,25.3,37.6,42.6c1.3-6.4,3.9-12.2,5.2-18.6c0.6-3,1.4-6.2,3.9-8c2.1-1.5,4.9-1.6,7.3-0.7
					c2.4,0.9,4.4,2.6,6.1,4.5c5.8,6.4,9,15.1,8.7,23.8c4.2-13.7,10.9-26.8,19-38.6c2-3,4.2-5.9,7.1-8s6.7-3.2,10.2-2.2
					c4.5,1.3,7.3,5.7,9.1,10c5.3,12.3,6,26.5,2,39.3c5.4-5.5,12-9.4,19.2-12.1c2-0.8,4.4-1.4,6.2-0.1
					C470.3,866.1,470.7,868.4,470.1,870.2z"/>
			</g>
		</g>
		<g>
			<path class="st6" d="M1228.2,871.4c-7.3,11.3-20.6,21-32.1,27.9c-5.2-0.8-10.4-1.5-15.5-2.2c-46.6-6.2-93.5-9.4-140.4-9.5
				c-2.9,0-5.9,0-8.8,0c-9.8-9.8-22.4-18.2-34.6-24.6c-6.5-3.3-13.4-6.2-18.9-11.1c-5.5-4.9-9.3-12.5-7.4-19.6
				c1.7-6.7,8.1-11.3,14.9-12.7c6.7-1.4,13.7,0.1,20.2,2.2c18.8,6.1,35.6,17.9,47.9,33.4c-9.9-13.2-19.2-27-29.2-40.2
				c-3.4-4.5-6.9-9.1-8.9-14.4c-2-5.3-2.2-11.6,0.7-16.5c4.1-6.8,13-9,20.8-8.3c15.7,1.3,29.7,11.5,39.2,24.2s15.3,27.7,21,42.5
				c-0.9-11.5,2.8-23.1,10.4-31.7c3-3.3,6.8-6.3,11.2-6.3c5.3,0,9.6,4.3,12.4,8.8c5.9,9.4,8.1,21,6.1,31.9
				c5.2-20.4,17.7-38.9,34.2-51.9c3.9-3.1,8.2-5.9,13-7.2s10.2-1,14.3,1.9c6.2,4.4,7.5,13.1,7.4,20.7c-0.2,18.8-5.5,37.6-15.1,53.7
				c8.3-6.9,19-10.5,29.7-10.6c3.3-0.1,6.9,0.4,9.2,2.7C1234,859,1231.5,866.4,1228.2,871.4L1228.2,871.4z"/>
			<g>
				<path class="st3" d="M1203.4,874.5c-0.8,1.8-2.2,3.1-3.5,4.4c-6.5,6.1-12.9,12.1-19.4,18.2c-46.6-6.2-93.5-9.4-140.4-9.5
					c-5.7-7.6-11.3-15.3-17-22.9c-2-2.7-4.1-6.3-2.4-9.2c1.6-2.8,5.5-3,8.7-2.5c13.5,1.9,26.2,8.7,35.3,18.8
					c-4.6-15.2-7.5-30.6-12.1-45.8c-0.6-2.1-1.2-4.3-0.5-6.4c1-2.9,4.6-4.3,7.7-3.7c3,0.5,5.6,2.5,8,4.5
					c14.5,12.2,25.6,28.5,31.6,46.5c2.1-6.1,5.3-11.5,7.4-17.6c1-2.9,2.2-5.9,4.8-7.4c2.2-1.2,5-1,7.3,0.2s4,3.1,5.4,5.2
					c4.9,7,6.9,16,5.5,24.4c5.8-12.9,14-24.9,23.4-35.4c2.3-2.7,4.9-5.3,8-7s7-2.3,10.2-0.9c4.2,1.8,6.4,6.5,7.7,11
					c3.7,12.7,2.6,26.8-2.9,38.8c6-4.7,12.9-7.7,20.3-9.5c2.1-0.5,4.5-0.8,6.1,0.7C1204,870.5,1204.1,872.8,1203.4,874.5
					L1203.4,874.5z"/>
			</g>
		</g>
		<g>
			<path class="st6" d="M1962.1,920.6c-7.3,11.3-20.6,21-32.1,27.9c-5.2-0.8-10.4-1.5-15.5-2.2c-46.6-6.2-93.5-9.4-140.4-9.5
				c-2.9,0-5.9,0-8.8,0c-9.8-9.8-22.4-18.2-34.6-24.6c-6.5-3.3-13.4-6.2-18.9-11.1c-5.5-4.9-9.3-12.5-7.4-19.6
				c1.7-6.7,8.1-11.3,14.9-12.7c6.7-1.4,13.7,0.1,20.2,2.2c18.8,6.1,35.6,17.9,47.9,33.4c-9.9-13.2-19.2-27-29.2-40.2
				c-3.4-4.5-6.9-9.1-8.9-14.4c-2-5.3-2.2-11.6,0.7-16.5c4.1-6.8,13-9,20.8-8.3c15.7,1.3,29.7,11.5,39.2,24.2s15.3,27.7,21,42.5
				c-0.9-11.5,2.8-23.1,10.4-31.7c3-3.3,6.8-6.3,11.2-6.3c5.3,0,9.6,4.3,12.4,8.8c5.9,9.4,8.1,21,6.1,31.9
				c5.2-20.4,17.7-38.9,34.2-51.9c3.9-3.1,8.2-5.9,13-7.2s10.2-1,14.3,1.9c6.2,4.4,7.5,13.1,7.4,20.7c-0.2,18.8-5.5,37.6-15.1,53.7
				c8.3-6.9,19-10.5,29.7-10.6c3.3-0.1,6.9,0.4,9.2,2.7C1967.9,908.1,1965.4,915.5,1962.1,920.6L1962.1,920.6z"/>
			<g>
				<path class="st3" d="M1937.4,923.7c-0.8,1.8-2.2,3.1-3.5,4.4c-6.5,6.1-12.9,12.1-19.4,18.2c-46.6-6.2-93.5-9.4-140.4-9.5
					c-5.7-7.6-11.3-15.3-17-22.9c-2-2.7-4.1-6.3-2.4-9.2c1.6-2.8,5.5-3,8.7-2.5c13.5,1.9,26.2,8.7,35.3,18.8
					c-4.6-15.2-7.5-30.6-12.1-45.8c-0.6-2.1-1.2-4.3-0.5-6.4c1-2.9,4.6-4.3,7.7-3.7c3,0.5,5.6,2.5,8,4.5
					c14.5,12.2,25.6,28.5,31.6,46.5c2.1-6.1,5.3-11.5,7.4-17.6c1-2.9,2.2-5.9,4.8-7.4c2.2-1.2,5-1,7.3,0.2s4,3.1,5.4,5.2
					c4.9,7,6.9,16,5.5,24.4c5.8-12.9,14-24.9,23.4-35.4c2.3-2.7,4.9-5.3,8-7s7-2.3,10.2-0.9c4.2,1.8,6.4,6.5,7.7,11
					c3.7,12.7,2.6,26.8-2.9,38.8c6-4.7,12.9-7.7,20.3-9.5c2.1-0.5,4.5-0.8,6.1,0.7C1938,919.7,1938.1,921.9,1937.4,923.7
					L1937.4,923.7z"/>
			</g>
		</g>
		<g>
			<path class="st6" d="M667.6,849.3c-0.1,4.5-2.4,8.8-5,12.5c-5.2,7.6-14.4,12.8-21.6,18.5c-3.1,0-6.3,0.1-9.4,0.3
				c-9.7,0.4-19.5,1.2-29.1,2.4c-2.9,0.4-5.8,0.8-8.8,1.2c-12.2-4.5-24.9-9.8-37.1-14.3c-2.2-0.8-4.4-1.6-6.2-3s-3.3-3.6-3.2-5.9
				c0-4.1,4.3-6.9,8.2-8.1c11.4-3.7,24.5-1.4,34,6c-9.3-7.4-16.8-16.4-23.1-26.5c-2.3-3.6-4.3-7.4-5.1-11.6c-0.8-4.2-0.1-8.8,2.7-12
				c4.9-5.7,14.1-5,20.8-1.7c13.7,6.6,22.1,20.6,29.6,33.8c-0.5-14.3,0.3-29.5,7.9-41.6c3.4-5.3,8.8-10.2,15-9.6
				c3.9,0.4,7.5,2.9,9.7,6.2c2.3,3.3,3.4,7.2,4.3,11.1c2.9,13.8,1.7,28.4-3.5,41.5c1.4-2.4,3-4.8,5.1-6.6s4.9-2.9,7.6-2.5
				C664.8,839.9,667.7,844.8,667.6,849.3z"/>
			<g>
				<path class="st5" d="M652.6,859.2c-0.1,1.7-1.4,3-2.6,4.1l-18.4,17.2c-9.7,0.4-19.5,1.2-29.1,2.4c-9.3-4.3-18.6-8.6-27.8-12.9
					c-1.9-0.9-4-2.2-3.9-4.2c0-1.2,0.9-2.3,2-2.8c1.1-0.6,2.3-0.7,3.5-0.8c9.8-0.6,19.7,2.4,27.6,8.2c-6.6-10.1-12.7-20.3-19.3-30.3
					c-1.5-2.3-3.1-5.2-1.9-7.7c0.9-1.9,3-2.8,5.1-3c4.4-0.3,8.4,2.2,11.9,4.9c9.5,7.3,17.6,16.4,23.7,26.7
					c0.5-11.2,2.5-22.7,5.2-33.5c0.5-2.1,1.1-4.2,2.3-5.9s3.3-3,5.4-2.8c3.6,0.4,5.4,4.7,5.9,8.3c1.8,12.2-1.6,24.5-4.9,36.4
					c1.9-1.3,3.2-3.4,4.8-5s3.6-3.1,5.9-3.2C650.2,855.2,652.7,857,652.6,859.2z"/>
			</g>
		</g>
		<g>
			<path class="st6" d="M140,891.8c-0.1,4.5-2.4,8.8-5,12.5c-5.2,7.6-14.4,12.8-21.6,18.5c-3.1,0-6.3,0.1-9.4,0.3
				c-9.7,0.4-19.5,1.2-29.1,2.4c-2.9,0.4-5.8,0.8-8.8,1.2c-12.2-4.5-24.9-9.8-37.1-14.3c-2.2-0.8-4.4-1.6-6.2-3
				c-1.8-1.4-3.3-3.6-3.2-5.9c0-4.1,4.3-6.9,8.2-8.1c11.4-3.7,24.5-1.4,34,6C52.5,894,45,885,38.7,874.9c-2.3-3.6-4.3-7.4-5.1-11.6
				c-0.8-4.2-0.1-8.8,2.7-12c4.9-5.7,14.1-5,20.8-1.7C70.6,856,79,870,86.6,883.3c-0.5-14.3,0.3-29.5,7.9-41.6
				c3.4-5.3,8.8-10.2,15-9.6c3.9,0.4,7.5,2.9,9.7,6.2c2.3,3.3,3.4,7.2,4.3,11.1c2.9,13.8,1.7,28.4-3.5,41.5c1.4-2.4,3-4.8,5.1-6.6
				s4.9-2.9,7.6-2.5C137.2,882.3,140.1,887.2,140,891.8z"/>
			<g>
				<path class="st3" d="M125,901.7c-0.1,1.7-1.4,3-2.6,4.1L104,923c-9.7,0.4-19.5,1.2-29.1,2.4c-9.3-4.3-18.6-8.6-27.8-12.9
					c-1.9-0.9-4-2.2-3.9-4.2c0-1.2,0.9-2.3,2-2.8c1.1-0.6,2.3-0.7,3.5-0.8c9.8-0.6,19.7,2.4,27.6,8.2c-6.6-10.1-12.7-20.3-19.3-30.3
					c-1.5-2.3-3.1-5.2-1.9-7.7c0.9-1.9,3-2.8,5.1-3c4.4-0.3,8.4,2.2,11.9,4.9c9.5,7.3,17.6,16.4,23.7,26.7
					c0.5-11.2,2.5-22.7,5.2-33.5c0.5-2.1,1.1-4.2,2.3-5.9c1.2-1.7,3.3-3,5.4-2.8c3.6,0.4,5.4,4.7,5.9,8.3
					c1.8,12.2-1.6,24.5-4.9,36.4c1.9-1.3,3.2-3.4,4.8-5c1.6-1.6,3.6-3.1,5.9-3.2C122.6,897.6,125.1,899.4,125,901.7z"/>
			</g>
		</g>
		<g>
			<path class="st6" d="M1654,888.9c-0.8,4.5-3.8,8.2-6.9,11.5c-6.4,6.7-16.3,10.3-24.4,14.6c-3.1-0.5-6.2-0.9-9.3-1.3
				c-9.7-1.3-19.4-2.1-29.1-2.5c-2.9-0.1-5.9-0.2-8.8-0.3c-11.2-6.5-23-13.8-34.2-20.3c-2-1.2-4.1-2.3-5.6-4
				c-1.6-1.7-2.6-4.1-2.2-6.4c0.7-4.1,5.3-6.1,9.4-6.7c11.9-1.7,24.4,2.7,32.6,11.6c-8-8.8-13.9-19-18.4-30c-1.6-3.9-3-8-3.1-12.3
				s1.4-8.7,4.6-11.4c5.8-4.8,14.7-2.6,20.8,1.8c12.4,8.8,18.4,24,23.6,38.3c1.9-14.2,5.2-29.1,14.7-39.7c4.2-4.7,10.4-8.6,16.4-7
				c3.8,1,6.9,4.1,8.6,7.7c1.7,3.6,2.2,7.6,2.4,11.6c0.6,14.1-3,28.3-10.3,40.3c1.7-2.1,3.7-4.3,6.1-5.7c2.3-1.4,5.3-2.1,7.9-1.2
				C1652.9,879.1,1654.9,884.3,1654,888.9L1654,888.9z"/>
			<g>
				<path class="st3" d="M1637.6,896.1c-0.3,1.6-1.8,2.7-3.2,3.6c-7,4.6-14,9.3-21,13.9c-9.7-1.3-19.4-2.1-29.1-2.5
					c-8.4-5.8-16.9-11.5-25.3-17.3c-1.7-1.2-3.6-2.8-3.2-4.8c0.2-1.2,1.3-2.1,2.5-2.4c1.2-0.4,2.4-0.3,3.6-0.2
					c9.7,1.1,19,5.6,25.8,12.7c-4.8-11-9.2-22.1-14.1-33.1c-1.1-2.5-2.2-5.6-0.6-7.9c1.2-1.7,3.4-2.3,5.5-2.1
					c4.4,0.4,7.9,3.6,10.9,6.8c8.2,8.8,14.6,19.1,19,30.2c2.3-11,6.2-21.9,10.7-32.2c0.9-2,1.8-3.9,3.3-5.4s3.8-2.4,5.8-1.8
					c3.5,1,4.5,5.5,4.4,9.2c-0.3,12.3-5.6,23.9-10.8,35.1c2.1-1,3.7-2.8,5.5-4.1s4.1-2.4,6.3-2.2
					C1635.9,891.8,1638,893.9,1637.6,896.1L1637.6,896.1z"/>
			</g>
		</g>
		<g>
			<path class="st6" d="M955.4,844.3c-4.1,13.1-25.1,20.1-31.3,32.4h-8.7c-41.7,0-83.3,0-125,0h-7.8c-4.1-3.1-10.6-5.8-14.7-8.9
				c-2.8-2.1-6-5.3-4.8-8.7c0.9-2.7,4.2-3.7,7-3.9c5.9-0.3,11.9,1.6,16.5,5.4c-8-7.9-14.4-16.6-20.6-26c-3.2-4.8-6.2-10.2-5.2-15.9
				c1.3-7.9,10.1-12.4,18-13c11.5-0.8,22.9,4.1,31.7,11.5c8.9,7.4,15.6,17.1,21.4,27.1c-1.2-6.1,3.7-12,9.9-12.3
				c6.2-0.2,11.9,5.9,11.2,12.1c2.8-16.4,13.9-31.3,28.2-39.7c2.8-1.6,5.7-3,8.9-3.4c3.2-0.3,6.6,0.6,8.8,3
				c2.4,2.7,2.7,6.6,2.6,10.3c-0.3,11.3-3.2,22.5-8.6,32.4c2.4-2.9,7-4.2,10.6-2.6c4.4,1.9,6.4,8,4,12.2c7.9-10,19.2-17.5,30.5-23.4
				c4.4-2.3,9.8-4.2,14-1.6C955.9,833.9,956.8,839.7,955.4,844.3z"/>
			<g>
				<path class="st3" d="M934.9,854.9c-0.9,2-2.6,3.6-4.2,5c-5.6,5.1-10.7,10.7-15.3,16.8c-41.7,0-83.3,0-125,0
					c-1.5-1.8-2.9-3.5-4.4-5.3c-0.8-0.9-1.6-2-1.5-3.2c0.1-1.9,2.4-2.9,4.3-3.2c5.2-0.7,10.7,0.7,14.9,3.9
					c-5.9-7.8-11.9-15.8-14.7-25.2c-1-3.4-1.3-7.6,1.4-10c3.1-2.7,7.9-0.9,11.4,1.2c12.2,7.3,22.4,18,29.1,30.6
					c-1.5-5.2,0.6-10.7,5.1-13.8c4.4-3,10.8-2.9,15,0.4c3.5,2.7,5.4,7.2,5,11.6c2.4-10.5,8.2-21.3,15.8-28.7
					c1.4-1.4,2.9-2.7,4.8-3.4c1.8-0.7,4-0.8,5.7,0.3c2.5,1.6,2.9,5,2.9,8c0.1,9.5-1.8,19.1-5.4,27.9c2.4-3.4,5-6,8.4-8.4
					c2.3-1.6,5.2-2.9,7.7-1.7c2,1,3,3.4,3,5.7s-0.9,4.4-1.8,6.5c9.4-7.6,19.1-14,29.7-19.8c2.1-1.2,4.8-2.3,6.8-1
					C935.4,850.1,935.8,852.9,934.9,854.9z"/>
			</g>
		</g>
		<g>
			<path class="st6" d="M1487.4,873.3c-5.2,12.7-26.8,17.8-34.1,29.4l-8.7-0.8c-41.5-3.8-83-7.7-124.4-11.5l-7.8-0.7
				c-3.8-3.5-10-6.7-13.8-10.2c-2.6-2.4-5.5-5.8-4-9.1c1.2-2.6,4.5-3.3,7.3-3.2c5.9,0.2,11.7,2.7,15.9,6.8
				c-7.2-8.6-12.8-17.9-18.2-27.7c-2.7-5-5.2-10.8-3.8-16.3c2.1-7.8,11.2-11.5,19.2-11.3c11.5,0.2,22.4,6.2,30.6,14.4
				s13.9,18.4,18.8,28.9c-0.6-6.2,4.8-11.6,11-11.3s11.3,7,10,13.1c4.3-16.1,16.7-29.9,31.7-36.9c2.9-1.4,6-2.5,9.2-2.5
				s6.6,1.2,8.5,3.8c2.1,2.9,2.1,6.9,1.7,10.4c-1.3,11.2-5.3,22.1-11.5,31.5c2.7-2.7,7.4-3.5,10.7-1.7c4.2,2.3,5.7,8.6,2.9,12.5
				c8.8-9.3,20.7-15.7,32.5-20.5c4.6-1.9,10.1-3.3,14.1-0.3C1488.9,863,1489.2,868.9,1487.4,873.3z"/>
			<g>
				<path class="st3" d="M1466.1,882c-1,1.9-2.9,3.3-4.6,4.6c-6,4.6-11.7,9.7-16.8,15.3c-41.5-3.8-83-7.7-124.4-11.5
					c-1.3-1.9-2.6-3.8-3.9-5.7c-0.7-1-1.4-2.1-1.2-3.3c0.3-1.9,2.7-2.7,4.6-2.8c5.2-0.2,10.6,1.7,14.4,5.3
					c-5.2-8.3-10.4-16.9-12.3-26.5c-0.7-3.5-0.6-7.7,2.3-9.8c3.3-2.4,7.9-0.2,11.2,2.2c11.5,8.4,20.6,20,26.2,33.1
					c-1-5.3,1.6-10.7,6.3-13.2c4.7-2.6,11-1.9,14.9,1.8c3.2,3,4.7,7.7,3.9,12c3.4-10.2,10.2-20.5,18.3-27.1c1.5-1.2,3.2-2.4,5.1-3
					s4.1-0.4,5.6,0.8c2.3,1.8,2.4,5.3,2.2,8.2c-0.8,9.5-3.5,18.8-7.9,27.3c2.7-3.2,5.5-5.6,9.2-7.6c2.4-1.4,5.5-2.4,7.9-1
					c1.9,1.2,2.7,3.7,2.5,5.9s-1.3,4.3-2.4,6.3c10-6.8,20.3-12.2,31.4-17c2.2-1,5-1.8,6.9-0.3C1466.9,877.3,1467,880.1,1466.1,882
					L1466.1,882z"/>
			</g>
		</g>
		<path class="st7" d="M1923.3,955.8v124.1H-4.2c0-38.2,2-81.3,2.8-121.7c0.2-11,0.4-21.8,0.4-32.3c637.2-71.8,1289-66.3,1924,16.2
			C1923,947.2,1923.3,950.7,1923.3,955.8z"/>
		<g>
			<path class="st8" d="M1923.3,955.8v6.2c-1,0.5-2.1,0.9-3.2,1.3c-42.7,14.6-92.3,12.6-137.6,3.9c-45.3-8.8-88.2-23.9-132.5-35.2
				c-44.4-11.3-97.7-29.4-140.7-15.1c-105.3,34.9-153.9,26.8-231.5,13.9c-77.6-13-155.5-32.9-234.5-26.6c-95,7.6-178.9,52-273,64.6
				c-98.3,13.1-197.9-9.5-294.5-28.9s-200.3-35.6-294.5-10.3c-33.2,8.9-64.1,22.8-97.9,30.3c-27.6,6.1-59,7.4-84.8-1.5
				c0.2-11,0.4-21.8,0.4-32.3c637.2-71.8,1289-66.3,1924,16.2C1923,947.2,1923.3,950.7,1923.3,955.8z"/>
		</g>
	</g>
</g>
<g>
	<path class="st9" d="M851.7,499c-1.6-1.7-3.5-3.2-4.6-5.2c-1.6-2.9-1.4-6.3-1.8-9.6c-0.8-8.4-5.1-16-9.3-23.4
		c-2.4-4.3-5.3-8.9-10-10.6c-3-1.1-6.4-0.7-9.5-1.4c-4.6-1.1-8.4-4.6-12.8-6.3c-8.5-3.3-16.3-0.9-21.5,0.8
		c-5.2,1.6-8.7,6.3-10.2,10.3s-2.5,8.5-5.6,11.4c-3.8,3.5-10.1,4-13,8.3c-2.1,3.1-1.7,7.2-1.5,10.9s0.2,7.9-2.4,10.6
		c-2.1,2.2-5.6,2.9-7.4,5.3c-2.7,3.5-0.3,9.1,3.7,11.1c4,1.9,8.8,1.1,13-0.4c4.3-1.6,9.1-4,13.2-2c2.5,1.2,4.1,3.7,6.5,5
		c3.4,1.9,7.7,0.9,11.4-0.6c3.6-1.5,7.2-3.5,11.1-3.5c7.7-0.1,14.4,7,22,5.7c4-0.7,7.3-3.8,11.4-4.6c3.8-0.8,7.6,0.4,11.5,0.3
		c3.9,0,8.3-2.1,8.7-5.9C854.7,502.8,853.3,500.7,851.7,499L851.7,499z"/>
	<path class="st10" d="M787.3,543.6c-1.8-6.5-8.5-10.2-15-8.4l-0.6,0.2c-0.6,0.2-1.2,0.4-1.8,0.6c-0.7,0.3-0.9,0.4-1.2,0.5l-0.9,0.4
		c-1,0.5-1.9,0.9-2.7,1.4c-1.6,0.9-3.1,1.8-4.6,2.7c-2.9,1.8-5.7,3.6-8.5,5.3c-5.5,3.6-10.8,7.3-16.1,11
		c-10.3,7.1-20.4,14.4-30.5,21.5c-4.7,1.3-9.3,2.7-13.9,4.3c-2.7,0.9-5.4,1.8-8.1,2.8l-8.1,2.8c-5.4,1.9-10.7,3.8-16.2,5.4
		c-1.4,0.4-2.7,0.9-4.1,1.2c-1.4,0.3-2.8,0.4-4.3,0.4c-1.4,0.1-2.9,0.2-4.2,0.6c-1.4,0.5-2.7,1.1-3.8,2.3c-2.1,2.2-2,5.7,0.2,7.7
		c0.5,0.5,1.1,0.9,1.8,1.1c1.6,0.6,3,0.6,4.4,0.4c1.4-0.2,2.7-0.7,4.1-1.2c1.3-0.6,2.6-1.2,4-1.5s2.8-0.4,4.2-0.6
		c5.6-0.8,11.3-1.4,16.9-2l8.5-0.9c2.8-0.3,5.7-0.6,8.5-0.9c5.6-0.7,11.2-1.6,16.8-2.5c0.9-0.1,1.7-0.4,2.4-0.9l0.9-0.5
		c5.6-3.3,11.2-6.6,16.7-10s11-6.8,16.4-10.2l16.3-10.1c2.7-1.7,5.4-3.3,8-4.8l3.8-2.1c0.6-0.3,1.1-0.6,1.6-0.8l0.2-0.1
		c0,0,0,0,0.1,0h0.1C785.3,556.8,789.1,550.1,787.3,543.6L787.3,543.6z M778.6,558.6c-0.2,0.1-0.5,0.1-0.6,0.2L778.6,558.6
		L778.6,558.6C778.7,558.6,778.6,558.6,778.6,558.6L778.6,558.6z"/>
	<path class="st10" d="M830.9,532.1c-14.6-0.2-19.2-9.7-20.7-17.4H801l-0.1,0.1l-12.7,0.4c0,0,2.3,16.8-16.7,17.4
		c-2.9,0.1-9.1,19.4-9.1,19.4h87.2C849.5,552,837.9,532.2,830.9,532.1L830.9,532.1z"/>
	<path class="st9" d="M788.3,882.4l1.3,15.9c0,4.6-3.8,8.2-8.3,8.2l-27.4-0.2c-2.4,0-4-2.4-3.2-4.6c0.5-1.3,1.7-2.2,3.1-2.2h2.5
		c8.6-0.1,17.3-6,19.1-14.4L788.3,882.4z"/>
	<path class="st10" d="M799.4,645.7c-11.1-3.9-23-0.5-30.6,7.6c-3.3,14.1-5,28.3-4.8,42.9c0,1.3-0.4,2.2-1.2,2.9
		c0.2,3.1,0.3,6.4,0.5,9.9c0.2,5,0.5,10.4,0.6,16.1c0.2,5.7,0.4,11.8,0.5,18s0.3,12.7,0.4,19.3c0.1,3.3,0.1,6.7,0.2,10l0.1,5.6
		c0,1,0.1,1.7,0.2,2.5v0.6v0.1c0,0,0,0.8,0,0.5v0.2l0.1,0.4l0.2,1.6c0.5,4.1,1.1,7.5,1.6,10.9s0.9,6.6,1.3,9.8
		c0.7,6.4,1.1,12.5,1.7,18c0.1,1.3,0.3,2.6,0.4,3.9c0.1,1.4,0.2,2.8,0.3,4.2c0.2,2.8,0.4,5.7,0.5,8.4c0.2,5.5,0.6,10.9,0.8,15.8
		c0.3,4.9,0.6,9.4,0.9,13.4c0.3,4,0.6,7.5,0.9,10.4c0.6,5.8,1,9.1,1,9.1c0.5,3.6,3.8,6.1,7.4,5.6c2.7-0.4,4.8-2.4,5.5-4.9
		c0,0,0.8-3.3,2-9c0.5-2.9,1.2-6.3,1.9-10.3s1.3-8.5,2-13.5c0.6-4.9,1.3-10.3,1.8-16.1c0.2-2.9,0.5-5.8,0.7-8.9l0.1-1.2v-1.4
		l0.1-2.3c0-1.6,0-3.7-0.2-5.3c-0.4-6.7-1.7-13.2-2.9-19.7c-0.6-3.2-1.1-6.4-1.5-9.5s-0.6-6.2-0.4-8.7l0.1-0.8v-0.2v-0.1
		c0-0.4,0,0.4,0,0.3v-0.1l0.1-0.6c0.1-0.8,0.2-1.7,0.4-2.4l0.9-4.2c0.6-3.2,1.3-6.3,1.9-9.4c1.3-6.3,2.8-12.5,4.2-18.5
		s2.9-11.8,4.3-17.3c1.4-5.5,2.8-10.7,4.1-15.5c2.6-9.6,5-17.6,6.8-23.1c0.9-2.8,1.6-4.9,2.1-6.4c0.5-1.4,0.8-2.2,0.8-2.2
		C822.2,667.3,814.3,651,799.4,645.7L799.4,645.7z"/>
	<path class="st9" d="M843.4,883.1l1.3,14.6c0.1,4.6-3.6,8.3-8.2,8.3l-27.4,0.3c-2.4,0-4.1-2.3-3.3-4.6c0.5-1.3,1.7-2.2,3.1-2.2
		l2.5-0.1c8.6-0.3,16.8-6.4,18.4-14.8L843.4,883.1L843.4,883.1z"/>
	<path class="st10" d="M846.4,829.1l-0.1-1.2l-0.3-3.6c-0.2-1.6-0.4-3.5-0.7-5.1c-1-6.5-2.9-12.7-4.5-19c-0.9-3.1-1.6-6.2-2.2-9.3
		c-0.6-3.1-1.1-6.2-1.1-8.8c0.1-6.4,0.2-12.8,0.4-19.1c0.1-6.5,0.4-12.9,0.6-19c0.2-6.2,0.6-12.1,0.9-17.8c0.1-1.4,0.2-2.8,0.2-4.2
		h-41.3c0.6,2.4,1.1,4.9,1.7,7.4c1.3,5.6,2.6,11.4,3.9,17.5c1.3,6.1,2.7,12.3,3.9,18.7c1.3,6.5,2.6,13.2,4,19.9
		c0.8,3.9,1.7,7.2,2.4,10.5s1.4,6.5,2,9.7c1.2,6.3,2.2,12.5,3.4,18.1c0.3,1.3,0.6,2.6,0.8,3.9c0.3,1.4,0.5,2.7,0.8,4.1
		c0.5,2.7,0.9,5.5,1.3,8.1c0.8,5.5,1.6,10.7,2.3,15.4c1.4,9.6,2.8,17.7,3.8,23.4s1.8,8.9,1.8,8.9c1.6,3.6,4.1,5.8,7.7,5.1
		c2.7-0.6,4.6-2.7,5-5.2c0,0,0.6-3.3,1.3-9.1c0.3-2.9,0.7-6.4,1.1-10.5c0.4-4,0.6-8.6,0.9-13.6c0.2-5,0.4-10.4,0.3-16.3
		C846.6,835.3,846.6,832.2,846.4,829.1z"/>
	<path class="st11" d="M847.5,537.6c-9-6.7-21.1-6-21.1-6s-5.4,15-24.9,15.2c-19.5-0.2-24.9-15.2-24.9-15.2s-9.9-1.1-17.9,6.8
		c-8,7.9-15.5,13.6-15.5,13.6l13.4,20l12.2-7.5c0,0-2.6,8.4-0.7,14.2c1.9,5.8,6.7,35.9,4.9,48.5c0,0,7.3,8.7,28.6,8.7
		c21.2,0,34.9-7.3,34.9-7.3c-1.8-12.6,4.1-61.9,4.1-61.9l7.6,3.7l10.8-24.5C858.9,546,851.5,540.7,847.5,537.6L847.5,537.6z"/>
	<path class="st12" d="M772.5,627.7c-1.6-0.6-11,37.3-11.1,82.4c-0.1,44.4,0,65,3.2,78.7S772,866,772,866s15.9,4.2,23.4,0.5
		c0,0,4.2-58.1-1.6-79.8l7.4-46l23.9,123.6c0,0,17,4.8,23.4,0.5c0,0,0.5-35.9-4.8-65s-4.2-46.5-1.6-77.7c2.6-31.2,16.4-60-5.6-93.7
		C836.4,628.7,807.6,640.4,772.5,627.7z"/>
	<path class="st10" d="M897.1,583.6c-0.7-2.1-1.6-3.9-2.5-5.5c-1.9-3.1-3.8-5.6-5.8-7.9c-3.9-4.5-8-8.1-12-11.4
		c-4-3.3-16.2-10.8-18.1-12.1c-3.6,7.9-6.9,14.7-10,22.8c4.1,2.5,8.9,5.7,13.1,8.6c3.6,2.5,7.1,5.3,10.1,8c1.5,1.4,2.7,2.8,3.6,3.9
		c0.4,0.6,0.7,1.1,0.9,1.3c0.2,0.3,0.1,0.2,0.2-0.2c0.2,0.2,0,2.1-0.6,3.9c-0.5,1.9-1.2,4-2.1,6c-1.7,4.2-3.6,8.5-5.7,12.6
		c-2.1,4.1-4.3,8.1-6.4,11.8c-2.1,3.7-4.3,7.2-6.4,10.4c-1.1,1.6-2.1,3.1-3,4.5s-1.9,2.8-3,3.9c-2.2,2.2-4.4,3.9-5.7,5.6
		c-1.4,1.7-2.2,3.2-2.7,4.4c-0.5,1.1-0.5,1.9-0.5,1.9v0.3c-0.1,0.8,0,1.5,0.3,2.3c1,3.1,4.3,4.8,7.4,3.8c0,0,0.8-0.2,1.8-0.9
		c1.1-0.7,2.5-1.8,3.9-3.6c1.5-1.7,2.7-4.2,4.4-6.9c0.9-1.3,1.9-2.6,3.1-3.9c1.2-1.3,2.4-2.7,3.7-4.2c2.6-2.9,5.3-6.1,8.3-9.5
		c2.9-3.4,6-7,9.1-10.9s6.2-8.1,9.1-12.8c1.4-2.4,2.8-4.9,4.1-7.7c0.6-1.4,1.2-3,1.7-4.7c0.3-0.9,0.5-1.8,0.7-2.8l0.1-1l0.1-0.8
		l0.1-0.5v-0.2c0,0.3,0-0.4,0-0.4v-0.4C898.4,588.3,897.8,585.7,897.1,583.6L897.1,583.6z"/>
	<path class="st13" d="M801.2,740.8c0,0-3-16.8-4.4-35c-1.2-15.8-2.2-31.7-6.9-35.7c0,0,9.2,75.8,8,90.9L801.2,740.8z"/>
	<path class="st14" d="M788.3,517.5c-0.4,1.5-0.7,5.6-1.6,7.2c7.3,8.6,19,7.5,25.9-2.7c-0.6-0.9-0.7-5.4-0.7-5.4L788.3,517.5
		L788.3,517.5z"/>
	<path class="st10" d="M772.4,475.9c1.6-16.9,14-26.7,26.3-26.5c12.2,0.2,24.4,10.3,25.6,27.3c0.7,10-1.5,20.7-3.1,26.8
		c-0.9,3.7-2.7,7-5.1,9.6c-5.5,6-12.7,10.8-18.4,10.7s-12.7-5.1-18.1-11.3c-2.4-2.7-4-6.1-4.9-9.8
		C773.4,496.6,771.4,485.8,772.4,475.9L772.4,475.9z"/>
	<path class="st9" d="M786.2,489.6c0,1.3-1,2.3-2.3,2.3s-2.3-1-2.3-2.3s1-2.3,2.3-2.3S786.2,488.3,786.2,489.6z"/>
	<path class="st15" d="M789,499.4c0,2.1-2.2,3.8-4.9,3.8s-4.9-1.7-4.9-3.8s2.2-3.8,4.9-3.8C786.8,495.6,789,497.3,789,499.4z"/>
	<path class="st9" d="M807.9,489.6c0,1.3,1,2.3,2.3,2.3s2.3-1,2.3-2.3s-1-2.3-2.3-2.3C809,487.3,807.9,488.3,807.9,489.6z"/>
	<path class="st15" d="M805.1,499.4c0,2.1,2.2,3.8,4.9,3.8s4.9-1.7,4.9-3.8s-2.2-3.8-4.9-3.8S805.1,497.3,805.1,499.4z"/>
	<path class="st16" d="M803.8,506.2c0.9,0,1.6,1.1,1,1.8c-1.6,2.2-4.2,3.7-7.1,3.7c-3,0-5.5-1.4-7.1-3.6c-0.6-0.8-0.1-2,1-2
		L803.8,506.2L803.8,506.2z"/>
	<path class="st9" d="M816.9,478.3c0.7,0.2,1.5,0.1,2.2,0.4c1.8,0.7,2.2,3,2.2,4.9c-0.1,1.9-0.3,4,0.9,5.5c1.5,1.8,4.4,1.5,6.1-0.1
		c1.7-1.5,2.3-3.9,2.6-6.2c1.3-10.2-3.6-21-12.2-26.8c-2.3-1.5-8.7-4.1-10.4-0.2c-0.8,1.9,1.2,3.3,2.4,4.6c2,2.3,3.2,4.2,3.1,7.4
		C813.6,471,812.2,477.2,816.9,478.3L816.9,478.3z"/>
	<path class="st9" d="M801.8,468c-1.6,0.1-3.3,0-4.8,0.6c-2.1,0.9-3.3,3.2-4.6,5.1c-1.3,1.9-3.3,3.9-5.6,3.5c-1-0.2-1.9-0.7-2.9-0.8
		c-1.4-0.1-2.6,0.9-3.3,2s-1.1,2.4-1.7,3.6c-0.9,2-2.4,3.8-4.4,4.7s-4.5,0.8-6.3-0.6c-1.7-1.3-2.3-3.6-2.2-5.8
		c0.1-2.1,1-4.1,1.9-6.1c1.9-4.4,4.1-8.6,6.4-12.8c2.7-4.8,5.8-9.6,10.6-12.2c5.2-2.9,11.5-2.7,17.5-2.4c4.9,0.2,15.3,2.3,12.4,9.7
		c-0.9,2.2-3.4,5.1-4.9,7C807.9,465.9,805,467.7,801.8,468L801.8,468z"/>
	<path class="st17" d="M366.3,439.8c-6.5,7.1-4.4,18-5.4,27.5c-1.2,12.4-8.5,24-19.1,30.6c-4.7,2.9-10.1,5-13.6,9.2
		c-3.2,3.9-4.3,9.4-2.8,14.2s5.4,8.8,10.2,10.2c2.8,0.8,6,1,8.1,3c2.2,2.1,2.5,5.4,3.9,8.1c3.4,6.5,12.9,7.6,19.3,4
		c6.4-3.5,10.4-10.2,13.6-16.8c8.6-17.6,14-28.3,17-47.7c2.1-14,5.8-35-7.4-43.7C383.1,433.9,372.4,433.1,366.3,439.8L366.3,439.8z"
		/>
	<path class="st18" d="M364.5,448.5c10.4,0.1,20.6-2,30.8-1.6c-9.1-6.3-22.8-9.4-30,0.6c-0.3,0.4-0.6,0.7-1,1
		C364.4,448.5,364.5,448.5,364.5,448.5L364.5,448.5z"/>
	<path class="st18" d="M353,884.6l-0.4,12c-0.1,4.5,3.4,8.3,8,8.5l27.3,0.9c2.4,0.1,4.1-2.2,3.4-4.5c-0.4-1.3-1.6-2.2-3-2.3
		l-2.5-0.1c-8.5-0.4-15.6-6.7-17-15.1L353,884.6L353,884.6z"/>
	<path class="st18" d="M354.8,896.7c0,0-0.8-3.4-1.9-9.4c-0.5-3-1.2-6.6-1.9-10.8c-0.3-2.1-0.7-4.3-1-6.7s-0.6-4.8-1-7.4
		c-0.7-5.2-1.3-10.8-1.8-16.8s-0.9-12.3-0.8-19.4c-0.1-3.1,0.2-6.9,0.5-10.3c0.4-3.4,0.9-6.9,1.5-10.3c1.2-6.8,2.6-13.7,2.9-19.9
		c0-1.5,0.1-3-0.1-4.3l-0.1-0.9v-0.1c0-0.6,0-0.2,0-0.4v-0.2v-0.3v-0.7v-3.3c-0.1-3.7,0-7.2,0-10.6c0-6.8,0-13.6,0-20.1
		c-0.1-13-0.3-25-0.8-35.3c-0.2-5.1-0.5-9.8-0.9-13.8c-0.3-4.1-0.7-7.5-1.1-10.2s-0.8-4.5-1.1-5c-0.1-0.1-0.1-0.2-0.2-0.2
		c0-0.1-0.1,0.1-0.1,0.2c0,0.1,0,0.2-0.1,0.3c-0.1,0.4-0.1,0.6-0.1,0.6c-1.9-15.3,9-29.3,24.3-31.2c15.4-1.9,29.4,8.9,31.3,24.2
		c0,0,0,0.6,0,1.8c0,0.3,0,0.6,0,1c0,0.3,0,0.9,0,1.1c-0.1,0.6-0.1,1.2-0.2,1.9c-0.3,2.7-0.9,5.6-1.7,8.9c-0.8,3.3-1.8,7.1-2.9,11.4
		c-1.1,4.2-2.4,8.9-3.8,14c-2.8,10.2-5.9,21.9-9.1,34.5c-1.6,6.3-3.1,12.8-4.6,19.3c-0.7,3.2-1.5,6.6-2.1,9.6l-0.2,1.1l-0.2,0.8
		l-0.1,0.6v0.3v0.2c0-0.1,0,0.4,0-0.2v0.1l-0.2,1.6c-0.2,2.2-0.5,4.1-0.8,6c-0.6,3.7-1.1,7.2-1.5,10.6c-0.4,3.4-0.7,6.7-1,10
		c-0.3,3.2-0.6,6.4-0.8,9.6c-0.3,3.2-0.6,5.9-1,9.2c-0.3,2.8-0.6,5.8-0.7,8.8c-0.2,3-0.4,5.9-0.5,8.8c-0.3,5.8-0.6,11.3-0.8,16.4
		c-0.1,2.5-0.2,5-0.4,7.3c-0.1,2.3-0.3,4.6-0.4,6.6c-0.2,4.2,0.3,7.8,0.1,10.8c-0.4,6,0,9.4,0,9.4c-1.9,3.6-4.4,6.2-7.9,5.8
		C358.6,901.5,355.5,899.4,354.8,896.7L354.8,896.7z"/>
	<path class="st9" d="M391.3,901.4c-0.4-1.3-1.6-2.2-3-2.3l-2.5-0.1c-6.8-0.4-12.7-4.4-15.5-10.3c-1.7,3.8-5.2,6.7-10.5,6.7
		c-3.1,0-5.4-1-7.1-2.6l-0.1,3.8c-0.1,4.5,3.4,8.3,8,8.5l27.3,0.9C390.3,906,392.1,903.7,391.3,901.4z"/>
	<path class="st18" d="M350.4,531.5c19-0.6,17.2-16.6,17.2-16.6l12.7-0.4l12.7,0.4c0,0-1.7,16,17.2,16.6
		c6.2,0.2,18.5,20.1,18.5,20.1h-86.9C341.8,551.6,347.6,531.6,350.4,531.5z"/>
	<path class="st19" d="M393.6,519.9c0.4,1.5,0.9,3.2,1.9,4.8c-5.9,12.8-22.4,14.5-29.8-0.9c0.6-0.9,1-2.4,1.3-3.9L393.6,519.9
		L393.6,519.9z"/>
	<path class="st18" d="M407.5,476c-1.6-17.1-14.2-26.9-26.5-26.7c-12.4,0.2-24.7,10.4-25.9,27.5c-0.7,10,1.5,20.9,3.1,27.1
		c0.9,3.7,2.7,7.1,5.1,9.7c5.6,6.1,12.9,10.9,18.6,10.8c5.7-0.1,12.9-5.2,18.3-11.4c2.4-2.7,4.1-6.1,4.9-9.9
		C406.5,496.9,408.5,486,407.5,476L407.5,476z"/>
	<path class="st18" d="M430,548.3c0,0,0.7,2.1,1.9,5.7c1.2,3.6,2.9,8.7,5,14.8c2.1,6,4.6,13.1,7.7,20.2c1.5,3.5,3.2,7.1,4.9,10.1
		c0.9,1.5,1.8,2.9,2.5,3.8c0.3,0.4,0.6,0.7,0.5,0.7c0,0-0.2-0.1-0.6-0.2l-0.2-0.1h-0.1l0,0c-1.1-0.3-0.3-0.1-0.5-0.1l0.4,0.1
		c0,0-1.1-0.2-1-0.1c-0.5,0.1-0.2,0.2,0.2,0.1c0.5,0,1.1-0.2,1.9-0.4c1.5-0.4,3.2-1.1,4.9-1.9c3.4-1.5,6.9-3.4,10.2-5.4
		s6.5-4.1,9.3-6.2c1.4-1.1,2.8-2.2,4.1-3.2c1.3-1.1,2.5-2.2,3.6-3.3c2.2-2.2,4.1-4.3,5.6-6.3c1.3-2.1,1.6-4.3,2.2-5.8
		c0.6-1.5,1.2-2.5,1.8-3.1c0.6-0.7,1-1,1-1l1.2-0.8c2.3-1.6,5.5-1.1,7.1,1.2c0.3,0.4,0.5,0.8,0.6,1.2c0,0,0.1,0.2,0.1,0.5
		s0.2,0.9,0.2,1.5c0.1,1.3-0.2,3.2-1.2,5.3s-2.9,4-4.6,6.4c-1.5,2.5-3.2,5.3-5.3,8.1c-1,1.4-2.1,2.9-3.3,4.4
		c-1.1,1.5-2.4,3.1-3.7,4.6c-2.6,3.1-5.5,6.2-8.7,9.3s-6.8,6.1-10.9,8.9c-2.1,1.4-4.3,2.7-6.9,3.9c-1.3,0.6-2.7,1.1-4.4,1.6
		c-1.7,0.5-3.6,0.9-6.4,0.8c-0.4,0-2.1-0.2-2.6-0.3l-0.4-0.1c-0.3-0.1,0.5,0.1-0.6-0.2h-0.1l-0.8-0.3c-1.4-0.5-2.6-1.1-3.6-1.7
		c-2-1.2-3.3-2.5-4.5-3.6c-2.3-2.3-3.9-4.5-5.4-6.7c-2.9-4.3-5.1-8.3-7.1-12.3c-4-7.9-7-15.2-9.5-21.6c-2.4-6.3-4.3-11.6-5.6-15.3
		c-1.2-3.7-1.9-5.8-1.9-5.8c-2.1-6.3,1.4-13.2,7.7-15.3C421.1,538.5,427.9,541.9,430,548.3L430,548.3z"/>
	<path class="st18" d="M387.9,884.6l-0.4,12c-0.1,4.5,3.4,8.3,8,8.5l27.3,0.9c2.4,0.1,4.1-2.2,3.4-4.5c-0.4-1.3-1.6-2.2-3-2.3
		l-2.5-0.1c-8.5-0.4-15.6-6.7-17-15.1L387.9,884.6L387.9,884.6z"/>
	<path class="st18" d="M389.7,896.7c0,0-0.8-3.4-1.9-9.4c-0.5-3-1.2-6.6-1.9-10.8c-0.3-2.1-0.7-4.3-1-6.7s-0.6-4.8-1-7.4
		c-0.7-5.2-1.3-10.8-1.8-16.8s-0.9-12.3-0.8-19.4c-0.1-3.1,0.2-6.9,0.5-10.3c0.4-3.4,0.9-6.9,1.5-10.3c1.2-6.8,2.6-13.7,2.9-19.9
		v-2.2c0-0.7,0-1.4-0.1-2l-0.1-0.9v-0.1c0,0.6,0,0.1,0,0.2v-0.1l-0.1-0.3l-0.1-0.6c-0.1-0.8-0.2-1.7-0.4-2.4
		c-0.6-3.2-1.2-6.4-1.7-9.5c-1.2-6.6-2.6-13.1-3.9-19.4c-2.7-12.6-5.5-24.3-8.1-34.4c-0.6-2.5-1.3-4.9-1.9-7.2s-1.2-4.4-1.8-6.5
		c-1.1-4.1-2.1-7.6-3-10.4c-0.4-1.4-0.8-2.7-1.2-3.8c-0.4-1.1-0.6-2.1-0.9-2.7c-0.5-1.3-0.8-2-0.8-2c-5.6-14.8,1.9-31.4,16.9-36.9
		c14.9-5.6,31.5,1.9,37.1,16.8c1.5,3.9,2,8,1.8,11.9l-0.1,1.3c0,0-0.1,1-0.2,2.9c-0.1,1.7-0.4,4.2-0.6,7.3
		c-0.3,3.1-0.6,6.8-0.9,11.1s-0.7,9-1,14.3c-0.7,10.4-1.3,22.5-1.8,35.5c-0.2,6.5-0.5,13.2-0.7,20.1c-0.1,3.6-0.2,7.2-0.4,10.8
		c0,1-0.1,1.8-0.2,2.7l-0.1,0.6v0.3v0.1c0,0.2,0-0.3,0,0.4v0.2l-0.2,1.6c-0.2,2.2-0.5,4.1-0.8,6c-0.6,3.7-1.1,7.2-1.5,10.6
		c-0.4,3.4-0.7,6.7-1,10c-0.3,3.2-0.6,6.4-0.8,9.6c-0.3,3.2-0.6,5.9-1,9.2c-0.3,2.8-0.5,5.8-0.7,8.8s-0.4,5.9-0.5,8.8
		c-0.3,5.8-0.6,11.3-0.8,16.4c-0.1,2.5-0.2,5-0.4,7.3c-0.1,2.3-0.3,4.6-0.4,6.6c-0.2,4.2,0.5,7.8,0.3,10.8c-0.4,6,0.2,9.4,0.2,9.4
		c0,3.6-4.5,6.2-8.1,5.8C393.6,901.4,390.3,899.3,389.7,896.7L389.7,896.7z"/>
	<path class="st12" d="M437.9,573.4c-4.9-17.6-3-27.8-11-35.6s-21.7-7.2-21.7-7.2s-4.8,15.5-24.3,15.8
		c-19.5-0.2-24.5-15.8-24.5-15.8s-13.5-0.7-21.5,7.1s-7.1,19.6-11.9,37.2l22.8,4.4c0,0,6.8,32.9,5,45.5c0,0,9,7.2,30.1,7.2
		s35.4-4.6,35.4-4.6c-1.8-12.6,2.7-47.1,2.7-47.1L437.9,573.4L437.9,573.4z"/>
	<path class="st9" d="M426.2,901.4c-0.4-1.3-1.6-2.2-3-2.3l-2.5-0.1c-6.8-0.4-12.7-4.4-15.5-10.3c-1.7,3.8-5.2,6.7-10.5,6.7
		c-3.1,0-5.4-1-7.1-2.6l-0.1,3.8c-0.1,4.5,3.4,8.3,8,8.5l27.3,0.9C425.2,906,427,903.7,426.2,901.4z"/>
	<path class="st16" d="M327.7,811.1c13.6,7.5,30.6,8.7,45.1,3.1c5.4-2.1,11.2-5.1,16.8-3.5c4,1.2,6.9,4.6,10.7,6.4
		c12.5,6,27.5-7.5,40.7-3.1c-12.6-61.3-22.1-124.8-24-187.4l-65.9-1.4c0,0-18.5,52.3-14.6,96.5C340.5,765.9,327.7,811.1,327.7,811.1
		L327.7,811.1z"/>
	<path class="st18" d="M359.3,680.9c-0.3-0.9-0.7-1.9-1.2-2.9s-1.2-2-1.7-3.2c-0.6-1.2-1-2.4-1.4-3.8c-0.4-1.4-0.9-2.8-1.4-4.3
		c-1-2.9-2-6.2-3.1-9.6c-1.1-3.4-2.2-7-3.5-10.6c-1.2-3.7-2.5-7.5-3.9-11.3c-0.7-1.9-1.4-3.8-2.1-5.8l-1.1-2.9l-0.6-1.4l-0.1-0.4
		l-0.1-0.2c0-0.1-0.1-0.2-0.1-0.4c-0.2-1-0.4-1.9-0.3-2.8c0-0.5,0.1-0.9,0.2-1.3c0,0.1,0.3-1.3,0.5-2.2c0.9-3.9,5.9-38.8,5.9-38.8
		l-21.7-4.2c0,0-0.2,4.5-0.6,7.1c-0.9,6-1.9,13.1-2.9,20.7c-0.5,3.8-1,7.7-1.5,11.7c-0.1,1.1-0.2,1.7-0.4,3.8
		c-0.1,1.6-0.1,3.1,0.1,4.7c0.3,3.1,1.1,6.2,2.5,9c0.2,0.4,0.3,0.7,0.5,1l0.3,0.5l0.2,0.3l0.8,1.3l1.5,2.6c1,1.7,2.1,3.5,3.1,5.2
		c2.1,3.4,4.1,6.8,6.1,10c3.9,6.5,7.5,12.6,10.2,18c0.7,1.3,1.3,2.6,1.9,3.9c0.6,1.2,1.1,2.4,1.4,3.6c0.5,2.4,0.7,4.5,1.2,6
		c0.4,1.5,1.1,2.7,1.6,3.3c0.5,0.7,1,1.1,1,1.1l0.9,0.7c0.4,0.3,0.8,0.5,1.3,0.7c2.7,1.1,5.7-0.2,6.8-2.9c0,0,0.3-0.6,0.4-1.8
		C360,684.3,359.8,682.8,359.3,680.9L359.3,680.9z"/>
	<path class="st17" d="M377.1,471c-4.9,2.7-10.3,4.8-13.9,9.1c-5,6-5,14.5-5.7,22.2c-0.1,1.3-0.4,2.7-1.5,3.3
		c-1.5,0.8-3.4-0.9-3.6-2.6c-0.2-1.7-0.6-13.7-3-20.1c-2.8-7.3-2.4-19.4,2.1-25.8c4.5-6.4,9.8-11,17.4-12.7c5.4-1.2,11.4-1.1,15.9,2
		C396.7,454.4,385.4,466.3,377.1,471z"/>
	<path class="st17" d="M384,455.5c5.9,5.6,11.9,11.3,16.2,18.2c4.3,7,6.6,15.4,4.7,23.3c-0.4,1.4-0.8,2.9-0.5,4.3
		c0.4,1.4,2,2.6,3.3,1.9c1-0.5,1.2-1.8,1.4-2.9c0.9-6.6,1.8-13.1,2.6-19.7c0.8-6.3,1.6-12.8-0.4-18.8c-2.1-6.2-7.3-11.3-13.6-13.3
		c-6.3-2-13.5-0.8-18.8,3"/>
	<path class="st9" d="M370.8,489.4c0,1.3-1,2.3-2.3,2.3s-2.3-1-2.3-2.3s1-2.3,2.3-2.3C369.8,487.1,370.8,488.1,370.8,489.4z"/>
	<path class="st19" d="M373.7,499.1c0,2.1-2.2,3.8-4.9,3.8c-2.7,0-4.9-1.7-4.9-3.8s2.2-3.8,4.9-3.8S373.7,497,373.7,499.1z"/>
	<path class="st9" d="M392.6,489.4c0,1.3,1,2.3,2.3,2.3s2.3-1,2.3-2.3s-1-2.3-2.3-2.3C393.6,487.1,392.6,488.1,392.6,489.4z"/>
	<path class="st19" d="M389.8,499.1c0,2.1,2.2,3.8,4.9,3.8c2.7,0,4.9-1.7,4.9-3.8s-2.2-3.8-4.9-3.8S389.8,497,389.8,499.1z"/>
	<path class="st16" d="M388.4,505.9c0.9,0,1.6,1.1,1,1.8c-1.6,2.2-4.2,3.7-7.1,3.7c-3,0-5.5-1.4-7.1-3.6c-0.6-0.8-0.1-2,1-2
		L388.4,505.9L388.4,505.9z"/>
	<path class="st18" d="M694.4,885.3l0.4,11.9c0.1,4.5-3.4,8.3-7.9,8.4l-27.1,0.9c-2.4,0.1-4.1-2.2-3.3-4.5c0.4-1.3,1.6-2.2,3-2.3
		l2.5-0.1c8.5-0.4,15.5-6.7,16.9-15L694.4,885.3L694.4,885.3z"/>
	<path class="st18" d="M705.3,737.2c-1,4.2-1.9,8.6-2.9,13.1c-1.3,6.2-2.7,12.7-3.9,19.2c-0.6,3.1-1.1,6.3-1.7,9.4
		c-0.1,0.7-0.3,1.5-0.4,2.4l-0.1,0.6v0.3v0.1c0-0.1,0,0.4,0-0.2v0.1l-0.1,0.9c-0.1,0.6-0.1,1.3-0.1,2v2.2c0.3,6.2,1.7,13,2.9,19.7
		c0.6,3.4,1.1,6.8,1.5,10.3c0.3,3.3,0.6,7.2,0.5,10.2c0.1,7.1-0.4,13.3-0.8,19.2c-0.5,6-1.1,11.5-1.7,16.6c-0.3,2.6-0.6,5-1,7.3
		s-0.7,4.5-1,6.6c-0.6,4.1-1.3,7.7-1.8,10.7c-1.1,5.9-1.9,9.3-1.9,9.3c-0.6,2.6-3.1,4.6-5.9,4.9c-3.6,0.4-5.8-2.2-7.3-5.8
		c0,0-0.1-3.4-0.5-9.3c-0.2-3-0.2-6.6-0.4-10.7c-0.1-2.1-0.2-4.3-0.4-6.6c-0.1-2.3-0.2-4.7-0.4-7.3c-0.3-5-0.5-10.5-0.8-16.2
		c-0.2-2.8-0.3-5.7-0.5-8.7c-0.2-2.9-0.4-5.9-0.7-8.7c-0.4-3.3-0.7-6-1-9.1s-0.6-6.3-0.8-9.5c-0.3-3.2-0.6-6.5-1-9.9
		s-1-6.8-1.5-10.5c-0.3-1.9-0.6-3.8-0.8-5.9l-0.1-1.6v-0.2c0-0.7,0-0.2,0-0.4v-0.1v-0.3l-0.1-0.6c-0.1-0.8-0.1-1.7-0.2-2.7
		c-0.1-3.6-0.2-7.2-0.4-10.7c-0.2-6.8-0.5-13.5-0.7-19.9c-0.3-7.2-0.6-14.1-0.9-20.6C679.1,733.1,692.4,736.4,705.3,737.2
		L705.3,737.2z"/>
	<path class="st19" d="M699.1,766.3c-6-10.8-11.3-21.9-16.3-33.1c7.3,2.3,14.9,3.6,22.4,4.1c-1,4.2-1.9,8.6-2.9,13.1
		C701.3,755.5,700.2,760.9,699.1,766.3L699.1,766.3z"/>
	<path class="st9" d="M656.5,902c0.4-1.3,1.6-2.2,3-2.3l2.5-0.1c6.8-0.4,12.6-4.4,15.4-10.3c1.7,3.7,5.2,6.7,10.4,6.7
		c3.1,0,5.4-1,7-2.6l0.1,3.8c0.1,4.5-3.4,8.3-7.9,8.4l-27.1,0.9C657.4,906.5,655.7,904.2,656.5,902z"/>
	<path class="st18" d="M729,885.3l0.4,11.9c0.1,4.5-3.4,8.3-7.9,8.4l-27.1,0.9c-2.4,0.1-4.1-2.2-3.3-4.5c0.4-1.3,1.6-2.2,3-2.3
		l2.5-0.1c8.5-0.4,15.5-6.7,16.9-15L729,885.3L729,885.3z"/>
	<path class="st18" d="M730,732.7c0.4-0.1,0.7-0.1,1.1-0.2c-0.1,4.6-0.1,9.5-0.1,14.4c0,6.5,0,13.1,0,19.9c0,3.4,0.1,6.8,0,10.5v3.3
		v0.6v0.3v0.2c0,0.2,0-0.3,0,0.4v0.1l-0.1,0.9c-0.1,1.3-0.1,2.7-0.1,4.2c0.3,6.2,1.7,13,2.9,19.7c0.6,3.4,1.1,6.8,1.5,10.3
		c0.3,3.3,0.6,7.2,0.5,10.2c0.1,7.1-0.4,13.3-0.8,19.3c-0.5,6-1.1,11.5-1.7,16.7c-0.3,2.6-0.6,5-1,7.3s-0.7,4.5-1,6.6
		c-0.6,4.1-1.3,7.7-1.8,10.7c-1.1,5.9-1.9,9.3-1.9,9.3c-0.6,2.6-3.1,4.6-5.9,4.9c-3.6,0.3-5.8-2.2-7.3-5.8c0,0-0.1-3.4-0.5-9.3
		c-0.2-3-0.2-6.6-0.4-10.7c-0.1-2.1-0.2-4.3-0.4-6.6c-0.1-2.3-0.2-4.7-0.4-7.3c-0.3-5-0.5-10.5-0.8-16.2c-0.2-2.8-0.3-5.8-0.5-8.7
		s-0.4-5.9-0.7-8.7c-0.4-3.3-0.7-6-1-9.1s-0.6-6.3-0.8-9.5c-0.3-3.2-0.6-6.5-1-9.9s-1-6.8-1.5-10.5c-0.3-1.9-0.6-3.8-0.8-5.9
		l-0.1-1.6v-0.1c0,0.6,0,0.1,0,0.2v-0.2l-0.1-0.3l-0.1-0.6l-0.2-0.7l-0.2-1.1c-0.6-3-1.3-6.3-2.1-9.5c-1.5-6.5-3-12.9-4.6-19.1
		c-1.9-7.7-3.9-15.1-5.7-22.1C704.1,733.6,717.8,735,730,732.7L730,732.7z"/>
	<path class="st9" d="M691,902c0.4-1.3,1.6-2.2,3-2.3l2.5-0.1c6.8-0.4,12.6-4.4,15.4-10.3c1.7,3.7,5.2,6.7,10.4,6.7
		c3.1,0,5.4-1,7-2.6l0.1,3.8c0.1,4.5-3.4,8.3-7.9,8.4l-27.1,0.9C692,906.5,690.3,904.2,691,902z"/>
	<path class="st16" d="M744.7,735.7c-8.6,8.1-66.8,13.6-88.2-4.2c-2.6-35,10-101.5,10-101.5l64.4-1.8c0,0,18.4,51.9,14.5,95.6
		C745.1,727.8,744.8,731.8,744.7,735.7L744.7,735.7z"/>
	<path class="st20" d="M664.5,503.9c2.4-10.7,10.2-20.2,20.5-24.1c9-3.4,19.2-2.6,28,1.3c8.8,3.8,27.6,35.8,22.8,47.9
		c-4.9,12.1-17.1,20.7-30.2,21.8c-13,1.1-26.3-5.3-34.2-15.7C664.9,526.2,662.1,514.6,664.5,503.9L664.5,503.9z"/>
	<path class="st18" d="M731.6,535.3c-18.8-0.6-17.1-16.5-17.1-16.5l-12.6-0.4l-12.6,0.4c0,0,1.7,15.9-17.1,16.5
		c-6.1,0.2-18.4,19.9-18.4,19.9H740C740.1,555.2,734.4,535.4,731.6,535.3z"/>
	<path class="st19" d="M688.8,523.7c-0.4,1.5-0.9,3.1-1.9,4.7c5.9,12.7,22.2,14.3,29.5-0.9c-0.6-0.9-1.6-5.3-1.9-6.7L688.8,523.7
		L688.8,523.7z"/>
	<path class="st18" d="M675,480.3c1.6-16.9,14-26.7,26.3-26.5c12.2,0.2,24.4,10.3,25.6,27.3c0.7,10-1.5,20.7-3.1,26.8
		c-0.9,3.7-2.7,7-5.1,9.6c-5.5,6-12.7,10.8-18.4,10.7s-12.7-5.1-18.1-11.3c-2.4-2.7-4-6.1-4.9-9.8C676,501,674,490.2,675,480.3
		L675,480.3z"/>
	<path class="st18" d="M658,542.8c0,0-1.6,1.5-4.4,4c-2.8,2.6-6.7,6.2-11.5,10.4s-10.4,9.1-16.4,13.8c-3,2.3-6.2,4.6-9.2,6.4
		c-1.5,0.9-3,1.6-4,2.1c-0.5,0.2-0.9,0.3-0.8,0.4c0,0,0.3,0,0.6,0.1h0.2h0.1l0,0c1.1,0.3,0.3,0.1,0.5,0.1l-0.4-0.1
		c0,0,1.1,0.4,0.9,0.4c0.4,0.3,0.1,0.3-0.2,0c-0.4-0.3-0.9-0.7-1.4-1.3c-1.1-1.1-2.2-2.5-3.3-3.9c-2.2-3-4.3-6.3-6.2-9.6
		s-3.6-6.7-5.1-9.9c-0.7-1.6-1.4-3.2-2-4.8s-1.1-3.1-1.5-4.6c-0.9-2.9-1.5-5.7-1.8-8.1c-0.1-2.4,0.7-4.5,0.9-6
		c0.2-1.6,0.1-2.7,0-3.6c-0.2-0.8-0.4-1.4-0.4-1.4l-0.6-1.3c-1.2-2.5-4.2-3.6-6.8-2.4c-0.4,0.2-0.8,0.5-1.1,0.7c0,0-0.1,0.1-0.4,0.4
		c-0.2,0.3-0.6,0.7-0.9,1.3c-0.7,1.1-1.4,2.9-1.5,5.2c-0.1,2.2,0.6,4.9,0.9,7.7c0.1,2.9,0.2,6.1,0.6,9.6c0.2,1.7,0.4,3.5,0.7,5.4
		s0.6,3.8,1,5.8c0.8,3.9,1.8,8,3.1,12.3c1.3,4.2,2.9,8.6,5.2,13c1.2,2.2,2.4,4.4,4.1,6.7c0.9,1.1,1.8,2.3,3.1,3.5
		c1.2,1.2,2.7,2.5,5.1,3.7c0.4,0.2,1.9,0.8,2.4,1l0.4,0.1c0.3,0.1-0.5-0.1,0.6,0.1h0.1l0.3,0.1l0.6,0.1c1.5,0.2,2.8,0.3,3.9,0.2
		c2.3-0.1,4-0.6,5.6-1c3.1-0.9,5.6-2,7.9-3.2c4.6-2.3,8.5-4.7,12.1-7.2c7.3-4.9,13.4-9.8,18.7-14.1c5.2-4.3,9.4-8,12.3-10.6
		c2.9-2.6,4.5-4.1,4.5-4.1c4.9-4.5,5.2-12.1,0.7-16.9C670.6,538.6,663,538.3,658,542.8L658,542.8L658,542.8z"/>
	<path class="st9" d="M637,561.3c0,0,10.8-12,18.8-19.8c7.9-7.8,21.6-7.1,21.6-7.1s4.8,15.4,24.1,15.7c19.3-0.2,24.3-15.6,24.3-15.6
		s13.4-0.7,21.3,7.1c7.9,7.8,7,19.4,11.8,36.9l-22.6,4.4c0,0-7,33.3-5.2,45.8c0,0-8.6,6.5-29.6,6.5s-35.1-4.5-35.1-4.5
		c1.8-12.5-4.6-56-4.6-56l-8.9,4.5L637,561.3z"/>
	<path class="st18" d="M722.8,683.4c0.3-0.9,0.7-1.9,1.2-2.9s1.2-2,1.7-3.2c0.6-1.1,1-2.4,1.4-3.8c0.4-1.4,0.9-2.7,1.4-4.2
		c0.9-2.9,2-6.1,3.1-9.5s2.2-6.9,3.4-10.5s2.5-7.4,3.9-11.2c0.7-1.9,1.4-3.8,2.1-5.7l1.1-2.8l0.6-1.4l0.1-0.4l0.1-0.2
		c0-0.1,0.1-0.2,0.1-0.3c0.2-0.9,0.4-1.9,0.3-2.8c0-0.5-0.1-0.9-0.2-1.3c0,0.1-0.3-1.3-0.5-2.2c-0.9-3.9-5.8-38.5-5.8-38.5l21.5-4.2
		c0,0,0.2,4.5,0.6,7c0.9,6,1.9,13,2.9,20.5c0.5,3.8,1,7.6,1.4,11.6c0.1,1.1,0.2,1.7,0.4,3.7c0.1,1.6,0.1,3.1-0.1,4.7
		c-0.3,3.1-1.1,6.1-2.4,8.9c-0.2,0.4-0.3,0.7-0.5,1l-0.3,0.5l-0.2,0.3l-0.8,1.3l-1.5,2.6c-1,1.7-2,3.4-3,5.1c-2.1,3.4-4.1,6.7-6,10
		c-3.9,6.5-7.4,12.5-10.1,17.9c-0.6,1.3-1.3,2.6-1.9,3.8c-0.6,1.2-1.1,2.4-1.4,3.6c-0.5,2.4-0.6,4.4-1.2,6c-0.4,1.5-1.1,2.7-1.6,3.3
		c-0.5,0.7-1,1-1,1l-0.9,0.7c-0.4,0.3-0.8,0.5-1.3,0.7c-2.6,1.1-5.6-0.2-6.7-2.9c0,0-0.3-0.6-0.4-1.8
		C722.1,686.8,722.3,685.3,722.8,683.4L722.8,683.4z"/>
	<path class="st20" d="M699.8,476.1c3.6,1.8,7.6,2.8,11.3,4.6s7,4.8,7.9,8.7c1,4.6-1.6,9.7,0.7,13.8c2.5,4.5,9.5,4.9,12.1,9.3
		c2.6,4.2-0.3,9.8-4,13.1c-3.8,3.2-8.6,5.4-11.5,9.4c-3.3,4.4-3.8,10.6-1.2,15.4c2.6,4.8,8,7.9,13.5,7.7c7.6-0.3,13.9-6.6,16.5-13.8
		c2.6-7.1,2.3-14.9,1.9-22.5c-0.5-8.5-1-17.1-1.6-25.6c-0.9-13.3-2.2-27.2-9.8-38.2c-5.6-8.1-14.6-14-24.3-15.8
		c-7.8-1.5-26.3-1.3-27.4,8.7C682.6,460.9,691.3,472,699.8,476.1L699.8,476.1z"/>
	<path class="st20" d="M682.6,476.8c-4.5,8.1-10.2,16.1-10.3,25.4c-0.1,6.7,2.9,12.9,5.5,19s5.1,12.7,4.1,19.3s-6.9,12.9-13.5,12
		c-4.5-0.6-8.2-4.3-9.9-8.6c-1.7-4.2-1.9-8.9-1.9-13.5c-0.1-19.5,1.8-39,5.4-58.1c1.8-9.2,7.3-24.3,19.8-21.3
		C693.1,453.9,686.1,470.4,682.6,476.8z"/>
	<path class="st9" d="M688.8,494c0,1.3-1,2.3-2.3,2.3s-2.3-1-2.3-2.3s1-2.3,2.3-2.3S688.8,492.7,688.8,494z"/>
	<path class="st19" d="M691.6,503.7c0,2.1-2.2,3.8-4.9,3.8s-4.9-1.7-4.9-3.8s2.2-3.8,4.9-3.8C689.4,499.9,691.6,501.6,691.6,503.7z"
		/>
	<path class="st9" d="M710.6,494c0,1.3,1,2.3,2.3,2.3s2.3-1,2.3-2.3s-1-2.3-2.3-2.3S710.6,492.7,710.6,494z"/>
	<path class="st19" d="M707.7,503.7c0,2.1,2.2,3.8,4.9,3.8s4.9-1.7,4.9-3.8s-2.2-3.8-4.9-3.8S707.7,501.6,707.7,503.7z"/>
	<path class="st16" d="M706.4,510.5c0.9,0,1.6,1.1,1,1.8c-1.6,2.2-4.2,3.7-7.1,3.7s-5.5-1.4-7.1-3.6c-0.6-0.8-0.1-2,1-2L706.4,510.5
		L706.4,510.5z"/>
	<path class="st10" d="M608.7,546.8c-0.9-0.6-1.7-1.1-2.6-1.6l-4.2-2.6l-1.1-0.6l-2.4-0.1h-4.8c-3.2,0-6.4,0.1-9.5,0.1
		c-6.3,0.2-24.6,0.6-30.6,1.2c-4.2,0.5-12.3,1.8-12.3,1.8l-27.8-20.9c0,0,3.6-1.7,4.7-2.1c2-0.7,3.9-1.4,5.9-2
		c1.9-0.6,3.8-1,5.7-1.4c7.5-1.6,14.8-2.2,21.9-2.5c7.1-0.3,26.1-0.1,33.1,0.3c3.5,0.2,6.9,0.5,10.4,0.9l5.2,0.6l5.3,0.7l0.8,0.1
		c1.6,0.2,11.7-0.2,26,24.2C635.1,547.8,608.8,546.8,608.7,546.8L608.7,546.8z"/>
	<path class="st21" d="M531,586.3v45.8c0,0,0.1,0,0.2-0.1c1.8-0.7,3.4-2.2,4-4.1l0.3-0.8c2.7-7.8,5.2-15.6,7.6-23.4
		c1.2-3.9,2.4-7.9,3.5-11.9c0.1-0.5,0.3-1.1,0.4-1.6C541.7,589,536.4,587.7,531,586.3z"/>
	<path class="st22" d="M578.1,884.1l0.4,12.2c0.1,4.6-3.5,8.5-8.2,8.7l-32.5,0.9c-2.4,0.1-4.2-2.3-3.4-4.6c0.4-1.3,1.7-2.3,3.1-2.4
		l7.1-0.1c8.7-0.5,16-6.9,17.4-15.5L578.1,884.1L578.1,884.1z"/>
	<path class="st22" d="M558.7,863.7c-0.3-2.8-0.6-5.7-0.9-8.5c-0.4-4.8-0.9-9.5-1.2-14.3l24.7-5.4l-0.2,2.6l-1.3,16.9
		c-0.2,2.8-0.5,5.6-0.7,8.5c-0.2,2.8-0.1,5.7-0.4,8.5c-0.4,4.6-1.2,12.8-1.4,15.8c-0.1,0.8-0.4,1.7-0.8,2.4
		c-1.9,3.2-4.3,5.4-7.8,4.9c-3.2-0.4-6-2.9-6.5-5.9c-1-5.7-1.8-11.3-2.5-17C559.3,869.3,559,866.5,558.7,863.7z"/>
	<path class="st9" d="M578.1,884.1l0.4,12.2c0.1,4.6-3.5,8.5-8.2,8.7l-32.5,0.9c-2.4,0.1-4.2-2.3-3.4-4.6c0.4-1.3,1.7-2.3,3.1-2.4
		l7.1-0.1c8.7-0.5,16-6.9,17.4-15.5L578.1,884.1L578.1,884.1z"/>
	<path class="st21" d="M558.7,863.7c-0.3-2.8-0.6-5.7-0.9-8.5c-0.4-4.8-0.9-9.5-1.2-14.3l24.7-5.4l-0.2,2.6l-1.3,16.9
		c-0.2,2.8-0.5,5.6-0.7,8.5c-0.2,2.8-0.1,5.7-0.4,8.5c-0.4,4.6-1.2,12.8-1.4,15.8c-0.1,0.8-0.4,1.7-0.8,2.4
		c-1.9,3.2-4.3,5.4-7.8,4.9c-3.2-0.4-6-2.9-6.5-5.9c-1-5.7-1.8-11.3-2.5-17C559.3,869.3,559,866.5,558.7,863.7z"/>
	<path class="st9" d="M595.3,673.8l-51.2-15c0,0-1,27-0.7,35.6c0.6,17.1,1.3,53.4,2.4,83.4c1.1,30,8,107.7,8,107.7s17,2.9,27.3,0.8
		c0,0,4.8-75,2.5-97.3s2-48.8,7.3-82.3C592.7,695.5,595.1,684.2,595.3,673.8z"/>
	<path class="st9" d="M626,884.4l0.2,12.3c0.1,4.6-3.6,8.5-8.3,8.6l-32.5,0.5c-2.4,0.1-4.2-2.4-3.4-4.7c0.5-1.3,1.7-2.2,3.1-2.3
		l7.1-0.1c8.7-0.3,16.1-6.7,17.6-15.3L626,884.4L626,884.4z"/>
	<path class="st21" d="M606.6,864.1c-0.4-2.8-0.9-5.6-1.2-8.5c-0.6-4.7-1.3-9.5-1.8-14.3L628,835l-0.1,2.6l-0.6,17
		c-0.1,2.8-0.3,5.7-0.4,8.5c-0.1,2.8,0.1,5.7-0.1,8.5c-0.3,5.7-0.6,11.4-0.9,17.1c-1.9,3.9-4.2,6.8-8.2,6.5
		c-3.2-0.3-6.1-2.7-6.7-5.6c-1.2-5.6-2.2-11.2-3.2-16.9C607.5,869.8,607,867,606.6,864.1L606.6,864.1z"/>
	<path class="st23" d="M581.6,673.8c1.3,6.2,2.6,13.2,3.4,23c1.4,17.1,3.6,53.6,6.1,83.7c2.4,30.1,11.8,107.9,11.8,107.9
		s17.2,2.2,27.5-0.2c0,0,2.5-75.5-0.8-97.8s-0.1-49.2,3.7-83.1c1.3-11.4,4.4-29.6-5.2-54.6L581.6,673.8L581.6,673.8z"/>
	<path class="st21" d="M621.3,541.4c-19.4-0.6-17.7-17-17.7-17l-13-0.4l-13,0.4c0,0,1.7,16.4-17.7,17c-6.3,0.2-19,20.6-19,20.6H630
		C630,562,624.2,541.5,621.3,541.4L621.3,541.4z"/>
	<path class="st24" d="M577,529.5c-0.4,1.5-1,3.2-1.9,4.9c6.1,13.1,22.9,14.8,30.5-0.9c-0.6-1-1-2.5-1.3-4H577z"/>
	<path class="st21" d="M560.4,483.6c1.8-19,15.8-29.9,29.5-29.7c13.8,0.2,27.5,11.6,28.8,30.6c0.8,11.2-1.7,23.2-3.4,30.1
		c-1.1,4.1-3,7.9-5.7,10.8c-6.2,6.8-14.3,12.2-20.7,12.1c-6.4-0.1-14.3-5.8-20.4-12.7c-2.6-3-4.5-6.8-5.4-11
		C561.5,506.8,559.3,494.7,560.4,483.6L560.4,483.6z"/>
	<path class="st18" d="M637.7,595.2l20.7-9.2c-5-18.1-7.1-30.1-15.3-38.1s-27.8-6.7-27.8-6.7s-4.6,15-24.9,15
		c-20.3,0-24.5-15.1-24.5-15.1s-20-1.2-28.2,6.8S524.8,568,519.8,586l23.4,9.2l-4.1,100c0,0,17.5,7.2,46.6,7.2c37.2,0,52.2-6,52.2-6
		L637.7,595.2z"/>
	<path class="st9" d="M576.2,499.1c0,1.3-1,2.3-2.3,2.3s-2.3-1-2.3-2.3s1-2.3,2.3-2.3C575.2,496.9,576.2,497.9,576.2,499.1z"/>
	<path class="st9" d="M602.7,499.1c0,1.3,1,2.3,2.3,2.3s2.3-1,2.3-2.3s-1-2.3-2.3-2.3C603.8,496.9,602.7,497.9,602.7,499.1z"/>
	<path class="st16" d="M582,516.5c-1.1,0-1.9,1.3-1.3,2.2c1.9,2.7,5.1,4.6,8.7,4.6c3.6,0,6.7-1.8,8.6-4.4c0.7-1,0.1-2.4-1.2-2.4
		L582,516.5L582,516.5z"/>
	<path class="st25" d="M579,508.6c0,2-2.1,3.7-4.8,3.7c-2.6,0-4.8-1.7-4.8-3.7s2.1-3.7,4.8-3.7C576.9,504.9,579,506.6,579,508.6z"/>
	<path class="st25" d="M600,508.6c0,2,2.1,3.7,4.8,3.7c2.6,0,4.8-1.7,4.8-3.7s-2.1-3.7-4.8-3.7C602.1,504.9,600,506.6,600,508.6z"/>
	<path class="st26" d="M619.5,456.2c-5.7-2.7-11.4-8.4-17.7-9.6c-4.4-0.8-8.2,0.9-12.5,1.5c-5,0.8-10.8,0.4-15.7,1.8
		c-7.8,2.3-13.8,9.2-11.2,16.4c-1.9,3.6-3,7.5-3.4,11.6c-1.3,13.5,1.6,22,2.6,21.6c1.6-0.7,3.5-3.8,3.5-9.9c0-8.4,3.1-12.9,6.5-14.4
		c11.2,7.5,24.9,5,37.1,0.7c2.9,2,5.3,6.3,5.3,13.7s1.8,9.3,3.5,9.9c1,0.4,3.9-8.1,2.6-21.6c-0.2-2.1-0.6-4.3-1.3-6.3
		C625.8,467.4,629.6,460.9,619.5,456.2L619.5,456.2z"/>
	<path class="st21" d="M662,630.3c0-1.4-0.1-2.4-0.2-3.6c-0.1-2.2-0.3-4.3-0.5-6.3c-0.9-8-2-15-3.1-21.1c-0.6-3-1.1-5.8-1.6-8.2
		c-0.3-1.3-0.6-3.1-0.8-4.2c-8.8,3.7-17.7,7.6-27.1,9.8c0.7,2.5,1.4,5.4,2.3,8.7c0.8,2.9,1.6,6,2.5,9.3s1.9,6.7,2.8,10.2
		c0.5,1.8,0.9,3.4,1.3,5.1c0.2,0.7,0.3,1.5,0.5,2.2l0.2,0.8v0.1l0,0c0-1.2,0-0.3,0-0.6v1v0.1c0,0,0,0,0,0.3l-0.1,1.2
		c-0.1,0.8-0.2,1.7-0.3,2.6c-0.3,1.9-0.6,3.8-0.8,5.7c-0.6,3.9-1.2,7.8-1.8,11.7c-0.7,3.9-1.3,7.7-1.9,11.5c-0.7,3.7-1.3,7.3-2,10.7
		s-1.4,6.6-2.1,9.5c-0.4,1.5-0.6,2.9-1,4.2s-1,2.5-1.6,3.6c-1.2,2.2-2.1,4.2-2.5,5.9c-0.9,3.4-0.1,5.8-0.1,5.8v0.1
		c0.2,0.6,0.6,1.3,1,1.8c2.2,2.9,6.3,3.5,9.3,1.3c0,0,2-1.5,3.3-4.8c0.6-1.7,1.1-3.8,1.3-6.3c0.1-1.2,0.4-2.6,0.8-3.9
		c0.4-1.3,1-2.7,1.5-4.1c1.1-2.8,2.3-5.9,3.6-9.1c1.3-3.2,2.8-6.6,4.3-10.2c1.5-3.6,3-7.2,4.5-11s3.1-7.6,4.4-11.6
		c0.7-2,1.4-4,2-6.1c0.3-1,0.6-2.1,0.9-3.3l0.4-1.8c0.1-0.2,0.2-0.7,0.3-1.2l0.3-1.4L662,630.3L662,630.3z"/>
	<path class="st10" d="M624.8,531.9c6.6,7.9,10.1,15.9,10.9,18.9c0.8,3.1,1.5,6,2.2,8.7c0.3,1.4,0.6,2.7,0.9,3.9
		c0.2,1.3,0.5,2.5,0.9,3.6s1,2.1,1.3,3.2c0.4,1.1,0.6,2,0.7,3c0.1,2-0.2,3.5-0.8,4.7c-0.5,1.1-1,1.6-1,1.6c-2.2,2.1-5.8,2.3-8.1,0.2
		l-2.4-2.1c0,0-0.4-0.4-0.8-0.9c-0.3-0.4-0.8-1.3-0.8-2.3c-0.2-1.1,0.2-2.7,0.2-4.6c-0.1-1.9-1.3-3.9-2.2-6.1
		c-1.1-2.2-2.4-4.6-3.8-7c-1.5-2.5-3.2-5-5-7.6s-3.7-5.3-5.7-8c-1-1.4-1.9-2.7-2.9-4.1l-2-2.9C606.1,534,624.3,531.4,624.8,531.9
		L624.8,531.9z"/>
	<path class="st9" d="M470.8,433.1c0,7.3,5.9,13.1,13.2,13.1s13.2-5.9,13.2-13.1c0-7.3-5.9-13.1-13.2-13.1S470.8,425.9,470.8,433.1z
		"/>
	<path class="st22" d="M496.1,883.2l-0.4,12.6c-0.1,4.8,3.6,8.7,8.4,8.9l33.3,0.9c2.5,0.1,4.3-2.4,3.5-4.7c-0.5-1.4-1.7-2.3-3.1-2.4
		l-7.3-0.1c-9-0.5-16.4-7.1-17.9-15.9L496.1,883.2L496.1,883.2z"/>
	<path class="st22" d="M516,862c0.3-2.9,0.7-5.8,0.9-8.7c0.4-4.9,0.9-9.8,1.3-14.7l-25.4-5.5l0.2,2.7l1.3,17.3
		c0.2,2.9,0.5,5.8,0.7,8.7c0.3,2.9,0.1,5.8,0.4,8.7c0.6,5.8,1.6,17.5,1.6,17.5c2.1,3.9,4.6,6.8,8.7,6.3c3.3-0.4,6.1-3,6.7-6.1
		c1-5.8,1.8-11.6,2.5-17.4C515.3,867.8,515.7,865,516,862L516,862z"/>
	<path class="st12" d="M496.1,883.2l-0.4,12.6c-0.1,4.8,3.6,8.7,8.4,8.9l33.3,0.9c2.5,0.1,4.3-2.4,3.5-4.7c-0.5-1.4-1.7-2.3-3.1-2.4
		l-7.3-0.1c-9-0.5-16.4-7.1-17.9-15.9L496.1,883.2L496.1,883.2z"/>
	<path class="st10" d="M516,862c0.3-2.9,0.7-5.8,0.9-8.7c0.4-4.9,0.9-9.8,1.3-14.7l-25.4-5.5l0.2,2.7l1.3,17.3
		c0.2,2.9,0.5,5.8,0.7,8.7c0.3,2.9,0.1,5.8,0.4,8.7c0.6,5.8,1.6,17.5,1.6,17.5c2.1,3.9,4.6,6.8,8.7,6.3c3.3-0.4,6.1-3,6.7-6.1
		c1-5.8,1.8-11.6,2.5-17.4C515.3,867.8,515.7,865,516,862L516,862z"/>
	<path class="st27" d="M478.4,657.6l52.4-15.4c0,0,1,27.7,0.7,36.5c-0.6,17.5-1.3,54.7-2.4,85.5c-1.1,30.7-8.2,120.5-8.2,120.5
		s-17.4,2.9-27.9,0.8c0,0-4.9-86.9-2.6-109.8c2.3-22.9-2.1-50-7.5-84.4C481.1,679.9,478.7,668.3,478.4,657.6L478.4,657.6z"/>
	<path class="st12" d="M447,883.5l-0.2,12.6c-0.1,4.8,3.7,8.7,8.5,8.8l33.4,0.6c2.5,0.1,4.3-2.4,3.5-4.8c-0.5-1.4-1.7-2.3-3.2-2.4
		l-7.3-0.1c-9-0.4-16.5-6.8-18.1-15.6L447,883.5L447,883.5z"/>
	<path class="st10" d="M466.9,862.7c0.4-2.9,0.9-5.8,1.3-8.7c0.6-4.9,1.3-9.7,1.9-14.6l-25.1-6.5l0.1,2.7l0.6,17.4
		c0.1,2.9,0.3,5.8,0.4,8.7s-0.1,5.8,0.1,8.7c0.3,5.8,0.6,11.7,0.9,17.5c2,4,4.4,7,8.4,6.6c3.3-0.3,6.3-2.7,6.9-5.8
		c1.2-5.8,2.3-11.5,3.2-17.3C466,868.5,466.4,865.7,466.9,862.7L466.9,862.7z"/>
	<path class="st28" d="M492.5,657.6c-1.4,6.3-2.7,13.5-3.5,23.6c-1.4,17.6-3.7,55-6.2,85.8s-12.1,120.6-12.1,120.6
		s-17.6,2.3-28.1-0.2c0,0-2.6-87.4,0.8-110.3c3.3-22.9,0.1-50.4-3.8-85.1c-1.3-11.7-4.5-30.3,5.3-55.9L492.5,657.6L492.5,657.6z"/>
	<path class="st10" d="M451.9,521.9c19.9-0.6,18.1-17.4,18.1-17.4l13.3-0.4l13.3,0.4c0,0-1.8,16.9,18.1,17.4
		c6.5,0.2,19.4,21.1,19.4,21.1h-91.3C442.9,543.1,448.9,522,451.9,521.9L451.9,521.9z"/>
	<path class="st14" d="M497.2,509.7c0.4,1.6,1,3.3,2,5c-6.2,13.5-23.5,15.2-31.3-0.9c0.6-1,1-2.5,1.3-4.1H497.2z"/>
	<path class="st10" d="M514.2,462.7c-1.8-19.5-16.2-30.7-30.2-30.4c-14.1,0.2-28.1,11.9-29.5,31.4c-0.8,11.4,1.7,23.8,3.5,30.9
		c1.1,4.2,3.1,8.1,5.9,11.1c6.4,6.9,14.7,12.5,21.2,12.4s14.6-5.9,20.9-13c2.7-3.1,4.6-7,5.6-11.3
		C513.1,486.5,515.3,474.1,514.2,462.7L514.2,462.7z"/>
	<path class="st16" d="M435,577l-21.2-9.4c5.1-18.5,7.2-30.8,15.6-39s28.2-7.9,28.2-7.9s5,16.4,25.9,16.4s24.8-17.1,24.8-17.1
		s30.9-5.8,41.8-4c2.1,14.8,4.5,25.2,4.5,25.2l-20.4,14.7l1.9,123.6c0,0-17.9,7.4-47.8,7.4c-38.2,0-53.5-6.1-53.5-6.1L435,577
		L435,577z"/>
	<path class="st9" d="M498,478.7c0,1.3,1,2.3,2.3,2.3s2.3-1,2.3-2.3s-1-2.3-2.3-2.3C499,476.3,498,477.4,498,478.7z"/>
	<path class="st9" d="M454.4,464.8c1.9,12.8,4.7,24.8,15.5,31.7c1.1-1.8,6.5-6.4,14.9-6.4s13.1,4.5,14.4,6.4
		c6.6-4.4,10.3-10.7,12.1-18.7c0.4-1.9,0.3-3.6-0.2-5c1.5-2.9,2.6-6.1,3.2-9.5c0.9,11.2-1.2,23.4-2.8,30.4c-1,4.3-2.9,8.1-5.6,11.3
		c-6.2,7.1-14.4,12.9-20.9,13s-14.8-5.4-21.2-12.4c-2.8-3-4.8-6.9-5.9-11.1C456.3,487.7,453.9,475.9,454.4,464.8L454.4,464.8z"/>
	<path class="st9" d="M470.8,478.7c0,1.3-1,2.3-2.3,2.3s-2.3-1-2.3-2.3s1-2.3,2.3-2.3C469.8,476.3,470.8,477.4,470.8,478.7z"/>
	<path class="st16" d="M492,497.8c1.2,0,2,1.3,1.3,2.3c-2,2.8-5.2,4.7-8.9,4.7s-6.9-1.8-8.8-4.5c-0.7-1-0.1-2.4,1.2-2.4L492,497.8
		L492,497.8z"/>
	<path class="st15" d="M495.2,488.4c0,2.1,2.2,3.8,4.9,3.8s4.9-1.7,4.9-3.8s-2.2-3.8-4.9-3.8S495.2,486.3,495.2,488.4z"/>
	<path class="st15" d="M473.7,488.4c0,2.1-2.2,3.8-4.9,3.8s-4.9-1.7-4.9-3.8s2.2-3.8,4.9-3.8S473.7,486.3,473.7,488.4z"/>
	<path class="st9" d="M453.1,456.9c1.4-13.8,10.9-27,31.3-27s29.9,13.2,31.3,27c1.4,13.8-1.6,22.6-2.6,22.1
		c-1.7-0.7-3.6-3.9-3.6-10.2c0-11.9-6.2-16.2-10.6-15.2c-4.2,0.9-7.3,4.1-14.4,4.1c-7.2,0-10.3-3.2-14.4-4.1
		c-4.4-0.9-10.6,3.2-10.6,15.2c0,7.5-1.9,9.5-3.6,10.2C454.7,479.5,451.8,470.7,453.1,456.9z"/>
	<path class="st10" d="M408.4,615v-2.2c0-1.5,0.1-2.5,0.2-3.7c0.1-2.2,0.3-4.4,0.5-6.4c0.9-8.1,2.1-15.4,3.1-21.6
		c0.6-3.1,1.1-5.9,1.6-8.4c0.3-1.3,1-3.2,1.2-4.4c9,3.8,17.7,7.9,27.4,10.1c-0.7,2.6-1.5,5.6-2.4,8.9c-0.8,2.9-1.7,6.1-2.6,9.5
		c-0.9,3.3-1.9,6.9-2.8,10.4c-0.5,1.8-0.9,3.5-1.3,5.2c-0.2,0.8-0.3,1.5-0.5,2.3l-0.2,0.8v0.1l0,0c0-1.2,0-0.3,0-0.6v1.1v0.1
		c0,0,0,0,0,0.3l0.1,1.2c0.1,0.9,0.2,1.8,0.3,2.7c0.3,1.9,0.6,3.9,0.9,5.8c0.6,4,1.3,8,1.9,12c0.7,4,1.3,7.9,2,11.7s1.3,7.5,2,11
		s1.4,6.8,2.1,9.8c0.4,1.5,0.6,3,1.1,4.3c0.4,1.3,1,2.6,1.6,3.7c1.2,2.2,2.1,4.3,2.6,6c0.9,3.5,0.1,5.9,0.1,5.9v0.1
		c-0.2,0.6-0.6,1.3-1,1.9c-2.2,3-6.5,3.6-9.5,1.4c0,0-2.1-1.5-3.4-4.9c-0.7-1.7-1.1-3.9-1.4-6.4c-0.2-1.3-0.4-2.6-0.8-4
		s-1-2.7-1.6-4.2c-1.1-2.9-2.4-6.1-3.7-9.4c-1.3-3.3-2.9-6.8-4.4-10.4c-1.5-3.7-3.1-7.4-4.6-11.2c-1.5-3.9-3.1-7.8-4.5-11.9
		c-0.7-2-1.4-4.1-2-6.2c-0.3-1.1-0.6-2.2-0.9-3.3L409,620c-0.1-0.2-0.2-0.7-0.3-1.2l-0.4-1.4L408.4,615L408.4,615z"/>
	<path class="st29" d="M479.2,782.2h86.4v-68.1h-86.4V782.2z"/>
	<path class="st17" d="M516,782.2h49.6v-68.1H516V782.2z"/>
	<path class="st16" d="M531,764.6h21.9v-11.4H531V764.6z"/>
	<path class="st17" d="M693.3,821.6h94.4v-42.8h-94.4V821.6z"/>
	<path class="st18" d="M738.1,821.6h49.6v-42.8h-49.6V821.6z"/>
	<path class="st16" d="M753.1,804H775v-11.4h-21.9V804z"/>
	<path class="st29" d="M582,822.8h121v-95.4H582V822.8z"/>
	<path class="st17" d="M633.5,822.8h69.4v-95.4h-69.4V822.8z"/>
	<path class="st16" d="M657.2,805.1h21.9v-11.4h-21.9V805.1z"/>
	<path class="st17" d="M417.6,822.8h168.5V780H417.6V822.8z"/>
	<path class="st18" d="M536.5,822.8h49.6V780h-49.6V822.8z"/>
	<path class="st16" d="M551.5,805.1h21.9v-11.4h-21.9V805.1z"/>
	<path class="st9" d="M421.2,924.8v29.5h50v-14.7H499v14.7h51.9v-14.7h25.9v14.7h51.9v-14.7h27.8v14.7h50v-14.7h27.8v14.7h50v-29.5
		H421.2z"/>
	<path class="st29" d="M431.1,926.6H607V821.4H431.1V926.6z"/>
	<path class="st17" d="M557.5,926.6h49.6V821.4h-49.6V926.6z"/>
	<path class="st16" d="M572.5,909h21.9v-11.4h-21.9V909z"/>
	<path class="st29" d="M605.6,926.6h168.5V821.4H605.6V926.6z"/>
	<path class="st17" d="M724.5,926.6h49.6V821.4h-49.6V926.6z"/>
	<path class="st16" d="M739.5,909h21.9v-11.4h-21.9V909z"/>
</g>
</svg>
