<?xml version="1.0" encoding="utf-8"?>
<!-- Generator: Adobe Illustrator 28.2.0, SVG Export Plug-In . SVG Version: 6.00 Build 0)  -->
<svg version="1.1" id="Layer_1" xmlns="http://www.w3.org/2000/svg" xmlns:xlink="http://www.w3.org/1999/xlink" x="0px" y="0px"
	 viewBox="0 0 1920 1000.9" style="enable-background:new 0 0 1920 1000.9;" xml:space="preserve">
<style type="text/css">
	.st0{fill:#FFE501;}
	.st1{fill:#FFB300;}
	.st2{fill:#83A532;}
	.st3{fill:#6D8F22;}
</style>
<g>
	<path class="st0" d="M720.3,574.8c41.8-187.3-76.1-373-263.4-414.9S83.9,236,42,423.3c-41.8,187.3,76.1,373,263.4,414.9
		C492.7,880,678.5,762.1,720.3,574.8z"/>
</g>
<g>
	<path class="st1" d="M680.3,565.9c36.9-165.2-67.1-329-232.3-365.9S119,267.1,82.1,432.3c-36.9,165.2,67.1,329,232.3,365.9
		C479.6,835,643.4,731,680.3,565.9z"/>
</g>
<g>
	<path class="st2" d="M1359.2,1159.8c-21.3,63-61.7,115.6-115.3,137.3c-34.6,14-71.7,15.4-108.2,16.2c-4.1,0.1-8.3,0.2-12.4,0.3
		c-150.6,3-301.4-1.5-451.3-17.8c-59.3-6.4-119.4-15-174-43.9c-44-23.3-82.7-59.1-119.2-97c-21.3-22.2-42.3-45.6-56.9-74.6
		c-17.5-34.8-24.8-75.7-31-115.8c-7.6-48.8-14.1-97.9-19.4-147.2c-4.7-43.9-12.5-109,21-126.9c41.3-22,81.8-46.2,121.4-72.4
		c29.7-19.7,58.9-40.6,87.5-62.7c51.9-39.9,101.9-83.7,149.5-130.8c19.8-19.6,41.7-40.8,65.5-49.1c9.8-3.4,19.8-4.7,30.2-2.8
		c36.4,6.5,61.2,49.3,96.3,62.9c28.8,11,61.2,1.1,89.4,14c31.7,14.5,50,53.7,67,89.2c13,27,26.7,53.5,41.1,79.3
		c87.4,156.8,201.4,291.9,332.7,394.8C1380.2,1062.1,1374.8,1113.8,1359.2,1159.8z"/>
	<path class="st2" d="M1040.5,617.9c-23.6-5.6-48.9-1.3-70.2,12.3c-18.9,12.1-34.9,31.2-55.6,37.9c-15.1,4.9-31.9,2.5-45.6-6.7
		C848.9,648,836,621.2,814.8,610c-13.2-6.9-28-7-42.3-7c-42.5,0.2-85.2,0.8-127.2,8.2c-33.6,6-68.2,16.2-101.2,5.8
		c-8.6-2.7-17.5-7.3-22.3-16.4c-5.3-9.9-4.7-22.9-9.3-33.2c-2.4-5.4-6.4-9.6-11-12.2c51.9-39.9,101.9-83.7,149.5-130.8
		c19.8-19.6,41.7-40.8,65.5-49.1c9.8-3.4,19.8-4.7,30.2-2.8c36.4,6.5,61.2,49.3,96.3,62.9c28.8,11,61.2,1.1,89.4,14
		c31.7,14.5,50,53.7,67,89.2C1012.3,565.7,1026,592.1,1040.5,617.9z"/>
	<g>
		<path class="st3" d="M1359.2,1159.8c-21.3,63-61.7,115.6-115.3,137.3c-34.6,14-71.7,15.4-108.2,16.2c-4.1,0.1-8.3,0.2-12.4,0.3
			c-150.6,3-301.4-1.5-451.3-17.8c-59.3-6.4-119.4-15-174-43.9c-44-23.3-82.7-59.1-119.2-97c-21.3-22.2-42.3-45.6-56.9-74.6
			c-17.5-34.8-24.8-75.7-31-115.8c-7.6-48.8-14.1-97.9-19.4-147.2c-4.7-43.9-12.5-109,21-126.9c41.3-22,81.8-46.2,121.4-72.4
			c282.2,233.6,611.2,369.7,938.9,488.5C1355.6,1124.1,1357.8,1141.9,1359.2,1159.8z"/>
	</g>
	<g>
		<path class="st3" d="M1243.9,1297.1c-34.6,14-71.7,15.4-108.2,16.2c-4.1,0.1-8.3,0.2-12.4,0.3c-32.3-7.6-64.4-17.1-95.8-29.1
			c-82.9-31.8-162.3-83.2-221.4-160.3c86.3,23.1,178.3,14.4,260.7-24.7c19.9-9.4,40-21.4,52.2-42.6c13-22.8,14.5-52.7,10.9-80.1
			c-7.9-59-38.6-112.9-81.3-142.8c-25.9-18.2-55.4-27.6-82.6-43.1c-27.1-15.6-53.2-39.7-62.1-74.4c-9.5-37.4,2-82.8-17.7-113.9
			c-17.9-28.2-51.9-29.6-81.3-30.9c-29.4-1.4-64.5-10.4-74.9-43.7c-5.9-18.9-1.6-40,3.5-59.2c5.1-19.2,11-39.2,8.2-59.1
			c-2.3-15.9-12.6-31.3-25-34.3c9.8-3.4,19.8-4.7,30.2-2.8c36.4,6.5,61.2,49.3,96.3,62.9c28.8,11,61.2,1.1,89.4,14
			c31.7,14.5,50,53.7,67,89.2c91.4,190.7,220.9,354.2,373.8,474.1C1389.8,1129.5,1336.7,1259.5,1243.9,1297.1z"/>
	</g>
	<path class="st2" d="M1269.4,1732c-53.2,1.6-106.4,2.8-159.6,3.6c-745.6,10.1-1490-69.4-2235-131.3
		c-254-21.1-508.2-40.2-762.4-53.1c-66-3.4-132.1-6.3-198.1-8.7l-11.8-286.1c210.9-129.2,421.8-258.4,632.8-387.6
		c8.5-5.2,17.1-10.4,25.6-15.7c61.9-37.9,125.4-76.5,194.2-86.6c59.2-8.7,119.7,4,178.5-7.6c52.8-10.4,101.6-39.7,149-69.8
		c53.2-33.8,105.9-68.9,157.8-105.4c28.1-19.7,55.9-39.8,83.6-60.3c15.8-11.7,31.5-23.5,47.2-35.5c69.5-52.9,137.8-108.2,204.6-166
		c58-50.1,119.4-103.6,185.5-131.1c32-13.3,65.1-20.6,99.6-18.3C-24,180,65.6,289.3,150.9,382.9c27.5,30.2,55.7,59.4,84.5,87.6
		c56.3,55.3,114.9,107.1,175,156.3C564.7,753.1,729.2,862.5,892.7,971c101.2,67.2,205.8,135.7,320.6,150.2
		c15.1,107,27.6,214.4,37.3,322c2.1,23.2,4.1,46.4,5.9,69.7C1262.2,1585.7,1266.5,1658.7,1269.4,1732z"/>
	<path class="st2" d="M235.5,470.5c-46.9-2-94.8,24.2-122.4,70.4c-5.6,9.4-10.6,19.8-18.8,26c-9.4,7.2-21.2,7.4-32.3,6.4
		c-87.1-8-164.9-78.2-252.3-81.1c-36.8-1.2-73,9.7-108.2,22.7c-49.9,18.4-98.7,41.1-145.9,67.9c-75.6,42.8-154.2,97.6-236.7,82.6
		c-8.5-1.5-17.5-4.2-23.3-11.8c-6.8-8.9-7.6-22.2-11.6-33.4c-7.2-20.6-25.1-33-43.5-36.5c28.1-19.7,55.9-39.8,83.6-60.3
		c15.8-11.7,31.5-23.5,47.2-35.5c69.5-52.9,137.8-108.2,204.6-166c58-50.1,119.4-103.6,185.5-131.1c32-13.3,65.1-20.6,99.6-18.3
		C-24,180,65.6,289.3,150.9,382.9C178.5,413.1,206.6,442.3,235.5,470.5z"/>
	<g>
		<path class="st3" d="M1269.4,1732c-53.2,1.6-106.4,2.8-159.6,3.6c-65.4-48.3-121-116.2-159.4-196.5
			c-45.5-94.9-67.8-205.9-123.4-292.6c-66-103-171.5-158.7-277.1-184.6c-105.6-25.9-214.2-26-321.3-40.2
			C133.8,1009,28.8,975.9-19.1,876.2C-50.5,810.7-50,729.9-39.9,655.2c10-74.7,28.5-148.1,29.9-223.7
			c1.4-75.6-17.8-157.2-68.3-201.9c-44.9-39.8-103.7-42.3-160.2-38.8c32-13.3,65.1-20.6,99.6-18.3C-24,180,65.6,289.3,150.9,382.9
			c219.5,240.8,482,415.6,741.7,588.1c101.2,67.2,205.8,135.7,320.6,150.2C1241.7,1323.6,1261.4,1527,1269.4,1732z"/>
	</g>
</g>
</svg>
